<svg width="51" height="61" viewBox="0 0 51 61" fill="none" xmlns="http://www.w3.org/2000/svg">
<path d="M40.8825 32.2382C40.8825 26.8595 43.9787 22.2147 48.4795 19.9552C44.4617 16.1923 39.2993 15.9883 38.3821 15.9883C35.9439 15.9883 34.204 16.6487 32.5228 17.2871C30.8941 17.906 29.3557 18.4895 27.1299 18.4895C24.9042 18.4895 23.3658 17.906 21.7371 17.2871C20.0559 16.6487 18.316 15.9883 15.8778 15.9883C14.3419 15.9883 0.875 16.479 0.875 33.4894C0.875 47.3992 10.3678 60.9879 15.8778 60.9879C19.2513 60.9879 21.1913 60.1994 22.9043 59.5036C24.2424 58.9604 25.3999 58.4904 27.1299 58.4904C28.86 58.4904 30.0174 58.9604 31.3556 59.5048C33.0686 60.1994 35.0086 60.9879 38.3808 60.9879C42.2411 60.9879 47.7382 54.3104 50.8746 45.5336C44.9538 43.9998 40.8825 38.6373 40.8825 32.2382Z" fill="white"/>
<path d="M25.8836 15.9882C33.2076 14.4882 38.4575 8.45101 38.3844 0.988281C31.0604 2.48827 25.8105 8.52544 25.8836 15.9882Z" fill="white"/>
<path opacity="0.1" d="M15.8778 16.6133C18.316 16.6133 20.0559 17.2737 21.7371 17.9121C23.3658 18.531 24.9042 19.1145 27.1299 19.1145C29.3557 19.1145 30.8941 18.531 32.5228 17.9121C34.204 17.2737 35.9439 16.6133 38.3821 16.6133C39.2662 16.6133 44.0864 16.8354 48.0323 20.2194C48.1843 20.1357 48.3241 20.0332 48.4795 19.9552C44.4617 16.1923 39.2993 15.9883 38.3821 15.9883C35.9439 15.9883 34.204 16.6487 32.5228 17.2871C30.8941 17.906 29.3557 18.4895 27.1299 18.4895C24.9042 18.4895 23.3658 17.906 21.7371 17.2871C20.0559 16.6487 18.316 15.9883 15.8778 15.9883C14.3419 15.9883 0.875 16.479 0.875 33.4894C0.875 33.6041 0.887972 33.7179 0.889194 33.8325C1.04547 17.1144 14.3509 16.6133 15.8778 16.6133Z" fill="white"/>
<path opacity="0.1" d="M25.8887 15.3237C25.9177 15.1607 25.9539 14.7076 25.9897 14.4335C26.0157 14.0891 26.0531 13.7506 26.1016 13.4181C27.0153 7.15391 31.86 2.99517 38.3747 1.63998C38.3816 1.42361 38.384 1.20724 38.3819 0.988281C31.2744 2.44381 26.1205 8.16605 25.8887 15.3237Z" fill="white"/>
</svg>
