<svg width="20" height="20" viewBox="0 0 20 20" fill="none" xmlns="http://www.w3.org/2000/svg">
<path d="M16.5 0H3.5C1.567 0 0 1.567 0 3.5V16.5C0 18.433 1.567 20 3.5 20H16.5C18.433 20 20 18.433 20 16.5V3.5C20 1.567 18.433 0 16.5 0Z" fill="white" fill-opacity="0.16"/>
<g clip-path="url(#clip0_7047_9839)">
<path fill-rule="evenodd" clip-rule="evenodd" d="M12.732 3C12.9629 4.9868 14.071 6.17132 15.9975 6.29733V8.53195C14.881 8.64116 13.9031 8.27573 12.7656 7.58686V11.7663C12.7656 17.0756 6.98178 18.7348 4.65649 14.9292C3.16226 12.4803 4.07727 8.18332 8.87055 8.0111V10.3675C8.50539 10.4263 8.11504 10.5188 7.75827 10.6406C6.69217 11.0018 6.08776 11.6781 6.25565 12.871C6.57884 15.156 10.7677 15.8323 10.4193 11.3672V3.0042H12.732V3Z" fill="white"/>
</g>
<defs>
<clipPath id="clip0_7047_9839">
<rect width="12" height="14" fill="white" transform="translate(4 3)"/>
</clipPath>
</defs>
</svg>
