<svg width="139" height="43" viewBox="0 0 139 43" fill="none" xmlns="http://www.w3.org/2000/svg">
<g clip-path="url(#clip0_7003_4412)">
<path d="M51.1434 21.4974C51.1434 33.3739 32.1788 43 8.7887 43C5.77721 43 2.83904 42.84 0.00561523 42.5406H0.346045C22.2959 42.5406 40.0873 33.121 40.0873 21.4974C40.0873 9.87385 22.2959 0.454207 0.340807 0.454207H0.0475143C2.86522 0.154843 5.78768 0 8.78346 0C32.1736 0 51.1381 9.62093 51.1381 21.4974H51.1434Z" fill="url(#paint0_linear_7003_4412)"/>
<path d="M34.9176 21.4974C34.9176 28.5479 24.8409 34.6229 10.3177 37.3946C7.56281 37.9262 4.65083 38.334 1.60791 38.6076C13.7429 35.4075 22.0389 28.9453 22.0389 21.5025C22.0389 14.0597 13.7482 7.59243 1.60791 4.39233C4.64559 4.66589 7.55233 5.07364 10.302 5.60011C24.8357 8.37181 34.9176 14.452 34.9176 21.5025V21.4974Z" fill="url(#paint1_linear_7003_4412)"/>
<path d="M73.8784 16.527C74.0251 16.1657 74.0984 15.7786 74.0984 15.3863C74.0984 13.585 72.611 12.1243 70.7884 12.1243H66.7189C65.8495 12.1243 65.0168 12.4649 64.3778 13.0843C63.7598 13.6985 63.4142 14.5192 63.4142 15.3863C63.4142 17.1877 64.8963 18.6535 66.7189 18.6535H70.7884C71.066 18.6535 71.3383 18.6174 71.6054 18.5503L73.9256 20.8368C73.0666 21.2652 72.1187 21.4923 71.155 21.4923H66.3523C62.9376 21.4923 60.1617 18.7516 60.1617 15.3863C60.1617 13.7708 60.8059 12.243 61.9739 11.0817C63.147 9.92551 64.7025 9.29065 66.3523 9.29065H71.155C74.5698 9.29065 77.3508 12.0262 77.3508 15.3863C77.3508 16.6405 76.9685 17.8328 76.2405 18.8548L73.8784 16.527Z" fill="#FFB70F"/>
<path d="M91.2718 16.9192C91.2718 17.776 90.5648 18.478 89.6901 18.478H84.5942C83.7248 18.478 83.0125 17.7812 83.0125 16.9192V9.55383H79.9539V17.8276C79.9539 19.8458 81.6193 21.4923 83.6724 21.4923H90.6172C92.665 21.4923 94.3357 19.8509 94.3357 17.8276V9.55383H91.2771V16.9192H91.2718Z" fill="#FFB70F"/>
<path d="M103.265 13.874V17.7192C103.265 19.9025 105.067 21.6729 107.277 21.6729H116.82V18.6586H107.906C107.036 18.6586 106.324 17.9618 106.324 17.0999V14.1269C106.324 13.2701 107.031 12.5681 107.906 12.5681H116.82V9.55383H107.644C105.229 9.55383 103.265 11.4894 103.265 13.8688V13.874Z" fill="#FFB70F"/>
<path d="M100.406 9.55383H97.3472V21.5026H100.406V9.55383Z" fill="#FFB70F"/>
<path d="M138.822 9.55899H132.705L123.188 14.9682V9.55383H120.13V21.6729H123.188V16.5321L132.228 21.6677H138.345L127.928 15.7527L138.822 9.55899Z" fill="#FFB70F"/>
<path d="M103.407 36.5379H102.176L102.286 34.8604H102.129C102.05 35.2733 101.898 35.5933 101.689 35.8204C101.474 36.0475 101.249 36.2127 101.013 36.3211C100.778 36.4295 100.552 36.4914 100.348 36.5121C100.144 36.5327 100.008 36.543 99.9449 36.543H94.5189C94.2675 36.543 94.0109 36.5121 93.749 36.4501C93.4872 36.3882 93.2463 36.2798 93.0315 36.1353C92.8168 35.9908 92.6335 35.7895 92.4921 35.5417C92.3507 35.294 92.2826 34.9843 92.2826 34.6178V34.0552C92.2826 33.8023 92.3192 33.57 92.3873 33.3584C92.4554 33.1468 92.5759 32.9661 92.7435 32.8113C92.9111 32.6565 93.1363 32.5377 93.4191 32.45C93.7019 32.3623 94.058 32.321 94.4823 32.321H102.244C102.228 32.0422 102.181 31.7842 102.103 31.5416C102.024 31.299 101.914 31.0874 101.773 30.9067C101.626 30.7261 101.448 30.5816 101.228 30.4732C101.008 30.3648 100.751 30.3132 100.453 30.3132H95.1946C94.9065 30.3132 94.6185 30.3235 94.3409 30.339C94.0633 30.3545 93.7962 30.3906 93.55 30.4422C93.2986 30.4938 93.0682 30.5661 92.8535 30.6487C92.6387 30.7364 92.4502 30.85 92.2773 30.9945V30.0654C92.5759 29.8332 92.932 29.668 93.3458 29.5648C93.7595 29.4615 94.1837 29.4099 94.6237 29.4099H100.961C101.333 29.4099 101.668 29.477 101.972 29.6112C102.275 29.7454 102.532 29.9364 102.747 30.1893C102.962 30.437 103.124 30.7416 103.244 31.0874C103.36 31.4384 103.417 31.8255 103.417 32.2539V36.5534L103.407 36.5379ZM102.26 33.2242H94.786C94.2885 33.2242 93.9271 33.312 93.7124 33.4875C93.4924 33.6629 93.3877 33.9417 93.3877 34.3236C93.3877 34.4888 93.4086 34.6488 93.4505 34.7933C93.4924 34.9378 93.5657 35.0669 93.6705 35.1804C93.7752 35.294 93.9166 35.3765 94.0999 35.4436C94.2833 35.5056 94.5137 35.5365 94.7965 35.5365H100.311C100.94 35.5365 101.417 35.3404 101.736 34.9533C102.061 34.5662 102.234 33.9881 102.27 33.2242H102.26Z" fill="white"/>
<path d="M117.967 36.9663L118.077 34.7262H117.92C117.815 35.0462 117.673 35.3198 117.495 35.5469C117.317 35.7792 117.123 35.965 116.914 36.1146C116.704 36.2592 116.495 36.3676 116.28 36.4347C116.065 36.5018 115.866 36.5379 115.683 36.5379H110.325C109.843 36.5379 109.43 36.4501 109.084 36.2695C108.744 36.0888 108.466 35.8669 108.251 35.6037C108.037 35.3353 107.885 35.0514 107.785 34.7417C107.691 34.432 107.639 34.143 107.639 33.8694V32.0578C107.639 31.7377 107.707 31.4229 107.843 31.1029C107.979 30.7829 108.168 30.499 108.414 30.2461C108.655 29.9932 108.937 29.7867 109.267 29.6267C109.592 29.4667 109.948 29.3893 110.325 29.3893H115.683C115.95 29.3893 116.207 29.4254 116.458 29.4925C116.71 29.5596 116.935 29.6577 117.139 29.7764C117.343 29.9003 117.516 30.0448 117.652 30.2151C117.789 30.3854 117.878 30.5764 117.92 30.7829H118.077L117.967 29.3893H119.077V37.3379C119.077 37.6476 119.019 37.9366 118.904 38.2102C118.789 38.4786 118.627 38.716 118.422 38.9173C118.218 39.1186 117.977 39.2786 117.705 39.3922C117.432 39.5057 117.139 39.5625 116.82 39.5625H110.289C109.854 39.5625 109.43 39.5109 109.011 39.4076C108.597 39.3044 108.241 39.1393 107.942 38.907V37.916C108.283 38.1999 108.707 38.3908 109.22 38.4837C109.733 38.5767 110.278 38.6231 110.86 38.6231H116.275C116.542 38.6231 116.778 38.5818 116.982 38.4992C117.186 38.4166 117.359 38.2979 117.501 38.1483C117.642 37.9986 117.752 37.8231 117.83 37.6218C117.909 37.4205 117.956 37.2037 117.961 36.9663H117.967ZM117.967 33.3429V32.4707C117.967 31.8823 117.81 31.4074 117.495 31.0409C117.181 30.6745 116.694 30.4938 116.034 30.4938H110.713C110.461 30.4938 110.221 30.5351 109.985 30.6177C109.749 30.7003 109.545 30.8242 109.362 30.979C109.178 31.139 109.032 31.3403 108.922 31.5829C108.806 31.8255 108.754 32.1094 108.754 32.4345V33.472C108.754 33.7404 108.796 33.9985 108.875 34.2359C108.953 34.4733 109.084 34.6849 109.257 34.8604C109.43 35.0411 109.65 35.1804 109.922 35.2837C110.194 35.3869 110.519 35.4385 110.907 35.4385H115.997C116.254 35.4385 116.505 35.3817 116.741 35.2733C116.977 35.1598 117.186 35.0101 117.37 34.8191C117.553 34.6281 117.694 34.4062 117.804 34.1533C117.914 33.9004 117.967 33.6268 117.967 33.3429Z" fill="white"/>
<path d="M122.811 28.6718V27.0046H123.937V28.6718H122.811ZM122.811 36.5378V29.3892H123.937V36.5378H122.811Z" fill="white"/>
<path d="M130.023 35.2784C129.772 35.1597 129.557 35.0203 129.389 34.8294C129.222 34.6487 129.096 34.4371 129.007 34.1945C128.923 33.9622 128.881 33.7196 128.881 33.4771V32.4603C128.881 32.1764 128.934 31.9131 129.033 31.6757C129.133 31.4331 129.279 31.2267 129.457 31.0512C129.646 30.8705 129.856 30.7363 130.091 30.6331C130.337 30.535 130.599 30.4834 130.877 30.4834H136.575C136.575 30.4834 136.633 30.4834 136.659 30.4937H139C138.932 30.4008 138.864 30.3183 138.79 30.2357C138.544 29.9673 138.251 29.7608 137.905 29.6111C137.56 29.4615 137.177 29.384 136.758 29.384H130.489C130.117 29.384 129.772 29.4511 129.442 29.5905C129.112 29.7299 128.824 29.926 128.572 30.1634C128.326 30.406 128.132 30.6899 127.996 31.0047C127.855 31.3299 127.787 31.6809 127.787 32.0525V33.859C127.787 34.2255 127.855 34.5661 127.996 34.9016C128.132 35.2268 128.326 35.5107 128.572 35.7533C128.824 35.9958 129.112 36.1868 129.442 36.321C129.772 36.4604 130.117 36.5275 130.489 36.5275H136.758C137.183 36.5275 137.56 36.4501 137.905 36.2952C138.251 36.1352 138.55 35.9184 138.79 35.6552C138.848 35.5881 138.911 35.5158 138.969 35.4384H130.882C130.563 35.4384 130.274 35.3816 130.028 35.2732L130.023 35.2784Z" fill="url(#paint2_linear_7003_4412)"/>
<path d="M87.171 31.0151C87.0295 30.6951 86.8358 30.4112 86.5896 30.1687C86.3435 29.9261 86.0554 29.7351 85.7307 29.5957C85.406 29.4564 85.0498 29.3893 84.6727 29.3893H81.2422C80.8547 29.3893 80.5247 29.4357 80.2524 29.5338C79.98 29.6319 79.7548 29.7454 79.5768 29.8848C79.3987 30.0241 79.273 30.1738 79.1892 30.339C79.1106 30.5042 79.0687 30.6487 79.0687 30.788H78.9116C78.9116 30.6538 78.875 30.5042 78.8016 30.339C78.7283 30.1738 78.6078 30.0241 78.4455 29.8848C78.2779 29.7454 78.0632 29.6267 77.8013 29.5338C77.5342 29.4409 77.2042 29.3893 76.8114 29.3893H60.9003V36.5379H69.9347V31.9287C69.9766 31.6655 70.0604 31.4435 70.1966 31.2629C70.3275 31.0822 70.4847 30.9326 70.6627 30.8138C70.8408 30.7003 71.0294 30.6177 71.2231 30.5661C71.4222 30.5145 71.6055 30.4887 71.7731 30.4887H76.3977C76.5915 30.4887 76.78 30.5042 76.9738 30.5403C77.1623 30.5764 77.3352 30.6435 77.4923 30.7416C77.6494 30.8396 77.7751 30.979 77.8746 31.1597C77.9689 31.3403 78.0213 31.5726 78.0213 31.8565V36.5379H79.1316V31.521C79.163 31.299 79.2363 31.1184 79.3411 30.9842C79.4511 30.85 79.582 30.7416 79.7339 30.6693C79.8858 30.5919 80.0481 30.5454 80.2157 30.5196C80.3833 30.4938 80.5457 30.4835 80.6976 30.4835H84.3113C84.9136 30.4835 85.3955 30.6642 85.7464 31.0203C86.0973 31.3764 86.2701 31.841 86.2701 32.4139V36.5379H87.3804V32.0578C87.3804 31.6861 87.3071 31.3351 87.171 31.0151Z" fill="url(#paint3_linear_7003_4412)"/>
</g>
<defs>
<linearGradient id="paint0_linear_7003_4412" x1="0.000377856" y1="21.5026" x2="51.1434" y2="21.5026" gradientUnits="userSpaceOnUse">
<stop offset="0.03" stop-color="#FFB70F" stop-opacity="0"/>
<stop offset="0.192342" stop-color="#FFB70F" stop-opacity="0.1089"/>
<stop offset="0.776965" stop-color="#FFB70F" stop-opacity="0.7921"/>
<stop offset="1" stop-color="#FFB70F"/>
</linearGradient>
<linearGradient id="paint1_linear_7003_4412" x1="-9.42724" y1="21.678" x2="35.0905" y2="21.678" gradientUnits="userSpaceOnUse">
<stop offset="0.02" stop-color="white" stop-opacity="0"/>
<stop offset="0.329086" stop-color="white" stop-opacity="0.01"/>
<stop offset="0.959256" stop-color="white"/>
</linearGradient>
<linearGradient id="paint2_linear_7003_4412" x1="139.152" y1="32.9609" x2="128.001" y2="32.9609" gradientUnits="userSpaceOnUse">
<stop stop-color="white" stop-opacity="0"/>
<stop offset="0.09" stop-color="white" stop-opacity="0.04"/>
<stop offset="0.21" stop-color="white" stop-opacity="0.1936"/>
<stop offset="0.33" stop-color="white" stop-opacity="0.4096"/>
<stop offset="0.43" stop-color="white" stop-opacity="0.64"/>
<stop offset="0.53" stop-color="white" stop-opacity="0.8281"/>
<stop offset="0.62" stop-color="white" stop-opacity="0.9604"/>
<stop offset="0.68" stop-color="white"/>
</linearGradient>
<linearGradient id="paint3_linear_7003_4412" x1="57.3493" y1="33.0333" x2="87.3804" y2="32.9589" gradientUnits="userSpaceOnUse">
<stop stop-color="white" stop-opacity="0"/>
<stop offset="0.03" stop-color="white" stop-opacity="0.01"/>
<stop offset="0.130599" stop-color="white" stop-opacity="0.0256"/>
<stop offset="0.439036" stop-color="white" stop-opacity="0.9216"/>
<stop offset="1" stop-color="white"/>
</linearGradient>
<clipPath id="clip0_7003_4412">
<rect width="139" height="43" fill="white"/>
</clipPath>
</defs>
</svg>
