<svg width="4" height="17" viewBox="0 0 4 17" fill="none" xmlns="http://www.w3.org/2000/svg">
<path d="M-8.74228e-08 2.37109C-6.33815e-08 1.82109 0.195833 1.35026 0.5875 0.958594C0.979166 0.566927 1.45 0.371094 2 0.371094C2.55 0.371094 3.02083 0.566927 3.4125 0.958594C3.80417 1.35026 4 1.82109 4 2.37109C4 2.92109 3.80417 3.39193 3.4125 3.78359C3.02083 4.17526 2.55 4.37109 2 4.37109C1.45 4.37109 0.979166 4.17526 0.5875 3.78359C0.195833 3.39193 -1.11464e-07 2.92109 -8.74228e-08 2.37109ZM-3.49691e-07 8.37109C-3.2565e-07 7.82109 0.195833 7.35026 0.5875 6.95859C0.979166 6.56693 1.45 6.37109 2 6.37109C2.55 6.37109 3.02083 6.56693 3.4125 6.95859C3.80417 7.35026 4 7.82109 4 8.37109C4 8.92109 3.80417 9.39193 3.4125 9.78359C3.02083 10.1753 2.55 10.3711 2 10.3711C1.45 10.3711 0.979166 10.1753 0.587499 9.78359C0.195833 9.39193 -3.73732e-07 8.92109 -3.49691e-07 8.37109ZM-6.11959e-07 14.3711C-5.87918e-07 13.8211 0.195833 13.3503 0.587499 12.9586C0.979166 12.5669 1.45 12.3711 2 12.3711C2.55 12.3711 3.02083 12.5669 3.4125 12.9586C3.80417 13.3503 4 13.8211 4 14.3711C4 14.9211 3.80417 15.3919 3.4125 15.7836C3.02083 16.1753 2.55 16.3711 2 16.3711C1.45 16.3711 0.979166 16.1753 0.587499 15.7836C0.195833 15.3919 -6.36001e-07 14.9211 -6.11959e-07 14.3711Z" fill="#1C1B1F"/>
</svg>
