<svg width="20" height="20" viewBox="0 0 20 20" fill="none" xmlns="http://www.w3.org/2000/svg">
<circle cx="10" cy="10" r="10" fill="#DB33A2"/>
<path d="M6.70739 14V12.6705L9.81392 9.79403C10.0781 9.53835 10.2997 9.30824 10.4787 9.10369C10.6605 8.89915 10.7983 8.69886 10.892 8.50284C10.9858 8.30398 11.0327 8.08949 11.0327 7.85938C11.0327 7.60369 10.9744 7.38352 10.858 7.19886C10.7415 7.01136 10.5824 6.8679 10.3807 6.76847C10.179 6.66619 9.95028 6.61506 9.6946 6.61506C9.42756 6.61506 9.1946 6.66903 8.99574 6.77699C8.79688 6.88494 8.64347 7.03977 8.53551 7.24148C8.42756 7.44318 8.37358 7.68324 8.37358 7.96165H6.62216C6.62216 7.39062 6.75142 6.89489 7.00994 6.47443C7.26847 6.05398 7.63068 5.72869 8.09659 5.49858C8.5625 5.26847 9.09943 5.15341 9.70739 5.15341C10.3324 5.15341 10.8764 5.2642 11.3395 5.4858C11.8054 5.70455 12.1676 6.00852 12.4261 6.39773C12.6847 6.78693 12.8139 7.23295 12.8139 7.7358C12.8139 8.06534 12.7486 8.39062 12.6179 8.71165C12.4901 9.03267 12.2614 9.3892 11.9318 9.78125C11.6023 10.1705 11.1378 10.6378 10.5384 11.1832L9.2642 12.4318V12.4915H12.929V14H6.70739Z" fill="#F1F2F4"/>
</svg>
