<svg xmlns="http://www.w3.org/2000/svg" width="21" height="20" viewBox="0 0 21 20" fill="none">
  <mask id="mask0_1_648" style="mask-type:alpha" maskUnits="userSpaceOnUse" x="0" y="0" width="21" height="20">
    <rect x="0.805664" width="20" height="20" fill="#D9D9D9"/>
  </mask>
  <g mask="url(#mask0_1_648)">
    <path d="M10.8057 16.6667C8.94459 16.6667 7.3682 16.0208 6.07654 14.7292C4.78487 13.4375 4.13904 11.8611 4.13904 10C4.13904 8.1389 4.78487 6.56251 6.07654 5.27084C7.3682 3.97918 8.94459 3.33334 10.8057 3.33334C11.764 3.33334 12.6807 3.53126 13.5557 3.92709C14.4307 4.32293 15.1807 4.8889 15.8057 5.62501V4.16668C15.8057 3.93057 15.8856 3.73265 16.0453 3.57293C16.205 3.4132 16.4029 3.33334 16.639 3.33334C16.8751 3.33334 17.0731 3.4132 17.2328 3.57293C17.3925 3.73265 17.4724 3.93057 17.4724 4.16668V8.33334C17.4724 8.56945 17.3925 8.76737 17.2328 8.92709C17.0731 9.08682 16.8751 9.16668 16.639 9.16668H12.4724C12.2363 9.16668 12.0383 9.08682 11.8786 8.92709C11.7189 8.76737 11.639 8.56945 11.639 8.33334C11.639 8.09723 11.7189 7.89932 11.8786 7.73959C12.0383 7.57987 12.2363 7.50001 12.4724 7.50001H15.139C14.6946 6.72223 14.087 6.11112 13.3161 5.66668C12.5453 5.22223 11.7085 5.00001 10.8057 5.00001C9.41682 5.00001 8.23626 5.48612 7.26404 6.45834C6.29182 7.43057 5.8057 8.61112 5.8057 10C5.8057 11.3889 6.29182 12.5695 7.26404 13.5417C8.23626 14.5139 9.41682 15 10.8057 15C11.7501 15 12.6147 14.7604 13.3995 14.2813C14.1842 13.8021 14.7918 13.1597 15.2224 12.3542C15.3335 12.1597 15.4897 12.0243 15.6911 11.9479C15.8925 11.8715 16.0974 11.8681 16.3057 11.9375C16.5279 12.007 16.6876 12.1528 16.7849 12.375C16.8821 12.5972 16.8751 12.8056 16.764 13C16.1946 14.1111 15.3821 15 14.3265 15.6667C13.271 16.3333 12.0974 16.6667 10.8057 16.6667Z" fill="#718096"/>
  </g>
</svg>