<svg width="17" height="17" viewBox="0 0 17 17" fill="none" xmlns="http://www.w3.org/2000/svg">
<mask id="mask0_1076_2448" style="mask-type:alpha" maskUnits="userSpaceOnUse" x="0" y="0" width="17" height="17">
<rect x="0.611328" y="0.71875" width="16" height="16" fill="#D9D9D9"/>
</mask>
<g mask="url(#mask0_1076_2448)">
<path d="M7.67865 9.91842L6.24531 8.48509C6.12309 8.36287 5.96753 8.30176 5.77865 8.30176C5.58976 8.30176 5.4342 8.36287 5.31198 8.48509C5.18976 8.60731 5.12865 8.76287 5.12865 8.95176C5.12865 9.14065 5.18976 9.2962 5.31198 9.41842L7.21198 11.3184C7.34531 11.4518 7.50087 11.5184 7.67865 11.5184C7.85642 11.5184 8.01198 11.4518 8.14531 11.3184L11.912 7.55176C12.0342 7.42954 12.0953 7.27398 12.0953 7.08509C12.0953 6.8962 12.0342 6.74065 11.912 6.61842C11.7898 6.4962 11.6342 6.43509 11.4453 6.43509C11.2564 6.43509 11.1009 6.4962 10.9786 6.61842L7.67865 9.91842ZM8.61198 15.3851C7.68976 15.3851 6.82309 15.2101 6.01198 14.8601C5.20087 14.5101 4.49531 14.0351 3.89531 13.4351C3.29531 12.8351 2.82031 12.1295 2.47031 11.3184C2.12031 10.5073 1.94531 9.64065 1.94531 8.71842C1.94531 7.7962 2.12031 6.92954 2.47031 6.11842C2.82031 5.30731 3.29531 4.60176 3.89531 4.00176C4.49531 3.40176 5.20087 2.92676 6.01198 2.57676C6.82309 2.22676 7.68976 2.05176 8.61198 2.05176C9.5342 2.05176 10.4009 2.22676 11.212 2.57676C12.0231 2.92676 12.7286 3.40176 13.3286 4.00176C13.9286 4.60176 14.4036 5.30731 14.7536 6.11842C15.1036 6.92954 15.2786 7.7962 15.2786 8.71842C15.2786 9.64065 15.1036 10.5073 14.7536 11.3184C14.4036 12.1295 13.9286 12.8351 13.3286 13.4351C12.7286 14.0351 12.0231 14.5101 11.212 14.8601C10.4009 15.2101 9.5342 15.3851 8.61198 15.3851Z" fill="#23C137"/>
</g>
</svg>
