<svg width="21" height="21" viewBox="0 0 21 21" fill="none" xmlns="http://www.w3.org/2000/svg">
<path d="M14.9133 3.1109H6.99588C5.12485 3.1109 3.60808 4.62767 3.60808 6.49871V14.4161C3.60808 16.2872 5.12485 17.8039 6.99588 17.8039H14.9133C16.7843 17.8039 18.3011 16.2872 18.3011 14.4161V6.49871C18.3011 4.62767 16.7843 3.1109 14.9133 3.1109Z" fill="url(#paint0_linear_1_622)"/>
<path d="M13.3248 6.00948C13.8826 6.01173 14.4169 6.2343 14.8113 6.62871C15.2057 7.02313 15.4283 7.55742 15.4305 8.11521V12.7993C15.4283 13.3571 15.2057 13.8914 14.8113 14.2858C14.4169 14.6802 13.8826 14.9028 13.3248 14.905H8.58574C8.02796 14.9028 7.49366 14.6802 7.09925 14.2858C6.70483 13.8914 6.48226 13.3571 6.48001 12.7993V8.11521C6.48226 7.55742 6.70483 7.02313 7.09925 6.62871C7.49366 6.2343 8.02796 6.01173 8.58574 6.00948H13.3248ZM13.3248 5.03007H8.58574C6.88884 5.03007 5.50029 6.4202 5.50029 8.11552V12.7993C5.50029 14.4962 6.89042 15.8848 8.58574 15.8848H13.3248C15.0217 15.8848 16.4103 14.4946 16.4103 12.7993V8.11521C16.4103 6.4183 15.0217 5.02975 13.3248 5.02975V5.03007Z" fill="white"/>
<path d="M10.9554 8.62843C11.317 8.62843 11.6705 8.73566 11.9712 8.93656C12.2718 9.13746 12.5062 9.423 12.6445 9.75709C12.7829 10.0912 12.8191 10.4588 12.7486 10.8135C12.678 11.1681 12.5039 11.4939 12.2482 11.7496C11.9925 12.0053 11.6667 12.1794 11.3121 12.25C10.9574 12.3205 10.5898 12.2843 10.2557 12.1459C9.92163 12.0075 9.63608 11.7732 9.43518 11.4725C9.23428 11.1719 9.12705 10.8184 9.12705 10.4568C9.12764 9.97204 9.32045 9.50733 9.66321 9.16458C10.006 8.82183 10.4707 8.62901 10.9554 8.62843ZM10.9554 7.64902C10.4001 7.64902 9.85722 7.81369 9.39549 8.12221C8.93376 8.43073 8.57388 8.86924 8.36137 9.38228C8.14886 9.89533 8.09326 10.4599 8.2016 11.0045C8.30993 11.5492 8.57734 12.0495 8.97001 12.4421C9.36268 12.8348 9.86298 13.1022 10.4076 13.2106C10.9523 13.3189 11.5168 13.2633 12.0299 13.0508C12.5429 12.8383 12.9814 12.4784 13.2899 12.0167C13.5985 11.5549 13.7631 11.0121 13.7631 10.4568C13.7631 9.7121 13.4673 8.99794 12.9408 8.47139C12.4142 7.94483 11.7 7.64902 10.9554 7.64902Z" fill="white"/>
<path d="M13.8242 8.19208C14.1918 8.19208 14.4898 7.89405 14.4898 7.5264C14.4898 7.15875 14.1918 6.86072 13.8242 6.86072C13.4565 6.86072 13.1585 7.15875 13.1585 7.5264C13.1585 7.89405 13.4565 8.19208 13.8242 8.19208Z" fill="white"/>
<defs>
<linearGradient id="paint0_linear_1_622" x1="13.2379" y1="18.4206" x2="8.6713" y2="2.49419" gradientUnits="userSpaceOnUse">
<stop stop-color="#FFDB73"/>
<stop offset="0.08" stop-color="#FDAD4E"/>
<stop offset="0.15" stop-color="#FB832E"/>
<stop offset="0.19" stop-color="#FA7321"/>
<stop offset="0.23" stop-color="#F6692F"/>
<stop offset="0.37" stop-color="#E84A5A"/>
<stop offset="0.48" stop-color="#E03675"/>
<stop offset="0.55" stop-color="#DD2F7F"/>
<stop offset="0.68" stop-color="#B43D97"/>
<stop offset="0.97" stop-color="#4D60D4"/>
<stop offset="1" stop-color="#4264DB"/>
</linearGradient>
</defs>
</svg>
