<svg width="15" height="15" viewBox="0 0 15 15" fill="none" xmlns="http://www.w3.org/2000/svg">
<path d="M6.27865 2.71842H8.94531V1.38509H6.27865V2.71842ZM11.612 14.0518C10.6898 14.0518 9.90365 13.7268 9.25365 13.0768C8.60365 12.4268 8.27865 11.6406 8.27865 10.7184C8.27865 9.7962 8.60365 9.01009 9.25365 8.36009C9.90365 7.71009 10.6898 7.38509 11.612 7.38509C12.5342 7.38509 13.3203 7.71009 13.9703 8.36009C14.6203 9.01009 14.9453 9.7962 14.9453 10.7184C14.9453 11.6406 14.6203 12.4268 13.9703 13.0768C13.3203 13.7268 12.5342 14.0518 11.612 14.0518ZM2.27865 12.7184C1.91198 12.7184 1.59809 12.5879 1.33698 12.3268C1.07587 12.0656 0.945312 11.7518 0.945312 11.3851V4.05176C0.945312 3.68509 1.07587 3.3712 1.33698 3.11009C1.59809 2.84898 1.91198 2.71842 2.27865 2.71842H4.94531V1.38509C4.94531 1.01842 5.07587 0.704536 5.33698 0.443425C5.59809 0.182313 5.91198 0.0517578 6.27865 0.0517578H8.94531C9.31198 0.0517578 9.62587 0.182313 9.88698 0.443425C10.1481 0.704536 10.2786 1.01842 10.2786 1.38509V2.71842H12.9453C13.312 2.71842 13.6259 2.84898 13.887 3.11009C14.1481 3.3712 14.2786 3.68509 14.2786 4.05176V6.90176C13.8898 6.62398 13.4675 6.41287 13.012 6.26842C12.5564 6.12398 12.0898 6.05176 11.612 6.05176C10.3231 6.05176 9.22309 6.50731 8.31198 7.41842C7.40087 8.32954 6.94531 9.42954 6.94531 10.7184C6.94531 11.0629 6.98142 11.4045 7.05365 11.7434C7.12587 12.0823 7.23976 12.4073 7.39531 12.7184H2.27865ZM11.612 12.7184C11.7009 12.7184 11.7786 12.6851 11.8453 12.6184C11.912 12.5518 11.9453 12.474 11.9453 12.3851C11.9453 12.2962 11.912 12.2184 11.8453 12.1518C11.7786 12.0851 11.7009 12.0518 11.612 12.0518C11.5231 12.0518 11.4453 12.0851 11.3786 12.1518C11.312 12.2184 11.2786 12.2962 11.2786 12.3851C11.2786 12.474 11.312 12.5518 11.3786 12.6184C11.4453 12.6851 11.5231 12.7184 11.612 12.7184ZM11.612 11.3851C11.7009 11.3851 11.7786 11.3518 11.8453 11.2851C11.912 11.2184 11.9453 11.1406 11.9453 11.0518V9.05176C11.9453 8.96287 11.912 8.88509 11.8453 8.81843C11.7786 8.75176 11.7009 8.71842 11.612 8.71842C11.5231 8.71842 11.4453 8.75176 11.3786 8.81843C11.312 8.88509 11.2786 8.96287 11.2786 9.05176V11.0518C11.2786 11.1406 11.312 11.2184 11.3786 11.2851C11.4453 11.3518 11.5231 11.3851 11.612 11.3851Z" fill="#F7A62C"/>
</svg>
