<svg width="25" height="24" viewBox="0 0 25 24" fill="none" xmlns="http://www.w3.org/2000/svg">
<mask id="mask0_1_729" style="mask-type:alpha" maskUnits="userSpaceOnUse" x="0" y="0" width="25" height="24">
<rect x="0.804688" width="24" height="24" fill="#D9D9D9"/>
</mask>
<g mask="url(#mask0_1_729)">
<path d="M12.1047 14.3L9.50466 11.7C9.188 11.3833 9.11716 11.0208 9.29216 10.6125C9.46716 10.2042 9.77966 10 10.2297 10H15.3797C15.8297 10 16.1422 10.2042 16.3172 10.6125C16.4922 11.0208 16.4213 11.3833 16.1047 11.7L13.5047 14.3C13.4047 14.4 13.2963 14.475 13.1797 14.525C13.063 14.575 12.938 14.6 12.8047 14.6C12.6713 14.6 12.5463 14.575 12.4297 14.525C12.313 14.475 12.2047 14.4 12.1047 14.3Z" fill="#1F2937"/>
</g>
</svg>
