<svg width="25" height="25" viewBox="0 0 25 25" fill="none" xmlns="http://www.w3.org/2000/svg">
<mask id="mask0_1_630" style="mask-type:alpha" maskUnits="userSpaceOnUse" x="0" y="0" width="25" height="25">
<rect x="0.357422" y="0.851562" width="24" height="24" fill="#D9D9D9"/>
</mask>
<g mask="url(#mask0_1_630)">
<path d="M6.20742 17.9516C7.05742 17.3016 8.00742 16.7891 9.05742 16.4141C10.1074 16.0391 11.2074 15.8516 12.3574 15.8516C13.5074 15.8516 14.6074 16.0391 15.6574 16.4141C16.7074 16.7891 17.6574 17.3016 18.5074 17.9516C19.0908 17.2682 19.5449 16.4932 19.8699 15.6266C20.1949 14.7599 20.3574 13.8349 20.3574 12.8516C20.3574 10.6349 19.5783 8.7474 18.0199 7.18906C16.4616 5.63073 14.5741 4.85156 12.3574 4.85156C10.1408 4.85156 8.25326 5.63073 6.69492 7.18906C5.13659 8.7474 4.35742 10.6349 4.35742 12.8516C4.35742 13.8349 4.51992 14.7599 4.84492 15.6266C5.16992 16.4932 5.62409 17.2682 6.20742 17.9516ZM12.3574 13.8516C11.3741 13.8516 10.5449 13.5141 9.86992 12.8391C9.19492 12.1641 8.85742 11.3349 8.85742 10.3516C8.85742 9.36823 9.19492 8.53906 9.86992 7.86406C10.5449 7.18906 11.3741 6.85156 12.3574 6.85156C13.3408 6.85156 14.1699 7.18906 14.8449 7.86406C15.5199 8.53906 15.8574 9.36823 15.8574 10.3516C15.8574 11.3349 15.5199 12.1641 14.8449 12.8391C14.1699 13.5141 13.3408 13.8516 12.3574 13.8516ZM12.3574 22.8516C10.9741 22.8516 9.67409 22.5891 8.45742 22.0641C7.24076 21.5391 6.18242 20.8266 5.28242 19.9266C4.38242 19.0266 3.66992 17.9682 3.14492 16.7516C2.61992 15.5349 2.35742 14.2349 2.35742 12.8516C2.35742 11.4682 2.61992 10.1682 3.14492 8.95156C3.66992 7.7349 4.38242 6.67656 5.28242 5.77656C6.18242 4.87656 7.24076 4.16406 8.45742 3.63906C9.67409 3.11406 10.9741 2.85156 12.3574 2.85156C13.7408 2.85156 15.0408 3.11406 16.2574 3.63906C17.4741 4.16406 18.5324 4.87656 19.4324 5.77656C20.3324 6.67656 21.0449 7.7349 21.5699 8.95156C22.0949 10.1682 22.3574 11.4682 22.3574 12.8516C22.3574 14.2349 22.0949 15.5349 21.5699 16.7516C21.0449 17.9682 20.3324 19.0266 19.4324 19.9266C18.5324 20.8266 17.4741 21.5391 16.2574 22.0641C15.0408 22.5891 13.7408 22.8516 12.3574 22.8516Z" fill="#1C1B1F"/>
</g>
</svg>
