<svg width="21" height="21" viewBox="0 0 21 21" fill="none" xmlns="http://www.w3.org/2000/svg">
<path d="M10.5361 21.0001C9.1528 21.0001 7.8528 20.7376 6.63613 20.2126C5.41947 19.6876 4.36113 18.9751 3.46113 18.0751C2.56113 17.1751 1.84863 16.1167 1.32363 14.9001C0.798633 13.6834 0.536133 12.3834 0.536133 11.0001C0.536133 9.65007 0.8153 8.33757 1.37363 7.06257C1.93197 5.78757 2.70697 4.66674 3.69863 3.70007C4.6903 2.7334 5.86947 2.00007 7.23613 1.50007C8.6028 1.00007 10.1028 0.85007 11.7361 1.05007C11.9861 1.0834 12.1778 1.18757 12.3111 1.36257C12.4445 1.53757 12.5195 1.77507 12.5361 2.07507C12.5695 3.14174 12.9653 4.05424 13.7236 4.81257C14.482 5.5709 15.3861 5.96674 16.4361 6.00007C16.7861 6.01674 17.0528 6.11674 17.2361 6.30007C17.4195 6.4834 17.5195 6.76674 17.5361 7.15007C17.5695 7.85007 17.782 8.42507 18.1736 8.87507C18.5653 9.32507 19.1111 9.66674 19.8111 9.90007C20.0445 9.9834 20.2236 10.1042 20.3486 10.2626C20.4736 10.4209 20.5361 10.6167 20.5361 10.8501C20.5695 12.2334 20.3278 13.5417 19.8111 14.7751C19.2945 16.0084 18.5861 17.0876 17.6861 18.0126C16.7861 18.9376 15.7195 19.6667 14.4861 20.2001C13.2528 20.7334 11.9361 21.0001 10.5361 21.0001ZM9.03613 9.00007C9.4528 9.00007 9.80697 8.85424 10.0986 8.56257C10.3903 8.2709 10.5361 7.91674 10.5361 7.50007C10.5361 7.0834 10.3903 6.72924 10.0986 6.43757C9.80697 6.1459 9.4528 6.00007 9.03613 6.00007C8.61947 6.00007 8.2653 6.1459 7.97363 6.43757C7.68197 6.72924 7.53613 7.0834 7.53613 7.50007C7.53613 7.91674 7.68197 8.2709 7.97363 8.56257C8.2653 8.85424 8.61947 9.00007 9.03613 9.00007ZM7.03613 14.0001C7.4528 14.0001 7.80697 13.8542 8.09863 13.5626C8.3903 13.2709 8.53613 12.9167 8.53613 12.5001C8.53613 12.0834 8.3903 11.7292 8.09863 11.4376C7.80697 11.1459 7.4528 11.0001 7.03613 11.0001C6.61947 11.0001 6.2653 11.1459 5.97363 11.4376C5.68197 11.7292 5.53613 12.0834 5.53613 12.5001C5.53613 12.9167 5.68197 13.2709 5.97363 13.5626C6.2653 13.8542 6.61947 14.0001 7.03613 14.0001ZM13.5361 15.0001C13.8195 15.0001 14.057 14.9042 14.2486 14.7126C14.4403 14.5209 14.5361 14.2834 14.5361 14.0001C14.5361 13.7167 14.4403 13.4792 14.2486 13.2876C14.057 13.0959 13.8195 13.0001 13.5361 13.0001C13.2528 13.0001 13.0153 13.0959 12.8236 13.2876C12.632 13.4792 12.5361 13.7167 12.5361 14.0001C12.5361 14.2834 12.632 14.5209 12.8236 14.7126C13.0153 14.9042 13.2528 15.0001 13.5361 15.0001Z" fill="#4A44DD"/>
</svg>
