<svg width="16" height="18" viewBox="0 0 16 18" fill="none" xmlns="http://www.w3.org/2000/svg">
<path d="M2.45508 10.459V16.459C2.45508 16.7423 2.35924 16.9798 2.16758 17.1715C1.97591 17.3632 1.73841 17.459 1.45508 17.459C1.17174 17.459 0.934245 17.3632 0.742578 17.1715C0.550911 16.9798 0.455078 16.7423 0.455078 16.459V1.45898C0.455078 1.17565 0.550911 0.938151 0.742578 0.746484C0.934245 0.554818 1.17174 0.458984 1.45508 0.458984H8.63008C8.86341 0.458984 9.07174 0.533984 9.25508 0.683984C9.43841 0.833984 9.55508 1.02565 9.60508 1.25898L9.85508 2.45898H14.4551C14.7384 2.45898 14.9759 2.55482 15.1676 2.74648C15.3592 2.93815 15.4551 3.17565 15.4551 3.45898V11.459C15.4551 11.7423 15.3592 11.9798 15.1676 12.1715C14.9759 12.3632 14.7384 12.459 14.4551 12.459H9.28008C9.04674 12.459 8.83841 12.384 8.65508 12.234C8.47174 12.084 8.35508 11.8923 8.30508 11.659L8.05508 10.459H2.45508Z" fill="#F1F2F4"/>
</svg>
