<svg width="18" height="17" viewBox="0 0 18 17" fill="none" xmlns="http://www.w3.org/2000/svg">
<path d="M9.30501 12.7217C9.54112 12.7217 9.73904 12.6418 9.89876 12.4821C10.0585 12.3224 10.1383 12.1245 10.1383 11.8883V8.55501C10.1383 8.3189 10.0585 8.12099 9.89876 7.96126C9.73904 7.80154 9.54112 7.72168 9.30501 7.72168C9.0689 7.72168 8.87099 7.80154 8.71126 7.96126C8.55154 8.12099 8.47168 8.3189 8.47168 8.55501V11.8883C8.47168 12.1245 8.55154 12.3224 8.71126 12.4821C8.87099 12.6418 9.0689 12.7217 9.30501 12.7217ZM9.30501 6.05501C9.54112 6.05501 9.73904 5.97515 9.89876 5.81543C10.0585 5.65571 10.1383 5.45779 10.1383 5.22168C10.1383 4.98557 10.0585 4.78765 9.89876 4.62793C9.73904 4.46821 9.54112 4.38835 9.30501 4.38835C9.0689 4.38835 8.87099 4.46821 8.71126 4.62793C8.55154 4.78765 8.47168 4.98557 8.47168 5.22168C8.47168 5.45779 8.55154 5.65571 8.71126 5.81543C8.87099 5.97515 9.0689 6.05501 9.30501 6.05501ZM9.30501 16.8883C8.15224 16.8883 7.0689 16.6696 6.05501 16.2321C5.04112 15.7946 4.15918 15.2008 3.40918 14.4508C2.65918 13.7008 2.06543 12.8189 1.62793 11.805C1.19043 10.7911 0.97168 9.70779 0.97168 8.55501C0.97168 7.40224 1.19043 6.3189 1.62793 5.30501C2.06543 4.29112 2.65918 3.40918 3.40918 2.65918C4.15918 1.90918 5.04112 1.31543 6.05501 0.87793C7.0689 0.44043 8.15224 0.22168 9.30501 0.22168C10.4578 0.22168 11.5411 0.44043 12.555 0.87793C13.5689 1.31543 14.4508 1.90918 15.2008 2.65918C15.9508 3.40918 16.5446 4.29112 16.9821 5.30501C17.4196 6.3189 17.6383 7.40224 17.6383 8.55501C17.6383 9.70779 17.4196 10.7911 16.9821 11.805C16.5446 12.8189 15.9508 13.7008 15.2008 14.4508C14.4508 15.2008 13.5689 15.7946 12.555 16.2321C11.5411 16.6696 10.4578 16.8883 9.30501 16.8883Z" fill="#F12C23"/>
</svg>
