<svg xmlns="http://www.w3.org/2000/svg" width="25" height="25" viewBox="0 0 25 25" fill="none">
  <mask id="mask0_1038_2223" style="mask-type:alpha" maskUnits="userSpaceOnUse" x="0" y="0" width="25" height="25">
    <rect x="0.904297" y="0.5" width="24" height="24" fill="#D9D9D9"/>
  </mask>
  <g mask="url(#mask0_1038_2223)">
    <path d="M11.9043 13.5H6.9043C6.62096 13.5 6.38346 13.4042 6.1918 13.2125C6.00013 13.0208 5.9043 12.7833 5.9043 12.5C5.9043 12.2167 6.00013 11.9792 6.1918 11.7875C6.38346 11.5958 6.62096 11.5 6.9043 11.5H11.9043V6.5C11.9043 6.21667 12.0001 5.97917 12.1918 5.7875C12.3835 5.59583 12.621 5.5 12.9043 5.5C13.1876 5.5 13.4251 5.59583 13.6168 5.7875C13.8085 5.97917 13.9043 6.21667 13.9043 6.5V11.5H18.9043C19.1876 11.5 19.4251 11.5958 19.6168 11.7875C19.8085 11.9792 19.9043 12.2167 19.9043 12.5C19.9043 12.7833 19.8085 13.0208 19.6168 13.2125C19.4251 13.4042 19.1876 13.5 18.9043 13.5H13.9043V18.5C13.9043 18.7833 13.8085 19.0208 13.6168 19.2125C13.4251 19.4042 13.1876 19.5 12.9043 19.5C12.621 19.5 12.3835 19.4042 12.1918 19.2125C12.0001 19.0208 11.9043 18.7833 11.9043 18.5V13.5Z" fill="#1C1B1F"/>
  </g>
</svg>