<svg width="17" height="17" viewBox="0 0 17 17" fill="none" xmlns="http://www.w3.org/2000/svg">
<rect x="16.2461" y="0.178711" width="16" height="16" rx="8" transform="rotate(90 16.2461 0.178711)" fill="#F1F0FE"/>
<mask id="mask0_677_3649" style="mask-type:alpha" maskUnits="userSpaceOnUse" x="-8" y="0" width="25" height="25">
<rect x="16.2461" y="0.178711" width="24" height="24" transform="rotate(90 16.2461 0.178711)" fill="#D9D9D9"/>
</mask>
<g mask="url(#mask0_677_3649)">
<path d="M6.91341 4.05599C6.91341 3.68932 7.04397 3.37543 7.30508 3.11432C7.56619 2.85321 7.88008 2.72266 8.24674 2.72266C8.61341 2.72266 8.9273 2.85321 9.18841 3.11432C9.44952 3.37543 9.58008 3.68932 9.58008 4.05599C9.58008 4.42266 9.44952 4.73655 9.18841 4.99766C8.9273 5.25877 8.61341 5.38932 8.24674 5.38932C7.88008 5.38932 7.56619 5.25877 7.30508 4.99766C7.04397 4.73654 6.91341 4.42266 6.91341 4.05599ZM6.91341 8.05599C6.91341 7.68932 7.04397 7.37543 7.30508 7.11432C7.56619 6.85321 7.88008 6.72266 8.24674 6.72266C8.61341 6.72266 8.9273 6.85321 9.18841 7.11432C9.44952 7.37543 9.58008 7.68932 9.58008 8.05599C9.58008 8.42266 9.44952 8.73655 9.18841 8.99766C8.9273 9.25877 8.61341 9.38932 8.24674 9.38932C7.88008 9.38932 7.56619 9.25877 7.30508 8.99766C7.04397 8.73654 6.91341 8.42266 6.91341 8.05599ZM6.91341 12.056C6.91341 11.6893 7.04397 11.3754 7.30508 11.1143C7.56619 10.8532 7.88008 10.7227 8.24674 10.7227C8.61341 10.7227 8.9273 10.8532 9.18841 11.1143C9.44952 11.3754 9.58008 11.6893 9.58008 12.056C9.58008 12.4227 9.44952 12.7365 9.18841 12.9977C8.9273 13.2588 8.61341 13.3893 8.24674 13.3893C7.88008 13.3893 7.56619 13.2588 7.30508 12.9977C7.04397 12.7365 6.91341 12.4227 6.91341 12.056Z" fill="#1C1B1F"/>
</g>
</svg>
