<svg width="18" height="19" viewBox="0 0 18 19" fill="none" xmlns="http://www.w3.org/2000/svg">
<path d="M8.10684 11.0964L6.26617 9.25578C6.10921 9.09882 5.90945 9.02034 5.66688 9.02034C5.42431 9.02034 5.22454 9.09882 5.06759 9.25578C4.91063 9.41273 4.83215 9.6125 4.83215 9.85507C4.83215 10.0976 4.91063 10.2974 5.06759 10.4544L7.50755 12.8943C7.67878 13.0655 7.87854 13.1512 8.10684 13.1512C8.33514 13.1512 8.5349 13.0655 8.70613 12.8943L13.5433 8.0572C13.7002 7.90024 13.7787 7.70048 13.7787 7.45791C13.7787 7.21534 13.7002 7.01557 13.5433 6.85862C13.3863 6.70166 13.1865 6.62318 12.944 6.62318C12.7014 6.62318 12.5016 6.70166 12.3447 6.85862L8.10684 11.0964ZM9.30542 18.1167C8.12111 18.1167 7.00814 17.892 5.96652 17.4425C4.9249 16.993 4.01883 16.383 3.24831 15.6125C2.4778 14.842 1.86781 13.9359 1.41834 12.8943C0.968874 11.8527 0.744141 10.7397 0.744141 9.55542C0.744141 8.37111 0.968874 7.25814 1.41834 6.21652C1.86781 5.1749 2.4778 4.26883 3.24831 3.49831C4.01883 2.7278 4.9249 2.11781 5.96652 1.66834C7.00814 1.21887 8.12111 0.994141 9.30542 0.994141C10.4897 0.994141 11.6027 1.21887 12.6443 1.66834C13.6859 2.11781 14.592 2.7278 15.3625 3.49831C16.133 4.26883 16.743 5.1749 17.1925 6.21652C17.642 7.25814 17.8667 8.37111 17.8667 9.55542C17.8667 10.7397 17.642 11.8527 17.1925 12.8943C16.743 13.9359 16.133 14.842 15.3625 15.6125C14.592 16.383 13.6859 16.993 12.6443 17.4425C11.6027 17.892 10.4897 18.1167 9.30542 18.1167Z" fill="#4A44DD"/>
</svg>
