<svg width="22" height="12" viewBox="0 0 22 12" fill="none" xmlns="http://www.w3.org/2000/svg">
<path d="M6.03613 9C6.86947 9 7.5778 8.70833 8.16113 8.125C8.74447 7.54167 9.03613 6.83333 9.03613 6C9.03613 5.16667 8.74447 4.45833 8.16113 3.875C7.5778 3.29167 6.86947 3 6.03613 3C5.2028 3 4.49447 3.29167 3.91113 3.875C3.3278 4.45833 3.03613 5.16667 3.03613 6C3.03613 6.83333 3.3278 7.54167 3.91113 8.125C4.49447 8.70833 5.2028 9 6.03613 9ZM6.03613 12C4.36947 12 2.9528 11.4167 1.78613 10.25C0.619466 9.08333 0.0361328 7.66667 0.0361328 6C0.0361328 4.33333 0.619466 2.91667 1.78613 1.75C2.9528 0.583333 4.36947 0 6.03613 0C7.38613 0 8.5653 0.383333 9.57363 1.15C10.582 1.91667 11.2861 2.86667 11.6861 4H19.6361C19.7695 4 19.8986 4.025 20.0236 4.075C20.1486 4.125 20.2528 4.19167 20.3361 4.275L21.3111 5.25C21.4111 5.35 21.4861 5.4625 21.5361 5.5875C21.5861 5.7125 21.6111 5.84167 21.6111 5.975C21.6111 6.10833 21.5903 6.23333 21.5486 6.35C21.507 6.46667 21.4361 6.575 21.3361 6.675L18.7361 9.275C18.6361 9.375 18.5278 9.45 18.4111 9.5C18.2945 9.55 18.1695 9.575 18.0361 9.575C17.9028 9.575 17.7778 9.55417 17.6611 9.5125C17.5445 9.47083 17.4361 9.4 17.3361 9.3L16.0361 8L14.7361 9.3C14.6361 9.4 14.5278 9.47083 14.4111 9.5125C14.2945 9.55417 14.1695 9.575 14.0361 9.575C13.9028 9.575 13.7778 9.55417 13.6611 9.5125C13.5445 9.47083 13.4361 9.4 13.3361 9.3L12.0361 8H11.6861C11.2695 9.2 10.5445 10.1667 9.51113 10.9C8.4778 11.6333 7.31947 12 6.03613 12Z" fill="#4A44DD"/>
</svg>
