<svg width="21" height="20" viewBox="0 0 21 20" fill="none" xmlns="http://www.w3.org/2000/svg">
<mask id="mask0_1_725" style="mask-type:alpha" maskUnits="userSpaceOnUse" x="0" y="0" width="21" height="20">
<rect x="0.804688" width="20" height="20" fill="#D9D9D9"/>
</mask>
<g mask="url(#mask0_1_725)">
<path d="M4.13798 17.5C3.67965 17.5 3.28729 17.3368 2.9609 17.0104C2.63451 16.684 2.47131 16.2917 2.47131 15.8333V10H4.13798V15.8333H11.638V17.5H4.13798ZM7.47131 14.1667C7.01298 14.1667 6.62062 14.0035 6.29423 13.6771C5.96784 13.3507 5.80465 12.9583 5.80465 12.5V6.66667H7.47131V12.5H14.9713V14.1667H7.47131ZM10.8046 10.8333C10.3463 10.8333 9.95395 10.6701 9.62756 10.3438C9.30117 10.0174 9.13798 9.625 9.13798 9.16667V4.16667C9.13798 3.70833 9.30117 3.31597 9.62756 2.98958C9.95395 2.66319 10.3463 2.5 10.8046 2.5H17.4713C17.9296 2.5 18.322 2.66319 18.6484 2.98958C18.9748 3.31597 19.138 3.70833 19.138 4.16667V9.16667C19.138 9.625 18.9748 10.0174 18.6484 10.3438C18.322 10.6701 17.9296 10.8333 17.4713 10.8333H10.8046ZM10.8046 9.16667H17.4713V5.83333H10.8046V9.16667Z" fill="#1F2937"/>
</g>
</svg>
