<svg width="21" height="21" viewBox="0 0 21 21" fill="none" xmlns="http://www.w3.org/2000/svg">
<path fill-rule="evenodd" clip-rule="evenodd" d="M16.3863 3.26953C17.3556 3.26953 18.1426 4.05651 18.1426 5.02581V15.8883C18.1426 16.8576 17.3556 17.6445 16.3863 17.6445H13.3971V12.2282H15.267L15.6227 9.90854H13.3971V8.40318C13.3971 7.76857 13.708 7.14997 14.7049 7.14997H15.7168V5.17509C15.7168 5.17509 14.7984 5.01837 13.9204 5.01837C12.0874 5.01837 10.8893 6.12931 10.8893 8.14055V9.90854H8.85175V12.2282H10.8893V17.6445H5.52386C4.55455 17.6445 3.76758 16.8576 3.76758 15.8883V5.02581C3.76758 4.05651 4.55453 3.26953 5.52386 3.26953L16.3863 3.26953Z" fill="#1777F2"/>
</svg>
