<svg width="21" height="21" viewBox="0 0 21 21" fill="none" xmlns="http://www.w3.org/2000/svg">
<mask id="mask0_655_5583" style="mask-type:alpha" maskUnits="userSpaceOnUse" x="0" y="0" width="21" height="21">
<rect x="0.216797" y="0.5" width="20" height="20" fill="#D9D9D9"/>
</mask>
<g mask="url(#mask0_655_5583)">
<path d="M10.2174 17.1663C8.35634 17.1663 6.77995 16.5205 5.48828 15.2288C4.19661 13.9372 3.55078 12.3608 3.55078 10.4997C3.55078 8.63856 4.19661 7.06217 5.48828 5.77051C6.77995 4.47884 8.35634 3.83301 10.2174 3.83301C11.1758 3.83301 12.0924 4.03092 12.9674 4.42676C13.8424 4.82259 14.5924 5.38856 15.2174 6.12467V4.66634C15.2174 4.43023 15.2973 4.23231 15.457 4.07259C15.6168 3.91287 15.8147 3.83301 16.0508 3.83301C16.2869 3.83301 16.4848 3.91287 16.6445 4.07259C16.8043 4.23231 16.8841 4.43023 16.8841 4.66634V8.83301C16.8841 9.06912 16.8043 9.26704 16.6445 9.42676C16.4848 9.58648 16.2869 9.66634 16.0508 9.66634H11.8841C11.648 9.66634 11.4501 9.58648 11.2904 9.42676C11.1306 9.26704 11.0508 9.06912 11.0508 8.83301C11.0508 8.5969 11.1306 8.39898 11.2904 8.23926C11.4501 8.07954 11.648 7.99967 11.8841 7.99967H14.5508C14.1063 7.2219 13.4987 6.61079 12.7279 6.16634C11.957 5.7219 11.1202 5.49967 10.2174 5.49967C8.82856 5.49967 7.648 5.98579 6.67578 6.95801C5.70356 7.93023 5.21745 9.11079 5.21745 10.4997C5.21745 11.8886 5.70356 13.0691 6.67578 14.0413C7.648 15.0136 8.82856 15.4997 10.2174 15.4997C11.1619 15.4997 12.0265 15.2601 12.8112 14.7809C13.5959 14.3018 14.2036 13.6594 14.6341 12.8538C14.7452 12.6594 14.9015 12.524 15.1029 12.4476C15.3043 12.3712 15.5091 12.3677 15.7174 12.4372C15.9397 12.5066 16.0994 12.6525 16.1966 12.8747C16.2938 13.0969 16.2869 13.3052 16.1758 13.4997C15.6063 14.6108 14.7938 15.4997 13.7383 16.1663C12.6827 16.833 11.5091 17.1663 10.2174 17.1663Z" fill="#4A44DD"/>
</g>
</svg>
