<svg width="14" height="15" viewBox="0 0 14 15" fill="none" xmlns="http://www.w3.org/2000/svg">
<path d="M6 8.71875H1C0.716667 8.71875 0.479167 8.62292 0.2875 8.43125C0.0958333 8.23958 0 8.00208 0 7.71875C0 7.43542 0.0958333 7.19792 0.2875 7.00625C0.479167 6.81458 0.716667 6.71875 1 6.71875H6V1.71875C6 1.43542 6.09583 1.19792 6.2875 1.00625C6.47917 0.814583 6.71667 0.71875 7 0.71875C7.28333 0.71875 7.52083 0.814583 7.7125 1.00625C7.90417 1.19792 8 1.43542 8 1.71875V6.71875H13C13.2833 6.71875 13.5208 6.81458 13.7125 7.00625C13.9042 7.19792 14 7.43542 14 7.71875C14 8.00208 13.9042 8.23958 13.7125 8.43125C13.5208 8.62292 13.2833 8.71875 13 8.71875H8V13.7188C8 14.0021 7.90417 14.2396 7.7125 14.4313C7.52083 14.6229 7.28333 14.7188 7 14.7188C6.71667 14.7188 6.47917 14.6229 6.2875 14.4313C6.09583 14.2396 6 14.0021 6 13.7188V8.71875Z" fill="white"/>
</svg>
