<svg width="25" height="24" viewBox="0 0 25 24" fill="none" xmlns="http://www.w3.org/2000/svg">
<path fill-rule="evenodd" clip-rule="evenodd" d="M19.2108 3.375C20.374 3.375 21.3184 4.31937 21.3184 5.48253V18.5175C21.3184 19.6806 20.374 20.625 19.2108 20.625H15.6238V14.1254H17.8676L18.2946 11.3418H15.6238V9.53537C15.6238 8.77385 15.9968 8.03152 17.1931 8.03152H18.4074V5.66167C18.4074 5.66167 17.3054 5.4736 16.2518 5.4736C14.0521 5.4736 12.6145 6.80674 12.6145 9.22022V11.3418H10.1694V14.1254H12.6145V20.625H6.17589C5.01273 20.625 4.06836 19.6806 4.06836 18.5175V5.48253C4.06836 4.31937 5.0127 3.375 6.17589 3.375L19.2108 3.375Z" fill="#F1F2F4"/>
</svg>
