<svg width="21" height="21" viewBox="0 0 21 21" fill="none" xmlns="http://www.w3.org/2000/svg">
<path d="M10.5 21.0001C9.11667 21.0001 7.81667 20.7376 6.6 20.2126C5.38333 19.6876 4.325 18.9751 3.425 18.0751C2.525 17.1751 1.8125 16.1167 1.2875 14.9001C0.7625 13.6834 0.5 12.3834 0.5 11.0001C0.5 9.65007 0.779167 8.33757 1.3375 7.06257C1.89583 5.78757 2.67083 4.66674 3.6625 3.70007C4.65417 2.7334 5.83333 2.00007 7.2 1.50007C8.56667 1.00007 10.0667 0.85007 11.7 1.05007C11.95 1.0834 12.1417 1.18757 12.275 1.36257C12.4083 1.53757 12.4833 1.77507 12.5 2.07507C12.5333 3.14174 12.9292 4.05424 13.6875 4.81257C14.4458 5.5709 15.35 5.96674 16.4 6.00007C16.75 6.01674 17.0167 6.11674 17.2 6.30007C17.3833 6.4834 17.4833 6.76674 17.5 7.15007C17.5333 7.85007 17.7458 8.42507 18.1375 8.87507C18.5292 9.32507 19.075 9.66674 19.775 9.90007C20.0083 9.9834 20.1875 10.1042 20.3125 10.2626C20.4375 10.4209 20.5 10.6167 20.5 10.8501C20.5333 12.2334 20.2917 13.5417 19.775 14.7751C19.2583 16.0084 18.55 17.0876 17.65 18.0126C16.75 18.9376 15.6833 19.6667 14.45 20.2001C13.2167 20.7334 11.9 21.0001 10.5 21.0001ZM9 9.00007C9.41667 9.00007 9.77083 8.85424 10.0625 8.56257C10.3542 8.2709 10.5 7.91674 10.5 7.50007C10.5 7.0834 10.3542 6.72924 10.0625 6.43757C9.77083 6.1459 9.41667 6.00007 9 6.00007C8.58333 6.00007 8.22917 6.1459 7.9375 6.43757C7.64583 6.72924 7.5 7.0834 7.5 7.50007C7.5 7.91674 7.64583 8.2709 7.9375 8.56257C8.22917 8.85424 8.58333 9.00007 9 9.00007ZM7 14.0001C7.41667 14.0001 7.77083 13.8542 8.0625 13.5626C8.35417 13.2709 8.5 12.9167 8.5 12.5001C8.5 12.0834 8.35417 11.7292 8.0625 11.4376C7.77083 11.1459 7.41667 11.0001 7 11.0001C6.58333 11.0001 6.22917 11.1459 5.9375 11.4376C5.64583 11.7292 5.5 12.0834 5.5 12.5001C5.5 12.9167 5.64583 13.2709 5.9375 13.5626C6.22917 13.8542 6.58333 14.0001 7 14.0001ZM13.5 15.0001C13.7833 15.0001 14.0208 14.9042 14.2125 14.7126C14.4042 14.5209 14.5 14.2834 14.5 14.0001C14.5 13.7167 14.4042 13.4792 14.2125 13.2876C14.0208 13.0959 13.7833 13.0001 13.5 13.0001C13.2167 13.0001 12.9792 13.0959 12.7875 13.2876C12.5958 13.4792 12.5 13.7167 12.5 14.0001C12.5 14.2834 12.5958 14.5209 12.7875 14.7126C12.9792 14.9042 13.2167 15.0001 13.5 15.0001Z" fill="#A0AEC0"/>
</svg>
