<svg width="21" height="21" viewBox="0 0 21 21" fill="none" xmlns="http://www.w3.org/2000/svg">
<mask id="mask0_23_140" style="mask-type:alpha" maskUnits="userSpaceOnUse" x="0" y="0" width="21" height="21">
<rect x="0.350891" y="0.125404" width="20" height="20" fill="#D9D9D9"/>
</mask>
<g mask="url(#mask0_23_140)">
<path d="M7.84647 16.1254C7.43275 16.1254 7.08006 15.9781 6.78839 15.6835C6.49672 15.3889 6.35089 15.0347 6.35089 14.621C6.35089 14.2073 6.4982 13.8546 6.79281 13.5629C7.08743 13.2712 7.4416 13.1254 7.85531 13.1254C8.26903 13.1254 8.62172 13.2727 8.91339 13.5673C9.20506 13.8619 9.35089 14.2161 9.35089 14.6298C9.35089 15.0435 9.20359 15.3962 8.90897 15.6879C8.61435 15.9796 8.26018 16.1254 7.84647 16.1254ZM12.8465 16.1254C12.4328 16.1254 12.0801 15.9781 11.7884 15.6835C11.4967 15.3889 11.3509 15.0347 11.3509 14.621C11.3509 14.2073 11.4982 13.8546 11.7928 13.5629C12.0874 13.2712 12.4416 13.1254 12.8553 13.1254C13.269 13.1254 13.6217 13.2727 13.9134 13.5673C14.2051 13.8619 14.3509 14.2161 14.3509 14.6298C14.3509 15.0435 14.2036 15.3962 13.909 15.6879C13.6144 15.9796 13.2602 16.1254 12.8465 16.1254ZM7.84647 11.6254C7.43275 11.6254 7.08006 11.4781 6.78839 11.1835C6.49672 10.8889 6.35089 10.5347 6.35089 10.121C6.35089 9.70727 6.4982 9.35457 6.79281 9.0629C7.08743 8.77124 7.4416 8.6254 7.85531 8.6254C8.26903 8.6254 8.62172 8.77271 8.91339 9.06732C9.20506 9.36195 9.35089 9.71611 9.35089 10.1298C9.35089 10.5435 9.20359 10.8962 8.90897 11.1879C8.61435 11.4796 8.26018 11.6254 7.84647 11.6254ZM12.8465 11.6254C12.4328 11.6254 12.0801 11.4781 11.7884 11.1835C11.4967 10.8889 11.3509 10.5347 11.3509 10.121C11.3509 9.70727 11.4982 9.35457 11.7928 9.0629C12.0874 8.77124 12.4416 8.6254 12.8553 8.6254C13.269 8.6254 13.6217 8.77271 13.9134 9.06732C14.2051 9.36195 14.3509 9.71611 14.3509 10.1298C14.3509 10.5435 14.2036 10.8962 13.909 11.1879C13.6144 11.4796 13.2602 11.6254 12.8465 11.6254ZM7.84647 7.1254C7.43275 7.1254 7.08006 6.9781 6.78839 6.68349C6.49672 6.38886 6.35089 6.0347 6.35089 5.62099C6.35089 5.20727 6.4982 4.85457 6.79281 4.5629C7.08743 4.27124 7.4416 4.1254 7.85531 4.1254C8.26903 4.1254 8.62172 4.27271 8.91339 4.56732C9.20506 4.86195 9.35089 5.21611 9.35089 5.62982C9.35089 6.04354 9.20359 6.39624 8.90897 6.6879C8.61435 6.97957 8.26018 7.1254 7.84647 7.1254ZM12.8465 7.1254C12.4328 7.1254 12.0801 6.9781 11.7884 6.68349C11.4967 6.38886 11.3509 6.0347 11.3509 5.62099C11.3509 5.20727 11.4982 4.85457 11.7928 4.5629C12.0874 4.27124 12.4416 4.1254 12.8553 4.1254C13.269 4.1254 13.6217 4.27271 13.9134 4.56732C14.2051 4.86195 14.3509 5.21611 14.3509 5.62982C14.3509 6.04354 14.2036 6.39624 13.909 6.6879C13.6144 6.97957 13.2602 7.1254 12.8465 7.1254Z" fill="#B9B8B8"/>
</g>
</svg>
