<svg width="24" height="24" viewBox="0 0 24 24" fill="none" xmlns="http://www.w3.org/2000/svg">
<mask id="mask0_44_177" style="mask-type:alpha" maskUnits="userSpaceOnUse" x="0" y="0" width="24" height="24">
<rect width="24" height="24" fill="#D9D9D9"/>
</mask>
<g mask="url(#mask0_44_177)">
<path d="M4.19999 19.2C3.71666 19.2 3.29583 19.0208 2.93749 18.6625C2.57916 18.3042 2.39999 17.8833 2.39999 17.4V6.6C2.39999 6.105 2.57916 5.68125 2.93749 5.32875C3.29583 4.97625 3.71666 4.8 4.19999 4.8H9.59999L12 7.2H19.8C20.295 7.2 20.7187 7.37625 21.0712 7.72875C21.4237 8.08125 21.6 8.505 21.6 9V17.4C21.6 17.8833 21.4237 18.3042 21.0712 18.6625C20.7187 19.0208 20.295 19.2 19.8 19.2H4.19999ZM12 16.8H19.2V16.275C19.2 15.7917 18.8333 15.3583 18.1 14.975C17.3667 14.5917 16.5292 14.4 15.5875 14.4C14.6458 14.4 13.8125 14.5875 13.0875 14.9625C12.3625 15.3375 12 15.775 12 16.275V16.8ZM15.6053 13.2C16.1018 13.2 16.525 13.0232 16.875 12.6697C17.225 12.3161 17.4 11.8911 17.4 11.3947C17.4 10.8982 17.2232 10.475 16.8697 10.125C16.5161 9.775 16.0911 9.6 15.5947 9.6C15.0982 9.6 14.675 9.77677 14.325 10.1303C13.975 10.4838 13.8 10.9088 13.8 11.4053C13.8 11.9018 13.9768 12.325 14.3303 12.675C14.6838 13.025 15.1088 13.2 15.6053 13.2Z" fill="#1E4FCA"/>
</g>
</svg>
