<svg width="20" height="20" viewBox="0 0 20 20" fill="none" xmlns="http://www.w3.org/2000/svg">
<path fill-rule="evenodd" clip-rule="evenodd" d="M18.5417 14.6739C18.0753 15.7134 17.8509 16.178 17.25 17.0987C16.4119 18.3841 15.23 19.9845 13.7642 19.9964C12.4631 20.0105 12.1277 19.1437 10.3614 19.1544C8.59515 19.1637 8.22687 20.0128 6.92359 19.9998C5.4589 19.9869 4.33906 18.5428 3.50093 17.2575C1.15609 13.6661 0.909369 9.45016 2.35531 7.2075C3.3839 5.61516 5.0064 4.68391 6.53078 4.68391C8.08203 4.68391 9.05796 5.54 10.3427 5.54C11.5887 5.54 12.3473 4.68156 14.1417 4.68156C15.5 4.68156 16.9391 5.42594 17.963 6.71016C14.6058 8.56109 15.1494 13.3838 18.5417 14.6739ZM12.7811 3.24688C13.4334 2.40484 13.9278 1.21484 13.7491 0C12.683 0.0740625 11.4369 0.756094 10.7098 1.64516C10.047 2.45063 9.50234 3.64906 9.71499 4.81203C10.8805 4.84859 12.0833 4.15 12.7811 3.24688Z" fill="#3266EA"/>
</svg>
