<svg width="31" height="31" viewBox="0 0 31 31" fill="none" xmlns="http://www.w3.org/2000/svg">
<mask id="mask0_11_65" style="mask-type:alpha" maskUnits="userSpaceOnUse" x="0" y="0" width="31" height="31">
<rect x="0.855476" y="0.566427" width="30" height="30" fill="#D9D9D9"/>
</mask>
<g mask="url(#mask0_11_65)">
<path d="M15.918 25.5664C13.1263 25.5664 10.7513 24.5977 8.79298 22.6602C6.83464 20.7227 5.85548 18.3581 5.85548 15.5664V15.3477L3.85548 17.3477L2.10548 15.5977L7.10548 10.5977L12.1055 15.5977L10.3555 17.3477L8.35548 15.3477V15.5664C8.35548 17.6498 9.08985 19.4206 10.5586 20.8789C12.0274 22.3373 13.8138 23.0664 15.918 23.0664C16.4596 23.0664 16.9909 23.0039 17.5117 22.8789C18.0326 22.7539 18.543 22.5664 19.043 22.3164L20.918 24.1914C20.1263 24.6498 19.3138 24.9935 18.4805 25.2227C17.6471 25.4518 16.793 25.5664 15.918 25.5664ZM24.6055 20.5352L19.6055 15.5352L21.3555 13.7852L23.3555 15.7852V15.5664C23.3555 13.4831 22.6211 11.7123 21.1524 10.2539C19.6836 8.79559 17.8971 8.06643 15.793 8.06643C15.2513 8.06643 14.7201 8.12893 14.1992 8.25393C13.6784 8.37893 13.168 8.56643 12.668 8.81643L10.793 6.94143C11.5846 6.48309 12.3971 6.13934 13.2305 5.91018C14.0638 5.68101 14.918 5.56643 15.793 5.56643C18.5846 5.56643 20.9596 6.53518 22.918 8.47268C24.8763 10.4102 25.8555 12.7748 25.8555 15.5664V15.7852L27.8555 13.7852L29.6055 15.5352L24.6055 20.5352Z" fill="#CBCACA"/>
</g>
</svg>
