<svg width="32" height="32" viewBox="0 0 32 32" fill="none" xmlns="http://www.w3.org/2000/svg">
<mask id="mask0_8961_10467" style="mask-type:alpha" maskUnits="userSpaceOnUse" x="0" y="0" width="32" height="32">
<rect width="32" height="32" fill="#D9D9D9"/>
</mask>
<g mask="url(#mask0_8961_10467)">
<path d="M25.3332 25.3359H22.6665C22.2887 25.3359 21.9721 25.2082 21.7165 24.9526C21.4609 24.6971 21.3332 24.3804 21.3332 24.0026C21.3332 23.6248 21.4609 23.3082 21.7165 23.0526C21.9721 22.7971 22.2887 22.6693 22.6665 22.6693H25.3332V20.0026C25.3332 19.6248 25.4609 19.3082 25.7165 19.0526C25.9721 18.797 26.2887 18.6693 26.6665 18.6693C27.0443 18.6693 27.3609 18.797 27.6165 19.0526C27.8721 19.3082 27.9998 19.6248 27.9998 20.0026V22.6693H30.6665C31.0443 22.6693 31.3609 22.7971 31.6165 23.0526C31.8721 23.3082 31.9998 23.6248 31.9998 24.0026C31.9998 24.3804 31.8721 24.6971 31.6165 24.9526C31.3609 25.2082 31.0443 25.3359 30.6665 25.3359H27.9998V28.0026C27.9998 28.3804 27.8721 28.697 27.6165 28.9526C27.3609 29.2082 27.0443 29.3359 26.6665 29.3359C26.2887 29.3359 25.9721 29.2082 25.7165 28.9526C25.4609 28.697 25.3332 28.3804 25.3332 28.0026V25.3359ZM5.33317 16.0026H26.6665V10.6693H5.33317V16.0026ZM5.33317 26.6693C4.59984 26.6693 3.97206 26.4082 3.44984 25.8859C2.92762 25.3637 2.6665 24.7359 2.6665 24.0026V8.0026C2.6665 7.26927 2.92762 6.64149 3.44984 6.11927C3.97206 5.59705 4.59984 5.33594 5.33317 5.33594H26.6665C27.3998 5.33594 28.0276 5.59705 28.5498 6.11927C29.0721 6.64149 29.3332 7.26927 29.3332 8.0026V14.6693C29.3332 15.047 29.2054 15.3637 28.9498 15.6193C28.6943 15.8748 28.3776 16.0026 27.9998 16.0026H25.3332C23.4887 16.0026 21.9165 16.6526 20.6165 17.9526C19.3165 19.2526 18.6665 20.8248 18.6665 22.6693V25.3359C18.6665 25.7137 18.5387 26.0304 18.2832 26.2859C18.0276 26.5415 17.7109 26.6693 17.3332 26.6693H5.33317Z" fill="white"/>
</g>
</svg>
