<svg width="202" height="207" viewBox="0 0 202 207" fill="none" xmlns="http://www.w3.org/2000/svg">
<path d="M132.027 24.4736C132.059 23.8553 131.916 23.2369 131.623 22.6978C131.337 22.3411 130.981 22.0557 130.568 21.8496C125.233 18.734 119.311 16.7521 113.167 16.0386C112.168 15.8483 111.138 15.9276 110.178 16.2685C108.847 16.8472 108.173 18.2345 107.538 19.5268L95.7262 44.2215C95.4091 44.8874 95.0999 45.6326 95.4091 46.2827C95.5994 46.6157 95.8689 46.8931 96.186 47.1072C105.89 54.2817 118.003 57.3973 129.966 55.7801C131.647 55.6532 133.264 55.1141 134.683 54.2104C140.018 50.31 135.761 45.3234 133.208 41.6767C130.251 37.4671 132.201 29.5474 132.019 24.4816L132.027 24.4736Z" fill="url(#paint0_linear_26_401)"/>
<path d="M132.027 24.4736C132.059 23.8553 131.916 23.2369 131.623 22.6978C131.337 22.3411 130.981 22.0557 130.568 21.8496C125.233 18.734 119.311 16.7521 113.167 16.0386C112.168 15.8483 111.138 15.9276 110.178 16.2685C108.847 16.8472 108.173 18.2345 107.538 19.5268L95.7262 44.2215C95.4091 44.8874 95.0999 45.6326 95.4091 46.2827C95.5994 46.6157 95.8689 46.8931 96.186 47.1072C105.89 54.2817 118.003 57.3973 129.966 55.7801C131.647 55.6532 133.264 55.1141 134.683 54.2104C140.018 50.31 135.761 45.3234 133.208 41.6767C130.251 37.4671 132.201 29.5474 132.019 24.4816L132.027 24.4736Z" fill="url(#paint1_linear_26_401)"/>
<path d="M72.8317 28.4918C73.0933 27.8972 73.4976 27.3819 73.9971 26.9697C74.6471 26.5971 75.3923 26.4147 76.1375 26.4385C79.8715 26.3275 83.5975 26.4464 87.3156 26.8032C89.7415 26.8983 92.1435 27.2392 94.506 27.8021C96.2184 28.2698 97.8515 28.9833 99.3657 29.9188C100.087 30.2914 100.682 30.8622 101.078 31.5677C101.348 32.2812 101.443 33.0423 101.356 33.7954C101.245 36.6256 101.094 39.4558 100.935 42.278C100.618 47.9542 100.214 53.7732 97.907 58.9658C97.6612 59.6159 97.2728 60.2025 96.7654 60.6861C96.2897 61.0349 95.7506 61.2886 95.1798 61.4234C93.6339 61.8119 92.0405 62.01 90.447 62.0338C85.0879 62.232 79.7288 61.7801 74.4807 60.702C72.0231 60.2501 69.6289 59.497 67.3616 58.4584C66.9811 58.3157 66.656 58.0541 66.4261 57.7212C66.2834 57.3961 66.22 57.0394 66.2597 56.6826C66.3152 52.4175 66.4975 48.1604 66.8067 43.9191C66.9494 42.0402 66.8622 39.8759 67.425 38.0684C67.7818 36.911 68.6697 36.0152 69.2801 34.9846C70.5565 32.8758 71.6426 30.656 72.8238 28.5076L72.8317 28.4918Z" fill="url(#paint2_linear_26_401)"/>
<path d="M72.8317 28.4918C73.0933 27.8972 73.4976 27.3819 73.9971 26.9697C74.6471 26.5971 75.3923 26.4147 76.1375 26.4385C79.8715 26.3275 83.5975 26.4464 87.3156 26.8032C89.7415 26.8983 92.1435 27.2392 94.506 27.8021C96.2184 28.2698 97.8515 28.9833 99.3657 29.9188C100.087 30.2914 100.682 30.8622 101.078 31.5677C101.348 32.2812 101.443 33.0423 101.356 33.7954C101.245 36.6256 101.094 39.4558 100.935 42.278C100.618 47.9542 100.214 53.7732 97.907 58.9658C97.6612 59.6159 97.2728 60.2025 96.7654 60.6861C96.2897 61.0349 95.7506 61.2886 95.1798 61.4234C93.6339 61.8119 92.0405 62.01 90.447 62.0338C85.0879 62.232 79.7288 61.7801 74.4807 60.702C72.0231 60.2501 69.6289 59.497 67.3616 58.4584C66.9811 58.3157 66.656 58.0541 66.4261 57.7212C66.2834 57.3961 66.22 57.0394 66.2597 56.6826C66.3152 52.4175 66.4975 48.1604 66.8067 43.9191C66.9494 42.0402 66.8622 39.8759 67.425 38.0684C67.7818 36.911 68.6697 36.0152 69.2801 34.9846C70.5565 32.8758 71.6426 30.656 72.8238 28.5076L72.8317 28.4918Z" fill="url(#paint3_linear_26_401)"/>
<path d="M137.403 38.6449C138.52 38.5418 139.733 38.4546 140.693 39.0413C141.509 39.6517 142.128 40.492 142.461 41.4592C145.441 48.166 146.797 55.4833 146.424 62.8164C125.995 65.2502 105.438 66.3601 84.8659 66.154C80.1172 66.0985 81.5283 57.156 83.534 54.4368C86.3404 50.7029 93.079 49.2283 97.1776 47.7617C110.171 43.1002 123.68 40.0402 137.411 38.6528L137.403 38.6449Z" fill="url(#paint4_linear_26_401)"/>
<path d="M137.403 38.6449C138.52 38.5418 139.733 38.4546 140.693 39.0413C141.509 39.6517 142.128 40.492 142.461 41.4592C145.441 48.166 146.797 55.4833 146.424 62.8164C125.995 65.2502 105.438 66.3601 84.8659 66.154C80.1172 66.0985 81.5283 57.156 83.534 54.4368C86.3404 50.7029 93.079 49.2283 97.1776 47.7617C110.171 43.1002 123.68 40.0402 137.411 38.6528L137.403 38.6449Z" fill="url(#paint5_linear_26_401)"/>
<path d="M21.6586 41.3706C21.4763 40.2766 22.2136 39.246 23.3076 39.0716C23.5217 39.032 23.7436 39.032 23.9656 39.0716C41.3907 37.7081 58.8554 36.9391 76.3438 36.7647C76.8988 36.7092 77.4537 36.8122 77.9531 37.058C78.6746 37.5019 78.8569 38.4374 78.9917 39.2698C79.9192 45.3583 80.8467 51.4467 81.7901 57.5273C81.9408 58.0981 81.8932 58.7006 81.6554 59.2396C81.2511 59.9056 80.3711 60.0641 79.5942 60.1434C64.7456 61.7289 49.8178 62.4821 34.882 62.3949C30.173 62.3631 24.1004 63.5206 21.7379 58.4944C19.5975 53.8964 21.2543 46.159 21.6666 41.3786L21.6586 41.3706Z" fill="url(#paint6_linear_26_401)"/>
<path d="M21.6586 41.3706C21.4763 40.2766 22.2136 39.246 23.3076 39.0716C23.5217 39.032 23.7436 39.032 23.9656 39.0716C41.3907 37.7081 58.8554 36.9391 76.3438 36.7647C76.8988 36.7092 77.4537 36.8122 77.9531 37.058C78.6746 37.5019 78.8569 38.4374 78.9917 39.2698C79.9192 45.3583 80.8467 51.4467 81.7901 57.5273C81.9408 58.0981 81.8932 58.7006 81.6554 59.2396C81.2511 59.9056 80.3711 60.0641 79.5942 60.1434C64.7456 61.7289 49.8178 62.4821 34.882 62.3949C30.173 62.3631 24.1004 63.5206 21.7379 58.4944C19.5975 53.8964 21.2543 46.159 21.6666 41.3786L21.6586 41.3706Z" fill="url(#paint7_linear_26_401)"/>
<path d="M38.5286 192.774C64.3887 193.884 90.2726 194.368 116.164 194.225C114.206 197.032 115.911 201.17 118.796 202.993C121.682 204.817 125.273 204.999 128.69 205.078L178.611 206.505C185.468 206.703 192.817 206.767 198.525 202.954C199.698 202.256 200.65 201.233 201.26 200.02C202.917 196.223 199.072 192.426 195.671 190.039L181.655 180.193C175.075 175.579 168.424 170.934 160.964 167.977C150.555 163.87 139.131 163.307 127.945 162.966C102.22 162.221 75.8204 161.555 50.1743 164.06C42.096 164.758 34.2318 166.994 26.9859 170.624C22.4354 172.884 4.92311 177.966 4.29682 182.881C2.94119 192.703 32.7096 192.481 38.5206 192.759L38.5286 192.774Z" fill="url(#paint8_linear_26_401)"/>
<path d="M78.1513 1.13868C81.3541 3.23952 82.242 7.5284 80.1412 10.7312L39.4642 72.7574C37.3634 75.9602 33.0745 76.8481 29.8717 74.7472C26.6689 72.6464 25.781 68.3575 27.8818 65.1547L68.5588 3.12854C70.6596 -0.0742491 74.9485 -0.962158 78.1513 1.13868Z" fill="url(#paint9_linear_26_401)"/>
<path d="M96.7254 5.30061C99.8014 3.02537 104.138 3.68336 106.413 6.75931L150.483 66.4231C152.758 69.499 152.1 73.8355 149.024 76.1107C145.948 78.3859 141.612 77.7279 139.337 74.652L95.2667 14.9882C92.9915 11.9123 93.6495 7.57586 96.7254 5.30061Z" fill="url(#paint10_linear_26_401)"/>
<path d="M78.1513 1.13868C81.3541 3.23952 82.242 7.5284 80.1412 10.7312L39.4642 72.7574C37.3634 75.9602 33.0745 76.8481 29.8717 74.7472C26.6689 72.6464 25.781 68.3575 27.8818 65.1547L68.5588 3.12854C70.6596 -0.0742491 74.9485 -0.962158 78.1513 1.13868Z" fill="url(#paint11_linear_26_401)"/>
<path d="M96.7254 5.30061C99.8014 3.02537 104.138 3.68336 106.413 6.75931L150.483 66.4231C152.758 69.499 152.1 73.8355 149.024 76.1107C145.948 78.3859 141.612 77.7279 139.337 74.652L95.2667 14.9882C92.9915 11.9123 93.6495 7.57586 96.7254 5.30061Z" fill="url(#paint12_linear_26_401)"/>
<path d="M142.35 163.415C140.629 172.934 132.342 179.857 122.669 179.857H46.0909C36.0461 179.857 27.5596 172.407 26.2592 162.446L18.2343 100.98C16.6713 89.0075 25.9922 78.3906 38.066 78.3906H133.782C146.252 78.3906 155.681 89.6778 153.463 101.949L142.35 163.415Z" fill="url(#paint13_linear_26_401)"/>
<path d="M133.78 78.375C146.251 78.375 155.68 89.6628 153.461 101.934L142.342 163.416C140.621 172.935 132.334 179.857 122.662 179.857H46.0991C36.0541 179.857 27.5675 172.407 26.2673 162.446L18.2416 100.964C16.6788 88.9917 25.9997 78.375 38.0734 78.375H133.78Z" fill="url(#paint14_linear_26_401)"/>
<path d="M71.3256 113.027V179.849H52.5449V113.027C52.6797 107.85 56.9923 103.759 62.1771 103.894C67.1636 104.029 71.175 108.04 71.3098 113.027H71.3335H71.3256Z" fill="url(#paint15_linear_26_401)"/>
<path d="M112.073 113.027V179.849H93.3164V113.027C93.4512 107.85 97.7638 103.759 102.949 103.894C107.935 104.029 111.946 108.04 112.081 113.027H112.073Z" fill="url(#paint16_linear_26_401)"/>
<path d="M161.574 58.8281H12.0342C5.3879 58.8281 0 64.216 0 70.8623V77.3631C0 84.0094 5.3879 89.3973 12.0342 89.3973H161.574C168.22 89.3973 173.608 84.0094 173.608 77.3631V70.8623C173.608 64.216 168.22 58.8281 161.574 58.8281Z" fill="url(#paint17_linear_26_401)"/>
<path d="M161.574 58.8281H12.0342C5.3879 58.8281 0 64.216 0 70.8623V77.3631C0 84.0094 5.3879 89.3973 12.0342 89.3973H161.574C168.22 89.3973 173.608 84.0094 173.608 77.3631V70.8623C173.608 64.216 168.22 58.8281 161.574 58.8281Z" fill="url(#paint18_linear_26_401)"/>
<path d="M101.07 16.5505C104.109 16.5505 106.572 14.0873 106.572 11.0487C106.572 8.01012 104.109 5.54688 101.07 5.54688C98.0316 5.54688 95.5684 8.01012 95.5684 11.0487C95.5684 14.0873 98.0316 16.5505 101.07 16.5505Z" fill="url(#paint19_linear_26_401)"/>
<path d="M74.3778 12.6833C77.4163 12.6833 79.8796 10.2201 79.8796 7.18149C79.8796 4.14292 77.4163 1.67969 74.3778 1.67969C71.3392 1.67969 68.876 4.14292 68.876 7.18149C68.876 10.2201 71.3392 12.6833 74.3778 12.6833Z" fill="url(#paint20_linear_26_401)"/>
<g filter="url(#filter0_b_26_401)">
<path d="M159.679 204.41C182.63 204.41 201.235 185.805 201.235 162.854C201.235 139.902 182.63 121.297 159.679 121.297C136.728 121.297 118.122 139.902 118.122 162.854C118.122 185.805 136.728 204.41 159.679 204.41Z" fill="white" fill-opacity="0.55"/>
<path d="M195.735 162.854C195.735 182.767 179.592 198.91 159.679 198.91C139.765 198.91 123.622 182.767 123.622 162.854C123.622 142.94 139.765 126.797 159.679 126.797C179.592 126.797 195.735 142.94 195.735 162.854Z" stroke="black" stroke-width="11"/>
</g>
<path d="M155.886 177.583C155.007 177.583 154.163 177.235 153.543 176.613L142.81 165.92C141.553 164.591 141.614 162.499 142.942 161.245C144.22 160.04 146.218 160.04 147.497 161.245L155.719 169.448L172.506 150.242C173.674 148.836 175.764 148.644 177.174 149.809C178.585 150.974 178.777 153.06 177.609 154.466C177.573 154.509 177.541 154.548 177.506 154.587L158.379 176.46C157.774 177.153 156.905 177.562 155.983 177.587C155.95 177.587 155.918 177.587 155.886 177.579V177.583Z" fill="url(#paint21_linear_26_401)"/>
<defs>
<filter id="filter0_b_26_401" x="94.1221" y="97.2969" width="131.113" height="131.113" filterUnits="userSpaceOnUse" color-interpolation-filters="sRGB">
<feFlood flood-opacity="0" result="BackgroundImageFix"/>
<feGaussianBlur in="BackgroundImageFix" stdDeviation="12"/>
<feComposite in2="SourceAlpha" operator="in" result="effect1_backgroundBlur_26_401"/>
<feBlend mode="normal" in="SourceGraphic" in2="effect1_backgroundBlur_26_401" result="shape"/>
</filter>
<linearGradient id="paint0_linear_26_401" x1="129.373" y1="12.0181" x2="92.7139" y2="16.2477" gradientUnits="userSpaceOnUse">
<stop stop-color="#F0BA2E"/>
<stop offset="1" stop-color="#F0A22E"/>
</linearGradient>
<linearGradient id="paint1_linear_26_401" x1="112.121" y1="21.8892" x2="120.072" y2="71.0963" gradientUnits="userSpaceOnUse">
<stop stop-color="#010101" stop-opacity="0"/>
<stop offset="0.95" stop-color="#010101"/>
</linearGradient>
<linearGradient id="paint2_linear_26_401" x1="94.7962" y1="22.9249" x2="64.0549" y2="26.2761" gradientUnits="userSpaceOnUse">
<stop stop-color="#F0BA2E"/>
<stop offset="1" stop-color="#F0A22E"/>
</linearGradient>
<linearGradient id="paint3_linear_26_401" x1="80.7911" y1="34.7784" x2="93.8321" y2="78.1825" gradientUnits="userSpaceOnUse">
<stop stop-color="#010101" stop-opacity="0"/>
<stop offset="0.95" stop-color="#010101"/>
</linearGradient>
<linearGradient id="paint4_linear_26_401" x1="134.327" y1="35.8827" x2="80.578" y2="49.8516" gradientUnits="userSpaceOnUse">
<stop stop-color="#F0BA2E"/>
<stop offset="1" stop-color="#F0A22E"/>
</linearGradient>
<linearGradient id="paint5_linear_26_401" x1="111.78" y1="44.2815" x2="116.672" y2="76.674" gradientUnits="userSpaceOnUse">
<stop stop-color="#010101" stop-opacity="0"/>
<stop offset="0.95" stop-color="#010101"/>
</linearGradient>
<linearGradient id="paint6_linear_26_401" x1="70.3958" y1="34.2443" x2="19.7211" y2="47.5845" gradientUnits="userSpaceOnUse">
<stop stop-color="#F0BA2E"/>
<stop offset="1" stop-color="#F0A22E"/>
</linearGradient>
<linearGradient id="paint7_linear_26_401" x1="50.2776" y1="38.5325" x2="53.742" y2="98.2359" gradientUnits="userSpaceOnUse">
<stop stop-color="#010101" stop-opacity="0"/>
<stop offset="0.95" stop-color="#010101"/>
</linearGradient>
<linearGradient id="paint8_linear_26_401" x1="96.7099" y1="224.446" x2="141.945" y2="-18.8551" gradientUnits="userSpaceOnUse">
<stop stop-color="#010101" stop-opacity="0"/>
<stop offset="0.95" stop-color="#010101"/>
</linearGradient>
<linearGradient id="paint9_linear_26_401" x1="71.0509" y1="-7.38757" x2="23.0759" y2="-3.57102" gradientUnits="userSpaceOnUse">
<stop stop-color="#F0BA2E"/>
<stop offset="1" stop-color="#F0A22E"/>
</linearGradient>
<linearGradient id="paint10_linear_26_401" x1="140.974" y1="-3.21206" x2="90.0808" y2="1.22664" gradientUnits="userSpaceOnUse">
<stop stop-color="#F0BA2E"/>
<stop offset="1" stop-color="#F0A22E"/>
</linearGradient>
<linearGradient id="paint11_linear_26_401" x1="65.0944" y1="20.395" x2="1.21311" y2="121.56" gradientUnits="userSpaceOnUse">
<stop stop-color="#010101" stop-opacity="0"/>
<stop offset="0.95" stop-color="#010101"/>
</linearGradient>
<linearGradient id="paint12_linear_26_401" x1="115.237" y1="24.4698" x2="159.552" y2="118.611" gradientUnits="userSpaceOnUse">
<stop stop-color="#010101" stop-opacity="0"/>
<stop offset="0.95" stop-color="#010101"/>
</linearGradient>
<linearGradient id="paint13_linear_26_401" x1="131.006" y1="68.5128" x2="7.88717" y2="87.6445" gradientUnits="userSpaceOnUse">
<stop stop-color="#F0BA2E"/>
<stop offset="1" stop-color="#F0A22E"/>
</linearGradient>
<linearGradient id="paint14_linear_26_401" x1="77.01" y1="193.897" x2="91.6841" y2="15.3975" gradientUnits="userSpaceOnUse">
<stop stop-color="#010101" stop-opacity="0"/>
<stop offset="1" stop-color="#010101"/>
</linearGradient>
<linearGradient id="paint15_linear_26_401" x1="67.8095" y1="96.496" x2="51.1894" y2="96.9511" gradientUnits="userSpaceOnUse">
<stop stop-color="#F0BA2E"/>
<stop offset="1" stop-color="#F0A22E"/>
</linearGradient>
<linearGradient id="paint16_linear_26_401" x1="108.562" y1="96.496" x2="91.9625" y2="96.9499" gradientUnits="userSpaceOnUse">
<stop stop-color="#F0BA2E"/>
<stop offset="1" stop-color="#F0A22E"/>
</linearGradient>
<linearGradient id="paint17_linear_26_401" x1="141.046" y1="55.8522" x2="30.8934" y2="125.101" gradientUnits="userSpaceOnUse">
<stop stop-color="#F0BA2E"/>
<stop offset="1" stop-color="#F0A22E"/>
</linearGradient>
<linearGradient id="paint18_linear_26_401" x1="86.8081" y1="69.4195" x2="86.8081" y2="168.04" gradientUnits="userSpaceOnUse">
<stop stop-color="#010101" stop-opacity="0"/>
<stop offset="0.95" stop-color="#010101"/>
</linearGradient>
<linearGradient id="paint19_linear_26_401" x1="99.3578" y1="-5.36162" x2="103.639" y2="35.5928" gradientUnits="userSpaceOnUse">
<stop stop-color="#010101" stop-opacity="0"/>
<stop offset="0.95" stop-color="#010101"/>
</linearGradient>
<linearGradient id="paint20_linear_26_401" x1="72.6575" y1="-9.2288" x2="76.9384" y2="31.7177" gradientUnits="userSpaceOnUse">
<stop stop-color="#010101" stop-opacity="0"/>
<stop offset="0.95" stop-color="#010101"/>
</linearGradient>
<linearGradient id="paint21_linear_26_401" x1="171.533" y1="146.269" x2="139.883" y2="150.745" gradientUnits="userSpaceOnUse">
<stop stop-color="#F0BA2E"/>
<stop offset="1" stop-color="#F0A22E"/>
</linearGradient>
</defs>
</svg>
