<svg width="20" height="20" viewBox="0 0 20 20" fill="none" xmlns="http://www.w3.org/2000/svg">
<mask id="mask0_8985_7181" style="mask-type:alpha" maskUnits="userSpaceOnUse" x="0" y="0" width="20" height="20">
<rect width="20" height="20" fill="#D9D9D9"/>
</mask>
<g mask="url(#mask0_8985_7181)">
<path d="M9.16665 16.6693C8.93054 16.6693 8.73262 16.5894 8.5729 16.4297C8.41318 16.27 8.33332 16.072 8.33332 15.8359V10.8359L3.49999 4.66927C3.29165 4.39149 3.2604 4.09983 3.40624 3.79427C3.55207 3.48872 3.80554 3.33594 4.16665 3.33594H15.8333C16.1944 3.33594 16.4479 3.48872 16.5937 3.79427C16.7396 4.09983 16.7083 4.39149 16.5 4.66927L11.6667 10.8359V15.8359C11.6667 16.072 11.5868 16.27 11.4271 16.4297C11.2673 16.5894 11.0694 16.6693 10.8333 16.6693H9.16665Z" fill="white"/>
</g>
</svg>
