<svg width="20" height="21" viewBox="0 0 20 21" fill="none" xmlns="http://www.w3.org/2000/svg">
<mask id="mask0_8947_13516" style="mask-type:alpha" maskUnits="userSpaceOnUse" x="0" y="0" width="20" height="21">
<rect y="0.328125" width="20" height="20" fill="#D9D9D9"/>
</mask>
<g mask="url(#mask0_8947_13516)">
<path d="M9.16667 18.4297V10.8047L2.5 6.95052V13.638C2.5 13.9436 2.57292 14.2214 2.71875 14.4714C2.86458 14.7214 3.06944 14.9227 3.33333 15.0755L9.16667 18.4297ZM10.8333 18.4297L16.6667 15.0755C16.9306 14.9227 17.1354 14.7214 17.2813 14.4714C17.4271 14.2214 17.5 13.9436 17.5 13.638V6.95052L10.8333 10.8047V18.4297ZM14.1458 6.97135L16.6042 5.53385L10.8333 2.22135C10.5694 2.06858 10.2917 1.99219 10 1.99219C9.70833 1.99219 9.43056 2.06858 9.16667 2.22135L7.52083 3.15885L14.1458 6.97135ZM10 9.36719L12.4792 7.95052L5.875 4.11719L3.375 5.55469L10 9.36719Z" fill="url(#paint0_linear_8947_13516)"/>
</g>
<defs>
<linearGradient id="paint0_linear_8947_13516" x1="14.6866" y1="0.391981" x2="1.54197" y2="1.71978" gradientUnits="userSpaceOnUse">
<stop stop-color="#F0BA2E"/>
<stop offset="1" stop-color="#F0A22E"/>
</linearGradient>
</defs>
</svg>
