<svg width="13" height="14" viewBox="0 0 13 14" fill="none" xmlns="http://www.w3.org/2000/svg">
<circle cx="6.5" cy="6.66406" r="6.5" fill="url(#paint0_linear_8947_13505)"/>
<path d="M10.9102 6.537C10.9102 8.4014 7.97818 9.91187 4.35962 9.91187C3.89352 9.91187 3.43902 9.88673 3 9.84031H3.05222C6.44643 9.84031 9.19854 8.36272 9.19854 6.53893C9.19854 4.71515 6.44836 3.23562 3.05222 3.23562H3.00774C3.44289 3.1892 3.89545 3.16406 4.35962 3.16406C7.97818 3.16406 10.9102 4.67453 10.9102 6.537Z" fill="white"/>
<path d="M8.39933 6.53599C8.39933 7.64225 6.84051 8.59572 4.5951 9.03088C4.16962 9.11404 3.71899 9.17786 3.24902 9.22041C5.12696 8.71757 6.40922 7.70414 6.40922 6.53599C6.40922 5.36784 5.12503 4.35441 3.24902 3.85156C3.71899 3.89411 4.16768 3.95793 4.59317 4.0411C6.84051 4.47625 8.39933 5.42973 8.39933 6.53599Z" fill="white"/>
<defs>
<linearGradient id="paint0_linear_8947_13505" x1="10.5617" y1="-1.1015" x2="-0.807229" y2="0.156986" gradientUnits="userSpaceOnUse">
<stop stop-color="#F0BA2E"/>
<stop offset="1" stop-color="#F0A22E"/>
</linearGradient>
</defs>
</svg>
