<svg width="60" height="60" viewBox="0 0 60 60" fill="none" xmlns="http://www.w3.org/2000/svg">
<path d="M22 4.6188C26.9504 1.76068 33.0496 1.76068 38 4.6188L47.9808 10.3812C52.9312 13.2393 55.9808 18.5214 55.9808 24.2376V35.7624C55.9808 41.4786 52.9312 46.7607 47.9808 49.6188L38 55.3812C33.0496 58.2393 26.9504 58.2393 22 55.3812L12.0192 49.6188C7.06882 46.7607 4.01924 41.4786 4.01924 35.7624V24.2376C4.01924 18.5214 7.06882 13.2393 12.0192 10.3812L22 4.6188Z" fill="url(#paint0_linear_9233_6861)"/>
<path d="M22 4.6188C26.9504 1.76068 33.0496 1.76068 38 4.6188L47.9808 10.3812C52.9312 13.2393 55.9808 18.5214 55.9808 24.2376V35.7624C55.9808 41.4786 52.9312 46.7607 47.9808 49.6188L38 55.3812C33.0496 58.2393 26.9504 58.2393 22 55.3812L12.0192 49.6188C7.06882 46.7607 4.01924 41.4786 4.01924 35.7624V24.2376C4.01924 18.5214 7.06882 13.2393 12.0192 10.3812L22 4.6188Z" fill="url(#paint1_linear_9233_6861)"/>
<path d="M22.2814 7.1813C27.2318 4.32318 33.331 4.32318 38.2814 7.1813L46.2795 11.799C51.2299 14.6571 54.2795 19.9391 54.2795 25.6554V34.8908C54.2795 40.607 51.2299 45.8891 46.2795 48.7472L38.2814 53.3649C33.331 56.223 27.2318 56.223 22.2814 53.3649L14.2833 48.7472C9.3329 45.8891 6.28332 40.607 6.28332 34.8908V25.6554C6.28332 19.9392 9.3329 14.6571 14.2833 11.799L22.2814 7.1813Z" fill="url(#paint2_linear_9233_6861)"/>
<path d="M22.2655 12.2516C27.2159 9.39349 33.3151 9.39349 38.2655 12.2516L41.8692 14.3322C46.8196 17.1903 49.8692 22.4723 49.8692 28.1886V32.3498C49.8692 38.066 46.8196 43.348 41.8692 46.2062L38.2655 48.2867C33.3151 51.1449 27.2159 51.1449 22.2655 48.2867L18.6618 46.2062C13.7114 43.348 10.6618 38.066 10.6618 32.3498V28.1886C10.6618 22.4724 13.7114 17.1903 18.6618 14.3322L22.2655 12.2516Z" fill="url(#paint3_linear_9233_6861)"/>
<path d="M30.2553 16.8353L30.2529 30.6042L18.3299 23.7176L30.2553 16.8353Z" fill="url(#paint4_linear_9233_6861)"/>
<path d="M30.2553 16.8353L30.2529 30.6042L18.3299 23.7176L30.2553 16.8353Z" fill="url(#paint5_linear_9233_6861)"/>
<path d="M30.0319 30.5995L30.0344 44.3684L41.9573 37.4818L30.0319 30.5995Z" fill="url(#paint6_linear_9233_6861)"/>
<path d="M30.0319 30.5995L30.0344 44.3684L41.9573 37.4818L30.0319 30.5995Z" fill="url(#paint7_linear_9233_6861)"/>
<path d="M30.1731 30.8047L18.1765 37.4828L30.0236 44.3758L30.1731 30.8047Z" fill="url(#paint8_linear_9233_6861)"/>
<path d="M30.1731 30.8047L18.1765 37.4828L30.0236 44.3758L30.1731 30.8047Z" fill="url(#paint9_linear_9233_6861)"/>
<path d="M29.9875 31.2393L41.905 23.7028L30.2686 16.8267L29.9875 31.2393Z" fill="url(#paint10_linear_9233_6861)"/>
<path d="M29.9875 31.2393L41.905 23.7028L30.2686 16.8267L29.9875 31.2393Z" fill="url(#paint11_linear_9233_6861)"/>
<path d="M18.2939 23.7225L30.6743 30.7025L18.1845 37.4909L18.2939 23.7225Z" fill="url(#paint12_linear_9233_6861)"/>
<path d="M18.2939 23.7225L30.6743 30.7025L18.1845 37.4909L18.2939 23.7225Z" fill="url(#paint13_linear_9233_6861)"/>
<path d="M41.8547 23.7225L29.9857 30.7014L41.9641 37.4909L41.8547 23.7225Z" fill="url(#paint14_linear_9233_6861)"/>
<path d="M41.8547 23.7225L29.9857 30.7014L41.9641 37.4909L41.8547 23.7225Z" fill="url(#paint15_linear_9233_6861)"/>
<path d="M31.5803 22.6975L36.5064 25.5416C37.2799 25.9881 37.7564 26.8135 37.7564 27.7066V33.3948C37.7564 34.288 37.2799 35.1133 36.5064 35.5599L31.5803 38.404C30.8068 38.8506 29.8538 38.8506 29.0803 38.404L24.1542 35.5599C23.3807 35.1133 22.9042 34.288 22.9042 33.3948V27.7066C22.9042 26.8135 23.3806 25.9881 24.1542 25.5416L29.0803 22.6975C29.8538 22.2509 30.8068 22.2509 31.5803 22.6975Z" fill="url(#paint16_linear_9233_6861)" stroke="#965D07"/>
<defs>
<linearGradient id="paint0_linear_9233_6861" x1="30" y1="0" x2="30" y2="60" gradientUnits="userSpaceOnUse">
<stop stop-color="#303D50"/>
<stop offset="1" stop-color="#303D50"/>
</linearGradient>
<linearGradient id="paint1_linear_9233_6861" x1="8.33839" y1="4.49773" x2="20.2581" y2="58.9178" gradientUnits="userSpaceOnUse">
<stop stop-color="#F3CA69"/>
<stop offset="1" stop-color="#965D06"/>
</linearGradient>
<linearGradient id="paint2_linear_9233_6861" x1="30.2814" y1="2.5625" x2="30.2814" y2="57.9837" gradientUnits="userSpaceOnUse">
<stop stop-color="#FBE863"/>
<stop offset="1" stop-color="#EE961D"/>
</linearGradient>
<linearGradient id="paint3_linear_9233_6861" x1="30.2655" y1="7.63281" x2="30.2655" y2="52.9055" gradientUnits="userSpaceOnUse">
<stop stop-color="#FFFFF8"/>
<stop offset="1" stop-color="#FFD841"/>
</linearGradient>
<linearGradient id="paint4_linear_9233_6861" x1="30.2553" y1="16.8353" x2="22.3034" y2="30.6028" gradientUnits="userSpaceOnUse">
<stop stop-color="#D9E8F8"/>
<stop offset="1" stop-color="#9CAEC9"/>
</linearGradient>
<linearGradient id="paint5_linear_9233_6861" x1="30.2553" y1="16.8353" x2="22.3034" y2="30.6028" gradientUnits="userSpaceOnUse">
<stop stop-color="#FBE863"/>
<stop offset="1" stop-color="#EE961D"/>
</linearGradient>
<linearGradient id="paint6_linear_9233_6861" x1="29.9284" y1="30.7005" x2="37.8803" y2="44.4679" gradientUnits="userSpaceOnUse">
<stop stop-color="#D9E8F8"/>
<stop offset="1" stop-color="#9CAEC9"/>
</linearGradient>
<linearGradient id="paint7_linear_9233_6861" x1="30.0319" y1="30.5995" x2="35.9958" y2="40.9251" gradientUnits="userSpaceOnUse">
<stop stop-color="#FBE863"/>
<stop offset="1" stop-color="#EE961D"/>
</linearGradient>
<linearGradient id="paint8_linear_9233_6861" x1="33.7462" y1="28.0717" x2="20.1587" y2="46.3063" gradientUnits="userSpaceOnUse">
<stop stop-color="#D9E8F8"/>
<stop offset="1" stop-color="#9CAEC9"/>
</linearGradient>
<linearGradient id="paint9_linear_9233_6861" x1="31.1191" y1="31.5096" x2="23.6365" y2="41.5513" gradientUnits="userSpaceOnUse">
<stop stop-color="#FBE863"/>
<stop offset="1" stop-color="#EE961D"/>
</linearGradient>
<linearGradient id="paint10_linear_9233_6861" x1="28.0269" y1="33.5866" x2="39.397" y2="13.8929" gradientUnits="userSpaceOnUse">
<stop stop-color="#D9E8F8"/>
<stop offset="1" stop-color="#9CAEC9"/>
</linearGradient>
<linearGradient id="paint11_linear_9233_6861" x1="29.8099" y1="31.1367" x2="36.121" y2="20.2055" gradientUnits="userSpaceOnUse">
<stop stop-color="#FBE863"/>
<stop offset="1" stop-color="#EE961D"/>
</linearGradient>
<linearGradient id="paint12_linear_9233_6861" x1="18.0439" y1="23.5958" x2="25.8837" y2="37.4274" gradientUnits="userSpaceOnUse">
<stop stop-color="#D9E8F8"/>
<stop offset="1" stop-color="#9CAEC9"/>
</linearGradient>
<linearGradient id="paint13_linear_9233_6861" x1="18.4872" y1="23.6129" x2="24.4918" y2="34.2067" gradientUnits="userSpaceOnUse">
<stop stop-color="#FBE863"/>
<stop offset="1" stop-color="#EE961D"/>
</linearGradient>
<linearGradient id="paint14_linear_9233_6861" x1="42.1048" y1="23.5958" x2="34.265" y2="37.4274" gradientUnits="userSpaceOnUse">
<stop stop-color="#D9E8F8"/>
<stop offset="1" stop-color="#9CAEC9"/>
</linearGradient>
<linearGradient id="paint15_linear_9233_6861" x1="41.8547" y1="23.7225" x2="35.9749" y2="34.0961" gradientUnits="userSpaceOnUse">
<stop stop-color="#FBE863"/>
<stop offset="1" stop-color="#EE961D"/>
</linearGradient>
<linearGradient id="paint16_linear_9233_6861" x1="30.3303" y1="21.3984" x2="30.3303" y2="39.703" gradientUnits="userSpaceOnUse">
<stop stop-color="#FCF7D3"/>
<stop offset="1" stop-color="#EB9219"/>
</linearGradient>
</defs>
</svg>
