<svg width="16" height="16" viewBox="0 0 16 16" fill="none" xmlns="http://www.w3.org/2000/svg">
<mask id="mask0_8955_7999" style="mask-type:alpha" maskUnits="userSpaceOnUse" x="0" y="0" width="16" height="16">
<rect width="16" height="16" fill="#D9D9D9"/>
</mask>
<g mask="url(#mask0_8955_7999)">
<path d="M4.66683 9.33333C4.85572 9.33333 5.01405 9.26944 5.14183 9.14167C5.26961 9.01389 5.3335 8.85556 5.3335 8.66667C5.3335 8.47778 5.26961 8.31944 5.14183 8.19167C5.01405 8.06389 4.85572 8 4.66683 8C4.47794 8 4.31961 8.06389 4.19183 8.19167C4.06405 8.31944 4.00016 8.47778 4.00016 8.66667C4.00016 8.85556 4.06405 9.01389 4.19183 9.14167C4.31961 9.26944 4.47794 9.33333 4.66683 9.33333ZM4.66683 6.66667C4.85572 6.66667 5.01405 6.60278 5.14183 6.475C5.26961 6.34722 5.3335 6.18889 5.3335 6C5.3335 5.81111 5.26961 5.65278 5.14183 5.525C5.01405 5.39722 4.85572 5.33333 4.66683 5.33333C4.47794 5.33333 4.31961 5.39722 4.19183 5.525C4.06405 5.65278 4.00016 5.81111 4.00016 6C4.00016 6.18889 4.06405 6.34722 4.19183 6.475C4.31961 6.60278 4.47794 6.66667 4.66683 6.66667ZM6.66683 9.33333H11.3335C11.5224 9.33333 11.6807 9.26944 11.8085 9.14167C11.9363 9.01389 12.0002 8.85556 12.0002 8.66667C12.0002 8.47778 11.9363 8.31944 11.8085 8.19167C11.6807 8.06389 11.5224 8 11.3335 8H6.66683C6.47794 8 6.31961 8.06389 6.19183 8.19167C6.06405 8.31944 6.00016 8.47778 6.00016 8.66667C6.00016 8.85556 6.06405 9.01389 6.19183 9.14167C6.31961 9.26944 6.47794 9.33333 6.66683 9.33333ZM6.66683 6.66667H11.3335C11.5224 6.66667 11.6807 6.60278 11.8085 6.475C11.9363 6.34722 12.0002 6.18889 12.0002 6C12.0002 5.81111 11.9363 5.65278 11.8085 5.525C11.6807 5.39722 11.5224 5.33333 11.3335 5.33333H6.66683C6.47794 5.33333 6.31961 5.39722 6.19183 5.525C6.06405 5.65278 6.00016 5.81111 6.00016 6C6.00016 6.18889 6.06405 6.34722 6.19183 6.475C6.31961 6.60278 6.47794 6.66667 6.66683 6.66667ZM2.66683 12.6667C2.30016 12.6667 1.98627 12.5361 1.72516 12.275C1.46405 12.0139 1.3335 11.7 1.3335 11.3333V3.33333C1.3335 2.96667 1.46405 2.65278 1.72516 2.39167C1.98627 2.13056 2.30016 2 2.66683 2H13.3335C13.7002 2 14.0141 2.13056 14.2752 2.39167C14.5363 2.65278 14.6668 2.96667 14.6668 3.33333V11.3333C14.6668 11.7 14.5363 12.0139 14.2752 12.275C14.0141 12.5361 13.7002 12.6667 13.3335 12.6667H10.6668V13.3333C10.6668 13.5222 10.6029 13.6806 10.4752 13.8083C10.3474 13.9361 10.1891 14 10.0002 14H6.00016C5.81127 14 5.65294 13.9361 5.52516 13.8083C5.39738 13.6806 5.3335 13.5222 5.3335 13.3333V12.6667H2.66683Z" fill="url(#paint0_linear_8955_7999)"/>
<path d="M4.66683 9.33333C4.85572 9.33333 5.01405 9.26944 5.14183 9.14167C5.26961 9.01389 5.3335 8.85556 5.3335 8.66667C5.3335 8.47778 5.26961 8.31944 5.14183 8.19167C5.01405 8.06389 4.85572 8 4.66683 8C4.47794 8 4.31961 8.06389 4.19183 8.19167C4.06405 8.31944 4.00016 8.47778 4.00016 8.66667C4.00016 8.85556 4.06405 9.01389 4.19183 9.14167C4.31961 9.26944 4.47794 9.33333 4.66683 9.33333ZM4.66683 6.66667C4.85572 6.66667 5.01405 6.60278 5.14183 6.475C5.26961 6.34722 5.3335 6.18889 5.3335 6C5.3335 5.81111 5.26961 5.65278 5.14183 5.525C5.01405 5.39722 4.85572 5.33333 4.66683 5.33333C4.47794 5.33333 4.31961 5.39722 4.19183 5.525C4.06405 5.65278 4.00016 5.81111 4.00016 6C4.00016 6.18889 4.06405 6.34722 4.19183 6.475C4.31961 6.60278 4.47794 6.66667 4.66683 6.66667ZM6.66683 9.33333H11.3335C11.5224 9.33333 11.6807 9.26944 11.8085 9.14167C11.9363 9.01389 12.0002 8.85556 12.0002 8.66667C12.0002 8.47778 11.9363 8.31944 11.8085 8.19167C11.6807 8.06389 11.5224 8 11.3335 8H6.66683C6.47794 8 6.31961 8.06389 6.19183 8.19167C6.06405 8.31944 6.00016 8.47778 6.00016 8.66667C6.00016 8.85556 6.06405 9.01389 6.19183 9.14167C6.31961 9.26944 6.47794 9.33333 6.66683 9.33333ZM6.66683 6.66667H11.3335C11.5224 6.66667 11.6807 6.60278 11.8085 6.475C11.9363 6.34722 12.0002 6.18889 12.0002 6C12.0002 5.81111 11.9363 5.65278 11.8085 5.525C11.6807 5.39722 11.5224 5.33333 11.3335 5.33333H6.66683C6.47794 5.33333 6.31961 5.39722 6.19183 5.525C6.06405 5.65278 6.00016 5.81111 6.00016 6C6.00016 6.18889 6.06405 6.34722 6.19183 6.475C6.31961 6.60278 6.47794 6.66667 6.66683 6.66667ZM2.66683 12.6667C2.30016 12.6667 1.98627 12.5361 1.72516 12.275C1.46405 12.0139 1.3335 11.7 1.3335 11.3333V3.33333C1.3335 2.96667 1.46405 2.65278 1.72516 2.39167C1.98627 2.13056 2.30016 2 2.66683 2H13.3335C13.7002 2 14.0141 2.13056 14.2752 2.39167C14.5363 2.65278 14.6668 2.96667 14.6668 3.33333V11.3333C14.6668 11.7 14.5363 12.0139 14.2752 12.275C14.0141 12.5361 13.7002 12.6667 13.3335 12.6667H10.6668V13.3333C10.6668 13.5222 10.6029 13.6806 10.4752 13.8083C10.3474 13.9361 10.1891 14 10.0002 14H6.00016C5.81127 14 5.65294 13.9361 5.52516 13.8083C5.39738 13.6806 5.3335 13.5222 5.3335 13.3333V12.6667H2.66683Z" fill="url(#paint1_linear_8955_7999)"/>
</g>
<defs>
<linearGradient id="paint0_linear_8955_7999" x1="17.133" y1="15.0739" x2="2.18088" y2="-3.26125" gradientUnits="userSpaceOnUse">
<stop stop-color="#9D32D8"/>
<stop offset="0.358251" stop-color="#6C4EE2"/>
<stop offset="0.71875" stop-color="#5247D0"/>
<stop offset="1" stop-color="#2F5FD5"/>
</linearGradient>
<linearGradient id="paint1_linear_8955_7999" x1="-4.78142" y1="17.1474" x2="14.6955" y2="8.76146" gradientUnits="userSpaceOnUse">
<stop offset="0.08" stop-color="#C7FFCF"/>
<stop offset="0.63" stop-color="#04A87F"/>
</linearGradient>
</defs>
</svg>
