<svg width="20" height="20" viewBox="0 0 20 20" fill="none" xmlns="http://www.w3.org/2000/svg">
<mask id="mask0_8947_13422" style="mask-type:alpha" maskUnits="userSpaceOnUse" x="0" y="0" width="20" height="20">
<rect width="20" height="20" fill="#D9D9D9"/>
</mask>
<g mask="url(#mask0_8947_13422)">
<path d="M5.83366 11.6667C6.06977 11.6667 6.26769 11.5868 6.42741 11.4271C6.58713 11.2674 6.66699 11.0694 6.66699 10.8333C6.66699 10.5972 6.58713 10.3993 6.42741 10.2396C6.26769 10.0799 6.06977 10 5.83366 10C5.59755 10 5.39963 10.0799 5.23991 10.2396C5.08019 10.3993 5.00032 10.5972 5.00032 10.8333C5.00032 11.0694 5.08019 11.2674 5.23991 11.4271C5.39963 11.5868 5.59755 11.6667 5.83366 11.6667ZM5.83366 8.33333C6.06977 8.33333 6.26769 8.25347 6.42741 8.09375C6.58713 7.93403 6.66699 7.73611 6.66699 7.5C6.66699 7.26389 6.58713 7.06597 6.42741 6.90625C6.26769 6.74653 6.06977 6.66667 5.83366 6.66667C5.59755 6.66667 5.39963 6.74653 5.23991 6.90625C5.08019 7.06597 5.00032 7.26389 5.00032 7.5C5.00032 7.73611 5.08019 7.93403 5.23991 8.09375C5.39963 8.25347 5.59755 8.33333 5.83366 8.33333ZM8.33366 11.6667H14.167C14.4031 11.6667 14.601 11.5868 14.7607 11.4271C14.9205 11.2674 15.0003 11.0694 15.0003 10.8333C15.0003 10.5972 14.9205 10.3993 14.7607 10.2396C14.601 10.0799 14.4031 10 14.167 10H8.33366C8.09755 10 7.89963 10.0799 7.73991 10.2396C7.58019 10.3993 7.50032 10.5972 7.50032 10.8333C7.50032 11.0694 7.58019 11.2674 7.73991 11.4271C7.89963 11.5868 8.09755 11.6667 8.33366 11.6667ZM8.33366 8.33333H14.167C14.4031 8.33333 14.601 8.25347 14.7607 8.09375C14.9205 7.93403 15.0003 7.73611 15.0003 7.5C15.0003 7.26389 14.9205 7.06597 14.7607 6.90625C14.601 6.74653 14.4031 6.66667 14.167 6.66667H8.33366C8.09755 6.66667 7.89963 6.74653 7.73991 6.90625C7.58019 7.06597 7.50032 7.26389 7.50032 7.5C7.50032 7.73611 7.58019 7.93403 7.73991 8.09375C7.89963 8.25347 8.09755 8.33333 8.33366 8.33333ZM3.33366 15.8333C2.87533 15.8333 2.48296 15.6701 2.15658 15.3438C1.83019 15.0174 1.66699 14.625 1.66699 14.1667V4.16667C1.66699 3.70833 1.83019 3.31597 2.15658 2.98958C2.48296 2.66319 2.87533 2.5 3.33366 2.5H16.667C17.1253 2.5 17.5177 2.66319 17.8441 2.98958C18.1705 3.31597 18.3337 3.70833 18.3337 4.16667V14.1667C18.3337 14.625 18.1705 15.0174 17.8441 15.3438C17.5177 15.6701 17.1253 15.8333 16.667 15.8333H13.3337V16.6667C13.3337 16.9028 13.2538 17.1007 13.0941 17.2604C12.9344 17.4201 12.7364 17.5 12.5003 17.5H7.50032C7.26421 17.5 7.0663 17.4201 6.90657 17.2604C6.74685 17.1007 6.66699 16.9028 6.66699 16.6667V15.8333H3.33366Z" fill="url(#paint0_linear_8947_13422)"/>
</g>
<defs>
<linearGradient id="paint0_linear_8947_13422" x1="15.2076" y1="1.03974" x2="0.673353" y2="2.82737" gradientUnits="userSpaceOnUse">
<stop stop-color="#F0BA2E"/>
<stop offset="1" stop-color="#F0A22E"/>
</linearGradient>
</defs>
</svg>
