<svg width="20" height="20" viewBox="0 0 20 20" fill="none" xmlns="http://www.w3.org/2000/svg">
<mask id="mask0_8947_13416" style="mask-type:alpha" maskUnits="userSpaceOnUse" x="0" y="0" width="20" height="20">
<rect width="20" height="20" fill="#D9D9D9"/>
</mask>
<g mask="url(#mask0_8947_13416)">
<path d="M15.8337 15.8438H14.167C13.9309 15.8438 13.733 15.7639 13.5732 15.6042C13.4135 15.4444 13.3337 15.2465 13.3337 15.0104C13.3337 14.7743 13.4135 14.5764 13.5732 14.4167C13.733 14.2569 13.9309 14.1771 14.167 14.1771H15.8337V12.5104C15.8337 12.2743 15.9135 12.0764 16.0732 11.9167C16.233 11.7569 16.4309 11.6771 16.667 11.6771C16.9031 11.6771 17.101 11.7569 17.2607 11.9167C17.4205 12.0764 17.5003 12.2743 17.5003 12.5104V14.1771H19.167C19.4031 14.1771 19.601 14.2569 19.7607 14.4167C19.9205 14.5764 20.0003 14.7743 20.0003 15.0104C20.0003 15.2465 19.9205 15.4444 19.7607 15.6042C19.601 15.7639 19.4031 15.8438 19.167 15.8438H17.5003V17.5104C17.5003 17.7465 17.4205 17.9444 17.2607 18.1042C17.101 18.2639 16.9031 18.3438 16.667 18.3438C16.4309 18.3438 16.233 18.2639 16.0732 18.1042C15.9135 17.9444 15.8337 17.7465 15.8337 17.5104V15.8438ZM3.33366 10.0104H16.667V6.67708H3.33366V10.0104ZM3.33366 16.6771C2.87533 16.6771 2.48296 16.5139 2.15658 16.1875C1.83019 15.8611 1.66699 15.4688 1.66699 15.0104V5.01042C1.66699 4.55208 1.83019 4.15972 2.15658 3.83333C2.48296 3.50694 2.87533 3.34375 3.33366 3.34375H16.667C17.1253 3.34375 17.5177 3.50694 17.8441 3.83333C18.1705 4.15972 18.3337 4.55208 18.3337 5.01042V9.17708C18.3337 9.41319 18.2538 9.61111 18.0941 9.77083C17.9344 9.93056 17.7364 10.0104 17.5003 10.0104H15.8337C14.6809 10.0104 13.6982 10.4167 12.8857 11.2292C12.0732 12.0417 11.667 13.0243 11.667 14.1771V15.8438C11.667 16.0799 11.5871 16.2778 11.4274 16.4375C11.2677 16.5972 11.0698 16.6771 10.8337 16.6771H3.33366Z" fill="white"/>
</g>
</svg>
