<svg width="32" height="32" viewBox="0 0 32 32" fill="none" xmlns="http://www.w3.org/2000/svg">
<path d="M9.0718 4C13.359 1.52479 18.641 1.52479 22.9282 4C27.2154 6.47521 29.8564 11.0496 29.8564 16C29.8564 20.9504 27.2154 25.5248 22.9282 28C18.641 30.4752 13.359 30.4752 9.0718 28C4.78461 25.5248 2.14359 20.9504 2.14359 16C2.14359 11.0496 4.78461 6.47521 9.0718 4Z" fill="url(#paint0_linear_9033_6835)"/>
<path d="M9.0718 4C13.359 1.52479 18.641 1.52479 22.9282 4C27.2154 6.47521 29.8564 11.0496 29.8564 16C29.8564 20.9504 27.2154 25.5248 22.9282 28C18.641 30.4752 13.359 30.4752 9.0718 28C4.78461 25.5248 2.14359 20.9504 2.14359 16C2.14359 11.0496 4.78461 6.47521 9.0718 4Z" fill="url(#paint1_linear_9033_6835)"/>
<path d="M9.75034 5.06193C13.7104 2.77562 18.5893 2.77562 22.5493 5.06193V5.06193C26.5093 7.34825 28.9488 11.5735 28.9488 16.1462V16.1462C28.9488 20.7188 26.5093 24.9441 22.5493 27.2304V27.2304C18.5893 29.5167 13.7104 29.5167 9.75034 27.2304V27.2304C5.79033 24.9441 3.35086 20.7188 3.35086 16.1462V16.1462C3.35086 11.5735 5.79033 7.34825 9.75034 5.06193V5.06193Z" fill="url(#paint2_linear_9033_6835)"/>
<path d="M9.75034 5.06193C13.7104 2.77562 18.5893 2.77562 22.5493 5.06193V5.06193C26.5093 7.34825 28.9488 11.5735 28.9488 16.1462V16.1462C28.9488 20.7188 26.5093 24.9441 22.5493 27.2304V27.2304C18.5893 29.5167 13.7104 29.5167 9.75034 27.2304V27.2304C5.79033 24.9441 3.35086 20.7188 3.35086 16.1462V16.1462C3.35086 11.5735 5.79033 7.34825 9.75034 5.06193V5.06193Z" fill="url(#paint3_linear_9033_6835)"/>
<path d="M10.9142 7.08849C14.1491 5.22084 18.1346 5.22084 21.3695 7.08849C24.6043 8.95615 26.5971 12.4077 26.5971 16.143C26.5971 19.8784 24.6043 23.3299 21.3695 25.1976C18.1346 27.0652 14.1491 27.0652 10.9142 25.1976C7.6793 23.3299 5.68653 19.8784 5.68653 16.143C5.68653 12.4077 7.6793 8.95615 10.9142 7.08849Z" fill="white"/>
<path d="M10.9142 7.08849C14.1491 5.22084 18.1346 5.22084 21.3695 7.08849C24.6043 8.95615 26.5971 12.4077 26.5971 16.143C26.5971 19.8784 24.6043 23.3299 21.3695 25.1976C18.1346 27.0652 14.1491 27.0652 10.9142 25.1976C7.6793 23.3299 5.68653 19.8784 5.68653 16.143C5.68653 12.4077 7.6793 8.95615 10.9142 7.08849Z" fill="url(#paint4_linear_9033_6835)"/>
<path d="M16.1364 8.97988L16.1351 16.3233L9.7762 12.6504L16.1364 8.97988Z" fill="url(#paint5_linear_9033_6835)"/>
<path d="M16.1364 8.97988L16.1351 16.3233L9.7762 12.6504L16.1364 8.97988Z" fill="url(#paint6_linear_9033_6835)"/>
<path d="M16.1364 8.97988L16.1351 16.3233L9.7762 12.6504L16.1364 8.97988Z" fill="url(#paint7_linear_9033_6835)"/>
<path d="M16.1364 8.97988L16.1351 16.3233L9.7762 12.6504L16.1364 8.97988Z" fill="url(#paint8_linear_9033_6835)"/>
<path d="M22.3226 12.6504L15.9924 16.3725L22.3809 19.9936L22.3226 12.6504Z" fill="url(#paint9_linear_9033_6835)"/>
<path d="M22.3226 12.6504L15.9924 16.3725L22.3809 19.9936L22.3226 12.6504Z" fill="url(#paint10_linear_9033_6835)"/>
<path d="M22.3226 12.6504L15.9924 16.3725L22.3809 19.9936L22.3226 12.6504Z" fill="url(#paint11_linear_9033_6835)"/>
<path d="M16.0171 16.3208L16.0184 23.6642L22.3773 19.9914L16.0171 16.3208Z" fill="url(#paint12_linear_9033_6835)"/>
<path d="M16.0171 16.3208L16.0184 23.6642L22.3773 19.9914L16.0171 16.3208Z" fill="url(#paint13_linear_9033_6835)"/>
<path d="M16.0171 16.3208L16.0184 23.6642L22.3773 19.9914L16.0171 16.3208Z" fill="url(#paint14_linear_9033_6835)"/>
<path d="M16.0925 16.4308L9.69431 19.9924L16.0128 23.6686L16.0925 16.4308Z" fill="url(#paint15_linear_9033_6835)"/>
<path d="M16.0925 16.4308L9.69431 19.9924L16.0128 23.6686L16.0925 16.4308Z" fill="url(#paint16_linear_9033_6835)"/>
<path d="M16.0925 16.4308L9.69431 19.9924L16.0128 23.6686L16.0925 16.4308Z" fill="url(#paint17_linear_9033_6835)"/>
<path d="M16.0925 16.4308L9.69431 19.9924L16.0128 23.6686L16.0925 16.4308Z" fill="url(#paint18_linear_9033_6835)"/>
<path d="M15.9936 16.6615L22.3496 12.642L16.1435 8.97474L15.9936 16.6615Z" fill="url(#paint19_linear_9033_6835)"/>
<path d="M15.9936 16.6615L22.3496 12.642L16.1435 8.97474L15.9936 16.6615Z" fill="url(#paint20_linear_9033_6835)"/>
<path d="M15.9936 16.6615L22.3496 12.642L16.1435 8.97474L15.9936 16.6615Z" fill="url(#paint21_linear_9033_6835)"/>
<path d="M15.9936 16.6615L22.3496 12.642L16.1435 8.97474L15.9936 16.6615Z" fill="url(#paint22_linear_9033_6835)"/>
<path d="M22.3226 12.6504L15.9924 16.3725L22.3809 19.9936L22.3226 12.6504Z" fill="url(#paint23_linear_9033_6835)"/>
<path d="M22.3226 12.6504L15.9924 16.3725L22.3809 19.9936L22.3226 12.6504Z" fill="url(#paint24_linear_9033_6835)"/>
<path d="M22.3226 12.6504L15.9924 16.3725L22.3809 19.9936L22.3226 12.6504Z" fill="url(#paint25_linear_9033_6835)"/>
<path d="M9.75677 12.6504L16.3596 16.3731L9.69842 19.9936L9.75677 12.6504Z" fill="url(#paint26_linear_9033_6835)"/>
<path d="M9.75677 12.6504L16.3596 16.3731L9.69842 19.9936L9.75677 12.6504Z" fill="url(#paint27_linear_9033_6835)"/>
<path d="M9.75677 12.6504L16.3596 16.3731L9.69842 19.9936L9.75677 12.6504Z" fill="url(#paint28_linear_9033_6835)"/>
<path d="M9.75677 12.6504L16.3596 16.3731L9.69842 19.9936L9.75677 12.6504Z" fill="url(#paint29_linear_9033_6835)"/>
<path d="M22.3226 12.6504L15.9924 16.3725L22.3809 19.9936L22.3226 12.6504Z" fill="url(#paint30_linear_9033_6835)"/>
<path d="M22.3226 12.6504L15.9924 16.3725L22.3809 19.9936L22.3226 12.6504Z" fill="url(#paint31_linear_9033_6835)"/>
<path d="M22.3226 12.6504L15.9924 16.3725L22.3809 19.9936L22.3226 12.6504Z" fill="url(#paint32_linear_9033_6835)"/>
<path d="M14.9259 12.7131C15.6994 12.2665 16.6524 12.2665 17.4259 12.7131L18.6532 13.4217C19.4267 13.8682 19.9032 14.6936 19.9032 15.5867V17.0038C19.9032 17.897 19.4267 18.7223 18.6532 19.1689L17.4259 19.8775C16.6524 20.324 15.6994 20.324 14.9259 19.8775L13.6986 19.1689C12.9251 18.7223 12.4486 17.897 12.4486 17.0038V15.5867C12.4486 14.6936 12.9251 13.8682 13.6986 13.4217L14.9259 12.7131Z" fill="url(#paint33_linear_9033_6835)"/>
<path d="M14.9259 12.7131C15.6994 12.2665 16.6524 12.2665 17.4259 12.7131L18.6532 13.4217C19.4267 13.8682 19.9032 14.6936 19.9032 15.5867V17.0038C19.9032 17.897 19.4267 18.7223 18.6532 19.1689L17.4259 19.8775C16.6524 20.324 15.6994 20.324 14.9259 19.8775L13.6986 19.1689C12.9251 18.7223 12.4486 17.897 12.4486 17.0038V15.5867C12.4486 14.6936 12.9251 13.8682 13.6986 13.4217L14.9259 12.7131Z" fill="url(#paint34_linear_9033_6835)"/>
<path d="M14.9259 12.7131C15.6994 12.2665 16.6524 12.2665 17.4259 12.7131L18.6532 13.4217C19.4267 13.8682 19.9032 14.6936 19.9032 15.5867V17.0038C19.9032 17.897 19.4267 18.7223 18.6532 19.1689L17.4259 19.8775C16.6524 20.324 15.6994 20.324 14.9259 19.8775L13.6986 19.1689C12.9251 18.7223 12.4486 17.897 12.4486 17.0038V15.5867C12.4486 14.6936 12.9251 13.8682 13.6986 13.4217L14.9259 12.7131Z" fill="url(#paint35_linear_9033_6835)"/>
<path d="M14.9259 12.7131C15.6994 12.2665 16.6524 12.2665 17.4259 12.7131L18.6532 13.4217C19.4267 13.8682 19.9032 14.6936 19.9032 15.5867V17.0038C19.9032 17.897 19.4267 18.7223 18.6532 19.1689L17.4259 19.8775C16.6524 20.324 15.6994 20.324 14.9259 19.8775L13.6986 19.1689C12.9251 18.7223 12.4486 17.897 12.4486 17.0038V15.5867C12.4486 14.6936 12.9251 13.8682 13.6986 13.4217L14.9259 12.7131Z" stroke="#296F96"/>
<defs>
<linearGradient id="paint0_linear_9033_6835" x1="16" y1="0" x2="16" y2="32" gradientUnits="userSpaceOnUse">
<stop stop-color="#303D50"/>
<stop offset="1" stop-color="#303D50"/>
</linearGradient>
<linearGradient id="paint1_linear_9033_6835" x1="4.44714" y1="2.39879" x2="10.8043" y2="31.4228" gradientUnits="userSpaceOnUse">
<stop stop-color="#CCDDFF"/>
<stop offset="1" stop-color="#4EA7D2"/>
</linearGradient>
<linearGradient id="paint2_linear_9033_6835" x1="16.1498" y1="1.36719" x2="16.1498" y2="30.9251" gradientUnits="userSpaceOnUse">
<stop stop-color="#F4F7FD"/>
<stop offset="1" stop-color="#A3B2CF"/>
</linearGradient>
<linearGradient id="paint3_linear_9033_6835" x1="84.7647" y1="61.1921" x2="21.2034" y2="79.1809" gradientUnits="userSpaceOnUse">
<stop stop-color="#1BB157"/>
<stop offset="1" stop-color="#51A7D8"/>
</linearGradient>
<linearGradient id="paint4_linear_9033_6835" x1="16.1419" y1="4.07035" x2="29.4019" y2="16.0977" gradientUnits="userSpaceOnUse">
<stop stop-color="#79F9AC"/>
<stop offset="1" stop-color="#35C6F3"/>
</linearGradient>
<linearGradient id="paint5_linear_9033_6835" x1="16.1364" y1="8.97988" x2="11.8954" y2="16.3225" gradientUnits="userSpaceOnUse">
<stop stop-color="#D9E8F8"/>
<stop offset="1" stop-color="#9CAEC9"/>
</linearGradient>
<linearGradient id="paint6_linear_9033_6835" x1="19.9995" y1="12.9338" x2="18.6357" y2="17.8836" gradientUnits="userSpaceOnUse">
<stop stop-color="#7EFFB2"/>
<stop offset="1" stop-color="#82D2FF"/>
</linearGradient>
<linearGradient id="paint7_linear_9033_6835" x1="16.0198" y1="21.0038" x2="6.62568" y2="15.4847" gradientUnits="userSpaceOnUse">
<stop stop-color="#79F9AC"/>
<stop offset="1" stop-color="#35C6F3"/>
</linearGradient>
<linearGradient id="paint8_linear_9033_6835" x1="16.0198" y1="21.0038" x2="6.62568" y2="15.4847" gradientUnits="userSpaceOnUse">
<stop stop-color="#79F9AC"/>
<stop offset="1" stop-color="#279CC0"/>
</linearGradient>
<linearGradient id="paint9_linear_9033_6835" x1="22.4559" y1="12.5829" x2="18.2747" y2="19.9597" gradientUnits="userSpaceOnUse">
<stop stop-color="#D9E8F8"/>
<stop offset="1" stop-color="#9CAEC9"/>
</linearGradient>
<linearGradient id="paint10_linear_9033_6835" x1="17.7607" y1="11.3507" x2="15.1501" y2="14.2234" gradientUnits="userSpaceOnUse">
<stop stop-color="#7EFFB2"/>
<stop offset="1" stop-color="#82D2FF"/>
</linearGradient>
<linearGradient id="paint11_linear_9033_6835" x1="13.9956" y1="16.957" x2="22.2437" y2="21.5394" gradientUnits="userSpaceOnUse">
<stop stop-color="#79F9AC"/>
<stop offset="1" stop-color="#279CC0"/>
</linearGradient>
<linearGradient id="paint12_linear_9033_6835" x1="15.9619" y1="16.3746" x2="20.2029" y2="23.7173" gradientUnits="userSpaceOnUse">
<stop stop-color="#D9E8F8"/>
<stop offset="1" stop-color="#9CAEC9"/>
</linearGradient>
<linearGradient id="paint13_linear_9033_6835" x1="12.585" y1="19.5951" x2="13.7388" y2="23.3013" gradientUnits="userSpaceOnUse">
<stop stop-color="#7EFFB2"/>
<stop offset="1" stop-color="#82D2FF"/>
</linearGradient>
<linearGradient id="paint14_linear_9033_6835" x1="15.5105" y1="25.6818" x2="23.6405" y2="20.8929" gradientUnits="userSpaceOnUse">
<stop stop-color="#79F9AC"/>
<stop offset="1" stop-color="#279CC0"/>
</linearGradient>
<linearGradient id="paint15_linear_9033_6835" x1="17.9981" y1="14.9731" x2="10.7515" y2="24.6983" gradientUnits="userSpaceOnUse">
<stop stop-color="#D9E8F8"/>
<stop offset="1" stop-color="#9CAEC9"/>
</linearGradient>
<linearGradient id="paint16_linear_9033_6835" x1="12.2391" y1="15.0246" x2="9.11822" y2="17.6279" gradientUnits="userSpaceOnUse">
<stop stop-color="#7EFFB2"/>
<stop offset="1" stop-color="#82D2FF"/>
</linearGradient>
<linearGradient id="paint17_linear_9033_6835" x1="7.6082" y1="20.3935" x2="15.1362" y2="25.9093" gradientUnits="userSpaceOnUse">
<stop stop-color="#79F9AC"/>
<stop offset="1" stop-color="#35C6F3"/>
</linearGradient>
<linearGradient id="paint18_linear_9033_6835" x1="7.6082" y1="20.3935" x2="15.1362" y2="25.9093" gradientUnits="userSpaceOnUse">
<stop stop-color="#79F9AC"/>
<stop offset="1" stop-color="#279CC0"/>
</linearGradient>
<linearGradient id="paint19_linear_9033_6835" x1="14.9479" y1="17.9134" x2="21.012" y2="7.41008" gradientUnits="userSpaceOnUse">
<stop stop-color="#D9E8F8"/>
<stop offset="1" stop-color="#9CAEC9"/>
</linearGradient>
<linearGradient id="paint20_linear_9033_6835" x1="20.4096" y1="17.8436" x2="23.2361" y2="14.8835" gradientUnits="userSpaceOnUse">
<stop stop-color="#7EFFB2"/>
<stop offset="1" stop-color="#82D2FF"/>
</linearGradient>
<linearGradient id="paint21_linear_9033_6835" x1="24.408" y1="11.9212" x2="16.3505" y2="7.35393" gradientUnits="userSpaceOnUse">
<stop stop-color="#79F9AC"/>
<stop offset="1" stop-color="#35C6F3"/>
</linearGradient>
<linearGradient id="paint22_linear_9033_6835" x1="24.408" y1="11.9212" x2="16.3505" y2="7.35393" gradientUnits="userSpaceOnUse">
<stop stop-color="#79F9AC"/>
<stop offset="1" stop-color="#279CC0"/>
</linearGradient>
<linearGradient id="paint23_linear_9033_6835" x1="22.4559" y1="12.5829" x2="18.2747" y2="19.9597" gradientUnits="userSpaceOnUse">
<stop stop-color="#D9E8F8"/>
<stop offset="1" stop-color="#9CAEC9"/>
</linearGradient>
<linearGradient id="paint24_linear_9033_6835" x1="17.7607" y1="11.3507" x2="15.1501" y2="14.2234" gradientUnits="userSpaceOnUse">
<stop stop-color="#7EFFB2"/>
<stop offset="1" stop-color="#82D2FF"/>
</linearGradient>
<linearGradient id="paint25_linear_9033_6835" x1="13.9956" y1="16.957" x2="22.2437" y2="21.5394" gradientUnits="userSpaceOnUse">
<stop stop-color="#79F9AC"/>
<stop offset="1" stop-color="#279CC0"/>
</linearGradient>
<linearGradient id="paint26_linear_9033_6835" x1="9.62342" y1="12.5829" x2="13.8046" y2="19.9597" gradientUnits="userSpaceOnUse">
<stop stop-color="#D9E8F8"/>
<stop offset="1" stop-color="#9CAEC9"/>
</linearGradient>
<linearGradient id="paint27_linear_9033_6835" x1="14.5629" y1="11.2396" x2="17.2234" y2="14.1809" gradientUnits="userSpaceOnUse">
<stop stop-color="#7EFFB2"/>
<stop offset="1" stop-color="#82D2FF"/>
</linearGradient>
<linearGradient id="paint28_linear_9033_6835" x1="18.4127" y1="16.9621" x2="9.89803" y2="21.6916" gradientUnits="userSpaceOnUse">
<stop stop-color="#79F9AC"/>
<stop offset="1" stop-color="#35C6F3"/>
</linearGradient>
<linearGradient id="paint29_linear_9033_6835" x1="18.4127" y1="16.9621" x2="9.89803" y2="21.6916" gradientUnits="userSpaceOnUse">
<stop stop-color="#79F9AC"/>
<stop offset="1" stop-color="#279CC0"/>
</linearGradient>
<linearGradient id="paint30_linear_9033_6835" x1="22.4559" y1="12.5829" x2="18.2747" y2="19.9597" gradientUnits="userSpaceOnUse">
<stop stop-color="#D9E8F8"/>
<stop offset="1" stop-color="#9CAEC9"/>
</linearGradient>
<linearGradient id="paint31_linear_9033_6835" x1="17.7607" y1="11.3507" x2="15.1501" y2="14.2234" gradientUnits="userSpaceOnUse">
<stop stop-color="#7EFFB2"/>
<stop offset="1" stop-color="#82D2FF"/>
</linearGradient>
<linearGradient id="paint32_linear_9033_6835" x1="13.9956" y1="16.957" x2="22.2437" y2="21.5394" gradientUnits="userSpaceOnUse">
<stop stop-color="#79F9AC"/>
<stop offset="1" stop-color="#279CC0"/>
</linearGradient>
<linearGradient id="paint33_linear_9033_6835" x1="16.1759" y1="11.4141" x2="16.1759" y2="21.1765" gradientUnits="userSpaceOnUse">
<stop stop-color="#EFF5F9"/>
<stop offset="1" stop-color="#AABAD4"/>
</linearGradient>
<linearGradient id="paint34_linear_9033_6835" x1="22.9834" y1="23.4686" x2="10.4398" y2="23.3757" gradientUnits="userSpaceOnUse">
<stop stop-color="#79F9AC"/>
<stop offset="1" stop-color="#279CC0"/>
</linearGradient>
<linearGradient id="paint35_linear_9033_6835" x1="16.1759" y1="11.4141" x2="21.5372" y2="16.2769" gradientUnits="userSpaceOnUse">
<stop stop-color="#79F9AC"/>
<stop offset="1" stop-color="#35C6F3"/>
</linearGradient>
</defs>
</svg>
