<svg width="204" height="49" viewBox="0 0 204 49" fill="none" xmlns="http://www.w3.org/2000/svg">
<path d="M56.4939 24.7924C56.4939 38.1079 35.5538 48.8956 9.71032 48.8956C6.38146 48.8956 3.13548 48.716 0 48.3845H0.372942C24.6142 48.3845 44.2696 37.8316 44.2696 24.8063C44.2696 11.7809 24.628 1.21419 0.372942 1.21419H0.0552507C3.1631 0.88269 6.39527 0.703125 9.71032 0.703125C35.5538 0.703125 56.4939 11.4908 56.4939 24.7924Z" fill="url(#paint0_linear_9250_6917)"/>
<path d="M38.5625 24.7892C38.5625 32.69 27.4294 39.4997 11.3929 42.6075C8.35413 43.2015 5.13578 43.6573 1.7793 43.9612C15.1914 40.3699 24.3492 33.132 24.3492 24.7892C24.3492 16.4463 15.1776 9.20848 1.7793 5.61719C5.13578 5.92107 8.34032 6.37688 11.3791 6.97083C27.4294 10.0787 38.5625 16.8883 38.5625 24.7892Z" fill="url(#paint1_linear_9250_6917)"/>
<path d="M94.5628 6.90625H86.5256C83.8828 6.90625 81.4692 7.98028 79.7194 9.73011C77.9816 11.4799 76.8955 13.8814 76.8955 16.5243C76.8955 21.822 81.2278 26.1544 86.5256 26.1544H94.5628C96.3005 26.1544 97.9297 25.6837 99.3416 24.8631L96.6626 22.172C95.8419 22.5702 94.9127 22.7995 93.9473 22.7995H87.1411C83.7017 22.7995 80.8779 19.9757 80.8779 16.5243C80.8779 14.7986 81.5778 13.2298 82.7122 12.0954C83.8586 10.961 85.4274 10.249 87.1411 10.249H93.9473C97.3866 10.249 100.21 13.0729 100.21 16.5243C100.21 17.6707 99.8967 18.7448 99.3416 19.674L102.129 22.4616C103.421 20.8204 104.193 18.7568 104.193 16.5243C104.193 11.2386 99.8605 6.90625 94.5628 6.90625Z" fill="#FFB70F" stroke="#FFBC1E" stroke-width="1.28134"/>
<path d="M128.16 7.34375V19.1099C128.16 20.9683 126.652 22.4888 124.781 22.4888H116.249C114.391 22.4888 112.87 20.9804 112.87 19.1099V7.34375H109.214V20.6545C109.214 23.6835 111.676 26.1454 114.705 26.1454H126.326C129.355 26.1454 131.817 23.6835 131.817 20.6545V7.34375H128.16Z" fill="#FFB70F" stroke="#FFBC1E" stroke-width="1.28134"/>
<path d="M168.718 22.8026H154.527C152.668 22.8026 151.148 21.2941 151.148 19.4236V14.3793C151.148 12.5208 152.656 11.0003 154.527 11.0003H168.718V7.34375H154.092C150.448 7.34375 147.491 10.3004 147.491 13.9448V20.4735C147.491 23.7801 150.17 26.4591 153.477 26.4591H168.706V22.8026H168.718Z" fill="#FFB70F" stroke="#FFBC1E" stroke-width="1.28134"/>
<path d="M138.079 26.1797H141.735V7.35392H138.079V26.1797Z" fill="#FFB70F" stroke="#FFBC1E" stroke-width="1.28134"/>
<path d="M173.182 26.4688H176.839V7.35336H173.182V26.4688Z" fill="#FFB70F" stroke="#FFBC1E" stroke-width="1.28134"/>
<path d="M200.203 26.4648H192.89L176.731 17.1484H184.045L200.203 26.4648Z" fill="#FFB70F" stroke="#FFBC1E" stroke-width="1.28134"/>
<path d="M201 7.35938L184.045 17.1464H176.731L193.687 7.35938H201Z" fill="#FFB70F" stroke="#FFBC1E" stroke-width="1.28134"/>
<path d="M108.179 36.6367C108.179 36.2068 108.103 35.8527 107.964 35.5745C107.825 35.3089 107.636 35.0939 107.395 34.9422C107.155 34.7904 106.902 34.6893 106.611 34.6387C106.333 34.5881 106.042 34.5628 105.751 34.5628H98.8342C98.5813 34.5628 98.3031 34.6008 98.0122 34.6766C97.7214 34.7525 97.4305 34.879 97.165 35.056C96.8994 35.233 96.6718 35.4607 96.4694 35.7389C96.2671 36.0171 96.1407 36.3585 96.0774 36.7505V43.7562H94.4082V32.9062H96.0774L95.913 35.0181H96.1533C96.3936 34.3731 96.8235 33.8547 97.4432 33.4753C98.0628 33.0959 98.8342 32.9062 99.7826 32.9062H106.384C106.978 32.9062 107.471 32.9821 107.863 33.1212C108.255 33.2603 108.584 33.45 108.837 33.6523C109.09 33.8673 109.267 34.0949 109.368 34.3352C109.482 34.5881 109.532 34.8031 109.532 35.0181H109.773C109.773 34.8157 109.836 34.5881 109.95 34.3352C110.076 34.0823 110.266 33.8547 110.531 33.6523C110.797 33.4374 111.138 33.2603 111.543 33.1212C111.948 32.9821 112.454 32.9062 113.023 32.9062H118.157C118.726 32.9062 119.257 33.0074 119.737 33.2224C120.231 33.4374 120.648 33.7282 121.027 34.0949C121.394 34.4617 121.685 34.8916 121.9 35.3848C122.115 35.878 122.216 36.3964 122.216 36.9655V43.7689H120.547V37.5093C120.547 36.6367 120.281 35.9412 119.763 35.3974C119.232 34.8537 118.523 34.5881 117.613 34.5881H112.213C111.986 34.5881 111.745 34.6008 111.492 34.6387C111.24 34.6766 110.999 34.7525 110.772 34.8663C110.544 34.9801 110.342 35.1445 110.19 35.3469C110.026 35.5492 109.924 35.8274 109.874 36.1562V43.7689H108.205V36.662L108.179 36.6367Z" fill="white"/>
<path d="M146.182 43.7473H144.335L144.5 41.1929H144.259C144.133 41.8251 143.918 42.3057 143.602 42.6471C143.286 42.9885 142.944 43.2414 142.59 43.4058C142.236 43.5702 141.907 43.6714 141.591 43.6967C141.288 43.722 141.085 43.7473 140.984 43.7473H132.866C132.486 43.7473 132.107 43.6967 131.715 43.6082C131.323 43.507 130.969 43.3553 130.64 43.1276C130.311 42.9 130.046 42.5965 129.831 42.2171C129.616 41.8378 129.515 41.3699 129.515 40.8135V39.9662C129.515 39.5742 129.565 39.2328 129.666 38.904C129.768 38.5879 129.945 38.3096 130.198 38.0694C130.45 37.8291 130.792 37.6521 131.209 37.513C131.626 37.3865 132.158 37.3106 132.803 37.3106H144.411C144.386 36.8933 144.323 36.4887 144.209 36.1219C144.095 35.7552 143.931 35.4264 143.716 35.1482C143.501 34.87 143.223 34.6551 142.906 34.4907C142.578 34.3263 142.198 34.2504 141.743 34.2504H133.877C133.447 34.2504 133.017 34.2504 132.6 34.2883C132.183 34.3136 131.791 34.3642 131.411 34.4401C131.032 34.516 130.691 34.6298 130.375 34.7562C130.058 34.8953 129.768 35.0597 129.515 35.2747V33.8584C129.957 33.5043 130.488 33.2514 131.121 33.0996C131.753 32.9479 132.373 32.8594 133.03 32.8594H142.514C143.071 32.8594 143.577 32.9605 144.019 33.1629C144.474 33.3652 144.854 33.6561 145.183 34.0354C145.511 34.4148 145.752 34.87 145.929 35.4011C146.106 35.9323 146.194 36.5266 146.194 37.1715V43.6967L146.182 43.7473ZM144.462 38.7143H133.283C132.537 38.7143 131.993 38.8534 131.677 39.1063C131.348 39.3719 131.184 39.7892 131.184 40.3709C131.184 40.6238 131.209 40.8641 131.272 41.079C131.336 41.3067 131.437 41.4963 131.601 41.6607C131.766 41.8251 131.968 41.9642 132.246 42.0528C132.512 42.1539 132.866 42.1919 133.283 42.1919H141.528C142.464 42.1919 143.185 41.901 143.665 41.3067C144.146 40.7123 144.411 39.8398 144.462 38.689V38.7143Z" fill="white"/>
<path d="M167.97 44.4041L168.134 41.0024H167.894C167.742 41.483 167.527 41.9003 167.261 42.2544C166.996 42.6084 166.705 42.8866 166.389 43.1143C166.073 43.3419 165.757 43.5063 165.44 43.6074C165.124 43.7086 164.821 43.7592 164.543 43.7592H156.525C155.804 43.7592 155.185 43.6201 154.666 43.3545C154.148 43.089 153.743 42.7475 153.414 42.3429C153.098 41.9382 152.858 41.4956 152.719 41.0277C152.58 40.5598 152.504 40.1172 152.504 39.7126V36.9685C152.504 36.4879 152.605 36.0074 152.807 35.5269C153.01 35.0463 153.301 34.6164 153.655 34.2244C154.021 33.8324 154.439 33.5289 154.932 33.2886C155.425 33.0483 155.944 32.9219 156.513 32.9219H164.53C164.922 32.9219 165.314 32.9725 165.693 33.0736C166.073 33.1748 166.414 33.3265 166.718 33.5036C167.021 33.6933 167.287 33.9082 167.489 34.1738C167.691 34.4394 167.83 34.7176 167.881 35.0337H168.121L167.957 32.9219H169.626V44.9858C169.626 45.4537 169.538 45.8963 169.361 46.301C169.184 46.7056 168.943 47.0723 168.64 47.3758C168.336 47.6793 167.97 47.9196 167.565 48.0966C167.16 48.2737 166.718 48.3622 166.25 48.3622H156.475C155.817 48.3622 155.185 48.2863 154.565 48.1219C153.946 47.9702 153.414 47.7173 152.959 47.3632V45.8584C153.465 46.2883 154.097 46.5792 154.869 46.7183C155.64 46.8574 156.449 46.9206 157.322 46.9206H165.428C165.82 46.9206 166.174 46.8574 166.49 46.7309C166.793 46.6045 167.059 46.4274 167.274 46.1998C167.489 45.9722 167.653 45.7066 167.767 45.4031C167.881 45.0996 167.957 44.7708 167.97 44.4041ZM167.97 38.9033V37.5881C167.97 36.6903 167.729 35.9695 167.261 35.4131C166.793 34.8567 166.06 34.5785 165.074 34.5785H157.12C156.74 34.5785 156.386 34.6417 156.032 34.7681C155.678 34.8946 155.374 35.0843 155.096 35.3245C154.831 35.5648 154.603 35.8683 154.439 36.235C154.274 36.6018 154.186 37.0317 154.186 37.5249V39.0929C154.186 39.4976 154.249 39.8896 154.363 40.2563C154.489 40.6231 154.679 40.9392 154.932 41.2048C155.197 41.4703 155.526 41.6853 155.931 41.8497C156.336 42.0014 156.829 42.09 157.41 42.09H165.023C165.415 42.09 165.782 42.0014 166.136 41.837C166.49 41.6727 166.806 41.445 167.072 41.1542C167.337 40.8633 167.565 40.5219 167.717 40.1425C167.881 39.7505 167.957 39.3459 167.957 38.9159L167.97 38.9033Z" fill="white"/>
<path d="M175.215 31.8104V29.2812H176.897V31.8104H175.215ZM175.215 43.7479V32.8979H176.897V43.7479H175.215Z" fill="white"/>
<path d="M185.999 41.8437C185.619 41.6667 185.303 41.4517 185.05 41.1609C184.797 40.8827 184.607 40.5665 184.481 40.1998C184.355 39.8457 184.291 39.479 184.291 39.1123V37.5695C184.291 37.1396 184.367 36.7349 184.519 36.3808C184.671 36.0141 184.886 35.698 185.151 35.4324C185.429 35.1542 185.746 34.9519 186.1 34.8001C186.466 34.6484 186.858 34.5725 187.276 34.5725H197.367C197.367 34.5725 197.455 34.5725 197.493 34.5725H200.996C200.895 34.4334 200.794 34.3069 200.68 34.1805C200.313 33.7758 199.871 33.4597 199.352 33.2321C198.834 33.0044 198.265 32.8906 197.632 32.8906H186.681C186.125 32.8906 185.606 32.9918 185.113 33.2068C184.62 33.4217 184.19 33.7126 183.811 34.0793C183.444 34.446 183.153 34.876 182.951 35.3565C182.736 35.8497 182.635 36.3808 182.635 36.9499V39.694C182.635 40.2504 182.736 40.7689 182.951 41.2747C183.153 41.7679 183.444 42.1978 183.811 42.5645C184.19 42.9313 184.62 43.2221 185.113 43.4244C185.606 43.6394 186.125 43.7406 186.681 43.7406H197.632C198.265 43.7406 198.834 43.6268 199.352 43.3865C199.871 43.1462 200.313 42.8174 200.68 42.4128C200.769 42.3116 200.857 42.1978 200.946 42.084H187.276C186.795 42.084 186.365 41.9955 185.999 41.8311V41.8437Z" fill="url(#paint2_linear_9250_6917)"/>
<path d="M94.4233 32.9062H72.167V35.0687H94.4233V32.9062Z" fill="url(#paint3_linear_9250_6917)"/>
<path d="M94.4249 36.5625H76.291V39.0031H94.4249V36.5625Z" fill="url(#paint4_linear_9250_6917)"/>
<path d="M94.4235 40.7969H81.6641V43.7433H94.4235V40.7969Z" fill="url(#paint5_linear_9250_6917)"/>
<defs>
<linearGradient id="paint0_linear_9250_6917" x1="6.43671" y1="24.8063" x2="50.6511" y2="24.8063" gradientUnits="userSpaceOnUse">
<stop stop-color="#FFB70F" stop-opacity="0"/>
<stop offset="1" stop-color="#FFB70F"/>
</linearGradient>
<linearGradient id="paint1_linear_9250_6917" x1="0.978161" y1="24.7892" x2="45.1787" y2="24.7892" gradientUnits="userSpaceOnUse">
<stop offset="0.13" stop-color="white" stop-opacity="0"/>
<stop offset="0.21" stop-color="white" stop-opacity="0.0169"/>
<stop offset="0.45" stop-color="white" stop-opacity="0.25"/>
<stop offset="0.64" stop-color="white" stop-opacity="0.5929"/>
<stop offset="0.77" stop-color="white" stop-opacity="0.8836"/>
<stop offset="0.84" stop-color="white"/>
</linearGradient>
<linearGradient id="paint2_linear_9250_6917" x1="201.249" y1="38.3282" x2="183.001" y2="38.3282" gradientUnits="userSpaceOnUse">
<stop stop-color="white" stop-opacity="0"/>
<stop offset="0.09" stop-color="white" stop-opacity="0.04"/>
<stop offset="0.21" stop-color="white" stop-opacity="0.1936"/>
<stop offset="0.33" stop-color="white" stop-opacity="0.4096"/>
<stop offset="0.43" stop-color="white" stop-opacity="0.64"/>
<stop offset="0.53" stop-color="white" stop-opacity="0.8281"/>
<stop offset="0.62" stop-color="white" stop-opacity="0.9604"/>
<stop offset="0.68" stop-color="white"/>
</linearGradient>
<linearGradient id="paint3_linear_9250_6917" x1="72.167" y1="33.9811" x2="94.4233" y2="33.9811" gradientUnits="userSpaceOnUse">
<stop stop-color="white" stop-opacity="0"/>
<stop offset="0.09" stop-color="white" stop-opacity="0.01"/>
<stop offset="0.26" stop-color="white" stop-opacity="0.0361"/>
<stop offset="0.49" stop-color="white" stop-opacity="0.1764"/>
<stop offset="0.77" stop-color="white" stop-opacity="0.5329"/>
<stop offset="1" stop-color="white"/>
</linearGradient>
<linearGradient id="paint4_linear_9250_6917" x1="76.291" y1="37.7765" x2="3.95797" y2="37.7765" gradientUnits="userSpaceOnUse">
<stop stop-color="white" stop-opacity="0"/>
<stop offset="0.09" stop-color="white" stop-opacity="0.01"/>
<stop offset="0.26" stop-color="white" stop-opacity="0.0361"/>
<stop offset="0.49" stop-color="white" stop-opacity="0.1764"/>
<stop offset="0.77" stop-color="white" stop-opacity="0.5329"/>
<stop offset="1" stop-color="white"/>
</linearGradient>
<linearGradient id="paint5_linear_9250_6917" x1="81.6641" y1="42.2638" x2="3.95663" y2="42.2638" gradientUnits="userSpaceOnUse">
<stop stop-color="white" stop-opacity="0"/>
<stop offset="0.09" stop-color="white" stop-opacity="0.01"/>
<stop offset="0.26" stop-color="white" stop-opacity="0.0361"/>
<stop offset="0.49" stop-color="white" stop-opacity="0.1764"/>
<stop offset="0.77" stop-color="white" stop-opacity="0.5329"/>
<stop offset="1" stop-color="white"/>
</linearGradient>
</defs>
</svg>
