<svg width="148" height="39" viewBox="0 0 148 39" fill="none" xmlns="http://www.w3.org/2000/svg">
<path d="M45.8847 19.3959C45.8847 30.1084 28.8708 38.7977 7.88297 38.7977C5.17762 38.7977 2.54308 38.6515 0 38.3825H0.306822C19.9995 38.3825 35.9601 29.8833 35.9601 19.3988C35.9601 8.91148 19.9995 0.415167 0.306822 0.415167H0.0472034C2.57554 0.140338 5.19532 0 7.88592 0C28.8737 0 45.8876 8.68343 45.8876 19.3959H45.8847Z" fill="url(#paint0_linear_20_95)"/>
<path d="M31.3312 19.3952C31.3312 25.7543 22.2918 31.2363 9.26067 33.736C6.79134 34.2155 4.1745 34.5839 1.44556 34.8295C12.3348 31.9409 19.7782 26.1139 19.7782 19.3952C19.7782 12.6765 12.3377 6.84957 1.44851 3.96094C4.17155 4.20653 6.78249 4.57492 9.24887 5.04856C22.2888 7.54833 31.3342 13.0332 31.3342 19.3952H31.3312Z" fill="url(#paint1_linear_20_95)"/>
<path d="M58.9222 24H56.8129L60.6534 13.0909H63.093L66.9389 24H64.8295L61.9158 15.3281H61.8306L58.9222 24ZM58.9915 19.7227H64.7443V21.31H58.9915V19.7227ZM71.0778 24.1438C70.435 24.1438 69.8597 23.9787 69.3519 23.6484C68.8441 23.3182 68.4428 22.8388 68.1481 22.2102C67.8533 21.5817 67.706 20.8182 67.706 19.9197C67.706 19.0107 67.8551 18.2436 68.1534 17.6186C68.4553 16.9901 68.8619 16.516 69.3732 16.1964C69.8846 15.8732 70.4545 15.7116 71.0831 15.7116C71.5625 15.7116 71.9567 15.7933 72.2656 15.9567C72.5746 16.1165 72.8196 16.31 73.0007 16.5373C73.1818 16.761 73.3221 16.9723 73.4215 17.1712H73.5014V13.0909H75.435V24H73.5387V22.7109H73.4215C73.3221 22.9098 73.1783 23.1211 72.9901 23.3448C72.8018 23.565 72.5533 23.7532 72.2443 23.9094C71.9354 24.0657 71.5465 24.1438 71.0778 24.1438ZM71.6158 22.5618C72.0241 22.5618 72.3722 22.4517 72.6598 22.2315C72.9474 22.0078 73.1658 21.6971 73.315 21.2994C73.4641 20.9016 73.5387 20.4382 73.5387 19.9091C73.5387 19.38 73.4641 18.9201 73.315 18.5295C73.1694 18.1388 72.9528 17.8352 72.6651 17.6186C72.381 17.402 72.0313 17.2937 71.6158 17.2937C71.1861 17.2937 70.8274 17.4055 70.5398 17.6293C70.2521 17.853 70.0355 18.1619 69.8899 18.5561C69.7443 18.9503 69.6715 19.4013 69.6715 19.9091C69.6715 20.4205 69.7443 20.8768 69.8899 21.2781C70.0391 21.6758 70.2575 21.9901 70.5451 22.2209C70.8363 22.4482 71.1932 22.5618 71.6158 22.5618ZM77.4898 24V15.8182H79.3328V17.2085H79.4287C79.5992 16.7397 79.8815 16.3739 80.2757 16.1112C80.6698 15.8448 81.1404 15.7116 81.6872 15.7116C82.2412 15.7116 82.7082 15.8466 83.0882 16.1165C83.4717 16.3828 83.7416 16.7468 83.8978 17.2085H83.983C84.1642 16.7539 84.4695 16.3917 84.8992 16.1218C85.3325 15.8484 85.8456 15.7116 86.4387 15.7116C87.1915 15.7116 87.8058 15.9496 88.2817 16.4254C88.7575 16.9013 88.9955 17.5955 88.9955 18.5082V24H87.0619V18.8065C87.0619 18.2987 86.9269 17.9276 86.657 17.6932C86.3872 17.4553 86.0569 17.3363 85.6663 17.3363C85.2011 17.3363 84.8371 17.4819 84.5743 17.7731C84.3151 18.0607 84.1855 18.4354 84.1855 18.897V24H82.2945V18.7266C82.2945 18.304 82.1666 17.9666 81.911 17.7145C81.6588 17.4624 81.3286 17.3363 80.9202 17.3363C80.6432 17.3363 80.3911 17.4073 80.1638 17.5494C79.9365 17.6879 79.7554 17.8849 79.6205 18.1406C79.4855 18.3928 79.4181 18.6875 79.4181 19.0249V24H77.4898ZM90.9517 24V15.8182H92.88V24H90.9517ZM91.9212 14.657C91.6158 14.657 91.353 14.5558 91.1328 14.3533C90.9126 14.1474 90.8026 13.9006 90.8026 13.6129C90.8026 13.3217 90.9126 13.0749 91.1328 12.8725C91.353 12.6665 91.6158 12.5636 91.9212 12.5636C92.2301 12.5636 92.4929 12.6665 92.7095 12.8725C92.9297 13.0749 93.0398 13.3217 93.0398 13.6129C93.0398 13.9006 92.9297 14.1474 92.7095 14.3533C92.4929 14.5558 92.2301 14.657 91.9212 14.657ZM96.7911 19.206V24H94.8628V15.8182H96.7059V17.2085H96.8018C96.99 16.7504 97.29 16.3864 97.702 16.1165C98.1175 15.8466 98.6306 15.7116 99.2414 15.7116C99.806 15.7116 100.298 15.8324 100.717 16.0739C101.139 16.3153 101.466 16.6651 101.697 17.1232C101.931 17.5813 102.047 18.1371 102.043 18.7905V24H100.115V19.0888C100.115 18.5419 99.9729 18.114 99.6888 17.805C99.4083 17.4961 99.0194 17.3416 98.5223 17.3416C98.1849 17.3416 97.8849 17.4162 97.6221 17.5653C97.3628 17.7109 97.1586 17.9222 97.0095 18.1992C96.8639 18.4762 96.7911 18.8118 96.7911 19.206ZM107.809 24V13.0909H111.9C112.738 13.0909 113.441 13.2472 114.01 13.5597C114.581 13.8722 115.013 14.3018 115.304 14.8487C115.599 15.392 115.746 16.0099 115.746 16.7024C115.746 17.402 115.599 18.0234 115.304 18.5668C115.009 19.1101 114.574 19.538 113.999 19.8505C113.424 20.1594 112.715 20.3139 111.874 20.3139H109.162V18.6893H111.607C112.097 18.6893 112.499 18.604 112.811 18.4336C113.124 18.2631 113.354 18.0288 113.504 17.7305C113.656 17.4322 113.733 17.0895 113.733 16.7024C113.733 16.3153 113.656 15.9744 113.504 15.6797C113.354 15.3849 113.122 15.1559 112.806 14.9925C112.493 14.8256 112.09 14.7422 111.597 14.7422H109.786V24H107.809ZM119.585 24.1651C119.067 24.1651 118.6 24.0728 118.184 23.8881C117.773 23.6999 117.446 23.4229 117.204 23.0572C116.966 22.6914 116.847 22.2404 116.847 21.7042C116.847 21.2425 116.933 20.8608 117.103 20.5589C117.274 20.2571 117.506 20.0156 117.801 19.8345C118.096 19.6534 118.428 19.5167 118.797 19.4244C119.17 19.3285 119.555 19.2592 119.953 19.2166C120.432 19.1669 120.821 19.1225 121.119 19.0835C121.418 19.0408 121.634 18.9769 121.769 18.8917C121.908 18.8029 121.977 18.6662 121.977 18.4815V18.4496C121.977 18.0483 121.858 17.7376 121.62 17.5174C121.382 17.2972 121.04 17.1871 120.592 17.1871C120.12 17.1871 119.745 17.2901 119.468 17.4961C119.195 17.7021 119.01 17.9453 118.914 18.2259L117.114 17.9702C117.256 17.473 117.49 17.0575 117.817 16.7237C118.144 16.3864 118.543 16.1342 119.015 15.9673C119.488 15.7969 120.01 15.7116 120.581 15.7116C120.976 15.7116 121.368 15.7578 121.759 15.8501C122.149 15.9425 122.506 16.0952 122.829 16.3082C123.153 16.5178 123.412 16.8036 123.607 17.1658C123.806 17.5281 123.905 17.9808 123.905 18.5241V24H122.052V22.8761H121.988C121.871 23.1033 121.705 23.3164 121.492 23.5153C121.283 23.7106 121.018 23.8686 120.699 23.9893C120.383 24.1065 120.012 24.1651 119.585 24.1651ZM120.086 22.7482C120.473 22.7482 120.809 22.6719 121.093 22.5192C121.377 22.3629 121.595 22.157 121.748 21.9013C121.904 21.6456 121.982 21.3668 121.982 21.065V20.1009C121.922 20.1506 121.819 20.1967 121.673 20.2393C121.531 20.282 121.372 20.3192 121.194 20.3512C121.017 20.3832 120.841 20.4116 120.667 20.4364C120.493 20.4613 120.342 20.4826 120.214 20.5004C119.926 20.5394 119.669 20.6033 119.442 20.6921C119.214 20.7809 119.035 20.9052 118.904 21.065C118.772 21.2212 118.706 21.4237 118.706 21.6722C118.706 22.0273 118.836 22.2955 119.095 22.4766C119.355 22.6577 119.685 22.7482 120.086 22.7482ZM127.773 19.206V24H125.844V15.8182H127.687V17.2085H127.783C127.971 16.7504 128.271 16.3864 128.683 16.1165C129.099 15.8466 129.612 15.7116 130.223 15.7116C130.787 15.7116 131.279 15.8324 131.698 16.0739C132.121 16.3153 132.448 16.6651 132.678 17.1232C132.913 17.5813 133.028 18.1371 133.025 18.7905V24H131.096V19.0888C131.096 18.5419 130.954 18.114 130.67 17.805C130.39 17.4961 130.001 17.3416 129.504 17.3416C129.166 17.3416 128.866 17.4162 128.604 17.5653C128.344 17.7109 128.14 17.9222 127.991 18.1992C127.845 18.4762 127.773 18.8118 127.773 19.206ZM138.607 24.1598C137.787 24.1598 137.078 23.9893 136.482 23.6484C135.889 23.304 135.432 22.8175 135.113 22.1889C134.793 21.5568 134.633 20.8129 134.633 19.957C134.633 19.1154 134.793 18.3768 135.113 17.7411C135.436 17.1019 135.887 16.6048 136.466 16.2496C137.045 15.891 137.725 15.7116 138.506 15.7116C139.01 15.7116 139.486 15.7933 139.933 15.9567C140.384 16.1165 140.782 16.3651 141.127 16.7024C141.475 17.0398 141.748 17.4695 141.947 17.9915C142.146 18.5099 142.245 19.1278 142.245 19.8452V20.4364H135.539V19.1367H140.397C140.393 18.7674 140.313 18.4389 140.157 18.1513C140.001 17.8601 139.782 17.631 139.502 17.4641C139.225 17.2972 138.902 17.2138 138.532 17.2138C138.138 17.2138 137.792 17.3097 137.494 17.5014C137.195 17.6896 136.963 17.9382 136.796 18.2472C136.633 18.5526 136.549 18.8881 136.546 19.2539V20.3885C136.546 20.8643 136.633 21.2727 136.807 21.6136C136.981 21.951 137.224 22.2102 137.536 22.3913C137.849 22.5689 138.215 22.6577 138.634 22.6577C138.914 22.6577 139.168 22.6186 139.395 22.5405C139.623 22.4588 139.82 22.3398 139.987 22.1836C140.154 22.0273 140.28 21.8338 140.365 21.603L142.165 21.8054C142.052 22.2812 141.835 22.6967 141.515 23.0518C141.199 23.4034 140.795 23.6768 140.301 23.8722C139.807 24.0639 139.243 24.1598 138.607 24.1598ZM145.805 13.0909V24H143.877V13.0909H145.805Z" fill="white"/>
<defs>
<linearGradient id="paint0_linear_20_95" x1="5.23368" y1="19.3988" x2="41.1407" y2="19.3988" gradientUnits="userSpaceOnUse">
<stop stop-color="#FFB70F" stop-opacity="0"/>
<stop offset="0.11" stop-color="#FFB70F" stop-opacity="0.01"/>
<stop offset="0.34" stop-color="#FFB70F" stop-opacity="0.1156"/>
<stop offset="0.67" stop-color="#FFB70F" stop-opacity="0.5329"/>
<stop offset="0.89" stop-color="#FFB70F"/>
<stop offset="1" stop-color="#FFB70F"/>
</linearGradient>
<linearGradient id="paint1_linear_20_95" x1="0.79946" y1="19.3952" x2="36.7065" y2="19.3952" gradientUnits="userSpaceOnUse">
<stop offset="0.11" stop-color="white" stop-opacity="0"/>
<stop offset="0.35" stop-color="white" stop-opacity="0.1089"/>
<stop offset="0.69" stop-color="white" stop-opacity="0.6561"/>
<stop offset="0.84" stop-color="white"/>
</linearGradient>
</defs>
</svg>
