<svg width="175" height="27" viewBox="0 0 175 27" fill="none" xmlns="http://www.w3.org/2000/svg">
<path d="M15.4852 9.0099C18.5616 11.5337 20.8367 14.997 21.8637 18.9668C22.7249 17.1385 23.2039 15.0983 23.2039 12.9475C23.2039 10.6586 22.665 8.49869 21.6979 6.58744L15.4852 0.370117L9.26785 6.58284C8.30531 8.49409 7.76187 10.654 7.76187 12.9429C7.76187 15.0937 8.24084 17.1339 9.10205 18.9622C10.1291 14.9923 12.4041 11.5291 15.4806 9.00529L15.4852 9.0099Z" fill="#4A44DD"/>
<path d="M24.9309 9.81622C25.1612 10.8248 25.2763 11.8702 25.2763 12.9433C25.2763 16.1901 24.1848 19.1791 22.3473 21.5693C21.8407 22.2278 21.2788 22.8404 20.6663 23.4022C20.5788 22.7621 20.459 22.1357 20.3117 21.5186C19.5057 18.1566 17.8063 15.1355 15.4806 12.7315C13.1548 15.1401 11.4554 18.1566 10.6495 21.5186C10.5021 22.1357 10.3824 22.7667 10.2949 23.4022C9.68233 22.8404 9.11586 22.2278 8.61387 21.5693C6.77631 19.1791 5.68482 16.1901 5.68482 12.9433C5.68482 11.8702 5.80456 10.8202 6.03023 9.81622L0.545166 15.3013C1.30506 19.8883 4.3953 23.6924 8.55861 25.4424C9.06521 25.6543 9.58562 25.8385 10.1198 25.9905C11.11 26.2668 12.1508 26.4372 13.2193 26.4787C13.3943 26.4879 13.7766 26.4925 13.7766 26.4925C13.7766 26.428 13.772 26.3635 13.7673 26.2944C13.7627 26.1102 13.7535 25.926 13.7535 25.7418C13.7535 25.5668 13.7535 24.7562 13.7535 24.526C13.8272 21.3298 14.4305 18.2672 15.476 15.4164C16.5214 18.2672 17.1201 21.3344 17.1984 24.526C17.203 24.7562 17.203 25.5668 17.1984 25.7418C17.1984 25.926 17.1892 26.1102 17.1846 26.2944C17.1846 26.3589 17.18 26.4234 17.1754 26.4925C17.1754 26.4925 17.5576 26.4925 17.7326 26.4787C18.8011 26.4372 19.8419 26.2714 20.8321 25.9905C21.3663 25.8385 21.8867 25.6589 22.3933 25.4424C26.5566 23.6878 29.6515 19.8883 30.4067 15.3013L24.9217 9.81622H24.9309Z" fill="#4A44DD"/>
<path d="M56.6385 21.7031H53.323L51.8106 18.7449L48.1877 11.6485L44.5647 18.7449L43.0523 21.7031H39.7368L41.2492 18.7449L48.1877 5.13379L55.1262 18.7449L56.6385 21.7031Z" fill="#4A44DD"/>
<path d="M66.6763 5.15893C71.2466 5.15893 74.961 8.84838 74.961 13.4187C74.961 15.4545 74.2297 17.3241 72.9999 18.77C72.8586 18.9362 72.6924 19.1024 72.5263 19.2686C71.0388 20.7809 68.9781 21.7033 66.7012 21.7033H58.4166V5.134L66.6763 5.15893ZM61.3499 18.77H66.6763C69.6096 18.77 72.0028 16.3769 72.0028 13.4436C72.0028 10.5103 69.6096 8.11714 66.6763 8.11714H61.3499V18.77Z" fill="#4A44DD"/>
<path d="M92.3197 18.1302L91.2561 21.7033L89.079 18.6703L85.7884 14.1499L82.5227 18.6703L80.3456 21.6784L79.282 18.1302L75.4263 5.134H78.5009L81.484 15.1221L83.9935 11.6404L84.4672 10.9756L85.8133 9.13091L87.1595 10.9756L87.6331 11.6404L90.1426 15.1221L93.1257 5.134H96.2003L92.3197 18.1302Z" fill="#4A44DD"/>
<path d="M98.56 21.7033V5.134H101.518V21.7033H98.56Z" fill="#4A44DD"/>
<path d="M120.888 18.7202V21.6784H108.083L108.058 21.7033H104.319L104.344 21.6784L106.612 18.7202L110.684 13.4436L112.554 11.0255L114.822 8.09221H104.294V5.134H120.813L118.52 8.09221L114.398 13.4436L112.529 15.8534L110.302 18.7202H120.88H120.888Z" fill="#4A44DD"/>
<path d="M139.518 21.7033H136.203L134.69 18.7451L131.067 11.6487L127.444 18.7451L125.932 21.7033H122.616L124.129 18.7451L131.067 5.134L138.006 18.7451L139.518 21.7033Z" fill="#4A44DD"/>
<path d="M154.309 18.7712L155.821 21.7295H152.506L150.994 18.7712L149.406 15.6718L149.332 15.5305C148.808 14.6746 147.886 14.1096 146.822 14.1096H143.864V21.7295H140.906V5.16016H151.368C152.597 5.16016 153.711 5.65873 154.517 6.46476C155.323 7.29572 155.821 8.4092 155.821 9.63902C155.821 11.4339 154.758 12.9961 153.221 13.7107C152.822 13.9018 152.39 14.0182 151.941 14.068L154.309 18.7796V18.7712ZM151.376 11.1514C151.592 11.1514 151.8 11.1015 151.991 11.0101C152.531 10.7774 152.888 10.229 152.888 9.63902C152.888 9.0989 152.606 8.71666 152.439 8.55046C152.248 8.35934 151.899 8.12667 151.376 8.12667H143.872V11.1763L151.376 11.1514Z" fill="#4A44DD"/>
<path d="M166.466 5.15893C171.036 5.15893 174.751 8.84838 174.751 13.4187C174.751 15.4545 174.019 17.3241 172.79 18.77C172.648 18.9362 172.482 19.1024 172.316 19.2686C170.829 20.7809 168.768 21.7033 166.491 21.7033H158.206V5.134L166.466 5.15893ZM161.14 18.77H166.466C169.399 18.77 171.793 16.3769 171.793 13.4436C171.793 10.5103 169.399 8.11714 166.466 8.11714H161.14V18.77Z" fill="#4A44DD"/>
</svg>
