<svg width="20" height="20" viewBox="0 0 20 20" fill="none" xmlns="http://www.w3.org/2000/svg">
<mask id="mask0_6_34" style="mask-type:alpha" maskUnits="userSpaceOnUse" x="0" y="0" width="20" height="20">
<rect width="20" height="20" fill="#D9D9D9"/>
</mask>
<g mask="url(#mask0_6_34)">
<path d="M10 10L6.75 13.5H13.25L10 10ZM4.39583 17C4.01199 17 3.68338 16.8633 3.41002 16.59C3.13667 16.3166 3 15.988 3 15.6042V4.39583C3 4.01197 3.13667 3.68337 3.41002 3.41002C3.68338 3.13667 4.01199 3 4.39583 3H15.6042C15.988 3 16.3166 3.13667 16.59 3.41002C16.8633 3.68337 17 4.01197 17 4.39583V15.6042C17 15.988 16.8633 16.3166 16.59 16.59C16.3166 16.8633 15.988 17 15.6042 17H4.39583ZM15.5 7V4.5H4.5V7H15.5ZM4.5 8.5V15.5H15.5V8.5H4.5Z" fill="white"/>
</g>
</svg>
