<svg width="212" height="111" viewBox="0 0 212 111" fill="none" xmlns="http://www.w3.org/2000/svg">
<g clip-path="url(#clip0_32_1027)">
<path d="M26.9657 110.962H21.7842L19.4207 106.396L13.7587 95.4433L8.09675 106.396L5.73326 110.962H0.551758L2.91525 106.396L13.7587 85.3886L24.6022 106.396L26.9657 110.962Z" fill="white"/>
<path d="M42.6534 85.427C49.7958 85.427 55.6007 91.1213 55.6007 98.175C55.6007 101.317 54.4579 104.203 52.5359 106.434C52.3152 106.691 52.0554 106.947 51.7957 107.204C49.4712 109.538 46.2506 110.962 42.6924 110.962H29.7451V85.3886L42.6534 85.427ZM34.3293 106.434H42.6534C47.2375 106.434 50.9776 102.741 50.9776 98.2135C50.9776 93.6863 47.2375 89.9927 42.6534 89.9927H34.3293V106.434Z" fill="white"/>
<path d="M82.7281 105.447L81.0659 110.962L77.6635 106.28L72.521 99.3036L67.4174 106.28L64.015 110.923L62.3528 105.447L56.3271 85.3886H61.132L65.7941 100.804L69.7159 95.4305L70.4562 94.4045L72.5599 91.5574L74.6637 94.4045L75.4039 95.4305L79.3257 100.804L83.9878 85.3886H88.7927L82.7281 105.447Z" fill="white"/>
<path d="M92.4814 110.962V85.3886H97.1045V110.962H92.4814Z" fill="white"/>
<path d="M127.375 106.357V110.923H107.363L107.324 110.962H101.48L101.519 110.923L105.065 106.357L111.428 98.2135L114.35 94.4815L117.895 89.9542H101.441V85.3886H127.258L123.674 89.9542L117.233 98.2135L114.311 101.933L110.83 106.357H127.362H127.375Z" fill="white"/>
<path d="M156.49 110.962H151.309L148.945 106.396L143.283 95.4433L137.621 106.396L135.258 110.962H130.076L132.44 106.396L143.283 85.3886L154.127 106.396L156.49 110.962Z" fill="white"/>
<path d="M179.606 106.434L181.969 111H176.788L174.424 106.434L171.944 101.65L171.827 101.432C171.009 100.111 169.568 99.2391 167.905 99.2391H163.282V111H158.659V85.4267H175.009C176.931 85.4267 178.671 86.1961 179.931 87.4402C181.19 88.7227 181.969 90.4412 181.969 92.3393C181.969 95.1095 180.307 97.5206 177.905 98.6235C177.281 98.9185 176.606 99.0981 175.905 99.175L179.606 106.447V106.434ZM175.022 94.6734C175.359 94.6734 175.684 94.5965 175.983 94.4554C176.827 94.0963 177.385 93.2499 177.385 92.3393C177.385 91.5057 176.944 90.9157 176.684 90.6592C176.385 90.3643 175.84 90.0052 175.022 90.0052H163.295V94.7119L175.022 94.6734Z" fill="white"/>
<path d="M198.605 85.427C205.747 85.427 211.552 91.1213 211.552 98.175C211.552 101.317 210.409 104.203 208.487 106.434C208.266 106.691 208.007 106.947 207.747 107.204C205.422 109.538 202.202 110.962 198.644 110.962H185.696V85.3886L198.605 85.427ZM190.28 106.434H198.605C203.189 106.434 206.929 102.741 206.929 98.2135C206.929 93.6863 203.189 89.9927 198.605 89.9927H190.28V106.434Z" fill="white"/>
<path d="M107.935 24.0596C116.61 31.0877 123.025 40.7321 125.921 51.7872C128.349 46.6957 129.7 41.0142 129.7 35.025C129.7 28.6509 128.18 22.636 125.453 17.3137L107.935 0L90.4034 17.3009C87.6892 22.6232 86.1569 28.6381 86.1569 35.0121C86.1569 41.0014 87.5074 46.6828 89.9359 51.7743C92.8318 40.7192 99.247 31.0749 107.922 24.0468L107.935 24.0596Z" fill="white"/>
<path d="M134.569 26.3037C135.219 29.1124 135.543 32.0236 135.543 35.0119C135.543 44.0534 132.466 52.3768 127.284 59.033C125.856 60.867 124.271 62.5727 122.544 64.1373C122.298 62.3547 121.96 60.6105 121.544 58.8919C119.272 49.5297 114.48 41.1165 107.922 34.4219C101.364 41.1294 96.5718 49.5297 94.2993 58.8919C93.8837 60.6105 93.546 62.3675 93.2993 64.1373C91.5721 62.5727 89.9748 60.867 88.5593 59.033C83.3778 52.3768 80.3001 44.0534 80.3001 35.0119C80.3001 32.0236 80.6378 29.0996 81.2741 26.3037L65.8075 41.5782C67.9502 54.3519 76.664 64.9453 88.4035 69.8188C89.832 70.4087 91.2994 70.9217 92.8058 71.345C95.5979 72.1145 98.5328 72.589 101.546 72.7044C102.039 72.7301 103.117 72.7429 103.117 72.7429C103.117 72.5633 103.104 72.3838 103.091 72.1914C103.078 71.6784 103.052 71.1654 103.052 70.6524C103.052 70.1651 103.052 67.9079 103.052 67.2666C103.26 58.3661 104.961 49.8375 107.909 41.8989C110.857 49.8375 112.545 58.3789 112.766 67.2666C112.779 67.9079 112.779 70.1651 112.766 70.6524C112.766 71.1654 112.74 71.6784 112.727 72.1914C112.727 72.371 112.714 72.5505 112.701 72.7429C112.701 72.7429 113.779 72.7429 114.272 72.7044C117.285 72.589 120.22 72.1273 123.012 71.345C124.518 70.9217 125.986 70.4216 127.414 69.8188C139.154 64.9325 147.88 54.3519 150.01 41.5782L134.544 26.3037H134.569Z" fill="white"/>
</g>
<defs>
<clipPath id="clip0_32_1027">
<rect width="211" height="111" fill="white" transform="translate(0.551758)"/>
</clipPath>
</defs>
</svg>
