<svg width="21" height="21" viewBox="0 0 21 21" fill="none" xmlns="http://www.w3.org/2000/svg">
<mask id="mask0_1_179" style="mask-type:alpha" maskUnits="userSpaceOnUse" x="0" y="0" width="21" height="21">
<rect x="20.0793" y="0.164062" width="20" height="20" transform="rotate(90 20.0793 0.164062)" fill="#D9D9D9"/>
</mask>
<g mask="url(#mask0_1_179)">
<path d="M10.0793 11.3279L13.6403 7.76701C13.7556 7.65163 13.8833 7.5926 14.0233 7.58993C14.1632 7.58725 14.2935 7.64628 14.4143 7.76701C14.535 7.88774 14.5954 8.01674 14.5954 8.15401C14.5954 8.29129 14.5327 8.42265 14.4072 8.54808L10.5441 12.4112C10.4744 12.4753 10.4012 12.5234 10.3244 12.5554C10.2476 12.5875 10.1645 12.6035 10.0752 12.6035C9.98586 12.6035 9.9028 12.5875 9.82599 12.5554C9.74917 12.5234 9.67871 12.4753 9.61462 12.4112L5.75147 8.54808C5.63139 8.42799 5.57349 8.30144 5.57776 8.16843C5.58203 8.03543 5.64453 7.90857 5.76526 7.78785C5.88599 7.66711 6.01499 7.60674 6.15226 7.60674C6.28954 7.60674 6.41854 7.66711 6.53926 7.78785L10.0793 11.3279Z" fill="#1C1B1F"/>
</g>
</svg>
