<svg width="24" height="15" viewBox="0 0 24 15" fill="none" xmlns="http://www.w3.org/2000/svg">
<g clip-path="url(#clip0_27_892)">
<path d="M2.14137 0.166016H22.6289C23.3205 0.169661 23.883 0.665495 23.883 1.2707V13.0577C23.883 13.6629 23.3205 14.1587 22.6289 14.1624H2.14137C1.44971 14.1624 0.887207 13.6665 0.887207 13.0613V1.2707C0.887207 0.665495 1.44971 0.169661 2.14137 0.166016Z" fill="#DA251D"/>
<path d="M12.3872 4.36603L11.3997 7.02749L13.4289 7.60353L12.3872 4.36603Z" fill="#FFFF00"/>
<path d="M12.3873 3.22852L13.8184 7.08574L10.8776 7.92059L12.3873 3.22852Z" fill="#FFFF00"/>
<path d="M15.4289 6.30194H12.2289V8.16861L15.4289 6.30194Z" fill="#FFFF00"/>
<path d="M16.7954 6.03421L13.0454 8.41724L11.2277 6.22971L16.7954 6.03421Z" fill="#FFFF00"/>
<path d="M14.2664 9.43007L13.2789 6.76862L11.2497 7.34466L14.2664 9.43007Z" fill="#FFFF00"/>
<path d="M15.1106 10.5676L11.3606 8.18456L13.1782 5.99704L15.1106 10.5676Z" fill="#FFFF00"/>
<path d="M9.34554 6.30194H12.5455V8.16861L9.34554 6.30194Z" fill="#FFFF00"/>
<path d="M7.97899 6.03421L11.729 8.41724L13.5467 6.22971L7.97899 6.03421Z" fill="#FFFF00"/>
<path d="M10.508 9.43007L11.4955 6.76862L13.5247 7.34466L10.508 9.43007Z" fill="#FFFF00"/>
<path d="M9.6638 10.5676L13.4138 8.18456L11.5962 5.99704L9.6638 10.5676Z" fill="#FFFF00"/>
</g>
<defs>
<clipPath id="clip0_27_892">
<rect width="23" height="14" fill="white" transform="translate(0.887207 0.166016)"/>
</clipPath>
</defs>
</svg>
