<svg width="143" height="68" viewBox="0 0 143 68" fill="none" xmlns="http://www.w3.org/2000/svg">
<rect x="16.5" y="21.5" width="111" height="27" rx="13.5" fill="#12CFB9"/>
<path d="M33.4432 41L35.3523 29.3636H36.9432L35.0341 41H33.4432ZM28.1989 38L28.4659 36.4091H37.4205L37.1534 38H28.1989ZM29.3523 41L31.2614 29.3636H32.8523L30.9432 41H29.3523ZM28.875 33.9545L29.1364 32.3636H38.0909L37.8295 33.9545H28.875ZM43.9999 29.3636V41H41.892V31.4148H41.8238L39.1022 33.1534V31.2216L41.9942 29.3636H43.9999ZM50.9089 41V29.3636H55.2725C56.1664 29.3636 56.9164 29.5303 57.5225 29.8636C58.1323 30.197 58.5926 30.6553 58.9032 31.2386C59.2176 31.8182 59.3748 32.4773 59.3748 33.2159C59.3748 33.9621 59.2176 34.625 58.9032 35.2045C58.5888 35.7841 58.1248 36.2405 57.5111 36.5739C56.8975 36.9034 56.1418 37.0682 55.2441 37.0682H52.352V35.3352H54.96C55.4827 35.3352 55.9107 35.2443 56.2441 35.0625C56.5774 34.8807 56.8236 34.6307 56.9827 34.3125C57.1456 33.9943 57.227 33.6288 57.227 33.2159C57.227 32.803 57.1456 32.4394 56.9827 32.125C56.8236 31.8106 56.5755 31.5663 56.2384 31.392C55.9051 31.214 55.4751 31.125 54.9486 31.125H53.0168V41H50.9089ZM63.1076 29.3636V41H61.0508V29.3636H63.1076ZM67.6701 41.1761C67.117 41.1761 66.6189 41.0777 66.1757 40.8807C65.7363 40.6799 65.3879 40.3845 65.1303 39.9943C64.8765 39.6042 64.7496 39.1231 64.7496 38.5511C64.7496 38.0587 64.8405 37.6515 65.0223 37.3295C65.2041 37.0076 65.4523 36.75 65.7666 36.5568C66.081 36.3636 66.4352 36.2178 66.8291 36.1193C67.2269 36.017 67.6379 35.9432 68.0621 35.8977C68.5735 35.8447 68.9882 35.7973 69.3064 35.7557C69.6246 35.7102 69.8557 35.642 69.9996 35.5511C70.1473 35.4564 70.2212 35.3106 70.2212 35.1136V35.0795C70.2212 34.6515 70.0943 34.3201 69.8405 34.0852C69.5867 33.8504 69.2212 33.733 68.7439 33.733C68.2401 33.733 67.8405 33.8428 67.5451 34.0625C67.2534 34.2822 67.0564 34.5417 66.9541 34.8409L65.0337 34.5682C65.1852 34.0379 65.4352 33.5947 65.7837 33.2386C66.1322 32.8788 66.5583 32.6098 67.0621 32.4318C67.5659 32.25 68.1227 32.1591 68.7326 32.1591C69.153 32.1591 69.5716 32.2083 69.9882 32.3068C70.4049 32.4053 70.7856 32.5682 71.1303 32.7955C71.475 33.0189 71.7515 33.3239 71.9598 33.7102C72.172 34.0966 72.278 34.5795 72.278 35.1591V41H70.3007V39.8011H70.2326C70.1076 40.0436 69.9314 40.2708 69.7041 40.483C69.4807 40.6913 69.1985 40.8598 68.8576 40.9886C68.5204 41.1136 68.1246 41.1761 67.6701 41.1761ZM68.2041 39.6648C68.617 39.6648 68.975 39.5833 69.278 39.4205C69.581 39.2538 69.814 39.0341 69.9769 38.7614C70.1435 38.4886 70.2269 38.1913 70.2269 37.8693V36.8409C70.1625 36.8939 70.0526 36.9432 69.8973 36.9886C69.7458 37.0341 69.5754 37.0739 69.386 37.108C69.1966 37.142 69.0091 37.1723 68.8235 37.1989C68.6379 37.2254 68.4769 37.2481 68.3405 37.267C68.0337 37.3087 67.7591 37.3769 67.5166 37.4716C67.2742 37.5663 67.0829 37.6989 66.9428 37.8693C66.8026 38.036 66.7326 38.2519 66.7326 38.517C66.7326 38.8958 66.8708 39.1818 67.1473 39.375C67.4238 39.5682 67.7761 39.6648 68.2041 39.6648ZM78.6401 32.2727V33.8636H73.6231V32.2727H78.6401ZM74.8617 30.1818H76.9186V38.375C76.9186 38.6515 76.9602 38.8636 77.0436 39.0114C77.1307 39.1553 77.2443 39.2538 77.3845 39.3068C77.5246 39.3598 77.6799 39.3864 77.8504 39.3864C77.9792 39.3864 78.0966 39.3769 78.2026 39.358C78.3125 39.339 78.3958 39.322 78.4526 39.3068L78.7992 40.9148C78.6894 40.9527 78.5322 40.9943 78.3276 41.0398C78.1269 41.0852 77.8807 41.1117 77.589 41.1193C77.0739 41.1345 76.6098 41.0568 76.197 40.8864C75.7841 40.7121 75.4564 40.4432 75.214 40.0795C74.9754 39.7159 74.858 39.2614 74.8617 38.7159V30.1818ZM84.7168 32.2727V33.8636H79.5577V32.2727H84.7168ZM80.8475 41V31.4489C80.8475 30.8617 80.9687 30.3731 81.2111 29.983C81.4573 29.5928 81.7868 29.3011 82.1997 29.108C82.6126 28.9148 83.0709 28.8182 83.5747 28.8182C83.9308 28.8182 84.2471 28.8466 84.5236 28.9034C84.8001 28.9602 85.0046 29.0114 85.1372 29.0568L84.7281 30.6477C84.641 30.6212 84.5312 30.5947 84.3986 30.5682C84.266 30.5379 84.1183 30.5227 83.9554 30.5227C83.5728 30.5227 83.302 30.6155 83.1429 30.8011C82.9876 30.983 82.91 31.2443 82.91 31.5852V41H80.8475ZM89.7423 41.1705C88.89 41.1705 88.1514 40.983 87.5264 40.608C86.9014 40.233 86.4165 39.7083 86.0718 39.0341C85.7309 38.3598 85.5604 37.572 85.5604 36.6705C85.5604 35.7689 85.7309 34.9792 86.0718 34.3011C86.4165 33.6231 86.9014 33.0966 87.5264 32.7216C88.1514 32.3466 88.89 32.1591 89.7423 32.1591C90.5945 32.1591 91.3332 32.3466 91.9582 32.7216C92.5832 33.0966 93.0661 33.6231 93.407 34.3011C93.7517 34.9792 93.9241 35.7689 93.9241 36.6705C93.9241 37.572 93.7517 38.3598 93.407 39.0341C93.0661 39.7083 92.5832 40.233 91.9582 40.608C91.3332 40.983 90.5945 41.1705 89.7423 41.1705ZM89.7536 39.5227C90.2157 39.5227 90.6021 39.3958 90.9127 39.142C91.2233 38.8845 91.4544 38.5398 91.6059 38.108C91.7612 37.6761 91.8389 37.1951 91.8389 36.6648C91.8389 36.1307 91.7612 35.6477 91.6059 35.2159C91.4544 34.7803 91.2233 34.4337 90.9127 34.1761C90.6021 33.9186 90.2157 33.7898 89.7536 33.7898C89.2801 33.7898 88.8862 33.9186 88.5718 34.1761C88.2612 34.4337 88.0282 34.7803 87.8729 35.2159C87.7214 35.6477 87.6457 36.1307 87.6457 36.6648C87.6457 37.1951 87.7214 37.6761 87.8729 38.108C88.0282 38.5398 88.2612 38.8845 88.5718 39.142C88.8862 39.3958 89.2801 39.5227 89.7536 39.5227ZM95.6058 41V32.2727H97.6001V33.7273H97.691C97.8501 33.2235 98.1229 32.8352 98.5092 32.5625C98.8994 32.286 99.3445 32.1477 99.8445 32.1477C99.9581 32.1477 100.085 32.1534 100.225 32.1648C100.369 32.1723 100.488 32.1856 100.583 32.2045V34.0966C100.496 34.0663 100.358 34.0398 100.168 34.017C99.9827 33.9905 99.8028 33.9773 99.6285 33.9773C99.2535 33.9773 98.9164 34.0587 98.6172 34.2216C98.3217 34.3807 98.0888 34.6023 97.9183 34.8864C97.7479 35.1705 97.6626 35.4981 97.6626 35.8693V41H95.6058ZM101.886 41V32.2727H103.851V33.7557H103.954C104.136 33.2557 104.437 32.8655 104.857 32.5852C105.278 32.3011 105.78 32.1591 106.363 32.1591C106.954 32.1591 107.452 32.303 107.857 32.5909C108.266 32.875 108.554 33.2633 108.721 33.7557H108.812C109.005 33.2708 109.331 32.8845 109.789 32.5966C110.251 32.3049 110.798 32.1591 111.431 32.1591C112.234 32.1591 112.889 32.4129 113.397 32.9205C113.905 33.428 114.158 34.1686 114.158 35.142V41H112.096V35.4602C112.096 34.9186 111.952 34.5227 111.664 34.2727C111.376 34.0189 111.024 33.892 110.607 33.892C110.111 33.892 109.723 34.0473 109.442 34.358C109.166 34.6648 109.028 35.0644 109.028 35.5568V41H107.011V35.375C107.011 34.9242 106.874 34.5644 106.601 34.2955C106.333 34.0265 105.98 33.892 105.545 33.892C105.249 33.892 104.98 33.9678 104.738 34.1193C104.495 34.267 104.302 34.4773 104.158 34.75C104.014 35.0189 103.942 35.3333 103.942 35.6932V41H101.886Z" fill="white"/>
<rect x="16.5" y="21.5" width="111" height="27" rx="13.5" stroke="white"/>
<g filter="url(#filter0_f_19_810)">
<path d="M121.13 14.4569C121.156 14.2448 121.463 14.2448 121.488 14.4569L121.7 16.2362C121.972 18.5337 123.784 20.3451 126.081 20.6177L127.86 20.8288C128.072 20.854 128.072 21.1618 127.86 21.187L126.081 21.3981C123.784 21.6707 121.972 23.4821 121.7 25.7796L121.488 27.5588C121.463 27.771 121.156 27.771 121.13 27.5588L120.919 25.7796C120.647 23.4821 118.835 21.6707 116.538 21.3981L114.758 21.187C114.546 21.1618 114.546 20.854 114.758 20.8288L116.538 20.6177C118.835 20.3451 120.647 18.5337 120.919 16.2362L121.13 14.4569Z" fill="white"/>
</g>
<path d="M121.13 14.4569C121.156 14.2448 121.463 14.2448 121.488 14.4569L121.7 16.2362C121.972 18.5337 123.784 20.3451 126.081 20.6177L127.86 20.8288C128.072 20.854 128.072 21.1618 127.86 21.187L126.081 21.3981C123.784 21.6707 121.972 23.4821 121.7 25.7796L121.488 27.5588C121.463 27.771 121.156 27.771 121.13 27.5588L120.919 25.7796C120.647 23.4821 118.835 21.6707 116.538 21.3981L114.758 21.187C114.546 21.1618 114.546 20.854 114.758 20.8288L116.538 20.6177C118.835 20.3451 120.647 18.5337 120.919 16.2362L121.13 14.4569Z" fill="white"/>
<g filter="url(#filter1_f_19_810)">
<path d="M21.1303 40.4569C21.1555 40.2448 21.4633 40.2448 21.4885 40.4569L21.6996 42.2362C21.9722 44.5337 23.7836 46.3451 26.0811 46.6177L27.8604 46.8288C28.0725 46.854 28.0725 47.1618 27.8604 47.187L26.0811 47.3981C23.7836 47.6707 21.9722 49.4821 21.6996 51.7796L21.4885 53.5588C21.4633 53.771 21.1555 53.771 21.1303 53.5588L20.9192 51.7796C20.6466 49.4821 18.8352 47.6707 16.5377 47.3981L14.7584 47.187C14.5463 47.1618 14.5463 46.854 14.7584 46.8288L16.5377 46.6177C18.8352 46.3451 20.6466 44.5337 20.9192 42.2362L21.1303 40.4569Z" fill="white"/>
</g>
<path d="M21.1303 40.4569C21.1555 40.2448 21.4633 40.2448 21.4885 40.4569L21.6996 42.2362C21.9722 44.5337 23.7836 46.3451 26.0811 46.6177L27.8604 46.8288C28.0725 46.854 28.0725 47.1618 27.8604 47.187L26.0811 47.3981C23.7836 47.6707 21.9722 49.4821 21.6996 51.7796L21.4885 53.5588C21.4633 53.771 21.1555 53.771 21.1303 53.5588L20.9192 51.7796C20.6466 49.4821 18.8352 47.6707 16.5377 47.3981L14.7584 47.187C14.5463 47.1618 14.5463 46.854 14.7584 46.8288L16.5377 46.6177C18.8352 46.3451 20.6466 44.5337 20.9192 42.2362L21.1303 40.4569Z" fill="white"/>
<defs>
<filter id="filter0_f_19_810" x="100.599" y="0.297852" width="41.4202" height="41.42" filterUnits="userSpaceOnUse" color-interpolation-filters="sRGB">
<feFlood flood-opacity="0" result="BackgroundImageFix"/>
<feBlend mode="normal" in="SourceGraphic" in2="BackgroundImageFix" result="shape"/>
<feGaussianBlur stdDeviation="7" result="effect1_foregroundBlur_19_810"/>
</filter>
<filter id="filter1_f_19_810" x="0.599365" y="26.2979" width="41.4202" height="41.42" filterUnits="userSpaceOnUse" color-interpolation-filters="sRGB">
<feFlood flood-opacity="0" result="BackgroundImageFix"/>
<feBlend mode="normal" in="SourceGraphic" in2="BackgroundImageFix" result="shape"/>
<feGaussianBlur stdDeviation="7" result="effect1_foregroundBlur_19_810"/>
</filter>
</defs>
</svg>
