<svg width="33" height="33" viewBox="0 0 33 33" fill="none" xmlns="http://www.w3.org/2000/svg">
<path d="M28.8202 16.7278L28.6068 16.4344C28.2335 15.9811 27.7935 15.6211 27.2868 15.3544C26.6068 14.9678 25.8335 14.7678 25.0335 14.7678H8.4335C7.6335 14.7678 6.8735 14.9678 6.18017 15.3544C5.66017 15.6344 5.19351 16.0211 4.80684 16.5011C4.04684 17.4744 3.68684 18.6744 3.80684 19.8744L4.30017 26.1011C4.47351 27.9811 4.70017 30.3011 8.92684 30.3011H24.5535C28.7802 30.3011 28.9935 27.9811 29.1802 26.0878L29.6735 19.8878C29.7935 18.7678 29.5002 17.6478 28.8202 16.7278ZM19.9268 24.0878H13.5402C13.0202 24.0878 12.6068 23.6611 12.6068 23.1544C12.6068 22.6478 13.0202 22.2211 13.5402 22.2211H19.9268C20.4468 22.2211 20.8602 22.6478 20.8602 23.1544C20.8602 23.6744 20.4468 24.0878 19.9268 24.0878Z" fill="white"/>
<path opacity="0.4" d="M5.24683 16.0478C5.54016 15.7811 5.83349 15.5411 6.18016 15.3544C6.86016 14.9678 7.63349 14.7678 8.43349 14.7678H25.0468C25.8468 14.7678 26.6068 14.9678 27.3002 15.3544C27.6468 15.5411 27.9535 15.7811 28.2335 16.0611V15.3544V14.0611C28.2335 9.30111 26.7802 7.84778 22.0202 7.84778H18.8468C18.2602 7.84778 18.2468 7.83445 17.9002 7.38111L16.3002 5.23445C15.5402 4.24778 14.9402 3.63445 13.0335 3.63445H11.4602C6.70016 3.63445 5.24683 5.08778 5.24683 9.84778V15.3678V16.0478Z" fill="white"/>
</svg>
