<svg width="29" height="29" viewBox="0 0 29 29" fill="none" xmlns="http://www.w3.org/2000/svg">
<rect x="28.4805" y="28.459" width="28" height="28" rx="3" transform="rotate(-180 28.4805 28.459)" fill="#8040E4" fill-opacity="0.06"/>
<mask id="mask0_608_3483" style="mask-type:alpha" maskUnits="userSpaceOnUse" x="0" y="0" width="29" height="29">
<rect x="28.4805" y="28.459" width="28" height="28" transform="rotate(-180 28.4805 28.459)" fill="#D9D9D9"/>
</mask>
<g mask="url(#mask0_608_3483)">
<path d="M15.8815 14.4587L11.3315 9.90872C11.1176 9.69483 11.0107 9.42261 11.0107 9.09206C11.0107 8.7615 11.1176 8.48928 11.3315 8.27539C11.5454 8.0615 11.8176 7.95456 12.1482 7.95456C12.4787 7.95456 12.751 8.0615 12.9648 8.27539L18.3315 13.6421C18.4482 13.7587 18.5308 13.8851 18.5794 14.0212C18.628 14.1573 18.6523 14.3032 18.6523 14.4587C18.6523 14.6143 18.628 14.7601 18.5794 14.8962C18.5308 15.0323 18.4482 15.1587 18.3315 15.2754L12.9648 20.6421C12.751 20.8559 12.4787 20.9629 12.1482 20.9629C11.8176 20.9629 11.5454 20.8559 11.3315 20.6421C11.1176 20.4282 11.0107 20.1559 11.0107 19.8254C11.0107 19.4948 11.1176 19.2226 11.3315 19.0087L15.8815 14.4587Z" fill="#1C1B1F"/>
</g>
</svg>
