<svg width="16" height="16" viewBox="0 0 16 16" fill="none" xmlns="http://www.w3.org/2000/svg">
<rect x="16" width="16" height="16" rx="8" transform="rotate(90 16 0)" fill="#F1F0FE"/>
<mask id="mask0_41_1353" style="mask-type:alpha" maskUnits="userSpaceOnUse" x="-8" y="0" width="24" height="24">
<rect x="16" width="24" height="24" transform="rotate(90 16 0)" fill="#D9D9D9"/>
</mask>
<g mask="url(#mask0_41_1353)">
<path d="M6.66732 3.87703C6.66732 3.51037 6.79787 3.19648 7.05898 2.93537C7.3201 2.67426 7.63398 2.5437 8.00065 2.5437C8.36732 2.5437 8.68121 2.67426 8.94232 2.93537C9.20343 3.19648 9.33398 3.51037 9.33398 3.87703C9.33398 4.2437 9.20343 4.55759 8.94232 4.8187C8.68121 5.07981 8.36732 5.21037 8.00065 5.21037C7.63398 5.21037 7.3201 5.07981 7.05898 4.8187C6.79787 4.55759 6.66732 4.2437 6.66732 3.87703ZM6.66732 7.87703C6.66732 7.51037 6.79787 7.19648 7.05898 6.93537C7.3201 6.67426 7.63398 6.5437 8.00065 6.5437C8.36732 6.5437 8.68121 6.67426 8.94232 6.93537C9.20343 7.19648 9.33398 7.51037 9.33398 7.87703C9.33398 8.2437 9.20343 8.55759 8.94232 8.8187C8.68121 9.07981 8.36732 9.21037 8.00065 9.21037C7.63398 9.21037 7.3201 9.07981 7.05898 8.8187C6.79787 8.55759 6.66732 8.2437 6.66732 7.87703ZM6.66732 11.877C6.66732 11.5104 6.79787 11.1965 7.05898 10.9354C7.3201 10.6743 7.63398 10.5437 8.00065 10.5437C8.36732 10.5437 8.68121 10.6743 8.94232 10.9354C9.20343 11.1965 9.33398 11.5104 9.33398 11.877C9.33398 12.2437 9.20343 12.5576 8.94232 12.8187C8.68121 13.0798 8.36732 13.2104 8.00065 13.2104C7.63398 13.2104 7.3201 13.0798 7.05898 12.8187C6.79787 12.5576 6.66732 12.2437 6.66732 11.877Z" fill="#1C1B1F"/>
</g>
</svg>
