<svg width="20" height="21" viewBox="0 0 20 21" fill="none" xmlns="http://www.w3.org/2000/svg">
<path d="M10 14.0588C8.275 14.0588 6.875 12.6588 6.875 10.9338C6.875 9.20884 8.275 7.80884 10 7.80884C11.725 7.80884 13.125 9.20884 13.125 10.9338C13.125 12.6588 11.725 14.0588 10 14.0588ZM10 9.05884C8.96667 9.05884 8.125 9.9005 8.125 10.9338C8.125 11.9672 8.96667 12.8088 10 12.8088C11.0333 12.8088 11.875 11.9672 11.875 10.9338C11.875 9.9005 11.0333 9.05884 10 9.05884Z" fill="white"/>
<path d="M12.675 19.4255C12.5 19.4255 12.325 19.4005 12.15 19.3588C11.6333 19.2171 11.2 18.8921 10.925 18.4338L10.825 18.2671C10.3333 17.4171 9.65829 17.4171 9.16663 18.2671L9.07496 18.4255C8.79996 18.8921 8.36663 19.2255 7.84996 19.3588C7.32496 19.5005 6.78329 19.4255 6.32496 19.1505L4.89163 18.3255C4.63977 18.1812 4.41884 17.9886 4.24146 17.7588C4.06409 17.5291 3.93375 17.2666 3.8579 16.9864C3.78205 16.7063 3.76218 16.4139 3.79942 16.126C3.83667 15.8381 3.9303 15.5604 4.07496 15.3088C4.31663 14.8838 4.38329 14.5005 4.24163 14.2588C4.09996 14.0171 3.74163 13.8755 3.24996 13.8755C2.03329 13.8755 1.04163 12.8838 1.04163 11.6671V10.2005C1.04163 8.98379 2.03329 7.99213 3.24996 7.99213C3.74163 7.99213 4.09996 7.85046 4.24163 7.60879C4.38329 7.36713 4.32496 6.98379 4.07496 6.55879C3.78329 6.05046 3.70829 5.45046 3.85829 4.88379C4.00829 4.30879 4.37496 3.83379 4.89163 3.54213L6.33329 2.71713C7.27496 2.15879 8.51663 2.48379 9.08329 3.44212L9.18329 3.60879C9.67496 4.45879 10.35 4.45879 10.8416 3.60879L10.9333 3.45046C11.5 2.48379 12.7416 2.15879 13.6916 2.72546L15.125 3.55046C15.3768 3.69476 15.5977 3.8873 15.7751 4.11707C15.9525 4.34683 16.0828 4.60931 16.1587 4.88949C16.2345 5.16966 16.2544 5.46205 16.2172 5.74991C16.1799 6.03778 16.0863 6.31548 15.9416 6.56713C15.7 6.99213 15.6333 7.37546 15.775 7.61713C15.9166 7.85879 16.275 8.00046 16.7666 8.00046C17.9833 8.00046 18.975 8.99212 18.975 10.2088V11.6755C18.975 12.8921 17.9833 13.8838 16.7666 13.8838C16.275 13.8838 15.9166 14.0255 15.775 14.2671C15.6333 14.5088 15.6916 14.8921 15.9416 15.3171C16.2333 15.8255 16.3166 16.4255 16.1583 16.9921C16.0859 17.2741 15.9569 17.5384 15.7793 17.769C15.6017 17.9996 15.3791 18.1918 15.125 18.3338L13.6833 19.1588C13.3666 19.3338 13.025 19.4255 12.675 19.4255ZM9.99996 16.3421C10.7416 16.3421 11.4333 16.8088 11.9083 17.6338L12 17.7921C12.1 17.9671 12.2666 18.0921 12.4666 18.1421C12.6666 18.1921 12.8666 18.1671 13.0333 18.0671L14.475 17.2338C14.695 17.1069 14.856 16.8983 14.9231 16.6533C14.9902 16.4083 14.9579 16.1468 14.8333 15.9255C14.3583 15.1088 14.3 14.2671 14.6666 13.6255C15.0333 12.9838 15.7916 12.6171 16.7416 12.6171C17.275 12.6171 17.7 12.1921 17.7 11.6588V10.1921C17.7 9.66712 17.275 9.23379 16.7416 9.23379C15.7916 9.23379 15.0333 8.86713 14.6666 8.22546C14.3 7.58379 14.3583 6.74213 14.8333 5.92546C14.9583 5.70879 14.9916 5.45046 14.925 5.20046C14.8583 4.95046 14.7 4.75046 14.4833 4.61713L13.0416 3.79212C12.9547 3.74113 12.8585 3.70778 12.7586 3.69401C12.6587 3.68023 12.5571 3.68628 12.4596 3.71183C12.3621 3.73737 12.2705 3.7819 12.1902 3.84287C12.1099 3.90384 12.0424 3.98004 11.9916 4.06712L11.9 4.22546C11.425 5.05046 10.7333 5.51712 9.99163 5.51712C9.24996 5.51712 8.55829 5.05046 8.08329 4.22546L7.99163 4.05879C7.88807 3.88849 7.72213 3.76532 7.52914 3.71552C7.33614 3.66571 7.13133 3.6932 6.95829 3.79212L5.51663 4.62546C5.29661 4.75237 5.13556 4.96097 5.06846 5.20595C5.00137 5.45093 5.03365 5.71248 5.15829 5.93379C5.63329 6.75046 5.69163 7.59213 5.32496 8.23379C4.95829 8.87546 4.19996 9.24213 3.24996 9.24213C2.71663 9.24213 2.29163 9.66712 2.29163 10.2005V11.6671C2.29163 12.1921 2.71663 12.6255 3.24996 12.6255C4.19996 12.6255 4.95829 12.9921 5.32496 13.6338C5.69163 14.2755 5.63329 15.1171 5.15829 15.9338C5.03329 16.1505 4.99996 16.4088 5.06663 16.6588C5.13329 16.9088 5.29163 17.1088 5.50829 17.2421L6.94996 18.0671C7.12496 18.1755 7.33329 18.2005 7.52496 18.1505C7.72496 18.1005 7.89163 17.9671 7.99996 17.7921L8.09163 17.6338C8.56663 16.8171 9.25829 16.3421 9.99996 16.3421Z" fill="white"/>
</svg>
