<svg width="21" height="21" viewBox="0 0 21 21" fill="none" xmlns="http://www.w3.org/2000/svg">
<mask id="mask0_1_191" style="mask-type:alpha" maskUnits="userSpaceOnUse" x="0" y="0" width="21" height="21">
<rect x="0.182373" y="0.949219" width="20" height="20" fill="#D9D9D9"/>
</mask>
<g mask="url(#mask0_1_191)">
<path d="M10.1824 12.0117L12.599 14.4284C12.7518 14.5812 12.9289 14.6541 13.1303 14.6471C13.3317 14.6402 13.5088 14.5603 13.6615 14.4076C13.8143 14.2548 13.8907 14.0777 13.8907 13.8763C13.8907 13.6749 13.8143 13.4981 13.6615 13.3459L11.2449 10.9388L13.6615 8.53166C13.8143 8.37948 13.8907 8.20269 13.8907 8.0013C13.8907 7.79991 13.8143 7.62283 13.6615 7.47005C13.5088 7.31727 13.3317 7.24089 13.1303 7.24089C12.9289 7.24089 12.7518 7.31727 12.599 7.47005L10.1824 9.88672L7.76571 7.47005C7.61293 7.31727 7.43932 7.24089 7.24487 7.24089C7.05043 7.24089 6.87682 7.31727 6.72404 7.47005C6.57126 7.62283 6.49487 7.79991 6.49487 8.0013C6.49487 8.20269 6.57066 8.37977 6.72223 8.53255L9.11987 10.9492L6.70321 13.3659C6.55043 13.5187 6.47751 13.6923 6.48446 13.8867C6.4914 14.0812 6.57126 14.2548 6.72404 14.4076C6.87682 14.5603 7.0539 14.6367 7.25529 14.6367C7.45668 14.6367 7.63316 14.5609 7.78473 14.4094L10.1824 12.0117ZM10.1881 18.9492C9.08707 18.9492 8.05043 18.7409 7.07821 18.3242C6.10598 17.9076 5.25529 17.3346 4.52612 16.6055C3.79696 15.8763 3.22404 15.0259 2.80737 14.0543C2.39071 13.0826 2.18237 12.0444 2.18237 10.9397C2.18237 9.83493 2.39071 8.79991 2.80737 7.83464C3.22404 6.86936 3.79696 6.02214 4.52612 5.29297C5.25529 4.5638 6.10569 3.99089 7.07733 3.57422C8.04898 3.15755 9.08718 2.94922 10.1919 2.94922C11.2967 2.94922 12.3317 3.15755 13.297 3.57422C14.2622 3.99089 15.1095 4.5638 15.8386 5.29297C16.5678 6.02214 17.1407 6.87091 17.5574 7.8393C17.974 8.8077 18.1824 9.84243 18.1824 10.9435C18.1824 12.0445 17.974 13.0812 17.5574 14.0534C17.1407 15.0256 16.5678 15.8763 15.8386 16.6055C15.1095 17.3346 14.2607 17.9076 13.2923 18.3242C12.3239 18.7409 11.2892 18.9492 10.1881 18.9492Z" fill="#CBD5E0"/>
</g>
</svg>
