<svg width="78" height="63" viewBox="0 0 78 63" fill="none" xmlns="http://www.w3.org/2000/svg">
<g filter="url(#filter0_d_14_2859)">
<rect x="23" y="20" width="32" height="17" rx="8.5" fill="url(#paint0_linear_14_2859)" shape-rendering="crispEdges"/>
<path d="M28.4292 34V23.8182H32.4463C33.2185 23.8182 33.8764 23.9657 34.42 24.2607C34.9636 24.5523 35.3779 24.9583 35.6629 25.4787C35.9512 25.9957 36.0954 26.5923 36.0954 27.2685C36.0954 27.9446 35.9496 28.5412 35.6579 29.0582C35.3663 29.5753 34.9437 29.978 34.3902 30.2663C33.84 30.5547 33.1738 30.6989 32.3916 30.6989H29.8312V28.9737H32.0436C32.4579 28.9737 32.7993 28.9025 33.0677 28.7599C33.3395 28.6141 33.5417 28.4136 33.6743 28.1584C33.8101 27.8999 33.8781 27.6032 33.8781 27.2685C33.8781 26.9304 33.8101 26.6354 33.6743 26.3835C33.5417 26.1283 33.3395 25.9311 33.0677 25.7919C32.7959 25.6494 32.4512 25.5781 32.0336 25.5781H30.5819V34H28.4292ZM37.3979 34V26.3636H39.4512V27.696H39.5307C39.6699 27.2221 39.9036 26.8641 40.2317 26.6222C40.5598 26.3769 40.9377 26.2543 41.3652 26.2543C41.4713 26.2543 41.5856 26.2609 41.7083 26.2741C41.8309 26.2874 41.9386 26.3056 42.0314 26.3288V28.2081C41.932 28.1783 41.7944 28.1518 41.6188 28.1286C41.4431 28.1054 41.2824 28.0938 41.1365 28.0938C40.825 28.0938 40.5466 28.1617 40.3013 28.2976C40.0594 28.4302 39.8671 28.6158 39.7246 28.8544C39.5854 29.093 39.5158 29.3681 39.5158 29.6797V34H37.3979ZM46.1652 34.1491C45.393 34.1491 44.7251 33.9851 44.1617 33.657C43.6016 33.3255 43.169 32.8648 42.8641 32.2749C42.5592 31.6816 42.4067 30.9938 42.4067 30.2116C42.4067 29.4228 42.5592 28.7334 42.8641 28.1435C43.169 27.5502 43.6016 27.0895 44.1617 26.7614C44.7251 26.4299 45.393 26.2642 46.1652 26.2642C46.9375 26.2642 47.6037 26.4299 48.1638 26.7614C48.7273 27.0895 49.1614 27.5502 49.4664 28.1435C49.7713 28.7334 49.9238 29.4228 49.9238 30.2116C49.9238 30.9938 49.7713 31.6816 49.4664 32.2749C49.1614 32.8648 48.7273 33.3255 48.1638 33.657C47.6037 33.9851 46.9375 34.1491 46.1652 34.1491ZM46.1752 32.5085C46.5265 32.5085 46.8198 32.4091 47.0551 32.2102C47.2905 32.008 47.4678 31.733 47.5871 31.3849C47.7097 31.0369 47.7711 30.6409 47.7711 30.1967C47.7711 29.7526 47.7097 29.3565 47.5871 29.0085C47.4678 28.6605 47.2905 28.3854 47.0551 28.1832C46.8198 27.9811 46.5265 27.88 46.1752 27.88C45.8205 27.88 45.5222 27.9811 45.2803 28.1832C45.0417 28.3854 44.861 28.6605 44.7384 29.0085C44.6191 29.3565 44.5594 29.7526 44.5594 30.1967C44.5594 30.6409 44.6191 31.0369 44.7384 31.3849C44.861 31.733 45.0417 32.008 45.2803 32.2102C45.5222 32.4091 45.8205 32.5085 46.1752 32.5085Z" fill="white"/>
<rect x="22.5" y="19.5" width="33" height="18" rx="9" stroke="white" shape-rendering="crispEdges"/>
</g>
<defs>
<filter id="filter0_d_14_2859" x="0" y="0" width="78" height="63" filterUnits="userSpaceOnUse" color-interpolation-filters="sRGB">
<feFlood flood-opacity="0" result="BackgroundImageFix"/>
<feColorMatrix in="SourceAlpha" type="matrix" values="0 0 0 0 0 0 0 0 0 0 0 0 0 0 0 0 0 0 127 0" result="hardAlpha"/>
<feOffset dy="3"/>
<feGaussianBlur stdDeviation="11"/>
<feComposite in2="hardAlpha" operator="out"/>
<feColorMatrix type="matrix" values="0 0 0 0 1 0 0 0 0 0.733333 0 0 0 0 0.180392 0 0 0 0.4 0"/>
<feBlend mode="normal" in2="BackgroundImageFix" result="effect1_dropShadow_14_2859"/>
<feBlend mode="normal" in="SourceGraphic" in2="effect1_dropShadow_14_2859" result="shape"/>
</filter>
<linearGradient id="paint0_linear_14_2859" x1="28.4261" y1="20" x2="57.7533" y2="43.2029" gradientUnits="userSpaceOnUse">
<stop stop-color="#F7A62C"/>
<stop offset="0.6698" stop-color="#F7952C"/>
<stop offset="1" stop-color="#F78D2C"/>
</linearGradient>
</defs>
</svg>
