<svg width="21" height="21" viewBox="0 0 21 21" fill="none" xmlns="http://www.w3.org/2000/svg">
<mask id="mask0_0_3654" style="mask-type:alpha" maskUnits="userSpaceOnUse" x="0" y="0" width="21" height="21">
<rect x="0.591797" y="0.101562" width="20" height="20" fill="#D9D9D9"/>
</mask>
<g mask="url(#mask0_0_3654)">
<path d="M3.92512 16.7682C3.46679 16.7682 3.07443 16.605 2.74804 16.2787C2.42165 15.9523 2.25845 15.5599 2.25845 15.1016V5.10157C2.25845 4.64324 2.42165 4.25088 2.74804 3.92449C3.07443 3.5981 3.46679 3.43491 3.92512 3.43491H8.92512L10.5918 5.10157H17.2585C17.7168 5.10157 18.1091 5.26477 18.4355 5.59116C18.7619 5.91754 18.9251 6.30991 18.9251 6.76824V15.1016C18.9251 15.5599 18.7619 15.9523 18.4355 16.2787C18.1091 16.605 17.7168 16.7682 17.2585 16.7682H3.92512Z" fill="#1C1B1F"/>
<path d="M3.92512 16.7682C3.46679 16.7682 3.07443 16.605 2.74804 16.2787C2.42165 15.9523 2.25845 15.5599 2.25845 15.1016V5.10157C2.25845 4.64324 2.42165 4.25088 2.74804 3.92449C3.07443 3.5981 3.46679 3.43491 3.92512 3.43491H8.92512L10.5918 5.10157H17.2585C17.7168 5.10157 18.1091 5.26477 18.4355 5.59116C18.7619 5.91754 18.9251 6.30991 18.9251 6.76824V15.1016C18.9251 15.5599 18.7619 15.9523 18.4355 16.2787C18.1091 16.605 17.7168 16.7682 17.2585 16.7682H3.92512Z" fill="url(#paint0_linear_0_3654)"/>
<path d="M3.92512 16.7682C3.46679 16.7682 3.07443 16.605 2.74804 16.2787C2.42165 15.9523 2.25845 15.5599 2.25845 15.1016V5.10157C2.25845 4.64324 2.42165 4.25088 2.74804 3.92449C3.07443 3.5981 3.46679 3.43491 3.92512 3.43491H8.92512L10.5918 5.10157H17.2585C17.7168 5.10157 18.1091 5.26477 18.4355 5.59116C18.7619 5.91754 18.9251 6.30991 18.9251 6.76824V15.1016C18.9251 15.5599 18.7619 15.9523 18.4355 16.2787C18.1091 16.605 17.7168 16.7682 17.2585 16.7682H3.92512Z" fill="url(#paint1_linear_0_3654)"/>
</g>
<defs>
<linearGradient id="paint0_linear_0_3654" x1="0.834969" y1="-3.50267" x2="18.674" y2="-3.49593" gradientUnits="userSpaceOnUse">
<stop stop-color="#893BE0"/>
<stop offset="1" stop-color="#624EEF"/>
</linearGradient>
<linearGradient id="paint1_linear_0_3654" x1="3.41786" y1="3.43481" x2="16.6881" y2="1.69301" gradientUnits="userSpaceOnUse">
<stop stop-color="#4A44DD"/>
<stop offset="1" stop-color="#2E6DE4"/>
</linearGradient>
</defs>
</svg>
