<svg width="21" height="17" viewBox="0 0 21 17" fill="none" xmlns="http://www.w3.org/2000/svg">
<path d="M2.17969 16.2715C1.62969 16.2715 1.15885 16.0757 0.767188 15.684C0.375521 15.2923 0.179688 14.8215 0.179688 14.2715V2.27148C0.179688 1.72148 0.375521 1.25065 0.767188 0.858984C1.15885 0.467318 1.62969 0.271484 2.17969 0.271484H18.1797C18.7297 0.271484 19.2005 0.467318 19.5922 0.858984C19.9839 1.25065 20.1797 1.72148 20.1797 2.27148V14.2715C20.1797 14.8215 19.9839 15.2923 19.5922 15.684C19.2005 16.0757 18.7297 16.2715 18.1797 16.2715H2.17969ZM10.1797 9.27148L18.1797 4.27148V2.27148L10.1797 7.27148L2.17969 2.27148V4.27148L10.1797 9.27148Z" fill="#A0AEC0"/>
</svg>
