<svg width="33" height="33" viewBox="0 0 33 33" fill="none" xmlns="http://www.w3.org/2000/svg">
<path opacity="0.4" d="M29.6196 14.8878L28.3129 20.4611C27.1929 25.2744 24.9796 27.2211 20.8196 26.8211C20.1529 26.7678 19.4329 26.6478 18.6596 26.4611L16.4196 25.9278C10.8596 24.6078 9.13958 21.8611 10.4462 16.2878L11.7529 10.7011C12.0196 9.56776 12.3396 8.5811 12.7396 7.76776C14.2996 4.5411 16.9529 3.67443 21.4062 4.72776L23.6329 5.24776C29.2196 6.55443 30.9262 9.31443 29.6196 14.8878Z" fill="white"/>
<path d="M20.8195 26.8211C19.9928 27.3811 18.9528 27.8478 17.6861 28.2611L15.5795 28.9544C10.2861 30.6611 7.49947 29.2344 5.77947 23.9411L4.0728 18.6744C2.36614 13.3811 3.77947 10.5811 9.0728 8.87443L11.1795 8.18109C11.7261 8.00776 12.2461 7.86109 12.7395 7.76776C12.3395 8.58109 12.0195 9.56776 11.7528 10.7011L10.4461 16.2878C9.13947 21.8611 10.8595 24.6078 16.4195 25.9278L18.6595 26.4611C19.4328 26.6478 20.1528 26.7678 20.8195 26.8211Z" fill="white"/>
<path d="M24.0596 14.9811C23.9796 14.9811 23.8996 14.9678 23.8062 14.9544L17.3396 13.3144C16.8062 13.1811 16.4862 12.6344 16.6196 12.1011C16.7529 11.5678 17.2996 11.2478 17.8329 11.3811L24.2996 13.0211C24.8329 13.1544 25.1529 13.7011 25.0196 14.2344C24.9129 14.6744 24.4996 14.9811 24.0596 14.9811Z" fill="white"/>
<path d="M20.1528 19.4878C20.0728 19.4878 19.9928 19.4745 19.8995 19.4611L16.0195 18.4745C15.4862 18.3411 15.1662 17.7945 15.2995 17.2611C15.4328 16.7278 15.9795 16.4078 16.5128 16.5411L20.3928 17.5278C20.9262 17.6611 21.2462 18.2078 21.1128 18.7411C21.0062 19.1945 20.6062 19.4878 20.1528 19.4878Z" fill="white"/>
</svg>
