<svg width="20" height="20" viewBox="0 0 20 20" fill="none" xmlns="http://www.w3.org/2000/svg">
<mask id="mask0_6_58" style="mask-type:alpha" maskUnits="userSpaceOnUse" x="0" y="0" width="20" height="20">
<rect width="20" height="20" fill="#D9D9D9"/>
</mask>
<g mask="url(#mask0_6_58)">
<path d="M9.5 12L15 8.5L9.5 5V12ZM6.5 15C6.0875 15 5.73437 14.8531 5.44062 14.5594C5.14687 14.2656 5 13.9125 5 13.5V3.5C5 3.0875 5.14687 2.73438 5.44062 2.44063C5.73437 2.14688 6.0875 2 6.5 2H16.5C16.9125 2 17.2656 2.14688 17.5594 2.44063C17.8531 2.73438 18 3.0875 18 3.5V13.5C18 13.9125 17.8531 14.2656 17.5594 14.5594C17.2656 14.8531 16.9125 15 16.5 15H6.5ZM6.5 13.5H16.5V3.5H6.5V13.5ZM3.5 18C3.0875 18 2.73438 17.8531 2.44063 17.5594C2.14688 17.2656 2 16.9125 2 16.5V5H3.5V16.5H15V18H3.5Z" fill="white"/>
</g>
</svg>
