<svg width="33" height="33" viewBox="0 0 33 33" fill="none" xmlns="http://www.w3.org/2000/svg">
<path opacity="0.4" d="M20.4603 6.3011H13.0203C7.12695 6.3011 7.12695 9.43444 7.12695 12.1944V17.2478C7.12695 17.5411 7.26029 17.8078 7.48695 17.9811C7.71362 18.1544 8.02029 18.2211 8.30029 18.1411C8.90029 17.9811 9.64695 17.9011 10.5403 17.9011C11.4336 17.9011 11.6203 18.0078 12.1536 18.4078L13.367 19.6878C14.2336 20.6211 15.4736 21.1544 16.7536 21.1544C18.0336 21.1544 19.2603 20.6211 20.1403 19.6878L21.3536 18.4078C21.887 18.0078 22.0736 17.9011 22.967 17.9011C23.8603 17.9011 24.607 17.9811 25.207 18.1411C25.487 18.2211 25.7803 18.1544 26.0203 17.9811C26.247 17.8078 26.3803 17.5278 26.3803 17.2478V12.1944C26.3536 9.43444 26.3536 6.3011 20.4603 6.3011Z" fill="white"/>
<path d="M19.7737 10.0344C19.427 9.68778 18.8537 9.68778 18.507 10.0344L17.6404 10.9011V4.52778C17.6404 4.03445 17.227 3.63445 16.7337 3.63445C16.2404 3.63445 15.827 4.03445 15.827 4.52778V10.8878L14.9737 10.0344C14.627 9.68778 14.0537 9.68778 13.707 10.0344C13.3604 10.3811 13.3604 10.9544 13.707 11.3011L16.107 13.7011C16.1204 13.7144 16.1204 13.7144 16.1337 13.7144C16.2137 13.7811 16.2937 13.8478 16.4004 13.8878C16.507 13.9278 16.627 13.9544 16.747 13.9544C16.867 13.9544 16.9737 13.9278 17.0937 13.8878C17.2004 13.8478 17.307 13.7811 17.387 13.6878L19.787 11.2878C20.1204 10.9544 20.1204 10.3811 19.7737 10.0344Z" fill="white"/>
<path d="M25.6603 16.3411C24.9003 16.1411 24.007 16.0344 22.9403 16.0344C21.4603 16.0344 20.9136 16.3944 20.1536 16.9678C20.1136 16.9944 20.0736 17.0344 20.0336 17.0744L18.767 18.4211C17.7003 19.5411 15.7803 19.5544 14.7136 18.4078L13.447 17.0744C13.407 17.0344 13.367 16.9944 13.327 16.9678C12.567 16.3944 12.0203 16.0344 10.5403 16.0344C9.47364 16.0344 8.58031 16.1411 7.82031 16.3411C4.64697 17.1944 4.64697 19.7144 4.64697 21.9278V23.1678C4.64697 26.5144 4.64697 30.3011 11.7803 30.3011H21.7003C26.4336 30.3011 28.8336 27.9011 28.8336 23.1678V21.9278C28.8336 19.7144 28.8336 17.1944 25.6603 16.3411ZM19.847 25.5011H13.6336C13.127 25.5011 12.7136 25.0878 12.7136 24.5678C12.7136 24.0478 13.127 23.6344 13.6336 23.6344H19.847C20.3536 23.6344 20.767 24.0478 20.767 24.5678C20.767 25.0878 20.3536 25.5011 19.847 25.5011Z" fill="white"/>
<path opacity="0.4" d="M20.767 24.5678C20.767 25.0878 20.3536 25.5011 19.847 25.5011H13.6336C13.127 25.5011 12.7136 25.0878 12.7136 24.5678C12.7136 24.0478 13.127 23.6344 13.6336 23.6344H19.847C20.3536 23.6344 20.767 24.0478 20.767 24.5678Z" fill="white"/>
</svg>
