<svg width="25" height="25" viewBox="0 0 25 25" fill="none" xmlns="http://www.w3.org/2000/svg">
<g clip-path="url(#clip0_1_223)">
<path d="M12.8474 5.27148C14.4642 5.27148 15.9487 5.82501 17.1337 6.74554L20.7709 3.27557C18.6562 1.41144 15.8881 0.271484 12.8474 0.271484C8.23981 0.271484 4.24408 2.8714 2.23322 6.68134L6.27765 9.87427C7.25739 7.19086 9.82489 5.27148 12.8474 5.27148Z" fill="#F44336"/>
<path d="M24.7435 13.7733C24.806 13.2817 24.8474 12.7802 24.8474 12.2715C24.8474 11.4136 24.7537 10.5783 24.5826 9.77148H12.8474V14.7715H19.3336C18.8089 16.1353 17.8746 17.2892 16.6854 18.0909L20.7449 21.2958C22.8968 19.4069 24.3694 16.7618 24.7435 13.7733Z" fill="#2196F3"/>
<path d="M5.84741 12.2718C5.84741 11.4283 6.00427 10.6234 6.27765 9.87457L2.23322 6.68164C1.35175 8.35181 0.847412 10.252 0.847412 12.2718C0.847412 14.269 1.34247 16.1481 2.20563 17.8047L6.25519 14.6077C5.99585 13.8762 5.84741 13.0922 5.84741 12.2718Z" fill="#FFC107"/>
<path d="M12.8474 19.2715C9.80188 19.2715 7.21783 17.323 6.25519 14.6074L2.20563 17.8044C4.20667 21.645 8.21722 24.2715 12.8474 24.2715C15.8752 24.2715 18.6362 23.1467 20.7449 21.2958L16.6854 18.0909C15.5886 18.8304 14.2758 19.2715 12.8474 19.2715Z" fill="#00B060"/>
<path opacity="0.1" d="M12.8474 24.0219C9.31573 24.0219 6.14014 22.5647 3.89496 20.2432C6.09277 22.7097 9.28387 24.2719 12.8474 24.2719C16.378 24.2719 19.5427 22.7405 21.7355 20.3126C19.497 22.5965 16.3455 24.0219 12.8474 24.0219Z" fill="black"/>
<path opacity="0.1" d="M12.8474 14.5215V14.7715H19.3336L19.4349 14.5215H12.8474Z" fill="black"/>
<path d="M24.8419 12.4189C24.8427 12.3697 24.8474 12.3213 24.8474 12.2719C24.8474 12.2579 24.8452 12.2444 24.8452 12.2305C24.8445 12.2935 24.8413 12.3557 24.8419 12.4189Z" fill="#E6E6E6"/>
<path opacity="0.2" d="M12.8474 9.77148V10.0215H24.633C24.6172 9.93896 24.6 9.85339 24.5826 9.77148H12.8474Z" fill="white"/>
<path d="M24.5826 9.77148H12.8474V14.7715H19.3336C18.325 17.3931 15.8246 19.2715 12.8474 19.2715C8.98145 19.2715 5.84741 16.1375 5.84741 12.2715C5.84741 8.40546 8.98145 5.27148 12.8474 5.27148C14.2493 5.27148 15.5413 5.70215 16.6359 6.41217C16.8035 6.52106 16.9763 6.62329 17.1337 6.74554L20.7709 3.27557L20.6888 3.21246C18.5844 1.38855 15.851 0.271484 12.8474 0.271484C6.21997 0.271484 0.847412 5.64404 0.847412 12.2715C0.847412 18.8989 6.21997 24.2715 12.8474 24.2715C18.9651 24.2715 24.0029 19.6902 24.7435 13.7733C24.806 13.2817 24.8474 12.7802 24.8474 12.2715C24.8474 11.4136 24.7537 10.5783 24.5826 9.77148Z" fill="url(#paint0_linear_1_223)"/>
<path opacity="0.1" d="M16.6359 6.16217C15.5413 5.45215 14.2493 5.02148 12.8474 5.02148C8.98145 5.02148 5.84741 8.15546 5.84741 12.0215C5.84741 12.0637 5.84798 12.0966 5.84871 12.1387C5.91616 8.33099 9.02362 5.27148 12.8474 5.27148C14.2493 5.27148 15.5413 5.70215 16.6359 6.41217C16.8035 6.52106 16.9763 6.62329 17.1337 6.74554L20.7709 3.27557L17.1337 6.49554C16.9763 6.37329 16.8035 6.27106 16.6359 6.16217Z" fill="black"/>
<path opacity="0.2" d="M12.8474 0.521484C15.8224 0.521484 18.5303 1.61987 20.6267 3.41309L20.7709 3.27557L20.6609 3.17976C18.5564 1.35584 15.851 0.271484 12.8474 0.271484C6.21997 0.271484 0.847412 5.64404 0.847412 12.2715C0.847412 12.3137 0.853272 12.3544 0.853699 12.3965C0.921448 5.82733 6.26215 0.521484 12.8474 0.521484Z" fill="white"/>
</g>
<defs>
<linearGradient id="paint0_linear_1_223" x1="0.847412" y1="12.2715" x2="24.8474" y2="12.2715" gradientUnits="userSpaceOnUse">
<stop stop-color="white" stop-opacity="0.2"/>
<stop offset="1" stop-color="white" stop-opacity="0"/>
</linearGradient>
<clipPath id="clip0_1_223">
<rect width="24" height="24" fill="white" transform="translate(0.847412 0.271484)"/>
</clipPath>
</defs>
</svg>
