<svg width="24" height="25" viewBox="0 0 24 25" fill="none" xmlns="http://www.w3.org/2000/svg">
<path d="M22 12.2139C22 6.70387 17.51 2.21387 12 2.21387C6.49 2.21387 2 6.70387 2 12.2139C2 15.1139 3.25 17.7239 5.23 19.5539C5.23 19.5639 5.23 19.5639 5.22 19.5739C5.32 19.6739 5.44 19.7539 5.54 19.8439C5.6 19.8939 5.65 19.9439 5.71 19.9839C5.89 20.1339 6.09 20.2739 6.28 20.4139L6.48 20.5539C6.67 20.6839 6.87 20.8039 7.08 20.9139C7.15 20.9539 7.23 21.0039 7.3 21.0439C7.5 21.1539 7.71 21.2539 7.93 21.3439C8.01 21.3839 8.09 21.4239 8.17 21.4539C8.39 21.5439 8.61 21.6239 8.83 21.6939C8.91 21.7239 8.99 21.7539 9.07 21.7739C9.31 21.8439 9.55 21.9039 9.79 21.9639C9.86 21.9839 9.93 22.0039 10.01 22.0139C10.29 22.0739 10.57 22.1139 10.86 22.1439C10.9 22.1439 10.94 22.1539 10.98 22.1639C11.32 22.1939 11.66 22.2139 12 22.2139C12.34 22.2139 12.68 22.1939 13.01 22.1639C13.05 22.1639 13.09 22.1539 13.13 22.1439C13.42 22.1139 13.7 22.0739 13.98 22.0139C14.05 22.0039 14.12 21.9739 14.2 21.9639C14.44 21.9039 14.69 21.8539 14.92 21.7739C15 21.7439 15.08 21.7139 15.16 21.6939C15.38 21.6139 15.61 21.5439 15.82 21.4539C15.9 21.4239 15.98 21.3839 16.06 21.3439C16.27 21.2539 16.48 21.1539 16.69 21.0439C16.77 21.0039 16.84 20.9539 16.91 20.9139C17.11 20.7939 17.31 20.6839 17.51 20.5539C17.58 20.5139 17.64 20.4639 17.71 20.4139C17.91 20.2739 18.1 20.1339 18.28 19.9839C18.34 19.9339 18.39 19.8839 18.45 19.8439C18.56 19.7539 18.67 19.6639 18.77 19.5739C18.77 19.5639 18.77 19.5639 18.76 19.5539C20.75 17.7239 22 15.1139 22 12.2139ZM16.94 17.1839C14.23 15.3639 9.79 15.3639 7.06 17.1839C6.62 17.4739 6.26 17.8139 5.96 18.1839C4.38481 16.5961 3.50064 14.4504 3.5 12.2139C3.5 7.52387 7.31 3.71387 12 3.71387C16.69 3.71387 20.5 7.52387 20.5 12.2139C20.5 14.5339 19.56 16.6439 18.04 18.1839C17.75 17.8139 17.38 17.4739 16.94 17.1839Z" fill="black"/>
<path d="M22 12.2139C22 6.70387 17.51 2.21387 12 2.21387C6.49 2.21387 2 6.70387 2 12.2139C2 15.1139 3.25 17.7239 5.23 19.5539C5.23 19.5639 5.23 19.5639 5.22 19.5739C5.32 19.6739 5.44 19.7539 5.54 19.8439C5.6 19.8939 5.65 19.9439 5.71 19.9839C5.89 20.1339 6.09 20.2739 6.28 20.4139L6.48 20.5539C6.67 20.6839 6.87 20.8039 7.08 20.9139C7.15 20.9539 7.23 21.0039 7.3 21.0439C7.5 21.1539 7.71 21.2539 7.93 21.3439C8.01 21.3839 8.09 21.4239 8.17 21.4539C8.39 21.5439 8.61 21.6239 8.83 21.6939C8.91 21.7239 8.99 21.7539 9.07 21.7739C9.31 21.8439 9.55 21.9039 9.79 21.9639C9.86 21.9839 9.93 22.0039 10.01 22.0139C10.29 22.0739 10.57 22.1139 10.86 22.1439C10.9 22.1439 10.94 22.1539 10.98 22.1639C11.32 22.1939 11.66 22.2139 12 22.2139C12.34 22.2139 12.68 22.1939 13.01 22.1639C13.05 22.1639 13.09 22.1539 13.13 22.1439C13.42 22.1139 13.7 22.0739 13.98 22.0139C14.05 22.0039 14.12 21.9739 14.2 21.9639C14.44 21.9039 14.69 21.8539 14.92 21.7739C15 21.7439 15.08 21.7139 15.16 21.6939C15.38 21.6139 15.61 21.5439 15.82 21.4539C15.9 21.4239 15.98 21.3839 16.06 21.3439C16.27 21.2539 16.48 21.1539 16.69 21.0439C16.77 21.0039 16.84 20.9539 16.91 20.9139C17.11 20.7939 17.31 20.6839 17.51 20.5539C17.58 20.5139 17.64 20.4639 17.71 20.4139C17.91 20.2739 18.1 20.1339 18.28 19.9839C18.34 19.9339 18.39 19.8839 18.45 19.8439C18.56 19.7539 18.67 19.6639 18.77 19.5739C18.77 19.5639 18.77 19.5639 18.76 19.5539C20.75 17.7239 22 15.1139 22 12.2139ZM16.94 17.1839C14.23 15.3639 9.79 15.3639 7.06 17.1839C6.62 17.4739 6.26 17.8139 5.96 18.1839C4.38481 16.5961 3.50064 14.4504 3.5 12.2139C3.5 7.52387 7.31 3.71387 12 3.71387C16.69 3.71387 20.5 7.52387 20.5 12.2139C20.5 14.5339 19.56 16.6439 18.04 18.1839C17.75 17.8139 17.38 17.4739 16.94 17.1839Z" fill="#0F8BD5"/>
<path d="M22 12.2139C22 6.70387 17.51 2.21387 12 2.21387C6.49 2.21387 2 6.70387 2 12.2139C2 15.1139 3.25 17.7239 5.23 19.5539C5.23 19.5639 5.23 19.5639 5.22 19.5739C5.32 19.6739 5.44 19.7539 5.54 19.8439C5.6 19.8939 5.65 19.9439 5.71 19.9839C5.89 20.1339 6.09 20.2739 6.28 20.4139L6.48 20.5539C6.67 20.6839 6.87 20.8039 7.08 20.9139C7.15 20.9539 7.23 21.0039 7.3 21.0439C7.5 21.1539 7.71 21.2539 7.93 21.3439C8.01 21.3839 8.09 21.4239 8.17 21.4539C8.39 21.5439 8.61 21.6239 8.83 21.6939C8.91 21.7239 8.99 21.7539 9.07 21.7739C9.31 21.8439 9.55 21.9039 9.79 21.9639C9.86 21.9839 9.93 22.0039 10.01 22.0139C10.29 22.0739 10.57 22.1139 10.86 22.1439C10.9 22.1439 10.94 22.1539 10.98 22.1639C11.32 22.1939 11.66 22.2139 12 22.2139C12.34 22.2139 12.68 22.1939 13.01 22.1639C13.05 22.1639 13.09 22.1539 13.13 22.1439C13.42 22.1139 13.7 22.0739 13.98 22.0139C14.05 22.0039 14.12 21.9739 14.2 21.9639C14.44 21.9039 14.69 21.8539 14.92 21.7739C15 21.7439 15.08 21.7139 15.16 21.6939C15.38 21.6139 15.61 21.5439 15.82 21.4539C15.9 21.4239 15.98 21.3839 16.06 21.3439C16.27 21.2539 16.48 21.1539 16.69 21.0439C16.77 21.0039 16.84 20.9539 16.91 20.9139C17.11 20.7939 17.31 20.6839 17.51 20.5539C17.58 20.5139 17.64 20.4639 17.71 20.4139C17.91 20.2739 18.1 20.1339 18.28 19.9839C18.34 19.9339 18.39 19.8839 18.45 19.8439C18.56 19.7539 18.67 19.6639 18.77 19.5739C18.77 19.5639 18.77 19.5639 18.76 19.5539C20.75 17.7239 22 15.1139 22 12.2139ZM16.94 17.1839C14.23 15.3639 9.79 15.3639 7.06 17.1839C6.62 17.4739 6.26 17.8139 5.96 18.1839C4.38481 16.5961 3.50064 14.4504 3.5 12.2139C3.5 7.52387 7.31 3.71387 12 3.71387C16.69 3.71387 20.5 7.52387 20.5 12.2139C20.5 14.5339 19.56 16.6439 18.04 18.1839C17.75 17.8139 17.38 17.4739 16.94 17.1839Z" fill="white"/>
<path d="M12 7.14392C9.93 7.14392 8.25 8.82392 8.25 10.8939C8.25 12.9239 9.84 14.5739 11.95 14.6339H12.13C13.1007 14.602 14.021 14.194 14.6965 13.4961C15.372 12.7983 15.7497 11.8652 15.75 10.8939C15.75 8.82392 14.07 7.14392 12 7.14392Z" fill="black"/>
<path d="M12 7.14392C9.93 7.14392 8.25 8.82392 8.25 10.8939C8.25 12.9239 9.84 14.5739 11.95 14.6339H12.13C13.1007 14.602 14.021 14.194 14.6965 13.4961C15.372 12.7983 15.7497 11.8652 15.75 10.8939C15.75 8.82392 14.07 7.14392 12 7.14392Z" fill="#0F8BD5"/>
<path d="M12 7.14392C9.93 7.14392 8.25 8.82392 8.25 10.8939C8.25 12.9239 9.84 14.5739 11.95 14.6339H12.13C13.1007 14.602 14.021 14.194 14.6965 13.4961C15.372 12.7983 15.7497 11.8652 15.75 10.8939C15.75 8.82392 14.07 7.14392 12 7.14392Z" fill="white"/>
</svg>
