<svg width="331" height="465" viewBox="0 0 331 465" fill="none" xmlns="http://www.w3.org/2000/svg">
<g filter="url(#filter0_d_19_726)">
<path d="M32.6265 150.979L37.9195 153.96C38.2793 153.343 38.6904 152.727 39.2043 152.11L66.6975 117.577C71.4253 111.615 80.9323 107.401 87.8699 108.275L128.827 113.208L131.448 113.517C132.013 113.568 132.578 113.671 133.144 113.825L134.737 107.71L138.899 117.679C140.287 120.3 139.722 123.795 136.895 127.392L106.37 165.985C101.077 172.666 90.3879 176.725 82.8337 174.978L42.2362 165.728C39.2043 165.009 37.3029 163.313 36.6348 161.052L32.6265 150.979Z" fill="#4D69FC"/>
<path d="M38.0199 155.555L78.6174 164.805C86.223 166.552 96.8605 162.492 102.154 155.811L132.679 117.218C137.921 110.589 135.402 104.319 127.283 103.343L83.7049 98.1014C76.716 97.2792 67.2603 101.442 62.5325 107.403L34.9879 141.988C30.2087 148 31.5448 154.064 38.0199 155.555Z" fill="url(#paint0_linear_19_726)"/>
<path d="M82.0644 163.519C88.8477 163.519 96.7617 159.922 101.027 154.474L130.062 117.782C132.58 114.596 133.351 111.41 132.272 108.841C131.244 106.323 128.572 104.627 124.769 104.164L83.2977 99.1795C76.6171 98.3572 67.4698 102.366 62.9476 108.121L36.7905 141.01C34.3238 144.094 33.4502 147.383 34.3752 150.003C35.146 152.162 37.0474 153.703 39.8224 154.32L78.4157 163.108C79.5463 163.365 80.7796 163.519 82.0644 163.519ZM81.4991 99.5906C82.0644 99.5906 82.681 99.642 83.1949 99.6933L124.666 104.678C128.263 105.141 130.781 106.631 131.758 108.995C132.734 111.41 132.015 114.442 129.599 117.423L100.616 154.166C95.7339 160.384 85.5588 164.238 78.4671 162.645L39.8738 153.858C37.3043 153.292 35.5057 151.853 34.7863 149.849C33.9127 147.383 34.7863 144.299 37.1502 141.37L63.3073 108.481C67.4184 103.342 75.2296 99.5906 81.4991 99.5906Z" fill="#5944DD"/>
<path d="M65.1563 136.899C64.334 136.745 63.8715 136.385 63.666 135.768C63.5118 135.152 63.666 134.535 64.2312 133.816C64.7965 133.096 65.5674 132.582 66.4924 132.171C67.4688 131.76 68.3424 131.657 69.1646 131.811C69.9868 131.966 70.5007 132.325 70.6549 132.942C70.8091 133.559 70.6549 134.227 70.0896 134.895C69.5243 135.614 68.7535 136.179 67.7771 136.539C66.8521 136.95 65.9785 137.053 65.1563 136.899ZM61.1479 141.986C60.1715 141.781 59.4007 141.421 58.8868 140.856C58.3729 140.291 58.1673 139.623 58.1673 138.852C59.1437 138.595 60.1201 138.492 61.0451 138.441C62.0215 138.389 62.8951 138.441 63.7687 138.595C64.6424 138.749 65.4132 139.006 66.0299 139.366C66.6979 139.725 67.2118 140.136 67.6229 140.65C66.5438 141.216 65.4646 141.627 64.2826 141.884C63.2035 142.192 62.1243 142.192 61.1479 141.986ZM58.4757 145.378C61.1479 145.943 64.0771 145.532 67.2632 144.299C70.5007 143.014 73.1216 141.164 75.023 138.8C76.9244 136.385 77.5924 134.175 76.9758 132.171C76.3591 130.167 74.6633 128.882 71.9396 128.42C69.216 127.957 66.2868 128.42 63.1007 129.756C59.9659 131.092 57.4479 132.891 55.6492 135.203C53.8506 137.516 53.1826 139.674 53.7478 141.627C54.2617 143.58 55.8548 144.813 58.4757 145.378ZM68.7535 147.331C68.9077 147.382 69.0618 147.382 69.2674 147.331C74.5605 147.074 80.1105 145.43 85.9175 142.449C91.8273 139.417 96.5551 135.666 100.152 131.298L107.09 122.767C107.707 121.996 108.015 121.277 107.963 120.609C107.912 119.94 107.604 119.375 106.987 118.964L97.2745 113.106C96.9148 112.9 96.4523 112.746 95.9898 112.695C95.4759 112.643 94.962 112.643 94.3453 112.695L78.8772 114.956C77.9008 115.11 76.9758 115.418 75.9994 115.932C75.0744 116.446 74.3035 117.063 73.7382 117.782L67.9313 125.182C69.1646 124.977 70.3466 124.822 71.4771 124.771C72.6077 124.72 73.6869 124.771 74.766 124.977C78.6202 125.593 81.0355 127.341 81.9091 130.167C82.7828 133.045 81.8577 136.179 79.1855 139.52C77.8494 141.164 76.3077 142.655 74.4577 143.939C72.6591 145.224 70.6035 146.303 68.291 147.228L68.7535 147.331Z" fill="#5944DD"/>
</g>
<g opacity="0.27" filter="url(#filter1_df_19_726)">
<path d="M127.307 368.411L129.719 369.769C129.882 369.488 130.07 369.207 130.304 368.926L142.829 353.193C144.983 350.477 149.315 348.557 152.475 348.955L171.135 351.203L172.329 351.343C172.587 351.366 172.844 351.413 173.102 351.483L173.827 348.697L175.724 353.239C176.356 354.433 176.098 356.025 174.811 357.664L160.904 375.247C158.492 378.291 153.623 380.14 150.181 379.344L131.685 375.13C130.304 374.802 129.438 374.03 129.133 372.999L127.307 368.411Z" fill="url(#paint1_linear_19_726)"/>
<path d="M129.763 370.494L148.259 374.708C151.724 375.504 156.57 373.654 158.981 370.611L172.888 353.028C175.276 350.008 174.129 347.151 170.43 346.707L150.576 344.319C147.392 343.944 143.084 345.84 140.93 348.556L128.381 364.313C126.204 367.052 126.813 369.815 129.763 370.494Z" fill="url(#paint2_linear_19_726)"/>
<path d="M149.828 374.122C152.918 374.122 156.524 372.483 158.467 370.001L171.695 353.285C172.842 351.833 173.193 350.382 172.702 349.211C172.234 348.064 171.016 347.291 169.284 347.081L150.39 344.81C147.346 344.435 143.179 346.261 141.119 348.883L129.202 363.867C128.078 365.272 127.68 366.77 128.101 367.964C128.452 368.948 129.319 369.65 130.583 369.931L148.166 373.935C148.681 374.052 149.243 374.122 149.828 374.122ZM149.57 344.997C149.828 344.997 150.109 345.02 150.343 345.044L169.237 347.315C170.876 347.525 172.023 348.204 172.468 349.281C172.913 350.382 172.585 351.763 171.484 353.121L158.28 369.861C156.056 372.694 151.42 374.45 148.189 373.724L130.606 369.72C129.436 369.463 128.616 368.807 128.289 367.894C127.891 366.77 128.289 365.366 129.365 364.031L141.282 349.047C143.155 346.706 146.714 344.997 149.57 344.997Z" fill="url(#paint3_linear_19_726)"/>
<path d="M142.13 361.995C141.755 361.925 141.544 361.761 141.451 361.48C141.38 361.199 141.451 360.918 141.708 360.59C141.966 360.262 142.317 360.028 142.738 359.841C143.183 359.654 143.581 359.607 143.956 359.677C144.33 359.747 144.565 359.911 144.635 360.192C144.705 360.473 144.635 360.778 144.377 361.082C144.12 361.41 143.768 361.667 143.324 361.831C142.902 362.018 142.504 362.065 142.13 361.995ZM140.303 364.313C139.859 364.219 139.507 364.055 139.273 363.798C139.039 363.54 138.946 363.236 138.946 362.885C139.39 362.768 139.835 362.721 140.257 362.697C140.701 362.674 141.099 362.697 141.497 362.768C141.895 362.838 142.247 362.955 142.528 363.119C142.832 363.283 143.066 363.47 143.253 363.704C142.762 363.962 142.27 364.149 141.732 364.266C141.24 364.406 140.748 364.406 140.303 364.313ZM139.086 365.858C140.303 366.116 141.638 365.928 143.09 365.366C144.565 364.781 145.759 363.938 146.625 362.861C147.491 361.761 147.795 360.754 147.514 359.841C147.234 358.928 146.461 358.343 145.22 358.132C143.979 357.921 142.645 358.132 141.193 358.741C139.765 359.349 138.618 360.169 137.798 361.222C136.979 362.276 136.675 363.259 136.932 364.149C137.166 365.039 137.892 365.6 139.086 365.858ZM143.768 366.748C143.839 366.771 143.909 366.771 144.003 366.748C146.414 366.631 148.943 365.881 151.588 364.524C154.281 363.142 156.435 361.433 158.073 359.443L161.234 355.557C161.515 355.205 161.656 354.878 161.632 354.573C161.609 354.269 161.468 354.011 161.187 353.824L156.762 351.155C156.598 351.061 156.388 350.991 156.177 350.968C155.943 350.944 155.709 350.944 155.428 350.968L148.381 351.998C147.936 352.068 147.514 352.209 147.07 352.443C146.648 352.677 146.297 352.958 146.039 353.286L143.394 356.657C143.956 356.563 144.494 356.493 145.009 356.47C145.524 356.446 146.016 356.47 146.508 356.563C148.264 356.844 149.364 357.64 149.762 358.928C150.16 360.239 149.739 361.667 148.521 363.189C147.912 363.938 147.21 364.617 146.367 365.202C145.548 365.788 144.611 366.279 143.558 366.701L143.768 366.748Z" fill="#44A6DD"/>
</g>
<path opacity="0.16" d="M435.822 -138.077L278.446 -342.276L74.6685 96.7226L98.8375 171.113L435.822 -138.077Z" fill="url(#paint4_linear_19_726)"/>
<g filter="url(#filter2_f_19_726)">
<path d="M165.13 437.457C165.156 437.245 165.463 437.245 165.488 437.457L165.7 439.236C165.972 441.534 167.784 443.345 170.081 443.618L171.86 443.829C172.072 443.854 172.072 444.162 171.86 444.187L170.081 444.398C167.784 444.671 165.972 446.482 165.7 448.78L165.488 450.559C165.463 450.771 165.156 450.771 165.13 450.559L164.919 448.78C164.647 446.482 162.835 444.671 160.538 444.398L158.758 444.187C158.546 444.162 158.546 443.854 158.758 443.829L160.538 443.618C162.835 443.345 164.647 441.534 164.919 439.236L165.13 437.457Z" fill="white"/>
</g>
<path d="M165.13 437.457C165.156 437.245 165.463 437.245 165.488 437.457L165.7 439.236C165.972 441.534 167.784 443.345 170.081 443.618L171.86 443.829C172.072 443.854 172.072 444.162 171.86 444.187L170.081 444.398C167.784 444.671 165.972 446.482 165.7 448.78L165.488 450.559C165.463 450.771 165.156 450.771 165.13 450.559L164.919 448.78C164.647 446.482 162.835 444.671 160.538 444.398L158.758 444.187C158.546 444.162 158.546 443.854 158.758 443.829L160.538 443.618C162.835 443.345 164.647 441.534 164.919 439.236L165.13 437.457Z" fill="white"/>
<defs>
<filter id="filter0_d_19_726" x="0.125488" y="69.9978" width="171.5" height="141.386" filterUnits="userSpaceOnUse" color-interpolation-filters="sRGB">
<feFlood flood-opacity="0" result="BackgroundImageFix"/>
<feColorMatrix in="SourceAlpha" type="matrix" values="0 0 0 0 0 0 0 0 0 0 0 0 0 0 0 0 0 0 127 0" result="hardAlpha"/>
<feOffset dy="4"/>
<feGaussianBlur stdDeviation="16"/>
<feComposite in2="hardAlpha" operator="out"/>
<feColorMatrix type="matrix" values="0 0 0 0 1 0 0 0 0 1 0 0 0 0 1 0 0 0 0.35 0"/>
<feBlend mode="normal" in2="BackgroundImageFix" result="effect1_dropShadow_19_726"/>
<feBlend mode="normal" in="SourceGraphic" in2="effect1_dropShadow_19_726" result="shape"/>
</filter>
<filter id="filter1_df_19_726" x="95.0773" y="316.271" width="112.977" height="99.2577" filterUnits="userSpaceOnUse" color-interpolation-filters="sRGB">
<feFlood flood-opacity="0" result="BackgroundImageFix"/>
<feColorMatrix in="SourceAlpha" type="matrix" values="0 0 0 0 0 0 0 0 0 0 0 0 0 0 0 0 0 0 127 0" result="hardAlpha"/>
<feOffset dy="4"/>
<feGaussianBlur stdDeviation="16"/>
<feComposite in2="hardAlpha" operator="out"/>
<feColorMatrix type="matrix" values="0 0 0 0 1 0 0 0 0 1 0 0 0 0 1 0 0 0 0.35 0"/>
<feBlend mode="normal" in2="BackgroundImageFix" result="effect1_dropShadow_19_726"/>
<feBlend mode="normal" in="SourceGraphic" in2="effect1_dropShadow_19_726" result="shape"/>
<feGaussianBlur stdDeviation="3" result="effect2_foregroundBlur_19_726"/>
</filter>
<filter id="filter2_f_19_726" x="144.599" y="423.298" width="41.42" height="41.42" filterUnits="userSpaceOnUse" color-interpolation-filters="sRGB">
<feFlood flood-opacity="0" result="BackgroundImageFix"/>
<feBlend mode="normal" in="SourceGraphic" in2="BackgroundImageFix" result="shape"/>
<feGaussianBlur stdDeviation="7" result="effect1_foregroundBlur_19_726"/>
</filter>
<linearGradient id="paint0_linear_19_726" x1="135.444" y1="131.586" x2="32.1366" y2="131.586" gradientUnits="userSpaceOnUse">
<stop stop-color="#F5F5F5"/>
<stop offset="0.41" stop-color="#EDEDED"/>
<stop offset="1" stop-color="#D9D9D9"/>
</linearGradient>
<linearGradient id="paint1_linear_19_726" x1="177.722" y1="335.801" x2="135.892" y2="380.648" gradientUnits="userSpaceOnUse">
<stop stop-color="#BFFFE7"/>
<stop offset="0.1844" stop-color="#14D980"/>
<stop offset="0.2856" stop-color="#11C376"/>
<stop offset="0.5117" stop-color="#0A9762"/>
<stop offset="0.7141" stop-color="#067754"/>
<stop offset="0.8839" stop-color="#03634B"/>
<stop offset="1" stop-color="#025C48"/>
</linearGradient>
<linearGradient id="paint2_linear_19_726" x1="174.148" y1="359.574" x2="127.082" y2="359.574" gradientUnits="userSpaceOnUse">
<stop stop-color="#F5F5F5"/>
<stop offset="0.41" stop-color="#EDEDED"/>
<stop offset="1" stop-color="#D9D9D9"/>
</linearGradient>
<linearGradient id="paint3_linear_19_726" x1="172.903" y1="359.44" x2="127.906" y2="359.44" gradientUnits="userSpaceOnUse">
<stop stop-color="#23E8A4"/>
<stop offset="0.11" stop-color="#1EDD9E"/>
<stop offset="0.48" stop-color="#0FBD8D"/>
<stop offset="0.79" stop-color="#06AA83"/>
<stop offset="1" stop-color="#03A380"/>
</linearGradient>
<linearGradient id="paint4_linear_19_726" x1="482.901" y1="-307.787" x2="2.2621" y2="274.331" gradientUnits="userSpaceOnUse">
<stop stop-color="white"/>
<stop offset="1" stop-color="white" stop-opacity="0"/>
</linearGradient>
</defs>
</svg>
