<svg width="177" height="206" viewBox="0 0 177 206" fill="none" xmlns="http://www.w3.org/2000/svg">
<g clip-path="url(#clip0_69_2046)">
<path d="M47.953 62.5801C46.6972 63.0599 45.4148 63.4667 44.1123 63.7983C42.3917 64.2188 41.4203 64.4138 39.7597 63.7674C39.7014 63.7447 39.6457 63.7222 39.5932 63.7002C36.4456 62.3579 33.7549 60.1269 31.8486 57.2787C29.9424 54.4305 28.9029 51.088 28.8566 47.658C28.8483 47.5403 28.8483 47.4166 28.8483 47.2959C28.8467 46.7146 28.8744 46.1336 28.9313 45.555C29.0041 44.767 29.1298 43.9848 29.3075 43.2137L29.2909 43.2107C27.9464 41.8319 27.4291 39.9431 27.6006 38.0453C27.7181 36.7587 28.1253 35.5156 28.7914 34.4097C29.4574 33.3039 30.3651 32.364 31.446 31.6611C33.1399 30.5929 35.0499 29.9168 37.037 29.6818C37.5706 29.6201 38.1072 29.5889 38.6443 29.5883H43.6903C44.7325 29.3436 45.7912 29.1762 46.8579 29.0874H46.8662C57.0218 28.2426 65.0307 34.995 64.2838 43.2107C64.2782 43.2198 64.27 43.2288 64.2644 43.2379C64.0486 43.5909 63.8577 43.9258 63.689 44.2456C63.5258 44.5443 63.3875 44.8309 63.2685 45.1024C62.3417 47.2024 66.7459 79.7829 65.1663 80.2777C64.2672 80.5582 60.6431 56.3142 61.2932 60.9244C62.1121 66.7082 52.6316 60.8456 47.953 62.5801Z" fill="#2F2E41"/>
<path d="M63.2519 121.476L77.3296 151.555L23.1758 146.054L34.4801 117.179L63.2519 121.476Z" fill="#FFB6B6"/>
<path d="M91.5119 181.783C82.0949 184.927 72.1709 186.26 62.2609 185.713L57.9515 178.704C57.9515 178.704 57.7711 181.314 57.5019 185.305C52.7845 184.756 48.1286 183.766 43.5952 182.348C34.9979 179.651 26.9388 175.474 18.7697 171.621C17.1151 161.729 16.4942 146.474 25.6421 137.594L74.88 146.643C74.88 146.643 82.78 152.569 80.6666 154.692C78.5532 156.811 78.226 156.483 79.6145 157.876C81.0031 159.268 84.0034 161.13 84.034 162.348C84.0462 162.824 87.4136 171.446 91.5119 181.783Z" fill="#2F2E41"/>
<path d="M54.6538 63.3528L42.7581 64.1852L35.0694 71.6365L32.3767 72.1186C29.9563 72.5514 27.7783 73.86 26.2559 75.7961C24.7335 77.7323 23.9724 80.1615 24.117 82.623C24.6709 92.0346 25.911 106.097 28.503 110.66C32.5222 117.734 35.842 115.514 32.5222 117.734C29.2025 119.954 26.9737 118.209 28.503 121.717C30.0324 125.225 26.436 129.725 26.436 129.725L25.0044 131.161L26.5228 131.785L74.9064 138.099C74.9064 138.099 70.7228 119.234 73.3392 114.599C75.9555 109.965 82.2992 95.9568 76.6376 90.4755L71.1018 70.938L61.5797 68.1214L54.6538 63.3528Z" fill="#6C63FF"/>
<path d="M126.664 140.781C125.868 140.755 125.087 140.557 124.375 140.199C123.663 139.841 123.037 139.332 122.54 138.708C122.043 138.084 121.687 137.358 121.498 136.583C121.308 135.807 121.288 134.999 121.44 134.215L98.7446 118.799L101.453 111.455L128.275 129.962C129.572 130.317 130.694 131.137 131.429 132.266C132.164 133.395 132.46 134.755 132.261 136.089C132.062 137.422 131.383 138.637 130.351 139.501C129.32 140.366 128.008 140.821 126.664 140.781Z" fill="#FFB6B6"/>
<path d="M62.5601 70.0152L59.2622 71.3249L76.8549 105.785L113.275 130.683L118.524 121.784L90.8013 97.7679L79.7023 76.4192C78.1403 73.4148 75.5237 71.0975 72.3578 69.9148C69.1919 68.732 65.7013 68.7678 62.5601 70.0152Z" fill="#6C63FF"/>
<path d="M48.0871 60.3222C54.6841 60.3222 60.0321 54.9586 60.0321 48.3423C60.0321 41.7259 54.6841 36.3623 48.0871 36.3623C41.4901 36.3623 36.1421 41.7259 36.1421 48.3423C36.1421 54.9586 41.4901 60.3222 48.0871 60.3222Z" fill="#FFB6B6"/>
<path d="M58.4745 43.2762C58.2754 43.3816 58.0789 43.4787 57.8797 43.5758C57.6723 43.6757 57.4648 43.7756 57.2546 43.8699C53.257 45.6872 50.0009 45.8898 48.0257 43.2762C47.9716 41.9011 47.663 40.5482 47.1155 39.2864C47.2122 40.6965 46.8417 42.0991 46.0615 43.2762H42.0833C37.9862 46.0035 35.8837 48.509 38.7276 57.4624C38.9129 58.0506 40.1828 78.9485 40.5452 80.555C34.3428 78.1689 28.9925 52.8345 28.8569 46.1589C28.8486 46.0507 28.8486 45.937 28.8486 45.826C28.847 45.2912 28.8747 44.7568 28.9316 44.2251C29.0046 43.4991 29.1303 42.7795 29.3078 42.072L29.2912 42.0692C28.6602 41.4641 28.1787 40.7196 27.8853 39.8949C27.5918 39.0703 27.4945 38.1883 27.6009 37.3192C28.6414 35.9529 29.929 34.7951 31.3965 33.9065C32.7309 33.2585 34.1218 32.7346 35.5517 32.3417C35.5877 32.3333 35.6181 32.325 35.6541 32.3167C36.0912 32.1974 36.5393 32.0892 36.9875 31.9948C37.9111 31.8006 38.8449 31.6589 39.7844 31.5703C39.8535 31.5676 39.9199 31.562 39.9808 31.562C40.3566 31.5623 40.7254 31.6638 41.0487 31.8561C41.0514 31.8561 41.0514 31.8589 41.0569 31.8589C41.3675 32.045 41.6251 32.3082 41.8048 32.6231C41.9846 32.938 42.0805 33.294 42.0833 33.6568H46.5152C46.6784 33.6568 46.8416 33.6624 47.0048 33.6707C53.1768 33.9176 58.1371 36.5645 58.4552 42.6491C58.469 42.86 58.4745 43.0653 58.4745 43.2762Z" fill="#2F2E41"/>
<path d="M32.2723 43.7578C36.6185 43.7578 40.1417 40.2243 40.1417 35.8654C40.1417 31.5065 36.6185 27.9729 32.2723 27.9729C27.9261 27.9729 24.4028 31.5065 24.4028 35.8654C24.4028 40.2243 27.9261 43.7578 32.2723 43.7578Z" fill="#2F2E41"/>
<path d="M43.0764 32.2149C42.1824 36.4806 37.7715 39.0318 33.5518 37.9882C31.5254 37.487 29.7804 36.199 28.7009 34.4076C27.6214 32.6161 27.2956 30.468 27.7953 28.4356C28.8359 24.2035 33.9571 25.4236 37.32 22.6623C42.0773 18.7561 44.2821 26.4623 43.0764 32.2149Z" fill="#2F2E41"/>
<path d="M25.5913 150.955C32.2983 123.524 45.5876 99.9462 67.5963 81.4736C68.4481 80.0683 69.8209 79.0592 71.4136 78.6678C73.0062 78.2763 74.6887 78.5344 76.0919 79.3855L128.412 111.201C129.814 112.056 130.82 113.432 131.21 115.03C131.6 116.627 131.343 118.314 130.494 119.722C122.094 147.869 109.512 172.293 88.4894 189.203C87.6376 190.608 86.2648 191.617 84.6722 192.009C83.0795 192.4 81.397 192.142 79.9939 191.291L27.6735 159.475C26.2723 158.621 25.2661 157.244 24.8758 155.647C24.4854 154.049 24.7428 152.362 25.5913 150.955Z" fill="#F2F2F2"/>
<path opacity="0.2" d="M34.8908 160.199C33.4895 159.345 32.4834 157.968 32.0931 156.371C31.7027 154.774 31.9601 153.086 32.8087 151.679C39.5157 124.248 52.8049 100.67 74.8136 82.1979C75.3774 81.278 76.1735 80.5238 77.1214 80.0116L76.0918 79.3855C74.6887 78.5344 73.0062 78.2763 71.4136 78.6678C69.8209 79.0592 68.4481 80.0683 67.5963 81.4735C45.5876 99.9462 32.2983 123.524 25.5914 150.955C24.7428 152.362 24.4854 154.049 24.8758 155.647C25.2661 157.244 26.2722 158.621 27.6734 159.475L79.9938 191.291C80.925 191.853 81.9878 192.158 83.0745 192.175C84.1611 192.192 85.2331 191.921 86.1816 191.389L34.8908 160.199Z" fill="black"/>
<path d="M96.2496 144.873L61.1297 123.65C60.5717 123.312 60.1704 122.766 60.0139 122.131C59.8573 121.496 59.9584 120.825 60.2948 120.265C60.6313 119.705 61.1756 119.302 61.8083 119.144C62.4409 118.986 63.1102 119.087 63.669 119.424L98.7889 140.647C99.3455 140.985 99.7454 141.532 99.9012 142.166C100.057 142.8 99.9556 143.47 99.6196 144.029C99.2836 144.589 98.7402 144.991 98.1085 145.15C97.4768 145.308 96.8083 145.209 96.2496 144.873Z" fill="white"/>
<path d="M75.819 116.73L68.0927 112.061C67.5327 111.725 67.1288 111.18 66.9697 110.545C66.8107 109.91 66.9095 109.238 67.2445 108.677C67.5794 108.115 68.1231 107.71 68.7559 107.551C69.3887 107.391 70.0588 107.49 70.6187 107.826L70.632 107.834L78.3583 112.503C78.9151 112.842 79.3152 113.388 79.471 114.022C79.6269 114.656 79.5256 115.327 79.1896 115.886C78.8535 116.446 78.31 116.848 77.6781 117.007C77.0463 117.165 76.3778 117.065 75.819 116.73Z" fill="white"/>
<path d="M90.6678 154.164L55.5479 132.941C54.9893 132.604 54.5871 132.058 54.4297 131.423C54.2723 130.789 54.3725 130.117 54.7084 129.557C55.0442 128.996 55.5882 128.592 56.2209 128.434C56.8535 128.275 57.523 128.375 58.0822 128.712L58.0872 128.715L93.2071 149.938C93.7637 150.276 94.1636 150.823 94.3194 151.457C94.4751 152.091 94.3738 152.761 94.0378 153.32C93.7018 153.88 93.1584 154.282 92.5267 154.441C91.895 154.599 91.2265 154.5 90.6678 154.164Z" fill="white"/>
<path d="M100.709 104.857C106.375 104.857 110.967 100.251 110.967 94.5691C110.967 88.8873 106.375 84.2812 100.709 84.2812C95.0442 84.2812 90.4517 88.8873 90.4517 94.5691C90.4517 100.251 95.0442 104.857 100.709 104.857Z" fill="#3F3D56"/>
<path d="M83.0275 204.806C95.1361 204.806 104.952 194.962 104.952 182.818C104.952 170.674 95.1361 160.829 83.0275 160.829C70.919 160.829 61.103 170.674 61.103 182.818C61.103 194.962 70.919 204.806 83.0275 204.806Z" fill="white"/>
<path d="M83.0277 205.113C78.631 205.113 74.333 203.806 70.6772 201.356C67.0215 198.906 64.1721 195.424 62.4896 191.35C60.807 187.276 60.3668 182.793 61.2245 178.468C62.0823 174.143 64.1995 170.171 67.3084 167.053C70.4174 163.935 74.3784 161.811 78.6907 160.951C83.003 160.091 87.4727 160.532 91.5348 162.22C95.5969 163.907 99.0688 166.765 101.512 170.431C103.954 174.098 105.258 178.408 105.258 182.818C105.251 188.729 102.907 194.396 98.7396 198.576C94.5721 202.755 88.9216 205.107 83.0277 205.113ZM83.0277 161.136C78.752 161.136 74.5722 162.408 71.017 164.79C67.4619 167.172 64.6909 170.559 63.0547 174.521C61.4184 178.482 60.9903 182.842 61.8245 187.048C62.6586 191.254 64.7176 195.117 67.7411 198.149C70.7645 201.182 74.6166 203.247 78.8102 204.083C83.0039 204.92 87.3506 204.49 91.3009 202.849C95.2512 201.208 98.6276 198.429 101.003 194.864C103.379 191.298 104.646 187.106 104.646 182.818C104.64 177.069 102.36 171.558 98.3072 167.494C94.2544 163.429 88.7594 161.142 83.0277 161.136Z" fill="#3F3D56"/>
<path d="M80.0369 194.262C79.6583 194.262 79.2849 194.173 78.9462 194.004C78.6076 193.834 78.3131 193.587 78.086 193.283L72.1047 185.285C71.9122 185.028 71.7721 184.735 71.6924 184.424C71.6127 184.113 71.5949 183.789 71.6401 183.471C71.6853 183.152 71.7925 182.846 71.9558 182.57C72.119 182.293 72.3349 182.052 72.5913 181.859C72.8476 181.666 73.1394 181.526 73.4498 181.446C73.7602 181.366 74.0833 181.349 74.4005 181.394C74.7177 181.44 75.0228 181.548 75.2984 181.712C75.574 181.876 75.8147 182.092 76.0068 182.35L79.92 187.582L89.9705 172.462C90.1482 172.195 90.3766 171.966 90.6427 171.787C90.9088 171.608 91.2074 171.484 91.5214 171.421C91.8355 171.358 92.1588 171.357 92.473 171.42C92.7872 171.482 93.0861 171.606 93.3526 171.784C93.6191 171.962 93.8479 172.191 94.0262 172.458C94.2044 172.725 94.3284 173.025 94.3912 173.34C94.454 173.655 94.4544 173.979 94.3922 174.294C94.3301 174.609 94.2066 174.909 94.029 175.176L82.0663 193.173C81.8499 193.498 81.5589 193.767 81.2176 193.956C80.8763 194.146 80.4947 194.25 80.1048 194.261C80.0821 194.261 80.0595 194.262 80.0369 194.262Z" fill="#6C63FF"/>
<path d="M153.833 71.3892C154.704 71.3145 155.368 70.7611 155.317 70.1533C155.265 69.5454 154.517 69.1133 153.645 69.188C152.774 69.2627 152.11 69.816 152.162 70.4238C152.214 71.0317 152.962 71.4639 153.833 71.3892Z" fill="white"/>
<path d="M163.636 68.0542C164.507 67.9795 165.171 67.4262 165.119 66.8183C165.068 66.2105 164.319 65.7783 163.448 65.853C162.577 65.9277 161.913 66.481 161.964 67.0889C162.016 67.6967 162.765 68.1289 163.636 68.0542Z" fill="#3F3D56"/>
<path d="M149.187 63.8887C150.058 63.814 150.722 63.2606 150.67 62.6528C150.618 62.045 149.87 61.6128 148.999 61.6875C148.128 61.7622 147.463 62.3155 147.515 62.9233C147.567 63.5312 148.315 63.9634 149.187 63.8887Z" fill="#FF6584"/>
<path d="M145.075 61.4718C145.45 61.3869 145.655 60.8797 145.533 60.3391C145.411 59.7985 145.009 59.4291 144.634 59.5141C144.259 59.5991 144.053 60.1062 144.175 60.6468C144.297 61.1874 144.7 61.5568 145.075 61.4718Z" fill="#E6E6E6"/>
<path d="M142.147 55.6044C142.522 55.5194 142.728 55.0123 142.606 54.4717C142.484 53.9311 142.081 53.5617 141.706 53.6467C141.331 53.7317 141.126 54.2388 141.248 54.7794C141.37 55.32 141.772 55.6894 142.147 55.6044Z" fill="#3F3D56"/>
<path d="M156.193 63.8444C156.568 63.7594 156.773 63.2523 156.651 62.7117C156.529 62.1711 156.127 61.8017 155.752 61.8867C155.377 61.9716 155.171 62.4788 155.293 63.0194C155.415 63.56 155.818 63.9294 156.193 63.8444Z" fill="#E6E6E6"/>
<path d="M151.912 67.4091C152.287 67.3241 152.492 66.817 152.37 66.2764C152.248 65.7358 151.845 65.3664 151.47 65.4514C151.095 65.5363 150.89 66.0435 151.012 66.5841C151.134 67.1247 151.537 67.494 151.912 67.4091Z" fill="#FF6584"/>
<path d="M159.706 70.3124C160.081 70.2274 160.286 69.7203 160.164 69.1797C160.043 68.6391 159.64 68.2697 159.265 68.3547C158.89 68.4397 158.685 68.9468 158.806 69.4874C158.928 70.028 159.331 70.3974 159.706 70.3124Z" fill="#3F3D56"/>
<path d="M113.362 25.9386C113.511 25.3473 112.945 24.6932 112.098 24.4778C111.25 24.2624 110.442 24.5671 110.293 25.1585C110.143 25.7499 110.709 26.4039 111.557 26.6193C112.404 26.8348 113.213 26.53 113.362 25.9386Z" fill="white"/>
<path d="M103.011 25.8717C103.16 25.2803 102.594 24.6263 101.747 24.4109C100.899 24.1955 100.091 24.5002 99.9415 25.0916C99.792 25.6829 100.358 26.337 101.206 26.5524C102.053 26.7679 102.861 26.4631 103.011 25.8717Z" fill="#3F3D56"/>
<path d="M115.304 34.5514C115.454 33.9601 114.888 33.306 114.04 33.0906C113.193 32.8752 112.384 33.1799 112.235 33.7713C112.085 34.3626 112.651 35.0167 113.499 35.2321C114.347 35.4475 115.155 35.1428 115.304 34.5514Z" fill="#FF6584"/>
<path d="M117.717 37.7991C117.779 37.2483 117.519 36.767 117.137 36.7242C116.755 36.6814 116.395 37.0932 116.334 37.644C116.272 38.1948 116.532 38.6761 116.914 38.7189C117.296 38.7617 117.656 38.3499 117.717 37.7991Z" fill="#E6E6E6"/>
<path d="M118.568 44.3044C118.63 43.7536 118.37 43.2724 117.988 43.2296C117.606 43.1868 117.246 43.5986 117.185 44.1494C117.123 44.7002 117.383 45.1814 117.766 45.2243C118.148 45.2671 118.507 44.8553 118.568 44.3044Z" fill="#3F3D56"/>
<path d="M107.986 31.9072C108.048 31.3564 107.788 30.8752 107.406 30.8324C107.024 30.7896 106.664 31.2014 106.603 31.7522C106.541 32.303 106.801 32.7842 107.183 32.827C107.566 32.8698 107.925 32.458 107.986 31.9072Z" fill="#E6E6E6"/>
<path d="M113.195 29.9446C113.257 29.3938 112.997 28.9126 112.615 28.8697C112.233 28.8269 111.873 29.2387 111.812 29.7895C111.75 30.3403 112.01 30.8216 112.392 30.8644C112.775 30.9072 113.134 30.4954 113.195 29.9446Z" fill="#FF6584"/>
<path d="M106.778 24.6421C106.839 24.0913 106.579 23.6101 106.197 23.5672C105.815 23.5244 105.456 23.9362 105.394 24.487C105.333 25.0379 105.593 25.5191 105.975 25.5619C106.357 25.6047 106.716 25.1929 106.778 24.6421Z" fill="#3F3D56"/>
<path d="M28.8539 151.245C28.0721 150.924 27.3693 150.436 26.794 149.816C26.2186 149.195 25.7846 148.457 25.5218 147.651C25.259 146.846 25.1737 145.993 25.2719 145.152C25.3701 144.31 25.6494 143.5 26.0905 142.777L9.23682 119.017L14.6436 112.726L34.4553 141.093C35.6129 141.928 36.4249 143.16 36.7374 144.556C37.0498 145.951 36.8411 147.413 36.1506 148.664C35.4602 149.916 34.3361 150.87 32.9912 151.345C31.6464 151.821 30.1743 151.785 28.8539 151.245Z" fill="#FFB6B6"/>
<path d="M29.241 75.9492C28.3883 75.4461 27.3848 75.2642 26.4105 75.4362C25.4362 75.6083 24.5549 76.123 23.9249 76.8879L1.15332 108.828L22.2566 138.889L30.5144 129.993L17.6689 109.749L34.7407 93.4468C36.1436 90.3644 36.3579 86.87 35.3421 83.6385C34.3264 80.4069 32.1528 77.6675 29.241 75.9492Z" fill="#6C63FF"/>
</g>
<defs>
<clipPath id="clip0_69_2046">
<rect width="176" height="205" fill="white" transform="translate(0.847656 0.113281)"/>
</clipPath>
</defs>
</svg>
