<svg width="21" height="21" viewBox="0 0 21 21" fill="none" xmlns="http://www.w3.org/2000/svg">
<mask id="mask0_0_1158" style="mask-type:alpha" maskUnits="userSpaceOnUse" x="0" y="0" width="21" height="21">
<rect x="0.166992" y="0.887695" width="20" height="20" fill="#D9D9D9"/>
</mask>
<g mask="url(#mask0_0_1158)">
<path d="M3.50028 17.5543C3.04195 17.5543 2.64959 17.3911 2.3232 17.0648C1.99681 16.7384 1.83362 16.346 1.83362 15.8877V5.88767C1.83362 5.42934 1.99681 5.03698 2.3232 4.71059C2.64959 4.3842 3.04195 4.22101 3.50028 4.22101H8.50028L10.167 5.88767H16.8336C17.292 5.88767 17.6843 6.05087 18.0107 6.37726C18.3371 6.70365 18.5003 7.09601 18.5003 7.55434V15.8877C18.5003 16.346 18.3371 16.7384 18.0107 17.0648C17.6843 17.3911 17.292 17.5543 16.8336 17.5543H3.50028Z" fill="#9BA5B7"/>
</g>
</svg>
