<svg width="61" height="55" viewBox="0 0 61 55" fill="none" xmlns="http://www.w3.org/2000/svg">
<g filter="url(#filter0_d_35_1325)">
<path d="M30.5058 18.3901C34.1324 21.3652 36.8144 25.4478 38.0251 30.1276C39.0403 27.9723 39.6049 25.5673 39.6049 23.0319C39.6049 20.3337 38.9697 17.7875 37.8296 15.5344L30.5058 8.20523L23.1767 15.529C22.042 17.782 21.4014 20.3282 21.4014 23.0265C21.4014 25.5618 21.966 27.9669 22.9812 30.1222C24.1919 25.4424 26.8738 21.3598 30.5004 18.3847L30.5058 18.3901Z" fill="white"/>
<path d="M41.6407 19.34C41.9122 20.529 42.0479 21.7614 42.0479 23.0263C42.0479 26.8538 40.7612 30.3772 38.5951 33.1949C37.9979 33.9713 37.3355 34.6933 36.6135 35.3557C36.5103 34.601 36.3692 33.8627 36.1954 33.1352C35.2453 29.172 33.242 25.6106 30.5004 22.7766C27.7587 25.616 25.7554 29.172 24.8053 33.1352C24.6316 33.8627 24.4904 34.6065 24.3873 35.3557C23.6652 34.6933 22.9975 33.9713 22.4057 33.1949C20.2395 30.3772 18.9528 26.8538 18.9528 23.0263C18.9528 21.7614 19.094 20.5236 19.36 19.34L12.894 25.806C13.7898 31.2133 17.4327 35.6977 22.3406 37.7607C22.9377 38.0105 23.5512 38.2276 24.181 38.4068C25.3482 38.7325 26.5752 38.9334 27.8347 38.9822C28.041 38.9931 28.4916 38.9985 28.4916 38.9985C28.4916 38.9225 28.4862 38.8465 28.4808 38.7651C28.4754 38.5479 28.4645 38.3308 28.4645 38.1136C28.4645 37.9073 28.4645 36.9518 28.4645 36.6803C28.5514 32.9126 29.2626 29.3023 30.4949 25.9417C31.7273 29.3023 32.4331 32.918 32.5254 36.6803C32.5308 36.9518 32.5308 37.9073 32.5254 38.1136C32.5254 38.3308 32.5145 38.5479 32.5091 38.7651C32.5091 38.8411 32.5037 38.9171 32.4983 38.9985C32.4983 38.9985 32.9489 38.9985 33.1552 38.9822C34.4147 38.9334 35.6417 38.7379 36.8089 38.4068C37.4387 38.2276 38.0522 38.0159 38.6494 37.7607C43.5572 35.6923 47.2055 31.2133 48.0959 25.806L41.6299 19.34H41.6407Z" fill="white"/>
</g>
<defs>
<filter id="filter0_d_35_1325" x="0.894043" y="0.205231" width="59.2019" height="54.7933" filterUnits="userSpaceOnUse" color-interpolation-filters="sRGB">
<feFlood flood-opacity="0" result="BackgroundImageFix"/>
<feColorMatrix in="SourceAlpha" type="matrix" values="0 0 0 0 0 0 0 0 0 0 0 0 0 0 0 0 0 0 127 0" result="hardAlpha"/>
<feOffset dy="4"/>
<feGaussianBlur stdDeviation="6"/>
<feComposite in2="hardAlpha" operator="out"/>
<feColorMatrix type="matrix" values="0 0 0 0 0 0 0 0 0 0 0 0 0 0 0 0 0 0 0.25 0"/>
<feBlend mode="normal" in2="BackgroundImageFix" result="effect1_dropShadow_35_1325"/>
<feBlend mode="normal" in="SourceGraphic" in2="effect1_dropShadow_35_1325" result="shape"/>
</filter>
</defs>
</svg>
