<svg width="204" height="49" viewBox="0 0 204 49" fill="none" xmlns="http://www.w3.org/2000/svg">
<path d="M56.4939 24.0893C56.4939 37.4047 35.5538 48.1924 9.71032 48.1924C6.38146 48.1924 3.13548 48.0129 0 47.6814H0.372942C24.6142 47.6814 44.2696 37.1285 44.2696 24.1031C44.2696 11.0778 24.628 0.511069 0.372942 0.511069H0.0552507C3.1631 0.179565 6.39527 0 9.71032 0C35.5538 0 56.4939 10.7877 56.4939 24.0893Z" fill="url(#paint0_linear_8961_18252)"/>
<path d="M38.5625 24.0861C38.5625 31.9869 27.4294 38.7966 11.3929 41.9044C8.35413 42.4984 5.13578 42.9542 1.7793 43.2581C15.1914 39.6668 24.3492 32.4289 24.3492 24.0861C24.3492 15.7432 15.1776 8.50536 1.7793 4.91406C5.13578 5.21794 8.34032 5.67376 11.3791 6.26771C27.4294 9.37556 38.5625 16.1852 38.5625 24.0861Z" fill="url(#paint1_linear_8961_18252)"/>
<path d="M94.5628 6.20312H86.5256C83.8828 6.20312 81.4692 7.27716 79.7194 9.02699C77.9816 10.7768 76.8955 13.1783 76.8955 15.8212C76.8955 21.1189 81.2278 25.4513 86.5256 25.4513H94.5628C96.3005 25.4513 97.9297 24.9806 99.3416 24.16L96.6626 21.4689C95.8419 21.8671 94.9127 22.0964 93.9473 22.0964H87.1411C83.7017 22.0964 80.8779 19.2725 80.8779 15.8212C80.8779 14.0955 81.5778 12.5267 82.7122 11.3923C83.8586 10.2579 85.4274 9.5459 87.1411 9.5459H93.9473C97.3866 9.5459 100.21 12.3698 100.21 15.8212C100.21 16.9676 99.8967 18.0416 99.3416 18.9709L102.129 21.7585C103.421 20.1173 104.193 18.0537 104.193 15.8212C104.193 10.5355 99.8605 6.20312 94.5628 6.20312Z" fill="#FFB70F" stroke="#FFBC1E" stroke-width="1.28134"/>
<path d="M128.16 6.64062V18.4067C128.16 20.2652 126.652 21.7857 124.781 21.7857H116.249C114.391 21.7857 112.87 20.2772 112.87 18.4067V6.64062H109.214V19.9514C109.214 22.9804 111.676 25.4423 114.705 25.4423H126.326C129.355 25.4423 131.817 22.9804 131.817 19.9514V6.64062H128.16Z" fill="#FFB70F" stroke="#FFBC1E" stroke-width="1.28134"/>
<path d="M168.718 22.0995H154.527C152.668 22.0995 151.148 20.591 151.148 18.7205V13.6762C151.148 11.8177 152.656 10.2972 154.527 10.2972H168.718V6.64062H154.092C150.448 6.64062 147.491 9.59723 147.491 13.2417V19.7704C147.491 23.077 150.17 25.756 153.477 25.756H168.706V22.0995H168.718Z" fill="#FFB70F" stroke="#FFBC1E" stroke-width="1.28134"/>
<path d="M138.079 25.4766H141.735V6.6508H138.079V25.4766Z" fill="#FFB70F" stroke="#FFBC1E" stroke-width="1.28134"/>
<path d="M173.182 25.7656H176.839V6.65023H173.182V25.7656Z" fill="#FFB70F" stroke="#FFBC1E" stroke-width="1.28134"/>
<path d="M200.203 25.7617H192.89L176.731 16.4453H184.045L200.203 25.7617Z" fill="#FFB70F" stroke="#FFBC1E" stroke-width="1.28134"/>
<path d="M201 6.65625L184.045 16.4432H176.731L193.687 6.65625H201Z" fill="#FFB70F" stroke="#FFBC1E" stroke-width="1.28134"/>
<path d="M108.179 35.9336C108.179 35.5036 108.103 35.1496 107.964 34.8714C107.825 34.6058 107.636 34.3908 107.395 34.2391C107.155 34.0873 106.902 33.9862 106.611 33.9356C106.333 33.885 106.042 33.8597 105.751 33.8597H98.8342C98.5813 33.8597 98.3031 33.8976 98.0122 33.9735C97.7214 34.0494 97.4305 34.1758 97.165 34.3529C96.8994 34.5299 96.6718 34.7575 96.4694 35.0357C96.2671 35.314 96.1407 35.6554 96.0774 36.0474V43.0531H94.4082V32.2031H96.0774L95.913 34.3149H96.1533C96.3936 33.67 96.8235 33.1515 97.4432 32.7722C98.0628 32.3928 98.8342 32.2031 99.7826 32.2031H106.384C106.978 32.2031 107.471 32.279 107.863 32.4181C108.255 32.5572 108.584 32.7469 108.837 32.9492C109.09 33.1642 109.267 33.3918 109.368 33.6321C109.482 33.885 109.532 34.1 109.532 34.3149H109.773C109.773 34.1126 109.836 33.885 109.95 33.6321C110.076 33.3792 110.266 33.1515 110.531 32.9492C110.797 32.7342 111.138 32.5572 111.543 32.4181C111.948 32.279 112.454 32.2031 113.023 32.2031H118.157C118.726 32.2031 119.257 32.3043 119.737 32.5193C120.231 32.7342 120.648 33.0251 121.027 33.3918C121.394 33.7585 121.685 34.1885 121.9 34.6817C122.115 35.1748 122.216 35.6933 122.216 36.2624V43.0657H120.547V36.8061C120.547 35.9336 120.281 35.2381 119.763 34.6943C119.232 34.1506 118.523 33.885 117.613 33.885H112.213C111.986 33.885 111.745 33.8976 111.492 33.9356C111.24 33.9735 110.999 34.0494 110.772 34.1632C110.544 34.277 110.342 34.4414 110.19 34.6437C110.026 34.8461 109.924 35.1243 109.874 35.4531V43.0657H108.205V35.9589L108.179 35.9336Z" fill="white"/>
<path d="M146.182 43.0441H144.335L144.5 40.4897H144.259C144.133 41.122 143.918 41.6025 143.602 41.944C143.286 42.2854 142.944 42.5383 142.59 42.7027C142.236 42.8671 141.907 42.9683 141.591 42.9936C141.288 43.0189 141.085 43.0441 140.984 43.0441H132.866C132.486 43.0441 132.107 42.9936 131.715 42.905C131.323 42.8039 130.969 42.6521 130.64 42.4245C130.311 42.1969 130.046 41.8934 129.831 41.514C129.616 41.1347 129.515 40.6668 129.515 40.1104V39.2631C129.515 38.8711 129.565 38.5297 129.666 38.2009C129.768 37.8847 129.945 37.6065 130.198 37.3663C130.45 37.126 130.792 36.9489 131.209 36.8098C131.626 36.6834 132.158 36.6075 132.803 36.6075H144.411C144.386 36.1902 144.323 35.7855 144.209 35.4188C144.095 35.0521 143.931 34.7233 143.716 34.4451C143.501 34.1669 143.223 33.9519 142.906 33.7875C142.578 33.6231 142.198 33.5473 141.743 33.5473H133.877C133.447 33.5473 133.017 33.5473 132.6 33.5852C132.183 33.6105 131.791 33.6611 131.411 33.737C131.032 33.8128 130.691 33.9266 130.375 34.0531C130.058 34.1922 129.768 34.3566 129.515 34.5716V33.1553C129.957 32.8012 130.488 32.5483 131.121 32.3965C131.753 32.2448 132.373 32.1562 133.03 32.1562H142.514C143.071 32.1562 143.577 32.2574 144.019 32.4597C144.474 32.6621 144.854 32.9529 145.183 33.3323C145.511 33.7117 145.752 34.1669 145.929 34.698C146.106 35.2291 146.194 35.8235 146.194 36.4684V42.9936L146.182 43.0441ZM144.462 38.0112H133.283C132.537 38.0112 131.993 38.1503 131.677 38.4032C131.348 38.6688 131.184 39.0861 131.184 39.6678C131.184 39.9207 131.209 40.1609 131.272 40.3759C131.336 40.6035 131.437 40.7932 131.601 40.9576C131.766 41.122 131.968 41.2611 132.246 41.3496C132.512 41.4508 132.866 41.4887 133.283 41.4887H141.528C142.464 41.4887 143.185 41.1979 143.665 40.6035C144.146 40.0092 144.411 39.1366 144.462 37.9859V38.0112Z" fill="white"/>
<path d="M167.97 43.701L168.134 40.2993H167.894C167.742 40.7798 167.527 41.1972 167.261 41.5512C166.996 41.9053 166.705 42.1835 166.389 42.4111C166.073 42.6388 165.757 42.8031 165.44 42.9043C165.124 43.0055 164.821 43.0561 164.543 43.0561H156.525C155.804 43.0561 155.185 42.917 154.666 42.6514C154.148 42.3858 153.743 42.0444 153.414 41.6397C153.098 41.2351 152.858 40.7925 152.719 40.3246C152.58 39.8567 152.504 39.4141 152.504 39.0095V36.2654C152.504 35.7848 152.605 35.3043 152.807 34.8238C153.01 34.3432 153.301 33.9133 153.655 33.5212C154.021 33.1292 154.439 32.8257 154.932 32.5855C155.425 32.3452 155.944 32.2188 156.513 32.2188H164.53C164.922 32.2188 165.314 32.2693 165.693 32.3705C166.073 32.4717 166.414 32.6234 166.718 32.8004C167.021 32.9901 167.287 33.2051 167.489 33.4707C167.691 33.7362 167.83 34.0144 167.881 34.3306H168.121L167.957 32.2188H169.626V44.2827C169.626 44.7506 169.538 45.1932 169.361 45.5978C169.184 46.0025 168.943 46.3692 168.64 46.6727C168.336 46.9762 167.97 47.2165 167.565 47.3935C167.16 47.5706 166.718 47.6591 166.25 47.6591H156.475C155.817 47.6591 155.185 47.5832 154.565 47.4188C153.946 47.2671 153.414 47.0141 152.959 46.6601V45.1552C153.465 45.5852 154.097 45.876 154.869 46.0151C155.64 46.1542 156.449 46.2175 157.322 46.2175H165.428C165.82 46.2175 166.174 46.1542 166.49 46.0278C166.793 45.9013 167.059 45.7243 167.274 45.4967C167.489 45.269 167.653 45.0035 167.767 44.7C167.881 44.3965 167.957 44.0677 167.97 43.701ZM167.97 38.2001V36.885C167.97 35.9871 167.729 35.2663 167.261 34.7099C166.793 34.1535 166.06 33.8753 165.074 33.8753H157.12C156.74 33.8753 156.386 33.9386 156.032 34.065C155.678 34.1915 155.374 34.3812 155.096 34.6214C154.831 34.8617 154.603 35.1652 154.439 35.5319C154.274 35.8986 154.186 36.3286 154.186 36.8218V38.3898C154.186 38.7945 154.249 39.1865 154.363 39.5532C154.489 39.9199 154.679 40.2361 154.932 40.5016C155.197 40.7672 155.526 40.9822 155.931 41.1466C156.336 41.2983 156.829 41.3868 157.41 41.3868H165.023C165.415 41.3868 165.782 41.2983 166.136 41.1339C166.49 40.9695 166.806 40.7419 167.072 40.4511C167.337 40.1602 167.565 39.8188 167.717 39.4394C167.881 39.0474 167.957 38.6427 167.957 38.2128L167.97 38.2001Z" fill="white"/>
<path d="M175.215 31.1073V28.5781H176.897V31.1073H175.215ZM175.215 43.0447V32.1948H176.897V43.0447H175.215Z" fill="white"/>
<path d="M185.999 41.1406C185.619 40.9636 185.303 40.7486 185.05 40.4577C184.797 40.1795 184.607 39.8634 184.481 39.4967C184.355 39.1426 184.291 38.7759 184.291 38.4092V36.8664C184.291 36.4364 184.367 36.0318 184.519 35.6777C184.671 35.311 184.886 34.9948 185.151 34.7293C185.429 34.4511 185.746 34.2487 186.1 34.097C186.466 33.9452 186.858 33.8694 187.276 33.8694H197.367C197.367 33.8694 197.455 33.8694 197.493 33.8694H200.996C200.895 33.7303 200.794 33.6038 200.68 33.4774C200.313 33.0727 199.871 32.7566 199.352 32.5289C198.834 32.3013 198.265 32.1875 197.632 32.1875H186.681C186.125 32.1875 185.606 32.2887 185.113 32.5036C184.62 32.7186 184.19 33.0095 183.811 33.3762C183.444 33.7429 183.153 34.1729 182.951 34.6534C182.736 35.1466 182.635 35.6777 182.635 36.2467V38.9909C182.635 39.5473 182.736 40.0657 182.951 40.5716C183.153 41.0647 183.444 41.4947 183.811 41.8614C184.19 42.2281 184.62 42.519 185.113 42.7213C185.606 42.9363 186.125 43.0375 186.681 43.0375H197.632C198.265 43.0375 198.834 42.9236 199.352 42.6834C199.871 42.4431 200.313 42.1143 200.68 41.7097C200.769 41.6085 200.857 41.4947 200.946 41.3809H187.276C186.795 41.3809 186.365 41.2924 185.999 41.128V41.1406Z" fill="url(#paint2_linear_8961_18252)"/>
<path d="M94.4233 32.2031H72.167V34.3655H94.4233V32.2031Z" fill="url(#paint3_linear_8961_18252)"/>
<path d="M94.4249 35.8594H76.291V38.3H94.4249V35.8594Z" fill="url(#paint4_linear_8961_18252)"/>
<path d="M94.4235 40.0938H81.6641V43.0402H94.4235V40.0938Z" fill="url(#paint5_linear_8961_18252)"/>
<defs>
<linearGradient id="paint0_linear_8961_18252" x1="6.43671" y1="24.1031" x2="50.6511" y2="24.1031" gradientUnits="userSpaceOnUse">
<stop stop-color="#FFB70F" stop-opacity="0"/>
<stop offset="1" stop-color="#FFB70F"/>
</linearGradient>
<linearGradient id="paint1_linear_8961_18252" x1="0.978161" y1="24.0861" x2="45.1787" y2="24.0861" gradientUnits="userSpaceOnUse">
<stop offset="0.13" stop-color="white" stop-opacity="0"/>
<stop offset="0.21" stop-color="white" stop-opacity="0.0169"/>
<stop offset="0.45" stop-color="white" stop-opacity="0.25"/>
<stop offset="0.64" stop-color="white" stop-opacity="0.5929"/>
<stop offset="0.77" stop-color="white" stop-opacity="0.8836"/>
<stop offset="0.84" stop-color="white"/>
</linearGradient>
<linearGradient id="paint2_linear_8961_18252" x1="201.249" y1="37.6251" x2="183.001" y2="37.6251" gradientUnits="userSpaceOnUse">
<stop stop-color="white" stop-opacity="0"/>
<stop offset="0.09" stop-color="white" stop-opacity="0.04"/>
<stop offset="0.21" stop-color="white" stop-opacity="0.1936"/>
<stop offset="0.33" stop-color="white" stop-opacity="0.4096"/>
<stop offset="0.43" stop-color="white" stop-opacity="0.64"/>
<stop offset="0.53" stop-color="white" stop-opacity="0.8281"/>
<stop offset="0.62" stop-color="white" stop-opacity="0.9604"/>
<stop offset="0.68" stop-color="white"/>
</linearGradient>
<linearGradient id="paint3_linear_8961_18252" x1="72.167" y1="33.278" x2="94.4233" y2="33.278" gradientUnits="userSpaceOnUse">
<stop stop-color="white" stop-opacity="0"/>
<stop offset="0.09" stop-color="white" stop-opacity="0.01"/>
<stop offset="0.26" stop-color="white" stop-opacity="0.0361"/>
<stop offset="0.49" stop-color="white" stop-opacity="0.1764"/>
<stop offset="0.77" stop-color="white" stop-opacity="0.5329"/>
<stop offset="1" stop-color="white"/>
</linearGradient>
<linearGradient id="paint4_linear_8961_18252" x1="76.291" y1="37.0734" x2="3.95797" y2="37.0734" gradientUnits="userSpaceOnUse">
<stop stop-color="white" stop-opacity="0"/>
<stop offset="0.09" stop-color="white" stop-opacity="0.01"/>
<stop offset="0.26" stop-color="white" stop-opacity="0.0361"/>
<stop offset="0.49" stop-color="white" stop-opacity="0.1764"/>
<stop offset="0.77" stop-color="white" stop-opacity="0.5329"/>
<stop offset="1" stop-color="white"/>
</linearGradient>
<linearGradient id="paint5_linear_8961_18252" x1="81.6641" y1="41.5606" x2="3.95663" y2="41.5606" gradientUnits="userSpaceOnUse">
<stop stop-color="white" stop-opacity="0"/>
<stop offset="0.09" stop-color="white" stop-opacity="0.01"/>
<stop offset="0.26" stop-color="white" stop-opacity="0.0361"/>
<stop offset="0.49" stop-color="white" stop-opacity="0.1764"/>
<stop offset="0.77" stop-color="white" stop-opacity="0.5329"/>
<stop offset="1" stop-color="white"/>
</linearGradient>
</defs>
</svg>
