<svg width="20" height="20" viewBox="0 0 20 20" fill="none" xmlns="http://www.w3.org/2000/svg">
<mask id="mask0_1_6" style="mask-type:alpha" maskUnits="userSpaceOnUse" x="0" y="0" width="20" height="20">
<rect width="20" height="20" fill="#D9D9D9"/>
</mask>
<g mask="url(#mask0_1_6)">
<path d="M4.66667 18.5C4.20833 18.5 3.81597 18.3368 3.48958 18.0104C3.16319 17.684 3 17.2917 3 16.8333V8.5C3 8.04167 3.16319 7.64931 3.48958 7.32292C3.81597 6.99653 4.20833 6.83333 4.66667 6.83333H5.5V5.16667C5.5 4.01389 5.90625 3.03125 6.71875 2.21875C7.53125 1.40625 8.51389 1 9.66667 1C10.8194 1 11.8021 1.40625 12.6146 2.21875C13.4271 3.03125 13.8333 4.01389 13.8333 5.16667V6.83333H14.6667C15.125 6.83333 15.5174 6.99653 15.8438 7.32292C16.1701 7.64931 16.3333 8.04167 16.3333 8.5V16.8333C16.3333 17.2917 16.1701 17.684 15.8438 18.0104C15.5174 18.3368 15.125 18.5 14.6667 18.5H4.66667ZM9.66667 14.3333C10.125 14.3333 10.5174 14.1701 10.8438 13.8438C11.1701 13.5174 11.3333 13.125 11.3333 12.6667C11.3333 12.2083 11.1701 11.816 10.8438 11.4896C10.5174 11.1632 10.125 11 9.66667 11C9.20833 11 8.81597 11.1632 8.48958 11.4896C8.16319 11.816 8 12.2083 8 12.6667C8 13.125 8.16319 13.5174 8.48958 13.8438C8.81597 14.1701 9.20833 14.3333 9.66667 14.3333ZM7.16667 6.83333H12.1667V5.16667C12.1667 4.47222 11.9236 3.88194 11.4375 3.39583C10.9514 2.90972 10.3611 2.66667 9.66667 2.66667C8.97222 2.66667 8.38194 2.90972 7.89583 3.39583C7.40972 3.88194 7.16667 4.47222 7.16667 5.16667V6.83333Z" fill="white"/>
</g>
</svg>
