<svg width="21" height="21" viewBox="0 0 21 21" fill="none" xmlns="http://www.w3.org/2000/svg">
<mask id="mask0_1_3" style="mask-type:alpha" maskUnits="userSpaceOnUse" x="0" y="0" width="21" height="21">
<rect x="0.777344" y="0.373535" width="20" height="20" fill="#D9D9D9"/>
</mask>
<g mask="url(#mask0_1_3)">
<path d="M5.65218 14.6234C6.36051 14.0817 7.15218 13.6546 8.02718 13.3421C8.90218 13.0296 9.81885 12.8734 10.7772 12.8734C11.7355 12.8734 12.6522 13.0296 13.5272 13.3421C14.4022 13.6546 15.1938 14.0817 15.9022 14.6234C16.3883 14.0539 16.7668 13.4081 17.0376 12.6859C17.3084 11.9637 17.4438 11.1928 17.4438 10.3734C17.4438 8.52615 16.7945 6.95323 15.4959 5.65462C14.1973 4.35601 12.6244 3.70671 10.7772 3.70671C8.92996 3.70671 7.35704 4.35601 6.05843 5.65462C4.75982 6.95323 4.11051 8.52615 4.11051 10.3734C4.11051 11.1928 4.24593 11.9637 4.51676 12.6859C4.7876 13.4081 5.16607 14.0539 5.65218 14.6234ZM10.7772 11.2067C9.95774 11.2067 9.26676 10.9255 8.70426 10.363C8.14176 9.80046 7.86051 9.10948 7.86051 8.29004C7.86051 7.47059 8.14176 6.77962 8.70426 6.21712C9.26676 5.65462 9.95774 5.37337 10.7772 5.37337C11.5966 5.37337 12.2876 5.65462 12.8501 6.21712C13.4126 6.77962 13.6938 7.47059 13.6938 8.29004C13.6938 9.10948 13.4126 9.80046 12.8501 10.363C12.2876 10.9255 11.5966 11.2067 10.7772 11.2067ZM10.7772 18.7067C9.6244 18.7067 8.54107 18.488 7.52718 18.0505C6.51329 17.613 5.63135 17.0192 4.88135 16.2692C4.13135 15.5192 3.5376 14.6373 3.1001 13.6234C2.6626 12.6095 2.44385 11.5261 2.44385 10.3734C2.44385 9.22059 2.6626 8.13726 3.1001 7.12337C3.5376 6.10948 4.13135 5.22754 4.88135 4.47754C5.63135 3.72754 6.51329 3.13379 7.52718 2.69629C8.54107 2.25879 9.6244 2.04004 10.7772 2.04004C11.93 2.04004 13.0133 2.25879 14.0272 2.69629C15.0411 3.13379 15.923 3.72754 16.673 4.47754C17.423 5.22754 18.0168 6.10948 18.4543 7.12337C18.8918 8.13726 19.1105 9.22059 19.1105 10.3734C19.1105 11.5261 18.8918 12.6095 18.4543 13.6234C18.0168 14.6373 17.423 15.5192 16.673 16.2692C15.923 17.0192 15.0411 17.613 14.0272 18.0505C13.0133 18.488 11.93 18.7067 10.7772 18.7067Z" fill="white"/>
</g>
</svg>
