<svg width="1223" height="575" viewBox="0 0 1223 575" fill="none" xmlns="http://www.w3.org/2000/svg">
<rect width="1223" height="575" fill="#080B18"/>
<g clip-path="url(#clip0_24_42)">
<rect width="1223" height="566" rx="10" fill="white" fill-opacity="0.02"/>
<g filter="url(#filter0_f_24_42)">
<path d="M1308 -11.5C1308 57.2595 1252.26 113 1183.5 113C1114.74 113 453 4.75947 453 -64C453 -132.759 1114.74 -136 1183.5 -136C1252.26 -136 1308 -80.2594 1308 -11.5Z" fill="#36FFCC" fill-opacity="0.17"/>
</g>
<g opacity="0.7">
<path d="M1078 118.067C1078 182.775 1179.76 235.2 1305.35 235.2C1321.53 235.2 1337.31 234.328 1352.54 232.717H1350.73C1232.93 232.717 1137.41 181.433 1137.41 118.134C1137.41 54.8345 1232.86 3.48364 1350.73 3.48364H1352.27C1337.17 1.87263 1321.46 1 1305.35 1C1179.76 1 1078 53.4249 1078 118.067Z" fill="url(#paint0_linear_24_42)" fill-opacity="0.07"/>
<path d="M1078.5 118.067C1078.5 150.137 1103.73 179.29 1144.81 200.455C1185.86 221.606 1242.62 234.7 1305.35 234.7C1318.1 234.7 1330.6 234.158 1342.78 233.139C1286.97 232.042 1236.6 219.444 1199.65 199.603C1160.98 178.834 1136.91 150.056 1136.91 118.134C1136.91 86.2116 1160.97 57.4164 1199.63 36.6311C1236.53 16.7912 1286.85 4.18258 1342.63 3.06471C1330.52 2.0436 1318.06 1.5 1305.35 1.5C1242.62 1.5 1185.86 14.5942 1144.81 35.7372C1103.73 56.8935 1078.5 86.0294 1078.5 118.067Z" stroke="url(#paint1_linear_24_42)" stroke-opacity="0.3"/>
<path d="M1165.14 118.061C1165.14 156.456 1219.24 189.549 1297.18 204.652C1311.94 207.539 1327.58 209.754 1343.9 211.23C1278.72 193.778 1234.21 158.604 1234.21 118.061C1234.21 77.5169 1278.78 42.3432 1343.9 24.8906C1327.58 26.3674 1312.01 28.5825 1297.24 31.4689C1219.24 46.5721 1165.14 79.6649 1165.14 118.061Z" fill="url(#paint2_linear_24_42)" fill-opacity="0.07"/>
<path d="M1297.27 204.161L1297.27 204.161C1310.3 206.709 1324.02 208.733 1338.27 210.187C1308.04 201.473 1282.54 188.88 1264.29 173.689C1244.95 157.588 1233.71 138.53 1233.71 118.061C1233.71 97.591 1244.97 78.5333 1264.32 62.4321C1282.58 47.2413 1308.08 34.648 1338.28 25.9336C1324.04 27.388 1310.37 29.4122 1297.34 31.9596L1297.34 31.9598C1258.38 39.5039 1225.42 51.5355 1202.21 66.4507C1178.99 81.3759 1165.64 99.1163 1165.64 118.061C1165.64 137.005 1178.99 154.745 1202.2 169.67C1225.4 184.586 1258.34 196.617 1297.27 204.161Z" stroke="url(#paint3_linear_24_42)" stroke-opacity="0.3"/>
</g>
<g style="mix-blend-mode:color-dodge">
<rect width="8.52754" height="81.8644" transform="translate(949.856 4.92848) rotate(45)" fill="black"/>
<ellipse cx="923.928" cy="36.8868" rx="4.26377" ry="40.9322" transform="rotate(45 923.928 36.8868)" fill="url(#paint4_radial_24_42)"/>
</g>
<g style="mix-blend-mode:color-dodge">
<rect width="8.52754" height="81.8644" transform="translate(891.969 10.9584) rotate(-45)" fill="black"/>
<ellipse cx="923.928" cy="36.8868" rx="4.26377" ry="40.9322" transform="rotate(-45 923.928 36.8868)" fill="url(#paint5_radial_24_42)"/>
</g>
<g opacity="0.4">
<g style="mix-blend-mode:color-dodge">
<rect width="4.20679" height="40.3852" transform="translate(1135.39 13.791) rotate(45)" fill="black"/>
<ellipse cx="1122.6" cy="29.5566" rx="2.1034" ry="20.1926" transform="rotate(45 1122.6 29.5566)" fill="url(#paint6_radial_24_42)"/>
</g>
<g style="mix-blend-mode:color-dodge">
<rect width="4.20679" height="40.3852" transform="translate(1106.83 16.7656) rotate(-45)" fill="black"/>
<ellipse cx="1122.6" cy="29.5566" rx="2.1034" ry="20.1926" transform="rotate(-45 1122.6 29.5566)" fill="url(#paint7_radial_24_42)"/>
</g>
</g>
<g style="mix-blend-mode:color-dodge">
<rect width="6" height="7" transform="matrix(-1 0 0 1 1096.04 164)" fill="black"/>
<ellipse cx="3" cy="3.5" rx="3" ry="3.5" transform="matrix(-1 0 0 1 1096.04 164)" fill="url(#paint8_radial_24_42)"/>
</g>
<g style="mix-blend-mode:color-dodge">
<rect width="7" height="7" transform="matrix(-1 0 0 1 1078.04 143)" fill="black"/>
<circle cx="3.5" cy="3.5" r="3.5" transform="matrix(-1 0 0 1 1078.04 143)" fill="url(#paint9_radial_24_42)"/>
</g>
<g style="mix-blend-mode:color-dodge">
<rect width="7" height="7" transform="matrix(-1 0 0 1 1052.04 1)" fill="black"/>
<circle cx="3.5" cy="3.5" r="3.5" transform="matrix(-1 0 0 1 1052.04 1)" fill="url(#paint10_radial_24_42)"/>
</g>
<g style="mix-blend-mode:color-dodge">
<rect width="7" height="7" transform="matrix(-1 0 0 1 1191.04 44)" fill="black"/>
<circle cx="3.5" cy="3.5" r="3.5" transform="matrix(-1 0 0 1 1191.04 44)" fill="url(#paint11_radial_24_42)"/>
</g>
<g style="mix-blend-mode:color-dodge">
<rect width="7" height="8" transform="matrix(-1 0 0 1 1021.04 89)" fill="black"/>
<ellipse cx="3.5" cy="4" rx="3.5" ry="4" transform="matrix(-1 0 0 1 1021.04 89)" fill="url(#paint12_radial_24_42)"/>
</g>
<g style="mix-blend-mode:color-dodge">
<rect width="7" height="8" transform="matrix(-1 0 0 1 1107.04 61)" fill="black"/>
<ellipse cx="3.5" cy="4" rx="3.5" ry="4" transform="matrix(-1 0 0 1 1107.04 61)" fill="url(#paint13_radial_24_42)"/>
</g>
<g style="mix-blend-mode:color-dodge">
<rect width="6" height="6" transform="matrix(-1 0 0 1 1049.04 150)" fill="black"/>
<circle cx="3" cy="3" r="3" transform="matrix(-1 0 0 1 1049.04 150)" fill="url(#paint14_radial_24_42)"/>
</g>
</g>
<rect x="0.5" y="0.5" width="1222" height="565" rx="9.5" stroke="url(#paint15_linear_24_42)" stroke-opacity="0.4"/>
<rect x="0.5" y="0.5" width="1222" height="565" rx="9.5" stroke="black" stroke-opacity="0.2"/>
<defs>
<filter id="filter0_f_24_42" x="309" y="-280" width="1143" height="537" filterUnits="userSpaceOnUse" color-interpolation-filters="sRGB">
<feFlood flood-opacity="0" result="BackgroundImageFix"/>
<feBlend mode="normal" in="SourceGraphic" in2="BackgroundImageFix" result="shape"/>
<feGaussianBlur stdDeviation="72" result="effect1_foregroundBlur_24_42"/>
</filter>
<linearGradient id="paint0_linear_24_42" x1="1215.27" y1="0.999999" x2="1207.33" y2="189.941" gradientUnits="userSpaceOnUse">
<stop stop-color="white"/>
<stop offset="1" stop-color="white" stop-opacity="0"/>
</linearGradient>
<linearGradient id="paint1_linear_24_42" x1="1170.49" y1="22.2138" x2="1177.28" y2="147.799" gradientUnits="userSpaceOnUse">
<stop stop-color="white"/>
<stop offset="1" stop-color="white" stop-opacity="0"/>
</linearGradient>
<linearGradient id="paint2_linear_24_42" x1="1254.52" y1="24.8906" x2="1246.8" y2="175.09" gradientUnits="userSpaceOnUse">
<stop stop-color="white"/>
<stop offset="1" stop-color="white" stop-opacity="0"/>
</linearGradient>
<linearGradient id="paint3_linear_24_42" x1="1254.52" y1="24.8906" x2="1237.78" y2="177.669" gradientUnits="userSpaceOnUse">
<stop stop-color="white"/>
<stop offset="1" stop-color="white" stop-opacity="0"/>
</linearGradient>
<radialGradient id="paint4_radial_24_42" cx="0" cy="0" r="1" gradientUnits="userSpaceOnUse" gradientTransform="translate(923.928 36.8868) rotate(90) scale(40.9322 4.26377)">
<stop offset="0.0364583" stop-color="#FFF1E4"/>
<stop offset="1" stop-color="#3A71FF" stop-opacity="0"/>
</radialGradient>
<radialGradient id="paint5_radial_24_42" cx="0" cy="0" r="1" gradientUnits="userSpaceOnUse" gradientTransform="translate(923.928 36.8868) rotate(90) scale(40.9322 4.26377)">
<stop offset="0.0364583" stop-color="#FFF1E4"/>
<stop offset="1" stop-color="#3A71FF" stop-opacity="0"/>
</radialGradient>
<radialGradient id="paint6_radial_24_42" cx="0" cy="0" r="1" gradientUnits="userSpaceOnUse" gradientTransform="translate(1122.6 29.5566) rotate(90) scale(20.1926 2.1034)">
<stop offset="0.0364583" stop-color="#FFF1E4"/>
<stop offset="1" stop-color="#3A71FF" stop-opacity="0"/>
</radialGradient>
<radialGradient id="paint7_radial_24_42" cx="0" cy="0" r="1" gradientUnits="userSpaceOnUse" gradientTransform="translate(1122.6 29.5566) rotate(90) scale(20.1926 2.1034)">
<stop offset="0.0364583" stop-color="#FFF1E4"/>
<stop offset="1" stop-color="#3A71FF" stop-opacity="0"/>
</radialGradient>
<radialGradient id="paint8_radial_24_42" cx="0" cy="0" r="1" gradientUnits="userSpaceOnUse" gradientTransform="translate(3 3.5) rotate(90) scale(3.5 3)">
<stop offset="0.145833" stop-color="white"/>
<stop offset="1" stop-color="#FF5E5E" stop-opacity="0"/>
</radialGradient>
<radialGradient id="paint9_radial_24_42" cx="0" cy="0" r="1" gradientUnits="userSpaceOnUse" gradientTransform="translate(3.5 3.5) rotate(90) scale(3.5)">
<stop offset="0.015625" stop-color="white"/>
<stop offset="1" stop-color="#FF5E5E" stop-opacity="0"/>
</radialGradient>
<radialGradient id="paint10_radial_24_42" cx="0" cy="0" r="1" gradientUnits="userSpaceOnUse" gradientTransform="translate(3.5 3.5) rotate(90) scale(3.5)">
<stop offset="0.015625" stop-color="white"/>
<stop offset="1" stop-color="#FF5E5E" stop-opacity="0"/>
</radialGradient>
<radialGradient id="paint11_radial_24_42" cx="0" cy="0" r="1" gradientUnits="userSpaceOnUse" gradientTransform="translate(3.5 3.5) rotate(90) scale(3.5)">
<stop offset="0.015625" stop-color="white"/>
<stop offset="1" stop-color="#FF5E5E" stop-opacity="0"/>
</radialGradient>
<radialGradient id="paint12_radial_24_42" cx="0" cy="0" r="1" gradientUnits="userSpaceOnUse" gradientTransform="translate(3.5 4) rotate(90) scale(4 3.5)">
<stop offset="0.015625" stop-color="white"/>
<stop offset="1" stop-color="#FF5E5E" stop-opacity="0"/>
</radialGradient>
<radialGradient id="paint13_radial_24_42" cx="0" cy="0" r="1" gradientUnits="userSpaceOnUse" gradientTransform="translate(3.5 4) rotate(90) scale(4 3.5)">
<stop offset="0.015625" stop-color="white"/>
<stop offset="1" stop-color="#FF5E5E" stop-opacity="0"/>
</radialGradient>
<radialGradient id="paint14_radial_24_42" cx="0" cy="0" r="1" gradientUnits="userSpaceOnUse" gradientTransform="translate(3 3) rotate(90) scale(3)">
<stop offset="0.015625" stop-color="white"/>
<stop offset="1" stop-color="#FF5E5E" stop-opacity="0"/>
</radialGradient>
<linearGradient id="paint15_linear_24_42" x1="650.399" y1="-47.8777" x2="646.851" y2="23.9493" gradientUnits="userSpaceOnUse">
<stop stop-color="white"/>
<stop offset="1" stop-color="white" stop-opacity="0"/>
</linearGradient>
<clipPath id="clip0_24_42">
<rect width="1223" height="566" rx="10" fill="white"/>
</clipPath>
</defs>
</svg>
