<svg width="25" height="24" viewBox="0 0 25 24" fill="none" xmlns="http://www.w3.org/2000/svg">
<mask id="mask0_8961_9270" style="mask-type:alpha" maskUnits="userSpaceOnUse" x="0" y="0" width="25" height="24">
<rect x="0.333252" width="24" height="24" fill="#D9D9D9"/>
</mask>
<g mask="url(#mask0_8961_9270)">
<path d="M5.33325 22C4.78325 22 4.31242 21.8042 3.92075 21.4125C3.52909 21.0208 3.33325 20.55 3.33325 20V6C3.33325 5.45 3.52909 4.97917 3.92075 4.5875C4.31242 4.19583 4.78325 4 5.33325 4H6.33325V3C6.33325 2.71667 6.42909 2.47917 6.62075 2.2875C6.81242 2.09583 7.04992 2 7.33325 2C7.61659 2 7.85409 2.09583 8.04575 2.2875C8.23742 2.47917 8.33325 2.71667 8.33325 3V4H16.3333V3C16.3333 2.71667 16.4291 2.47917 16.6208 2.2875C16.8124 2.09583 17.0499 2 17.3333 2C17.6166 2 17.8541 2.09583 18.0458 2.2875C18.2374 2.47917 18.3333 2.71667 18.3333 3V4H19.3333C19.8833 4 20.3541 4.19583 20.7458 4.5875C21.1374 4.97917 21.3333 5.45 21.3333 6V20C21.3333 20.55 21.1374 21.0208 20.7458 21.4125C20.3541 21.8042 19.8833 22 19.3333 22H5.33325ZM5.33325 20H19.3333V10H5.33325V20ZM12.3333 14C12.0499 14 11.8124 13.9042 11.6208 13.7125C11.4291 13.5208 11.3333 13.2833 11.3333 13C11.3333 12.7167 11.4291 12.4792 11.6208 12.2875C11.8124 12.0958 12.0499 12 12.3333 12C12.6166 12 12.8541 12.0958 13.0458 12.2875C13.2374 12.4792 13.3333 12.7167 13.3333 13C13.3333 13.2833 13.2374 13.5208 13.0458 13.7125C12.8541 13.9042 12.6166 14 12.3333 14ZM8.33325 14C8.04992 14 7.81242 13.9042 7.62075 13.7125C7.42909 13.5208 7.33325 13.2833 7.33325 13C7.33325 12.7167 7.42909 12.4792 7.62075 12.2875C7.81242 12.0958 8.04992 12 8.33325 12C8.61659 12 8.85409 12.0958 9.04575 12.2875C9.23742 12.4792 9.33325 12.7167 9.33325 13C9.33325 13.2833 9.23742 13.5208 9.04575 13.7125C8.85409 13.9042 8.61659 14 8.33325 14ZM16.3333 14C16.0499 14 15.8124 13.9042 15.6208 13.7125C15.4291 13.5208 15.3333 13.2833 15.3333 13C15.3333 12.7167 15.4291 12.4792 15.6208 12.2875C15.8124 12.0958 16.0499 12 16.3333 12C16.6166 12 16.8541 12.0958 17.0458 12.2875C17.2374 12.4792 17.3333 12.7167 17.3333 13C17.3333 13.2833 17.2374 13.5208 17.0458 13.7125C16.8541 13.9042 16.6166 14 16.3333 14ZM12.3333 18C12.0499 18 11.8124 17.9042 11.6208 17.7125C11.4291 17.5208 11.3333 17.2833 11.3333 17C11.3333 16.7167 11.4291 16.4792 11.6208 16.2875C11.8124 16.0958 12.0499 16 12.3333 16C12.6166 16 12.8541 16.0958 13.0458 16.2875C13.2374 16.4792 13.3333 16.7167 13.3333 17C13.3333 17.2833 13.2374 17.5208 13.0458 17.7125C12.8541 17.9042 12.6166 18 12.3333 18ZM8.33325 18C8.04992 18 7.81242 17.9042 7.62075 17.7125C7.42909 17.5208 7.33325 17.2833 7.33325 17C7.33325 16.7167 7.42909 16.4792 7.62075 16.2875C7.81242 16.0958 8.04992 16 8.33325 16C8.61659 16 8.85409 16.0958 9.04575 16.2875C9.23742 16.4792 9.33325 16.7167 9.33325 17C9.33325 17.2833 9.23742 17.5208 9.04575 17.7125C8.85409 17.9042 8.61659 18 8.33325 18ZM16.3333 18C16.0499 18 15.8124 17.9042 15.6208 17.7125C15.4291 17.5208 15.3333 17.2833 15.3333 17C15.3333 16.7167 15.4291 16.4792 15.6208 16.2875C15.8124 16.0958 16.0499 16 16.3333 16C16.6166 16 16.8541 16.0958 17.0458 16.2875C17.2374 16.4792 17.3333 16.7167 17.3333 17C17.3333 17.2833 17.2374 17.5208 17.0458 17.7125C16.8541 17.9042 16.6166 18 16.3333 18Z" fill="white"/>
</g>
</svg>
