<svg width="20" height="20" viewBox="0 0 20 20" fill="none" xmlns="http://www.w3.org/2000/svg">
<mask id="mask0_9026_5940" style="mask-type:alpha" maskUnits="userSpaceOnUse" x="0" y="0" width="20" height="20">
<rect width="20" height="20" fill="#D9D9D9"/>
</mask>
<g mask="url(#mask0_9026_5940)">
<path d="M1.45826 10.8728C1.2916 10.7061 1.21173 10.5117 1.21868 10.2895C1.22562 10.0673 1.31243 9.87281 1.4791 9.70615C1.64576 9.55337 1.84021 9.47351 2.06243 9.46656C2.28465 9.45962 2.47909 9.53948 2.64576 9.70615L6.18743 13.2478C6.35409 13.4145 6.43396 13.6089 6.42701 13.8311C6.42007 14.0534 6.33326 14.2478 6.16659 14.4145C5.99993 14.5673 5.80548 14.6471 5.58326 14.6541C5.36104 14.661 5.16659 14.5811 4.99993 14.4145L1.45826 10.8728ZM10.2916 12.6436L17.3749 5.56031C17.5416 5.39365 17.736 5.31378 17.9583 5.32073C18.1805 5.32767 18.3749 5.41448 18.5416 5.58115C18.6944 5.74781 18.7742 5.94226 18.7812 6.16448C18.7881 6.3867 18.7083 6.58115 18.5416 6.74781L10.8749 14.4145C10.7083 14.5811 10.5138 14.6645 10.2916 14.6645C10.0694 14.6645 9.87493 14.5811 9.70826 14.4145L6.16659 10.8728C6.01382 10.72 5.93743 10.5291 5.93743 10.2999C5.93743 10.0707 6.01382 9.87281 6.16659 9.70615C6.33326 9.53948 6.53118 9.45615 6.76034 9.45615C6.98951 9.45615 7.18743 9.53948 7.35409 9.70615L10.2916 12.6436ZM13.8124 6.76865L10.8749 9.70615C10.7222 9.85892 10.5312 9.93531 10.302 9.93531C10.0728 9.93531 9.87493 9.85892 9.70826 9.70615C9.54159 9.53948 9.45826 9.34156 9.45826 9.1124C9.45826 8.88323 9.54159 8.68531 9.70826 8.51865L12.6458 5.58115C12.7985 5.42837 12.9895 5.35198 13.2187 5.35198C13.4478 5.35198 13.6458 5.42837 13.8124 5.58115C13.9791 5.74781 14.0624 5.94573 14.0624 6.1749C14.0624 6.40406 13.9791 6.60198 13.8124 6.76865Z" fill="#6DF27E"/>
</g>
</svg>
