<svg width="36" height="36" viewBox="0 0 36 36" fill="none" xmlns="http://www.w3.org/2000/svg">
<path d="M2.79972 31.3344L2.79978 31.3344L2.79559 31.3276C2.28868 30.5055 2 29.5313 2 28.5C2 25.4611 4.46114 23 7.5 23C10.5389 23 13 25.4611 13 28.5C13 29.5313 12.7113 30.5055 12.2044 31.3276L12.2044 31.3275L12.2003 31.3344C11.2521 32.9285 9.50725 34 7.5 34C5.49275 34 3.74793 32.9285 2.79972 31.3344ZM9.125 30.765V30.095H9.735C10.6455 30.095 11.36 29.3568 11.36 28.47C11.36 27.5789 10.6261 26.845 9.735 26.845H9.125V26.28C9.125 25.3889 8.39114 24.655 7.5 24.655C6.60886 24.655 5.875 25.3889 5.875 26.28V26.845H5.265C4.37386 26.845 3.64 27.5789 3.64 28.47C3.64 29.3611 4.37386 30.095 5.265 30.095H5.875V30.765C5.875 31.6561 6.60886 32.39 7.5 32.39C8.39114 32.39 9.125 31.6561 9.125 30.765Z" fill="#ECECEC" stroke="#FBFBFB"/>
<path d="M28.5 19.25H32.25C32.3939 19.25 32.5 19.3561 32.5 19.5V24C32.5 24.1439 32.3939 24.25 32.25 24.25H28.5C27.1261 24.25 26 23.1239 26 21.75C26 20.3761 27.1261 19.25 28.5 19.25Z" fill="#ECECEC" stroke="#FBFBFB"/>
<path d="M24.4414 8.45574L24.4413 8.45579L24.4474 8.46168C24.4856 8.49857 24.4907 8.52333 24.492 8.53181C24.4937 8.54335 24.4928 8.56282 24.479 8.58928C24.4505 8.64397 24.3722 8.71213 24.2401 8.71219C24.2401 8.71219 24.24 8.71219 24.2399 8.71219L11.8205 8.69719H11.8199C11.5467 8.69719 11.4076 8.36668 11.6035 8.17074L11.6045 8.16973L14.2284 5.53086C16.253 3.5211 19.5213 3.52096 21.5461 5.53045L24.3795 8.39388L24.3814 8.39575L24.4414 8.45574Z" fill="#ECECEC" stroke="#FBFBFB"/>
<path d="M32.3278 27.8409L32.3277 27.8408L32.3256 27.848C31.4795 30.7055 29.0503 32.5 25.65 32.5H15.9C15.8052 32.5 15.7181 32.4508 15.6597 32.3533C15.5998 32.2532 15.588 32.1281 15.6369 32.0181L15.637 32.0181L15.6396 32.012C16.1105 30.9132 16.415 29.6609 16.415 28.5C16.415 23.6789 12.4862 19.75 7.66504 19.75C6.45532 19.75 5.27741 20.0046 4.19533 20.4816C4.075 20.5331 3.93488 20.5203 3.82364 20.4555C3.71568 20.3926 3.66504 20.3014 3.66504 20.205V18C3.66504 16.0619 4.24802 14.4492 5.25369 13.2693C6.25835 12.0906 7.71158 11.3121 9.5123 11.0861L9.52069 11.0851L9.52904 11.0837C9.8749 11.0284 10.2533 11 10.65 11H25.65C26.0297 11 26.3729 11.0149 26.6928 11.0682L26.7056 11.0703L26.7185 11.0718C29.5561 11.3949 31.5743 13.1059 32.3255 15.6515L32.3265 15.655C32.3823 15.8391 32.249 16 32.085 16H28.65C25.0879 16 22.2597 19.2514 23.0302 22.9454C23.5776 25.6608 26.0817 27.5 28.8 27.5H32.085C32.2542 27.5 32.3828 27.6649 32.3278 27.8409Z" fill="#ECECEC" stroke="#FBFBFB"/>
</svg>
