<svg width="37" height="36" viewBox="0 0 37 36" fill="none" xmlns="http://www.w3.org/2000/svg">
<path d="M11.442 8.36184L11.448 8.34825L11.4532 8.33433L11.5392 8.10493C11.5679 8.03782 11.5835 7.99808 11.594 7.97142C11.6068 7.93877 11.612 7.92572 11.6238 7.90602L11.641 7.8774L11.6542 7.84676C12.512 5.85739 13.3829 4.65199 14.3937 4.03491C15.2662 3.50224 16.3165 3.36542 17.7171 3.66009L14.4657 11.2288H11.18C10.8611 11.2288 10.5431 11.241 10.2266 11.2701L11.3843 8.49148L11.442 8.36184Z" fill="white" fill-opacity="0.4" stroke="white"/>
<path d="M25.8199 11.2313H17.1893L20.1176 4.42473C20.1866 4.45184 20.2591 4.47915 20.333 4.50425L23.631 5.89211L23.631 5.89211L23.6334 5.89312C25.4478 6.64541 26.6448 7.39947 27.3623 8.26111C27.4916 8.43363 27.5984 8.58157 27.7041 8.7533L27.704 8.75335L27.7093 8.76163C27.8267 8.94423 27.9044 9.10599 27.9468 9.26508L27.957 9.30324L27.973 9.33932C28.0258 9.45799 28.0568 9.54442 28.0768 9.63471L28.0805 9.65117L28.0852 9.66733C28.2436 10.2057 28.2876 10.8176 28.1969 11.5097C27.4173 11.3273 26.6248 11.2313 25.8199 11.2313Z" fill="white" fill-opacity="0.4" stroke="white"/>
<path d="M19.78 25.9603V25.2109C19.8496 25.2383 19.8918 25.2568 19.923 25.2739C19.9356 25.2808 19.943 25.2858 19.947 25.2887C19.9547 25.3063 19.98 25.3813 19.98 25.595C19.98 25.7793 19.8841 25.9037 19.78 25.9603Z" fill="white" fill-opacity="0.4" stroke="white"/>
<path d="M8.49802 15.0285L8.49891 15.0282C9.33365 14.6664 10.2257 14.4844 11.1801 14.4844H25.8201C26.5055 14.4844 27.1626 14.582 27.7928 14.7637C30.5882 15.618 32.6401 18.2185 32.6401 21.3044V24.2294C32.6401 24.5144 32.6259 24.802 32.6108 25.0876C32.473 27.6263 31.7026 29.4556 30.3698 30.6567C29.0326 31.8617 27.0519 32.5044 24.3501 32.5044H12.6501C12.3026 32.5044 11.9801 32.4767 11.6498 32.4336L11.634 32.4315L11.6181 32.4305C9.31402 32.2783 7.61313 31.5917 6.4484 30.4287C5.28355 29.2655 4.59335 27.5644 4.43392 25.2599L4.43296 25.2461L4.43125 25.2324C4.38771 24.8841 4.36011 24.5613 4.36011 24.2294V21.3044C4.36011 18.4968 6.06412 16.0776 8.49802 15.0285ZM22.5401 25.5944C22.5401 24.6932 22.2728 24.0445 21.8615 23.5847C21.461 23.1371 20.9641 22.9144 20.586 22.7827C20.5854 22.7825 20.5849 22.7823 20.5844 22.7821L19.7801 22.4964V20.9748C19.8977 21.0899 19.9801 21.261 19.9801 21.4694C19.9801 22.1805 20.549 22.7494 21.2601 22.7494C21.9713 22.7494 22.5401 22.1805 22.5401 21.4694C22.5401 19.8307 21.3333 18.4585 19.7717 18.2752C19.6986 17.6353 19.1607 17.1444 18.5001 17.1444C17.8459 17.1444 17.3121 17.6258 17.2308 18.2566C15.675 18.3179 14.4601 19.6262 14.4601 21.2144C14.4601 22.1156 14.7274 22.7643 15.1387 23.224C15.5392 23.6716 16.0361 23.8944 16.4142 24.0261C16.4148 24.0262 16.4153 24.0264 16.4158 24.0266L17.2201 24.3124V25.8339C17.1025 25.7189 17.0201 25.5477 17.0201 25.3394C17.0201 24.6282 16.4512 24.0594 15.7401 24.0594C15.029 24.0594 14.4601 24.6282 14.4601 25.3394C14.4601 26.978 15.6669 28.3503 17.2286 28.5336C17.3016 29.1734 17.8395 29.6644 18.5001 29.6644C19.1543 29.6644 19.6882 29.1829 19.7694 28.5521C21.3252 28.4908 22.5401 27.1826 22.5401 25.5944Z" fill="white" fill-opacity="0.4" stroke="white"/>
<path d="M17.02 21.2125C17.02 21.0214 17.1136 20.8981 17.22 20.844V21.5966C17.1505 21.5692 17.1083 21.5507 17.0771 21.5336C17.0645 21.5267 17.057 21.5217 17.053 21.5188C17.0454 21.5012 17.02 21.4262 17.02 21.2125Z" fill="white" fill-opacity="0.4" stroke="white"/>
</svg>
