<svg width="60" height="60" viewBox="0 0 60 60" fill="none" xmlns="http://www.w3.org/2000/svg">
<path d="M22 4.6188C26.9504 1.76068 33.0496 1.76068 38 4.6188L47.9808 10.3812C52.9312 13.2393 55.9808 18.5214 55.9808 24.2376V35.7624C55.9808 41.4786 52.9312 46.7607 47.9808 49.6188L38 55.3812C33.0496 58.2393 26.9504 58.2393 22 55.3812L12.0192 49.6188C7.06882 46.7607 4.01924 41.4786 4.01924 35.7624V24.2376C4.01924 18.5214 7.06882 13.2393 12.0192 10.3812L22 4.6188Z" fill="url(#paint0_linear_9233_6848)"/>
<path d="M22 4.6188C26.9504 1.76068 33.0496 1.76068 38 4.6188L47.9808 10.3812C52.9312 13.2393 55.9808 18.5214 55.9808 24.2376V35.7624C55.9808 41.4786 52.9312 46.7607 47.9808 49.6188L38 55.3812C33.0496 58.2393 26.9504 58.2393 22 55.3812L12.0192 49.6188C7.06882 46.7607 4.01924 41.4786 4.01924 35.7624V24.2376C4.01924 18.5214 7.06882 13.2393 12.0192 10.3812L22 4.6188Z" fill="url(#paint1_linear_9233_6848)"/>
<path d="M22.2809 7.1813C27.2313 4.32318 33.3305 4.32318 38.2809 7.1813L46.279 11.799C51.2294 14.6571 54.279 19.9391 54.279 25.6554V34.8908C54.279 40.607 51.2294 45.8891 46.279 48.7472L38.2809 53.3649C33.3305 56.223 27.2313 56.223 22.2809 53.3649L14.2828 48.7472C9.33242 45.8891 6.28283 40.607 6.28283 34.8908V25.6554C6.28283 19.9392 9.33241 14.6571 14.2828 11.799L22.2809 7.1813Z" fill="url(#paint2_linear_9233_6848)"/>
<path d="M22.2809 7.1813C27.2313 4.32318 33.3305 4.32318 38.2809 7.1813L46.279 11.799C51.2294 14.6571 54.279 19.9391 54.279 25.6554V34.8908C54.279 40.607 51.2294 45.8891 46.279 48.7472L38.2809 53.3649C33.3305 56.223 27.2313 56.223 22.2809 53.3649L14.2828 48.7472C9.33242 45.8891 6.28283 40.607 6.28283 34.8908V25.6554C6.28283 19.9392 9.33241 14.6571 14.2828 11.799L22.2809 7.1813Z" fill="url(#paint3_linear_9233_6848)"/>
<path d="M22.266 12.2516C27.2164 9.39349 33.3156 9.39349 38.266 12.2516L41.8697 14.3322C46.8201 17.1903 49.8697 22.4723 49.8697 28.1886V32.3498C49.8697 38.066 46.8201 43.348 41.8697 46.2062L38.266 48.2867C33.3156 51.1449 27.2164 51.1449 22.266 48.2867L18.6623 46.2062C13.7119 43.348 10.6623 38.066 10.6623 32.3498V28.1886C10.6623 22.4724 13.7119 17.1903 18.6623 14.3322L22.266 12.2516Z" fill="white"/>
<path d="M22.266 12.2516C27.2164 9.39349 33.3156 9.39349 38.266 12.2516L41.8697 14.3322C46.8201 17.1903 49.8697 22.4723 49.8697 28.1886V32.3498C49.8697 38.066 46.8201 43.348 41.8697 46.2062L38.266 48.2867C33.3156 51.1449 27.2164 51.1449 22.266 48.2867L18.6623 46.2062C13.7119 43.348 10.6623 38.066 10.6623 32.3498V28.1886C10.6623 22.4724 13.7119 17.1903 18.6623 14.3322L22.266 12.2516Z" fill="url(#paint4_linear_9233_6848)"/>
<path d="M30.2558 16.8353L30.2534 30.6042L18.3304 23.7176L30.2558 16.8353Z" fill="url(#paint5_linear_9233_6848)"/>
<path d="M30.2558 16.8353L30.2534 30.6042L18.3304 23.7176L30.2558 16.8353Z" fill="url(#paint6_linear_9233_6848)"/>
<path d="M30.2558 16.8353L30.2534 30.6042L18.3304 23.7176L30.2558 16.8353Z" fill="url(#paint7_linear_9233_6848)"/>
<path d="M30.2558 16.8353L30.2534 30.6042L18.3304 23.7176L30.2558 16.8353Z" fill="url(#paint8_linear_9233_6848)"/>
<path d="M41.8547 23.7225L29.9857 30.7014L41.9641 37.4909L41.8547 23.7225Z" fill="url(#paint9_linear_9233_6848)"/>
<path d="M41.8547 23.7225L29.9857 30.7014L41.9641 37.4909L41.8547 23.7225Z" fill="url(#paint10_linear_9233_6848)"/>
<path d="M41.8547 23.7225L29.9857 30.7014L41.9641 37.4909L41.8547 23.7225Z" fill="url(#paint11_linear_9233_6848)"/>
<path d="M30.0319 30.5995L30.0344 44.3684L41.9573 37.4818L30.0319 30.5995Z" fill="url(#paint12_linear_9233_6848)"/>
<path d="M30.0319 30.5995L30.0344 44.3684L41.9573 37.4818L30.0319 30.5995Z" fill="url(#paint13_linear_9233_6848)"/>
<path d="M30.0319 30.5995L30.0344 44.3684L41.9573 37.4818L30.0319 30.5995Z" fill="url(#paint14_linear_9233_6848)"/>
<path d="M30.1734 30.8047L18.1767 37.4828L30.0238 44.3758L30.1734 30.8047Z" fill="url(#paint15_linear_9233_6848)"/>
<path d="M30.1734 30.8047L18.1767 37.4828L30.0238 44.3758L30.1734 30.8047Z" fill="url(#paint16_linear_9233_6848)"/>
<path d="M30.1734 30.8047L18.1767 37.4828L30.0238 44.3758L30.1734 30.8047Z" fill="url(#paint17_linear_9233_6848)"/>
<path d="M30.1734 30.8047L18.1767 37.4828L30.0238 44.3758L30.1734 30.8047Z" fill="url(#paint18_linear_9233_6848)"/>
<path d="M29.988 31.2393L41.9055 23.7028L30.2691 16.8267L29.988 31.2393Z" fill="url(#paint19_linear_9233_6848)"/>
<path d="M29.988 31.2393L41.9055 23.7028L30.2691 16.8267L29.988 31.2393Z" fill="url(#paint20_linear_9233_6848)"/>
<path d="M29.988 31.2393L41.9055 23.7028L30.2691 16.8267L29.988 31.2393Z" fill="url(#paint21_linear_9233_6848)"/>
<path d="M29.988 31.2393L41.9055 23.7028L30.2691 16.8267L29.988 31.2393Z" fill="url(#paint22_linear_9233_6848)"/>
<path d="M41.8547 23.7225L29.9857 30.7014L41.9641 37.4909L41.8547 23.7225Z" fill="url(#paint23_linear_9233_6848)"/>
<path d="M41.8547 23.7225L29.9857 30.7014L41.9641 37.4909L41.8547 23.7225Z" fill="url(#paint24_linear_9233_6848)"/>
<path d="M41.8547 23.7225L29.9857 30.7014L41.9641 37.4909L41.8547 23.7225Z" fill="url(#paint25_linear_9233_6848)"/>
<path d="M18.2939 23.7225L30.6743 30.7025L18.1845 37.4909L18.2939 23.7225Z" fill="url(#paint26_linear_9233_6848)"/>
<path d="M18.2939 23.7225L30.6743 30.7025L18.1845 37.4909L18.2939 23.7225Z" fill="url(#paint27_linear_9233_6848)"/>
<path d="M18.2939 23.7225L30.6743 30.7025L18.1845 37.4909L18.2939 23.7225Z" fill="url(#paint28_linear_9233_6848)"/>
<path d="M18.2939 23.7225L30.6743 30.7025L18.1845 37.4909L18.2939 23.7225Z" fill="url(#paint29_linear_9233_6848)"/>
<path d="M41.8547 23.7225L29.9857 30.7014L41.9641 37.4909L41.8547 23.7225Z" fill="url(#paint30_linear_9233_6848)"/>
<path d="M41.8547 23.7225L29.9857 30.7014L41.9641 37.4909L41.8547 23.7225Z" fill="url(#paint31_linear_9233_6848)"/>
<path d="M41.8547 23.7225L29.9857 30.7014L41.9641 37.4909L41.8547 23.7225Z" fill="url(#paint32_linear_9233_6848)"/>
<path d="M31.5798 22.6975L36.5059 25.5416C37.2794 25.9881 37.7559 26.8135 37.7559 27.7066V33.3948C37.7559 34.288 37.2794 35.1133 36.5059 35.5599L31.5798 38.404C30.8063 38.8506 29.8533 38.8506 29.0798 38.404L24.1537 35.5599C23.3802 35.1133 22.9037 34.288 22.9037 33.3948V27.7066C22.9037 26.8135 23.3802 25.9881 24.1537 25.5416L29.0798 22.6975C29.8533 22.2509 30.8063 22.2509 31.5798 22.6975Z" fill="url(#paint33_linear_9233_6848)"/>
<path d="M31.5798 22.6975L36.5059 25.5416C37.2794 25.9881 37.7559 26.8135 37.7559 27.7066V33.3948C37.7559 34.288 37.2794 35.1133 36.5059 35.5599L31.5798 38.404C30.8063 38.8506 29.8533 38.8506 29.0798 38.404L24.1537 35.5599C23.3802 35.1133 22.9037 34.288 22.9037 33.3948V27.7066C22.9037 26.8135 23.3802 25.9881 24.1537 25.5416L29.0798 22.6975C29.8533 22.2509 30.8063 22.2509 31.5798 22.6975Z" fill="url(#paint34_linear_9233_6848)"/>
<path d="M31.5798 22.6975L36.5059 25.5416C37.2794 25.9881 37.7559 26.8135 37.7559 27.7066V33.3948C37.7559 34.288 37.2794 35.1133 36.5059 35.5599L31.5798 38.404C30.8063 38.8506 29.8533 38.8506 29.0798 38.404L24.1537 35.5599C23.3802 35.1133 22.9037 34.288 22.9037 33.3948V27.7066C22.9037 26.8135 23.3802 25.9881 24.1537 25.5416L29.0798 22.6975C29.8533 22.2509 30.8063 22.2509 31.5798 22.6975Z" fill="url(#paint35_linear_9233_6848)"/>
<path d="M31.5798 22.6975L36.5059 25.5416C37.2794 25.9881 37.7559 26.8135 37.7559 27.7066V33.3948C37.7559 34.288 37.2794 35.1133 36.5059 35.5599L31.5798 38.404C30.8063 38.8506 29.8533 38.8506 29.0798 38.404L24.1537 35.5599C23.3802 35.1133 22.9037 34.288 22.9037 33.3948V27.7066C22.9037 26.8135 23.3802 25.9881 24.1537 25.5416L29.0798 22.6975C29.8533 22.2509 30.8063 22.2509 31.5798 22.6975Z" stroke="#296F96"/>
<defs>
<linearGradient id="paint0_linear_9233_6848" x1="30" y1="0" x2="30" y2="60" gradientUnits="userSpaceOnUse">
<stop stop-color="#303D50"/>
<stop offset="1" stop-color="#303D50"/>
</linearGradient>
<linearGradient id="paint1_linear_9233_6848" x1="8.33839" y1="4.49773" x2="20.2581" y2="58.9178" gradientUnits="userSpaceOnUse">
<stop stop-color="#CCDDFF"/>
<stop offset="1" stop-color="#4EA7D2"/>
</linearGradient>
<linearGradient id="paint2_linear_9233_6848" x1="30.2809" y1="2.5625" x2="30.2809" y2="57.9837" gradientUnits="userSpaceOnUse">
<stop stop-color="#F4F7FD"/>
<stop offset="1" stop-color="#A3B2CF"/>
</linearGradient>
<linearGradient id="paint3_linear_9233_6848" x1="158.934" y1="114.734" x2="39.7563" y2="148.463" gradientUnits="userSpaceOnUse">
<stop stop-color="#1BB157"/>
<stop offset="1" stop-color="#51A7D8"/>
</linearGradient>
<linearGradient id="paint4_linear_9233_6848" x1="30.2661" y1="7.63288" x2="55.1286" y2="30.1841" gradientUnits="userSpaceOnUse">
<stop stop-color="#79F9AC"/>
<stop offset="1" stop-color="#35C6F3"/>
</linearGradient>
<linearGradient id="paint5_linear_9233_6848" x1="30.2558" y1="16.8353" x2="22.3039" y2="30.6028" gradientUnits="userSpaceOnUse">
<stop stop-color="#D9E8F8"/>
<stop offset="1" stop-color="#9CAEC9"/>
</linearGradient>
<linearGradient id="paint6_linear_9233_6848" x1="37.4991" y1="24.2489" x2="34.9419" y2="33.5298" gradientUnits="userSpaceOnUse">
<stop stop-color="#7EFFB2"/>
<stop offset="1" stop-color="#82D2FF"/>
</linearGradient>
<linearGradient id="paint7_linear_9233_6848" x1="30.0371" y1="39.3801" x2="12.4232" y2="29.0319" gradientUnits="userSpaceOnUse">
<stop stop-color="#79F9AC"/>
<stop offset="1" stop-color="#35C6F3"/>
</linearGradient>
<linearGradient id="paint8_linear_9233_6848" x1="30.0371" y1="39.3801" x2="12.4232" y2="29.0319" gradientUnits="userSpaceOnUse">
<stop stop-color="#79F9AC"/>
<stop offset="1" stop-color="#279CC0"/>
</linearGradient>
<linearGradient id="paint9_linear_9233_6848" x1="42.1048" y1="23.5958" x2="34.265" y2="37.4274" gradientUnits="userSpaceOnUse">
<stop stop-color="#D9E8F8"/>
<stop offset="1" stop-color="#9CAEC9"/>
</linearGradient>
<linearGradient id="paint10_linear_9233_6848" x1="33.3011" y1="21.2854" x2="28.4064" y2="26.6719" gradientUnits="userSpaceOnUse">
<stop stop-color="#7EFFB2"/>
<stop offset="1" stop-color="#82D2FF"/>
</linearGradient>
<linearGradient id="paint11_linear_9233_6848" x1="26.2416" y1="31.7974" x2="41.7069" y2="40.3893" gradientUnits="userSpaceOnUse">
<stop stop-color="#79F9AC"/>
<stop offset="1" stop-color="#279CC0"/>
</linearGradient>
<linearGradient id="paint12_linear_9233_6848" x1="29.9284" y1="30.7005" x2="37.8803" y2="44.4679" gradientUnits="userSpaceOnUse">
<stop stop-color="#D9E8F8"/>
<stop offset="1" stop-color="#9CAEC9"/>
</linearGradient>
<linearGradient id="paint13_linear_9233_6848" x1="23.5967" y1="36.7388" x2="25.7602" y2="43.688" gradientUnits="userSpaceOnUse">
<stop stop-color="#7EFFB2"/>
<stop offset="1" stop-color="#82D2FF"/>
</linearGradient>
<linearGradient id="paint14_linear_9233_6848" x1="29.0821" y1="48.1515" x2="44.3258" y2="39.1723" gradientUnits="userSpaceOnUse">
<stop stop-color="#79F9AC"/>
<stop offset="1" stop-color="#279CC0"/>
</linearGradient>
<linearGradient id="paint15_linear_9233_6848" x1="33.7464" y1="28.0717" x2="20.159" y2="46.3063" gradientUnits="userSpaceOnUse">
<stop stop-color="#D9E8F8"/>
<stop offset="1" stop-color="#9CAEC9"/>
</linearGradient>
<linearGradient id="paint16_linear_9233_6848" x1="22.9482" y1="28.1683" x2="17.0966" y2="33.0494" gradientUnits="userSpaceOnUse">
<stop stop-color="#7EFFB2"/>
<stop offset="1" stop-color="#82D2FF"/>
</linearGradient>
<linearGradient id="paint17_linear_9233_6848" x1="14.2653" y1="38.2349" x2="28.3803" y2="48.577" gradientUnits="userSpaceOnUse">
<stop stop-color="#79F9AC"/>
<stop offset="1" stop-color="#35C6F3"/>
</linearGradient>
<linearGradient id="paint18_linear_9233_6848" x1="14.2653" y1="38.2349" x2="28.3803" y2="48.577" gradientUnits="userSpaceOnUse">
<stop stop-color="#79F9AC"/>
<stop offset="1" stop-color="#279CC0"/>
</linearGradient>
<linearGradient id="paint19_linear_9233_6848" x1="28.0273" y1="33.5866" x2="39.3975" y2="13.8929" gradientUnits="userSpaceOnUse">
<stop stop-color="#D9E8F8"/>
<stop offset="1" stop-color="#9CAEC9"/>
</linearGradient>
<linearGradient id="paint20_linear_9233_6848" x1="38.268" y1="33.4557" x2="43.5677" y2="27.9056" gradientUnits="userSpaceOnUse">
<stop stop-color="#7EFFB2"/>
<stop offset="1" stop-color="#82D2FF"/>
</linearGradient>
<linearGradient id="paint21_linear_9233_6848" x1="45.7651" y1="22.3513" x2="30.6572" y2="13.7876" gradientUnits="userSpaceOnUse">
<stop stop-color="#79F9AC"/>
<stop offset="1" stop-color="#35C6F3"/>
</linearGradient>
<linearGradient id="paint22_linear_9233_6848" x1="45.7651" y1="22.3513" x2="30.6572" y2="13.7876" gradientUnits="userSpaceOnUse">
<stop stop-color="#79F9AC"/>
<stop offset="1" stop-color="#279CC0"/>
</linearGradient>
<linearGradient id="paint23_linear_9233_6848" x1="42.1048" y1="23.5958" x2="34.265" y2="37.4274" gradientUnits="userSpaceOnUse">
<stop stop-color="#D9E8F8"/>
<stop offset="1" stop-color="#9CAEC9"/>
</linearGradient>
<linearGradient id="paint24_linear_9233_6848" x1="33.3011" y1="21.2854" x2="28.4064" y2="26.6719" gradientUnits="userSpaceOnUse">
<stop stop-color="#7EFFB2"/>
<stop offset="1" stop-color="#82D2FF"/>
</linearGradient>
<linearGradient id="paint25_linear_9233_6848" x1="26.2416" y1="31.7974" x2="41.7069" y2="40.3893" gradientUnits="userSpaceOnUse">
<stop stop-color="#79F9AC"/>
<stop offset="1" stop-color="#279CC0"/>
</linearGradient>
<linearGradient id="paint26_linear_9233_6848" x1="18.0439" y1="23.5958" x2="25.8837" y2="37.4274" gradientUnits="userSpaceOnUse">
<stop stop-color="#D9E8F8"/>
<stop offset="1" stop-color="#9CAEC9"/>
</linearGradient>
<linearGradient id="paint27_linear_9233_6848" x1="27.3054" y1="21.0771" x2="32.2939" y2="26.5921" gradientUnits="userSpaceOnUse">
<stop stop-color="#7EFFB2"/>
<stop offset="1" stop-color="#82D2FF"/>
</linearGradient>
<linearGradient id="paint28_linear_9233_6848" x1="34.5239" y1="31.8069" x2="18.5588" y2="40.6746" gradientUnits="userSpaceOnUse">
<stop stop-color="#79F9AC"/>
<stop offset="1" stop-color="#35C6F3"/>
</linearGradient>
<linearGradient id="paint29_linear_9233_6848" x1="34.5239" y1="31.8069" x2="18.5588" y2="40.6746" gradientUnits="userSpaceOnUse">
<stop stop-color="#79F9AC"/>
<stop offset="1" stop-color="#279CC0"/>
</linearGradient>
<linearGradient id="paint30_linear_9233_6848" x1="42.1048" y1="23.5958" x2="34.265" y2="37.4274" gradientUnits="userSpaceOnUse">
<stop stop-color="#D9E8F8"/>
<stop offset="1" stop-color="#9CAEC9"/>
</linearGradient>
<linearGradient id="paint31_linear_9233_6848" x1="33.3011" y1="21.2854" x2="28.4064" y2="26.6719" gradientUnits="userSpaceOnUse">
<stop stop-color="#7EFFB2"/>
<stop offset="1" stop-color="#82D2FF"/>
</linearGradient>
<linearGradient id="paint32_linear_9233_6848" x1="26.2416" y1="31.7974" x2="41.7069" y2="40.3893" gradientUnits="userSpaceOnUse">
<stop stop-color="#79F9AC"/>
<stop offset="1" stop-color="#279CC0"/>
</linearGradient>
<linearGradient id="paint33_linear_9233_6848" x1="30.3298" y1="21.3984" x2="30.3298" y2="39.703" gradientUnits="userSpaceOnUse">
<stop stop-color="#EFF5F9"/>
<stop offset="1" stop-color="#AABAD4"/>
</linearGradient>
<linearGradient id="paint34_linear_9233_6848" x1="43.0938" y1="44.0007" x2="19.5745" y2="43.8266" gradientUnits="userSpaceOnUse">
<stop stop-color="#79F9AC"/>
<stop offset="1" stop-color="#279CC0"/>
</linearGradient>
<linearGradient id="paint35_linear_9233_6848" x1="30.3298" y1="21.3985" x2="40.3822" y2="30.5163" gradientUnits="userSpaceOnUse">
<stop stop-color="#79F9AC"/>
<stop offset="1" stop-color="#35C6F3"/>
</linearGradient>
</defs>
</svg>
