<svg width="37" height="36" viewBox="0 0 37 36" fill="none" xmlns="http://www.w3.org/2000/svg">
<path d="M33.25 18C33.25 9.735 26.515 3 18.25 3C9.985 3 3.25 9.735 3.25 18C3.25 22.35 5.125 26.265 8.095 29.01C8.095 29.025 8.095 29.025 8.08 29.04C8.23 29.19 8.41 29.31 8.56 29.445C8.65 29.52 8.725 29.595 8.815 29.655C9.085 29.88 9.385 30.09 9.67 30.3C9.775 30.375 9.865 30.435 9.97 30.51C10.255 30.705 10.555 30.885 10.87 31.05C10.975 31.11 11.095 31.185 11.2 31.245C11.5 31.41 11.815 31.56 12.145 31.695C12.265 31.755 12.385 31.815 12.505 31.86C12.835 31.995 13.165 32.115 13.495 32.22C13.615 32.265 13.735 32.31 13.855 32.34C14.215 32.445 14.575 32.535 14.935 32.625C15.04 32.655 15.145 32.685 15.265 32.7C15.685 32.79 16.105 32.85 16.54 32.895C16.6 32.895 16.66 32.91 16.72 32.925C17.23 32.97 17.74 33 18.25 33C18.76 33 19.27 32.97 19.765 32.925C19.825 32.925 19.885 32.91 19.945 32.895C20.38 32.85 20.8 32.79 21.22 32.7C21.325 32.685 21.43 32.64 21.55 32.625C21.91 32.535 22.285 32.46 22.63 32.34C22.75 32.295 22.87 32.25 22.99 32.22C23.32 32.1 23.665 31.995 23.98 31.86C24.1 31.815 24.22 31.755 24.34 31.695C24.655 31.56 24.97 31.41 25.285 31.245C25.405 31.185 25.51 31.11 25.615 31.05C25.915 30.87 26.215 30.705 26.515 30.51C26.62 30.45 26.71 30.375 26.815 30.3C27.115 30.09 27.4 29.88 27.67 29.655C27.76 29.58 27.835 29.505 27.925 29.445C28.09 29.31 28.255 29.175 28.405 29.04C28.405 29.025 28.405 29.025 28.39 29.01C31.375 26.265 33.25 22.35 33.25 18ZM25.66 25.455C21.595 22.725 14.935 22.725 10.84 25.455C10.18 25.89 9.64 26.4 9.19 26.955C6.91 24.645 5.5 21.48 5.5 18C5.5 10.965 11.215 5.25 18.25 5.25C25.285 5.25 31 10.965 31 18C31 21.48 29.59 24.645 27.31 26.955C26.875 26.4 26.32 25.89 25.66 25.455Z" fill="white" fill-opacity="0.6" stroke="white"/>
<path d="M18.25 10.3906C15.145 10.3906 12.625 12.9106 12.625 16.0156C12.625 19.0606 15.01 21.5356 18.175 21.6256C18.22 21.6256 18.28 21.6256 18.31 21.6256C18.34 21.6256 18.385 21.6256 18.415 21.6256C18.43 21.6256 18.445 21.6256 18.445 21.6256C21.475 21.5206 23.86 19.0606 23.875 16.0156C23.875 12.9106 21.355 10.3906 18.25 10.3906Z" fill="white" fill-opacity="0.6" stroke="white"/>
</svg>
