<svg width="24" height="24" viewBox="0 0 24 24" fill="none" xmlns="http://www.w3.org/2000/svg">
<mask id="mask0_8985_7186" style="mask-type:alpha" maskUnits="userSpaceOnUse" x="0" y="0" width="24" height="24">
<rect x="24" width="24" height="24" transform="rotate(90 24 0)" fill="#D9D9D9"/>
</mask>
<g mask="url(#mask0_8985_7186)">
<path d="M12 12.5969L15.9 8.69687C16.0833 8.51354 16.3166 8.42187 16.6 8.42187C16.8833 8.42187 17.1166 8.51354 17.3 8.69687C17.4833 8.88021 17.575 9.11354 17.575 9.39688C17.575 9.68021 17.4833 9.91354 17.3 10.0969L12.7 14.6969C12.6 14.7969 12.4916 14.8677 12.375 14.9094C12.2583 14.951 12.1333 14.9719 12 14.9719C11.8666 14.9719 11.7416 14.951 11.625 14.9094C11.5083 14.8677 11.4 14.7969 11.3 14.6969L6.69995 10.0969C6.51662 9.91354 6.42495 9.68021 6.42495 9.39687C6.42495 9.11354 6.51662 8.88021 6.69995 8.69687C6.88328 8.51354 7.11662 8.42187 7.39995 8.42187C7.68328 8.42187 7.91662 8.51354 8.09995 8.69687L12 12.5969Z" fill="white"/>
</g>
</svg>
