<svg width="20" height="20" viewBox="0 0 20 20" fill="none" xmlns="http://www.w3.org/2000/svg">
<mask id="mask0_8955_7847" style="mask-type:alpha" maskUnits="userSpaceOnUse" x="0" y="0" width="20" height="20">
<rect width="20" height="20" fill="#D9D9D9"/>
</mask>
<g mask="url(#mask0_8955_7847)">
<path d="M3.33341 16.6615C2.87508 16.6615 2.48272 16.4983 2.15633 16.1719C1.82994 15.8455 1.66675 15.4531 1.66675 14.9948V4.99479C1.66675 4.53646 1.82994 4.1441 2.15633 3.81771C2.48272 3.49132 2.87508 3.32812 3.33341 3.32812H16.6667C17.1251 3.32812 17.5174 3.49132 17.8438 3.81771C18.1702 4.1441 18.3334 4.53646 18.3334 4.99479V14.9948C18.3334 15.4531 18.1702 15.8455 17.8438 16.1719C17.5174 16.4983 17.1251 16.6615 16.6667 16.6615H3.33341ZM10.0001 10.6823C10.0695 10.6823 10.1424 10.6719 10.2188 10.651C10.2952 10.6302 10.3681 10.599 10.4376 10.5573L16.3334 6.86979C16.4445 6.80035 16.5279 6.71354 16.5834 6.60938C16.639 6.50521 16.6667 6.39062 16.6667 6.26562C16.6667 5.98785 16.5487 5.77951 16.3126 5.64062C16.0765 5.50174 15.8334 5.50868 15.5834 5.66146L10.0001 9.16146L4.41675 5.66146C4.16675 5.50868 3.92369 5.50521 3.68758 5.65104C3.45147 5.79688 3.33341 6.00174 3.33341 6.26562C3.33341 6.40451 3.36119 6.52604 3.41675 6.63021C3.4723 6.73438 3.55564 6.81424 3.66675 6.86979L9.56258 10.5573C9.63203 10.599 9.70494 10.6302 9.78133 10.651C9.85772 10.6719 9.93064 10.6823 10.0001 10.6823Z" fill="white"/>
</g>
</svg>
