<svg width="20" height="20" viewBox="0 0 20 20" fill="none" xmlns="http://www.w3.org/2000/svg">
<mask id="mask0_8947_13428" style="mask-type:alpha" maskUnits="userSpaceOnUse" x="0" y="0" width="20" height="20">
<rect width="20" height="20" fill="#D9D9D9"/>
</mask>
<g mask="url(#mask0_8947_13428)">
<path d="M14.167 16.6562V3.32292C14.6253 3.32292 15.0177 3.48611 15.3441 3.8125C15.6705 4.13889 15.8337 4.53125 15.8337 4.98958V14.9896C15.8337 15.4479 15.6705 15.8403 15.3441 16.1667C15.0177 16.4931 14.6253 16.6562 14.167 16.6562ZM3.33366 18.3229C2.87533 18.3229 2.48296 18.1597 2.15658 17.8333C1.83019 17.5069 1.66699 17.1146 1.66699 16.6562V3.32292C1.66699 2.86458 1.83019 2.47222 2.15658 2.14583C2.48296 1.81944 2.87533 1.65625 3.33366 1.65625H10.8337C11.292 1.65625 11.6844 1.81944 12.0107 2.14583C12.3371 2.47222 12.5003 2.86458 12.5003 3.32292V16.6562C12.5003 17.1146 12.3371 17.5069 12.0107 17.8333C11.6844 18.1597 11.292 18.3229 10.8337 18.3229H3.33366ZM17.5003 14.9896V4.98958C17.8475 4.98958 18.1427 5.11111 18.3857 5.35417C18.6288 5.59722 18.7503 5.89236 18.7503 6.23958V13.7396C18.7503 14.0868 18.6288 14.3819 18.3857 14.625C18.1427 14.8681 17.8475 14.9896 17.5003 14.9896Z" fill="white"/>
</g>
</svg>
