<svg width="37" height="36" viewBox="0 0 37 36" fill="none" xmlns="http://www.w3.org/2000/svg">
<path d="M18.66 3.32158L15.045 11.7366H11.43C10.83 11.7366 10.245 11.7816 9.67505 11.9016L11.175 8.30158L11.235 8.16658L11.325 7.92658C11.37 7.82158 11.4 7.73158 11.445 7.65658C13.185 3.62158 15.135 2.36158 18.66 3.32158Z" fill="white" fill-opacity="0.3"/>
<path d="M11.843 8.4368L11.8511 8.41872L11.858 8.40019L11.9429 8.17373C11.9544 8.14649 11.9647 8.12124 11.9734 8.09978C11.9757 8.09402 11.9779 8.08866 11.9799 8.08363C11.9875 8.0648 11.9932 8.05049 11.9992 8.03622C12.0108 8.00846 12.0158 7.99862 12.0163 7.9976L12.0384 7.96081L12.056 7.92004C12.9098 5.93997 13.7636 4.7737 14.7298 4.18383C15.5152 3.70441 16.4621 3.55509 17.7345 3.79039L14.6067 11.0713H11.43C11.1977 11.0713 10.9652 11.0777 10.733 11.0923L11.7862 8.56467L11.843 8.4368Z" stroke="white" stroke-opacity="0.4" stroke-width="1.33065"/>
<path d="M28.8452 12.1362L28.8152 12.1212C27.9152 11.8662 27.0002 11.7312 26.0702 11.7312H16.6802L20.0552 3.88625L20.1002 3.78125C20.3102 3.85625 20.5352 3.96125 20.7602 4.03625L24.0752 5.43125C25.9202 6.19625 27.2102 6.99125 28.0052 7.95125C28.1402 8.13125 28.2602 8.29625 28.3802 8.49125C28.5152 8.70125 28.6202 8.91125 28.6802 9.13625C28.7402 9.27125 28.7852 9.39125 28.8152 9.52625C29.0402 10.2912 29.0552 11.1612 28.8452 12.1362Z" fill="white" fill-opacity="0.3"/>
<path d="M26.0702 11.0659H17.6907L20.4572 4.63526C20.4794 4.64327 20.5018 4.65116 20.5244 4.65887L23.8171 6.04449L23.8171 6.0445L23.8203 6.04584C25.6243 6.79383 26.7908 7.53436 27.4828 8.36365C27.61 8.53348 27.7125 8.67581 27.8135 8.83994L27.8134 8.84001L27.8205 8.85103C27.9321 9.02457 28.0007 9.17038 28.0373 9.30768L28.0509 9.35845L28.0722 9.40646C28.1225 9.51973 28.1489 9.59506 28.1657 9.67058L28.1706 9.69247L28.1769 9.71398C28.3142 10.1807 28.3626 10.7098 28.3039 11.308C27.5709 11.1493 26.8261 11.0659 26.0702 11.0659Z" stroke="white" stroke-opacity="0.4" stroke-width="1.33065"/>
<path d="M28.1849 14.2844C27.5099 14.0894 26.8049 13.9844 26.0699 13.9844H11.4299C10.4099 13.9844 9.44986 14.1794 8.54986 14.5694C5.93986 15.6944 4.10986 18.2894 4.10986 21.3044V24.2294C4.10986 24.5894 4.13986 24.9344 4.18486 25.2944C4.51486 30.0644 7.06486 32.6144 11.8349 32.9294C12.1799 32.9744 12.5249 33.0044 12.8999 33.0044H24.5999C30.1499 33.0044 33.0749 30.3644 33.3599 25.1144C33.3749 24.8294 33.3899 24.5294 33.3899 24.2294V21.3044C33.3899 17.9894 31.1849 15.1994 28.1849 14.2844ZM22.4999 24.2894H19.8749V27.0044C19.8749 27.6194 19.3649 28.1294 18.7499 28.1294C18.1349 28.1294 17.6249 27.6194 17.6249 27.0044V24.2894H14.9999C14.3849 24.2894 13.8749 23.7944 13.8749 23.1644C13.8749 22.5494 14.3849 22.0394 14.9999 22.0394H17.6249V19.5044C17.6249 18.8894 18.1349 18.3794 18.7499 18.3794C19.3649 18.3794 19.8749 18.8894 19.8749 19.5044V22.0394H22.4999C23.1149 22.0394 23.6249 22.5494 23.6249 23.1644C23.6249 23.7944 23.1149 24.2894 22.4999 24.2894Z" fill="white" fill-opacity="0.3"/>
<path d="M8.81322 15.1804L8.8144 15.1798C9.62756 14.8275 10.4972 14.6497 11.4299 14.6497H26.0699C26.7389 14.6497 27.3802 14.7449 27.9955 14.9222C30.7233 15.7564 32.7245 18.2943 32.7245 21.3044V24.2294C32.7245 24.5096 32.7105 24.7932 32.6955 25.0791C32.5591 27.5891 31.7993 29.3709 30.5088 30.5339C29.2125 31.7021 27.2774 32.3391 24.5999 32.3391H12.8999C12.5614 32.3391 12.2463 32.3121 11.9209 32.2696L11.8999 32.2669L11.8787 32.2655C9.60144 32.1151 7.94324 31.4383 6.81497 30.3117C5.68654 29.1849 5.00619 27.5263 4.8486 25.2485L4.84733 25.2301L4.84505 25.2119C4.802 24.8675 4.77519 24.552 4.77519 24.2294V21.3044C4.77519 18.5653 6.43755 16.2044 8.81322 15.1804ZM20.5402 27.0044V24.9547H22.4999C23.4765 24.9547 24.2902 24.1676 24.2902 23.1644C24.2902 22.1819 23.4823 21.3741 22.4999 21.3741H20.5402V19.5044C20.5402 18.5219 19.7323 17.7141 18.7499 17.7141C17.7674 17.7141 16.9595 18.5219 16.9595 19.5044V21.3741H14.9999C14.0174 21.3741 13.2095 22.1819 13.2095 23.1644C13.2095 24.1676 14.0232 24.9547 14.9999 24.9547H16.9595V27.0044C16.9595 27.9868 17.7674 28.7947 18.7499 28.7947C19.7323 28.7947 20.5402 27.9868 20.5402 27.0044Z" stroke="white" stroke-opacity="0.4" stroke-width="1.33065"/>
<path d="M18.66 3.31377L15.045 11.7288H11.43C10.83 11.7288 10.245 11.7738 9.67505 11.8938L11.175 8.29377L11.235 8.15877L11.325 7.91877C11.37 7.81377 11.4 7.72377 11.445 7.64877C13.185 3.61377 15.135 2.35377 18.66 3.31377Z" fill="white" fill-opacity="0.3"/>
<path d="M11.843 8.42898L11.8511 8.4109L11.858 8.39238L11.9429 8.16592C11.9544 8.13868 11.9647 8.11343 11.9734 8.09197C11.9757 8.08621 11.9779 8.08085 11.9799 8.07582C11.9875 8.05699 11.9932 8.04268 11.9992 8.02841C12.0108 8.00065 12.0158 7.99081 12.0163 7.98979L12.0384 7.953L12.056 7.91222C12.9098 5.93216 13.7636 4.76589 14.7298 4.17601C15.5152 3.6966 16.4621 3.54728 17.7345 3.78257L14.6067 11.0634H11.43C11.1977 11.0634 10.9652 11.0698 10.733 11.0845L11.7862 8.55686L11.843 8.42898Z" stroke="white" stroke-opacity="0.4" stroke-width="1.33065"/>
<path d="M28.8452 12.1362L28.8152 12.1212C27.9152 11.8662 27.0002 11.7312 26.0702 11.7312H16.6802L20.0552 3.88625L20.1002 3.78125C20.3102 3.85625 20.5352 3.96125 20.7602 4.03625L24.0752 5.43125C25.9202 6.19625 27.2102 6.99125 28.0052 7.95125C28.1402 8.13125 28.2602 8.29625 28.3802 8.49125C28.5152 8.70125 28.6202 8.91125 28.6802 9.13625C28.7402 9.27125 28.7852 9.39125 28.8152 9.52625C29.0402 10.2912 29.0552 11.1612 28.8452 12.1362Z" fill="white" fill-opacity="0.3"/>
<path d="M26.0702 11.0659H17.6907L20.4572 4.63526C20.4794 4.64327 20.5018 4.65116 20.5244 4.65887L23.8171 6.04449L23.8171 6.0445L23.8203 6.04584C25.6243 6.79383 26.7908 7.53436 27.4828 8.36365C27.61 8.53348 27.7125 8.67581 27.8135 8.83994L27.8134 8.84001L27.8205 8.85103C27.9321 9.02457 28.0007 9.17038 28.0373 9.30768L28.0509 9.35845L28.0722 9.40646C28.1225 9.51973 28.1489 9.59506 28.1657 9.67058L28.1706 9.69247L28.1769 9.71398C28.3142 10.1807 28.3626 10.7098 28.3039 11.308C27.5709 11.1493 26.8261 11.0659 26.0702 11.0659Z" stroke="white" stroke-opacity="0.4" stroke-width="1.33065"/>
<path d="M28.1849 14.2844C27.5099 14.0894 26.8049 13.9844 26.0699 13.9844H11.4299C10.4099 13.9844 9.44986 14.1794 8.54986 14.5694C5.93986 15.6944 4.10986 18.2894 4.10986 21.3044V24.2294C4.10986 24.5894 4.13986 24.9344 4.18486 25.2944C4.51486 30.0644 7.06486 32.6144 11.8349 32.9294C12.1799 32.9744 12.5249 33.0044 12.8999 33.0044H24.5999C30.1499 33.0044 33.0749 30.3644 33.3599 25.1144C33.3749 24.8294 33.3899 24.5294 33.3899 24.2294V21.3044C33.3899 17.9894 31.1849 15.1994 28.1849 14.2844ZM22.4999 24.2894H19.8749V27.0044C19.8749 27.6194 19.3649 28.1294 18.7499 28.1294C18.1349 28.1294 17.6249 27.6194 17.6249 27.0044V24.2894H14.9999C14.3849 24.2894 13.8749 23.7944 13.8749 23.1644C13.8749 22.5494 14.3849 22.0394 14.9999 22.0394H17.6249V19.5044C17.6249 18.8894 18.1349 18.3794 18.7499 18.3794C19.3649 18.3794 19.8749 18.8894 19.8749 19.5044V22.0394H22.4999C23.1149 22.0394 23.6249 22.5494 23.6249 23.1644C23.6249 23.7944 23.1149 24.2894 22.4999 24.2894Z" fill="white" fill-opacity="0.3"/>
<path d="M8.81322 15.1804L8.8144 15.1798C9.62756 14.8275 10.4972 14.6497 11.4299 14.6497H26.0699C26.7389 14.6497 27.3802 14.7449 27.9955 14.9222C30.7233 15.7564 32.7245 18.2943 32.7245 21.3044V24.2294C32.7245 24.5096 32.7105 24.7932 32.6955 25.0791C32.5591 27.5891 31.7993 29.3709 30.5088 30.5339C29.2125 31.7021 27.2774 32.3391 24.5999 32.3391H12.8999C12.5614 32.3391 12.2463 32.3121 11.9209 32.2696L11.8999 32.2669L11.8787 32.2655C9.60144 32.1151 7.94324 31.4383 6.81497 30.3117C5.68654 29.1849 5.00619 27.5263 4.8486 25.2485L4.84733 25.2301L4.84505 25.2119C4.802 24.8675 4.77519 24.552 4.77519 24.2294V21.3044C4.77519 18.5653 6.43755 16.2044 8.81322 15.1804ZM20.5402 27.0044V24.9547H22.4999C23.4765 24.9547 24.2902 24.1676 24.2902 23.1644C24.2902 22.1819 23.4823 21.3741 22.4999 21.3741H20.5402V19.5044C20.5402 18.5219 19.7323 17.7141 18.7499 17.7141C17.7674 17.7141 16.9595 18.5219 16.9595 19.5044V21.3741H14.9999C14.0174 21.3741 13.2095 22.1819 13.2095 23.1644C13.2095 24.1676 14.0232 24.9547 14.9999 24.9547H16.9595V27.0044C16.9595 27.9868 17.7674 28.7947 18.7499 28.7947C19.7323 28.7947 20.5402 27.9868 20.5402 27.0044Z" stroke="white" stroke-opacity="0.4" stroke-width="1.33065"/>
<path d="M18.66 3.31377L15.045 11.7288H11.43C10.83 11.7288 10.245 11.7738 9.67505 11.8938L11.175 8.29377L11.235 8.15877L11.325 7.91877C11.37 7.81377 11.4 7.72377 11.445 7.64877C13.185 3.61377 15.135 2.35377 18.66 3.31377Z" fill="white" fill-opacity="0.3"/>
<path d="M11.843 8.42898L11.8511 8.4109L11.858 8.39238L11.9429 8.16592C11.9544 8.13868 11.9647 8.11343 11.9734 8.09197C11.9757 8.08621 11.9779 8.08085 11.9799 8.07582C11.9875 8.05699 11.9932 8.04268 11.9992 8.02841C12.0108 8.00065 12.0158 7.99081 12.0163 7.98979L12.0384 7.953L12.056 7.91222C12.9098 5.93216 13.7636 4.76589 14.7298 4.17601C15.5152 3.6966 16.4621 3.54728 17.7345 3.78257L14.6067 11.0634H11.43C11.1977 11.0634 10.9652 11.0698 10.733 11.0845L11.7862 8.55686L11.843 8.42898Z" stroke="white" stroke-opacity="0.4" stroke-width="1.33065"/>
<path d="M28.8452 12.1362L28.8152 12.1212C27.9152 11.8662 27.0002 11.7312 26.0702 11.7312H16.6802L20.0552 3.88625L20.1002 3.78125C20.3102 3.85625 20.5352 3.96125 20.7602 4.03625L24.0752 5.43125C25.9202 6.19625 27.2102 6.99125 28.0052 7.95125C28.1402 8.13125 28.2602 8.29625 28.3802 8.49125C28.5152 8.70125 28.6202 8.91125 28.6802 9.13625C28.7402 9.27125 28.7852 9.39125 28.8152 9.52625C29.0402 10.2912 29.0552 11.1612 28.8452 12.1362Z" fill="white" fill-opacity="0.3"/>
<path d="M26.0702 11.0659H17.6907L20.4572 4.63526C20.4794 4.64327 20.5018 4.65116 20.5244 4.65887L23.8171 6.04449L23.8171 6.0445L23.8203 6.04584C25.6243 6.79383 26.7908 7.53436 27.4828 8.36365C27.61 8.53348 27.7125 8.67581 27.8135 8.83994L27.8134 8.84001L27.8205 8.85103C27.9321 9.02457 28.0007 9.17038 28.0373 9.30768L28.0509 9.35845L28.0722 9.40646C28.1225 9.51973 28.1489 9.59506 28.1657 9.67058L28.1706 9.69247L28.1769 9.71398C28.3142 10.1807 28.3626 10.7098 28.3039 11.308C27.5709 11.1493 26.8261 11.0659 26.0702 11.0659Z" stroke="white" stroke-opacity="0.4" stroke-width="1.33065"/>
<path d="M28.1849 14.2844C27.5099 14.0894 26.8049 13.9844 26.0699 13.9844H11.4299C10.4099 13.9844 9.44986 14.1794 8.54986 14.5694C5.93986 15.6944 4.10986 18.2894 4.10986 21.3044V24.2294C4.10986 24.5894 4.13986 24.9344 4.18486 25.2944C4.51486 30.0644 7.06486 32.6144 11.8349 32.9294C12.1799 32.9744 12.5249 33.0044 12.8999 33.0044H24.5999C30.1499 33.0044 33.0749 30.3644 33.3599 25.1144C33.3749 24.8294 33.3899 24.5294 33.3899 24.2294V21.3044C33.3899 17.9894 31.1849 15.1994 28.1849 14.2844ZM22.4999 24.2894H19.8749V27.0044C19.8749 27.6194 19.3649 28.1294 18.7499 28.1294C18.1349 28.1294 17.6249 27.6194 17.6249 27.0044V24.2894H14.9999C14.3849 24.2894 13.8749 23.7944 13.8749 23.1644C13.8749 22.5494 14.3849 22.0394 14.9999 22.0394H17.6249V19.5044C17.6249 18.8894 18.1349 18.3794 18.7499 18.3794C19.3649 18.3794 19.8749 18.8894 19.8749 19.5044V22.0394H22.4999C23.1149 22.0394 23.6249 22.5494 23.6249 23.1644C23.6249 23.7944 23.1149 24.2894 22.4999 24.2894Z" fill="white" fill-opacity="0.3"/>
<path d="M8.81322 15.1804L8.8144 15.1798C9.62756 14.8275 10.4972 14.6497 11.4299 14.6497H26.0699C26.7389 14.6497 27.3802 14.7449 27.9955 14.9222C30.7233 15.7564 32.7245 18.2943 32.7245 21.3044V24.2294C32.7245 24.5096 32.7105 24.7932 32.6955 25.0791C32.5591 27.5891 31.7993 29.3709 30.5088 30.5339C29.2125 31.7021 27.2774 32.3391 24.5999 32.3391H12.8999C12.5614 32.3391 12.2463 32.3121 11.9209 32.2696L11.8999 32.2669L11.8787 32.2655C9.60144 32.1151 7.94324 31.4383 6.81497 30.3117C5.68654 29.1849 5.00619 27.5263 4.8486 25.2485L4.84733 25.2301L4.84505 25.2119C4.802 24.8675 4.77519 24.552 4.77519 24.2294V21.3044C4.77519 18.5653 6.43755 16.2044 8.81322 15.1804ZM20.5402 27.0044V24.9547H22.4999C23.4765 24.9547 24.2902 24.1676 24.2902 23.1644C24.2902 22.1819 23.4823 21.3741 22.4999 21.3741H20.5402V19.5044C20.5402 18.5219 19.7323 17.7141 18.7499 17.7141C17.7674 17.7141 16.9595 18.5219 16.9595 19.5044V21.3741H14.9999C14.0174 21.3741 13.2095 22.1819 13.2095 23.1644C13.2095 24.1676 14.0232 24.9547 14.9999 24.9547H16.9595V27.0044C16.9595 27.9868 17.7674 28.7947 18.7499 28.7947C19.7323 28.7947 20.5402 27.9868 20.5402 27.0044Z" stroke="white" stroke-opacity="0.4" stroke-width="1.33065"/>
</svg>
