<svg width="20" height="20" viewBox="0 0 20 20" fill="none" xmlns="http://www.w3.org/2000/svg">
<mask id="mask0_9545_7722" style="mask-type:alpha" maskUnits="userSpaceOnUse" x="0" y="0" width="20" height="20">
<rect width="20" height="20" fill="#D9D9D9"/>
</mask>
<g mask="url(#mask0_9545_7722)">
<path d="M9.95841 14.9974C10.2501 14.9974 10.4966 14.8967 10.698 14.6953C10.8994 14.4939 11.0001 14.2474 11.0001 13.9557C11.0001 13.6641 10.8994 13.4175 10.698 13.2161C10.4966 13.0148 10.2501 12.9141 9.95841 12.9141C9.66675 12.9141 9.42022 13.0148 9.21883 13.2161C9.01744 13.4175 8.91675 13.6641 8.91675 13.9557C8.91675 14.2474 9.01744 14.4939 9.21883 14.6953C9.42022 14.8967 9.66675 14.9974 9.95841 14.9974ZM10.0001 18.3307C8.8473 18.3307 7.76397 18.112 6.75008 17.6745C5.73619 17.237 4.85425 16.6432 4.10425 15.8932C3.35425 15.1432 2.7605 14.2613 2.323 13.2474C1.8855 12.2335 1.66675 11.1502 1.66675 9.9974C1.66675 8.84462 1.8855 7.76128 2.323 6.7474C2.7605 5.73351 3.35425 4.85156 4.10425 4.10156C4.85425 3.35156 5.73619 2.75781 6.75008 2.32031C7.76397 1.88281 8.8473 1.66406 10.0001 1.66406C11.1529 1.66406 12.2362 1.88281 13.2501 2.32031C14.264 2.75781 15.1459 3.35156 15.8959 4.10156C16.6459 4.85156 17.2397 5.73351 17.6772 6.7474C18.1147 7.76128 18.3334 8.84462 18.3334 9.9974C18.3334 11.1502 18.1147 12.2335 17.6772 13.2474C17.2397 14.2613 16.6459 15.1432 15.8959 15.8932C15.1459 16.6432 14.264 17.237 13.2501 17.6745C12.2362 18.112 11.1529 18.3307 10.0001 18.3307ZM10.0001 16.6641C11.8612 16.6641 13.4376 16.0182 14.7292 14.7266C16.0209 13.4349 16.6667 11.8585 16.6667 9.9974C16.6667 8.13628 16.0209 6.5599 14.7292 5.26823C13.4376 3.97656 11.8612 3.33073 10.0001 3.33073C8.13897 3.33073 6.56258 3.97656 5.27091 5.26823C3.97925 6.5599 3.33341 8.13628 3.33341 9.9974C3.33341 11.8585 3.97925 13.4349 5.27091 14.7266C6.56258 16.0182 8.13897 16.6641 10.0001 16.6641ZM10.0834 6.41406C10.4306 6.41406 10.7327 6.52517 10.9897 6.7474C11.2466 6.96962 11.3751 7.2474 11.3751 7.58073C11.3751 7.88628 11.2813 8.15712 11.0938 8.39323C10.9063 8.62934 10.6945 8.85156 10.4584 9.0599C10.139 9.33767 9.85772 9.64323 9.61467 9.97656C9.37161 10.3099 9.25008 10.6849 9.25008 11.1016C9.25008 11.296 9.323 11.4592 9.46883 11.5911C9.61466 11.7231 9.7848 11.7891 9.97925 11.7891C10.1876 11.7891 10.3647 11.7196 10.5105 11.5807C10.6563 11.4418 10.7501 11.2682 10.7917 11.0599C10.8473 10.7682 10.9723 10.5078 11.1667 10.2786C11.3612 10.0495 11.5695 9.83073 11.7917 9.6224C12.1112 9.31684 12.3855 8.98351 12.6147 8.6224C12.8438 8.26128 12.9584 7.85851 12.9584 7.41406C12.9584 6.70573 12.6702 6.12587 12.0938 5.67448C11.5174 5.22309 10.8473 4.9974 10.0834 4.9974C9.55564 4.9974 9.05217 5.10851 8.573 5.33073C8.09383 5.55295 7.72925 5.89323 7.47925 6.35156C7.38203 6.51823 7.35078 6.69531 7.3855 6.88281C7.42022 7.07031 7.51397 7.21267 7.66675 7.3099C7.86119 7.42101 8.06258 7.45573 8.27091 7.41406C8.47925 7.3724 8.65286 7.25434 8.79175 7.0599C8.94453 6.85156 9.1355 6.69184 9.36466 6.58073C9.59383 6.46962 9.83342 6.41406 10.0834 6.41406Z" fill="white"/>
</g>
</svg>
