<svg width="20" height="20" viewBox="0 0 20 20" fill="none" xmlns="http://www.w3.org/2000/svg">
<mask id="mask0_8955_7858" style="mask-type:alpha" maskUnits="userSpaceOnUse" x="0" y="0" width="20" height="20">
<rect width="20" height="20" fill="#D9D9D9"/>
</mask>
<g mask="url(#mask0_8955_7858)">
<path d="M10.0417 16.6693C8.18056 16.6693 6.59722 16.0234 5.29167 14.7318C3.98611 13.4401 3.33333 11.8637 3.33333 10.0026V9.85677L2.58333 10.6068C2.43056 10.7595 2.23611 10.8359 2 10.8359C1.76389 10.8359 1.56944 10.7595 1.41667 10.6068C1.26389 10.454 1.1875 10.2595 1.1875 10.0234C1.1875 9.78733 1.26389 9.59288 1.41667 9.4401L3.58333 7.27344C3.75 7.10677 3.94444 7.02344 4.16667 7.02344C4.38889 7.02344 4.58333 7.10677 4.75 7.27344L6.91667 9.4401C7.06944 9.59288 7.14583 9.78733 7.14583 10.0234C7.14583 10.2595 7.06944 10.454 6.91667 10.6068C6.76389 10.7595 6.56944 10.8359 6.33333 10.8359C6.09722 10.8359 5.90278 10.7595 5.75 10.6068L5 9.85677V10.0026C5 11.3915 5.48958 12.572 6.46875 13.5443C7.44792 14.5165 8.63889 15.0026 10.0417 15.0026C10.2639 15.0026 10.4826 14.9887 10.6979 14.9609C10.9132 14.9332 11.125 14.8845 11.3333 14.8151C11.5694 14.7457 11.7917 14.7526 12 14.8359C12.2083 14.9193 12.3681 15.0651 12.4792 15.2734C12.5903 15.4957 12.6007 15.7144 12.5104 15.9297C12.4201 16.145 12.2569 16.2873 12.0208 16.3568C11.7014 16.4679 11.375 16.5477 11.0417 16.5964C10.7083 16.645 10.375 16.6693 10.0417 16.6693ZM9.95833 5.0026C9.73611 5.0026 9.51736 5.01649 9.30208 5.04427C9.08681 5.07205 8.875 5.12066 8.66667 5.1901C8.43056 5.25955 8.20486 5.2526 7.98958 5.16927C7.77431 5.08594 7.61111 4.9401 7.5 4.73177C7.38889 4.52344 7.37847 4.31163 7.46875 4.09635C7.55903 3.88108 7.71528 3.73872 7.9375 3.66927C8.27083 3.55816 8.60417 3.47483 8.9375 3.41927C9.27083 3.36372 9.61111 3.33594 9.95833 3.33594C11.8194 3.33594 13.4028 3.98177 14.7083 5.27344C16.0139 6.5651 16.6667 8.14149 16.6667 10.0026V10.1484L17.4167 9.39844C17.5694 9.24566 17.7639 9.16927 18 9.16927C18.2361 9.16927 18.4306 9.24566 18.5833 9.39844C18.7361 9.55122 18.8125 9.74566 18.8125 9.98177C18.8125 10.2179 18.7361 10.4123 18.5833 10.5651L16.4167 12.7318C16.25 12.8984 16.0556 12.9818 15.8333 12.9818C15.6111 12.9818 15.4167 12.8984 15.25 12.7318L13.0833 10.5651C12.9306 10.4123 12.8542 10.2179 12.8542 9.98177C12.8542 9.74566 12.9306 9.55122 13.0833 9.39844C13.2361 9.24566 13.4306 9.16927 13.6667 9.16927C13.9028 9.16927 14.0972 9.24566 14.25 9.39844L15 10.1484V10.0026C15 8.61372 14.5104 7.43316 13.5313 6.46094C12.5521 5.48872 11.3611 5.0026 9.95833 5.0026Z" fill="url(#paint0_linear_8955_7858)"/>
</g>
<defs>
<linearGradient id="paint0_linear_8955_7858" x1="15.5067" y1="2.03792" x2="0.231278" y2="4.27311" gradientUnits="userSpaceOnUse">
<stop stop-color="#F0BA2E"/>
<stop offset="1" stop-color="#F0A22E"/>
</linearGradient>
</defs>
</svg>
