<svg width="32" height="33" viewBox="0 0 32 33" fill="none" xmlns="http://www.w3.org/2000/svg">
<path d="M9.0718 4.5C13.359 2.02479 18.641 2.02479 22.9282 4.5C27.2154 6.97521 29.8564 11.5496 29.8564 16.5C29.8564 21.4504 27.2154 26.0248 22.9282 28.5C18.641 30.9752 13.359 30.9752 9.0718 28.5C4.78461 26.0248 2.14359 21.4504 2.14359 16.5C2.14359 11.5496 4.78461 6.97521 9.0718 4.5Z" fill="url(#paint0_linear_8955_8008)"/>
<path d="M9.0718 4.5C13.359 2.02479 18.641 2.02479 22.9282 4.5C27.2154 6.97521 29.8564 11.5496 29.8564 16.5C29.8564 21.4504 27.2154 26.0248 22.9282 28.5C18.641 30.9752 13.359 30.9752 9.0718 28.5C4.78461 26.0248 2.14359 21.4504 2.14359 16.5C2.14359 11.5496 4.78461 6.97521 9.0718 4.5Z" fill="url(#paint1_linear_8955_8008)"/>
<path d="M9.75059 5.56193C13.7106 3.27562 18.5895 3.27562 22.5496 5.56193C26.5096 7.84825 28.949 12.0735 28.949 16.6462C28.949 21.2188 26.5096 25.4441 22.5496 27.7304C18.5895 30.0167 13.7106 30.0167 9.75059 27.7304C5.79057 25.4441 3.3511 21.2188 3.3511 16.6462C3.3511 12.0735 5.79057 7.84825 9.75059 5.56193Z" fill="url(#paint2_linear_8955_8008)"/>
<path d="M10.9137 7.58849C14.1486 5.72084 18.1341 5.72084 21.369 7.58849C24.6039 9.45615 26.5966 12.9077 26.5966 16.643C26.5966 20.3784 24.6039 23.8299 21.369 25.6976C18.1341 27.5652 14.1486 27.5652 10.9137 25.6976C7.67881 23.8299 5.68604 20.3784 5.68604 16.643C5.68604 12.9077 7.67881 9.45615 10.9137 7.58849Z" fill="url(#paint3_linear_8955_8008)"/>
<path d="M16.1364 9.48769L16.1351 16.8311L9.7762 13.1583L16.1364 9.48769Z" fill="url(#paint4_linear_8955_8008)"/>
<path d="M16.0176 16.8286L16.0189 24.172L22.3778 20.4992L16.0176 16.8286Z" fill="url(#paint5_linear_8955_8008)"/>
<path d="M16.093 16.9308L9.6948 20.4924L16.0132 24.1686L16.093 16.9308Z" fill="url(#paint6_linear_8955_8008)"/>
<path d="M15.9936 17.1615L22.3496 13.142L16.1435 9.47474L15.9936 17.1615Z" fill="url(#paint7_linear_8955_8008)"/>
<path d="M9.75677 13.1504L16.3596 16.8731L9.69842 20.4936L9.75677 13.1504Z" fill="url(#paint8_linear_8955_8008)"/>
<path d="M22.3231 13.1504L15.9929 16.8725L22.3814 20.4936L22.3231 13.1504Z" fill="url(#paint9_linear_8955_8008)"/>
<path d="M14.9261 13.2131C15.6996 12.7665 16.6526 12.7665 17.4261 13.2131L18.6534 13.9217C19.4269 14.3682 19.9034 15.1936 19.9034 16.0867V17.5038C19.9034 18.397 19.4269 19.2223 18.6534 19.6689L17.4261 20.3775C16.6526 20.824 15.6996 20.824 14.9261 20.3775L13.6989 19.6689C12.9254 19.2223 12.4489 18.397 12.4489 17.5038V16.0867C12.4489 15.1936 12.9254 14.3682 13.6989 13.9217L14.9261 13.2131Z" fill="url(#paint10_linear_8955_8008)" stroke="#2F3B4D"/>
<defs>
<linearGradient id="paint0_linear_8955_8008" x1="16" y1="0.5" x2="16" y2="32.5" gradientUnits="userSpaceOnUse">
<stop stop-color="#303D50"/>
<stop offset="1" stop-color="#303D50"/>
</linearGradient>
<linearGradient id="paint1_linear_8955_8008" x1="4.44714" y1="2.89879" x2="10.8043" y2="31.9228" gradientUnits="userSpaceOnUse">
<stop stop-color="#CCDDFF"/>
<stop offset="1" stop-color="#394961"/>
</linearGradient>
<linearGradient id="paint2_linear_8955_8008" x1="16.1501" y1="1.86719" x2="16.1501" y2="31.4251" gradientUnits="userSpaceOnUse">
<stop stop-color="#F4F7FD"/>
<stop offset="1" stop-color="#A3B2CF"/>
</linearGradient>
<linearGradient id="paint3_linear_8955_8008" x1="16.1413" y1="4.57031" x2="16.1413" y2="28.7158" gradientUnits="userSpaceOnUse">
<stop stop-color="white"/>
<stop offset="1" stop-color="#DDE8FF"/>
</linearGradient>
<linearGradient id="paint4_linear_8955_8008" x1="16.1364" y1="9.48769" x2="11.8954" y2="16.8303" gradientUnits="userSpaceOnUse">
<stop stop-color="#D9E8F8"/>
<stop offset="1" stop-color="#9CAEC9"/>
</linearGradient>
<linearGradient id="paint5_linear_8955_8008" x1="15.9624" y1="16.8824" x2="20.2034" y2="24.2251" gradientUnits="userSpaceOnUse">
<stop stop-color="#D9E8F8"/>
<stop offset="1" stop-color="#9CAEC9"/>
</linearGradient>
<linearGradient id="paint6_linear_8955_8008" x1="17.9986" y1="15.4731" x2="10.752" y2="25.1983" gradientUnits="userSpaceOnUse">
<stop stop-color="#D9E8F8"/>
<stop offset="1" stop-color="#9CAEC9"/>
</linearGradient>
<linearGradient id="paint7_linear_8955_8008" x1="14.9479" y1="18.4134" x2="21.012" y2="7.91008" gradientUnits="userSpaceOnUse">
<stop stop-color="#D9E8F8"/>
<stop offset="1" stop-color="#9CAEC9"/>
</linearGradient>
<linearGradient id="paint8_linear_8955_8008" x1="9.62342" y1="13.0829" x2="13.8046" y2="20.4597" gradientUnits="userSpaceOnUse">
<stop stop-color="#D9E8F8"/>
<stop offset="1" stop-color="#9CAEC9"/>
</linearGradient>
<linearGradient id="paint9_linear_8955_8008" x1="22.4564" y1="13.0829" x2="18.2752" y2="20.4597" gradientUnits="userSpaceOnUse">
<stop stop-color="#D9E8F8"/>
<stop offset="1" stop-color="#9CAEC9"/>
</linearGradient>
<linearGradient id="paint10_linear_8955_8008" x1="16.1761" y1="11.9141" x2="16.1761" y2="21.6765" gradientUnits="userSpaceOnUse">
<stop stop-color="#EFF5F9"/>
<stop offset="1" stop-color="#AABAD4"/>
</linearGradient>
</defs>
</svg>
