<svg width="20" height="20" viewBox="0 0 20 20" fill="none" xmlns="http://www.w3.org/2000/svg">
<mask id="mask0_9026_707" style="mask-type:alpha" maskUnits="userSpaceOnUse" x="0" y="0" width="20" height="20">
<rect width="20" height="20" fill="#D9D9D9"/>
</mask>
<g mask="url(#mask0_9026_707)">
<path d="M17.8334 11.8724L11.8751 17.8307C11.7084 17.9974 11.5209 18.1224 11.3126 18.2057C11.1042 18.2891 10.8959 18.3307 10.6876 18.3307C10.4792 18.3307 10.2709 18.2891 10.0626 18.2057C9.85425 18.1224 9.66675 17.9974 9.50008 17.8307L2.14591 10.4766C1.99314 10.3238 1.87508 10.1467 1.79175 9.94531C1.70841 9.74392 1.66675 9.53212 1.66675 9.3099V3.33073C1.66675 2.8724 1.82994 2.48003 2.15633 2.15365C2.48272 1.82726 2.87508 1.66406 3.33341 1.66406H9.31258C9.5348 1.66406 9.75008 1.7092 9.95842 1.79948C10.1667 1.88976 10.3473 2.01128 10.5001 2.16406L17.8334 9.51823C18.0001 9.6849 18.1216 9.8724 18.198 10.0807C18.2744 10.2891 18.3126 10.4974 18.3126 10.7057C18.3126 10.9141 18.2744 11.1189 18.198 11.3203C18.1216 11.5217 18.0001 11.7057 17.8334 11.8724ZM5.41675 6.66406C5.76397 6.66406 6.05911 6.54253 6.30217 6.29948C6.54522 6.05642 6.66675 5.76128 6.66675 5.41406C6.66675 5.06684 6.54522 4.7717 6.30217 4.52865C6.05911 4.28559 5.76397 4.16406 5.41675 4.16406C5.06953 4.16406 4.77439 4.28559 4.53133 4.52865C4.28828 4.7717 4.16675 5.06684 4.16675 5.41406C4.16675 5.76128 4.28828 6.05642 4.53133 6.29948C4.77439 6.54253 5.06953 6.66406 5.41675 6.66406ZM11.4167 13.9974L13.7501 11.6641C13.9029 11.5113 14.0244 11.3307 14.1147 11.1224C14.2049 10.9141 14.2501 10.6918 14.2501 10.4557C14.2501 9.98351 14.0834 9.58073 13.7501 9.2474C13.4167 8.91406 13.014 8.7474 12.5417 8.7474C12.2779 8.7474 12.0174 8.82378 11.7605 8.97656C11.5036 9.12934 11.1945 9.38628 10.8334 9.7474C10.4167 9.35851 10.0904 9.09462 9.85425 8.95573C9.61814 8.81684 9.37508 8.7474 9.12508 8.7474C8.65286 8.7474 8.25008 8.91406 7.91675 9.2474C7.58342 9.58073 7.41675 9.98351 7.41675 10.4557C7.41675 10.6918 7.46189 10.9141 7.55217 11.1224C7.64244 11.3307 7.76397 11.5113 7.91675 11.6641L10.2501 13.9974C10.4167 14.1641 10.6112 14.2474 10.8334 14.2474C11.0556 14.2474 11.2501 14.1641 11.4167 13.9974Z" fill="#FF5E5E"/>
</g>
</svg>
