<svg width="48" height="48" viewBox="0 0 48 48" fill="none" xmlns="http://www.w3.org/2000/svg">
<rect width="48" height="48" rx="8" fill="#FFE167" fill-opacity="0.21"/>
<path d="M10.25 20.25V24V26.5V35.25C10.25 36.625 11.3693 37.75 12.75 37.75H24H35.25C36.6313 37.75 37.75 36.625 37.75 35.25V26.5V24V20.25H10.25Z" fill="#F39C12"/>
<path d="M10.25 19V22.75V25.25V34C10.25 35.375 11.3693 36.5 12.75 36.5H24H35.25C36.6313 36.5 37.75 35.375 37.75 34V25.25V22.75V19H10.25Z" fill="#F1C40F"/>
<path d="M11.5 16.5C10.1193 16.5 9 17.625 9 19V21.5H39V19C39 17.625 37.8813 16.5 36.5 16.5H34H25.25H22.75H14H11.5Z" fill="#F1C40F"/>
<path d="M27.75 15.25H20.25V37.75H27.75V15.25Z" fill="#E74C3C"/>
<path d="M18.856 10.25C17.6078 10.125 16.3894 10.7499 15.7211 11.7499C14.7491 13.2499 15.33 15.1249 17.0136 15.9999C17.555 16.3749 18.1349 16.5 18.7185 16.5H19.0073H23.1325H24.865H28.9888H29.2775C29.8613 16.5 30.455 16.3749 30.9963 15.9999C32.68 15.1249 33.2475 13.2499 32.275 11.7499C31.3038 10.2499 29.16 9.74988 27.4763 10.6249C26.935 10.8749 26.51 11.2499 26.2125 11.7499H26.185C26.145 11.8749 26.11 11.875 26.075 12L23.9988 15.125L21.9225 12C21.8875 11.875 21.8525 11.8749 21.8125 11.7499H21.785C21.4868 11.2499 21.0749 10.8749 20.5334 10.6249C20.0073 10.3749 19.4234 10.25 18.856 10.25ZM18.6498 11.7499C18.9879 11.7499 19.3378 11.875 19.6535 12C19.7594 12 19.8546 12.125 19.9421 12.125C20.0038 12.25 20.0549 12.2499 20.1071 12.3749H20.1484C20.1765 12.3749 20.2059 12.4999 20.2309 12.4999H20.2721H20.2859C20.3059 12.6249 20.3371 12.625 20.3546 12.625L21.8125 14.8749H18.8973H18.7323H18.6635H18.526H18.4573C18.3773 14.8749 18.3021 14.8749 18.2235 14.7499C18.1118 14.7499 17.9995 14.75 17.8935 14.625C17.6831 14.625 17.4951 14.3749 17.3573 14.2499C16.9439 13.7499 16.8828 13.1249 17.2473 12.4999C17.551 12.1249 18.0861 11.7499 18.6498 11.7499ZM29.36 11.7499C29.9238 11.7499 30.4588 12.1249 30.7625 12.4999C31.1275 13.1249 31.0525 13.7499 30.6388 14.2499C30.5013 14.3749 30.3275 14.625 30.1163 14.625C30.0113 14.75 29.8988 14.7499 29.7863 14.7499C29.7088 14.8749 29.6188 14.8749 29.5388 14.8749H29.47H29.3325H29.2638H29.0988H26.185L27.6413 12.625C27.6588 12.625 27.69 12.6249 27.71 12.4999H27.7238C27.7275 12.4999 27.7213 12.4999 27.7238 12.4999H27.765C27.79 12.4999 27.82 12.3749 27.8475 12.3749H27.8888C27.9413 12.2499 28.0063 12.25 28.0675 12.125C28.1563 12.125 28.2513 12 28.3563 12C28.6725 11.875 29.0225 11.7499 29.36 11.7499Z" fill="#C0392B"/>
<path d="M37.75 21.5H10.25V22.75H37.75V21.5Z" fill="#F39C12"/>
<path d="M27.75 21.5H20.25V22.75H27.75V21.5Z" fill="#C0392B"/>
<path d="M27.75 36.5H20.25V37.75H27.75V36.5Z" fill="#C0392B"/>
</svg>
