<svg width="24" height="24" viewBox="0 0 24 24" fill="none" xmlns="http://www.w3.org/2000/svg">
<mask id="mask0_8947_18507" style="mask-type:alpha" maskUnits="userSpaceOnUse" x="0" y="0" width="24" height="24">
<rect width="24" height="24" transform="matrix(-1 0 0 1 24 0)" fill="#D9D9D9"/>
</mask>
<g mask="url(#mask0_8947_18507)">
<path d="M11.4 11.9969L15.3 8.09688C15.4833 7.91354 15.575 7.68021 15.575 7.39688C15.575 7.11354 15.4833 6.88021 15.3 6.69688C15.1166 6.51354 14.8833 6.42188 14.6 6.42188C14.3166 6.42188 14.0833 6.51354 13.9 6.69688L9.29995 11.2969C9.19995 11.3969 9.12912 11.5052 9.08745 11.6219C9.04578 11.7385 9.02495 11.8635 9.02495 11.9969C9.02495 12.1302 9.04578 12.2552 9.08745 12.3719C9.12912 12.4885 9.19995 12.5969 9.29995 12.6969L13.9 17.2969C14.0833 17.4802 14.3166 17.5719 14.6 17.5719C14.8833 17.5719 15.1166 17.4802 15.3 17.2969C15.4833 17.1135 15.575 16.8802 15.575 16.5969C15.575 16.3135 15.4833 16.0802 15.3 15.8969L11.4 11.9969Z" fill="white"/>
</g>
</svg>
