<svg width="20" height="20" viewBox="0 0 20 20" fill="none" xmlns="http://www.w3.org/2000/svg">
<mask id="mask0_8961_11067" style="mask-type:alpha" maskUnits="userSpaceOnUse" x="0" y="0" width="20" height="20">
<rect width="20" height="20" fill="#D9D9D9"/>
</mask>
<g mask="url(#mask0_8961_11067)">
<path d="M4.16667 18.3307C3.70833 18.3307 3.31597 18.1675 2.98958 17.8411C2.66319 17.5148 2.5 17.1224 2.5 16.6641V4.9974C2.5 4.53906 2.66319 4.1467 2.98958 3.82031C3.31597 3.49392 3.70833 3.33073 4.16667 3.33073H5V2.4974C5 2.26128 5.07986 2.06337 5.23958 1.90365C5.39931 1.74392 5.59722 1.66406 5.83333 1.66406C6.06944 1.66406 6.26736 1.74392 6.42708 1.90365C6.58681 2.06337 6.66667 2.26128 6.66667 2.4974V3.33073H13.3333V2.4974C13.3333 2.26128 13.4132 2.06337 13.5729 1.90365C13.7326 1.74392 13.9306 1.66406 14.1667 1.66406C14.4028 1.66406 14.6007 1.74392 14.7604 1.90365C14.9201 2.06337 15 2.26128 15 2.4974V3.33073H15.8333C16.2917 3.33073 16.684 3.49392 17.0104 3.82031C17.3368 4.1467 17.5 4.53906 17.5 4.9974V16.6641C17.5 17.1224 17.3368 17.5148 17.0104 17.8411C16.684 18.1675 16.2917 18.3307 15.8333 18.3307H4.16667ZM4.16667 16.6641H15.8333V8.33073H4.16667V16.6641ZM10 11.6641C9.76389 11.6641 9.56597 11.5842 9.40625 11.4245C9.24653 11.2648 9.16667 11.0668 9.16667 10.8307C9.16667 10.5946 9.24653 10.3967 9.40625 10.237C9.56597 10.0773 9.76389 9.9974 10 9.9974C10.2361 9.9974 10.434 10.0773 10.5938 10.237C10.7535 10.3967 10.8333 10.5946 10.8333 10.8307C10.8333 11.0668 10.7535 11.2648 10.5938 11.4245C10.434 11.5842 10.2361 11.6641 10 11.6641ZM6.66667 11.6641C6.43056 11.6641 6.23264 11.5842 6.07292 11.4245C5.91319 11.2648 5.83333 11.0668 5.83333 10.8307C5.83333 10.5946 5.91319 10.3967 6.07292 10.237C6.23264 10.0773 6.43056 9.9974 6.66667 9.9974C6.90278 9.9974 7.10069 10.0773 7.26042 10.237C7.42014 10.3967 7.5 10.5946 7.5 10.8307C7.5 11.0668 7.42014 11.2648 7.26042 11.4245C7.10069 11.5842 6.90278 11.6641 6.66667 11.6641ZM13.3333 11.6641C13.0972 11.6641 12.8993 11.5842 12.7396 11.4245C12.5799 11.2648 12.5 11.0668 12.5 10.8307C12.5 10.5946 12.5799 10.3967 12.7396 10.237C12.8993 10.0773 13.0972 9.9974 13.3333 9.9974C13.5694 9.9974 13.7674 10.0773 13.9271 10.237C14.0868 10.3967 14.1667 10.5946 14.1667 10.8307C14.1667 11.0668 14.0868 11.2648 13.9271 11.4245C13.7674 11.5842 13.5694 11.6641 13.3333 11.6641ZM10 14.9974C9.76389 14.9974 9.56597 14.9175 9.40625 14.7578C9.24653 14.5981 9.16667 14.4002 9.16667 14.1641C9.16667 13.928 9.24653 13.73 9.40625 13.5703C9.56597 13.4106 9.76389 13.3307 10 13.3307C10.2361 13.3307 10.434 13.4106 10.5938 13.5703C10.7535 13.73 10.8333 13.928 10.8333 14.1641C10.8333 14.4002 10.7535 14.5981 10.5938 14.7578C10.434 14.9175 10.2361 14.9974 10 14.9974ZM6.66667 14.9974C6.43056 14.9974 6.23264 14.9175 6.07292 14.7578C5.91319 14.5981 5.83333 14.4002 5.83333 14.1641C5.83333 13.928 5.91319 13.73 6.07292 13.5703C6.23264 13.4106 6.43056 13.3307 6.66667 13.3307C6.90278 13.3307 7.10069 13.4106 7.26042 13.5703C7.42014 13.73 7.5 13.928 7.5 14.1641C7.5 14.4002 7.42014 14.5981 7.26042 14.7578C7.10069 14.9175 6.90278 14.9974 6.66667 14.9974ZM13.3333 14.9974C13.0972 14.9974 12.8993 14.9175 12.7396 14.7578C12.5799 14.5981 12.5 14.4002 12.5 14.1641C12.5 13.928 12.5799 13.73 12.7396 13.5703C12.8993 13.4106 13.0972 13.3307 13.3333 13.3307C13.5694 13.3307 13.7674 13.4106 13.9271 13.5703C14.0868 13.73 14.1667 13.928 14.1667 14.1641C14.1667 14.4002 14.0868 14.5981 13.9271 14.7578C13.7674 14.9175 13.5694 14.9974 13.3333 14.9974Z" fill="white"/>
</g>
</svg>
