<svg width="56" height="56" viewBox="0 0 56 56" fill="none" xmlns="http://www.w3.org/2000/svg">
<g filter="url(#filter0_d_3985_1574)">
<rect x="12" y="11" width="32" height="32" rx="16" fill="#303746" shape-rendering="crispEdges"/>
<mask id="mask0_3985_1574" style="mask-type:alpha" maskUnits="userSpaceOnUse" x="16" y="15" width="24" height="24">
<rect x="16" y="15" width="24" height="24" fill="#D9D9D9"/>
</mask>
<g mask="url(#mask0_3985_1574)">
<path d="M26.6 31.6L33.65 24.55L32.25 23.15L26.6 28.8L23.75 25.95L22.35 27.35L26.6 31.6ZM28 37C26.6167 37 25.3167 36.7373 24.1 36.212C22.8833 35.6873 21.825 34.975 20.925 34.075C20.025 33.175 19.3127 32.1167 18.788 30.9C18.2627 29.6833 18 28.3833 18 27C18 25.6167 18.2627 24.3167 18.788 23.1C19.3127 21.8833 20.025 20.825 20.925 19.925C21.825 19.025 22.8833 18.3123 24.1 17.787C25.3167 17.2623 26.6167 17 28 17C29.3833 17 30.6833 17.2623 31.9 17.787C33.1167 18.3123 34.175 19.025 35.075 19.925C35.975 20.825 36.6873 21.8833 37.212 23.1C37.7373 24.3167 38 25.6167 38 27C38 28.3833 37.7373 29.6833 37.212 30.9C36.6873 32.1167 35.975 33.175 35.075 34.075C34.175 34.975 33.1167 35.6873 31.9 36.212C30.6833 36.7373 29.3833 37 28 37Z" fill="#00DF80"/>
</g>
</g>
<defs>
<filter id="filter0_d_3985_1574" x="0" y="0" width="56" height="56" filterUnits="userSpaceOnUse" color-interpolation-filters="sRGB">
<feFlood flood-opacity="0" result="BackgroundImageFix"/>
<feColorMatrix in="SourceAlpha" type="matrix" values="0 0 0 0 0 0 0 0 0 0 0 0 0 0 0 0 0 0 127 0" result="hardAlpha"/>
<feOffset dy="1"/>
<feGaussianBlur stdDeviation="6"/>
<feComposite in2="hardAlpha" operator="out"/>
<feColorMatrix type="matrix" values="0 0 0 0 0.00392157 0 0 0 0 0.878431 0 0 0 0 0.486275 0 0 0 0.67 0"/>
<feBlend mode="normal" in2="BackgroundImageFix" result="effect1_dropShadow_3985_1574"/>
<feBlend mode="normal" in="SourceGraphic" in2="effect1_dropShadow_3985_1574" result="shape"/>
</filter>
</defs>
</svg>
