<svg width="20" height="20" viewBox="0 0 20 20" fill="none" xmlns="http://www.w3.org/2000/svg">
<mask id="mask0_47_336" style="mask-type:alpha" maskUnits="userSpaceOnUse" x="0" y="0" width="20" height="20">
<rect width="20" height="20" fill="#D9D9D9"/>
</mask>
<g mask="url(#mask0_47_336)">
<path d="M16.0007 18.1243L13.2923 15.416C12.7645 15.5827 12.2263 15.7216 11.6777 15.8327C11.1291 15.9438 10.5701 15.9993 10.0007 15.9993C8.18121 15.9993 6.51107 15.5202 4.99023 14.5618C3.4694 13.6035 2.27148 12.3257 1.39648 10.7285C1.32704 10.6174 1.27843 10.4993 1.25065 10.3743C1.22287 10.2493 1.20898 10.1243 1.20898 9.99935C1.20898 9.87435 1.22635 9.74935 1.26107 9.62435C1.29579 9.49935 1.34787 9.38129 1.41732 9.27018C1.76454 8.67296 2.14301 8.10004 2.55273 7.55143C2.96246 7.00282 3.43121 6.50629 3.95898 6.06185L1.87565 3.97852L2.93815 2.91602L17.0632 17.0618L16.0007 18.1243ZM10.0007 13.4993C10.1951 13.4993 10.3895 13.4785 10.584 13.4368C10.7784 13.3952 10.9729 13.3466 11.1673 13.291L6.70898 8.83268C6.66732 9.02713 6.62218 9.22157 6.57357 9.41602C6.52496 9.61046 6.50065 9.8049 6.50065 9.99935C6.50065 10.9716 6.84093 11.798 7.52148 12.4785C8.20204 13.1591 9.02843 13.4993 10.0007 13.4993ZM16.0423 13.916L13.2715 11.1452C13.3409 10.9646 13.3965 10.7771 13.4382 10.5827C13.4798 10.3882 13.5007 10.1938 13.5007 9.99935C13.5007 9.02713 13.1604 8.20074 12.4798 7.52018C11.7993 6.83963 10.9729 6.49935 10.0007 6.49935C9.80621 6.49935 9.61523 6.51671 9.42773 6.55143C9.24023 6.58615 9.04926 6.63824 8.85482 6.70768L6.70898 4.56185C7.23676 4.35352 7.77496 4.20768 8.32357 4.12435C8.87218 4.04102 9.43121 3.99935 10.0007 3.99935C11.8201 3.99935 13.4937 4.47852 15.0215 5.43685C16.5493 6.39518 17.7507 7.6799 18.6257 9.29102C18.6951 9.40213 18.7437 9.51671 18.7715 9.63477C18.7993 9.75282 18.8132 9.87435 18.8132 9.99935C18.8132 10.1243 18.7958 10.2459 18.7611 10.3639C18.7263 10.482 18.6812 10.5966 18.6257 10.7077C18.3062 11.3327 17.9312 11.9125 17.5007 12.4473C17.0701 12.982 16.584 13.4716 16.0423 13.916ZM11.9798 9.85352L10.1465 7.99935C10.4104 7.97157 10.6604 8.00282 10.8965 8.0931C11.1326 8.18338 11.3409 8.32574 11.5215 8.52018C11.702 8.70074 11.8305 8.9056 11.9069 9.13477C11.9833 9.36393 12.0076 9.60352 11.9798 9.85352Z" fill="#87888E"/>
</g>
</svg>
