<svg width="13" height="13" viewBox="0 0 13 13" fill="none" xmlns="http://www.w3.org/2000/svg">
<path d="M10.7489 3.1464H1.74996C1.54498 3.1464 1.375 2.97642 1.375 2.77144C1.375 2.56647 1.54498 2.39648 1.74996 2.39648H10.7489C10.9539 2.39648 11.1239 2.56647 11.1239 2.77144C11.1239 2.97642 10.9539 3.1464 10.7489 3.1464Z" fill="white"/>
<path d="M8.61833 5.64542H3.87886C3.67389 5.64542 3.50391 5.47544 3.50391 5.27047C3.50391 5.06549 3.67389 4.89551 3.87886 4.89551H8.61333C8.81831 4.89551 8.98829 5.06549 8.98829 5.27047C8.98829 5.47544 8.82331 5.64542 8.61833 5.64542Z" fill="white"/>
<path d="M10.7489 8.14542H1.74996C1.54498 8.14542 1.375 7.97544 1.375 7.77047C1.375 7.56549 1.54498 7.39551 1.74996 7.39551H10.7489C10.9539 7.39551 11.1239 7.56549 11.1239 7.77047C11.1239 7.97544 10.9539 8.14542 10.7489 8.14542Z" fill="white"/>
<path d="M8.61833 10.6454H3.87886C3.67389 10.6454 3.50391 10.4754 3.50391 10.2705C3.50391 10.0655 3.67389 9.89551 3.87886 9.89551H8.61333C8.81831 9.89551 8.98829 10.0655 8.98829 10.2705C8.98829 10.4754 8.82331 10.6454 8.61833 10.6454Z" fill="white"/>
</svg>
