<svg width="58" height="64" viewBox="0 0 58 64" fill="none" xmlns="http://www.w3.org/2000/svg">
<path d="M0.581299 32.9224C0.581299 32.9224 4.53341 24.2219 5.36944 22.2421C6.20546 20.2623 8.03711 17.7971 8.86554 16.9247L22.7739 4.01438C27.1137 -0.187937 35.4131 -0.195534 40.2165 4.87911L54.9533 20.8237C57.7958 23.8275 58.4418 27.6657 57.1801 30.9274L53.0608 45.1425L41.5313 42.4648L38.6128 44.3991C34.5999 47.054 28.3677 46.1741 24.5296 42.5331L18.9206 37.2157L0.588898 32.9224H0.581299Z" fill="url(#paint0_linear_7027_5082)"/>
<path d="M34.144 60.8597L49.3749 49.6712C54.3606 46.0074 55.5539 40.0832 49.9905 33.8101L33.9464 16.8643C29.0443 11.6834 21.2389 11.2207 16.8079 15.6885L3.30234 29.3271C-1.65301 34.4017 -0.193764 37.6104 4.38157 42.4802L21.1325 60.5107C25.3734 64.8116 29.9259 63.9621 34.1364 60.8672L34.144 60.8597Z" fill="url(#paint1_linear_7027_5082)" stroke="url(#paint2_linear_7027_5082)" stroke-width="0.23" stroke-miterlimit="10"/>
<path d="M30.0994 23.1681L34.956 28.4172C36.8712 30.488 36.9168 33.4919 35.07 35.062L34.9332 35.1758L29.8638 29.6688C28.2678 27.9317 25.7521 27.6359 24.2853 28.9937L15.5982 36.9963L15.3778 36.7536C13.6374 34.8193 13.4854 32.0279 15.0586 30.526L23.4796 22.4854C25.2125 20.8318 28.1918 21.1276 30.0766 23.1681H30.0994Z" fill="url(#paint3_linear_7027_5082)"/>
<path d="M24.5211 31.2385L15.302 39.6508C14.2988 40.5686 14.39 42.3208 15.4996 43.5648L22.1954 51.0365C23.0466 51.9846 24.2779 52.4094 25.2887 52.1819C25.6079 52.106 25.9195 51.9695 26.1779 51.7495L27.318 50.8241L28.876 52.5535C29.4764 53.2211 30.0008 53.6003 30.5481 53.2817C30.8749 53.0921 31.4145 52.4777 31.3993 51.9998L31.2625 47.6154L35.9822 43.7696C36.2558 43.5497 36.4686 43.269 36.613 42.958C37.0766 41.9567 36.841 40.6293 35.9138 39.6128L28.7012 31.7619C27.508 30.4572 25.6155 30.2297 24.5211 31.231V31.2385ZM25.6535 43.5345C25.5091 43.5117 25.1975 43.4511 25.1975 43.4511L24.6731 43.8682C24.6731 43.8682 25.5091 45.5825 25.5015 46.379C25.5015 46.7583 25.2355 46.9783 24.8631 46.9024C24.4907 46.8341 24.2171 46.5004 24.2247 46.1059C24.2247 45.1426 24.1183 44.1717 23.8675 43.1856C23.8447 43.1021 23.8067 43.0642 23.7307 43.0339C23.1758 42.8139 22.6134 42.5939 22.0586 42.3512C21.6862 42.1843 21.4886 41.7974 21.5874 41.4788C21.6862 41.1527 22.8414 42.0629 22.8414 42.0629L23.3659 41.6457C23.3659 41.6457 22.7958 40.379 22.4386 39.7645C22.3854 39.8101 22.3398 39.8404 22.2942 39.8783L20.531 41.4333C20.303 41.6381 20.0066 41.6381 19.7405 41.4333C19.3833 41.1678 19.2997 40.69 19.5733 40.4396L20.7362 39.408C20.8122 39.3423 20.8071 39.2639 20.721 39.1729L20.3942 38.8088C20.1282 38.5129 20.1054 38.1261 20.341 37.9137C20.569 37.7013 21.177 38.9681 21.177 38.9681L21.7014 38.5509L22.9706 37.4131C23.2442 37.1779 23.6319 37.2234 23.9055 37.5268C24.1791 37.8303 24.1715 38.2095 23.9131 38.4523C23.7459 38.604 23.5711 38.7557 23.3963 38.8998C23.3354 38.9529 23.3202 38.9984 23.3811 39.0818C23.9587 40.0073 24.4147 40.9782 24.7643 41.9795C24.7947 42.0705 24.8327 42.1084 24.9239 42.1236C25.1671 42.1691 25.4103 42.2222 25.6611 42.2753C26.0639 42.3588 26.1171 42.6925 26.1171 43.0642C26.1171 43.4207 26.0487 43.6028 25.6535 43.5269V43.5345ZM32.4177 42.3208C32.2581 42.5256 31.9617 42.5711 31.6653 42.4346C31.3613 42.2981 31.0573 42.1539 30.7609 42.0022C30.6773 41.9643 30.6317 41.9643 30.5785 42.0174C29.9096 42.5863 29.2484 43.1476 28.5872 43.6938C28.5264 43.7393 28.5188 43.7924 28.5416 43.8834C28.6556 44.1944 28.7696 44.513 28.876 44.8316C28.9748 45.1502 28.8456 45.4384 28.5644 45.5294C28.2832 45.6205 27.9412 45.4839 27.7436 45.1957C27.6904 45.1274 27.66 45.044 27.6296 44.9605C27.128 43.5345 26.6263 42.1084 26.1171 40.6824C25.9651 40.2348 25.8055 39.7949 25.6535 39.3473C25.5623 39.0818 25.6003 38.8467 25.8131 38.6647C25.9727 38.5433 26.2007 38.5205 26.4667 38.6495C27.774 39.2639 29.0888 39.8783 30.4189 40.5003C30.9661 40.7582 31.5133 41.0086 32.0605 41.274C32.5165 41.494 32.6837 41.9947 32.4253 42.3208H32.4177ZM27.9944 42.336L29.2332 41.2892C28.5872 40.9858 27.3028 40.379 27.3028 40.379L26.7783 40.7962C26.7783 40.7962 27.8196 41.8429 27.9944 42.336Z" fill="url(#paint4_linear_7027_5082)"/>
<path d="M29.9744 22.9696L34.8309 28.2187C36.7462 30.2896 36.7918 33.2934 34.9449 34.8635L34.8081 34.9773L29.7388 29.4703C28.1427 27.7333 25.6271 27.4374 24.1602 28.7952L15.4732 36.7978L15.2528 36.5551C13.5123 34.6208 13.3603 31.8294 14.9335 30.3275L23.3546 22.2869C25.0874 20.6333 28.0667 20.9291 29.9516 22.9696H29.9744Z" fill="url(#paint5_linear_7027_5082)"/>
<path d="M27.9905 41.4473L29.2294 40.4006C28.5834 40.0972 27.9525 39.7937 27.2989 39.4903C27.5345 40.1578 27.7549 40.795 27.9905 41.4473ZM24.5172 30.3499L15.2982 38.7621C14.2949 39.68 14.3861 41.4322 15.4958 42.6762L22.1916 50.1478C23.0428 51.096 24.274 51.5208 25.2849 51.2932C25.6041 51.2174 25.9157 51.0808 26.1741 50.8608L27.3141 49.9354L28.8722 51.6649C29.8298 52.7344 31.4334 52.3855 31.3954 51.1036L31.2586 46.7192L35.9784 42.8734C36.252 42.6534 36.4648 42.3728 36.6092 42.0618C37.0728 41.0605 36.8372 39.7331 35.91 38.7166L28.6974 30.8657C27.5041 29.561 25.6117 29.3334 24.5172 30.3347V30.3499ZM25.6497 42.6383C25.5053 42.6155 25.3533 42.5852 25.1937 42.5548C25.2317 42.7293 25.2545 42.8886 25.2925 43.0555C25.4445 43.8747 25.5129 44.6863 25.4977 45.4828C25.4977 45.8621 25.2317 46.082 24.8592 46.0062C24.4868 45.9379 24.2132 45.6042 24.2208 45.2097C24.2208 44.2464 24.1144 43.2754 23.8636 42.2893C23.8408 42.2059 23.8028 42.168 23.7268 42.1376C23.172 41.9176 22.6096 41.6977 22.0548 41.4549C21.6824 41.288 21.4848 40.9012 21.5836 40.5826C21.6824 40.2564 22.032 40.1502 22.4044 40.3247C22.7084 40.4612 23.0124 40.5978 23.3544 40.7419C23.0884 40.0744 22.7844 39.4751 22.4272 38.8607C22.374 38.9062 22.3284 38.9366 22.2828 38.9745L20.5195 40.5295C20.2915 40.7343 19.9951 40.7343 19.7291 40.5295C19.3719 40.264 19.2883 39.7861 19.5619 39.5358L20.7247 38.5042C20.8007 38.4385 20.7957 38.3601 20.7095 38.2691L20.3827 37.905C20.1167 37.6091 20.0939 37.2223 20.3295 37.0099C20.5575 36.7975 20.9451 36.843 21.2187 37.1313C21.3707 37.2981 21.5228 37.465 21.69 37.6471L22.9592 36.5092C23.2328 36.2741 23.6204 36.3196 23.894 36.623C24.1676 36.9264 24.16 37.3057 23.9016 37.5484C23.7344 37.7002 23.5596 37.8519 23.3848 37.996C23.324 38.0491 23.3088 38.0946 23.3696 38.178C23.9472 39.1034 24.4032 40.0744 24.7528 41.0757C24.7832 41.1667 24.8212 41.2046 24.9125 41.2198C25.1557 41.2653 25.3989 41.3184 25.6497 41.3715C26.0525 41.4549 26.3337 41.7659 26.3337 42.1376C26.3337 42.4941 26.0449 42.6989 25.6421 42.6231L25.6497 42.6383ZM32.4139 41.4322C32.2543 41.637 31.9579 41.6825 31.6614 41.5459C31.3574 41.4094 31.0534 41.2653 30.757 41.1136C30.6734 41.0757 30.6278 41.0757 30.5746 41.1288C29.9058 41.6977 29.2446 42.259 28.5834 42.8051C28.5226 42.8506 28.515 42.9037 28.5378 42.9948C28.6518 43.3058 28.7658 43.6244 28.8722 43.9429C28.971 44.2615 28.8418 44.5498 28.5606 44.6408C28.2793 44.7318 27.9373 44.5953 27.7397 44.3071C27.6865 44.2388 27.6561 44.1553 27.6257 44.0719C27.1241 42.6458 26.6225 41.2198 26.1133 39.7937C25.9613 39.3462 25.8017 38.9062 25.6497 38.4587C25.5585 38.1932 25.5965 37.958 25.8093 37.776C25.9689 37.6546 26.1969 37.6319 26.4629 37.7608C27.7701 38.3753 29.085 38.9897 30.415 39.6117C30.9622 39.8696 31.5094 40.1199 32.0567 40.3854C32.5127 40.6054 32.6799 41.106 32.4215 41.4322H32.4139Z" fill="url(#paint6_linear_7027_5082)"/>
<path d="M29.9483 23.038L34.8049 28.2871C36.7201 30.3579 36.7657 33.3617 34.9189 34.9319L34.7821 35.0457L29.7127 29.5387C28.1167 27.8016 25.601 27.5058 24.1341 28.8636L15.4471 36.8662L15.2267 36.6235C13.4862 34.6892 13.3342 31.8977 14.9075 30.3958L23.3285 22.3553C25.0614 20.7017 28.0407 20.9975 29.9255 23.038H29.9483Z" fill="url(#paint7_linear_7027_5082)"/>
<path d="M27.9647 41.5157L29.2035 40.4689C28.5575 40.1655 27.9267 39.8621 27.273 39.5587C27.5086 40.2262 27.7291 40.8634 27.9647 41.5157ZM24.4914 30.4183L15.2723 38.8305C14.2691 39.7483 14.3603 41.5005 15.4699 42.7446L22.1657 50.2162C23.0169 51.1644 24.2482 51.5891 25.259 51.3616C25.5858 51.2857 25.8898 51.1492 26.1482 50.9292L27.2882 50.0038L28.8463 51.7333C29.8039 52.8028 31.4076 52.4539 31.3696 51.1719L31.2328 46.7876L35.9525 42.9418C36.2261 42.7218 36.4389 42.4411 36.5833 42.1301C37.0469 41.1289 36.8113 39.8014 35.8841 38.785L28.6715 30.9341C27.4782 29.6294 25.5858 29.4018 24.4914 30.4031V30.4183ZM25.6238 42.7142C25.4794 42.6914 25.3274 42.6611 25.1678 42.6308C25.2058 42.8052 25.2362 42.9645 25.2666 43.1314C25.4262 43.943 25.487 44.7623 25.4718 45.5587C25.4718 45.938 25.2058 46.158 24.8334 46.0821C24.461 46.0063 24.195 45.6801 24.195 45.2857C24.2102 44.3223 24.0885 43.3514 23.8377 42.3653C23.8149 42.2818 23.7769 42.2439 23.7009 42.2136C23.1461 41.986 22.5837 41.7736 22.0289 41.5309C21.6565 41.364 21.4589 40.9772 21.5577 40.6586C21.6565 40.34 21.9985 40.2338 22.3785 40.4007C22.6825 40.5372 22.9865 40.6737 23.3285 40.8179C23.0625 40.1503 22.7585 39.5511 22.4013 38.9367C22.3481 38.9822 22.3025 39.0125 22.2569 39.0505L20.4936 40.6055C20.2656 40.8103 19.9692 40.8027 19.7032 40.6055C19.346 40.34 19.2624 39.8621 19.536 39.6118L20.6988 38.5801C20.7749 38.5144 20.7698 38.436 20.6836 38.345L20.3568 37.9809C20.0908 37.6851 20.068 37.2982 20.3036 37.0858C20.5316 36.8734 20.9193 36.9189 21.1929 37.2072C21.3525 37.3741 21.4969 37.541 21.6641 37.723L22.9333 36.5852C23.2069 36.3501 23.5945 36.3956 23.8681 36.699C24.1417 37.0024 24.1341 37.3893 23.8757 37.6244C23.7085 37.7761 23.5337 37.9202 23.3589 38.0719C23.2981 38.125 23.2829 38.1705 23.3437 38.254C23.9213 39.187 24.385 40.1503 24.727 41.1516C24.7574 41.2426 24.7954 41.2806 24.8866 41.2957C25.1298 41.3488 25.373 41.3943 25.6238 41.4474C26.0266 41.5309 26.3078 41.8419 26.3078 42.2136C26.3078 42.5701 26.019 42.7673 25.6162 42.699L25.6238 42.7142ZM32.388 41.5005C32.2284 41.7053 31.932 41.7508 31.6356 41.6143C31.3392 41.4778 31.0351 41.3337 30.7311 41.182C30.6475 41.144 30.6019 41.144 30.5487 41.1971C29.8799 41.766 29.2187 42.3198 28.5575 42.8735C28.4967 42.919 28.4815 42.9721 28.5119 43.0631C28.6259 43.3817 28.7475 43.6927 28.8463 44.0113C28.9451 44.3299 28.8159 44.6181 28.5347 44.7092C28.2535 44.8002 27.9191 44.6561 27.7139 44.3754C27.6607 44.3071 27.6302 44.2237 27.5998 44.1403C27.0982 42.7142 26.589 41.2881 26.0874 39.8621C25.9278 39.4145 25.7758 38.9746 25.6238 38.5271C25.5326 38.2616 25.5706 38.0188 25.7834 37.8444C25.943 37.7154 26.171 37.7002 26.437 37.8292C27.7443 38.4512 29.0591 39.058 30.3891 39.68C30.9363 39.9379 31.4836 40.1883 32.0308 40.4537C32.4868 40.6737 32.654 41.1744 32.3956 41.5005H32.388Z" fill="url(#paint8_linear_7027_5082)"/>
<path d="M29.9242 23.1137L34.7807 28.3628C36.6959 30.4336 36.7415 33.4374 34.8947 35.0076L34.7579 35.1214L29.6885 29.6144C28.0925 27.8773 25.5768 27.5815 24.11 28.9393L15.4229 36.9419L15.2025 36.6991C13.4621 34.7649 13.3101 31.9734 14.8833 30.4715L23.3044 22.431C25.0372 20.7774 28.0165 21.0732 29.9013 23.1137H29.9242Z" fill="url(#paint9_linear_7027_5082)"/>
<path d="M27.9403 41.5838L29.1791 40.537C28.5331 40.2336 27.9023 39.9302 27.2487 39.6268C27.4843 40.2943 27.7047 40.9315 27.9403 41.5838ZM24.467 30.4864L15.2479 38.8986C14.2447 39.8164 14.3359 41.5686 15.4455 42.8127L22.1413 50.2843C22.9926 51.2325 24.2238 51.6572 25.2346 51.4297C25.5614 51.3538 25.8654 51.2173 26.1239 50.9973L27.2639 50.0719L28.8219 51.8014C29.7796 52.8709 31.3832 52.522 31.3452 51.24L31.2084 46.8557L35.9281 43.0099C36.2017 42.7899 36.4146 42.5092 36.559 42.1982C37.0226 41.197 36.787 39.8695 35.8597 38.8531L28.6471 31.0022C27.4539 29.6975 25.5614 29.4699 24.467 30.4712V30.4864ZM25.5994 42.7823C25.455 42.7595 25.303 42.7292 25.1434 42.6989C25.1814 42.8733 25.2118 43.0326 25.2422 43.1995C25.4018 44.0112 25.4626 44.8304 25.4474 45.6268C25.4474 46.0061 25.1814 46.2261 24.809 46.1502C24.4366 46.0744 24.1706 45.7482 24.1706 45.3538C24.1858 44.3904 24.0642 43.4195 23.8134 42.4334C23.7906 42.3499 23.7526 42.312 23.6766 42.2817C23.1218 42.0541 22.5594 41.8417 22.0045 41.599C21.6321 41.4321 21.4345 41.0453 21.5333 40.7267C21.6321 40.4081 21.9741 40.3019 22.3541 40.4688C22.6582 40.6053 22.9622 40.7418 23.3042 40.886C23.0382 40.2184 22.7342 39.6192 22.3769 39.0048C22.3237 39.0503 22.2781 39.0806 22.2325 39.1186L20.4693 40.6736C20.2413 40.8784 19.9449 40.8708 19.6789 40.6736C19.3217 40.4081 19.2381 39.9302 19.5117 39.6799L20.6745 38.6483C20.7505 38.5825 20.7454 38.5041 20.6593 38.4131L20.3325 38.049C20.0665 37.7532 20.0437 37.3663 20.2793 37.1539C20.5073 36.9416 20.8949 36.987 21.1685 37.2753C21.3281 37.4422 21.4725 37.6091 21.6397 37.7911L22.909 36.6533C23.1826 36.4182 23.5702 36.4637 23.8438 36.7671C24.1174 37.0705 24.1098 37.4574 23.8514 37.6925C23.6842 37.8442 23.5094 37.9883 23.3346 38.14C23.2738 38.1931 23.2586 38.2386 23.3194 38.3221C23.897 39.2551 24.3606 40.2184 24.7026 41.2197C24.733 41.3107 24.771 41.3487 24.8622 41.3638C25.1054 41.4169 25.3486 41.4625 25.5994 41.5156C26.0022 41.599 26.2835 41.91 26.2835 42.2817C26.2835 42.6382 25.9947 42.8354 25.5918 42.7671L25.5994 42.7823ZM32.3636 41.5686C32.204 41.7734 31.9076 41.819 31.6112 41.6824C31.3148 41.5459 31.0108 41.4018 30.7068 41.2501C30.6232 41.2121 30.5776 41.2121 30.5244 41.2652C29.8556 41.8341 29.1943 42.3879 28.5331 42.9416C28.4723 42.9871 28.4571 43.0402 28.4875 43.1312C28.6015 43.4498 28.7231 43.7608 28.8219 44.0794C28.9207 44.398 28.7915 44.6862 28.5103 44.7773C28.2291 44.8683 27.8947 44.7242 27.6895 44.4435C27.6363 44.3752 27.6059 44.2918 27.5755 44.2084C27.0739 42.7823 26.5647 41.3562 26.0631 39.9302C25.9034 39.4826 25.7514 39.0427 25.5994 38.5952C25.5082 38.3297 25.5462 38.0869 25.759 37.9125C25.9186 37.7835 26.1467 37.7683 26.4127 37.8973C27.7199 38.5193 29.0347 39.1261 30.3648 39.7481C30.912 40.006 31.4592 40.2564 32.0064 40.5219C32.4624 40.7418 32.6296 41.2425 32.3712 41.5686H32.3636Z" fill="url(#paint10_linear_7027_5082)"/>
<path d="M29.8924 23.183L34.749 28.4321C36.6642 30.5029 36.7098 33.5067 34.863 35.0769L34.7262 35.1907L29.6568 29.6837C28.0608 27.9466 25.5451 27.6508 24.0782 29.0086L15.3912 37.0112L15.1708 36.7685C13.4303 34.8342 13.2783 32.0428 14.8516 30.5409L23.2726 22.5003C25.0055 20.8467 27.9848 21.1425 29.8696 23.183H29.8924Z" fill="url(#paint11_linear_7027_5082)"/>
<path d="M27.9086 41.6532L29.1474 40.6064C28.5014 40.3029 27.8706 39.9995 27.2169 39.6961C27.4526 40.3636 27.673 41.0008 27.9086 41.6532ZM24.4353 30.5557L15.2162 38.9679C14.213 39.8857 14.3042 41.638 15.4138 42.882L22.1096 50.3536C22.9608 51.3018 24.1921 51.7266 25.2029 51.499C25.5297 51.4232 25.8337 51.2866 26.0921 51.0667L27.2321 50.1412L28.7902 51.8707C29.7478 52.9403 31.3515 52.5913 31.3135 51.3094L31.1767 46.925L35.8964 43.0792C36.17 42.8592 36.3828 42.5786 36.5272 42.2676C36.9908 41.2663 36.7552 39.9388 35.828 38.9224L28.6154 31.0715C27.4222 29.7668 25.5297 29.5393 24.4353 30.5405V30.5557ZM25.5677 42.8516C25.4233 42.8289 25.2713 42.7986 25.1117 42.7682C25.1497 42.9427 25.1801 43.102 25.2105 43.2689C25.3701 44.0805 25.4309 44.8997 25.4157 45.6962C25.4157 46.0754 25.1497 46.2954 24.7773 46.2196C24.4049 46.1437 24.1389 45.8175 24.1389 45.4231C24.1541 44.4598 24.0325 43.4888 23.7816 42.5027C23.7588 42.4193 23.7208 42.3813 23.6448 42.351C23.09 42.1234 22.5276 41.9111 21.9728 41.6683C21.6004 41.5014 21.4028 41.1146 21.5016 40.796C21.6004 40.4774 21.9424 40.3712 22.3224 40.5381C22.6264 40.6746 22.9304 40.8112 23.2724 40.9553C23.0064 40.2878 22.7024 39.6885 22.3452 39.0741C22.292 39.1196 22.2464 39.15 22.2008 39.1879L20.4376 40.7429C20.2095 40.9477 19.9131 40.9401 19.6471 40.7429C19.2899 40.4774 19.2063 39.9995 19.4799 39.7492L20.6428 38.7176C20.7188 38.6519 20.7137 38.5735 20.6276 38.4825L20.3007 38.1184C20.0347 37.8225 20.0119 37.4357 20.2475 37.2233C20.4756 37.0109 20.8632 37.0564 21.1368 37.3446C21.2964 37.5115 21.4408 37.6784 21.608 37.8604L22.8772 36.7226C23.1508 36.4875 23.5384 36.533 23.8121 36.8364C24.0857 37.1398 24.0781 37.5267 23.8196 37.7618C23.6524 37.9135 23.4776 38.0577 23.3028 38.2094C23.242 38.2625 23.2268 38.308 23.2876 38.3914C23.8653 39.3244 24.3289 40.2878 24.6709 41.289C24.7013 41.3801 24.7393 41.418 24.8305 41.4332C25.0737 41.4863 25.3169 41.5318 25.5677 41.5849C25.9705 41.6683 26.2517 41.9793 26.2517 42.351C26.2517 42.7075 25.9629 42.9047 25.5601 42.8365L25.5677 42.8516ZM32.3319 41.638C32.1723 41.8428 31.8759 41.8883 31.5795 41.7518C31.2831 41.6152 30.9791 41.4711 30.675 41.3194C30.5914 41.2815 30.5458 41.2815 30.4926 41.3346C29.8238 41.9035 29.1626 42.4572 28.5014 43.011C28.4406 43.0565 28.4254 43.1096 28.4558 43.2006C28.5698 43.5192 28.6914 43.8302 28.7902 44.1488C28.889 44.4674 28.7598 44.7556 28.4786 44.8466C28.1974 44.9376 27.863 44.7935 27.6578 44.5128C27.6046 44.4446 27.5742 44.3611 27.5438 44.2777C27.0421 42.8516 26.5329 41.4256 26.0313 39.9995C25.8717 39.552 25.7197 39.112 25.5677 38.6645C25.4765 38.399 25.5145 38.1563 25.7273 37.9818C25.8869 37.8529 26.1149 37.8377 26.3809 37.9666C27.6882 38.5886 29.003 39.1955 30.333 39.8175C30.8803 40.0754 31.4275 40.3257 31.9747 40.5912C32.4307 40.8112 32.5979 41.3118 32.3395 41.638H32.3319Z" fill="url(#paint12_linear_7027_5082)"/>
<path d="M29.8681 23.2501L34.7246 28.4993C36.6399 30.5701 36.6855 33.5739 34.8386 35.1441L34.7018 35.2579L29.6325 29.7508C28.0364 28.0138 25.5207 27.7179 24.0539 29.0757L15.3668 37.0784L15.1464 36.8356C13.406 34.9013 13.254 32.1099 14.8272 30.608L23.2483 22.5675C24.9811 20.9138 27.9604 21.2097 29.8453 23.2501H29.8681Z" fill="url(#paint13_linear_7027_5082)"/>
<path d="M27.8773 41.72L29.1162 40.6733C28.4701 40.3698 27.8393 40.0664 27.1857 39.763C27.4213 40.4305 27.6417 41.0677 27.8773 41.72ZM24.404 30.6226L15.1849 39.0348C14.1817 39.9526 14.2729 41.7049 15.3826 42.9489L22.0784 50.4205C22.9296 51.3687 24.1608 51.7935 25.1716 51.5659C25.4985 51.4901 25.8025 51.3535 26.0609 51.1336L27.2009 50.2081L28.7589 51.9376C29.7166 53.0071 31.3202 52.6582 31.2822 51.3763L31.1454 46.9919L35.8652 43.1461C36.1388 42.9261 36.3516 42.6455 36.496 42.3345C36.9596 41.3332 36.724 40.0057 35.7967 38.9893L28.5841 31.1384C27.3909 29.8337 25.4984 29.6062 24.404 30.6074V30.6226ZM25.5365 42.9185C25.392 42.8958 25.24 42.8654 25.0804 42.8351C25.1184 43.0096 25.1488 43.1689 25.1792 43.3357C25.3388 44.1474 25.3996 44.9666 25.3844 45.7631C25.3844 46.1423 25.1184 46.3623 24.746 46.2865C24.3736 46.2106 24.1076 45.8844 24.1076 45.49C24.1228 44.5267 24.0012 43.5557 23.7504 42.5696C23.7276 42.4862 23.6896 42.4483 23.6136 42.4179C23.0588 42.1904 22.4964 41.9779 21.9415 41.7352C21.5691 41.5683 21.3715 41.1815 21.4703 40.8629C21.5691 40.5443 21.9111 40.4381 22.2912 40.605C22.5952 40.7415 22.8992 40.8781 23.2412 41.0222C22.9752 40.3547 22.6712 39.7554 22.314 39.141C22.2608 39.1865 22.2152 39.2169 22.1696 39.2548L20.4063 40.8098C20.1783 41.0146 19.8819 41.007 19.6159 40.8098C19.2587 40.5443 19.1751 40.0664 19.4487 39.8161L20.6115 38.7845C20.6875 38.7188 20.6824 38.6404 20.5963 38.5494L20.2695 38.1852C20.0035 37.8894 19.9807 37.5026 20.2163 37.2902C20.4443 37.0778 20.8319 37.1233 21.1055 37.4115C21.2651 37.5784 21.4095 37.7453 21.5767 37.9273L22.846 36.7895C23.1196 36.5544 23.5072 36.5999 23.7808 36.9033C24.0544 37.2067 24.0468 37.5936 23.7884 37.8287C23.6212 37.9804 23.4464 38.1246 23.2716 38.2763C23.2108 38.3294 23.1956 38.3749 23.2564 38.4583C23.834 39.3913 24.2976 40.3547 24.6396 41.3559C24.67 41.447 24.708 41.4849 24.7992 41.5001C25.0424 41.5532 25.2856 41.5987 25.5365 41.6518C25.9393 41.7352 26.2205 42.0462 26.2205 42.4179C26.2205 42.7744 25.9317 42.9716 25.5289 42.9034L25.5365 42.9185ZM32.3006 41.7049C32.141 41.9097 31.8446 41.9552 31.5482 41.8187C31.2518 41.6821 30.9478 41.538 30.6438 41.3863C30.5602 41.3484 30.5146 41.3484 30.4614 41.4015C29.7926 41.9704 29.1314 42.5241 28.4701 43.0778C28.4093 43.1234 28.3941 43.1765 28.4245 43.2675C28.5385 43.5861 28.6601 43.8971 28.7589 44.2157C28.8577 44.5342 28.7285 44.8225 28.4473 44.9135C28.1661 45.0045 27.8317 44.8604 27.6265 44.5797C27.5733 44.5115 27.5429 44.428 27.5125 44.3446C27.0109 42.9185 26.5017 41.4925 26.0001 40.0664C25.8405 39.6189 25.6885 39.1789 25.5365 38.7314C25.4452 38.4659 25.4832 38.2232 25.6961 38.0487C25.8557 37.9198 26.0837 37.9046 26.3497 38.0335C27.6569 38.6555 28.9718 39.2624 30.3018 39.8844C30.849 40.1423 31.3962 40.3926 31.9434 40.6581C32.3995 40.8781 32.5667 41.3787 32.3082 41.7049H32.3006Z" fill="url(#paint14_linear_7027_5082)"/>
<path d="M29.8407 23.3195L34.6973 28.5686C36.6125 30.6394 36.6581 33.6432 34.8113 35.2134L34.6745 35.3272L29.6051 29.8202C28.0091 28.0831 25.4934 27.7873 24.0265 29.1451L15.3395 37.1477L15.1191 36.9049C13.3786 34.9707 13.2266 32.1792 14.7999 30.6773L23.2209 22.6368C24.9538 20.9832 27.9331 21.279 29.8179 23.3195H29.8407Z" fill="url(#paint15_linear_7027_5082)"/>
<path d="M27.8569 41.7896L29.0957 40.7428C28.4497 40.4394 27.8189 40.136 27.1653 39.8326C27.4009 40.5001 27.6213 41.1373 27.8569 41.7896ZM24.3836 30.6922L15.1645 39.1044C14.1613 40.0222 14.2525 41.7745 15.3621 43.0185L22.0579 50.4901C22.9091 51.4383 24.1404 51.8631 25.1512 51.6355C25.478 51.5597 25.782 51.4231 26.0404 51.2031L27.1805 50.2777L28.7385 52.0072C29.6961 53.0767 31.2998 52.7278 31.2618 51.4459L31.125 47.0615L35.8447 43.2157C36.1183 42.9957 36.3311 42.715 36.4755 42.404C36.9391 41.4028 36.7035 40.0753 35.7763 39.0589L28.5637 31.208C27.3705 29.9033 25.478 29.6757 24.3836 30.677V30.6922ZM25.516 42.9881C25.3716 42.9654 25.2196 42.935 25.06 42.9047C25.098 43.0792 25.1284 43.2384 25.1588 43.4053C25.3184 44.217 25.3792 45.0362 25.364 45.8327C25.364 46.2119 25.098 46.4319 24.7256 46.356C24.3532 46.2802 24.0872 45.954 24.0872 45.5596C24.1024 44.5962 23.9808 43.6253 23.73 42.6392C23.7072 42.5558 23.6692 42.5178 23.5931 42.4875C23.0383 42.2599 22.4759 42.0475 21.9211 41.8048C21.5487 41.6379 21.3511 41.2511 21.4499 40.9325C21.5487 40.6139 21.8907 40.5077 22.2707 40.6746C22.5747 40.8111 22.8787 40.9477 23.2207 41.0918C22.9547 40.4243 22.6507 39.825 22.2935 39.2106C22.2403 39.2561 22.1947 39.2864 22.1491 39.3244L20.3859 40.8794C20.1578 41.0842 19.8614 41.0766 19.5954 40.8794C19.2382 40.6139 19.1546 40.136 19.4282 39.8857L20.5911 38.8541C20.6671 38.7883 20.662 38.71 20.5759 38.6189L20.249 38.2548C19.983 37.959 19.9602 37.5721 20.1958 37.3598C20.4239 37.1474 20.8115 37.1929 21.0851 37.4811C21.2447 37.648 21.3891 37.8149 21.5563 37.9969L22.8255 36.8591C23.0991 36.624 23.4867 36.6695 23.7604 36.9729C24.034 37.2763 24.0264 37.6632 23.768 37.8983C23.6007 38.05 23.4259 38.1941 23.2511 38.3458C23.1903 38.3989 23.1751 38.4445 23.2359 38.5279C23.8136 39.4609 24.2772 40.4242 24.6192 41.4255C24.6496 41.5165 24.6876 41.5545 24.7788 41.5696C25.022 41.6227 25.2652 41.6683 25.516 41.7214C25.9188 41.8048 26.2 42.1158 26.2 42.4875C26.2 42.844 25.9112 43.0412 25.5084 42.973L25.516 42.9881ZM32.2802 41.7745C32.1206 41.9793 31.8242 42.0248 31.5278 41.8882C31.2314 41.7517 30.9274 41.6076 30.6234 41.4559C30.5397 41.4179 30.4941 41.418 30.4409 41.4711C29.7721 42.04 29.1109 42.5937 28.4497 43.1474C28.3889 43.1929 28.3737 43.246 28.4041 43.3371C28.5181 43.6556 28.6397 43.9667 28.7385 44.2852C28.8373 44.6038 28.7081 44.8921 28.4269 44.9831C28.1457 45.0741 27.8113 44.93 27.6061 44.6493C27.5529 44.5811 27.5225 44.4976 27.4921 44.4142C26.9904 42.9881 26.4812 41.5621 25.9796 40.136C25.82 39.6885 25.668 39.2485 25.516 38.801C25.4248 38.5355 25.4628 38.2928 25.6756 38.1183C25.8352 37.9893 26.0632 37.9742 26.3292 38.1031C27.6365 38.7251 28.9513 39.332 30.2813 39.954C30.8286 40.2119 31.3758 40.4622 31.923 40.7277C32.379 40.9477 32.5462 41.4483 32.2878 41.7745H32.2802Z" fill="url(#paint16_linear_7027_5082)"/>
<path d="M29.809 23.3871L34.6656 28.6362C36.5808 30.707 36.6264 33.7109 34.7796 35.281L34.6428 35.3948L29.5734 29.8878C27.9774 28.1507 25.4617 27.8549 23.9949 29.2127L15.3078 37.2153L15.0874 36.9726C13.347 35.0383 13.195 32.2469 14.7682 30.745L23.1892 22.7044C24.9221 21.0508 27.9014 21.3466 29.7862 23.3871H29.809Z" fill="url(#paint17_linear_7027_5082)"/>
<path d="M27.8252 41.8572L29.064 40.8105C28.418 40.507 27.7872 40.2036 27.1336 39.9002C27.3692 40.5677 27.5896 41.2049 27.8252 41.8572ZM24.3519 30.7598L15.1328 39.172C14.1296 40.0898 14.2208 41.8421 15.3304 43.0861L22.0262 50.5577C22.8774 51.5059 24.1087 51.9307 25.1195 51.7031C25.4463 51.6273 25.7503 51.4907 26.0087 51.2707L27.1488 50.3453L28.7068 52.0748C29.6644 53.1443 31.2681 52.7954 31.2301 51.5135L31.0933 47.1291L35.813 43.2833C36.0866 43.0633 36.2994 42.7827 36.4438 42.4717C36.9075 41.4704 36.6718 40.1429 35.7446 39.1265L28.532 31.2756C27.3388 29.9709 25.4463 29.7433 24.3519 30.7446V30.7598ZM25.4843 43.0558C25.3399 43.033 25.1879 43.0026 25.0283 42.9723C25.0663 43.1468 25.0967 43.3061 25.1271 43.4729C25.2867 44.2846 25.3475 45.1038 25.3323 45.9003C25.3323 46.2796 25.0663 46.4995 24.6939 46.4237C24.3215 46.3478 24.0555 46.0216 24.0555 45.6272C24.0707 44.6639 23.9491 43.6929 23.6983 42.7068C23.6755 42.6234 23.6375 42.5855 23.5615 42.5551C23.0067 42.3276 22.4442 42.1152 21.8894 41.8724C21.517 41.7056 21.3194 41.3187 21.4182 41.0001C21.517 40.6815 21.859 40.5753 22.239 40.7422C22.543 40.8787 22.8471 41.0153 23.1891 41.1594C22.9231 40.4919 22.619 39.8926 22.2618 39.2782C22.2086 39.3237 22.163 39.3541 22.1174 39.392L20.3542 40.947C20.1262 41.1518 19.8298 41.1442 19.5638 40.947C19.2065 40.6815 19.1229 40.2036 19.3965 39.9533L20.5594 38.9217C20.6354 38.856 20.6303 38.7776 20.5442 38.6866L20.2174 38.3224C19.9514 38.0266 19.9286 37.6398 20.1642 37.4274C20.3922 37.215 20.7798 37.2605 21.0534 37.5487C21.213 37.7156 21.3574 37.8825 21.5246 38.0645L22.7938 36.9267C23.0675 36.6916 23.4551 36.7371 23.7287 37.0405C24.0023 37.3439 23.9947 37.7308 23.7363 37.9659C23.5691 38.1176 23.3943 38.2618 23.2195 38.4135C23.1587 38.4666 23.1435 38.5121 23.2043 38.5955C23.7819 39.5285 24.2455 40.4919 24.5875 41.4932C24.6179 41.5842 24.6559 41.6221 24.7471 41.6373C24.9903 41.6904 25.2335 41.7359 25.4843 41.789C25.8871 41.8724 26.1683 42.1834 26.1683 42.5551C26.1683 42.9116 25.8795 43.1088 25.4767 43.0406L25.4843 43.0558ZM32.2485 41.8421C32.0889 42.0469 31.7925 42.0924 31.4961 41.9559C31.1997 41.8193 30.8957 41.6752 30.5917 41.5235C30.5081 41.4856 30.4625 41.4856 30.4093 41.5387C29.7405 42.1076 29.0792 42.6613 28.418 43.215C28.3572 43.2606 28.342 43.3137 28.3724 43.4047C28.4864 43.7233 28.608 44.0343 28.7068 44.3529C28.8056 44.6714 28.6764 44.9597 28.3952 45.0507C28.114 45.1417 27.7796 44.9976 27.5744 44.717C27.5212 44.6487 27.4908 44.5652 27.4604 44.4818C26.9588 43.0557 26.4496 41.6297 25.9479 40.2036C25.7883 39.7561 25.6363 39.3161 25.4843 38.8686C25.3931 38.6031 25.4311 38.3604 25.6439 38.1859C25.8035 38.057 26.0315 38.0418 26.2976 38.1707C27.6048 38.7928 28.9196 39.3996 30.2497 40.0216C30.7969 40.2795 31.3441 40.5298 31.8913 40.7953C32.3473 41.0153 32.5145 41.5159 32.2561 41.8421H32.2485Z" fill="url(#paint18_linear_7027_5082)"/>
<path d="M29.7846 23.456L34.6412 28.7051C36.5564 30.7759 36.602 33.7797 34.7552 35.3499L34.6184 35.4637L29.549 29.9566C27.953 28.2196 25.4373 27.9238 23.9705 29.2816L15.2834 37.2842L15.063 37.0414C13.3225 35.1071 13.1705 32.3157 14.7438 30.8138L23.1648 22.7733C24.8977 21.1196 27.877 21.4155 29.7618 23.456H29.7846Z" fill="url(#paint19_linear_7027_5082)"/>
<path d="M27.7939 41.9261L29.0328 40.8793C28.3868 40.5759 27.7559 40.2725 27.1023 39.9691C27.3379 40.6366 27.5583 41.2737 27.7939 41.9261ZM24.3206 30.8286L15.1016 39.2409C14.0983 40.1587 14.1895 41.9109 15.2992 43.1549L21.995 50.6266C22.8462 51.5747 24.0774 51.9995 25.0883 51.772C25.4151 51.6961 25.7191 51.5596 25.9775 51.3396L27.1175 50.4142L28.6756 52.1436C29.6332 53.2132 31.2368 52.8643 31.1988 51.5823L31.062 47.198L35.7818 43.3522C36.0554 43.1322 36.2682 42.8515 36.4126 42.5405C36.8762 41.5392 36.6406 40.2118 35.7134 39.1954L28.5008 31.3445C27.3075 30.0398 25.4151 29.8122 24.3206 30.8135V30.8286ZM25.4607 43.1246C25.3163 43.1018 25.1643 43.0715 25.0047 43.0412C25.0427 43.2156 25.0731 43.3749 25.1035 43.5418C25.2631 44.3534 25.3239 45.1727 25.3087 45.9691C25.3087 46.3484 25.0427 46.5684 24.6703 46.4925C24.2978 46.4167 24.0318 46.0905 24.0318 45.696C24.047 44.7327 23.9254 43.7618 23.6746 42.7757C23.6518 42.6922 23.6138 42.6543 23.5378 42.624C22.983 42.3964 22.4206 42.184 21.8658 41.9413C21.4934 41.7744 21.2958 41.3875 21.3946 41.0689C21.4934 40.7504 21.8354 40.6442 22.2154 40.811C22.5194 40.9476 22.8234 41.0841 23.1654 41.2282C22.8994 40.5607 22.5954 39.9615 22.2382 39.3471C22.185 39.3926 22.1394 39.4229 22.0938 39.4608L20.3305 41.0159C20.1025 41.2207 19.8061 41.2131 19.5401 41.0159C19.1829 40.7504 19.0993 40.2725 19.3729 40.0222L20.5357 38.9905C20.6117 38.9248 20.6067 38.8464 20.5205 38.7554L20.1937 38.3913C19.9277 38.0955 19.9049 37.7086 20.1405 37.4962C20.3685 37.2838 20.7561 37.3293 21.0297 37.6176C21.1894 37.7845 21.3338 37.9513 21.501 38.1334L22.7702 36.9956C23.0438 36.7604 23.4314 36.806 23.705 37.1094C23.9786 37.4128 23.971 37.7996 23.7126 38.0348C23.5454 38.1865 23.3706 38.3306 23.1958 38.4823C23.135 38.5354 23.1198 38.5809 23.1806 38.6644C23.7582 39.5974 24.2218 40.5607 24.5638 41.562C24.5943 41.653 24.6323 41.691 24.7235 41.7061C24.9667 41.7592 25.2099 41.8047 25.4607 41.8578C25.8635 41.9413 26.1447 42.2523 26.1447 42.624C26.1447 42.9805 25.8559 43.1777 25.4531 43.1094L25.4607 43.1246ZM32.2249 41.9109C32.0653 42.1157 31.7689 42.1612 31.4725 42.0247C31.176 41.8882 30.872 41.744 30.568 41.5923C30.4844 41.5544 30.4388 41.5544 30.3856 41.6075C29.7168 42.1764 29.0556 42.7302 28.3944 43.2839C28.3336 43.3294 28.3184 43.3825 28.3488 43.4735C28.4628 43.7921 28.5844 44.1031 28.6832 44.4217C28.782 44.7403 28.6528 45.0285 28.3716 45.1196C28.0904 45.2106 27.7559 45.0665 27.5507 44.7858C27.4975 44.7175 27.4671 44.6341 27.4367 44.5507C26.9351 43.1246 26.4259 41.6985 25.9243 40.2725C25.7647 39.8249 25.6127 39.385 25.4607 38.9374C25.3695 38.672 25.4075 38.4292 25.6203 38.2548C25.7799 38.1258 26.0079 38.1106 26.2739 38.2396C27.5811 38.8616 28.896 39.4684 30.226 40.0904C30.7732 40.3483 31.3204 40.5987 31.8677 40.8641C32.3237 41.0841 32.4909 41.5848 32.2325 41.9109H32.2249Z" fill="url(#paint20_linear_7027_5082)"/>
<path d="M29.7559 23.5241L34.6124 28.7732C36.5277 30.844 36.5733 33.8478 34.7264 35.418L34.5896 35.5318L29.5203 30.0248C27.9242 28.2877 25.4085 27.9919 23.9417 29.3497L15.2547 37.3523L15.0342 37.1096C13.2938 35.1753 13.1418 32.3838 14.715 30.8819L23.1361 22.8414C24.8689 21.1877 27.8482 21.4836 29.7331 23.5241H29.7559Z" fill="url(#paint21_linear_7027_5082)"/>
<path d="M27.772 41.9942L29.0109 40.9474C28.3648 40.644 27.734 40.3406 27.0804 40.0372C27.316 40.7047 27.5364 41.3419 27.772 41.9942ZM24.2987 30.8968L15.0797 39.309C14.0764 40.2268 14.1676 41.9791 15.2773 43.2231L21.9731 50.6947C22.8243 51.6429 24.0555 52.0676 25.0664 51.8401C25.3932 51.7642 25.6972 51.6277 25.9556 51.4077L27.0956 50.4823L28.6537 52.2118C29.6113 53.2813 31.2149 52.9324 31.1769 51.6504L31.0401 47.2661L35.7599 43.4203C36.0335 43.2003 36.2463 42.9197 36.3907 42.6087C36.8543 41.6074 36.6187 40.2799 35.6915 39.2635L28.4789 31.4126C27.2856 30.1079 25.3932 29.8803 24.2987 30.8816V30.8968ZM25.4312 43.1927C25.2868 43.17 25.1348 43.1396 24.9752 43.1093C25.0132 43.2837 25.0436 43.443 25.074 43.6099C25.2336 44.4215 25.2944 45.2408 25.2792 46.0372C25.2792 46.4165 25.0132 46.6365 24.6407 46.5606C24.2683 46.4848 24.0023 46.1586 24.0023 45.7642C24.0175 44.8008 23.8959 43.8299 23.6451 42.8438C23.6223 42.7604 23.5843 42.7224 23.5083 42.6921C22.9535 42.4645 22.3911 42.2521 21.8363 42.0094C21.4638 41.8425 21.2662 41.4557 21.365 41.1371C21.4638 40.8185 21.8059 40.7123 22.1859 40.8792C22.4899 41.0157 22.7939 41.1522 23.1359 41.2964C22.8699 40.6288 22.5659 40.0296 22.2087 39.4152C22.1555 39.4607 22.1099 39.491 22.0643 39.529L20.301 41.084C20.073 41.2888 19.7766 41.2812 19.5106 41.084C19.1534 40.8185 19.0698 40.3406 19.3434 40.0903L20.5062 39.0587C20.5822 38.9929 20.5772 38.9145 20.491 38.8235L20.1642 38.4594C19.8982 38.1636 19.8754 37.7767 20.111 37.5643C20.339 37.3519 20.7266 37.3975 21.0002 37.6857C21.1598 37.8526 21.3042 38.0195 21.4714 38.2015L22.7407 37.0637C23.0143 36.8285 23.4019 36.8741 23.6755 37.1775C23.9491 37.4809 23.9415 37.8678 23.6831 38.1029C23.5159 38.2546 23.3411 38.3987 23.1663 38.5504C23.1055 38.6035 23.0903 38.6491 23.1511 38.7325C23.7287 39.6655 24.1923 40.6289 24.5343 41.6301C24.5647 41.7212 24.6027 41.7591 24.6939 41.7742C24.9372 41.8273 25.1804 41.8728 25.4312 41.9259C25.834 42.0094 26.1152 42.3204 26.1152 42.6921C26.1152 43.0486 25.8264 43.2458 25.4236 43.1776L25.4312 43.1927ZM32.1954 41.979C32.0358 42.1839 31.7393 42.2294 31.4429 42.0928C31.1465 41.9563 30.8425 41.8122 30.5385 41.6605C30.4549 41.6225 30.4093 41.6225 30.3561 41.6756C29.6873 42.2445 29.0261 42.7983 28.3648 43.352C28.304 43.3975 28.2888 43.4506 28.3192 43.5416C28.4333 43.8602 28.5549 44.1712 28.6537 44.4898C28.7525 44.8084 28.6233 45.0967 28.342 45.1877C28.0608 45.2787 27.7264 45.1346 27.5212 44.8539C27.468 44.7857 27.4376 44.7022 27.4072 44.6188C26.9056 43.1927 26.3964 41.7667 25.8948 40.3406C25.7352 39.8931 25.5832 39.4531 25.4312 39.0056C25.34 38.7401 25.378 38.4973 25.5908 38.3229C25.7504 38.1939 25.9784 38.1788 26.2444 38.3077C27.5516 38.9297 28.8665 39.5365 30.1965 40.1586C30.7437 40.4165 31.2909 40.6668 31.8381 40.9323C32.2942 41.1522 32.4614 41.6529 32.203 41.979H32.1954Z" fill="url(#paint22_linear_7027_5082)"/>
<path d="M29.7285 23.5922L34.5851 28.8413C36.5003 30.9121 36.5459 33.9159 34.6991 35.4861L34.5623 35.5999L29.4929 30.0929C27.8969 28.3558 25.3812 28.06 23.9144 29.4178L15.2273 37.4204L15.0069 37.1777C13.2665 35.2434 13.1144 32.4519 14.6877 30.95L23.1087 22.9095C24.8416 21.2559 27.8209 21.5517 29.7057 23.5922H29.7285Z" fill="url(#paint23_linear_7027_5082)"/>
<path d="M27.7447 42.0623L28.9835 41.0155C28.3375 40.7121 27.7067 40.4087 27.0531 40.1053C27.2887 40.7728 27.5091 41.41 27.7447 42.0623ZM24.2714 30.9724L15.0523 39.3847C14.0491 40.3025 14.1403 42.0547 15.2499 43.2987L21.9457 50.7704C22.7969 51.7185 24.0282 52.1433 25.039 51.9158C25.3658 51.8399 25.6698 51.7034 25.9282 51.4834L27.0683 50.558L28.6263 52.2874C29.5839 53.357 31.1876 53.0081 31.1496 51.7261L31.0128 47.3418L35.7325 43.496C36.0061 43.276 36.2189 42.9953 36.3633 42.6843C36.827 41.683 36.5913 40.3556 35.6641 39.3391L28.4515 31.4883C27.2583 30.1836 25.3658 29.956 24.2714 30.9573V30.9724ZM25.4038 43.2608C25.2594 43.2381 25.1074 43.2077 24.9478 43.1774C24.9858 43.3518 25.0162 43.5111 25.0466 43.678C25.2062 44.4896 25.267 45.3089 25.2518 46.1053C25.2518 46.4846 24.9858 46.7046 24.6134 46.6287C24.241 46.5529 23.975 46.2267 23.975 45.8323C23.9902 44.8689 23.8686 43.898 23.6178 42.9119C23.595 42.8284 23.557 42.7905 23.481 42.7602C22.9261 42.5326 22.3637 42.3202 21.8089 42.0775C21.4365 41.9106 21.2389 41.5238 21.3377 41.2052C21.4365 40.8866 21.7785 40.7804 22.1585 40.9473C22.4625 41.0838 22.7665 41.2203 23.1086 41.3645C22.8425 40.6969 22.5385 40.0977 22.1813 39.4833C22.1281 39.5288 22.0825 39.5591 22.0369 39.5971L20.2737 41.1521C20.0457 41.3569 19.7493 41.3493 19.4832 41.1521C19.126 40.8866 19.0424 40.4087 19.316 40.1584L20.4789 39.1268C20.5549 39.061 20.5498 38.9826 20.4637 38.8916L20.1369 38.5275C19.8709 38.2317 19.8481 37.8448 20.0837 37.6324C20.3117 37.42 20.6993 37.4655 20.9729 37.7538C21.1325 37.9207 21.2769 38.0876 21.4441 38.2696L22.7133 37.1318C22.987 36.8967 23.3746 36.9422 23.6482 37.2456C23.9218 37.549 23.9142 37.9359 23.6558 38.171C23.4886 38.3227 23.3138 38.4668 23.139 38.6185C23.0782 38.6716 23.063 38.7171 23.1238 38.8006C23.7014 39.7336 24.165 40.6969 24.507 41.6982C24.5374 41.7892 24.5754 41.8272 24.6666 41.8423C24.9098 41.8954 25.153 41.9409 25.4038 41.994C25.8066 42.0775 26.0878 42.3885 26.0878 42.7602C26.0878 43.1167 25.799 43.3139 25.3962 43.2456L25.4038 43.2608ZM32.168 42.0471C32.0084 42.2519 31.712 42.2975 31.4156 42.1609C31.1192 42.0244 30.8152 41.8803 30.5112 41.7286C30.4276 41.6906 30.382 41.6906 30.3288 41.7437C29.6599 42.3126 28.9987 42.8664 28.3375 43.4201C28.2767 43.4656 28.2615 43.5187 28.2919 43.6097C28.4059 43.9283 28.5275 44.2393 28.6263 44.5579C28.7251 44.8765 28.5959 45.1648 28.3147 45.2558C28.0335 45.3468 27.6991 45.2027 27.4939 44.922C27.4407 44.8537 27.4103 44.7703 27.3799 44.6869C26.8783 43.2608 26.369 41.8347 25.8674 40.4087C25.7078 39.9611 25.5558 39.5212 25.4038 39.0737C25.3126 38.8082 25.3506 38.5654 25.5634 38.391C25.723 38.262 25.951 38.2468 26.217 38.3758C27.5243 38.9978 28.8391 39.6046 30.1692 40.2266C30.7164 40.4845 31.2636 40.7349 31.8108 41.0003C32.2668 41.2203 32.434 41.721 32.1756 42.0471H32.168Z" fill="url(#paint24_linear_7027_5082)"/>
<path d="M29.7012 23.6598L34.5578 28.9089C36.473 30.9797 36.5186 33.9835 34.6718 35.5537L34.535 35.6675L29.4656 30.1605C27.8696 28.4234 25.3539 28.1276 23.8871 29.4854L15.2 37.488L14.9796 37.2453C13.2392 35.311 13.0872 32.5196 14.6604 31.0176L23.0815 22.9771C24.8143 21.3235 27.7936 21.6193 29.6784 23.6598H29.7012Z" fill="url(#paint25_linear_7027_5082)"/>
<path d="M27.7182 42.1375L28.957 41.0908C28.311 40.7873 27.6802 40.4839 27.0266 40.1805C27.2622 40.848 27.4826 41.4852 27.7182 42.1375ZM24.2373 31.0401L15.0182 39.4523C14.015 40.3701 14.1062 42.1224 15.2158 43.3664L21.9116 50.838C22.7628 51.7862 23.9941 52.211 25.0049 51.9834C25.3317 51.9075 25.6357 51.771 25.8941 51.551L27.0341 50.6256L28.5922 52.3551C29.5498 53.4246 31.1535 53.0757 31.1155 51.7938L30.9787 47.4094L35.6984 43.5636C35.972 43.3436 36.1848 43.0629 36.3292 42.7519C36.7928 41.7507 36.5572 40.4232 35.63 39.4068L28.4174 31.5559C27.2242 30.2512 25.3317 30.0236 24.2373 31.0249V31.0401ZM25.3773 43.3284C25.2329 43.3057 25.0809 43.2753 24.9213 43.245C24.9593 43.4195 24.9897 43.5788 25.0201 43.7456C25.1797 44.5573 25.2405 45.3765 25.2253 46.173C25.2253 46.5522 24.9593 46.7722 24.5869 46.6964C24.2145 46.6205 23.9485 46.2943 23.9485 45.8999C23.9637 44.9366 23.8421 43.9656 23.5913 42.9795C23.5684 42.8961 23.5304 42.8581 23.4544 42.8278C22.8996 42.6002 22.3372 42.3878 21.7824 42.1451C21.41 41.9782 21.2124 41.5914 21.3112 41.2728C21.41 40.9542 21.752 40.848 22.132 41.0149C22.436 41.1514 22.74 41.288 23.082 41.4321C22.816 40.7646 22.512 40.1653 22.1548 39.5509C22.1016 39.5964 22.056 39.6268 22.0104 39.6647L20.2472 41.2197C20.0191 41.4245 19.7227 41.4169 19.4567 41.2197C19.0995 40.9542 19.0159 40.4763 19.2895 40.226L20.4524 39.1944C20.5284 39.1287 20.5233 39.0503 20.4372 38.9592L20.1104 38.5951C19.8443 38.2993 19.8215 37.9125 20.0571 37.7001C20.2852 37.4877 20.6728 37.5332 20.9464 37.8214C21.106 37.9883 21.2504 38.1552 21.4176 38.3372L22.6868 37.1994C22.9604 36.9643 23.348 37.0098 23.6217 37.3132C23.8953 37.6166 23.8877 38.0035 23.6293 38.2386C23.462 38.3903 23.2872 38.5345 23.1124 38.6862C23.0516 38.7393 23.0364 38.7848 23.0972 38.8682C23.6749 39.8012 24.1385 40.7646 24.4805 41.7658C24.5109 41.8569 24.5489 41.8948 24.6401 41.91C24.8833 41.9631 25.1265 42.0086 25.3773 42.0617C25.7801 42.1451 26.0613 42.4561 26.0613 42.8278C26.0613 43.1843 25.7725 43.3815 25.3697 43.3133L25.3773 43.3284ZM32.1415 42.1148C31.9819 42.3196 31.6855 42.3651 31.3891 42.2286C31.0927 42.092 30.7887 41.9479 30.4846 41.7962C30.401 41.7583 30.3554 41.7583 30.3022 41.8114C29.6334 42.3803 28.9722 42.934 28.311 43.4877C28.2502 43.5332 28.235 43.5863 28.2654 43.6774C28.3794 43.9959 28.501 44.3069 28.5998 44.6255C28.6986 44.9441 28.5694 45.2324 28.2882 45.3234C28.007 45.4144 27.6726 45.2703 27.4674 44.9896C27.4142 44.9214 27.3838 44.8379 27.3534 44.7545C26.8517 43.3284 26.3425 41.9024 25.8409 40.4763C25.6813 40.0288 25.5293 39.5888 25.3773 39.1413C25.2861 38.8758 25.3241 38.6331 25.5369 38.4586C25.6965 38.3297 25.9245 38.3145 26.1905 38.4434C27.4978 39.0654 28.8126 39.6723 30.1426 40.2943C30.6899 40.5522 31.2371 40.8025 31.7843 41.068C32.2403 41.288 32.4075 41.7886 32.1491 42.1148H32.1415Z" fill="url(#paint26_linear_7027_5082)"/>
<path d="M29.669 23.7277L34.5256 28.9768C36.4408 31.0476 36.4864 34.0514 34.6396 35.6216L34.5028 35.7354L29.4334 30.2284C27.8374 28.4913 25.3217 28.1955 23.8549 29.5533L15.1678 37.5559L14.9474 37.3132C13.2069 35.3789 13.0549 32.5874 14.6282 31.0855L23.0492 23.045C24.7821 21.3914 27.7614 21.6872 29.6462 23.7277H29.669Z" fill="url(#paint27_linear_7027_5082)"/>
<path d="M27.6852 42.2054L28.924 41.1586C28.278 40.8552 27.6472 40.5518 26.9936 40.2484C27.2292 40.9159 27.4496 41.553 27.6852 42.2054ZM24.2119 31.108L14.9928 39.5202C13.9896 40.438 14.0808 42.1902 15.1904 43.4342L21.8862 50.9059C22.7374 51.854 23.9687 52.2788 24.9795 52.0513C25.3063 51.9754 25.6103 51.8389 25.8687 51.6189L27.0088 50.6935L28.5668 52.4229C29.5244 53.4925 31.1281 53.1436 31.0901 51.8616L30.9533 47.4773L35.673 43.6315C35.9466 43.4115 36.1594 43.1308 36.3038 42.8198C36.7674 41.8186 36.5318 40.4911 35.6046 39.4747L28.392 31.6238C27.1988 30.3191 25.3063 30.0915 24.2119 31.0928V31.108ZM25.3443 43.3963C25.1999 43.3736 25.0479 43.3432 24.8883 43.3129C24.9263 43.4873 24.9567 43.6466 24.9871 43.8135C25.1467 44.6252 25.2075 45.4444 25.1923 46.2408C25.1923 46.6201 24.9263 46.8401 24.5539 46.7642C24.1815 46.6884 23.9155 46.3622 23.9155 45.9678C23.9307 45.0044 23.8091 44.0335 23.5583 43.0474C23.5355 42.9639 23.4975 42.926 23.4215 42.8957C22.8666 42.6681 22.3042 42.4557 21.7494 42.213C21.377 42.0461 21.1794 41.6593 21.2782 41.3407C21.377 41.0221 21.719 40.9159 22.099 41.0828C22.403 41.2193 22.707 41.3558 23.049 41.5C22.783 40.8324 22.479 40.2332 22.1218 39.6188C22.0686 39.6643 22.023 39.6946 21.9774 39.7326L20.2142 41.2876C19.9862 41.4924 19.6897 41.4848 19.4237 41.2876C19.0665 41.0221 18.9829 40.5442 19.2565 40.2939L20.4194 39.2623C20.4954 39.1965 20.4903 39.1182 20.4042 39.0271L20.0774 38.663C19.8114 38.3672 19.7886 37.9803 20.0242 37.7679C20.2522 37.5556 20.6398 37.6011 20.9134 37.8893C21.073 38.0562 21.2174 38.2231 21.3846 38.4051L22.6538 37.2673C22.9274 37.0322 23.3151 37.0777 23.5887 37.3811C23.8623 37.6845 23.8547 38.0714 23.5963 38.3065C23.4291 38.4582 23.2543 38.6023 23.0794 38.754C23.0186 38.8071 23.0034 38.8526 23.0642 38.9361C23.6419 39.8691 24.1055 40.8324 24.4475 41.8337C24.4779 41.9247 24.5159 41.9627 24.6071 41.9778C24.8503 42.0309 25.0935 42.0765 25.3443 42.1296C25.7471 42.213 26.0283 42.524 26.0283 42.8957C26.0283 43.2522 25.7395 43.4494 25.3367 43.3811L25.3443 43.3963ZM32.1085 42.1826C31.9489 42.3874 31.6525 42.433 31.3561 42.2964C31.0597 42.1599 30.7557 42.0158 30.4517 41.8641C30.3681 41.8261 30.3225 41.8261 30.2693 41.8792C29.6004 42.4481 28.9392 43.0019 28.278 43.5556C28.2172 43.6011 28.202 43.6542 28.2324 43.7453C28.3464 44.0638 28.468 44.3748 28.5668 44.6934C28.6656 45.012 28.5364 45.3003 28.2552 45.3913C27.974 45.4823 27.6396 45.3382 27.4344 45.0575C27.3812 44.9892 27.3508 44.9058 27.3204 44.8224C26.8188 43.3963 26.3095 41.9703 25.8079 40.5442C25.6483 40.0967 25.4963 39.6567 25.3443 39.2092C25.2531 38.9437 25.2911 38.7009 25.5039 38.5265C25.6635 38.3975 25.8915 38.3823 26.1575 38.5113C27.4648 39.1333 28.7796 39.7401 30.1097 40.3621C30.6569 40.62 31.2041 40.8704 31.7513 41.1359C32.2073 41.3558 32.3745 41.8565 32.1161 42.1826H32.1085Z" fill="url(#paint28_linear_7027_5082)"/>
<path d="M29.6403 23.797L34.4968 29.0461C36.4121 31.1169 36.4577 34.1208 34.6108 35.6909L34.474 35.8047L29.4047 30.2977C27.8086 28.5607 25.2929 28.2648 23.8261 29.6226L15.1391 37.6252L14.9186 37.3825C13.1782 35.4482 13.0262 32.6568 14.5994 31.1549L23.0205 23.1143C24.7533 21.4607 27.7326 21.7565 29.6175 23.797H29.6403Z" fill="url(#paint29_linear_7027_5082)"/>
<path d="M27.6564 42.2748L28.8953 41.228C28.2492 40.9245 27.6184 40.6211 26.9648 40.3177C27.2004 40.9852 27.4208 41.6224 27.6564 42.2748ZM24.1831 31.1773L14.9641 39.5895C13.9608 40.5073 14.052 42.2596 15.1617 43.5036L21.8575 50.9752C22.7087 51.9234 23.9399 52.3482 24.9508 52.1206C25.2776 52.0447 25.5816 51.9082 25.84 51.6882L26.98 50.7628L28.5381 52.4923C29.4957 53.5618 31.0993 53.2129 31.0613 51.931L30.9245 47.5466L35.6443 43.7008C35.9179 43.4808 36.1307 43.2002 36.2751 42.8892C36.7387 41.8879 36.5031 40.5604 35.5759 39.544L28.3633 31.6931C27.17 30.3884 25.2776 30.1608 24.1831 31.1621V31.1773ZM25.3156 43.4656C25.1712 43.4429 25.0192 43.4126 24.8596 43.3822C24.8976 43.5567 24.928 43.716 24.9584 43.8829C25.118 44.6945 25.1788 45.5137 25.1636 46.3102C25.1636 46.6894 24.8976 46.9094 24.5251 46.8336C24.1527 46.7577 23.8867 46.4316 23.8867 46.0371C23.9019 45.0738 23.7803 44.1028 23.5295 43.1167C23.5067 43.0333 23.4687 42.9953 23.3927 42.965C22.8379 42.7374 22.2755 42.5251 21.7207 42.2823C21.3482 42.1154 21.1506 41.7286 21.2494 41.41C21.3483 41.0914 21.6903 40.9852 22.0703 41.1521C22.3743 41.2886 22.6783 41.4252 23.0203 41.5693C22.7543 40.9018 22.4503 40.3025 22.0931 39.6881C22.0399 39.7336 21.9943 39.764 21.9487 39.8019L20.1854 41.3569C19.9574 41.5617 19.661 41.5541 19.395 41.3569C19.0378 41.0914 18.9542 40.6135 19.2278 40.3632L20.3906 39.3316C20.4666 39.2659 20.4616 39.1875 20.3754 39.0965L20.0486 38.7324C19.7826 38.4365 19.7598 38.0497 19.9954 37.8373C20.2234 37.6249 20.611 37.6704 20.8846 37.9587C21.0442 38.1255 21.1886 38.2924 21.3558 38.4745L22.6251 37.3366C22.8987 37.1015 23.2863 37.147 23.5599 37.4504C23.8335 37.7538 23.8259 38.1407 23.5675 38.3758C23.4003 38.5275 23.2255 38.6717 23.0507 38.8234C22.9899 38.8765 22.9747 38.922 23.0355 39.0054C23.6131 39.9384 24.0767 40.9018 24.4187 41.9031C24.4491 41.9941 24.4871 42.032 24.5783 42.0472C24.8215 42.1003 25.0648 42.1458 25.3156 42.1989C25.7184 42.2823 25.9996 42.5933 25.9996 42.965C25.9996 43.3215 25.7108 43.5188 25.308 43.4505L25.3156 43.4656ZM32.0798 42.252C31.9202 42.4568 31.6237 42.5023 31.3273 42.3658C31.0309 42.2292 30.7269 42.0851 30.4229 41.9334C30.3393 41.8955 30.2937 41.8955 30.2405 41.9486C29.5717 42.5175 28.9105 43.0712 28.2493 43.625C28.1884 43.6705 28.1732 43.7236 28.2036 43.8146C28.3177 44.1332 28.4393 44.4442 28.5381 44.7628C28.6369 45.0814 28.5077 45.3696 28.2264 45.4606C27.9452 45.5516 27.6108 45.4075 27.4056 45.1269C27.3524 45.0586 27.322 44.9751 27.2916 44.8917C26.79 43.4656 26.2808 42.0396 25.7792 40.6135C25.6196 40.166 25.4676 39.726 25.3156 39.2785C25.2244 39.013 25.2624 38.7703 25.4752 38.5958C25.6348 38.4669 25.8628 38.4517 26.1288 38.5806C27.436 39.2026 28.7509 39.8095 30.0809 40.4315C30.6281 40.6894 31.1753 40.9397 31.7226 41.2052C32.1786 41.4252 32.3458 41.9258 32.0874 42.252H32.0798Z" fill="url(#paint30_linear_7027_5082)"/>
<path d="M29.6193 23.8644L34.4758 29.1135C36.3911 31.1843 36.4367 34.1881 34.5898 35.7583L34.453 35.8721L29.3837 30.3651C27.7876 28.628 25.272 28.3322 23.8051 29.69L15.1181 37.6926L14.8977 37.4499C13.1572 35.5156 13.0052 32.7242 14.5784 31.2223L22.9995 23.1817C24.7323 21.5281 27.7116 21.8239 29.5965 23.8644H29.6193Z" fill="url(#paint31_linear_7027_5082)"/>
<path d="M27.6354 42.3421L28.8743 41.2953C28.2283 40.9919 27.5974 40.6885 26.9438 40.3851C27.1794 41.0526 27.3998 41.6898 27.6354 42.3421ZM24.1621 31.2447L14.9431 39.6569C13.9398 40.5747 14.031 42.3269 15.1407 43.571L21.8365 51.0426C22.6877 51.9908 23.9189 52.4155 24.9298 52.188C25.2566 52.1121 25.5606 51.9756 25.819 51.7556L26.959 50.8302L28.5171 52.5597C29.4747 53.6292 31.0783 53.2803 31.0403 51.9983L30.9035 47.614L35.6233 43.7682C35.8969 43.5482 36.1097 43.2675 36.2541 42.9565C36.7177 41.9553 36.4821 40.6278 35.5549 39.6114L28.3423 31.7605C27.149 30.4558 25.2566 30.2282 24.1621 31.2295V31.2447ZM25.2946 43.533C25.1502 43.5103 24.9982 43.4799 24.8386 43.4496C24.8766 43.6241 24.907 43.7833 24.9374 43.9502C25.097 44.7619 25.1578 45.5811 25.1426 46.3775C25.1426 46.7568 24.8766 46.9768 24.5041 46.9009C24.1317 46.8251 23.8657 46.4989 23.8657 46.1045C23.8809 45.1411 23.7593 44.1702 23.5085 43.1841C23.4857 43.1007 23.4477 43.0627 23.3717 43.0324C22.8169 42.8048 22.2545 42.5924 21.6997 42.3497C21.3273 42.1828 21.1296 41.796 21.2284 41.4774C21.3273 41.1588 21.6693 41.0526 22.0493 41.2195C22.3533 41.356 22.6573 41.4925 22.9993 41.6367C22.7333 40.9691 22.4293 40.3699 22.0721 39.7555C22.0189 39.801 21.9733 39.8313 21.9277 39.8693L20.1644 41.4243C19.9364 41.6291 19.64 41.6215 19.374 41.4243C19.0168 41.1588 18.9332 40.6809 19.2068 40.4306L20.3696 39.399C20.4456 39.3332 20.4406 39.2549 20.3544 39.1638L20.0276 38.7997C19.7616 38.5039 19.7388 38.117 19.9744 37.9046C20.2024 37.6923 20.59 37.7378 20.8636 38.026C21.0232 38.1929 21.1676 38.3598 21.3349 38.5418L22.6041 37.404C22.8777 37.1689 23.2653 37.2144 23.5389 37.5178C23.8125 37.8212 23.8049 38.2081 23.5465 38.4432C23.3793 38.5949 23.2045 38.739 23.0297 38.8907C22.9689 38.9438 22.9537 38.9894 23.0145 39.0728C23.5921 40.0058 24.0557 40.9691 24.3977 41.9704C24.4281 42.0614 24.4661 42.0994 24.5573 42.1145C24.8006 42.1676 25.0438 42.2132 25.2946 42.2663C25.6974 42.3497 25.9786 42.6607 25.9786 43.0324C25.9786 43.3889 25.6898 43.5861 25.287 43.5179L25.2946 43.533ZM32.0588 42.3269C31.8992 42.5317 31.6028 42.5773 31.3063 42.4407C31.0099 42.3042 30.7059 42.1601 30.4019 42.0084C30.3183 41.9704 30.2727 41.9704 30.2195 42.0235C29.5507 42.5924 28.8895 43.1462 28.2283 43.6999C28.1674 43.7454 28.1523 43.7985 28.1827 43.8895C28.2967 44.2081 28.4183 44.5191 28.5171 44.8377C28.6159 45.1563 28.4867 45.4445 28.2055 45.5356C27.9242 45.6266 27.5898 45.4825 27.3846 45.2018C27.3314 45.1335 27.301 45.0501 27.2706 44.9667C26.769 43.5406 26.2598 42.1145 25.7582 40.6885C25.5986 40.2409 25.4466 39.801 25.2946 39.3535C25.2034 39.088 25.2414 38.8452 25.4542 38.6708C25.6138 38.5418 25.8418 38.5266 26.1078 38.6556C27.415 39.2776 28.7299 39.8844 30.0599 40.5064C30.6071 40.7643 31.1543 41.0147 31.7016 41.2802C32.1576 41.5001 32.3248 42.0008 32.0664 42.3269H32.0588Z" fill="url(#paint32_linear_7027_5082)"/>
<path d="M29.592 23.9332L34.4485 29.1824C36.3638 31.2532 36.4094 34.257 34.5625 35.8272L34.4257 35.941L29.3564 30.4339C27.7603 28.6969 25.2447 28.4011 23.7778 29.7589L15.0908 37.7615L14.8704 37.5187C13.1299 35.5844 12.9779 32.793 14.5512 31.2911L22.9722 23.2506C24.7051 21.5969 27.6843 21.8928 29.5692 23.9332H29.592Z" fill="url(#paint33_linear_7027_5082)"/>
<path d="M27.6082 42.411L28.847 41.3642C28.201 41.0608 27.5702 40.7573 26.9165 40.4539C27.1521 41.1214 27.3725 41.7586 27.6082 42.411ZM24.1349 31.3135L14.9158 39.7257C13.9126 40.6436 14.0038 42.3958 15.1134 43.6398L21.8092 51.1114C22.6604 52.0596 23.8916 52.4844 24.9025 52.2568C25.2293 52.181 25.5333 52.0444 25.7917 51.8245L26.9317 50.899L28.4898 52.6285C29.4474 53.6981 31.0511 53.3491 31.0131 52.0672L30.8762 47.6828L35.596 43.837C35.8696 43.6171 36.0824 43.3364 36.2268 43.0254C36.6904 42.0241 36.4548 40.6967 35.5276 39.6802L28.315 31.8293C27.1217 30.5246 25.2293 30.2971 24.1349 31.2983V31.3135ZM25.2673 43.6019C25.1229 43.5791 24.9709 43.5488 24.8113 43.5184C24.8493 43.6929 24.8797 43.8522 24.9101 44.0191C25.0697 44.8307 25.1305 45.6499 25.1153 46.4464C25.1153 46.8257 24.8493 47.0457 24.4769 46.9698C24.1045 46.894 23.8384 46.5678 23.8384 46.1733C23.8536 45.21 23.732 44.239 23.4812 43.2529C23.4584 43.1695 23.4204 43.1316 23.3444 43.1012C22.7896 42.8737 22.2272 42.6613 21.6724 42.4186C21.3 42.2517 21.1024 41.8648 21.2012 41.5462C21.3 41.2276 21.642 41.1214 22.022 41.2883C22.326 41.4249 22.63 41.5614 22.972 41.7055C22.706 41.038 22.402 40.4388 22.0448 39.8243C21.9916 39.8699 21.946 39.9002 21.9004 39.9381L20.1371 41.4931C19.9091 41.6979 19.6127 41.6904 19.3467 41.4931C18.9895 41.2277 18.9059 40.7497 19.1795 40.4994L20.3423 39.4678C20.4183 39.4021 20.4133 39.3237 20.3271 39.2327L20.0003 38.8686C19.7343 38.5727 19.7115 38.1859 19.9471 37.9735C20.1751 37.7611 20.5627 37.8066 20.8364 38.0949C20.996 38.2617 21.1404 38.4286 21.3076 38.6107L22.5768 37.4729C22.8504 37.2377 23.238 37.2832 23.5116 37.5866C23.7852 37.8901 23.7776 38.2769 23.5192 38.5121C23.352 38.6638 23.1772 38.8079 23.0024 38.9596C22.9416 39.0127 22.9264 39.0582 22.9872 39.1417C23.5648 40.0747 24.0284 41.038 24.3705 42.0393C24.4009 42.1303 24.4389 42.1682 24.5301 42.1834C24.7733 42.2365 25.0165 42.282 25.2673 42.3351C25.6701 42.4185 25.9513 42.7296 25.9513 43.1012C25.9513 43.4578 25.6625 43.655 25.2597 43.5867L25.2673 43.6019ZM32.0315 42.3958C31.8719 42.6006 31.5755 42.6461 31.2791 42.5096C30.9827 42.373 30.6786 42.2289 30.3746 42.0772C30.291 42.0393 30.2454 42.0393 30.1922 42.0924C29.5234 42.6613 28.8622 43.215 28.201 43.7688C28.1402 43.8143 28.125 43.8674 28.1554 43.9584C28.2694 44.277 28.391 44.588 28.4898 44.9066C28.5886 45.2252 28.4594 45.5134 28.1782 45.6044C27.897 45.6954 27.5626 45.5513 27.3573 45.2707C27.3041 45.2024 27.2737 45.119 27.2433 45.0355C26.7417 43.6095 26.2325 42.1834 25.7309 40.7574C25.5713 40.3098 25.4193 39.8699 25.2673 39.4223C25.1761 39.1568 25.2141 38.9141 25.4269 38.7396C25.5865 38.6107 25.8145 38.5955 26.0805 38.7244C27.3877 39.3464 28.7026 39.9533 30.0326 40.5753C30.5798 40.8332 31.1271 41.0835 31.6743 41.349C32.1303 41.569 32.2975 42.0696 32.0391 42.3958H32.0315Z" fill="url(#paint34_linear_7027_5082)"/>
<path d="M29.5675 24.0009L34.424 29.25C36.3393 31.3208 36.3849 34.3246 34.538 35.8948L34.4012 36.0086L29.3319 30.5016C27.7358 28.7645 25.2201 28.4687 23.7533 29.8265L15.0662 37.8291L14.8458 37.5863C13.1054 35.6521 12.9534 32.8606 14.5266 31.3587L22.9477 23.3182C24.6805 21.6646 27.6598 21.9604 29.5447 24.0009H29.5675Z" fill="url(#paint35_linear_7027_5082)"/>
<path d="M27.5769 42.4786L28.8157 41.4318C28.1697 41.1284 27.5389 40.825 26.8853 40.5216C27.1209 41.1891 27.3413 41.8262 27.5769 42.4786ZM24.1036 31.3811L14.8845 39.7934C13.8813 40.7112 13.9725 42.4634 15.0821 43.7074L21.7779 51.1791C22.6292 52.1272 23.8604 52.552 24.8712 52.3245C25.198 52.2486 25.502 52.1121 25.7604 51.8921L26.9005 50.9667L28.4585 52.6961C29.4162 53.7657 31.0198 53.4168 30.9818 52.1348L30.845 47.7505L35.5647 43.9047C35.8383 43.6847 36.0511 43.404 36.1956 43.093C36.6592 42.0917 36.4236 40.7643 35.4963 39.7478L28.2837 31.8969C27.0905 30.5922 25.198 30.3647 24.1036 31.366V31.3811ZM25.236 43.6771C25.0916 43.6543 24.9396 43.624 24.78 43.5937C24.818 43.7681 24.8484 43.9274 24.8788 44.0943C25.0384 44.9059 25.0992 45.7251 25.084 46.5216C25.084 46.9009 24.818 47.1209 24.4456 47.045C24.0732 46.9692 23.8072 46.643 23.8072 46.2485C23.8224 45.2852 23.7008 44.3143 23.45 43.3282C23.4272 43.2447 23.3892 43.2068 23.3132 43.1765C22.7584 42.9489 22.1959 42.7365 21.6411 42.4938C21.2687 42.3269 21.0711 41.94 21.1699 41.6214C21.2687 41.3029 21.6107 41.1967 21.9907 41.3635C22.2947 41.5001 22.5988 41.6366 22.9408 41.7807C22.6748 41.1132 22.3708 40.514 22.0135 39.8996C21.9603 39.9451 21.9147 39.9754 21.8691 40.0133L20.1059 41.5683C19.8779 41.7731 19.5815 41.7656 19.3155 41.5683C18.9583 41.3028 18.8747 40.825 19.1483 40.5746L20.3111 39.543C20.3871 39.4773 20.382 39.3989 20.2959 39.3079L19.9691 38.9438C19.7031 38.648 19.6803 38.2611 19.9159 38.0487C20.1439 37.8363 20.5315 37.8818 20.8051 38.1701C20.9647 38.337 21.1091 38.5038 21.2763 38.6859L22.5456 37.5481C22.8192 37.3129 23.2068 37.3584 23.4804 37.6619C23.754 37.9653 23.7464 38.3521 23.488 38.5873C23.3208 38.739 23.146 38.8831 22.9712 39.0348C22.9104 39.0879 22.8952 39.1334 22.956 39.2169C23.5336 40.1499 23.9972 41.1132 24.3392 42.1145C24.3696 42.2055 24.4076 42.2434 24.4988 42.2586C24.742 42.3117 24.9852 42.3572 25.236 42.4103C25.6388 42.4938 25.9201 42.8048 25.9201 43.1765C25.9201 43.533 25.6312 43.7302 25.2284 43.6619L25.236 43.6771ZM32.0078 42.4634C31.8482 42.6682 31.5518 42.7137 31.2554 42.5772C30.959 42.4407 30.655 42.2965 30.351 42.1448C30.2674 42.1069 30.2218 42.1069 30.1686 42.16C29.4998 42.7289 28.8385 43.2827 28.1773 43.8364C28.1165 43.8819 28.1013 43.935 28.1317 44.026C28.2457 44.3446 28.3673 44.6556 28.4661 44.9742C28.5649 45.2928 28.4357 45.581 28.1545 45.672C27.8733 45.7631 27.5389 45.6189 27.3337 45.3383C27.2805 45.27 27.2501 45.1866 27.2197 45.1031C26.7181 43.6771 26.2089 42.251 25.7072 40.825C25.5476 40.3774 25.3956 39.9375 25.2436 39.4899C25.1524 39.2245 25.1904 38.9817 25.4032 38.8073C25.5628 38.6783 25.7909 38.6631 26.0569 38.7921C27.3641 39.4141 28.6789 40.0209 30.009 40.6429C30.5562 40.9008 31.1034 41.1512 31.6506 41.4166C32.1066 41.6366 32.2738 42.1373 32.0154 42.4634H32.0078Z" fill="url(#paint36_linear_7027_5082)"/>
<path d="M29.5325 24.0768L34.389 29.3259C36.3043 31.3967 36.3499 34.4006 34.503 35.9707L34.3662 36.0845L29.2969 30.5775C27.7008 28.8404 25.1852 28.5446 23.7183 29.9024L15.0313 37.905L14.8109 37.6623C13.0704 35.728 12.9184 32.9366 14.4917 31.4347L22.9127 23.3941C24.6455 21.7405 27.6248 22.0363 29.5097 24.0768H29.5325Z" fill="url(#paint37_linear_7027_5082)"/>
<path d="M27.5486 42.547L28.7875 41.5002C28.1415 41.1967 27.5106 40.8933 26.857 40.5899C27.0926 41.2574 27.313 41.8946 27.5486 42.547ZM24.0753 31.4495L14.8563 39.8617C13.853 40.7795 13.9442 42.5318 15.0539 43.7758L21.7497 51.2474C22.6009 52.1956 23.8321 52.6204 24.843 52.3928C25.1698 52.317 25.4738 52.1804 25.7322 51.9605L26.8722 51.035L28.4303 52.7645C29.3879 53.8341 30.9915 53.4851 30.9535 52.2032L30.8167 47.8188L35.5365 43.973C35.8101 43.753 36.0229 43.4724 36.1673 43.1614C36.6309 42.1601 36.3953 40.8326 35.4681 39.8162L28.2555 31.9653C27.0622 30.6606 25.1698 30.4331 24.0753 31.4343V31.4495ZM25.2078 43.7455C25.0634 43.7227 24.9114 43.6924 24.7518 43.662C24.7898 43.8365 24.8202 43.9958 24.8506 44.1627C25.0102 44.9743 25.071 45.7935 25.0558 46.59C25.0558 46.9693 24.7898 47.1892 24.4174 47.1134C24.0449 47.0375 23.7789 46.7113 23.7789 46.3169C23.7941 45.3536 23.6725 44.3826 23.4217 43.3965C23.3989 43.3131 23.3609 43.2752 23.2849 43.2448C22.7301 43.0173 22.1677 42.8048 21.6129 42.5621C21.2405 42.3952 21.0429 42.0084 21.1417 41.6898C21.2405 41.3712 21.5825 41.265 21.9625 41.4319C22.2665 41.5684 22.5705 41.705 22.9125 41.8491C22.6465 41.1816 22.3425 40.5823 21.9853 39.9679C21.9321 40.0134 21.8865 40.0438 21.8409 40.0817L20.0776 41.6367C19.8496 41.8415 19.5532 41.8339 19.2872 41.6367C18.93 41.3712 18.8464 40.8933 19.12 40.643L20.2828 39.6114C20.3588 39.5457 20.3538 39.4673 20.2676 39.3763L19.9408 39.0121C19.6748 38.7163 19.652 38.3295 19.8876 38.1171C20.1156 37.9047 20.5032 37.9502 20.7768 38.2384C20.9365 38.4053 21.0809 38.5722 21.2481 38.7542L22.5173 37.6164C22.7909 37.3813 23.1785 37.4268 23.4521 37.7302C23.7257 38.0336 23.7181 38.4205 23.4597 38.6556C23.2925 38.8073 23.1177 38.9515 22.9429 39.1032C22.8821 39.1563 22.8669 39.2018 22.9277 39.2852C23.5053 40.2182 23.9689 41.1816 24.311 42.1828C24.3414 42.2739 24.3794 42.3118 24.4706 42.327C24.7138 42.3801 24.957 42.4256 25.2078 42.4787C25.6106 42.5621 25.8918 42.8731 25.8918 43.2448C25.8918 43.6013 25.603 43.7985 25.2002 43.7303L25.2078 43.7455ZM31.972 42.5318C31.8124 42.7366 31.516 42.7821 31.2196 42.6456C30.9231 42.509 30.6191 42.3649 30.3151 42.2132C30.2315 42.1753 30.1859 42.1753 30.1327 42.2284C29.4639 42.7973 28.8027 43.351 28.1415 43.9048C28.0807 43.9503 28.0655 44.0034 28.0959 44.0944C28.2099 44.413 28.3315 44.724 28.4303 45.0426C28.5291 45.3611 28.3999 45.6494 28.1187 45.7404C27.8375 45.8314 27.503 45.6873 27.2978 45.4066C27.2446 45.3384 27.2142 45.2549 27.1838 45.1715C26.6822 43.7454 26.173 42.3194 25.6714 40.8933C25.5118 40.4458 25.3598 40.0058 25.2078 39.5583C25.1166 39.2928 25.1546 39.0501 25.3674 38.8756C25.527 38.7467 25.755 38.7315 26.021 38.8605C27.3282 39.4825 28.6431 40.0893 29.9731 40.7113C30.5203 40.9692 31.0675 41.2195 31.6148 41.485C32.0708 41.705 32.238 42.2056 31.9796 42.5318H31.972Z" fill="url(#paint38_linear_7027_5082)"/>
<path d="M29.5037 24.1466L34.3602 29.3957C36.2755 31.4666 36.3211 34.4704 34.4742 36.0406L34.3374 36.1543L29.2681 30.6473C27.672 28.9103 25.1564 28.6144 23.6895 29.9722L15.0025 37.9748L14.7821 37.7321C13.0416 35.7978 12.8896 33.0064 14.4628 31.5045L22.8839 23.4639C24.6167 21.8103 27.596 22.1061 29.4809 24.1466H29.5037Z" fill="url(#paint39_linear_7027_5082)"/>
<path d="M27.5198 42.6168L28.7587 41.57C28.1127 41.2666 27.4818 40.9632 26.8282 40.6597C27.0638 41.3273 27.2842 41.9644 27.5198 42.6168ZM24.0465 31.5193L14.8275 39.9315C13.8242 40.8494 13.9154 42.6016 15.0251 43.8456L21.7209 51.3172C22.5721 52.2654 23.8033 52.6902 24.8142 52.4626C25.141 52.3868 25.445 52.2502 25.7034 52.0303L26.8434 51.1048L28.4015 52.8343C29.3591 53.9039 30.9627 53.5549 30.9247 52.273L30.7879 47.8886L35.5077 44.0428C35.7813 43.8229 35.9941 43.5422 36.1385 43.2312C36.6021 42.2299 36.3665 40.9025 35.4393 39.886L28.2267 32.0351C27.0334 30.7304 25.141 30.5029 24.0465 31.5041V31.5193ZM25.179 43.8153C25.0346 43.7925 24.8826 43.7622 24.723 43.7318C24.761 43.9063 24.7914 44.0656 24.8218 44.2325C24.9814 45.0441 25.0422 45.8633 25.027 46.6598C25.027 47.0391 24.761 47.2591 24.3885 47.1832C24.0161 47.1073 23.7501 46.7812 23.7501 46.3867C23.7653 45.4234 23.6437 44.4524 23.3929 43.4663C23.3701 43.3829 23.3321 43.345 23.2561 43.3146C22.7013 43.0871 22.1389 42.8747 21.5841 42.632C21.2117 42.4651 21.014 42.0782 21.1129 41.7596C21.2117 41.441 21.5537 41.3348 21.9337 41.5017C22.2377 41.6382 22.5417 41.7748 22.8837 41.9189C22.6177 41.2514 22.3137 40.6522 21.9565 40.0377C21.9033 40.0832 21.8577 40.1136 21.8121 40.1515L20.0488 41.7065C19.8208 41.9113 19.5244 41.9038 19.2584 41.7065C18.9012 41.441 18.8176 40.9632 19.0912 40.7128L20.254 39.6812C20.33 39.6155 20.325 39.5371 20.2388 39.4461L19.912 39.082C19.646 38.7861 19.6232 38.3993 19.8588 38.1869C20.0868 37.9745 20.4744 38.02 20.748 38.3083C20.9076 38.4751 21.052 38.642 21.2193 38.8241L22.4885 37.6863C22.7621 37.4511 23.1497 37.4966 23.4233 37.8C23.6969 38.1034 23.6893 38.4903 23.4309 38.7254C23.2637 38.8772 23.0889 39.0213 22.9141 39.173C22.8533 39.2261 22.8381 39.2716 22.8989 39.3551C23.4765 40.2881 23.9401 41.2514 24.2821 42.2527C24.3125 42.3437 24.3505 42.3816 24.4417 42.3968C24.685 42.4499 24.9282 42.4954 25.179 42.5485C25.5818 42.6319 25.863 42.943 25.863 43.3146C25.863 43.6712 25.5742 43.8684 25.1714 43.8001L25.179 43.8153ZM31.9432 42.6016C31.7836 42.8064 31.4871 42.8519 31.1907 42.7154C30.8943 42.5788 30.5903 42.4347 30.2863 42.283C30.2027 42.2451 30.1571 42.2451 30.1039 42.2982C29.4351 42.8671 28.7739 43.4208 28.1127 43.9746C28.0519 44.0201 28.0366 44.0732 28.0671 44.1642C28.1811 44.4828 28.3027 44.7938 28.4015 45.1124C28.5003 45.431 28.3711 45.7192 28.0899 45.8102C27.8086 45.9012 27.4742 45.7571 27.269 45.4765C27.2158 45.4082 27.1854 45.3248 27.155 45.2413C26.6534 43.8153 26.1442 42.3892 25.6426 40.9632C25.483 40.5156 25.331 40.0757 25.179 39.6281C25.0878 39.3626 25.1258 39.1199 25.3386 38.9454C25.4982 38.8165 25.7262 38.8013 25.9922 38.9303C27.2994 39.5523 28.6143 40.1591 29.9443 40.7811C30.4915 41.039 31.0387 41.2893 31.586 41.5548C32.042 41.7748 32.2092 42.2754 31.9508 42.6016H31.9432Z" fill="url(#paint40_linear_7027_5082)"/>
<path d="M29.4827 24.2138L34.3392 29.4629C36.2545 31.5337 36.3001 34.5375 34.4532 36.1077L34.3164 36.2215L29.2471 30.7145C27.651 28.9774 25.1354 28.6816 23.6685 30.0394L14.9815 38.042L14.7611 37.7992C13.0206 35.8649 12.8686 33.0735 14.4418 31.5716L22.8629 23.5311C24.5957 21.8774 27.575 22.1733 29.4599 24.2138H29.4827Z" fill="url(#paint41_linear_7027_5082)"/>
<path d="M27.492 42.6839L28.7308 41.6371C28.0848 41.3337 27.454 41.0303 26.8004 40.7269C27.036 41.3944 27.2564 42.0316 27.492 42.6839ZM24.0187 31.5864L14.7996 39.9987C13.7964 40.9165 13.8876 42.6687 14.9972 43.9127L21.693 51.3844C22.5443 52.3326 23.7755 52.7573 24.7863 52.5298C25.1131 52.4539 25.4171 52.3174 25.6756 52.0974L26.8156 51.172L28.3736 52.9015C29.3313 53.971 30.9349 53.6221 30.8969 52.3401L30.7601 47.9558L35.4798 44.11C35.7534 43.89 35.9663 43.6093 36.1107 43.2983C36.5743 42.2971 36.3387 40.9696 35.4114 39.9532L28.1988 32.1023C27.0056 30.7976 25.1131 30.57 24.0187 31.5713V31.5864ZM25.1587 43.8824C25.0143 43.8597 24.8623 43.8293 24.7027 43.799C24.7407 43.9734 24.7711 44.1327 24.8015 44.2996C24.9611 45.1112 25.0219 45.9305 25.0067 46.7269C25.0067 47.1062 24.7407 47.3262 24.3683 47.2503C23.9959 47.1745 23.7299 46.8483 23.7299 46.4539C23.7451 45.4905 23.6235 44.5196 23.3727 43.5335C23.3499 43.45 23.3119 43.4121 23.2359 43.3818C22.6811 43.1542 22.1186 42.9418 21.5638 42.6991C21.1914 42.5322 20.9938 42.1453 21.0926 41.8268C21.1914 41.5082 21.5334 41.402 21.9134 41.5689C22.2175 41.7054 22.5215 41.8419 22.8635 41.9861C22.5975 41.3185 22.2935 40.7193 21.9362 40.1049C21.883 40.1504 21.8374 40.1807 21.7918 40.2186L20.0286 41.7737C19.8006 41.9785 19.5042 41.9709 19.2382 41.7737C18.881 41.5082 18.7974 41.0303 19.071 40.78L20.2338 39.7484C20.3098 39.6826 20.3047 39.6042 20.2186 39.5132L19.8918 39.1491C19.6258 38.8533 19.603 38.4664 19.8386 38.254C20.0666 38.0416 20.4542 38.0872 20.7278 38.3754C20.8874 38.5423 21.0318 38.7092 21.199 38.8912L22.4683 37.7534C22.7419 37.5182 23.1295 37.5638 23.4031 37.8672C23.6767 38.1706 23.6691 38.5574 23.4107 38.7926C23.2435 38.9443 23.0687 39.0884 22.8939 39.2401C22.8331 39.2932 22.8179 39.3387 22.8787 39.4222C23.4563 40.3552 23.9199 41.3185 24.2619 42.3198C24.2923 42.4108 24.3303 42.4488 24.4215 42.4639C24.6647 42.517 24.9079 42.5625 25.1587 42.6156C25.5615 42.6991 25.8428 43.0101 25.8428 43.3818C25.8428 43.7383 25.5539 43.9355 25.1511 43.8672L25.1587 43.8824ZM31.9229 42.6687C31.7633 42.8736 31.4669 42.9191 31.1705 42.7825C30.8741 42.646 30.5701 42.5019 30.2661 42.3501C30.1825 42.3122 30.1369 42.3122 30.0837 42.3653C29.4149 42.9342 28.7536 43.488 28.0924 44.0417C28.0316 44.0872 28.0164 44.1403 28.0468 44.2313C28.1608 44.5499 28.2824 44.8609 28.3812 45.1795C28.48 45.4981 28.3508 45.7864 28.0696 45.8774C27.7884 45.9684 27.454 45.8243 27.2488 45.5436C27.1956 45.4754 27.1652 45.3919 27.1348 45.3085C26.6332 43.8824 26.124 42.4564 25.6224 41.0303C25.4627 40.5828 25.3107 40.1428 25.1587 39.6953C25.0675 39.4298 25.1055 39.187 25.3183 39.0126C25.4779 38.8836 25.706 38.8685 25.972 38.9974C27.2792 39.6194 28.594 40.2262 29.9241 40.8483C30.4713 41.1062 31.0185 41.3565 31.5657 41.622C32.0217 41.8419 32.1889 42.3426 31.9305 42.6687H31.9229Z" fill="url(#paint42_linear_7027_5082)"/>
<path d="M29.4505 24.2821L34.3071 29.5312C36.2223 31.602 36.2679 34.6059 34.4211 36.1761L34.2843 36.2898L29.2149 30.7828C27.6189 29.0458 25.1032 28.7499 23.6363 30.1077L14.9493 38.1103L14.7289 37.8676C12.9884 35.9333 12.8364 33.1419 14.4097 31.64L22.8307 23.5994C24.5636 21.9458 27.5429 22.2417 29.4277 24.2821H29.4505Z" fill="url(#paint43_linear_7027_5082)"/>
<path d="M27.4667 42.7523L28.7055 41.7055C28.0595 41.4021 27.4287 41.0987 26.7751 40.7952C27.0107 41.4628 27.2311 42.0999 27.4667 42.7523ZM23.9934 31.6548L14.7743 40.067C13.7711 40.9849 13.8623 42.7371 14.9719 43.9811L21.6677 51.4527C22.5189 52.4009 23.7502 52.8257 24.761 52.5981C25.0802 52.5223 25.3918 52.3857 25.6502 52.1658L26.7903 51.2403L28.3483 52.9698C29.3059 54.0394 30.9096 53.6904 30.8716 52.4085L30.7348 48.0241L35.4545 44.1783C35.7281 43.9584 35.9409 43.6777 36.0853 43.3667C36.5489 42.3654 36.3133 41.038 35.3861 40.0215L28.1735 32.1706C26.9803 30.8659 25.0878 30.6384 23.9934 31.6396V31.6548ZM25.1258 43.9508C24.9814 43.928 24.8294 43.8977 24.6698 43.8673C24.7078 44.0418 24.7306 44.2011 24.7686 44.368C24.9206 45.1872 24.989 45.9988 24.9738 46.7953C24.9738 47.1746 24.7078 47.3946 24.3354 47.3187C23.963 47.2504 23.6894 46.9167 23.697 46.5222C23.697 45.5589 23.5906 44.588 23.3398 43.6019C23.317 43.5184 23.279 43.4805 23.203 43.4501C22.6481 43.2302 22.0857 43.0102 21.5309 42.7675C21.1585 42.6006 20.9609 42.2137 21.0597 41.8951C21.1585 41.569 21.5081 41.4627 21.8805 41.6372C22.1845 41.7737 22.4885 41.9103 22.8305 42.0544C22.5645 41.3869 22.2605 40.7876 21.9033 40.1732C21.8501 40.2187 21.8045 40.2491 21.7589 40.287L19.9957 41.842C19.7677 42.0468 19.4712 42.0468 19.2052 41.842C18.848 41.5765 18.7644 41.0987 19.038 40.8483L20.2009 39.8167C20.2769 39.751 20.2718 39.6726 20.1857 39.5816L19.8589 39.2175C19.5928 38.9217 19.57 38.5348 19.8057 38.3224C20.0337 38.11 20.4213 38.1555 20.6949 38.4438C20.8469 38.6106 20.9989 38.7775 21.1661 38.9596L22.4353 37.8217C22.7089 37.5866 23.0965 37.6321 23.3702 37.9355C23.6438 38.239 23.6362 38.6182 23.3778 38.861C23.2106 39.0127 23.0357 39.1644 22.8609 39.3085C22.8001 39.3616 22.7849 39.4071 22.8457 39.4905C23.4234 40.416 23.8794 41.3869 24.229 42.3882C24.2594 42.4792 24.2974 42.5171 24.3886 42.5323C24.6318 42.5778 24.875 42.6309 25.1258 42.684C25.5286 42.7674 25.8098 43.0785 25.8098 43.4501C25.8098 43.8067 25.521 44.0115 25.1182 43.9356L25.1258 43.9508ZM31.89 42.7371C31.7304 42.9419 31.434 42.9874 31.1376 42.8509C30.8336 42.7143 30.5296 42.5702 30.2332 42.4185C30.1496 42.3806 30.104 42.3806 30.0507 42.4337C29.3819 43.0026 28.7207 43.5639 28.0595 44.1101C27.9987 44.1556 27.9911 44.2087 28.0139 44.2997C28.1279 44.6107 28.2419 44.9293 28.3483 45.2479C28.4471 45.5665 28.3179 45.8547 28.0367 45.9457C27.7555 46.0368 27.4135 45.9002 27.2159 45.612C27.1627 45.5437 27.1323 45.4603 27.1019 45.3768C26.6002 43.9508 26.0986 42.5247 25.5894 41.0987C25.4374 40.6511 25.2778 40.2112 25.1258 39.7636C25.0346 39.4981 25.0726 39.263 25.2854 39.0809C25.445 38.9596 25.673 38.9368 25.939 39.0658C27.2463 39.6802 28.5611 40.2946 29.8911 40.9166C30.4384 41.1745 30.9856 41.4248 31.5328 41.6903C31.9888 41.9103 32.156 42.4109 31.8976 42.7371H31.89Z" fill="url(#paint44_linear_7027_5082)"/>
<path d="M29.4547 24.2824L34.3113 29.5315C36.2265 31.6023 36.2721 34.6061 34.4253 36.1763L34.2885 36.2901L29.2191 30.7831C27.6231 29.046 25.1074 28.7502 23.6406 30.108L14.9535 38.1106L14.7331 37.8679C12.9927 35.9336 12.8406 33.1421 14.4139 31.6402L22.8349 23.5997C24.5678 21.946 27.5471 22.2419 29.4319 24.2824H29.4547Z" fill="url(#paint45_linear_7027_5082)"/>
<path d="M23.9976 31.6556L14.7785 40.0678C13.7753 40.9856 13.8665 42.7378 14.9761 43.9819L21.6719 51.4535C22.5231 52.4016 23.7544 52.8264 24.7652 52.5989C25.0844 52.523 25.396 52.3865 25.6544 52.1665L26.7945 51.2411L28.3525 52.9706C29.3101 54.0401 30.9138 53.6912 30.8758 52.4092L30.739 48.0249L35.4587 44.1791C35.7323 43.9591 35.9451 43.6784 36.0895 43.3674C36.5532 42.3662 36.3175 41.0387 35.3903 40.0223L28.1777 32.1714C26.9845 30.8667 25.092 30.6391 23.9976 31.6404V31.6556ZM25.13 43.9515C24.9856 43.9288 24.8336 43.8984 24.674 43.8681C24.712 44.0425 24.7348 44.2018 24.7728 44.3687C24.9248 45.1879 24.9932 45.9996 24.978 46.796C24.978 47.1753 24.712 47.3953 24.3396 47.3194C23.9672 47.2512 23.6936 46.9174 23.7012 46.523C23.7012 45.5596 23.5948 44.5887 23.344 43.6026C23.3212 43.5191 23.2832 43.4812 23.2072 43.4509C22.6523 43.2309 22.0899 43.0109 21.5351 42.7682C21.1627 42.6013 20.9651 42.2145 21.0639 41.8959C21.1627 41.5697 21.5123 41.4635 21.8847 41.6379C22.1887 41.7745 22.4927 41.911 22.8348 42.0552C22.5687 41.3876 22.2647 40.7884 21.9075 40.174C21.8543 40.2195 21.8087 40.2498 21.7631 40.2877L19.9999 41.8428C19.7719 42.0476 19.4755 42.0476 19.2094 41.8428C18.8522 41.5773 18.7686 41.0994 19.0422 40.8491L20.2051 39.8174C20.2811 39.7517 20.276 39.6733 20.1899 39.5823L19.8631 39.2182C19.5971 38.9224 19.5743 38.5355 19.8099 38.3231C20.0379 38.1107 20.4255 38.1562 20.6991 38.4445C20.8511 38.6114 21.0031 38.7782 21.1703 38.9603L22.4395 37.8225C22.7131 37.5873 23.1008 37.6329 23.3744 37.9363C23.648 38.2397 23.6404 38.619 23.382 38.8617C23.2148 39.0134 23.04 39.1651 22.8652 39.3092C22.8044 39.3623 22.7891 39.4078 22.85 39.4913C23.4276 40.4167 23.8836 41.3876 24.2332 42.3889C24.2636 42.4799 24.3016 42.5179 24.3928 42.533C24.636 42.5786 24.8792 42.6316 25.13 42.6847C25.5328 42.7682 25.814 43.0792 25.814 43.4509C25.814 43.8074 25.5252 44.0122 25.1224 43.9363L25.13 43.9515ZM31.8942 42.7378C31.7346 42.9426 31.4382 42.9882 31.1418 42.8516C30.8378 42.7151 30.5338 42.571 30.2374 42.4193C30.1538 42.3813 30.1082 42.3813 30.055 42.4344C29.3861 43.0033 28.7249 43.5646 28.0637 44.1108C28.0029 44.1563 27.9953 44.2094 28.0181 44.3004C28.1321 44.6114 28.2461 44.93 28.3525 45.2486C28.4513 45.5672 28.3221 45.8555 28.0409 45.9465C27.7597 46.0375 27.4177 45.901 27.2201 45.6127C27.1669 45.5444 27.1365 45.461 27.1061 45.3776C26.6045 43.9515 26.1028 42.5254 25.5936 41.0994C25.4416 40.6518 25.282 40.2119 25.13 39.7644C25.0388 39.4989 25.0768 39.2637 25.2896 39.0817C25.4492 38.9603 25.6772 38.9375 25.9432 39.0665C27.2505 39.6809 28.5653 40.2953 29.8954 40.9173C30.4426 41.1752 30.9898 41.4256 31.537 41.691C31.993 41.911 32.1602 42.4117 31.9018 42.7378H31.8942ZM27.4709 42.753L28.7097 41.7062C28.0637 41.4028 27.4329 41.0994 26.7793 40.796C27.0149 41.4635 27.2353 42.1007 27.4709 42.753Z" fill="url(#paint46_linear_7027_5082)"/>
<defs>
<linearGradient id="paint0_linear_7027_5082" x1="8.78601" y1="13.2644" x2="55.7463" y2="34.2149" gradientUnits="userSpaceOnUse">
<stop stop-color="#222838"/>
<stop offset="0.04" stop-color="#1C2131"/>
<stop offset="0.16" stop-color="#111523"/>
<stop offset="0.26" stop-color="#0E111F"/>
<stop offset="0.41" stop-color="#121625"/>
<stop offset="0.62" stop-color="#1E2439"/>
<stop offset="0.78" stop-color="#2B344D"/>
<stop offset="0.87" stop-color="#2C354F"/>
<stop offset="0.92" stop-color="#303B58"/>
<stop offset="0.97" stop-color="#364567"/>
<stop offset="1" stop-color="#3D4E75"/>
</linearGradient>
<linearGradient id="paint1_linear_7027_5082" x1="-5.88633" y1="24.1614" x2="53.8073" y2="49.9074" gradientUnits="userSpaceOnUse">
<stop offset="0.16" stop-color="#111421"/>
<stop offset="0.38" stop-color="#151927"/>
<stop offset="0.7" stop-color="#20273B"/>
<stop offset="0.8" stop-color="#252D42"/>
<stop offset="0.85" stop-color="#273046"/>
<stop offset="0.9" stop-color="#2E3953"/>
<stop offset="0.96" stop-color="#3A4869"/>
<stop offset="1" stop-color="#475880"/>
</linearGradient>
<linearGradient id="paint2_linear_7027_5082" x1="53.2628" y1="44.1102" x2="0.450107" y2="32.0977" gradientUnits="userSpaceOnUse">
<stop offset="0.02" stop-color="white"/>
<stop offset="0.07" stop-color="#D3F8FF"/>
<stop offset="0.14" stop-color="#9AF0FF"/>
<stop offset="0.46" stop-color="white" stop-opacity="0"/>
</linearGradient>
<linearGradient id="paint3_linear_7027_5082" x1="45.8188" y1="34.3777" x2="13.5463" y2="27.5944" gradientUnits="userSpaceOnUse">
<stop stop-color="#222838"/>
<stop offset="0.04" stop-color="#1C2131"/>
<stop offset="0.16" stop-color="#111523"/>
<stop offset="0.26" stop-color="#0E111F"/>
<stop offset="0.41" stop-color="#121625"/>
<stop offset="0.62" stop-color="#1E2439"/>
<stop offset="0.78" stop-color="#2B344D"/>
<stop offset="0.85" stop-color="#2C364F"/>
<stop offset="0.9" stop-color="#333D58"/>
<stop offset="0.94" stop-color="#3D4967"/>
<stop offset="0.97" stop-color="#4C5A7C"/>
<stop offset="1" stop-color="#5B6B91"/>
</linearGradient>
<linearGradient id="paint4_linear_7027_5082" x1="39.431" y1="34.4392" x2="15.6205" y2="50.0279" gradientUnits="userSpaceOnUse">
<stop stop-color="#222838"/>
<stop offset="0.04" stop-color="#1C2131"/>
<stop offset="0.16" stop-color="#111523"/>
<stop offset="0.26" stop-color="#0E111F"/>
<stop offset="0.41" stop-color="#121625"/>
<stop offset="0.62" stop-color="#1E2439"/>
<stop offset="0.78" stop-color="#2B344D"/>
<stop offset="0.85" stop-color="#2C364F"/>
<stop offset="0.9" stop-color="#333D58"/>
<stop offset="0.94" stop-color="#3D4967"/>
<stop offset="0.97" stop-color="#4C5A7C"/>
<stop offset="1" stop-color="#5B6B91"/>
</linearGradient>
<linearGradient id="paint5_linear_7027_5082" x1="39.3227" y1="33.6802" x2="18.8678" y2="28.4195" gradientUnits="userSpaceOnUse">
<stop stop-color="#1E77A8"/>
<stop offset="0.5" stop-color="#006996"/>
<stop offset="0.62" stop-color="#006692"/>
<stop offset="0.73" stop-color="#005E87"/>
<stop offset="0.84" stop-color="#005174"/>
<stop offset="0.94" stop-color="#003E59"/>
<stop offset="0.97" stop-color="#003952"/>
</linearGradient>
<linearGradient id="paint6_linear_7027_5082" x1="36.8068" y1="43.4423" x2="16.3519" y2="38.1816" gradientUnits="userSpaceOnUse">
<stop stop-color="#1E77A8"/>
<stop offset="0.5" stop-color="#006996"/>
<stop offset="0.62" stop-color="#006692"/>
<stop offset="0.73" stop-color="#005E87"/>
<stop offset="0.84" stop-color="#005174"/>
<stop offset="0.94" stop-color="#003E59"/>
<stop offset="0.97" stop-color="#003952"/>
</linearGradient>
<linearGradient id="paint7_linear_7027_5082" x1="39.2966" y1="33.7486" x2="18.8417" y2="28.4879" gradientUnits="userSpaceOnUse">
<stop stop-color="#267DAD"/>
<stop offset="0.5" stop-color="#076F9B"/>
<stop offset="0.62" stop-color="#066C97"/>
<stop offset="0.74" stop-color="#06648C"/>
<stop offset="0.85" stop-color="#055679"/>
<stop offset="0.96" stop-color="#04425E"/>
<stop offset="0.97" stop-color="#04405B"/>
<stop offset="1" stop-color="#04405B"/>
</linearGradient>
<linearGradient id="paint8_linear_7027_5082" x1="36.7809" y1="43.5183" x2="16.3337" y2="38.2499" gradientUnits="userSpaceOnUse">
<stop stop-color="#267DAD"/>
<stop offset="0.5" stop-color="#076F9B"/>
<stop offset="0.62" stop-color="#066C97"/>
<stop offset="0.74" stop-color="#06648C"/>
<stop offset="0.85" stop-color="#055679"/>
<stop offset="0.96" stop-color="#04425E"/>
<stop offset="0.97" stop-color="#04405B"/>
<stop offset="1" stop-color="#04405B"/>
</linearGradient>
<linearGradient id="paint9_linear_7027_5082" x1="39.2648" y1="33.8167" x2="18.8176" y2="28.556" gradientUnits="userSpaceOnUse">
<stop stop-color="#2E83B1"/>
<stop offset="0.5" stop-color="#0E74A1"/>
<stop offset="0.63" stop-color="#0D719D"/>
<stop offset="0.74" stop-color="#0C6892"/>
<stop offset="0.86" stop-color="#0A5B7F"/>
<stop offset="0.97" stop-color="#084764"/>
<stop offset="1" stop-color="#084764"/>
</linearGradient>
<linearGradient id="paint10_linear_7027_5082" x1="36.7566" y1="43.5864" x2="16.3017" y2="38.318" gradientUnits="userSpaceOnUse">
<stop stop-color="#2E83B1"/>
<stop offset="0.5" stop-color="#0E74A1"/>
<stop offset="0.63" stop-color="#0D719D"/>
<stop offset="0.74" stop-color="#0C6892"/>
<stop offset="0.86" stop-color="#0A5B7F"/>
<stop offset="0.97" stop-color="#084764"/>
<stop offset="1" stop-color="#084764"/>
</linearGradient>
<linearGradient id="paint11_linear_7027_5082" x1="39.2407" y1="33.8936" x2="18.7858" y2="28.6253" gradientUnits="userSpaceOnUse">
<stop stop-color="#3789B6"/>
<stop offset="0.5" stop-color="#157AA6"/>
<stop offset="0.63" stop-color="#1477A2"/>
<stop offset="0.75" stop-color="#126E97"/>
<stop offset="0.87" stop-color="#0F5F84"/>
<stop offset="0.97" stop-color="#0C4E6D"/>
<stop offset="1" stop-color="#0C4E6D"/>
</linearGradient>
<linearGradient id="paint12_linear_7027_5082" x1="36.7248" y1="43.6557" x2="16.27" y2="38.3874" gradientUnits="userSpaceOnUse">
<stop stop-color="#3789B6"/>
<stop offset="0.5" stop-color="#157AA6"/>
<stop offset="0.63" stop-color="#1477A2"/>
<stop offset="0.75" stop-color="#126E97"/>
<stop offset="0.87" stop-color="#0F5F84"/>
<stop offset="0.97" stop-color="#0C4E6D"/>
<stop offset="1" stop-color="#0C4E6D"/>
</linearGradient>
<linearGradient id="paint13_linear_7027_5082" x1="39.2087" y1="33.9607" x2="18.7539" y2="28.6924" gradientUnits="userSpaceOnUse">
<stop stop-color="#3F8FBA"/>
<stop offset="0.5" stop-color="#1B7FAC"/>
<stop offset="0.63" stop-color="#1A7CA8"/>
<stop offset="0.76" stop-color="#17739D"/>
<stop offset="0.88" stop-color="#14648A"/>
<stop offset="0.97" stop-color="#105576"/>
<stop offset="1" stop-color="#0F5576"/>
</linearGradient>
<linearGradient id="paint14_linear_7027_5082" x1="36.6936" y1="43.7226" x2="16.2463" y2="38.4543" gradientUnits="userSpaceOnUse">
<stop stop-color="#3F8FBA"/>
<stop offset="0.5" stop-color="#1B7FAC"/>
<stop offset="0.63" stop-color="#1A7CA8"/>
<stop offset="0.76" stop-color="#17739D"/>
<stop offset="0.88" stop-color="#14648A"/>
<stop offset="0.97" stop-color="#105576"/>
<stop offset="1" stop-color="#0F5576"/>
</linearGradient>
<linearGradient id="paint15_linear_7027_5082" x1="39.189" y1="34.0301" x2="18.7341" y2="28.7617" gradientUnits="userSpaceOnUse">
<stop stop-color="#4795BF"/>
<stop offset="0.5" stop-color="#2285B1"/>
<stop offset="0.64" stop-color="#2081AD"/>
<stop offset="0.77" stop-color="#1D78A2"/>
<stop offset="0.89" stop-color="#18698F"/>
<stop offset="0.97" stop-color="#145C7F"/>
<stop offset="1" stop-color="#135B7F"/>
</linearGradient>
<linearGradient id="paint16_linear_7027_5082" x1="36.6731" y1="43.7922" x2="16.2183" y2="38.5238" gradientUnits="userSpaceOnUse">
<stop stop-color="#4795BF"/>
<stop offset="0.5" stop-color="#2285B1"/>
<stop offset="0.64" stop-color="#2081AD"/>
<stop offset="0.77" stop-color="#1D78A2"/>
<stop offset="0.89" stop-color="#18698F"/>
<stop offset="0.97" stop-color="#145C7F"/>
<stop offset="1" stop-color="#135B7F"/>
</linearGradient>
<linearGradient id="paint17_linear_7027_5082" x1="39.1573" y1="34.0977" x2="18.7025" y2="28.8294" gradientUnits="userSpaceOnUse">
<stop stop-color="#4F9BC3"/>
<stop offset="0.5" stop-color="#298AB7"/>
<stop offset="0.64" stop-color="#2786B3"/>
<stop offset="0.77" stop-color="#237DA8"/>
<stop offset="0.9" stop-color="#1C6E95"/>
<stop offset="0.97" stop-color="#186388"/>
<stop offset="1" stop-color="#176288"/>
</linearGradient>
<linearGradient id="paint18_linear_7027_5082" x1="36.6415" y1="43.8598" x2="16.1866" y2="38.5915" gradientUnits="userSpaceOnUse">
<stop stop-color="#4F9BC3"/>
<stop offset="0.5" stop-color="#298AB7"/>
<stop offset="0.64" stop-color="#2786B3"/>
<stop offset="0.77" stop-color="#237DA8"/>
<stop offset="0.9" stop-color="#1C6E95"/>
<stop offset="0.97" stop-color="#186388"/>
<stop offset="1" stop-color="#176288"/>
</linearGradient>
<linearGradient id="paint19_linear_7027_5082" x1="39.1253" y1="34.1665" x2="18.6781" y2="28.8982" gradientUnits="userSpaceOnUse">
<stop stop-color="#57A1C8"/>
<stop offset="0.5" stop-color="#3090BC"/>
<stop offset="0.65" stop-color="#2E8CB8"/>
<stop offset="0.79" stop-color="#2982AD"/>
<stop offset="0.92" stop-color="#20729A"/>
<stop offset="0.97" stop-color="#1C6A91"/>
<stop offset="1" stop-color="#1B6991"/>
</linearGradient>
<linearGradient id="paint20_linear_7027_5082" x1="36.6102" y1="43.9286" x2="16.163" y2="38.6603" gradientUnits="userSpaceOnUse">
<stop stop-color="#57A1C8"/>
<stop offset="0.5" stop-color="#3090BC"/>
<stop offset="0.65" stop-color="#2E8CB8"/>
<stop offset="0.79" stop-color="#2982AD"/>
<stop offset="0.92" stop-color="#20729A"/>
<stop offset="0.97" stop-color="#1C6A91"/>
<stop offset="1" stop-color="#1B6991"/>
</linearGradient>
<linearGradient id="paint21_linear_7027_5082" x1="39.1041" y1="34.2347" x2="18.6493" y2="28.9663" gradientUnits="userSpaceOnUse">
<stop stop-color="#60A7CD"/>
<stop offset="0.5" stop-color="#3796C2"/>
<stop offset="0.65" stop-color="#3492BE"/>
<stop offset="0.8" stop-color="#2E88B3"/>
<stop offset="0.93" stop-color="#2376A0"/>
<stop offset="0.97" stop-color="#20719A"/>
<stop offset="1" stop-color="#1F709A"/>
</linearGradient>
<linearGradient id="paint22_linear_7027_5082" x1="36.5883" y1="43.9968" x2="16.1335" y2="38.7284" gradientUnits="userSpaceOnUse">
<stop stop-color="#60A7CD"/>
<stop offset="0.5" stop-color="#3796C2"/>
<stop offset="0.65" stop-color="#3492BE"/>
<stop offset="0.8" stop-color="#2E88B3"/>
<stop offset="0.93" stop-color="#2376A0"/>
<stop offset="0.97" stop-color="#20719A"/>
<stop offset="1" stop-color="#1F709A"/>
</linearGradient>
<linearGradient id="paint23_linear_7027_5082" x1="39.0768" y1="34.3028" x2="18.622" y2="29.0344" gradientUnits="userSpaceOnUse">
<stop stop-color="#68ADD1"/>
<stop offset="0.5" stop-color="#3E9BC7"/>
<stop offset="0.66" stop-color="#3B97C3"/>
<stop offset="0.81" stop-color="#338CB8"/>
<stop offset="0.96" stop-color="#257AA5"/>
<stop offset="0.97" stop-color="#2478A3"/>
<stop offset="1" stop-color="#2377A3"/>
</linearGradient>
<linearGradient id="paint24_linear_7027_5082" x1="36.5609" y1="44.0649" x2="16.1137" y2="38.7965" gradientUnits="userSpaceOnUse">
<stop stop-color="#68ADD1"/>
<stop offset="0.5" stop-color="#3E9BC7"/>
<stop offset="0.66" stop-color="#3B97C3"/>
<stop offset="0.81" stop-color="#338CB8"/>
<stop offset="0.96" stop-color="#257AA5"/>
<stop offset="0.97" stop-color="#2478A3"/>
<stop offset="1" stop-color="#2377A3"/>
</linearGradient>
<linearGradient id="paint25_linear_7027_5082" x1="39.0419" y1="34.3704" x2="18.5947" y2="29.1021" gradientUnits="userSpaceOnUse">
<stop stop-color="#70B4D6"/>
<stop offset="0.5" stop-color="#44A1CD"/>
<stop offset="0.66" stop-color="#419DC9"/>
<stop offset="0.82" stop-color="#3892BE"/>
<stop offset="0.96" stop-color="#297FAC"/>
<stop offset="0.97" stop-color="#287EAB"/>
<stop offset="1" stop-color="#267EAB"/>
</linearGradient>
<linearGradient id="paint26_linear_7027_5082" x1="36.5344" y1="44.1325" x2="16.0796" y2="38.8641" gradientUnits="userSpaceOnUse">
<stop stop-color="#70B4D6"/>
<stop offset="0.5" stop-color="#44A1CD"/>
<stop offset="0.66" stop-color="#419DC9"/>
<stop offset="0.82" stop-color="#3892BE"/>
<stop offset="0.96" stop-color="#297FAC"/>
<stop offset="0.97" stop-color="#287EAB"/>
<stop offset="1" stop-color="#267EAB"/>
</linearGradient>
<linearGradient id="paint27_linear_7027_5082" x1="39.0173" y1="34.4383" x2="18.5625" y2="29.1699" gradientUnits="userSpaceOnUse">
<stop stop-color="#78BADA"/>
<stop offset="0.5" stop-color="#4BA6D2"/>
<stop offset="0.67" stop-color="#47A2CE"/>
<stop offset="0.82" stop-color="#3C97C4"/>
<stop offset="0.97" stop-color="#2C85B4"/>
<stop offset="1" stop-color="#2A85B4"/>
</linearGradient>
<linearGradient id="paint28_linear_7027_5082" x1="36.5014" y1="44.2004" x2="16.0466" y2="38.9396" gradientUnits="userSpaceOnUse">
<stop stop-color="#78BADA"/>
<stop offset="0.5" stop-color="#4BA6D2"/>
<stop offset="0.67" stop-color="#47A2CE"/>
<stop offset="0.82" stop-color="#3C97C4"/>
<stop offset="0.97" stop-color="#2C85B4"/>
<stop offset="1" stop-color="#2A85B4"/>
</linearGradient>
<linearGradient id="paint29_linear_7027_5082" x1="38.9885" y1="34.5076" x2="18.5337" y2="29.2393" gradientUnits="userSpaceOnUse">
<stop stop-color="#81C0DF"/>
<stop offset="0.5" stop-color="#52ACD8"/>
<stop offset="0.67" stop-color="#4EA8D5"/>
<stop offset="0.82" stop-color="#439DCC"/>
<stop offset="0.97" stop-color="#308CBD"/>
<stop offset="1" stop-color="#2E8CBD"/>
</linearGradient>
<linearGradient id="paint30_linear_7027_5082" x1="36.4727" y1="44.2697" x2="16.0254" y2="39.009" gradientUnits="userSpaceOnUse">
<stop stop-color="#81C0DF"/>
<stop offset="0.5" stop-color="#52ACD8"/>
<stop offset="0.67" stop-color="#4EA8D5"/>
<stop offset="0.82" stop-color="#439DCC"/>
<stop offset="0.97" stop-color="#308CBD"/>
<stop offset="1" stop-color="#2E8CBD"/>
</linearGradient>
<linearGradient id="paint31_linear_7027_5082" x1="38.9599" y1="34.575" x2="18.5127" y2="29.3143" gradientUnits="userSpaceOnUse">
<stop stop-color="#89C6E4"/>
<stop offset="0.5" stop-color="#59B2DD"/>
<stop offset="0.66" stop-color="#55AEDA"/>
<stop offset="0.81" stop-color="#4AA5D3"/>
<stop offset="0.95" stop-color="#3795C8"/>
<stop offset="0.97" stop-color="#3493C6"/>
<stop offset="1" stop-color="#3293C6"/>
</linearGradient>
<linearGradient id="paint32_linear_7027_5082" x1="36.4517" y1="44.3371" x2="15.9968" y2="39.0763" gradientUnits="userSpaceOnUse">
<stop stop-color="#89C6E4"/>
<stop offset="0.5" stop-color="#59B2DD"/>
<stop offset="0.66" stop-color="#55AEDA"/>
<stop offset="0.81" stop-color="#4AA5D3"/>
<stop offset="0.95" stop-color="#3795C8"/>
<stop offset="0.97" stop-color="#3493C6"/>
<stop offset="1" stop-color="#3293C6"/>
</linearGradient>
<linearGradient id="paint33_linear_7027_5082" x1="38.9403" y1="34.6438" x2="18.4854" y2="29.3831" gradientUnits="userSpaceOnUse">
<stop stop-color="#91CCE8"/>
<stop offset="0.5" stop-color="#60B7E3"/>
<stop offset="0.65" stop-color="#5CB4E1"/>
<stop offset="0.8" stop-color="#51ACDB"/>
<stop offset="0.93" stop-color="#3E9ED2"/>
<stop offset="0.97" stop-color="#389ACF"/>
<stop offset="1" stop-color="#369ACF"/>
</linearGradient>
<linearGradient id="paint34_linear_7027_5082" x1="36.4244" y1="44.4059" x2="15.9696" y2="39.1452" gradientUnits="userSpaceOnUse">
<stop stop-color="#91CCE8"/>
<stop offset="0.5" stop-color="#60B7E3"/>
<stop offset="0.65" stop-color="#5CB4E1"/>
<stop offset="0.8" stop-color="#51ACDB"/>
<stop offset="0.93" stop-color="#3E9ED2"/>
<stop offset="0.97" stop-color="#389ACF"/>
<stop offset="1" stop-color="#369ACF"/>
</linearGradient>
<linearGradient id="paint35_linear_7027_5082" x1="38.9081" y1="34.7115" x2="18.4533" y2="29.4507" gradientUnits="userSpaceOnUse">
<stop stop-color="#99D2ED"/>
<stop offset="0.5" stop-color="#67BDE8"/>
<stop offset="0.65" stop-color="#63BAE6"/>
<stop offset="0.79" stop-color="#58B3E2"/>
<stop offset="0.92" stop-color="#45A7DB"/>
<stop offset="0.97" stop-color="#3CA1D8"/>
<stop offset="1" stop-color="#3AA0D8"/>
</linearGradient>
<linearGradient id="paint36_linear_7027_5082" x1="36.3932" y1="44.4736" x2="15.9459" y2="39.2128" gradientUnits="userSpaceOnUse">
<stop stop-color="#99D2ED"/>
<stop offset="0.5" stop-color="#67BDE8"/>
<stop offset="0.65" stop-color="#63BAE6"/>
<stop offset="0.79" stop-color="#58B3E2"/>
<stop offset="0.92" stop-color="#45A7DB"/>
<stop offset="0.97" stop-color="#3CA1D8"/>
<stop offset="1" stop-color="#3AA0D8"/>
</linearGradient>
<linearGradient id="paint37_linear_7027_5082" x1="38.8808" y1="34.7798" x2="18.4259" y2="29.5191" gradientUnits="userSpaceOnUse">
<stop stop-color="#A1D8F1"/>
<stop offset="0.5" stop-color="#6DC2EE"/>
<stop offset="0.65" stop-color="#69BFEC"/>
<stop offset="0.78" stop-color="#5EB9E9"/>
<stop offset="0.91" stop-color="#4BAEE4"/>
<stop offset="0.97" stop-color="#40A8E1"/>
<stop offset="1" stop-color="#3DA7E1"/>
</linearGradient>
<linearGradient id="paint38_linear_7027_5082" x1="36.3649" y1="44.5495" x2="15.9101" y2="39.2812" gradientUnits="userSpaceOnUse">
<stop stop-color="#A1D8F1"/>
<stop offset="0.5" stop-color="#6DC2EE"/>
<stop offset="0.65" stop-color="#69BFEC"/>
<stop offset="0.78" stop-color="#5EB9E9"/>
<stop offset="0.91" stop-color="#4BAEE4"/>
<stop offset="0.97" stop-color="#40A8E1"/>
<stop offset="1" stop-color="#3DA7E1"/>
</linearGradient>
<linearGradient id="paint39_linear_7027_5082" x1="38.8519" y1="34.8496" x2="18.3971" y2="29.5889" gradientUnits="userSpaceOnUse">
<stop stop-color="#AADEF6"/>
<stop offset="0.5" stop-color="#74C8F3"/>
<stop offset="0.64" stop-color="#70C6F2"/>
<stop offset="0.77" stop-color="#65C0F0"/>
<stop offset="0.9" stop-color="#52B6EC"/>
<stop offset="0.97" stop-color="#44AFEA"/>
<stop offset="1" stop-color="#41AEEA"/>
</linearGradient>
<linearGradient id="paint40_linear_7027_5082" x1="36.3361" y1="44.6193" x2="15.8813" y2="39.351" gradientUnits="userSpaceOnUse">
<stop stop-color="#AADEF6"/>
<stop offset="0.5" stop-color="#74C8F3"/>
<stop offset="0.64" stop-color="#70C6F2"/>
<stop offset="0.77" stop-color="#65C0F0"/>
<stop offset="0.9" stop-color="#52B6EC"/>
<stop offset="0.97" stop-color="#44AFEA"/>
<stop offset="1" stop-color="#41AEEA"/>
</linearGradient>
<linearGradient id="paint41_linear_7027_5082" x1="38.8234" y1="34.9244" x2="18.3761" y2="29.656" gradientUnits="userSpaceOnUse">
<stop stop-color="#B2E4FA"/>
<stop offset="0.5" stop-color="#7BCDF9"/>
<stop offset="0.64" stop-color="#77CBF8"/>
<stop offset="0.76" stop-color="#6CC6F7"/>
<stop offset="0.89" stop-color="#59BDF5"/>
<stop offset="0.97" stop-color="#48B6F3"/>
<stop offset="1" stop-color="#45B5F3"/>
</linearGradient>
<linearGradient id="paint42_linear_7027_5082" x1="36.3159" y1="44.6865" x2="15.861" y2="39.4181" gradientUnits="userSpaceOnUse">
<stop stop-color="#B2E4FA"/>
<stop offset="0.5" stop-color="#7BCDF9"/>
<stop offset="0.64" stop-color="#77CBF8"/>
<stop offset="0.76" stop-color="#6CC6F7"/>
<stop offset="0.89" stop-color="#59BDF5"/>
<stop offset="0.97" stop-color="#48B6F3"/>
<stop offset="1" stop-color="#45B5F3"/>
</linearGradient>
<linearGradient id="paint43_linear_7027_5082" x1="38.7988" y1="34.9927" x2="18.3439" y2="29.7244" gradientUnits="userSpaceOnUse">
<stop stop-color="#BAEAFF"/>
<stop offset="1" stop-color="#49BCFC"/>
</linearGradient>
<linearGradient id="paint44_linear_7027_5082" x1="36.2829" y1="44.7548" x2="15.8281" y2="39.4865" gradientUnits="userSpaceOnUse">
<stop stop-color="#BAEAFF"/>
<stop offset="1" stop-color="#49BCFC"/>
</linearGradient>
<linearGradient id="paint45_linear_7027_5082" x1="38.803" y1="34.993" x2="18.3482" y2="29.7246" gradientUnits="userSpaceOnUse">
<stop stop-color="#2DB2FC"/>
<stop offset="0.97" stop-color="#006794"/>
</linearGradient>
<linearGradient id="paint46_linear_7027_5082" x1="36.2871" y1="44.7556" x2="15.8323" y2="39.4872" gradientUnits="userSpaceOnUse">
<stop stop-color="#2DB2FC"/>
<stop offset="0.97" stop-color="#006794"/>
</linearGradient>
</defs>
</svg>
