<svg width="64" height="60" viewBox="0 0 64 60" fill="none" xmlns="http://www.w3.org/2000/svg">
<path d="M51.0791 49.3006C48.6502 53.4428 43.8767 57.2168 40.4739 57.6877L24.4097 59.8978C22.3777 60.1272 20.4298 58.9558 19.6362 58.0682C18.6923 57.0115 3.07907 40.0379 1.93678 38.7819L30.2775 27.6292C32.7063 23.4869 28.8105 12.5818 32.2193 12.1108L45.055 2.18994C45.8246 3.28287 61.2274 19.7855 61.6903 20.2806C63.4278 22.1585 65.1652 25.0448 62.7003 29.4769L51.0791 49.3006Z" fill="url(#paint0_linear_7032_6637)"/>
<path d="M43.9308 7.73296L31.7985 28.4322C29.3696 32.5744 24.5961 36.3484 21.1933 36.8193L4.17926 39.1622C0.776458 39.6332 -0.0231414 36.6261 2.40572 32.4839L14.538 11.7786C16.9668 7.63635 21.7404 3.86242 25.1432 3.39144L42.1572 1.04859C45.56 0.5776 46.3596 3.58466 43.9308 7.73296Z" fill="url(#paint1_radial_7032_6637)" stroke="url(#paint2_linear_7032_6637)" stroke-width="0.27" stroke-miterlimit="10"/>
<path d="M26.3215 23.2453C25.6963 23.8975 24.8606 24.2416 24.4518 24.0122L21.8005 22.5509C21.4818 22.4181 21.4458 21.9954 21.7584 21.4701L25.2874 15.4741C25.6903 14.7857 26.5259 14.1698 27.1572 14.0973C27.7884 14.0249 27.9688 14.5261 27.56 15.2205L24.4758 20.4496L26.7183 21.6633C27.1331 21.8867 26.9528 22.5992 26.3275 23.2514L26.3215 23.2453ZM29.3275 10.7219C24.1812 11.362 17.5019 16.3677 14.3155 21.8626C11.1592 27.297 12.4818 31.3789 17.3576 31.0347C22.2333 30.6905 29.2854 25.7874 32.7123 20.0632C36.1812 14.2664 34.6241 10.0638 29.3335 10.7219H29.3275Z" fill="url(#paint3_linear_7032_6637)"/>
<path d="M26.2794 23.2031C25.6542 23.8552 24.8185 24.1994 24.4097 23.97L21.7584 22.5087C21.4397 22.3758 21.4037 21.9532 21.7163 21.4278L25.2454 15.4318C25.6482 14.7435 26.4838 14.1276 27.1151 14.0551C27.7464 13.9826 27.9267 14.4838 27.5179 15.1782L24.4337 20.4074L26.6762 21.6211C27.091 21.8445 26.9107 22.557 26.2854 23.2091L26.2794 23.2031ZM29.2794 10.6797C24.1331 11.3198 17.4538 16.3255 14.2674 21.8203C11.081 27.3152 12.4337 31.3366 17.3095 30.9925C22.1852 30.6483 29.2373 25.7452 32.6642 20.0209C36.1331 14.2242 34.576 10.0215 29.2854 10.6797H29.2794Z" fill="url(#paint4_linear_7032_6637)"/>
<path d="M26.2373 23.1609C25.6121 23.813 24.7764 24.1572 24.3676 23.9277L21.7163 22.4665C21.3977 22.3336 21.3616 21.9109 21.6742 21.3856L25.2033 15.3896C25.6061 14.7012 26.4417 14.0853 27.073 14.0129C27.7043 13.9404 27.8846 14.4416 27.4758 15.136L24.3916 20.3651L26.6341 21.5788C27.049 21.8022 26.8686 22.5148 26.2434 23.1669L26.2373 23.1609ZM29.2373 10.6375C24.091 11.2775 17.4117 16.2833 14.2253 21.7781C11.0389 27.2729 12.3917 31.2944 17.2674 30.9502C22.2754 30.594 29.1953 25.703 32.6221 19.9787C36.091 14.1819 34.5339 9.9793 29.2434 10.6375H29.2373Z" fill="url(#paint5_linear_7032_6637)"/>
<path d="M26.1953 23.1247C25.57 23.7768 24.7343 24.121 24.3255 23.8915L21.6742 22.4303C21.3556 22.2974 21.3195 21.8747 21.6321 21.3494L25.1612 15.3534C25.564 14.665 26.3997 14.0491 27.0309 13.9767C27.6622 13.9042 27.8426 14.4054 27.4337 15.0998L24.3496 20.3289L26.5921 21.5426C27.0069 21.766 26.8265 22.4786 26.2013 23.1307L26.1953 23.1247ZM29.1953 10.5952C24.049 11.2353 17.3696 16.241 14.1832 21.7359C10.9969 27.2307 12.3496 31.2522 17.2253 30.908C22.1011 30.5638 29.1532 25.6607 32.58 19.9364C36.049 14.1397 34.4918 9.93706 29.2013 10.5952H29.1953Z" fill="url(#paint6_linear_7032_6637)"/>
<path d="M26.1472 23.0822C25.5219 23.7343 24.6862 24.0785 24.2774 23.849L21.6261 22.3878C21.3075 22.2549 21.2714 21.8323 21.584 21.3069L25.1131 15.3109C25.5159 14.6226 26.3516 14.0066 26.9828 13.9342C27.6141 13.8617 27.7945 14.3629 27.3856 15.0573L24.3015 20.2865L26.5439 21.5001C26.9588 21.7236 26.7784 22.4361 26.1532 23.0882L26.1472 23.0822ZM29.1532 10.5528C24.0069 11.1928 17.3275 16.1985 14.1411 21.6934C10.9848 27.1278 12.3075 31.2097 17.1832 30.8655C22.059 30.5213 29.1111 25.6183 32.5379 19.894C36.0069 14.0972 34.4498 9.89458 29.1592 10.5528H29.1532Z" fill="url(#paint7_linear_7032_6637)"/>
<path d="M26.1051 23.04C25.4798 23.6921 24.6441 24.0363 24.2353 23.8069L21.584 22.3456C21.2654 22.2128 21.2293 21.7901 21.5419 21.2648L25.071 15.2687C25.4738 14.5804 26.3095 13.9645 26.9407 13.892C27.572 13.8196 27.7524 14.3207 27.3435 15.0151L24.2594 20.2443L26.5019 21.458C26.9167 21.6814 26.7363 22.3939 26.1111 23.046L26.1051 23.04ZM29.1051 10.5166C23.9588 11.1567 17.2794 16.1624 14.093 21.6572C10.9367 27.0917 12.2594 31.1736 17.1351 30.8294C22.0109 30.4852 29.063 25.5821 32.4898 19.8578C35.9588 14.0611 34.4017 9.85845 29.1111 10.5166H29.1051Z" fill="url(#paint8_linear_7032_6637)"/>
<path d="M26.063 22.9978C25.4377 23.6499 24.6021 23.9941 24.1932 23.7646L21.5419 22.3034C21.2233 22.1705 21.1872 21.7478 21.4999 21.2225L25.0289 15.2265C25.4317 14.5381 26.2674 13.9222 26.8987 13.8498C27.5299 13.7773 27.7103 14.2785 27.3015 14.9729L24.2173 20.202L26.4598 21.4157C26.8746 21.6392 26.6943 22.3517 26.069 23.0038L26.063 22.9978ZM29.063 10.4744C23.9167 11.1144 17.2373 16.1202 14.051 21.615C10.8947 27.0495 12.2173 31.1313 17.093 30.7871C21.9688 30.443 29.0209 25.5399 32.4478 19.8156C35.9167 14.0189 34.3596 9.81621 29.069 10.4744H29.063Z" fill="url(#paint9_linear_7032_6637)"/>
<path d="M26.0149 22.9616C25.3896 23.6137 24.554 23.9579 24.1452 23.7285L21.4939 22.2672C21.1752 22.1343 21.1391 21.7117 21.4518 21.1863L24.9808 15.1903C25.3836 14.502 26.2193 13.8861 26.8506 13.8136C27.4818 13.7411 27.6622 14.2423 27.2534 14.9367L24.1692 20.1659L26.4117 21.3796C26.8265 21.603 26.6462 22.3155 26.0209 22.9676L26.0149 22.9616ZM29.0209 10.4322C23.8746 11.0722 17.1953 16.078 14.0089 21.5728C10.8526 27.0072 12.1752 31.0891 17.051 30.7449C22.059 30.3887 28.9788 25.4977 32.4057 19.7734C35.8325 14.0491 34.3175 9.77399 29.0269 10.4322H29.0209Z" fill="url(#paint10_linear_7032_6637)"/>
<path d="M25.9728 22.9193C25.3476 23.5715 24.5119 23.9156 24.1031 23.6862L21.4518 22.2249C21.1331 22.0921 21.0971 21.6694 21.4097 21.1441L24.9387 15.1481C25.3416 14.4597 26.1772 13.8438 26.8085 13.7713C27.4397 13.6989 27.6201 14.2001 27.2113 14.8945L24.1271 20.1236L26.3696 21.3373C26.7844 21.5607 26.6041 22.2732 25.9788 22.9254L25.9728 22.9193ZM28.9788 10.3899C23.8325 11.03 17.1532 16.0357 13.9668 21.5305C10.7804 27.0254 12.1331 31.0469 17.0089 30.7027C21.8846 30.3585 28.9367 25.4554 32.3636 19.7311C35.8325 13.9344 34.2754 9.73174 28.9848 10.3899H28.9788Z" fill="url(#paint11_linear_7032_6637)"/>
<path d="M25.9307 22.8769C25.3055 23.5291 24.4698 23.8732 24.061 23.6438L21.4097 22.1825C21.0911 22.0497 21.055 21.627 21.3676 21.1017L24.8967 15.1057C25.2995 14.4173 26.1351 13.8014 26.7664 13.7289C27.3977 13.6565 27.578 14.1576 27.1692 14.852L24.085 20.0812L26.3275 21.2949C26.7424 21.5183 26.562 22.2308 25.9367 22.883L25.9307 22.8769ZM28.9307 10.3535C23.7844 10.9936 17.1051 15.9993 13.9187 21.4942C10.7323 26.989 12.085 31.0105 16.9608 30.6663C21.8365 30.3221 28.8886 25.419 32.3155 19.6947C35.7844 13.898 34.2273 9.69536 28.9367 10.3535H28.9307Z" fill="url(#paint12_linear_7032_6637)"/>
<path d="M25.8886 22.8347C25.2634 23.4868 24.4277 23.831 24.0189 23.6015L21.3676 22.1403C21.049 22.0074 21.0129 21.5848 21.3255 21.0594L24.8546 15.0634C25.2574 14.3751 26.093 13.7592 26.7243 13.6867C27.3556 13.6142 27.5359 14.1154 27.1271 14.8098L24.0429 20.039L26.2854 21.2527C26.7003 21.4761 26.5199 22.1886 25.8947 22.8407L25.8886 22.8347ZM28.8886 10.3113C23.7423 10.9514 17.063 15.9571 13.8766 21.4519C10.7203 26.8864 12.043 30.9682 16.9187 30.6241C21.7945 30.2799 28.8466 25.3768 32.2734 19.6525C35.7424 13.8558 34.1852 9.65313 28.8947 10.3113H28.8886Z" fill="url(#paint13_linear_7032_6637)"/>
<path d="M25.8406 22.7924C25.2153 23.4446 24.3796 23.7888 23.9708 23.5593L21.3195 22.098C21.0009 21.9652 20.9648 21.5425 21.2774 21.0172L24.8065 15.0212C25.2093 14.3328 26.045 13.7169 26.6762 13.6445C27.3075 13.572 27.4878 14.0732 27.079 14.7676L23.9949 19.9967L26.2373 21.2104C26.6522 21.4338 26.4718 22.1464 25.8466 22.7985L25.8406 22.7924ZM28.8466 10.2691C23.7003 10.9091 17.0209 15.9148 13.8345 21.4097C10.6482 26.9045 12.0009 30.926 16.8766 30.5818C21.8846 30.2256 28.8045 25.3346 32.2313 19.6103C35.7003 13.8135 34.1432 9.61089 28.8526 10.2691H28.8466Z" fill="url(#paint14_linear_7032_6637)"/>
<path d="M25.7985 22.7562C25.1732 23.4084 24.3375 23.7526 23.9287 23.5231L21.2774 22.0618C20.9588 21.929 20.9227 21.5063 21.2353 20.981L24.7644 14.985C25.1672 14.2966 26.0029 13.6807 26.6341 13.6083C27.2654 13.5358 27.4458 14.037 27.0369 14.7314L23.9528 19.9605L26.1953 21.1742C26.6101 21.3976 26.4297 22.1102 25.8045 22.7623L25.7985 22.7562ZM28.7985 10.2268C23.6522 10.8669 16.9728 15.8726 13.7864 21.3674C10.6301 26.8019 11.9528 30.8838 16.8285 30.5396C21.7043 30.1954 28.7564 25.2923 32.1832 19.568C35.6522 13.7713 34.0951 9.56865 28.8045 10.2268H28.7985Z" fill="url(#paint15_linear_7032_6637)"/>
<path d="M25.7564 22.714C25.1311 23.3661 24.2955 23.7103 23.8866 23.4809L21.2353 22.0196C20.9167 21.8868 20.8806 21.4641 21.1933 20.9388L24.7223 14.9427C25.1251 14.2544 25.9608 13.6385 26.592 13.566C27.2233 13.4936 27.4037 13.9947 26.9949 14.6891L23.9107 19.9183L26.1532 21.132C26.568 21.3554 26.3876 22.0679 25.7624 22.72L25.7564 22.714ZM28.7564 10.1846C23.6101 10.8246 16.9307 15.8304 13.7444 21.3252C10.588 26.7597 11.9107 30.8415 16.7864 30.4973C21.6622 30.1532 28.7143 25.2501 32.1411 19.5258C35.6101 13.7291 34.053 9.52642 28.7624 10.1846H28.7564Z" fill="url(#paint16_linear_7032_6637)"/>
<path d="M25.7143 22.6716C25.089 23.3237 24.2534 23.6679 23.8446 23.4385L21.1933 21.9772C20.8746 21.8444 20.8385 21.4217 21.1512 20.8963L24.6802 14.9003C25.083 14.212 25.9187 13.5961 26.55 13.5236C27.1812 13.4511 27.3616 13.9523 26.9528 14.6467L23.8686 19.8759L26.1111 21.0896C26.5259 21.313 26.3456 22.0255 25.7203 22.6776L25.7143 22.6716ZM28.7143 10.1482C23.568 10.7883 16.8886 15.794 13.7023 21.2888C10.546 26.7233 11.8686 30.8052 16.7444 30.461C21.6201 30.1168 28.6722 25.2137 32.0991 19.4894C35.568 13.6927 34.0109 9.49004 28.7203 10.1482H28.7143Z" fill="url(#paint17_linear_7032_6637)"/>
<path d="M25.6662 22.6294C25.0409 23.2815 24.2053 23.6257 23.7965 23.3962L21.1452 21.935C20.8265 21.8021 20.7904 21.3794 21.1031 20.8541L24.6321 14.8581C25.0349 14.1697 25.8706 13.5538 26.5019 13.4814C27.1331 13.4089 27.3135 13.9101 26.9047 14.6045L23.8205 19.8336L26.063 21.0473C26.4778 21.2707 26.2975 21.9833 25.6722 22.6354L25.6662 22.6294ZM28.6722 10.106C23.5259 10.746 16.8466 15.7518 13.6602 21.2466C10.5039 26.681 11.8265 30.7629 16.7023 30.4187C21.578 30.0746 28.6301 25.1715 32.057 19.4472C35.5259 13.6504 33.9688 9.4478 28.6782 10.106H28.6722Z" fill="url(#paint18_linear_7032_6637)"/>
<path d="M25.6241 22.5871C24.9989 23.2393 24.1632 23.5834 23.7544 23.354L21.1031 21.8927C20.7844 21.7599 20.7484 21.3372 21.061 20.8119L24.5901 14.8159C24.9929 14.1275 25.8285 13.5116 26.4598 13.4391C27.0911 13.3667 27.2714 13.8679 26.8626 14.5623L23.7784 19.7914L26.0209 21.0051C26.4357 21.2285 26.2554 21.941 25.6301 22.5932L25.6241 22.5871ZM28.6241 10.0637C23.4778 10.7038 16.7985 15.7095 13.6121 21.2044C10.4257 26.6992 11.7784 30.7207 16.6542 30.3765C21.6622 30.0202 28.582 25.1292 32.0089 19.405C35.4778 13.6082 33.9207 9.40557 28.6301 10.0637H28.6241Z" fill="url(#paint19_linear_7032_6637)"/>
<path d="M25.582 22.5509C24.9568 23.2031 24.1211 23.5472 23.7123 23.3178L21.061 21.8565C20.7424 21.7237 20.7063 21.301 21.0189 20.7757L24.548 14.7797C24.9508 14.0913 25.7864 13.4754 26.4177 13.4029C27.049 13.3305 27.2293 13.8317 26.8205 14.5261L23.7363 19.7552L25.9788 20.9689C26.3937 21.1923 26.2133 21.9048 25.588 22.557L25.582 22.5509ZM28.582 10.0215C23.4357 10.6616 16.7564 15.6673 13.57 21.1621C10.3836 26.657 11.7363 30.6784 16.6121 30.3343C21.6201 29.978 28.54 25.087 31.9668 19.3627C35.4357 13.566 33.8786 9.36333 28.588 10.0215H28.582Z" fill="url(#paint20_linear_7032_6637)"/>
<path d="M25.5339 22.5087C24.9087 23.1608 24.073 23.505 23.6642 23.2756L21.0129 21.8143C20.6943 21.6814 20.6582 21.2588 20.9708 20.7334L24.4999 14.7374C24.9027 14.0491 25.7384 13.4332 26.3696 13.3607C27.0009 13.2882 27.1812 13.7894 26.7724 14.4838L23.6882 19.713L25.9307 20.9267C26.3456 21.1501 26.1652 21.8626 25.54 22.5147L25.5339 22.5087ZM28.54 9.97927C23.3937 10.6193 16.7143 15.6251 13.5279 21.1199C10.3416 26.6147 11.6943 30.6362 16.57 30.292C21.4458 29.9478 28.4979 25.0448 31.9247 19.3205C35.3937 13.5237 33.8365 9.32109 28.546 9.97927H28.54Z" fill="url(#paint21_linear_7032_6637)"/>
<path d="M25.4919 22.4663C24.8666 23.1184 24.0309 23.4626 23.6221 23.2331L20.9708 21.7719C20.6522 21.639 20.6161 21.2164 20.9287 20.691L24.4578 14.695C24.8606 14.0066 25.6963 13.3907 26.3275 13.3183C26.9588 13.2458 27.1391 13.747 26.7303 14.4414L23.6462 19.6706L25.8886 20.8842C26.3035 21.1077 26.1231 21.8202 25.4979 22.4723L25.4919 22.4663ZM28.4919 9.94289C23.3456 10.5829 16.6662 15.5887 13.4798 21.0835C10.3235 26.518 11.6462 30.5998 16.5219 30.2557C21.3977 29.9115 28.4498 25.0084 31.8766 19.2841C35.3456 13.4874 33.7884 9.28472 28.4979 9.94289H28.4919Z" fill="url(#paint22_linear_7032_6637)"/>
<path d="M25.4498 22.424C24.8245 23.0762 23.9888 23.4204 23.58 23.1909L20.9287 21.7296C20.6101 21.5968 20.574 21.1741 20.8866 20.6488L24.4157 14.6528C24.8185 13.9644 25.6542 13.3485 26.2854 13.276C26.9167 13.2036 27.0971 13.7048 26.6882 14.3992L23.6041 19.6283L25.8466 20.842C26.2614 21.0654 26.081 21.7779 25.4558 22.4301L25.4498 22.424ZM28.4498 9.90065C23.3035 10.5407 16.6241 15.5464 13.4377 21.0413C10.2814 26.4757 11.6041 30.5576 16.4798 30.2134C21.3556 29.8692 28.4077 24.9662 31.8345 19.2419C35.3035 13.4451 33.7464 9.24248 28.4558 9.90065H28.4498Z" fill="url(#paint23_linear_7032_6637)"/>
<path d="M25.4077 22.3818C24.7824 23.0339 23.9468 23.3781 23.5379 23.1487L20.8866 21.6874C20.568 21.5546 20.5319 21.1319 20.8446 20.6065L24.3736 14.6105C24.7764 13.9222 25.6121 13.3063 26.2434 13.2338C26.8746 13.1614 27.055 13.6625 26.6462 14.3569L23.562 19.5861L25.8045 20.7998C26.2193 21.0232 26.0389 21.7357 25.4137 22.3878L25.4077 22.3818ZM28.4077 9.85842C23.2614 10.4985 16.582 15.5042 13.3957 20.999C10.2393 26.4335 11.562 30.5154 16.4377 30.1712C21.3135 29.827 28.3656 24.9239 31.7925 19.1996C35.2614 13.4029 33.7043 9.20024 28.4137 9.85842H28.4077Z" fill="url(#paint24_linear_7032_6637)"/>
<path d="M25.3596 22.3456C24.7343 22.9977 23.8987 23.3419 23.4898 23.1125L20.8385 21.6512C20.5199 21.5184 20.4838 21.0957 20.7965 20.5704L24.3255 14.5743C24.7283 13.886 25.564 13.2701 26.1953 13.1976C26.8265 13.1252 27.0069 13.6263 26.5981 14.3207L23.5139 19.5499L25.7564 20.7636C26.1712 20.987 25.9908 21.6995 25.3656 22.3516L25.3596 22.3456ZM28.3656 9.81618C23.2193 10.4562 16.5399 15.462 13.3536 20.9568C10.1973 26.3912 11.5199 30.4731 16.3957 30.1289C21.2714 29.7848 28.3235 24.8817 31.7504 19.1574C35.2193 13.3606 33.6622 9.15801 28.3716 9.81618H28.3656Z" fill="url(#paint25_linear_7032_6637)"/>
<path d="M25.3175 22.3034C24.6923 22.9556 23.8566 23.2997 23.4478 23.0703L20.7965 21.609C20.4778 21.4762 20.4418 21.0535 20.7544 20.5282L24.2834 14.5322C24.6862 13.8438 25.5219 13.2279 26.1532 13.1554C26.7844 13.083 26.9648 13.5842 26.556 14.2786L23.4718 19.5077L25.7143 20.7214C26.1291 20.9448 25.9488 21.6573 25.3235 22.3095L25.3175 22.3034ZM28.3175 9.78005C23.1712 10.4201 16.4919 15.4258 13.3055 20.9207C10.1492 26.3551 11.4718 30.437 16.3476 30.0928C21.2233 29.7486 28.2754 24.8455 31.7023 19.1213C35.1712 13.3245 33.6141 9.12188 28.3235 9.78005H28.3175Z" fill="url(#paint26_linear_7032_6637)"/>
<path d="M25.2754 22.2612C24.6502 22.9133 23.8145 23.2575 23.4057 23.0281L20.7544 21.5668C20.4357 21.434 20.3997 21.0113 20.7123 20.4859L24.2413 14.4899C24.6441 13.8016 25.4798 13.1857 26.1111 13.1132C26.7423 13.0407 26.9227 13.5419 26.5139 14.2363L23.4297 19.4655L25.6722 20.6792C26.087 20.9026 25.9067 21.6151 25.2814 22.2672L25.2754 22.2612ZM28.2754 9.73781C23.1291 10.3779 16.4498 15.3836 13.2634 20.8784C10.077 26.3733 11.4297 30.3948 16.3055 30.0506C21.1812 29.7064 28.2333 24.8033 31.6602 19.079C35.1291 13.2823 33.572 9.07964 28.2814 9.73781H28.2754Z" fill="url(#paint27_linear_7032_6637)"/>
<path d="M25.2333 22.2187C24.6081 22.8709 23.7724 23.215 23.3636 22.9856L20.7123 21.5243C20.3936 21.3915 20.3576 20.9688 20.6702 20.4435L24.1993 14.4475C24.6021 13.7591 25.4377 13.1432 26.069 13.0707C26.7003 12.9983 26.8806 13.4994 26.4718 14.1938L23.3876 19.423L25.6301 20.6367C26.0449 20.8601 25.8646 21.5726 25.2393 22.2248L25.2333 22.2187ZM28.2333 9.69533C23.087 10.3354 16.4077 15.3411 13.2213 20.836C10.0349 26.3308 11.3876 30.3523 16.2634 30.0081C21.1391 29.6639 28.1912 24.7608 31.6181 19.0365C35.087 13.2398 33.5299 9.03716 28.2393 9.69533H28.2333Z" fill="url(#paint28_linear_7032_6637)"/>
<path d="M25.1852 22.1825C24.56 22.8347 23.7243 23.1789 23.3155 22.9494L20.6642 21.4881C20.3456 21.3553 20.3095 20.9326 20.6221 20.4073L24.1512 14.4113C24.554 13.7229 25.3897 13.107 26.0209 13.0345C26.6522 12.9621 26.8325 13.4633 26.4237 14.1577L23.3396 19.3868L25.582 20.6005C25.9969 20.8239 25.8165 21.5364 25.1913 22.1886L25.1852 22.1825ZM28.1913 9.65311C23.045 10.2932 16.3656 15.2989 13.1792 20.7937C10.0229 26.2282 11.3456 30.3101 16.2213 29.9659C21.0971 29.6217 28.1492 24.7186 31.576 18.9943C35.0029 13.27 33.4878 8.99494 28.1973 9.65311H28.1913Z" fill="url(#paint29_linear_7032_6637)"/>
<path d="M25.1431 22.1403C24.5179 22.7924 23.6822 23.1366 23.2734 22.9071L20.6221 21.4459C20.3035 21.313 20.2674 20.8904 20.58 20.365L24.1091 14.369C24.5119 13.6807 25.3476 13.0648 25.9788 12.9923C26.6101 12.9198 26.7904 13.421 26.3816 14.1154L23.2975 19.3446L25.5399 20.5583C25.9548 20.7817 25.7744 21.4942 25.1492 22.1463L25.1431 22.1403ZM28.1431 9.61086C22.9969 10.2509 16.3175 15.2566 13.1311 20.7515C9.94475 26.2463 11.2975 30.2678 16.1732 29.9236C21.1812 29.5674 28.1011 24.6764 31.5279 18.9521C34.9969 13.1553 33.4397 8.95269 28.1492 9.61086H28.1431Z" fill="url(#paint30_linear_7032_6637)"/>
<path d="M25.1011 22.0981C24.4758 22.7502 23.6402 23.0944 23.2313 22.865L20.58 21.4037C20.2614 21.2709 20.2253 20.8482 20.5379 20.3229L24.067 14.3268C24.4698 13.6385 25.3055 13.0226 25.9367 12.9501C26.568 12.8777 26.7484 13.3788 26.3396 14.0732L23.2554 19.3024L25.4979 20.5161C25.9127 20.7395 25.7323 21.452 25.1071 22.1041L25.1011 22.0981ZM28.1011 9.57473C22.9548 10.2148 16.2754 15.2205 13.0891 20.7153C9.93274 26.1498 11.2554 30.2317 16.1311 29.8875C21.1392 29.5312 28.059 24.6402 31.4858 18.9159C34.9548 13.1192 33.3977 8.91655 28.1071 9.57473H28.1011Z" fill="url(#paint31_linear_7032_6637)"/>
<path d="M25.053 22.0559C24.4277 22.708 23.5921 23.0522 23.1832 22.8227L20.5319 21.3615C20.2133 21.2286 20.1772 20.806 20.4899 20.2806L24.0189 14.2846C24.4217 13.5962 25.2574 12.9803 25.8886 12.9079C26.5199 12.8354 26.7003 13.3366 26.2915 14.031L23.2073 19.2602L25.4498 20.4738C25.8646 20.6973 25.6842 21.4098 25.059 22.0619L25.053 22.0559ZM28.059 9.53249C22.9127 10.1725 16.2333 15.1783 13.047 20.6731C9.89065 26.1076 11.2133 30.1894 16.0891 29.8453C20.9648 29.5011 28.0169 24.598 31.4438 18.8737C34.9127 13.077 33.3556 8.87432 28.065 9.53249H28.059Z" fill="url(#paint32_linear_7032_6637)"/>
<path d="M25.0109 22.0136C24.3856 22.6658 23.55 23.01 23.1412 22.7805L20.4899 21.3192C20.1712 21.1864 20.1351 20.7637 20.4478 20.2384L23.9768 14.2424C24.3796 13.554 25.2153 12.9381 25.8466 12.8656C26.4778 12.7932 26.6582 13.2944 26.2494 13.9888L23.1652 19.2179L25.4077 20.4316C25.8225 20.655 25.6422 21.3675 25.0169 22.0197L25.0109 22.0136ZM28.0109 9.49025C22.8646 10.1303 16.1852 15.136 12.9989 20.6309C9.84256 26.0653 11.1652 30.1472 16.041 29.803C20.9167 29.4588 27.9688 24.5558 31.3957 18.8315C34.8646 13.0347 33.3075 8.83208 28.0169 9.49025H28.0109Z" fill="url(#paint33_linear_7032_6637)"/>
<path d="M24.9688 21.9772C24.3436 22.6293 23.5079 22.9735 23.0991 22.7441L20.4478 21.2828C20.1291 21.15 20.0931 20.7273 20.4057 20.2019L23.9347 14.2059C24.3375 13.5176 25.1732 12.9017 25.8045 12.8292C26.4357 12.7567 26.6161 13.2579 26.2073 13.9523L23.1231 19.1815L25.3656 20.3952C25.7804 20.6186 25.6001 21.3311 24.9748 21.9832L24.9688 21.9772ZM27.9688 9.44777C22.8225 10.0878 16.1432 15.0936 12.9568 20.5884C9.80047 26.0228 11.1231 30.1047 15.9989 29.7605C20.8746 29.4164 27.9267 24.5133 31.3536 18.789C34.8225 12.9922 33.2654 8.7896 27.9748 9.44777H27.9688Z" fill="url(#paint34_linear_7032_6637)"/>
<path d="M24.9267 21.935C24.3015 22.5871 23.4658 22.9313 23.057 22.7018L20.4057 21.2406C20.087 21.1077 20.051 20.685 20.3636 20.1597L23.8927 14.1637C24.2955 13.4753 25.1311 12.8594 25.7624 12.787C26.3937 12.7145 26.574 13.2157 26.1652 13.9101L23.081 19.1392L25.3235 20.3529C25.7383 20.5763 25.558 21.2889 24.9327 21.941L24.9267 21.935ZM27.9267 9.40554C22.7804 10.0456 16.1011 15.0513 12.9147 20.5462C9.75839 25.9806 11.081 30.0625 15.9568 29.7183C20.8325 29.3741 27.8846 24.471 31.3115 18.7467C34.7804 12.95 33.2233 8.74736 27.9327 9.40554H27.9267Z" fill="url(#paint35_linear_7032_6637)"/>
<path d="M24.8786 21.8928C24.2534 22.5449 23.4177 22.8891 23.0089 22.6596L20.3576 21.1984C20.0389 21.0655 20.0029 20.6429 20.3155 20.1175L23.8445 14.1215C24.2474 13.4332 25.083 12.8173 25.7143 12.7448C26.3456 12.6723 26.5259 13.1735 26.1171 13.8679L23.0329 19.0971L25.2754 20.3108C25.6902 20.5342 25.5099 21.2467 24.8846 21.8988L24.8786 21.8928ZM27.8846 9.3694C22.7383 10.0095 16.059 15.0152 12.8726 20.51C9.71629 25.9445 11.0389 30.0263 15.9147 29.6822C20.9227 29.3259 27.8425 24.4349 31.2694 18.7106C34.7383 12.9139 33.1812 8.71123 27.8906 9.3694H27.8846Z" fill="url(#paint36_linear_7032_6637)"/>
<path d="M24.8365 21.8506C24.2113 22.5027 23.3756 22.8469 22.9668 22.6174L20.3155 21.1561C19.9969 21.0233 19.9608 20.6006 20.2734 20.0753L23.8025 14.0793C24.2053 13.3909 25.0409 12.775 25.6722 12.7026C26.3035 12.6301 26.4838 13.1313 26.075 13.8257L22.9908 19.0548L25.2333 20.2685C25.6482 20.4919 25.4678 21.2045 24.8425 21.8566L24.8365 21.8506ZM27.8365 9.32717C22.6902 9.96722 16.0109 14.973 12.8245 20.4678C9.6682 25.9022 10.9908 29.9841 15.8666 29.6399C20.7423 29.2957 27.7945 24.3927 31.2213 18.6684C34.6902 12.8716 33.1331 8.66899 27.8425 9.32717H27.8365Z" fill="url(#paint37_linear_7032_6637)"/>
<path d="M24.7945 21.8083C24.1692 22.4604 23.3335 22.8046 22.9247 22.5752L20.2734 21.1139C19.9548 20.9811 19.9187 20.5584 20.2313 20.0331L23.7604 14.0371C24.1632 13.3487 24.9989 12.7328 25.6301 12.6603C26.2614 12.5879 26.4417 13.089 26.0329 13.7834L22.9488 19.0126L25.1912 20.2263C25.6061 20.4497 25.4257 21.1622 24.8005 21.8144L24.7945 21.8083ZM27.7945 9.28493C22.6482 9.92499 15.9688 14.9307 12.7824 20.4255C9.59606 25.9204 10.9488 29.9419 15.8245 29.5977C20.8325 29.2414 27.7524 24.3504 31.1792 18.6261C34.6482 12.8294 33.091 8.62676 27.8005 9.28493H27.7945Z" fill="url(#paint38_linear_7032_6637)"/>
<path d="M24.7464 21.7719C24.1211 22.424 23.2854 22.7682 22.8766 22.5387L20.2253 21.0775C19.9067 20.9446 19.8706 20.522 20.1832 19.9966L23.7123 14.0006C24.1151 13.3122 24.9508 12.6963 25.582 12.6239C26.2133 12.5514 26.3937 13.0526 25.9848 13.747L22.9007 18.9762L25.1432 20.1898C25.558 20.4133 25.3776 21.1258 24.7524 21.7779L24.7464 21.7719ZM27.7524 9.24245C22.6061 9.88251 15.9267 14.8882 12.7403 20.3831C9.55397 25.8779 10.9067 29.8994 15.7824 29.5552C20.7904 29.199 27.7103 24.3079 31.1371 18.5837C34.6061 12.7869 33.049 8.58428 27.7584 9.24245H27.7524Z" fill="url(#paint39_linear_7032_6637)"/>
<path d="M24.7043 21.7296C24.079 22.3818 23.2433 22.726 22.8345 22.4965L20.1832 21.0352C19.8646 20.9024 19.8285 20.4797 20.1411 19.9544L23.6702 13.9584C24.073 13.27 24.9087 12.6541 25.5399 12.5816C26.1712 12.5092 26.3516 13.0104 25.9427 13.7048L22.8586 18.9339L25.1011 20.1476C25.5159 20.371 25.3355 21.0835 24.7103 21.7357L24.7043 21.7296ZM27.7103 9.20021C22.564 9.84027 15.8846 14.846 12.6983 20.3408C9.54194 25.7753 10.8646 29.8572 15.7403 29.513C20.7484 29.1567 27.6682 24.2657 31.095 18.5414C34.564 12.7447 33.0069 8.54204 27.7163 9.20021H27.7103Z" fill="url(#paint40_linear_7032_6637)"/>
<path d="M24.6622 21.6875C24.0369 22.3396 23.2013 22.6838 22.7924 22.4543L20.1411 20.9931C19.8225 20.8602 19.7864 20.4375 20.0991 19.9122L23.6281 13.9162C24.0309 13.2278 24.8666 12.6119 25.4979 12.5395C26.1291 12.467 26.3095 12.9682 25.9007 13.6626L22.8165 18.8917L25.059 20.1054C25.4738 20.3289 25.2934 21.0414 24.6682 21.6935L24.6622 21.6875ZM27.6622 9.16408C22.5159 9.80414 15.8365 14.8099 12.6502 20.3047C9.49385 25.7391 10.8165 29.821 15.6922 29.4768C20.568 29.1327 27.6201 24.2296 31.047 18.5053C34.5159 12.7085 32.9588 8.50591 27.6682 9.16408H27.6622Z" fill="url(#paint41_linear_7032_6637)"/>
<path d="M24.6201 21.6452C23.9948 22.2974 23.1592 22.6415 22.7504 22.4121L20.0991 20.9508C19.7804 20.818 19.7443 20.3953 20.057 19.87L23.586 13.874C23.9888 13.1856 24.8245 12.5697 25.4558 12.4972C26.087 12.4248 26.2674 12.926 25.8586 13.6204L22.7744 18.8495L25.0169 20.0632C25.4317 20.2866 25.2514 20.9991 24.6261 21.6513L24.6201 21.6452ZM27.6201 9.12184C22.4738 9.7619 15.7945 14.7676 12.6081 20.2625C9.45177 25.6969 10.7744 29.7788 15.6502 29.4346C20.5259 29.0904 27.578 24.1873 31.0049 18.4631C34.4738 12.6663 32.9167 8.46367 27.6261 9.12184H27.6201Z" fill="url(#paint42_linear_7032_6637)"/>
<path d="M24.572 21.609C23.9468 22.2612 23.1111 22.6053 22.7023 22.3759L20.051 20.9146C19.7323 20.7818 19.6963 20.3591 20.0089 19.8338L23.5379 13.8378C23.9407 13.1494 24.7764 12.5335 25.4077 12.461C26.0389 12.3886 26.2193 12.8898 25.8105 13.5842L22.7263 18.8133L24.9688 20.027C25.3836 20.2504 25.2033 20.9629 24.578 21.6151L24.572 21.609ZM27.578 9.07961C22.4317 9.71967 15.7524 14.7254 12.566 20.2202C9.40968 25.6547 10.7323 29.7366 15.6081 29.3924C20.6161 29.0361 27.5359 24.1451 30.9628 18.4208C34.4317 12.6241 32.8746 8.42144 27.584 9.07961H27.578Z" fill="url(#paint43_linear_7032_6637)"/>
<path d="M24.5299 21.5666C23.9047 22.2187 23.069 22.5629 22.6602 22.3334L20.0089 20.8722C19.6902 20.7393 19.6542 20.3166 19.9668 19.7913L23.4959 13.7953C23.8987 13.1069 24.7343 12.491 25.3656 12.4186C25.9969 12.3461 26.1772 12.8473 25.7684 13.5417L22.6842 18.7708L24.9267 19.9845C25.3416 20.208 25.1612 20.9205 24.5359 21.5726L24.5299 21.5666ZM27.5299 9.03714C22.3836 9.6772 15.7043 14.6829 12.5179 20.1778C9.33153 25.6726 10.6842 29.6941 15.56 29.3499C20.568 28.9937 27.4878 24.1026 30.9147 18.3784C34.3415 12.6541 32.8265 8.37897 27.5359 9.03714H27.5299Z" fill="url(#paint44_linear_7032_6637)"/>
<path d="M24.4878 21.5244C23.8626 22.1765 23.0269 22.5207 22.6181 22.2912L19.9668 20.83C19.6482 20.6971 19.6121 20.2745 19.9247 19.7491L23.4538 13.7531C23.8566 13.0648 24.6922 12.4489 25.3235 12.3764C25.9548 12.3039 26.1351 12.8051 25.7263 13.4995L22.6421 18.7287L24.8846 19.9424C25.2995 20.1658 25.1191 20.8783 24.4938 21.5304L24.4878 21.5244ZM27.4878 9.00099C22.3415 9.64105 15.6622 14.6468 12.4758 20.1416C9.3195 25.5761 10.6421 29.6579 15.5179 29.3138C20.3937 28.9696 27.4458 24.0665 30.8726 18.3422C34.3415 12.5455 32.7844 8.34282 27.4938 9.00099H27.4878Z" fill="url(#paint45_linear_7032_6637)"/>
<path d="M24.4458 21.4821C23.8205 22.1343 22.9848 22.4785 22.576 22.249L19.9247 20.7877C19.6061 20.6549 19.57 20.2322 19.8826 19.7069L23.4117 13.7109C23.8145 13.0225 24.6502 12.4066 25.2814 12.3342C25.9127 12.2617 26.093 12.7629 25.6842 13.4573L22.6001 18.6864L24.8425 19.9001C25.2574 20.1235 25.077 20.836 24.4518 21.4882L24.4458 21.4821ZM27.4458 8.95876C22.2995 9.59882 15.6201 14.6045 12.4337 20.0994C9.27742 25.5338 10.6001 29.6157 15.4758 29.2715C20.3516 28.9273 27.4037 24.0243 30.8305 18.3C34.2995 12.5032 32.7423 8.30059 27.4518 8.95876H27.4458Z" fill="url(#paint46_linear_7032_6637)"/>
<path d="M24.3977 21.4399C23.7724 22.092 22.9367 22.4362 22.5279 22.2068L19.8766 20.7455C19.558 20.6127 19.5219 20.19 19.8345 19.6647L23.3636 13.6686C23.7664 12.9803 24.6021 12.3644 25.2333 12.2919C25.8646 12.2195 26.045 12.7206 25.6361 13.415L22.552 18.6442L24.7945 19.8579C25.2093 20.0813 25.0289 20.7938 24.4037 21.4459L24.3977 21.4399ZM27.4037 8.91652C22.2574 9.55658 15.578 14.5623 12.3916 20.0571C9.23533 25.4916 10.558 29.5735 15.4337 29.2293C20.3095 28.8851 27.3616 23.982 30.7884 18.2577C34.2574 12.461 32.7003 8.25835 27.4097 8.91652H27.4037Z" fill="url(#paint47_linear_7032_6637)"/>
<path d="M24.3556 21.4037C23.7303 22.0558 22.8947 22.4 22.4858 22.1706L19.8345 20.7093C19.5159 20.5765 19.4798 20.1538 19.7925 19.6285L23.3215 13.6324C23.7243 12.9441 24.56 12.3282 25.1913 12.2557C25.8225 12.1833 26.0029 12.6844 25.5941 13.3788L22.5099 18.608L24.7524 19.8217C25.1672 20.0451 24.9868 20.7576 24.3616 21.4097L24.3556 21.4037ZM27.3556 8.87429C22.2093 9.51434 15.5299 14.5201 12.3436 20.0149C9.15719 25.5097 10.5099 29.5312 15.3856 29.187C20.3937 28.8308 27.3135 23.9398 30.7403 18.2155C34.2093 12.4188 32.6522 8.21611 27.3616 8.87429H27.3556Z" fill="url(#paint48_linear_7032_6637)"/>
<path d="M24.3135 21.3615C23.6882 22.0136 22.8526 22.3578 22.4438 22.1283L19.7925 20.6671C19.4738 20.5342 19.4377 20.1115 19.7504 19.5862L23.2794 13.5902C23.6822 12.9018 24.5179 12.2859 25.1492 12.2135C25.7804 12.141 25.9608 12.6422 25.552 13.3366L22.4678 18.5658L24.7103 19.7794C25.1251 20.0029 24.9448 20.7154 24.3195 21.3675L24.3135 21.3615ZM27.3135 8.83205C22.1672 9.47211 15.4878 14.4778 12.3015 19.9727C9.1151 25.4675 10.4678 29.489 15.3436 29.1448C20.2193 28.8006 27.2714 23.8975 30.6983 18.1733C34.1672 12.3765 32.6101 8.17388 27.3195 8.83205H27.3135Z" fill="url(#paint49_linear_7032_6637)"/>
<path d="M24.2654 21.3191C23.6401 21.9712 22.8045 22.3154 22.3957 22.0859L19.7444 20.6247C19.4257 20.4918 19.3896 20.0691 19.7023 19.5438L23.2313 13.5478C23.6341 12.8594 24.4698 12.2435 25.1011 12.1711C25.7323 12.0986 25.9127 12.5998 25.5039 13.2942L22.4197 18.5233L24.6622 19.737C25.077 19.9604 24.8967 20.673 24.2714 21.3251L24.2654 21.3191ZM27.2714 8.79567C22.1251 9.43573 15.4458 14.4415 12.2594 19.9363C9.10307 25.3707 10.4257 29.4526 15.3015 29.1084C20.1772 28.7643 27.2293 23.8612 30.6562 18.1369C34.1251 12.3401 32.568 8.1375 27.2774 8.79567H27.2714Z" fill="url(#paint50_linear_7032_6637)"/>
<path d="M24.2233 21.2768C23.5981 21.929 22.7624 22.2731 22.3536 22.0437L19.7023 20.5824C19.3836 20.4496 19.3476 20.0269 19.6602 19.5016L23.1892 13.5056C23.592 12.8172 24.4277 12.2013 25.059 12.1288C25.6902 12.0564 25.8706 12.5576 25.4618 13.252L22.3776 18.4811L24.6201 19.6948C25.0349 19.9182 24.8546 20.6307 24.2293 21.2829L24.2233 21.2768ZM27.2293 8.75344C22.083 9.39349 15.4037 14.3992 12.2173 19.8941C9.06099 25.3285 10.3836 29.4104 15.2594 29.0662C20.1351 28.722 27.1872 23.8189 30.6141 18.0947C34.083 12.2979 32.5259 8.09526 27.2353 8.75344H27.2293Z" fill="url(#paint51_linear_7032_6637)"/>
<path d="M24.1812 21.2346C23.556 21.8867 22.7203 22.2309 22.3115 22.0014L19.6602 20.5402C19.3415 20.4073 19.3055 19.9847 19.6181 19.4593L23.1472 13.4633C23.55 12.775 24.3856 12.1591 25.0169 12.0866C25.6482 12.0141 25.8285 12.5153 25.4197 13.2097L22.3355 18.4389L24.578 19.6526C24.9929 19.876 24.8125 20.5885 24.1872 21.2406L24.1812 21.2346ZM27.1812 8.7112C22.0349 9.35126 15.3556 14.357 12.1692 19.8518C9.01289 25.2863 10.3355 29.3681 15.2113 29.024C20.087 28.6798 27.1391 23.7767 30.566 18.0524C34.0349 12.2557 32.4778 8.05303 27.1872 8.7112H27.1812Z" fill="url(#paint52_linear_7032_6637)"/>
<path d="M27.1812 8.7112C22.0349 9.35126 15.3556 14.357 12.1692 19.8518C9.01289 25.2863 10.3355 29.3681 15.2113 29.024C20.087 28.6798 27.1391 23.7767 30.566 18.0524C34.0349 12.2557 32.4778 8.05303 27.1872 8.7112H27.1812ZM24.1812 21.2346C23.556 21.8867 22.7203 22.2309 22.3115 22.0014L19.6602 20.5402C19.3415 20.4073 19.3055 19.9847 19.6181 19.4593L23.1472 13.4633C23.55 12.775 24.3856 12.1591 25.0169 12.0866C25.6482 12.0141 25.8285 12.5153 25.4197 13.2097L22.3355 18.4389L24.578 19.6526C24.9929 19.876 24.8125 20.5885 24.1872 21.2406L24.1812 21.2346Z" fill="url(#paint53_linear_7032_6637)"/>
<defs>
<linearGradient id="paint0_linear_7032_6637" x1="12.2173" y1="57.41" x2="85.7738" y2="-7.73869" gradientUnits="userSpaceOnUse">
<stop offset="0.02" stop-color="#5D6C94"/>
<stop offset="0.07" stop-color="#344463"/>
<stop offset="0.19" stop-color="#242E41"/>
<stop offset="0.25" stop-color="#1C222E"/>
<stop offset="0.33" stop-color="#1E2533"/>
<stop offset="0.44" stop-color="#242E43"/>
<stop offset="0.45" stop-color="#263047"/>
<stop offset="0.52" stop-color="#212B41"/>
<stop offset="0.6" stop-color="#141F30"/>
<stop offset="0.63" stop-color="#0F1A29"/>
</linearGradient>
<radialGradient id="paint1_radial_7032_6637" cx="0" cy="0" r="1" gradientUnits="userSpaceOnUse" gradientTransform="translate(54.6562 -4.78439) rotate(180) scale(75.8657 76.197)">
<stop stop-color="#112047"/>
<stop offset="0.09" stop-color="#132039"/>
<stop offset="0.2" stop-color="#15202E"/>
<stop offset="0.33" stop-color="#16202B"/>
<stop offset="0.72" stop-color="#272F3D"/>
<stop offset="0.77" stop-color="#2A3243"/>
<stop offset="0.85" stop-color="#323D54"/>
<stop offset="0.91" stop-color="#3D4B69"/>
</radialGradient>
<linearGradient id="paint2_linear_7032_6637" x1="-0.968636" y1="34.1073" x2="47.5514" y2="6.20854" gradientUnits="userSpaceOnUse">
<stop offset="0.02" stop-color="white"/>
<stop offset="0.05" stop-color="#E9D3FF"/>
<stop offset="0.15" stop-color="#A442FF"/>
<stop offset="0.19" stop-color="#8809FF"/>
<stop offset="0.48" stop-color="white" stop-opacity="0"/>
<stop offset="0.54" stop-color="#EDDBFF" stop-opacity="0.0196"/>
<stop offset="0.7" stop-color="#C282FF" stop-opacity="0.2601"/>
<stop offset="0.89" stop-color="#8809FF"/>
</linearGradient>
<linearGradient id="paint3_linear_7032_6637" x1="12.3015" y1="31.1675" x2="38.2553" y2="7.63425" gradientUnits="userSpaceOnUse">
<stop stop-color="#58337A"/>
<stop offset="0.62" stop-color="#4F0594"/>
</linearGradient>
<linearGradient id="paint4_linear_7032_6637" x1="12.2594" y1="31.1253" x2="38.2132" y2="7.59201" gradientUnits="userSpaceOnUse">
<stop stop-color="#5A347D"/>
<stop offset="0.62" stop-color="#500695"/>
</linearGradient>
<linearGradient id="paint5_linear_7032_6637" x1="12.2173" y1="31.0891" x2="38.1711" y2="7.54978" gradientUnits="userSpaceOnUse">
<stop stop-color="#5B347F"/>
<stop offset="0.62" stop-color="#510796"/>
</linearGradient>
<linearGradient id="paint6_linear_7032_6637" x1="12.1692" y1="31.0469" x2="38.123" y2="7.50754" gradientUnits="userSpaceOnUse">
<stop stop-color="#5D3582"/>
<stop offset="0.62" stop-color="#510796"/>
</linearGradient>
<linearGradient id="paint7_linear_7032_6637" x1="12.1271" y1="31.0044" x2="38.0809" y2="7.46506" gradientUnits="userSpaceOnUse">
<stop stop-color="#5F3685"/>
<stop offset="0.62" stop-color="#520897"/>
</linearGradient>
<linearGradient id="paint8_linear_7032_6637" x1="12.085" y1="30.9622" x2="38.0388" y2="7.42893" gradientUnits="userSpaceOnUse">
<stop stop-color="#603688"/>
<stop offset="0.62" stop-color="#530998"/>
</linearGradient>
<linearGradient id="paint9_linear_7032_6637" x1="12.0369" y1="30.92" x2="37.9907" y2="7.38669" gradientUnits="userSpaceOnUse">
<stop stop-color="#62378A"/>
<stop offset="0.62" stop-color="#540A99"/>
</linearGradient>
<linearGradient id="paint10_linear_7032_6637" x1="11.9949" y1="30.8838" x2="37.9487" y2="7.34447" gradientUnits="userSpaceOnUse">
<stop stop-color="#64378D"/>
<stop offset="0.62" stop-color="#540A99"/>
</linearGradient>
<linearGradient id="paint11_linear_7032_6637" x1="11.9528" y1="30.8416" x2="37.9066" y2="7.30222" gradientUnits="userSpaceOnUse">
<stop stop-color="#653890"/>
<stop offset="0.62" stop-color="#550B9A"/>
</linearGradient>
<linearGradient id="paint12_linear_7032_6637" x1="11.9107" y1="30.7991" x2="37.8645" y2="7.2598" gradientUnits="userSpaceOnUse">
<stop stop-color="#673992"/>
<stop offset="0.62" stop-color="#560C9B"/>
</linearGradient>
<linearGradient id="paint13_linear_7032_6637" x1="11.8626" y1="30.7569" x2="37.8164" y2="7.2236" gradientUnits="userSpaceOnUse">
<stop stop-color="#693995"/>
<stop offset="0.62" stop-color="#570D9C"/>
</linearGradient>
<linearGradient id="paint14_linear_7032_6637" x1="11.8205" y1="30.7207" x2="37.7743" y2="7.18137" gradientUnits="userSpaceOnUse">
<stop stop-color="#6A3A98"/>
<stop offset="0.62" stop-color="#580E9D"/>
</linearGradient>
<linearGradient id="paint15_linear_7032_6637" x1="11.7784" y1="30.6785" x2="37.7322" y2="7.13913" gradientUnits="userSpaceOnUse">
<stop stop-color="#6C3B9B"/>
<stop offset="0.62" stop-color="#580E9D"/>
</linearGradient>
<linearGradient id="paint16_linear_7032_6637" x1="11.7363" y1="30.6362" x2="37.6902" y2="7.09689" gradientUnits="userSpaceOnUse">
<stop stop-color="#6E3B9D"/>
<stop offset="0.62" stop-color="#590F9E"/>
</linearGradient>
<linearGradient id="paint17_linear_7032_6637" x1="11.6882" y1="30.5938" x2="37.642" y2="7.06051" gradientUnits="userSpaceOnUse">
<stop stop-color="#6F3CA0"/>
<stop offset="0.62" stop-color="#5A109F"/>
</linearGradient>
<linearGradient id="paint18_linear_7032_6637" x1="11.6462" y1="30.5516" x2="37.6" y2="7.01828" gradientUnits="userSpaceOnUse">
<stop stop-color="#713CA3"/>
<stop offset="0.62" stop-color="#5B11A0"/>
</linearGradient>
<linearGradient id="paint19_linear_7032_6637" x1="11.6041" y1="30.5154" x2="37.5579" y2="6.97605" gradientUnits="userSpaceOnUse">
<stop stop-color="#733DA5"/>
<stop offset="0.62" stop-color="#5B11A0"/>
</linearGradient>
<linearGradient id="paint20_linear_7032_6637" x1="11.556" y1="30.4731" x2="37.5098" y2="6.93381" gradientUnits="userSpaceOnUse">
<stop stop-color="#743EA8"/>
<stop offset="0.62" stop-color="#5C12A1"/>
</linearGradient>
<linearGradient id="paint21_linear_7032_6637" x1="11.5139" y1="30.4309" x2="37.4677" y2="6.89158" gradientUnits="userSpaceOnUse">
<stop stop-color="#763EAB"/>
<stop offset="0.62" stop-color="#5D13A2"/>
</linearGradient>
<linearGradient id="paint22_linear_7032_6637" x1="11.4718" y1="30.3885" x2="37.4256" y2="6.85519" gradientUnits="userSpaceOnUse">
<stop stop-color="#783FAE"/>
<stop offset="0.62" stop-color="#5E14A3"/>
</linearGradient>
<linearGradient id="paint23_linear_7032_6637" x1="11.4297" y1="30.3463" x2="37.3835" y2="6.81296" gradientUnits="userSpaceOnUse">
<stop stop-color="#7940B0"/>
<stop offset="0.62" stop-color="#5F15A4"/>
</linearGradient>
<linearGradient id="paint24_linear_7032_6637" x1="11.3816" y1="30.3101" x2="37.3355" y2="6.77073" gradientUnits="userSpaceOnUse">
<stop stop-color="#7B40B3"/>
<stop offset="0.62" stop-color="#5F15A4"/>
</linearGradient>
<linearGradient id="paint25_linear_7032_6637" x1="11.3395" y1="30.2678" x2="37.2934" y2="6.72849" gradientUnits="userSpaceOnUse">
<stop stop-color="#7D41B6"/>
<stop offset="0.62" stop-color="#6016A5"/>
</linearGradient>
<linearGradient id="paint26_linear_7032_6637" x1="11.2975" y1="30.2257" x2="37.2513" y2="6.68632" gradientUnits="userSpaceOnUse">
<stop stop-color="#7E42B8"/>
<stop offset="0.62" stop-color="#6117A6"/>
</linearGradient>
<linearGradient id="paint27_linear_7032_6637" x1="11.2554" y1="30.1834" x2="37.2092" y2="6.65012" gradientUnits="userSpaceOnUse">
<stop stop-color="#8042BB"/>
<stop offset="0.62" stop-color="#6218A7"/>
</linearGradient>
<linearGradient id="paint28_linear_7032_6637" x1="11.2073" y1="30.147" x2="37.1611" y2="6.60764" gradientUnits="userSpaceOnUse">
<stop stop-color="#8243BE"/>
<stop offset="0.62" stop-color="#6218A7"/>
</linearGradient>
<linearGradient id="paint29_linear_7032_6637" x1="11.1652" y1="30.1048" x2="37.119" y2="6.56542" gradientUnits="userSpaceOnUse">
<stop stop-color="#8443C1"/>
<stop offset="0.62" stop-color="#6319A8"/>
</linearGradient>
<linearGradient id="paint30_linear_7032_6637" x1="11.1231" y1="30.0625" x2="37.0769" y2="6.52317" gradientUnits="userSpaceOnUse">
<stop stop-color="#8544C3"/>
<stop offset="0.62" stop-color="#641AA9"/>
</linearGradient>
<linearGradient id="paint31_linear_7032_6637" x1="11.075" y1="30.0203" x2="37.0288" y2="6.48703" gradientUnits="userSpaceOnUse">
<stop stop-color="#8745C6"/>
<stop offset="0.62" stop-color="#651BAA"/>
</linearGradient>
<linearGradient id="paint32_linear_7032_6637" x1="11.0329" y1="29.9781" x2="36.9867" y2="6.44479" gradientUnits="userSpaceOnUse">
<stop stop-color="#8945C9"/>
<stop offset="0.62" stop-color="#651BAA"/>
</linearGradient>
<linearGradient id="paint33_linear_7032_6637" x1="10.9909" y1="29.9419" x2="36.9447" y2="6.40257" gradientUnits="userSpaceOnUse">
<stop stop-color="#8A46CB"/>
<stop offset="0.62" stop-color="#661CAB"/>
</linearGradient>
<linearGradient id="paint34_linear_7032_6637" x1="10.9488" y1="29.8994" x2="36.9026" y2="6.36008" gradientUnits="userSpaceOnUse">
<stop stop-color="#8C47CE"/>
<stop offset="0.62" stop-color="#671DAC"/>
</linearGradient>
<linearGradient id="paint35_linear_7032_6637" x1="10.9007" y1="29.8572" x2="36.8545" y2="6.31785" gradientUnits="userSpaceOnUse">
<stop stop-color="#8E47D1"/>
<stop offset="0.62" stop-color="#681EAD"/>
</linearGradient>
<linearGradient id="paint36_linear_7032_6637" x1="10.8586" y1="29.815" x2="36.8124" y2="6.28171" gradientUnits="userSpaceOnUse">
<stop stop-color="#8F48D4"/>
<stop offset="0.62" stop-color="#691FAE"/>
</linearGradient>
<linearGradient id="paint37_linear_7032_6637" x1="10.8165" y1="29.7728" x2="36.7703" y2="6.23947" gradientUnits="userSpaceOnUse">
<stop stop-color="#9149D6"/>
<stop offset="0.62" stop-color="#691FAE"/>
</linearGradient>
<linearGradient id="paint38_linear_7032_6637" x1="10.7744" y1="29.7366" x2="36.7282" y2="6.19724" gradientUnits="userSpaceOnUse">
<stop stop-color="#9349D9"/>
<stop offset="0.62" stop-color="#6A20AF"/>
</linearGradient>
<linearGradient id="paint39_linear_7032_6637" x1="10.7263" y1="29.6941" x2="36.6801" y2="6.15476" gradientUnits="userSpaceOnUse">
<stop stop-color="#944ADC"/>
<stop offset="0.62" stop-color="#6B21B0"/>
</linearGradient>
<linearGradient id="paint40_linear_7032_6637" x1="10.6842" y1="29.6519" x2="36.6381" y2="6.11252" gradientUnits="userSpaceOnUse">
<stop stop-color="#964ADE"/>
<stop offset="0.62" stop-color="#6C22B1"/>
</linearGradient>
<linearGradient id="paint41_linear_7032_6637" x1="10.6421" y1="29.6097" x2="36.5959" y2="6.07638" gradientUnits="userSpaceOnUse">
<stop stop-color="#984BE1"/>
<stop offset="0.62" stop-color="#6C22B1"/>
</linearGradient>
<linearGradient id="paint42_linear_7032_6637" x1="10.594" y1="29.5735" x2="36.5479" y2="6.03416" gradientUnits="userSpaceOnUse">
<stop stop-color="#994CE4"/>
<stop offset="0.62" stop-color="#6D23B2"/>
</linearGradient>
<linearGradient id="paint43_linear_7032_6637" x1="10.552" y1="29.5313" x2="36.5058" y2="5.99192" gradientUnits="userSpaceOnUse">
<stop stop-color="#9B4CE7"/>
<stop offset="0.62" stop-color="#6E24B3"/>
</linearGradient>
<linearGradient id="paint44_linear_7032_6637" x1="10.5099" y1="29.4888" x2="36.4637" y2="5.94946" gradientUnits="userSpaceOnUse">
<stop stop-color="#9D4DE9"/>
<stop offset="0.62" stop-color="#6F25B4"/>
</linearGradient>
<linearGradient id="paint45_linear_7032_6637" x1="10.4678" y1="29.4466" x2="36.4216" y2="5.90727" gradientUnits="userSpaceOnUse">
<stop stop-color="#9E4EEC"/>
<stop offset="0.62" stop-color="#7026B5"/>
</linearGradient>
<linearGradient id="paint46_linear_7032_6637" x1="10.4197" y1="29.4044" x2="36.3735" y2="5.87106" gradientUnits="userSpaceOnUse">
<stop stop-color="#A04EEF"/>
<stop offset="0.62" stop-color="#7026B5"/>
</linearGradient>
<linearGradient id="paint47_linear_7032_6637" x1="10.3776" y1="29.3682" x2="36.3314" y2="5.82883" gradientUnits="userSpaceOnUse">
<stop stop-color="#A24FF1"/>
<stop offset="0.62" stop-color="#7127B6"/>
</linearGradient>
<linearGradient id="paint48_linear_7032_6637" x1="10.3355" y1="29.3259" x2="36.2894" y2="5.7866" gradientUnits="userSpaceOnUse">
<stop stop-color="#A34FF4"/>
<stop offset="0.62" stop-color="#7228B7"/>
</linearGradient>
<linearGradient id="paint49_linear_7032_6637" x1="10.2874" y1="29.2837" x2="36.2413" y2="5.74436" gradientUnits="userSpaceOnUse">
<stop stop-color="#A550F7"/>
<stop offset="0.62" stop-color="#7329B8"/>
</linearGradient>
<linearGradient id="paint50_linear_7032_6637" x1="10.2454" y1="29.2413" x2="36.1992" y2="5.70798" gradientUnits="userSpaceOnUse">
<stop stop-color="#A751FA"/>
<stop offset="0.62" stop-color="#7329B8"/>
</linearGradient>
<linearGradient id="paint51_linear_7032_6637" x1="10.2033" y1="29.199" x2="36.1571" y2="5.66574" gradientUnits="userSpaceOnUse">
<stop stop-color="#A851FC"/>
<stop offset="0.62" stop-color="#742AB9"/>
</linearGradient>
<linearGradient id="paint52_linear_7032_6637" x1="10.1612" y1="29.1628" x2="36.115" y2="5.62351" gradientUnits="userSpaceOnUse">
<stop stop-color="#AA52FF"/>
<stop offset="0.62" stop-color="#752BBA"/>
</linearGradient>
<linearGradient id="paint53_linear_7032_6637" x1="10.1612" y1="29.1628" x2="36.115" y2="5.62351" gradientUnits="userSpaceOnUse">
<stop stop-color="#CF9CFF"/>
<stop offset="0.62" stop-color="#992BFF"/>
</linearGradient>
</defs>
</svg>
