<svg width="19" height="18" viewBox="0 0 19 18" fill="none" xmlns="http://www.w3.org/2000/svg">
<g opacity="0.5">
<mask id="mask0_4960_3293" style="mask-type:alpha" maskUnits="userSpaceOnUse" x="0" y="-1" width="19" height="19">
<rect x="0.746094" y="-0.000976562" width="17.998" height="17.998" fill="#D9D9D9"/>
</mask>
<g mask="url(#mask0_4960_3293)">
<path d="M12.1433 14.0037L11.5227 15.7549C11.474 15.8873 11.3911 15.9941 11.2739 16.0753C11.1567 16.1566 11.0279 16.1972 10.8872 16.1972C10.6373 16.1972 10.4467 16.0972 10.3154 15.8972C10.1842 15.6973 10.1623 15.4848 10.2498 15.2598L12.9308 8.11687C12.9909 7.97938 13.081 7.8669 13.2012 7.77941C13.3213 7.69192 13.4535 7.64817 13.5978 7.64817H14.1386C14.2828 7.64817 14.415 7.69192 14.5352 7.77941C14.6553 7.8669 14.7455 7.97938 14.8055 8.11687L17.5052 15.2786C17.5927 15.5035 17.5654 15.7129 17.4234 15.9066C17.2813 16.1003 17.0918 16.1972 16.855 16.1972C16.7011 16.1972 16.5647 16.1535 16.446 16.066C16.3273 15.9785 16.2429 15.866 16.1929 15.7285L15.589 14.0037H12.1433ZM7.49387 10.4041L4.38172 13.4788C4.24424 13.6163 4.08801 13.6819 3.91303 13.6756C3.73805 13.6694 3.58181 13.5975 3.44433 13.46C3.30684 13.3225 3.2381 13.1663 3.2381 12.9913C3.2381 12.8163 3.30684 12.6601 3.44433 12.5226L6.57523 9.42922C6.12528 8.95427 5.70657 8.46058 5.31912 7.94814C4.93166 7.43569 4.5942 6.87951 4.30673 6.27957H5.84406C6.06903 6.67953 6.29401 7.02012 6.51898 7.30133C6.74396 7.58255 7.06892 7.96064 7.49387 8.43558C7.96882 7.91064 8.40627 7.36383 8.80623 6.79514C9.20618 6.22646 9.53114 5.6109 9.78112 4.94847H2.31946C2.12823 4.94847 1.96793 4.88418 1.83857 4.75558C1.70921 4.62697 1.64453 4.46761 1.64453 4.27751C1.64453 4.08739 1.70921 3.92671 1.83857 3.79548C1.96793 3.66424 2.12823 3.59863 2.31946 3.59863H6.81895V2.47375C6.81895 2.28252 6.88325 2.12223 7.01185 1.99287C7.14046 1.86351 7.29981 1.79883 7.48992 1.79883C7.68003 1.79883 7.84071 1.86351 7.97194 1.99287C8.10318 2.12223 8.1688 2.28252 8.1688 2.47375V3.59863H12.6683C12.8595 3.59863 13.0198 3.66292 13.1492 3.79152C13.2785 3.92013 13.3432 4.07949 13.3432 4.26959C13.3432 4.45971 13.2785 4.62039 13.1492 4.75162C13.0198 4.88286 12.8595 4.94847 12.6683 4.94847H11.2141C10.9462 5.81088 10.5623 6.60766 10.0623 7.33883C9.56239 8.07 9.01245 8.7668 8.41252 9.42922L10.1186 11.1165L9.59364 12.5039L7.49387 10.4041ZM12.5933 12.7663H15.143L13.9057 9.22299L12.5933 12.7663Z" fill="white"/>
</g>
</g>
</svg>
