<svg width="21" height="21" viewBox="0 0 21 21" fill="none" xmlns="http://www.w3.org/2000/svg">
<mask id="mask0_4781_3275" style="mask-type:alpha" maskUnits="userSpaceOnUse" x="0" y="0" width="21" height="21">
<rect x="0.888672" y="0.56543" width="20" height="20" fill="#D9D9D9"/>
</mask>
<g mask="url(#mask0_4781_3275)">
<path d="M5.38867 17.5654C4.97617 17.5654 4.62305 17.4186 4.3293 17.1248C4.03555 16.8311 3.88867 16.4779 3.88867 16.0654V5.06543C3.88867 4.65293 4.03555 4.29981 4.3293 4.00606C4.62305 3.71231 4.97617 3.56543 5.38867 3.56543H11.1453C11.3492 3.56543 11.5241 3.63688 11.6699 3.77978C11.8158 3.9227 11.8887 4.09978 11.8887 4.31103C11.8887 4.5223 11.8168 4.70085 11.673 4.84668C11.5293 4.99251 11.3512 5.06543 11.1387 5.06543H5.38867V16.0654H16.3887V10.3088C16.3887 10.1049 16.4601 9.93001 16.603 9.78418C16.7459 9.63835 16.923 9.56543 17.1343 9.56543C17.3455 9.56543 17.5241 9.6373 17.6699 9.78105C17.8158 9.9248 17.8887 10.1029 17.8887 10.3154V16.0654C17.8887 16.4779 17.7418 16.8311 17.448 17.1248C17.1543 17.4186 16.8012 17.5654 16.3887 17.5654H5.38867ZM14.8935 6.56543H14.1411C13.9279 6.56543 13.7492 6.49356 13.605 6.34981C13.4608 6.20606 13.3887 6.02793 13.3887 5.81543C13.3887 5.60293 13.4608 5.4248 13.605 5.28105C13.7492 5.1373 13.9279 5.06543 14.1411 5.06543H14.8935V4.31543C14.8935 4.10293 14.9656 3.9248 15.1099 3.78105C15.2541 3.6373 15.4318 3.56543 15.6431 3.56543C15.8543 3.56543 16.0314 3.6373 16.1743 3.78105C16.3172 3.9248 16.3887 4.10293 16.3887 4.31543V5.06543H17.1343C17.3455 5.06543 17.5241 5.13688 17.6699 5.27978C17.8158 5.4227 17.8887 5.59978 17.8887 5.81103C17.8887 6.0223 17.8168 6.20003 17.673 6.34424C17.5293 6.48846 17.3512 6.56058 17.1387 6.56058H16.3887V7.31299C16.3887 7.52619 16.3168 7.7049 16.173 7.84912C16.0293 7.99333 15.8512 8.06543 15.6387 8.06543C15.4303 8.06543 15.2541 7.99356 15.1099 7.84981C14.9656 7.70606 14.8935 7.52793 14.8935 7.31543V6.56543ZM10.1387 13.5654L8.93034 11.9613C8.85742 11.8502 8.7602 11.7946 8.63867 11.7946C8.51714 11.7946 8.41992 11.8502 8.34701 11.9613L6.8508 13.9618C6.75105 14.0864 6.73763 14.2182 6.81055 14.3571C6.88346 14.496 6.99284 14.5654 7.13867 14.5654H14.6427C14.7928 14.5654 14.9026 14.496 14.972 14.3571C15.0415 14.2182 15.0276 14.0863 14.9303 13.9613L12.6803 10.9613C12.6074 10.8502 12.5102 10.7946 12.3887 10.7946C12.2671 10.7946 12.1699 10.8502 12.097 10.9613L10.1387 13.5654Z" fill="white" fill-opacity="0.4"/>
</g>
</svg>
