<svg width="21" height="21" viewBox="0 0 21 21" fill="none" xmlns="http://www.w3.org/2000/svg">
<mask id="mask0_4748_4177" style="mask-type:alpha" maskUnits="userSpaceOnUse" x="0" y="0" width="21" height="21">
<rect x="0.0371094" y="0.595703" width="20" height="20" fill="#D9D9D9"/>
</mask>
<g mask="url(#mask0_4748_4177)">
<path d="M13.5371 14.5957C14.6438 14.5957 15.5871 14.2052 16.3671 13.4243C17.1471 12.6434 17.5371 11.699 17.5371 10.591C17.5371 9.48302 17.1471 8.54015 16.3671 7.76237C15.5871 6.98459 14.6438 6.5957 13.5371 6.5957C13.0649 6.5957 12.6204 6.66862 12.2038 6.81445C11.7871 6.96029 11.4052 7.17209 11.0579 7.44987C11.3735 7.88938 11.6155 8.37774 11.7842 8.91493C11.9528 9.45211 12.0371 10.0124 12.0371 10.5957C12.0371 11.179 11.9528 11.7393 11.7842 12.2765C11.6155 12.8137 11.3735 13.302 11.0579 13.7415C11.4052 14.0193 11.7871 14.2311 12.2038 14.377C12.6204 14.5228 13.0649 14.5957 13.5371 14.5957ZM10.0371 12.5332C10.1899 12.2415 10.3114 11.9348 10.4017 11.613C10.492 11.2912 10.5371 10.9509 10.5371 10.5921C10.5371 10.2334 10.492 9.89431 10.4017 9.57487C10.3114 9.25543 10.1899 8.94987 10.0371 8.6582C9.88433 8.94987 9.7628 9.25661 9.67253 9.57843C9.58225 9.90024 9.53711 10.2405 9.53711 10.5993C9.53711 10.958 9.58225 11.2971 9.67253 11.6165C9.7628 11.936 9.88433 12.2415 10.0371 12.5332ZM6.53711 14.5957C7.00933 14.5957 7.45378 14.5228 7.87044 14.377C8.28711 14.2311 8.66905 14.0193 9.01628 13.7415C8.70076 13.302 8.45869 12.8137 8.29007 12.2765C8.12143 11.7393 8.03711 11.179 8.03711 10.5957C8.03711 10.0124 8.12143 9.45211 8.29007 8.91493C8.45869 8.37774 8.70076 7.88938 9.01628 7.44987C8.66905 7.17209 8.28711 6.96029 7.87044 6.81445C7.45378 6.66862 7.00933 6.5957 6.53711 6.5957C5.43044 6.5957 4.48711 6.98616 3.70711 7.76708C2.92711 8.548 2.53711 9.49244 2.53711 10.6004C2.53711 11.7084 2.92711 12.6513 3.70711 13.429C4.48711 14.2068 5.43044 14.5957 6.53711 14.5957ZM6.53711 16.0957C5.00497 16.0957 3.70527 15.5625 2.63801 14.4962C1.57074 13.4298 1.03711 12.1312 1.03711 10.6003C1.03711 9.06947 1.57074 7.76931 2.63801 6.69987C3.70527 5.63043 5.00497 5.0957 6.53711 5.0957C7.19683 5.0957 7.82357 5.20334 8.41732 5.41862C9.01107 5.6339 9.551 5.94293 10.0371 6.3457C10.5232 5.94293 11.0632 5.6339 11.6569 5.41862C12.2507 5.20334 12.8774 5.0957 13.5371 5.0957C15.0692 5.0957 16.369 5.62888 17.4362 6.69525C18.5035 7.76162 19.0371 9.06023 19.0371 10.5911C19.0371 12.1219 18.5035 13.4221 17.4362 14.4915C16.369 15.561 15.0692 16.0957 13.5371 16.0957C12.8774 16.0957 12.2507 15.9881 11.6569 15.7728C11.0632 15.5575 10.5232 15.2485 10.0371 14.8457C9.551 15.2485 9.01107 15.5575 8.41732 15.7728C7.82357 15.9881 7.19683 16.0957 6.53711 16.0957Z" fill="white" fill-opacity="0.4"/>
</g>
</svg>
