<svg width="20" height="20" viewBox="0 0 20 20" fill="none" xmlns="http://www.w3.org/2000/svg">
<g clip-path="url(#clip0_7032_6628)">
<path d="M15.0026 10.4167C15.0026 8.62376 16.0347 7.0755 17.5349 6.32233C16.1957 5.068 14.4749 5 14.1691 5C13.3564 5 12.7764 5.22013 12.216 5.43294C11.6731 5.63924 11.1603 5.83374 10.4184 5.83374C9.67645 5.83374 9.16365 5.63924 8.62074 5.43294C8.06033 5.22013 7.48038 5 6.66764 5C6.15566 5 1.66666 5.16357 1.66666 10.8337C1.66666 15.4704 4.83093 20 6.66764 20C7.79212 20 8.43882 19.7371 9.00981 19.5052C9.45586 19.3241 9.84168 19.1675 10.4184 19.1675C10.9951 19.1675 11.3809 19.3241 11.8269 19.5056C12.3979 19.7371 13.0446 20 14.1687 20C15.4555 20 17.2878 17.7741 18.3333 14.8485C16.3597 14.3373 15.0026 12.5497 15.0026 10.4167Z" fill="white"/>
<path d="M10.0019 5C12.4432 4.5 14.1932 2.4876 14.1689 0C11.7275 0.5 9.97751 2.5124 10.0019 5Z" fill="white"/>
<path opacity="0.1" d="M6.66764 5.20833C7.48038 5.20833 8.06032 5.42847 8.62074 5.64128C9.16365 5.84757 9.67645 6.04207 10.4184 6.04207C11.1603 6.04207 11.6731 5.84757 12.216 5.64128C12.7764 5.42847 13.3564 5.20833 14.1691 5.20833C14.4638 5.20833 16.0706 5.28239 17.3859 6.41037C17.4366 6.3825 17.4832 6.34832 17.5349 6.32233C16.1957 5.068 14.4749 5 14.1691 5C13.3564 5 12.7764 5.22013 12.216 5.43294C11.6731 5.63924 11.1603 5.83374 10.4184 5.83374C9.67645 5.83374 9.16365 5.63924 8.62074 5.43294C8.06033 5.22013 7.48038 5 6.66764 5C6.15566 5 1.66666 5.16357 1.66666 10.8337C1.66666 10.872 1.67098 10.9099 1.67139 10.9481C1.72348 5.37537 6.15866 5.20833 6.66764 5.20833Z" fill="white"/>
<path opacity="0.1" d="M10.0044 4.77852C10.0141 4.72419 10.0261 4.57313 10.0381 4.48177C10.0467 4.36699 10.0592 4.25415 10.0754 4.14329C10.3799 2.05523 11.9949 0.668969 14.1664 0.217234C14.1687 0.145111 14.1695 0.0729879 14.1688 0C11.7996 0.485178 10.0817 2.39261 10.0044 4.77852Z" fill="white"/>
<path d="M15.0026 10.4167C15.0026 8.62376 16.0347 7.0755 17.5349 6.32233C16.1957 5.068 14.4749 5 14.1691 5C13.3564 5 12.7764 5.22013 12.216 5.43294C11.6731 5.63924 11.1603 5.83374 10.4184 5.83374C9.67645 5.83374 9.16365 5.63924 8.62074 5.43294C8.06033 5.22013 7.48038 5 6.66764 5C6.15566 5 1.66666 5.16357 1.66666 10.8337C1.66666 15.4704 4.83093 20 6.66764 20C7.79212 20 8.43882 19.7371 9.00981 19.5052C9.45586 19.3241 9.84168 19.1675 10.4184 19.1675C10.9951 19.1675 11.3809 19.3241 11.8269 19.5056C12.3979 19.7371 13.0446 20 14.1687 20C15.4555 20 17.2878 17.7741 18.3333 14.8485C16.3597 14.3373 15.0026 12.5497 15.0026 10.4167ZM14.1689 0C11.7275 0.49998 9.97751 2.51241 10.0019 5C12.4433 4.49997 14.1932 2.48759 14.1689 0Z" fill="url(#paint0_linear_7032_6628)"/>
</g>
<defs>
<linearGradient id="paint0_linear_7032_6628" x1="2.83329" y1="6.53503" x2="18.807" y2="13.9837" gradientUnits="userSpaceOnUse">
<stop stop-color="white" stop-opacity="0.2"/>
<stop offset="1" stop-color="white" stop-opacity="0"/>
</linearGradient>
<clipPath id="clip0_7032_6628">
<rect width="20" height="20" fill="white"/>
</clipPath>
</defs>
</svg>
