<svg width="21" height="21" viewBox="0 0 21 21" fill="none" xmlns="http://www.w3.org/2000/svg">
<mask id="mask0_4781_3406" style="mask-type:alpha" maskUnits="userSpaceOnUse" x="0" y="0" width="21" height="21">
<rect x="0.550781" y="0.237305" width="20" height="20" fill="#D9D9D9"/>
</mask>
<g mask="url(#mask0_4781_3406)">
<path d="M8.55647 12.6748H12.5716L13.2884 14.7122C13.343 14.8662 13.4386 14.9923 13.5751 15.0903C13.7117 15.1883 13.8633 15.2373 14.0299 15.2373C14.3077 15.2373 14.5299 15.1192 14.6966 14.8831C14.8633 14.647 14.8911 14.397 14.7799 14.1331L11.6549 5.77897C11.5855 5.6123 11.4799 5.48036 11.338 5.38314C11.1962 5.28592 11.0401 5.2373 10.8699 5.2373H10.2316C10.0614 5.2373 9.9054 5.28592 9.76355 5.38314C9.62171 5.48036 9.51606 5.6123 9.44661 5.77897L6.30078 14.154C6.20356 14.4179 6.23639 14.6644 6.39926 14.8936C6.56215 15.1227 6.77932 15.2373 7.05078 15.2373C7.23202 15.2373 7.38886 15.1883 7.5213 15.0903C7.65375 14.9923 7.75482 14.8592 7.82453 14.6912L8.55647 12.6748ZM9.05078 11.2373L10.5091 7.09147H10.5716L12.0299 11.2373H9.05078ZM4.05078 18.2373C3.63828 18.2373 3.28516 18.0904 2.99141 17.7967C2.69766 17.5029 2.55078 17.1498 2.55078 16.7373V3.7373C2.55078 3.3248 2.69766 2.97168 2.99141 2.67793C3.28516 2.38418 3.63828 2.2373 4.05078 2.2373H17.0508C17.4633 2.2373 17.8164 2.38418 18.1102 2.67793C18.4039 2.97168 18.5508 3.3248 18.5508 3.7373V16.7373C18.5508 17.1498 18.4039 17.5029 18.1102 17.7967C17.8164 18.0904 17.4633 18.2373 17.0508 18.2373H4.05078ZM4.05078 16.7373H17.0508V3.7373H4.05078V16.7373Z" fill="url(#paint0_linear_4781_3406)"/>
</g>
<defs>
<linearGradient id="paint0_linear_4781_3406" x1="15.5498" y1="0.679689" x2="1.55727" y2="2.2286" gradientUnits="userSpaceOnUse">
<stop stop-color="#F0BA2E"/>
<stop offset="1" stop-color="#F0A22E"/>
</linearGradient>
</defs>
</svg>
