<svg width="21" height="21" viewBox="0 0 21 21" fill="none" xmlns="http://www.w3.org/2000/svg">
<mask id="mask0_4748_4189" style="mask-type:alpha" maskUnits="userSpaceOnUse" x="0" y="0" width="21" height="21">
<rect x="0.0371094" y="0.595703" width="20" height="20" fill="#D9D9D9"/>
</mask>
<g mask="url(#mask0_4748_4189)">
<path d="M8.0428 13.0332H12.0579L12.7748 15.0706C12.8294 15.2246 12.9249 15.3507 13.0615 15.4487C13.198 15.5467 13.3496 15.5957 13.5163 15.5957C13.7941 15.5957 14.0163 15.4776 14.1829 15.2415C14.3496 15.0054 14.3774 14.7554 14.2663 14.4915L11.1413 6.13737C11.0718 5.9707 10.9662 5.83876 10.8243 5.74154C10.6825 5.64431 10.5265 5.5957 10.3563 5.5957H9.71796C9.54776 5.5957 9.39173 5.64431 9.24988 5.74154C9.10803 5.83876 9.00239 5.9707 8.93294 6.13737L5.78711 14.5124C5.68989 14.7763 5.72271 15.0228 5.88559 15.252C6.04848 15.4811 6.26565 15.5957 6.53711 15.5957C6.71835 15.5957 6.87519 15.5467 7.00763 15.4487C7.14007 15.3507 7.24115 15.2176 7.31086 15.0496L8.0428 13.0332ZM8.53711 11.5957L9.99544 7.44987H10.0579L11.5163 11.5957H8.53711ZM3.53711 18.5957C3.12461 18.5957 2.77148 18.4488 2.47773 18.1551C2.18398 17.8613 2.03711 17.5082 2.03711 17.0957V4.0957C2.03711 3.6832 2.18398 3.33008 2.47773 3.03633C2.77148 2.74258 3.12461 2.5957 3.53711 2.5957H16.5371C16.9496 2.5957 17.3027 2.74258 17.5965 3.03633C17.8902 3.33008 18.0371 3.6832 18.0371 4.0957V17.0957C18.0371 17.5082 17.8902 17.8613 17.5965 18.1551C17.3027 18.4488 16.9496 18.5957 16.5371 18.5957H3.53711ZM3.53711 17.0957H16.5371V4.0957H3.53711V17.0957Z" fill="white" fill-opacity="0.4"/>
</g>
</svg>
