<svg width="24" height="24" viewBox="0 0 24 24" fill="none" xmlns="http://www.w3.org/2000/svg">
<g opacity="0.5">
<mask id="mask0_4960_2969" style="mask-type:alpha" maskUnits="userSpaceOnUse" x="0" y="0" width="24" height="24">
<rect width="24" height="24" fill="#D9D9D9"/>
</mask>
<g mask="url(#mask0_4960_2969)">
<path d="M15.1992 18.6754L14.3716 21.0106C14.3067 21.1871 14.1961 21.3296 14.0398 21.4379C13.8836 21.5462 13.7117 21.6004 13.5242 21.6004C13.1909 21.6004 12.9367 21.4671 12.7617 21.2004C12.5867 20.9337 12.5576 20.6504 12.6742 20.3504L16.2492 10.8254C16.3294 10.6421 16.4495 10.4921 16.6098 10.3754C16.77 10.2587 16.9463 10.2004 17.1386 10.2004H17.8598C18.0521 10.2004 18.2284 10.2587 18.3886 10.3754C18.5489 10.4921 18.6691 10.6421 18.7492 10.8254L22.3492 20.3754C22.4659 20.6754 22.4295 20.9546 22.24 21.2129C22.0505 21.4712 21.7979 21.6004 21.4821 21.6004C21.2769 21.6004 21.0951 21.5421 20.9367 21.4254C20.7784 21.3087 20.6659 21.1587 20.5992 20.9754L19.7939 18.6754H15.1992ZM8.99922 13.8754L4.84922 17.9754C4.66589 18.1587 4.45755 18.2462 4.22422 18.2379C3.99089 18.2296 3.78255 18.1337 3.59922 17.9504C3.41589 17.7671 3.32422 17.5587 3.32422 17.3254C3.32422 17.0921 3.41589 16.8837 3.59922 16.7004L7.77422 12.5754C7.17422 11.9421 6.61589 11.2837 6.09922 10.6004C5.58255 9.91706 5.13255 9.17539 4.74922 8.37539H6.79922C7.09922 8.90872 7.39922 9.36289 7.69922 9.73789C7.99922 10.1129 8.43255 10.6171 8.99922 11.2504C9.63255 10.5504 10.2159 9.82122 10.7492 9.06289C11.2826 8.30456 11.7159 7.48372 12.0492 6.60039H2.09922C1.84422 6.60039 1.63047 6.51465 1.45797 6.34317C1.28547 6.17167 1.19922 5.95917 1.19922 5.70567C1.19922 5.45215 1.28547 5.23789 1.45797 5.06289C1.63047 4.88789 1.84422 4.80039 2.09922 4.80039H8.09922V3.30039C8.09922 3.04539 8.18496 2.83164 8.35644 2.65914C8.52794 2.48664 8.74044 2.40039 8.99394 2.40039C9.24746 2.40039 9.46172 2.48664 9.63672 2.65914C9.81172 2.83164 9.89922 3.04539 9.89922 3.30039V4.80039H15.8992C16.1542 4.80039 16.368 4.88613 16.5405 5.05762C16.713 5.22912 16.7992 5.44162 16.7992 5.69512C16.7992 5.94863 16.713 6.16289 16.5405 6.33789C16.368 6.51289 16.1542 6.60039 15.8992 6.60039H13.96C13.6028 7.75039 13.0909 8.81289 12.4242 9.78789C11.7576 10.7629 11.0242 11.6921 10.2242 12.5754L12.4992 14.8254L11.7992 16.6754L8.99922 13.8754ZM15.7992 17.0254H19.1992L17.5492 12.3004L15.7992 17.0254Z" fill="white"/>
</g>
</g>
</svg>
