<svg width="19" height="19" viewBox="0 0 19 19" fill="none" xmlns="http://www.w3.org/2000/svg">
<mask id="mask0_4960_3219" style="mask-type:alpha" maskUnits="userSpaceOnUse" x="0" y="0" width="19" height="19">
<rect x="0.746094" y="0.525391" width="17.998" height="17.998" fill="#D9D9D9"/>
</mask>
<g mask="url(#mask0_4960_3219)">
<path d="M11.5459 5.9248H8.84617C8.59619 5.9248 8.38372 5.83731 8.20874 5.66233C8.03376 5.48735 7.94627 5.27487 7.94627 5.0249C7.94627 4.77493 8.03376 4.56245 8.20874 4.38747C8.38372 4.21249 8.59619 4.125 8.84617 4.125H16.0454C16.2953 4.125 16.5078 4.21249 16.6828 4.38747C16.8578 4.56245 16.9453 4.77493 16.9453 5.0249C16.9453 5.27487 16.8578 5.48735 16.6828 5.66233C16.5078 5.83731 16.2953 5.9248 16.0454 5.9248H13.3457V14.0239C13.3457 14.2739 13.2582 14.4863 13.0832 14.6613C12.9082 14.8363 12.6957 14.9238 12.4458 14.9238C12.1958 14.9238 11.9833 14.8363 11.8083 14.6613C11.6334 14.4863 11.5459 14.2739 11.5459 14.0239V5.9248ZM4.79662 9.52439H3.44677C3.1968 9.52439 2.98433 9.4369 2.80935 9.26192C2.63437 9.08694 2.54688 8.87447 2.54688 8.62449C2.54688 8.37452 2.63437 8.16205 2.80935 7.98707C2.98433 7.81209 3.1968 7.7246 3.44677 7.7246H7.94627C8.19624 7.7246 8.40872 7.81209 8.5837 7.98707C8.75868 8.16205 8.84617 8.37452 8.84617 8.62449C8.84617 8.87447 8.75868 9.08694 8.5837 9.26192C8.40872 9.4369 8.19624 9.52439 7.94627 9.52439H6.59642V14.0239C6.59642 14.2739 6.50893 14.4863 6.33395 14.6613C6.15897 14.8363 5.94649 14.9238 5.69652 14.9238C5.44655 14.9238 5.23407 14.8363 5.05909 14.6613C4.88411 14.4863 4.79662 14.2739 4.79662 14.0239V9.52439Z" fill="#75787C"/>
</g>
</svg>
