<svg width="29" height="29" viewBox="0 0 29 29" fill="none" xmlns="http://www.w3.org/2000/svg">
<g filter="url(#filter0_d_127_226)">
<mask id="mask0_127_226" style="mask-type:alpha" maskUnits="userSpaceOnUse" x="0" y="0" width="29" height="29">
<rect x="0.291992" y="0.850586" width="28" height="28" fill="#D9D9D9"/>
</mask>
<g mask="url(#mask0_127_226)">
<path d="M11.9587 16.7174L18.8421 9.83402C19.056 9.62013 19.3282 9.51318 19.6587 9.51318C19.9893 9.51318 20.2615 9.62013 20.4754 9.83402C20.6893 10.0479 20.7962 10.3201 20.7962 10.6507C20.7962 10.9812 20.6893 11.2535 20.4754 11.4674L12.7754 19.1674C12.5421 19.4007 12.2698 19.5173 11.9587 19.5173C11.6476 19.5173 11.3754 19.4007 11.1421 19.1674L8.10874 16.134C7.89485 15.9201 7.7879 15.6479 7.7879 15.3173C7.7879 14.9868 7.89485 14.7146 8.10874 14.5007C8.32263 14.2868 8.59485 14.1799 8.9254 14.1799C9.25596 14.1799 9.52818 14.2868 9.74207 14.5007L11.9587 16.7174Z" fill="white"/>
</g>
</g>
<defs>
<filter id="filter0_d_127_226" x="2.7879" y="6.51318" width="23.0084" height="20.0042" filterUnits="userSpaceOnUse" color-interpolation-filters="sRGB">
<feFlood flood-opacity="0" result="BackgroundImageFix"/>
<feColorMatrix in="SourceAlpha" type="matrix" values="0 0 0 0 0 0 0 0 0 0 0 0 0 0 0 0 0 0 127 0" result="hardAlpha"/>
<feOffset dy="2"/>
<feGaussianBlur stdDeviation="2.5"/>
<feComposite in2="hardAlpha" operator="out"/>
<feColorMatrix type="matrix" values="0 0 0 0 0 0 0 0 0 0 0 0 0 0 0 0 0 0 0.25 0"/>
<feBlend mode="normal" in2="BackgroundImageFix" result="effect1_dropShadow_127_226"/>
<feBlend mode="normal" in="SourceGraphic" in2="effect1_dropShadow_127_226" result="shape"/>
</filter>
</defs>
</svg>
