<svg width="172" height="150" viewBox="0 0 172 150" fill="none" xmlns="http://www.w3.org/2000/svg">
<path d="M170.583 68.9404L170.553 68.8671C170.432 68.5392 170.303 68.2156 170.147 67.8963L152.035 24.6743L82.9913 46.6434C81.6063 46.9972 80.23 47.433 78.8926 47.9464L1.02563 72.7242L19.7115 117.409C19.8539 117.836 20.0307 118.25 20.2292 118.651V118.66H20.2335C21.4674 121.124 23.767 123.134 27.1193 124.346L91.659 147.662C103.304 151.868 119.327 146.911 126.748 136.781L168.374 79.9767C171.161 76.1714 171.769 72.2841 170.57 68.9318L170.583 68.9404Z" fill="url(#paint0_linear_7027_3347)"/>
<mask id="mask0_7027_3347" style="mask-type:luminance" maskUnits="userSpaceOnUse" x="1" y="24" width="171" height="126">
<path d="M170.584 68.9409L170.553 68.8676C170.433 68.5397 170.303 68.2161 170.148 67.8968L152.036 24.6748L82.9919 46.6439C81.607 46.9977 80.2307 47.4335 78.8932 47.9469L1.02625 72.7247L19.7121 117.409C19.8545 117.836 20.0313 118.251 20.2298 118.652V118.66H20.2341C21.4681 121.124 23.7676 123.135 27.1199 124.347L91.6596 147.662C103.304 151.869 119.328 146.911 126.749 136.781L168.375 79.9772C171.162 76.1719 171.77 72.2846 170.571 68.9323L170.584 68.9409Z" fill="white"/>
</mask>
<g mask="url(#mask0_7027_3347)">
<path d="M166.105 58.0947L166.075 58.0214C165.954 57.6935 165.824 57.3699 165.669 57.0506L147.557 13.8286L78.513 35.7977C77.1281 36.1515 75.7518 36.5873 74.4143 37.1007L-3.45262 61.8785L15.2332 106.563C15.3756 106.99 15.5525 107.404 15.7509 107.806V107.814H15.7553C16.9892 110.278 19.2888 112.288 22.6411 113.501L87.1808 136.816C98.8254 141.022 114.849 136.065 122.27 125.935L163.896 69.131C166.683 65.3257 167.291 61.4384 166.092 58.0861L166.105 58.0947Z" fill="url(#paint1_linear_7027_3347)"/>
<path d="M163.087 51.2085L163.057 51.1351C162.936 50.8072 162.806 50.4837 162.651 50.1644L144.539 6.94238L75.495 28.9115C74.1101 29.2653 72.7338 29.701 71.3963 30.2145L-6.47061 54.9923L12.2152 99.6769C12.3576 100.104 12.5345 100.518 12.7329 100.919V100.928H12.7373C13.9712 103.392 16.2708 105.402 19.6231 106.614L84.1628 129.93C95.8074 134.136 111.831 129.179 119.252 119.049L160.878 62.2448C163.665 58.4395 164.273 54.5522 163.074 51.1999L163.087 51.2085Z" fill="url(#paint2_linear_7027_3347)"/>
<path d="M160.355 43.7622L160.325 43.6889C160.204 43.361 160.075 43.0374 159.92 42.7181L141.808 -0.503906L72.7636 21.4652C71.3787 21.819 70.0024 22.2547 68.6649 22.7682L-9.20202 47.546L9.48378 92.2306C9.62615 92.6577 9.80308 93.0719 10.0015 93.4731V93.4818H10.0059C11.2398 95.9453 13.5394 97.9558 16.8917 99.1682L81.4313 122.483C93.076 126.69 109.1 121.733 116.521 111.602L158.146 54.7986C160.933 50.9932 161.542 47.1059 160.342 43.7536L160.355 43.7622Z" fill="url(#paint3_linear_7027_3347)"/>
<path d="M157.334 36.8765L157.304 36.8031C157.183 36.4752 157.054 36.1516 156.898 35.8324L138.786 -7.38965L69.7424 14.5795C68.3575 14.9332 66.9812 15.369 65.6437 15.8824L-12.2232 40.6602L6.46258 85.3448C6.60496 85.772 6.78188 86.1862 6.98035 86.5874V86.596H6.98466C8.21859 89.0595 10.5182 91.0701 13.8705 92.2824L78.4101 115.598C90.0548 119.804 106.079 114.847 113.499 104.717L155.125 47.9128C157.912 44.1075 158.521 40.2202 157.321 36.8678L157.334 36.8765Z" fill="url(#paint4_linear_7027_3347)"/>
</g>
<path d="M6.25482 58.7554L6.25485 58.7553L49.7443 11.1714C52.856 7.76692 57.4828 5.05502 62.4949 3.45358C67.5079 1.85187 72.8081 1.39232 77.2366 2.38628L77.2367 2.3863L139.986 16.4643C145.38 17.675 148.981 20.3685 150.551 23.5887C152.101 26.768 151.78 30.6829 148.877 34.6447L107.251 91.4485L107.251 91.4486C103.692 96.3079 98.0269 99.9706 91.7996 101.9C85.5716 103.829 78.8825 103.992 73.3081 101.98L73.1435 101.921H73.1394L8.76447 78.6649C8.76445 78.6649 8.76442 78.6649 8.76439 78.6649C4.34077 77.0664 1.99678 74.0604 1.54741 70.5789C1.09154 67.047 2.55775 62.8001 6.25482 58.7554Z" fill="url(#paint5_linear_7027_3347)" stroke="url(#paint6_linear_7027_3347)" stroke-width="2"/>
<path d="M115.867 45.9528C115.677 46.216 115.47 46.4964 115.263 46.7812C110.409 53.529 105.443 60.4882 100.235 67.6286C98.6132 69.8505 96.7666 72.0293 94.9114 74.2167C89.4537 80.6538 77.054 83.4194 70.9318 81.5253C67.3724 80.4252 63.8346 79.3509 60.4046 78.2032C52.0864 75.4204 43.9752 72.711 36.1532 69.9713C32.1105 68.5562 30.0223 65.851 29.1379 62.5159C28.3872 59.6857 29.5305 56.7044 31.7222 53.7361C33.3186 51.5745 34.9839 49.4389 36.7787 47.3766C42.0035 41.3795 47.1808 35.568 52.1899 29.8902C52.4272 29.6184 52.6731 29.3509 53.0399 28.9453C72.6964 34.265 93.505 39.8997 115.862 45.9485L115.867 45.9528ZM80.4667 57.934C80.9542 57.3818 80.6695 56.6699 80.1863 55.9796C77.5717 52.2303 75.0348 48.5588 72.5411 44.9821C72.0277 44.2443 71.5445 43.4893 70.9405 42.8076C69.7152 41.4227 67.4199 41.7376 65.9486 43.5065C61.5048 48.8521 56.9876 54.3358 52.3754 59.9575C50.9474 61.7005 51.8275 62.9603 54.2781 62.7403C54.9986 62.6756 55.7364 62.5548 56.4655 62.4512C63.2823 61.5107 70.1293 60.5615 77.0108 59.6166C78.2232 59.4484 79.3665 59.1981 80.4667 57.934Z" fill="url(#paint7_linear_7027_3347)"/>
<path d="M81.3856 19.6865C83.9095 20.3035 86.2782 20.8903 88.6684 21.4684C91.6583 22.1932 94.6913 22.9094 97.7114 23.6731C98.0695 23.7637 98.4535 24.0527 98.4578 24.3073C98.4923 27.9573 98.4665 31.6936 98.4492 35.5119C98.4492 35.6284 98.4104 35.7535 98.3758 35.9476C98.0264 35.8829 97.7632 35.8484 97.5173 35.7837C92.176 34.4117 86.9253 33.057 81.7437 31.7324C81.2216 31.5987 80.8894 31.4347 80.911 30.9601C81.062 27.3188 81.1699 23.7593 81.2907 20.269C81.295 20.1352 81.3381 20.0015 81.3899 19.6865H81.3856Z" fill="url(#paint8_linear_7027_3347)"/>
<path d="M118.757 41.3408C116.354 40.7109 114.042 40.0983 111.742 39.4986C109.65 38.9506 107.557 38.4243 105.512 37.8591C105.189 37.7685 104.817 37.5096 104.809 37.2766C104.714 33.3332 104.671 29.4675 104.623 25.688C104.623 25.6233 104.679 25.55 104.723 25.4551C106.845 25.9728 109.024 26.4086 111.06 27.0298C115.953 28.5183 119.215 31.0509 120.155 35.0159C120.643 37.0825 120.155 39.5676 118.757 41.3494V41.3408Z" fill="url(#paint9_linear_7027_3347)"/>
<path d="M74.8275 29.9338C68.619 28.2986 62.6521 26.7281 56.7068 25.1663C58.3506 23.5397 60.2231 22.1289 62.6392 21.128C66.6646 19.4583 70.7029 18.6903 74.7584 18.7939C75.2158 18.8068 75.548 18.837 75.5221 19.2383C75.3236 22.6078 75.1553 26.0378 74.9655 29.5368C74.9612 29.6274 74.9008 29.7224 74.8275 29.9338Z" fill="url(#paint10_linear_7027_3347)"/>
<defs>
<linearGradient id="paint0_linear_7027_3347" x1="14.9267" y1="129.921" x2="172.537" y2="54.7718" gradientUnits="userSpaceOnUse">
<stop offset="0.08" stop-color="#585F6F"/>
<stop offset="0.12" stop-color="#4C5260"/>
<stop offset="0.17" stop-color="#454A57"/>
<stop offset="0.24" stop-color="#434855"/>
<stop offset="0.29" stop-color="#393D48"/>
<stop offset="0.37" stop-color="#32363F"/>
<stop offset="0.48" stop-color="#30343D"/>
<stop offset="0.63" stop-color="#373B46"/>
<stop offset="0.8" stop-color="#454957"/>
<stop offset="0.88" stop-color="#424654"/>
<stop offset="0.95" stop-color="#3B3E4B"/>
<stop offset="1" stop-color="#2E313B"/>
</linearGradient>
<linearGradient id="paint1_linear_7027_3347" x1="166.549" y1="54.5698" x2="17.2696" y2="112.672" gradientUnits="userSpaceOnUse">
<stop offset="0.08" stop-color="#596070"/>
<stop offset="0.12" stop-color="#525867"/>
<stop offset="0.27" stop-color="#3E424F"/>
<stop offset="0.41" stop-color="#323540"/>
<stop offset="0.52" stop-color="#2E313B"/>
<stop offset="1" stop-color="#596070"/>
</linearGradient>
<linearGradient id="paint2_linear_7027_3347" x1="7.4305" y1="112.189" x2="165.041" y2="37.0399" gradientUnits="userSpaceOnUse">
<stop offset="0.08" stop-color="#585F6F"/>
<stop offset="0.12" stop-color="#4C5260"/>
<stop offset="0.17" stop-color="#454A57"/>
<stop offset="0.24" stop-color="#434855"/>
<stop offset="0.29" stop-color="#393D48"/>
<stop offset="0.37" stop-color="#32363F"/>
<stop offset="0.48" stop-color="#30343D"/>
<stop offset="0.63" stop-color="#373B46"/>
<stop offset="0.8" stop-color="#454957"/>
<stop offset="0.88" stop-color="#424654"/>
<stop offset="0.95" stop-color="#3B3E4B"/>
<stop offset="1" stop-color="#2E313B"/>
</linearGradient>
<linearGradient id="paint3_linear_7027_3347" x1="160.8" y1="40.2373" x2="11.5202" y2="98.3398" gradientUnits="userSpaceOnUse">
<stop offset="0.08" stop-color="#596070"/>
<stop offset="0.12" stop-color="#525867"/>
<stop offset="0.27" stop-color="#3E424F"/>
<stop offset="0.41" stop-color="#323540"/>
<stop offset="0.52" stop-color="#2E313B"/>
<stop offset="1" stop-color="#596070"/>
</linearGradient>
<linearGradient id="paint4_linear_7027_3347" x1="1.67358" y1="97.8567" x2="159.289" y2="22.7079" gradientUnits="userSpaceOnUse">
<stop offset="0.08" stop-color="#585F6F"/>
<stop offset="0.12" stop-color="#4C5260"/>
<stop offset="0.17" stop-color="#454A57"/>
<stop offset="0.24" stop-color="#434855"/>
<stop offset="0.29" stop-color="#393D48"/>
<stop offset="0.37" stop-color="#32363F"/>
<stop offset="0.48" stop-color="#30343D"/>
<stop offset="0.63" stop-color="#373B46"/>
<stop offset="0.8" stop-color="#454957"/>
<stop offset="0.88" stop-color="#424654"/>
<stop offset="0.95" stop-color="#3B3E4B"/>
<stop offset="1" stop-color="#2E313B"/>
</linearGradient>
<linearGradient id="paint5_linear_7027_3347" x1="42.0427" y1="13.2796" x2="144.286" y2="117.758" gradientUnits="userSpaceOnUse">
<stop stop-color="#575E6E"/>
<stop offset="0.02" stop-color="#545A6A"/>
<stop offset="0.14" stop-color="#444956"/>
<stop offset="0.27" stop-color="#3B3F4A"/>
<stop offset="0.4" stop-color="#383C47"/>
<stop offset="0.76" stop-color="#202229"/>
</linearGradient>
<linearGradient id="paint6_linear_7027_3347" x1="65.6061" y1="-1.05141" x2="74.5693" y2="41.4409" gradientUnits="userSpaceOnUse">
<stop stop-color="#D98200"/>
<stop offset="0.28" stop-color="#F7DAAF"/>
<stop offset="1" stop-color="#8A5D1A" stop-opacity="0"/>
</linearGradient>
<linearGradient id="paint7_linear_7027_3347" x1="99.5566" y1="23.7695" x2="25.0195" y2="37.2648" gradientUnits="userSpaceOnUse">
<stop stop-color="#F0BA2E"/>
<stop offset="1" stop-color="#F0A22E"/>
</linearGradient>
<linearGradient id="paint8_linear_7027_3347" x1="95.1804" y1="18.1035" x2="79.8503" y2="19.9365" gradientUnits="userSpaceOnUse">
<stop stop-color="#F0BA2E"/>
<stop offset="1" stop-color="#F0A22E"/>
</linearGradient>
<linearGradient id="paint9_linear_7027_3347" x1="117.391" y1="23.9077" x2="103.644" y2="25.4125" gradientUnits="userSpaceOnUse">
<stop stop-color="#F0BA2E"/>
<stop offset="1" stop-color="#F0A22E"/>
</linearGradient>
<linearGradient id="paint10_linear_7027_3347" x1="71.9942" y1="17.6993" x2="55.8986" y2="20.7063" gradientUnits="userSpaceOnUse">
<stop stop-color="#F0BA2E"/>
<stop offset="1" stop-color="#F0A22E"/>
</linearGradient>
</defs>
</svg>
