<svg width="47" height="48" viewBox="0 0 47 48" fill="none" xmlns="http://www.w3.org/2000/svg">
<g clip-path="url(#clip0_4781_3912)">
<path d="M7.87394 30.2292C6.5733 28.8477 5.875 27.2983 5.875 24.7867C5.875 20.6414 8.60439 16.8993 12.666 14.8347C13.1342 14.5967 13.6987 14.7703 13.9844 15.2111C14.3254 15.7373 14.141 16.4393 13.6155 16.7814C10.2695 18.9597 9.55457 21.5798 9.25414 23.2853C9.93224 22.9343 10.82 22.8118 11.69 22.8926C13.968 23.1035 15.7636 24.9736 15.7636 27.2983C15.7636 28.4705 15.298 29.5947 14.4692 30.4235C13.6403 31.2524 12.5162 31.718 11.344 31.718C9.98906 31.718 8.69347 31.0992 7.87394 30.2292ZM20.5015 30.2292C19.2009 28.8477 18.5026 27.2983 18.5026 24.7867C18.5026 20.6414 21.232 16.8993 25.2935 14.8347C25.7618 14.5967 26.3263 14.7703 26.612 15.2111C26.953 15.7373 26.7686 16.4393 26.2431 16.7814C22.897 18.9597 22.1821 21.5798 21.8817 23.2853C22.5598 22.9343 23.4475 22.8118 24.3176 22.8926C26.5956 23.1035 28.3912 24.9736 28.3912 27.2983C28.3912 28.4705 27.9256 29.5947 27.0967 30.4235C26.2679 31.2524 25.1437 31.718 23.9716 31.718C22.6166 31.718 21.321 31.0992 20.5015 30.2292Z" fill="url(#paint0_linear_4781_3912)"/>
</g>
<defs>
<linearGradient id="paint0_linear_4781_3912" x1="24.1681" y1="12.7659" x2="4.64225" y2="15.5838" gradientUnits="userSpaceOnUse">
<stop stop-color="#F0BA2E"/>
<stop offset="1" stop-color="#F0A22E"/>
</linearGradient>
<clipPath id="clip0_4781_3912">
<rect width="47" height="47" fill="white" transform="translate(0 0.246094)"/>
</clipPath>
</defs>
</svg>
