<svg width="13" height="13" viewBox="0 0 13 13" fill="none" xmlns="http://www.w3.org/2000/svg">
<mask id="mask0_4960_3223" style="mask-type:alpha" maskUnits="userSpaceOnUse" x="0" y="0" width="13" height="13">
<rect x="0.25" y="12.5244" width="11.9987" height="11.9987" transform="rotate(-90 0.25 12.5244)" fill="#D9D9D9"/>
</mask>
<g mask="url(#mask0_4960_3223)">
<path d="M6.25066 7.82456L9.77526 4.29996C9.89192 4.1833 10.0336 4.12498 10.2002 4.12498C10.3669 4.12498 10.5085 4.1833 10.6252 4.29996C10.7418 4.41661 10.8001 4.55826 10.8001 4.72491C10.8001 4.89156 10.7418 5.03321 10.6252 5.14986L6.88809 8.88694C6.79643 8.9786 6.69644 9.04526 6.58812 9.08692C6.4798 9.12858 6.36731 9.14941 6.25066 9.14941C6.13401 9.14941 6.02152 9.12858 5.9132 9.08692C5.80488 9.04526 5.70489 8.9786 5.61323 8.88694L1.87615 5.14986C1.7595 5.03321 1.70117 4.89156 1.70117 4.72491C1.70117 4.55826 1.7595 4.41661 1.87615 4.29996C1.99281 4.18331 2.13446 4.12498 2.3011 4.12498C2.46775 4.12498 2.6094 4.18331 2.72606 4.29996L6.25066 7.82456Z" fill="white"/>
</g>
</svg>
