<svg width="21" height="21" viewBox="0 0 21 21" fill="none" xmlns="http://www.w3.org/2000/svg">
<mask id="mask0_4748_4201" style="mask-type:alpha" maskUnits="userSpaceOnUse" x="0" y="0" width="21" height="21">
<rect x="0.0371094" y="0.595703" width="20" height="20" fill="#D9D9D9"/>
</mask>
<g mask="url(#mask0_4748_4201)">
<path d="M2.03711 18.5957V4.0957C2.03711 3.6832 2.18398 3.33008 2.47773 3.03633C2.77148 2.74258 3.12461 2.5957 3.53711 2.5957H12.5371C12.9496 2.5957 13.3027 2.74258 13.5965 3.03633C13.8902 3.33008 14.0371 3.6832 14.0371 4.0957V4.63737C13.7177 4.81793 13.4329 5.03668 13.1829 5.29362C12.9329 5.55056 12.7177 5.83876 12.5371 6.1582V4.0957H3.53711V14.0957H12.5371V10.0332C12.7177 10.3526 12.936 10.6416 13.1921 10.9C13.4481 11.1584 13.7298 11.3764 14.0371 11.554V14.0957C14.0371 14.5082 13.8902 14.8613 13.5965 15.1551C13.3027 15.4488 12.9496 15.5957 12.5371 15.5957H5.03711L2.03711 18.5957ZM5.03711 12.5957H8.03711V11.0957H5.03711V12.5957ZM16.0371 10.5957C15.3427 10.5957 14.7524 10.3526 14.2663 9.86654C13.7802 9.38043 13.5371 8.79015 13.5371 8.0957C13.5371 7.40126 13.7802 6.81098 14.2663 6.32487C14.7524 5.83876 15.3427 5.5957 16.0371 5.5957C16.176 5.5957 16.3184 5.61306 16.4642 5.64779C16.61 5.68251 16.801 5.73459 17.0371 5.80404V1.5957H20.0371V3.0957H18.5371V8.0957C18.5371 8.79015 18.2941 9.38043 17.8079 9.86654C17.3218 10.3526 16.7316 10.5957 16.0371 10.5957ZM5.03711 9.8457H11.0371V8.3457H5.03711V9.8457ZM5.03711 7.0957H11.0371V5.5957H5.03711V7.0957Z" fill="white" fill-opacity="0.4"/>
</g>
</svg>
