<svg width="20" height="21" viewBox="0 0 20 21" fill="none" xmlns="http://www.w3.org/2000/svg">
<path d="M9.99929 2.62402C5.20187 2.62402 1.3125 6.51339 1.3125 11.3112C1.3125 16.1096 5.20152 19.9983 9.99929 19.9983C14.7978 19.9983 18.6864 16.1096 18.6864 11.3112C18.6864 6.51339 14.7974 2.62402 9.99929 2.62402ZM6.73645 6.80973C7.50339 6.49611 8.1271 6.37087 8.6478 6.36135C8.65132 6.36135 8.65521 6.36135 8.65944 6.36135C8.96459 6.36135 9.24082 6.39733 9.48564 6.45518C9.99752 6.58536 10.7334 7.02704 10.7334 7.02704V7.02915C10.5225 7.75199 9.89839 9.893 9.68814 10.6046C9.13886 10.2408 8.54867 9.90711 7.71611 9.90041C7.70659 9.90041 7.69742 9.90041 7.68789 9.90041C7.15096 9.90041 6.51208 10.0408 5.72398 10.3633L6.73645 6.80973ZM6.39284 14.3493C5.8658 14.3493 5.23891 14.4745 4.46245 14.7881L5.48938 11.2265C5.6065 11.1782 5.7208 11.1355 5.83158 11.0956C6.20623 10.9633 6.73963 10.813 7.32524 10.7654C7.39191 10.7598 7.45823 10.7566 7.5242 10.7566C8.1084 10.7566 8.64109 10.9612 9.02421 11.1577C9.18755 11.2459 9.34242 11.3415 9.49623 11.4375C9.36041 11.9031 8.64392 14.3493 8.43296 15.063C7.86393 14.6855 7.26138 14.3493 6.39284 14.3493ZM13.2829 15.6898C12.432 16.0412 11.7519 16.1813 11.1829 16.1813C10.2829 16.1813 9.08418 15.4411 9.0863 15.4432L10.1101 11.8865C10.4216 12.136 11.1437 12.6094 12.3308 12.6094C12.8765 12.6094 13.5214 12.5088 14.2704 12.24L13.2829 15.6898ZM14.5371 11.296C14.5342 11.2967 14.5321 11.2974 14.5307 11.2974C14.5307 11.3002 14.5307 11.3023 14.5307 11.3038C13.8121 11.6421 13.1542 11.7772 12.5629 11.7772C11.6679 11.7772 10.925 11.4678 10.3545 11.0868C10.351 11.084 10.3464 11.0819 10.3436 11.0787L11.3811 7.48812C11.7099 7.74317 12.4511 8.22189 13.5764 8.22189C14.1427 8.22189 14.8041 8.10054 15.5601 7.7714L14.5371 11.296Z" fill="white"/>
</svg>
