<svg width="32" height="31" viewBox="0 0 32 31" fill="none" xmlns="http://www.w3.org/2000/svg">
<circle cx="16" cy="15.3057" r="15.0312" fill="#0A0D1C"/>
<mask id="mask0_4966_4035" style="mask-type:alpha" maskUnits="userSpaceOnUse" x="4" y="3" width="24" height="25">
<rect x="28" y="3.30566" width="24" height="24" transform="rotate(90 28 3.30566)" fill="#D9D9D9"/>
</mask>
<g mask="url(#mask0_4966_4035)">
<path d="M14.9999 19.4807L14.9999 8.30566C14.9999 8.02233 15.0957 7.78483 15.2874 7.59316C15.4791 7.4015 15.7166 7.30566 15.9999 7.30566C16.2832 7.30566 16.5207 7.4015 16.7124 7.59316C16.9041 7.78483 16.9999 8.02233 16.9999 8.30566L16.9999 19.4807L21.8999 14.5807C22.0999 14.3807 22.3332 14.2848 22.5999 14.2932C22.8666 14.3015 23.0999 14.4057 23.2999 14.6057C23.4832 14.8057 23.5791 15.039 23.5874 15.3057C23.5957 15.5723 23.4999 15.8057 23.2999 16.0057L16.6999 22.6057C16.5999 22.7057 16.4916 22.7765 16.3749 22.8182C16.2582 22.8598 16.1332 22.8807 15.9999 22.8807C15.8666 22.8807 15.7416 22.8598 15.6249 22.8182C15.5082 22.7765 15.3999 22.7057 15.2999 22.6057L8.69989 16.0057C8.51656 15.8223 8.42489 15.5932 8.42489 15.3182C8.42489 15.0432 8.51656 14.8057 8.69989 14.6057C8.89989 14.4057 9.13739 14.3057 9.41239 14.3057C9.68739 14.3057 9.92489 14.4057 10.1249 14.6057L14.9999 19.4807Z" fill="white"/>
</g>
</svg>
