<svg width="276" height="235" viewBox="0 0 276 235" fill="none" xmlns="http://www.w3.org/2000/svg">
<path d="M275.318 117.397C275.318 182.289 173.269 234.862 47.3224 234.862C31.0995 234.862 15.2805 233.987 0 232.371H1.81751C119.955 232.371 215.745 180.943 215.745 117.465C215.745 53.9866 120.023 2.49066 1.81751 2.49066H0.26926C15.4151 0.875095 31.1668 0 47.3224 0C173.269 0 275.318 52.573 275.318 117.397Z" fill="url(#paint0_linear_7040_6698)"/>
<path d="M187.933 117.401C187.933 155.905 133.677 189.091 55.5246 204.237C40.7152 207.132 25.0309 209.353 8.67331 210.834C74.0362 193.332 118.666 158.059 118.666 117.401C118.666 76.7427 73.9689 41.4697 8.67331 23.9678C25.0309 25.4487 40.6479 27.6701 55.4572 30.5646C133.677 45.7105 187.933 78.8968 187.933 117.401Z" fill="url(#paint1_linear_7040_6698)"/>
<defs>
<linearGradient id="paint0_linear_7040_6698" x1="31.3688" y1="117.465" x2="246.844" y2="117.465" gradientUnits="userSpaceOnUse">
<stop stop-color="#FFB70F" stop-opacity="0"/>
<stop offset="1" stop-color="#FFB70F"/>
</linearGradient>
<linearGradient id="paint1_linear_7040_6698" x1="4.76904" y1="117.401" x2="220.177" y2="117.401" gradientUnits="userSpaceOnUse">
<stop offset="0.13" stop-color="white" stop-opacity="0"/>
<stop offset="0.21" stop-color="white" stop-opacity="0.0169"/>
<stop offset="0.45" stop-color="white" stop-opacity="0.25"/>
<stop offset="0.64" stop-color="white" stop-opacity="0.5929"/>
<stop offset="0.77" stop-color="white" stop-opacity="0.8836"/>
<stop offset="0.84" stop-color="white"/>
</linearGradient>
</defs>
</svg>
