<svg width="654" height="1143" viewBox="0 0 654 1143" fill="none" xmlns="http://www.w3.org/2000/svg">
<g clip-path="url(#clip0_5280_4276)">
<rect width="654" height="1143" transform="matrix(-1 0 0 1 654 0)" fill="#080B18"/>
<g style="mix-blend-mode:color-dodge">
<rect width="9" height="8" transform="matrix(-1 0 0 1 375.32 681.464)" fill="black"/>
<ellipse cx="4.5" cy="4" rx="4.5" ry="4" transform="matrix(-1 0 0 1 375.32 681.464)" fill="url(#paint0_radial_5280_4276)"/>
</g>
<g style="mix-blend-mode:color-dodge">
<rect width="9" height="9" transform="matrix(-1 0 0 1 224.32 297.464)" fill="black"/>
<circle cx="4.5" cy="4.5" r="4.5" transform="matrix(-1 0 0 1 224.32 297.464)" fill="url(#paint1_radial_5280_4276)"/>
</g>
<g style="mix-blend-mode:color-dodge">
<rect width="8" height="8" transform="matrix(-1 0 0 1 74.3203 269.464)" fill="black"/>
<circle cx="4" cy="4" r="4" transform="matrix(-1 0 0 1 74.3203 269.464)" fill="url(#paint2_radial_5280_4276)"/>
</g>
<g style="mix-blend-mode:color-dodge">
<rect width="8" height="9" transform="matrix(-1 0 0 1 305.32 224.464)" fill="black"/>
<ellipse cx="4" cy="4.5" rx="4" ry="4.5" transform="matrix(-1 0 0 1 305.32 224.464)" fill="url(#paint3_radial_5280_4276)"/>
</g>
<g style="mix-blend-mode:color-dodge">
<rect width="8" height="9" transform="matrix(-1 0 0 1 9.32031 562.464)" fill="black"/>
<ellipse cx="4" cy="4.5" rx="4" ry="4.5" transform="matrix(-1 0 0 1 9.32031 562.464)" fill="url(#paint4_radial_5280_4276)"/>
</g>
<g style="mix-blend-mode:color-dodge">
<rect width="8" height="8" transform="matrix(-1 0 0 1 243.32 206.464)" fill="black"/>
<circle cx="4" cy="4" r="4" transform="matrix(-1 0 0 1 243.32 206.464)" fill="url(#paint5_radial_5280_4276)"/>
</g>
<g style="mix-blend-mode:color-dodge">
<rect width="8" height="8" transform="matrix(-1 0 0 1 314.32 501.464)" fill="black"/>
<circle cx="4" cy="4" r="4" transform="matrix(-1 0 0 1 314.32 501.464)" fill="url(#paint6_radial_5280_4276)"/>
</g>
<g style="mix-blend-mode:color-dodge">
<rect width="8" height="8" transform="matrix(-1 0 0 1 337.32 426.464)" fill="black"/>
<circle cx="4" cy="4" r="4" transform="matrix(-1 0 0 1 337.32 426.464)" fill="url(#paint7_radial_5280_4276)"/>
</g>
<g style="mix-blend-mode:color-dodge">
<rect width="8" height="8" transform="matrix(-1 0 0 1 398.32 269.464)" fill="black"/>
<circle cx="4" cy="4" r="4" transform="matrix(-1 0 0 1 398.32 269.464)" fill="url(#paint8_radial_5280_4276)"/>
</g>
<g style="mix-blend-mode:color-dodge">
<rect width="8" height="9" transform="matrix(-1 0 0 1 128.32 544.464)" fill="black"/>
<ellipse cx="4" cy="4.5" rx="4" ry="4.5" transform="matrix(-1 0 0 1 128.32 544.464)" fill="url(#paint9_radial_5280_4276)"/>
</g>
<g style="mix-blend-mode:color-dodge">
<rect width="8" height="8" transform="matrix(-1 0 0 1 433.32 483.464)" fill="black"/>
<circle cx="4" cy="4" r="4" transform="matrix(-1 0 0 1 433.32 483.464)" fill="url(#paint10_radial_5280_4276)"/>
</g>
<g style="mix-blend-mode:color-dodge">
<rect width="9" height="9" transform="matrix(-1 0 0 1 137.32 434.464)" fill="black"/>
<circle cx="4.5" cy="4.5" r="4.5" transform="matrix(-1 0 0 1 137.32 434.464)" fill="url(#paint11_radial_5280_4276)"/>
</g>
<g style="mix-blend-mode:color-dodge">
<rect width="8" height="8" transform="matrix(-1 0 0 1 489.32 219.464)" fill="black"/>
<circle cx="4" cy="4" r="4" transform="matrix(-1 0 0 1 489.32 219.464)" fill="url(#paint12_radial_5280_4276)"/>
</g>
<g style="mix-blend-mode:color-dodge">
<rect width="8" height="8" transform="matrix(-1 0 0 1 95.3203 636.464)" fill="black"/>
<circle cx="4" cy="4" r="4" transform="matrix(-1 0 0 1 95.3203 636.464)" fill="url(#paint13_radial_5280_4276)"/>
</g>
<g style="mix-blend-mode:color-dodge">
<rect width="8" height="8" transform="matrix(-1 0 0 1 81.3203 745.464)" fill="black"/>
<circle cx="4" cy="4" r="4" transform="matrix(-1 0 0 1 81.3203 745.464)" fill="url(#paint14_radial_5280_4276)"/>
</g>
<g style="mix-blend-mode:color-dodge">
<rect width="8" height="8" transform="matrix(-1 0 0 1 489.32 705.464)" fill="black"/>
<circle cx="4" cy="4" r="4" transform="matrix(-1 0 0 1 489.32 705.464)" fill="url(#paint15_radial_5280_4276)"/>
</g>
<g style="mix-blend-mode:color-dodge">
<rect width="8" height="9" transform="matrix(-1 0 0 1 251.32 434.464)" fill="black"/>
<ellipse cx="4" cy="4.5" rx="4" ry="4.5" transform="matrix(-1 0 0 1 251.32 434.464)" fill="url(#paint16_radial_5280_4276)"/>
</g>
<g style="mix-blend-mode:color-dodge">
<rect width="8" height="8" transform="matrix(-1 0 0 1 112.32 334.464)" fill="black"/>
<circle cx="4" cy="4" r="4" transform="matrix(-1 0 0 1 112.32 334.464)" fill="url(#paint17_radial_5280_4276)"/>
</g>
<g style="mix-blend-mode:color-dodge">
<rect width="8" height="8" transform="matrix(-1 0 0 1 66.3203 477.464)" fill="black"/>
<circle cx="4" cy="4" r="4" transform="matrix(-1 0 0 1 66.3203 477.464)" fill="url(#paint18_radial_5280_4276)"/>
</g>
<g style="mix-blend-mode:color-dodge">
<rect width="8" height="9" transform="matrix(-1 0 0 1 7.32031 434.464)" fill="black"/>
<ellipse cx="4" cy="4.5" rx="4" ry="4.5" transform="matrix(-1 0 0 1 7.32031 434.464)" fill="url(#paint19_radial_5280_4276)"/>
</g>
<g style="mix-blend-mode:color-dodge">
<rect width="9" height="8" transform="matrix(-1 0 0 1 151.32 249.464)" fill="black"/>
<ellipse cx="4.5" cy="4" rx="4.5" ry="4" transform="matrix(-1 0 0 1 151.32 249.464)" fill="url(#paint20_radial_5280_4276)"/>
</g>
<g style="mix-blend-mode:color-dodge">
<rect width="8" height="8" transform="matrix(-1 0 0 1 222.32 525.464)" fill="black"/>
<circle cx="4" cy="4" r="4" transform="matrix(-1 0 0 1 222.32 525.464)" fill="url(#paint21_radial_5280_4276)"/>
</g>
<g style="mix-blend-mode:color-dodge">
<rect width="9" height="9" transform="matrix(-1 0 0 1 219.32 694.464)" fill="black"/>
<circle cx="4.5" cy="4.5" r="4.5" transform="matrix(-1 0 0 1 219.32 694.464)" fill="url(#paint22_radial_5280_4276)"/>
</g>
<g style="mix-blend-mode:color-dodge">
<rect width="7.72031" height="6.8625" transform="matrix(-1 0 0 1 176.029 1052.38)" fill="black"/>
<ellipse cx="3.86016" cy="3.43125" rx="3.86016" ry="3.43125" transform="matrix(-1 0 0 1 176.029 1052.38)" fill="url(#paint23_radial_5280_4276)"/>
</g>
<g style="mix-blend-mode:color-dodge">
<rect width="7.72031" height="7.72031" transform="matrix(-1 0 0 1 46.5 722.979)" fill="black"/>
<circle cx="3.86016" cy="3.86016" r="3.86016" transform="matrix(-1 0 0 1 46.5 722.979)" fill="url(#paint24_radial_5280_4276)"/>
</g>
<g style="mix-blend-mode:color-dodge">
<rect width="6.8625" height="7.72031" transform="matrix(-1 0 0 1 115.982 660.358)" fill="black"/>
<ellipse cx="3.43125" cy="3.86016" rx="3.43125" ry="3.86016" transform="matrix(-1 0 0 1 115.982 660.358)" fill="url(#paint25_radial_5280_4276)"/>
</g>
<g style="mix-blend-mode:color-dodge">
<rect width="6.8625" height="6.8625" transform="matrix(-1 0 0 1 62.7988 644.918)" fill="black"/>
<circle cx="3.43125" cy="3.43125" r="3.43125" transform="matrix(-1 0 0 1 62.7988 644.918)" fill="url(#paint26_radial_5280_4276)"/>
</g>
<g style="mix-blend-mode:color-dodge">
<rect width="6.8625" height="6.8625" transform="matrix(-1 0 0 1 123.703 897.973)" fill="black"/>
<circle cx="3.43125" cy="3.43125" r="3.43125" transform="matrix(-1 0 0 1 123.703 897.973)" fill="url(#paint27_radial_5280_4276)"/>
</g>
<g style="mix-blend-mode:color-dodge">
<rect width="6.8625" height="6.8625" transform="matrix(-1 0 0 1 143.434 833.637)" fill="black"/>
<circle cx="3.43125" cy="3.43125" r="3.43125" transform="matrix(-1 0 0 1 143.434 833.637)" fill="url(#paint28_radial_5280_4276)"/>
</g>
<g style="mix-blend-mode:color-dodge">
<rect width="6.8625" height="6.8625" transform="matrix(-1 0 0 1 195.76 698.96)" fill="black"/>
<circle cx="3.43125" cy="3.43125" r="3.43125" transform="matrix(-1 0 0 1 195.76 698.96)" fill="url(#paint29_radial_5280_4276)"/>
</g>
<g style="mix-blend-mode:color-dodge">
<rect width="6.8625" height="6.8625" transform="matrix(-1 0 0 1 225.783 882.531)" fill="black"/>
<circle cx="3.43125" cy="3.43125" r="3.43125" transform="matrix(-1 0 0 1 225.783 882.531)" fill="url(#paint30_radial_5280_4276)"/>
</g>
<g style="mix-blend-mode:color-dodge">
<rect width="6.8625" height="6.8625" transform="matrix(-1 0 0 1 273.82 656.069)" fill="black"/>
<circle cx="3.43125" cy="3.43125" r="3.43125" transform="matrix(-1 0 0 1 273.82 656.069)" fill="url(#paint31_radial_5280_4276)"/>
</g>
<g style="mix-blend-mode:color-dodge">
<rect width="6.8625" height="6.8625" transform="matrix(-1 0 0 1 273.82 1072.97)" fill="black"/>
<circle cx="3.43125" cy="3.43125" r="3.43125" transform="matrix(-1 0 0 1 273.82 1072.97)" fill="url(#paint32_radial_5280_4276)"/>
</g>
<g style="mix-blend-mode:color-dodge">
<rect width="6.8625" height="7.72031" transform="matrix(-1 0 0 1 69.6602 840.499)" fill="black"/>
<ellipse cx="3.43125" cy="3.86016" rx="3.43125" ry="3.86016" transform="matrix(-1 0 0 1 69.6602 840.499)" fill="url(#paint33_radial_5280_4276)"/>
</g>
<g style="mix-blend-mode:color-dodge">
<rect width="6.8625" height="6.8625" transform="matrix(-1 0 0 1 44.7852 918.56)" fill="black"/>
<circle cx="3.43125" cy="3.43125" r="3.43125" transform="matrix(-1 0 0 1 44.7852 918.56)" fill="url(#paint34_radial_5280_4276)"/>
</g>
<g style="mix-blend-mode:color-dodge">
<rect width="7.72031" height="7.72031" transform="matrix(-1 0 0 1 42.2109 1063.53)" fill="black"/>
<circle cx="3.86016" cy="3.86016" r="3.86016" transform="matrix(-1 0 0 1 42.2109 1063.53)" fill="url(#paint35_radial_5280_4276)"/>
</g>
<g opacity="0.4" filter="url(#filter0_f_5280_4276)">
<ellipse cx="-72.7861" cy="717.812" rx="146.972" ry="168.192" fill="#D9D9D9"/>
</g>
<g opacity="0.5">
<g style="mix-blend-mode:color-dodge">
<rect width="9.57541" height="91.9239" transform="translate(114.301 766.871) rotate(45)" fill="black"/>
<ellipse cx="85.1862" cy="802.757" rx="4.7877" ry="45.962" transform="rotate(45 85.1862 802.757)" fill="url(#paint36_radial_5280_4276)"/>
</g>
<g style="mix-blend-mode:color-dodge">
<rect width="9.5754" height="91.9239" transform="translate(49.3008 773.642) rotate(-45)" fill="black"/>
<ellipse cx="85.1862" cy="802.756" rx="4.7877" ry="45.962" transform="rotate(-45 85.1862 802.756)" fill="url(#paint37_radial_5280_4276)"/>
</g>
</g>
<g opacity="0.5">
<g style="mix-blend-mode:color-dodge">
<rect width="9.57541" height="91.9239" transform="translate(103.301 470.371) rotate(45)" fill="black"/>
<ellipse cx="74.1862" cy="506.256" rx="4.7877" ry="45.962" transform="rotate(45 74.1862 506.256)" fill="url(#paint38_radial_5280_4276)"/>
</g>
<g style="mix-blend-mode:color-dodge">
<rect width="9.5754" height="91.9239" transform="translate(38.3008 477.141) rotate(-45)" fill="black"/>
<ellipse cx="74.1862" cy="506.256" rx="4.7877" ry="45.962" transform="rotate(-45 74.1862 506.256)" fill="url(#paint39_radial_5280_4276)"/>
</g>
</g>
</g>
<defs>
<filter id="filter0_f_5280_4276" x="-483.758" y="285.619" width="821.943" height="864.385" filterUnits="userSpaceOnUse" color-interpolation-filters="sRGB">
<feFlood flood-opacity="0" result="BackgroundImageFix"/>
<feBlend mode="normal" in="SourceGraphic" in2="BackgroundImageFix" result="shape"/>
<feGaussianBlur stdDeviation="132" result="effect1_foregroundBlur_5280_4276"/>
</filter>
<radialGradient id="paint0_radial_5280_4276" cx="0" cy="0" r="1" gradientUnits="userSpaceOnUse" gradientTransform="translate(4.5 4) rotate(90) scale(4 4.5)">
<stop offset="0.145833" stop-color="white"/>
<stop offset="1" stop-color="#FF5E5E" stop-opacity="0"/>
</radialGradient>
<radialGradient id="paint1_radial_5280_4276" cx="0" cy="0" r="1" gradientUnits="userSpaceOnUse" gradientTransform="translate(4.5 4.5) rotate(90) scale(4.5)">
<stop offset="0.145833" stop-color="white"/>
<stop offset="1" stop-color="#FF5E5E" stop-opacity="0"/>
</radialGradient>
<radialGradient id="paint2_radial_5280_4276" cx="0" cy="0" r="1" gradientUnits="userSpaceOnUse" gradientTransform="translate(4 4) rotate(90) scale(4)">
<stop offset="0.145833" stop-color="white"/>
<stop offset="1" stop-color="#FF5E5E" stop-opacity="0"/>
</radialGradient>
<radialGradient id="paint3_radial_5280_4276" cx="0" cy="0" r="1" gradientUnits="userSpaceOnUse" gradientTransform="translate(4 4.5) rotate(90) scale(4.5 4)">
<stop offset="0.145833" stop-color="white"/>
<stop offset="1" stop-color="#FF5E5E" stop-opacity="0"/>
</radialGradient>
<radialGradient id="paint4_radial_5280_4276" cx="0" cy="0" r="1" gradientUnits="userSpaceOnUse" gradientTransform="translate(4 4.5) rotate(90) scale(4.5 4)">
<stop offset="0.015625" stop-color="white"/>
<stop offset="1" stop-color="#FF5E5E" stop-opacity="0"/>
</radialGradient>
<radialGradient id="paint5_radial_5280_4276" cx="0" cy="0" r="1" gradientUnits="userSpaceOnUse" gradientTransform="translate(4 4) rotate(90) scale(4)">
<stop offset="0.015625" stop-color="white"/>
<stop offset="1" stop-color="#FF5E5E" stop-opacity="0"/>
</radialGradient>
<radialGradient id="paint6_radial_5280_4276" cx="0" cy="0" r="1" gradientUnits="userSpaceOnUse" gradientTransform="translate(4 4) rotate(90) scale(4)">
<stop offset="0.015625" stop-color="white"/>
<stop offset="1" stop-color="#FF5E5E" stop-opacity="0"/>
</radialGradient>
<radialGradient id="paint7_radial_5280_4276" cx="0" cy="0" r="1" gradientUnits="userSpaceOnUse" gradientTransform="translate(4 4) rotate(90) scale(4)">
<stop offset="0.015625" stop-color="white"/>
<stop offset="1" stop-color="#FF5E5E" stop-opacity="0"/>
</radialGradient>
<radialGradient id="paint8_radial_5280_4276" cx="0" cy="0" r="1" gradientUnits="userSpaceOnUse" gradientTransform="translate(4 4) rotate(90) scale(4)">
<stop offset="0.015625" stop-color="white"/>
<stop offset="1" stop-color="#FF5E5E" stop-opacity="0"/>
</radialGradient>
<radialGradient id="paint9_radial_5280_4276" cx="0" cy="0" r="1" gradientUnits="userSpaceOnUse" gradientTransform="translate(4 4.5) rotate(90) scale(4.5 4)">
<stop offset="0.015625" stop-color="white"/>
<stop offset="1" stop-color="#FF5E5E" stop-opacity="0"/>
</radialGradient>
<radialGradient id="paint10_radial_5280_4276" cx="0" cy="0" r="1" gradientUnits="userSpaceOnUse" gradientTransform="translate(4 4) rotate(90) scale(4)">
<stop offset="0.015625" stop-color="white"/>
<stop offset="1" stop-color="#FF5E5E" stop-opacity="0"/>
</radialGradient>
<radialGradient id="paint11_radial_5280_4276" cx="0" cy="0" r="1" gradientUnits="userSpaceOnUse" gradientTransform="translate(4.5 4.5) rotate(90) scale(4.5)">
<stop offset="0.015625" stop-color="white"/>
<stop offset="1" stop-color="#FF5E5E" stop-opacity="0"/>
</radialGradient>
<radialGradient id="paint12_radial_5280_4276" cx="0" cy="0" r="1" gradientUnits="userSpaceOnUse" gradientTransform="translate(4 4) rotate(90) scale(4)">
<stop offset="0.015625" stop-color="white"/>
<stop offset="1" stop-color="#FF5E5E" stop-opacity="0"/>
</radialGradient>
<radialGradient id="paint13_radial_5280_4276" cx="0" cy="0" r="1" gradientUnits="userSpaceOnUse" gradientTransform="translate(4 4) rotate(90) scale(4)">
<stop offset="0.015625" stop-color="white"/>
<stop offset="1" stop-color="#FF5E5E" stop-opacity="0"/>
</radialGradient>
<radialGradient id="paint14_radial_5280_4276" cx="0" cy="0" r="1" gradientUnits="userSpaceOnUse" gradientTransform="translate(4 4) rotate(90) scale(4)">
<stop offset="0.015625" stop-color="white"/>
<stop offset="1" stop-color="#FF5E5E" stop-opacity="0"/>
</radialGradient>
<radialGradient id="paint15_radial_5280_4276" cx="0" cy="0" r="1" gradientUnits="userSpaceOnUse" gradientTransform="translate(4 4) rotate(90) scale(4)">
<stop offset="0.015625" stop-color="white"/>
<stop offset="1" stop-color="#FF5E5E" stop-opacity="0"/>
</radialGradient>
<radialGradient id="paint16_radial_5280_4276" cx="0" cy="0" r="1" gradientUnits="userSpaceOnUse" gradientTransform="translate(4 4.5) rotate(90) scale(4.5 4)">
<stop offset="0.015625" stop-color="white"/>
<stop offset="1" stop-color="#FF5E5E" stop-opacity="0"/>
</radialGradient>
<radialGradient id="paint17_radial_5280_4276" cx="0" cy="0" r="1" gradientUnits="userSpaceOnUse" gradientTransform="translate(4 4) rotate(90) scale(4)">
<stop offset="0.015625" stop-color="white"/>
<stop offset="1" stop-color="#FF5E5E" stop-opacity="0"/>
</radialGradient>
<radialGradient id="paint18_radial_5280_4276" cx="0" cy="0" r="1" gradientUnits="userSpaceOnUse" gradientTransform="translate(4 4) rotate(90) scale(4)">
<stop offset="0.015625" stop-color="white"/>
<stop offset="1" stop-color="#FF5E5E" stop-opacity="0"/>
</radialGradient>
<radialGradient id="paint19_radial_5280_4276" cx="0" cy="0" r="1" gradientUnits="userSpaceOnUse" gradientTransform="translate(4 4.5) rotate(90) scale(4.5 4)">
<stop offset="0.015625" stop-color="white"/>
<stop offset="1" stop-color="#FF5E5E" stop-opacity="0"/>
</radialGradient>
<radialGradient id="paint20_radial_5280_4276" cx="0" cy="0" r="1" gradientUnits="userSpaceOnUse" gradientTransform="translate(4.5 4) rotate(90) scale(4 4.5)">
<stop offset="0.015625" stop-color="white"/>
<stop offset="1" stop-color="#FF5E5E" stop-opacity="0"/>
</radialGradient>
<radialGradient id="paint21_radial_5280_4276" cx="0" cy="0" r="1" gradientUnits="userSpaceOnUse" gradientTransform="translate(4 4) rotate(90) scale(4)">
<stop offset="0.015625" stop-color="white"/>
<stop offset="1" stop-color="#FF5E5E" stop-opacity="0"/>
</radialGradient>
<radialGradient id="paint22_radial_5280_4276" cx="0" cy="0" r="1" gradientUnits="userSpaceOnUse" gradientTransform="translate(4.5 4.5) rotate(90) scale(4.5)">
<stop offset="0.015625" stop-color="white"/>
<stop offset="1" stop-color="#FF5E5E" stop-opacity="0"/>
</radialGradient>
<radialGradient id="paint23_radial_5280_4276" cx="0" cy="0" r="1" gradientUnits="userSpaceOnUse" gradientTransform="translate(3.86016 3.43125) rotate(90) scale(3.43125 3.86016)">
<stop offset="0.145833" stop-color="white"/>
<stop offset="1" stop-color="#FF5E5E" stop-opacity="0"/>
</radialGradient>
<radialGradient id="paint24_radial_5280_4276" cx="0" cy="0" r="1" gradientUnits="userSpaceOnUse" gradientTransform="translate(3.86016 3.86016) rotate(90) scale(3.86016)">
<stop offset="0.145833" stop-color="white"/>
<stop offset="1" stop-color="#FF5E5E" stop-opacity="0"/>
</radialGradient>
<radialGradient id="paint25_radial_5280_4276" cx="0" cy="0" r="1" gradientUnits="userSpaceOnUse" gradientTransform="translate(3.43125 3.86016) rotate(90) scale(3.86016 3.43125)">
<stop offset="0.145833" stop-color="white"/>
<stop offset="1" stop-color="#FF5E5E" stop-opacity="0"/>
</radialGradient>
<radialGradient id="paint26_radial_5280_4276" cx="0" cy="0" r="1" gradientUnits="userSpaceOnUse" gradientTransform="translate(3.43125 3.43125) rotate(90) scale(3.43125)">
<stop offset="0.015625" stop-color="white"/>
<stop offset="1" stop-color="#FF5E5E" stop-opacity="0"/>
</radialGradient>
<radialGradient id="paint27_radial_5280_4276" cx="0" cy="0" r="1" gradientUnits="userSpaceOnUse" gradientTransform="translate(3.43125 3.43125) rotate(90) scale(3.43125)">
<stop offset="0.015625" stop-color="white"/>
<stop offset="1" stop-color="#FF5E5E" stop-opacity="0"/>
</radialGradient>
<radialGradient id="paint28_radial_5280_4276" cx="0" cy="0" r="1" gradientUnits="userSpaceOnUse" gradientTransform="translate(3.43125 3.43125) rotate(90) scale(3.43125)">
<stop offset="0.015625" stop-color="white"/>
<stop offset="1" stop-color="#FF5E5E" stop-opacity="0"/>
</radialGradient>
<radialGradient id="paint29_radial_5280_4276" cx="0" cy="0" r="1" gradientUnits="userSpaceOnUse" gradientTransform="translate(3.43125 3.43125) rotate(90) scale(3.43125)">
<stop offset="0.015625" stop-color="white"/>
<stop offset="1" stop-color="#FF5E5E" stop-opacity="0"/>
</radialGradient>
<radialGradient id="paint30_radial_5280_4276" cx="0" cy="0" r="1" gradientUnits="userSpaceOnUse" gradientTransform="translate(3.43125 3.43125) rotate(90) scale(3.43125)">
<stop offset="0.015625" stop-color="white"/>
<stop offset="1" stop-color="#FF5E5E" stop-opacity="0"/>
</radialGradient>
<radialGradient id="paint31_radial_5280_4276" cx="0" cy="0" r="1" gradientUnits="userSpaceOnUse" gradientTransform="translate(3.43125 3.43125) rotate(90) scale(3.43125)">
<stop offset="0.015625" stop-color="white"/>
<stop offset="1" stop-color="#FF5E5E" stop-opacity="0"/>
</radialGradient>
<radialGradient id="paint32_radial_5280_4276" cx="0" cy="0" r="1" gradientUnits="userSpaceOnUse" gradientTransform="translate(3.43125 3.43125) rotate(90) scale(3.43125)">
<stop offset="0.015625" stop-color="white"/>
<stop offset="1" stop-color="#FF5E5E" stop-opacity="0"/>
</radialGradient>
<radialGradient id="paint33_radial_5280_4276" cx="0" cy="0" r="1" gradientUnits="userSpaceOnUse" gradientTransform="translate(3.43125 3.86016) rotate(90) scale(3.86016 3.43125)">
<stop offset="0.015625" stop-color="white"/>
<stop offset="1" stop-color="#FF5E5E" stop-opacity="0"/>
</radialGradient>
<radialGradient id="paint34_radial_5280_4276" cx="0" cy="0" r="1" gradientUnits="userSpaceOnUse" gradientTransform="translate(3.43125 3.43125) rotate(90) scale(3.43125)">
<stop offset="0.015625" stop-color="white"/>
<stop offset="1" stop-color="#FF5E5E" stop-opacity="0"/>
</radialGradient>
<radialGradient id="paint35_radial_5280_4276" cx="0" cy="0" r="1" gradientUnits="userSpaceOnUse" gradientTransform="translate(3.86016 3.86016) rotate(90) scale(3.86016)">
<stop offset="0.015625" stop-color="white"/>
<stop offset="1" stop-color="#FF5E5E" stop-opacity="0"/>
</radialGradient>
<radialGradient id="paint36_radial_5280_4276" cx="0" cy="0" r="1" gradientUnits="userSpaceOnUse" gradientTransform="translate(85.1862 802.756) rotate(90) scale(45.962 4.7877)">
<stop offset="0.0364583" stop-color="#FFF1E4"/>
<stop offset="1" stop-color="#3A71FF" stop-opacity="0"/>
</radialGradient>
<radialGradient id="paint37_radial_5280_4276" cx="0" cy="0" r="1" gradientUnits="userSpaceOnUse" gradientTransform="translate(85.1862 802.756) rotate(90) scale(45.962 4.7877)">
<stop offset="0.0364583" stop-color="#FFF1E4"/>
<stop offset="1" stop-color="#3A71FF" stop-opacity="0"/>
</radialGradient>
<radialGradient id="paint38_radial_5280_4276" cx="0" cy="0" r="1" gradientUnits="userSpaceOnUse" gradientTransform="translate(74.1862 506.256) rotate(90) scale(45.962 4.7877)">
<stop offset="0.0364583" stop-color="#FFF1E4"/>
<stop offset="1" stop-color="#3A71FF" stop-opacity="0"/>
</radialGradient>
<radialGradient id="paint39_radial_5280_4276" cx="0" cy="0" r="1" gradientUnits="userSpaceOnUse" gradientTransform="translate(74.1862 506.256) rotate(90) scale(45.962 4.7877)">
<stop offset="0.0364583" stop-color="#FFF1E4"/>
<stop offset="1" stop-color="#3A71FF" stop-opacity="0"/>
</radialGradient>
<clipPath id="clip0_5280_4276">
<rect width="654" height="1143" fill="white" transform="matrix(-1 0 0 1 654 0)"/>
</clipPath>
</defs>
</svg>
