<svg width="49" height="49" viewBox="0 0 49 49" fill="none" xmlns="http://www.w3.org/2000/svg">
<path d="M45.1312 22.1139L39.1112 25.914L26.9512 13.7539L30.7312 7.7339C32.4912 4.9539 36.0312 4.83396 38.6112 7.41396L45.4312 14.2339C47.8712 16.6939 47.7112 20.4739 45.1312 22.1139Z" fill="white" fill-opacity="0.29"/>
<path d="M39.1325 25.7231L45.0507 21.9873L39.1325 25.7231ZM39.1325 25.7231L27.1418 13.7324L30.8579 7.81414C30.858 7.81406 30.858 7.81398 30.8581 7.8139C31.7124 6.46459 32.9927 5.76685 34.3694 5.71382C35.7489 5.66068 37.2399 6.25481 38.5051 7.52002L45.3247 14.3395C45.3248 14.3396 45.3248 14.3397 45.3249 14.3398C47.7138 16.7485 47.531 20.4103 45.0511 21.9871L39.1325 25.7231Z" stroke="white" stroke-opacity="0.54" stroke-width="0.3"/>
<path d="M32.0554 43.2856L13.3354 45.4857C12.0354 45.6457 10.8754 45.4457 9.89536 44.9657C8.85536 44.4457 8.03536 43.6457 7.51536 42.5857C7.03536 41.6057 6.85537 40.4657 6.99537 39.1857L9.07536 21.7657C9.41536 21.9457 9.79536 22.1057 10.1754 22.2257C11.0754 22.5457 12.0354 22.7057 13.0554 22.7057C15.3354 22.7057 17.3954 21.8657 18.9754 20.4657C19.6754 19.8657 20.2754 19.1457 20.7554 18.3457C21.1754 17.6457 21.4954 16.9057 21.7154 16.1057C21.8354 15.7057 21.9154 15.2857 21.9754 14.8457L25.2954 15.0457L37.4554 27.2257L37.9754 36.0657C38.4754 41.0257 36.7554 42.7456 32.0554 43.2856Z" fill="white" fill-opacity="0.29"/>
<path d="M21.8595 16.1472C21.9695 15.7803 22.0461 15.3987 22.1045 15.0037L25.2295 15.192L37.309 27.2914L37.8256 36.0745L37.8255 36.0745L37.8261 36.0807C38.0749 38.5484 37.7656 40.1659 36.8513 41.2357C35.9352 42.3078 34.3801 42.8676 32.0382 43.1366L32.0379 43.1367L13.3179 45.3367L13.317 45.3368C12.0438 45.4935 10.9136 45.2973 9.96189 44.8313C8.95024 44.3253 8.15488 43.5487 7.65007 42.5197C7.18445 41.5691 7.00716 40.4585 7.1444 39.2027C7.14443 39.2025 7.14445 39.2022 7.14448 39.202L9.19885 21.9967C9.49365 22.1403 9.81051 22.2676 10.1276 22.3679C11.0441 22.6935 12.0204 22.8557 13.0554 22.8557C15.3728 22.8557 17.4675 22.0018 19.0739 20.5788C19.7863 19.968 20.3963 19.2357 20.884 18.4229C21.3106 17.7119 21.6359 16.9599 21.8595 16.1472ZM21.8595 16.1472C21.8594 16.1477 21.8592 16.1483 21.859 16.1488L21.7154 16.1057L21.86 16.1455C21.8598 16.146 21.8597 16.1466 21.8595 16.1472Z" stroke="white" stroke-opacity="0.54" stroke-width="0.3"/>
<path d="M14.5947 14.2061H13.5947V15.2061V17.066C13.5947 17.3338 13.3624 17.566 13.0947 17.566C12.827 17.566 12.5947 17.3338 12.5947 17.066V15.2061V14.2061H11.5947H9.65469C9.38698 14.2061 9.15469 13.9738 9.15469 13.7061C9.15469 13.4383 9.38698 13.2061 9.65469 13.2061H11.5947H12.5947V12.2061V10.3461C12.5947 10.0784 12.827 9.84607 13.0947 9.84607C13.3624 9.84607 13.5947 10.0784 13.5947 10.3461V12.2061V13.2061H14.5947H16.3747C16.6424 13.2061 16.8747 13.4383 16.8747 13.7061C16.8747 13.9825 16.6537 14.2061 16.3747 14.2061H14.5947ZM13.0547 3.70605C10.7005 3.70605 8.52243 4.52776 6.81151 5.90394C4.49766 7.73028 3.05469 10.5562 3.05469 13.7061C3.05469 15.5767 3.58888 17.3538 4.49775 18.8615C5.69553 20.8573 7.58092 22.413 9.84902 23.1716C10.8609 23.5301 11.9318 23.7061 13.0547 23.7061C15.5843 23.7061 17.8759 22.7732 19.6317 21.22C20.4145 20.5478 21.081 19.7459 21.6122 18.8606C22.0769 18.0861 22.4326 17.2645 22.6771 16.3777C22.9217 15.5304 23.0547 14.6192 23.0547 13.7061C23.0547 8.17377 18.587 3.70605 13.0547 3.70605Z" fill="url(#paint0_linear_4966_3379)" stroke="#15151E" stroke-width="2"/>
<defs>
<linearGradient id="paint0_linear_4966_3379" x1="18.6786" y1="2.95374" x2="2.93699" y2="4.69626" gradientUnits="userSpaceOnUse">
<stop stop-color="#F0BA2E"/>
<stop offset="1" stop-color="#F0A22E"/>
</linearGradient>
</defs>
</svg>
