<svg width="46" height="40" viewBox="0 0 46 40" fill="none" xmlns="http://www.w3.org/2000/svg">
<path d="M45.9823 20.06C45.9823 30.7725 28.9684 39.4617 7.98063 39.4617C5.27528 39.4617 2.64074 39.3155 0.0976562 39.0466H0.404478C20.0972 39.0466 36.0578 30.5473 36.0578 20.0629C36.0578 9.57554 20.0972 1.07923 0.404478 1.07923H0.14486C2.67319 0.804401 5.29298 0.664062 7.98358 0.664062C28.9714 0.664062 45.9853 9.34749 45.9853 20.06H45.9823Z" fill="url(#paint0_linear_8528_3721)"/>
<path d="M31.4286 20.0593C31.4286 26.4184 22.3892 31.9003 9.35808 34.4001C6.88875 34.8796 4.27192 35.248 1.54297 35.4936C12.4322 32.6049 19.8756 26.778 19.8756 20.0593C19.8756 13.3406 12.4352 7.51363 1.54592 4.625C4.26897 4.87059 6.8799 5.23898 9.34628 5.71262C22.3862 8.2124 31.4316 13.6973 31.4316 20.0593H31.4286Z" fill="url(#paint1_linear_8528_3721)"/>
<defs>
<linearGradient id="paint0_linear_8528_3721" x1="5.33133" y1="20.0629" x2="41.2384" y2="20.0629" gradientUnits="userSpaceOnUse">
<stop stop-color="#FFB70F" stop-opacity="0"/>
<stop offset="0.11" stop-color="#FFB70F" stop-opacity="0.01"/>
<stop offset="0.34" stop-color="#FFB70F" stop-opacity="0.1156"/>
<stop offset="0.67" stop-color="#FFB70F" stop-opacity="0.5329"/>
<stop offset="0.89" stop-color="#FFB70F"/>
<stop offset="1" stop-color="#FFB70F"/>
</linearGradient>
<linearGradient id="paint1_linear_8528_3721" x1="0.896872" y1="20.0593" x2="36.8039" y2="20.0593" gradientUnits="userSpaceOnUse">
<stop offset="0.11" stop-color="white" stop-opacity="0"/>
<stop offset="0.35" stop-color="white" stop-opacity="0.1089"/>
<stop offset="0.69" stop-color="white" stop-opacity="0.6561"/>
<stop offset="0.84" stop-color="white"/>
</linearGradient>
</defs>
</svg>
