<svg width="21" height="21" viewBox="0 0 21 21" fill="none" xmlns="http://www.w3.org/2000/svg">
<mask id="mask0_8366_3655" style="mask-type:alpha" maskUnits="userSpaceOnUse" x="0" y="0" width="21" height="21">
<rect x="0.847656" y="0.988281" width="20" height="20" fill="#D9D9D9"/>
</mask>
<g mask="url(#mask0_8366_3655)">
<path d="M7.03548 18.4883C6.71604 18.4883 6.43826 18.3702 6.20215 18.1341C5.96604 17.898 5.84798 17.6202 5.84798 17.3008C5.84798 17.1758 5.87923 17.0334 5.94173 16.8737C6.00423 16.714 6.08409 16.5855 6.18132 16.4883L6.68131 15.9883H4.18132C3.72298 15.9883 3.33062 15.8251 3.00423 15.4987C2.67784 15.1723 2.51465 14.7799 2.51465 14.3216V5.15495C2.51465 4.69661 2.67784 4.30425 3.00423 3.97786C3.33062 3.65148 3.72298 3.48828 4.18132 3.48828H10.0146C10.2508 3.48828 10.4487 3.56814 10.6084 3.72786C10.7681 3.88759 10.848 4.0855 10.848 4.32161C10.848 4.55773 10.7681 4.75564 10.6084 4.91536C10.4487 5.07509 10.2508 5.15495 10.0146 5.15495H4.18132V14.3216H17.5146V12.6549C17.5146 12.4188 17.5945 12.2209 17.7542 12.0612C17.914 11.9015 18.1119 11.8216 18.348 11.8216C18.5841 11.8216 18.782 11.9015 18.9417 12.0612C19.1015 12.2209 19.1813 12.4188 19.1813 12.6549V14.3216C19.1813 14.7799 19.0181 15.1723 18.6917 15.4987C18.3653 15.8251 17.973 15.9883 17.5146 15.9883H15.0146L15.5146 16.4883C15.6119 16.5855 15.6917 16.7105 15.7542 16.8633C15.8167 17.0161 15.848 17.1619 15.848 17.3008C15.848 17.6202 15.7299 17.898 15.4938 18.1341C15.2577 18.3702 14.9799 18.4883 14.6605 18.4883H7.03548ZM13.348 13.1341C13.2369 13.1341 13.1327 13.1168 13.0355 13.082C12.9383 13.0473 12.848 12.9883 12.7646 12.9049L9.76465 9.90495C9.61187 9.75217 9.53548 9.55773 9.53548 9.32161C9.53548 9.0855 9.61187 8.89106 9.76465 8.73828C9.91743 8.5855 10.1119 8.50911 10.348 8.50911C10.5841 8.50911 10.7785 8.5855 10.9313 8.73828L12.5146 10.3216V4.32161C12.5146 4.0855 12.5945 3.88759 12.7542 3.72786C12.914 3.56814 13.1119 3.48828 13.348 3.48828C13.5841 3.48828 13.782 3.56814 13.9417 3.72786C14.1015 3.88759 14.1813 4.0855 14.1813 4.32161V10.3216L15.7646 8.73828C15.9174 8.5855 16.1119 8.50911 16.348 8.50911C16.5841 8.50911 16.7785 8.5855 16.9313 8.73828C17.0841 8.89106 17.1605 9.0855 17.1605 9.32161C17.1605 9.55773 17.0841 9.75217 16.9313 9.90495L13.9313 12.9049C13.848 12.9883 13.7577 13.0473 13.6605 13.082C13.5633 13.1168 13.4591 13.1341 13.348 13.1341Z" fill="white"/>
</g>
</svg>
