<svg width="61" height="61" viewBox="0 0 61 61" fill="none" xmlns="http://www.w3.org/2000/svg">
<path d="M30.1375 0.988281C13.5701 0.988281 0.138672 14.4198 0.138672 30.9883C0.138672 47.5592 13.5689 60.9883 30.1375 60.9883C46.7084 60.9883 60.1375 47.5592 60.1375 30.9883C60.1375 14.4198 46.7072 0.988281 30.1375 0.988281ZM18.8696 15.4431C21.5182 14.3601 23.6721 13.9276 25.4702 13.8947C25.4824 13.8947 25.4958 13.8947 25.5104 13.8947C26.5643 13.8947 27.5182 14.0189 28.3636 14.2187C30.1314 14.6683 32.6727 16.1936 32.6727 16.1936V16.2009C31.9442 18.6971 29.789 26.0908 29.0629 28.5481C27.1661 27.292 25.1279 26.1395 22.2528 26.1164C22.2199 26.1164 22.1882 26.1164 22.1553 26.1164C20.3011 26.1164 18.0948 26.6013 15.3732 27.7148L18.8696 15.4431ZM17.683 41.4801C15.8629 41.4801 13.6981 41.9125 11.0166 42.9956L14.563 30.6959C14.9675 30.529 15.3622 30.3816 15.7448 30.2439C17.0386 29.7871 18.8806 29.2681 20.9029 29.1036C21.1332 29.0841 21.3622 29.0732 21.59 29.0732C23.6075 29.0732 25.4471 29.7798 26.7701 30.4583C27.3342 30.7629 27.869 31.0931 28.4002 31.4244C27.9312 33.0325 25.4568 41.4801 24.7283 43.9446C22.7632 42.6411 20.6824 41.4801 17.683 41.4801ZM41.4771 46.1095C38.5387 47.3229 36.1898 47.8066 34.2248 47.8066C31.1169 47.8066 26.9772 45.2506 26.9846 45.2579L30.52 32.9753C31.5957 33.8366 34.0895 35.4715 38.189 35.4715C40.0737 35.4715 42.3007 35.1243 44.8871 34.196L41.4771 46.1095ZM45.8081 30.9359C45.7984 30.9383 45.7911 30.9408 45.7862 30.9408C45.7862 30.9505 45.7862 30.9578 45.7862 30.9627C43.3046 32.131 41.0325 32.5976 38.9907 32.5976C35.8999 32.5976 33.3342 31.5292 31.3643 30.2135C31.3521 30.2037 31.3362 30.1964 31.3265 30.1854L34.9094 17.7858C36.0449 18.6667 38.6045 20.3199 42.4908 20.3199C44.4461 20.3199 46.7304 19.9008 49.3411 18.7641L45.8081 30.9359Z" fill="white"/>
</svg>
