<svg width="11" height="9" viewBox="0 0 11 9" fill="none" xmlns="http://www.w3.org/2000/svg">
<path d="M3.3346 6.2904L9.4077 0.2077C9.54558 0.0692329 9.72108 0 9.93418 0C10.1473 0 10.3231 0.0689992 10.4615 0.206999C10.6 0.344999 10.6692 0.520642 10.6692 0.733925C10.6692 0.947192 10.6 1.12305 10.4615 1.2615L3.96728 7.74612C3.78651 7.92689 3.57562 8.01727 3.3346 8.01727C3.09358 8.01727 2.88269 7.92689 2.70193 7.74612L0.2077 5.2615C0.0692337 5.12362 0 4.94812 0 4.73502C0 4.52192 0.069 4.34615 0.207 4.2077C0.345 4.06923 0.520642 4 0.733925 4C0.947192 4 1.12305 4.06923 1.2615 4.2077L3.3346 6.2904Z" fill="white"/>
</svg>
