<svg width="272" height="376" viewBox="0 0 272 376" fill="none" xmlns="http://www.w3.org/2000/svg">
<g filter="url(#filter0_d_23_890)">
<path d="M239.145 249.012L236.419 254.472C236.02 255.694 234.807 256.514 233.103 256.769L209.809 260.252C205.426 260.849 199.641 258.287 196.934 254.161L181.348 231.109C179.872 229.007 179.696 227.058 180.58 225.59L183.307 220.129L183.899 223.7C184.223 223.535 184.467 223.615 184.873 223.612L186.416 223.44L209.725 222.394C213.705 222.206 218.759 224.935 221.22 228.575L235.328 249.118C235.492 249.442 235.739 249.927 235.904 250.251L239.145 249.012Z" fill="#4D69FC"/>
<path d="M235.827 251.309C239.642 250.797 240.513 247.298 238.135 243.82L224.027 223.277C221.649 219.799 216.35 216.99 212.532 217.096L187.68 218.314C183.133 218.588 181.367 221.93 183.993 225.894L199.579 248.946C202.204 252.909 208.071 255.633 212.454 255.036L235.827 251.309Z" fill="url(#paint0_linear_23_890)"/>
<path d="M210.418 254.074C206.598 253.774 202.683 251.445 200.387 248.129L185.621 226.291C184.31 224.512 183.972 222.646 184.856 221.178C185.579 219.792 187.198 218.969 189.229 218.956L212.7 217.828C216.518 217.722 221.166 220.289 223.544 223.767L236.996 243.42C238.307 245.199 238.644 247.065 238.005 248.613C237.606 249.834 236.23 250.317 234.77 250.652L212.937 253.965C211.99 254.074 211.231 254.068 210.418 254.074ZM213.595 217.984C213.189 217.987 212.944 217.907 212.538 217.91L189.067 219.038C187.036 219.051 185.579 219.792 184.856 221.178C184.134 222.563 184.551 224.185 185.701 226.047L200.466 247.885C202.927 251.525 208.55 254.169 212.527 253.575L234.684 250.262C236.227 250.089 237.278 249.351 237.758 248.292C238.319 246.988 237.981 245.122 236.752 243.505L223.301 223.852C221.493 220.695 217.171 218.205 213.595 217.984Z" fill="#5944DD"/>
<path d="M201.682 233.816L219.058 232.322L216.186 227.872L198.645 229.043L201.682 233.816ZM226.115 242.999C225.87 242.92 225.464 242.922 225.138 242.681C224.811 242.439 224.484 242.198 224.32 241.874L222.844 239.771L220.895 239.946C220.489 239.949 220.245 239.869 219.918 239.628C219.592 239.386 219.265 239.144 219.101 238.821C218.936 238.497 218.771 238.173 218.851 237.928C218.931 237.684 219.093 237.602 219.417 237.437L221.365 237.262L219.889 235.16C219.725 234.836 219.56 234.512 219.64 234.268C219.719 234.023 219.881 233.941 220.205 233.776C220.449 233.856 220.855 233.853 221.182 234.095C221.509 234.337 221.835 234.578 222 234.902L223.476 237.005L225.424 236.83C225.669 236.909 226.075 236.907 226.401 237.148C226.728 237.39 227.054 237.631 227.219 237.955C227.384 238.279 227.466 238.441 227.386 238.685C227.307 238.929 227.145 239.012 226.821 239.176L224.872 239.352L226.348 241.454C226.513 241.778 226.595 241.94 226.598 242.346C226.6 242.752 226.438 242.835 226.115 242.999ZM207.672 242.795C207.103 242.88 206.209 242.723 205.556 242.24C204.741 241.839 204.088 241.356 203.676 240.546L194.57 227.038C194.079 226.473 193.912 225.743 194.071 225.254C194.231 224.766 194.716 224.519 195.285 224.434L213.151 223.505C213.72 223.42 214.452 223.659 215.105 224.142C215.758 224.625 216.411 225.108 216.741 225.756L221.418 232.956L218.251 233.139C217.115 233.309 216.305 233.721 216.149 234.615C215.83 235.592 216.162 236.646 216.982 237.859L219.278 241.175L207.672 242.795Z" fill="#5944DD"/>
</g>
<path opacity="0.2" d="M-264.599 -104.183L-140.491 -264.52L236.07 245.784L206.392 256.961L-264.599 -104.183Z" fill="url(#paint1_linear_23_890)"/>
<defs>
<filter id="filter0_d_23_890" x="148.043" y="189.093" width="123.412" height="107.244" filterUnits="userSpaceOnUse" color-interpolation-filters="sRGB">
<feFlood flood-opacity="0" result="BackgroundImageFix"/>
<feColorMatrix in="SourceAlpha" type="matrix" values="0 0 0 0 0 0 0 0 0 0 0 0 0 0 0 0 0 0 127 0" result="hardAlpha"/>
<feOffset dy="4"/>
<feGaussianBlur stdDeviation="16"/>
<feComposite in2="hardAlpha" operator="out"/>
<feColorMatrix type="matrix" values="0 0 0 0 1 0 0 0 0 1 0 0 0 0 1 0 0 0 0.35 0"/>
<feBlend mode="normal" in2="BackgroundImageFix" result="effect1_dropShadow_23_890"/>
<feBlend mode="normal" in="SourceGraphic" in2="effect1_dropShadow_23_890" result="shape"/>
</filter>
<linearGradient id="paint0_linear_23_890" x1="181.999" y1="233.82" x2="240.22" y2="238.045" gradientUnits="userSpaceOnUse">
<stop stop-color="#F5F5F5"/>
<stop offset="0.41" stop-color="#EDEDED"/>
<stop offset="1" stop-color="#D9D9D9"/>
</linearGradient>
<linearGradient id="paint1_linear_23_890" x1="-378.804" y1="-178.527" x2="231.711" y2="265.484" gradientUnits="userSpaceOnUse">
<stop stop-color="white"/>
<stop offset="1" stop-color="white" stop-opacity="0"/>
</linearGradient>
</defs>
</svg>
