<svg width="39" height="24" viewBox="0 0 39 24" fill="none" xmlns="http://www.w3.org/2000/svg">
<g clip-path="url(#clip0_27_893)">
<path d="M2.12663 0H36.8663C38.0391 0.00618207 38.9929 0.846943 38.9929 1.87317V21.8598C38.9929 22.886 38.0391 23.7268 36.8663 23.733H2.12663C0.953804 23.733 0 22.8922 0 21.866V1.87317C0 0.846943 0.953804 0.00618207 2.12663 0Z" fill="#DA251D"/>
<path d="M19.5 7.12173L17.8255 11.6346L21.2663 12.6114L19.5 7.12173Z" fill="#FFFF00"/>
<path d="M19.5001 5.19293L21.9269 11.7334L16.9402 13.1491L19.5001 5.19293Z" fill="#FFFF00"/>
<path d="M24.6576 10.4044H19.2315V13.5696L24.6576 10.4044Z" fill="#FFFF00"/>
<path d="M26.9748 9.95041L20.616 13.9912L17.5339 10.2819L26.9748 9.95041Z" fill="#FFFF00"/>
<path d="M22.6864 15.7086L21.012 11.1957L17.5712 12.1725L22.6864 15.7086Z" fill="#FFFF00"/>
<path d="M24.118 17.6374L17.7592 13.5967L20.8413 9.88739L24.118 17.6374Z" fill="#FFFF00"/>
<path d="M14.3424 10.4044H19.7685V13.5696L14.3424 10.4044Z" fill="#FFFF00"/>
<path d="M12.0252 9.95041L18.384 13.9912L21.4661 10.2819L12.0252 9.95041Z" fill="#FFFF00"/>
<path d="M16.3136 15.7086L17.988 11.1957L21.4288 12.1725L16.3136 15.7086Z" fill="#FFFF00"/>
<path d="M14.882 17.6374L21.2408 13.5967L18.1587 9.88739L14.882 17.6374Z" fill="#FFFF00"/>
</g>
<defs>
<clipPath id="clip0_27_893">
<rect width="39" height="23.7391" fill="white"/>
</clipPath>
</defs>
</svg>
