<svg width="346" height="503" viewBox="0 0 346 503" fill="none" xmlns="http://www.w3.org/2000/svg">
<g opacity="0.27" filter="url(#filter0_f_19_727)">
<path d="M207.048 20.3463L205.706 21.102C205.615 20.9456 205.511 20.7893 205.381 20.6329L198.41 11.8769C197.211 10.3655 194.8 9.29706 193.041 9.51857L182.657 10.7694L181.992 10.8476C181.849 10.8606 181.706 10.8867 181.562 10.9258L181.158 9.37524L180.103 11.903C179.751 12.5675 179.894 13.4535 180.611 14.3656L188.351 24.1509C189.693 25.8448 192.403 26.8741 194.318 26.4311L204.612 24.0858C205.381 23.9034 205.863 23.4734 206.032 22.9001L207.048 20.3463Z" fill="url(#paint0_linear_19_727)"/>
<path d="M205.682 21.5056L195.388 23.8509C193.46 24.2939 190.763 23.2646 189.421 21.5707L181.681 11.7854C180.352 10.1046 180.99 8.51497 183.049 8.2674L194.098 6.93837C195.87 6.7299 198.268 7.7853 199.467 9.29675L206.45 18.0657C207.662 19.5902 207.323 21.1277 205.682 21.5056Z" fill="url(#paint1_linear_19_727)"/>
<path d="M194.515 23.5248C192.795 23.5248 190.788 22.6127 189.707 21.2315L182.345 11.9283C181.707 11.1205 181.511 10.3126 181.785 9.66115C182.045 9.02269 182.723 8.59271 183.687 8.47545L194.202 7.21156C195.896 7.00309 198.215 8.01941 199.362 9.47873L205.994 17.8177C206.619 18.5995 206.841 19.4334 206.606 20.0979C206.411 20.6452 205.929 21.0361 205.225 21.1924L195.44 23.4205C195.153 23.4857 194.841 23.5248 194.515 23.5248ZM194.658 7.3158C194.515 7.3158 194.358 7.32883 194.228 7.34186L183.713 8.60574C182.801 8.72301 182.163 9.10087 181.915 9.70024C181.668 10.3126 181.85 11.0814 182.462 11.8371L189.811 21.1533C191.049 22.7299 193.629 23.7072 195.427 23.3032L205.212 21.0752C205.864 20.9318 206.32 20.567 206.502 20.0589C206.724 19.4334 206.502 18.6516 205.903 17.9089L199.271 9.56994C198.228 8.26697 196.248 7.3158 194.658 7.3158Z" fill="url(#paint2_linear_19_727)"/>
<path d="M198.799 16.7758C199.008 16.7367 199.125 16.6455 199.177 16.4891C199.216 16.3328 199.177 16.1764 199.034 15.994C198.89 15.8116 198.695 15.6813 198.46 15.5771C198.213 15.4728 197.991 15.4468 197.783 15.4858C197.574 15.5249 197.444 15.6161 197.405 15.7725C197.366 15.9289 197.405 16.0982 197.548 16.2676C197.692 16.45 197.887 16.5934 198.135 16.6846C198.369 16.7888 198.591 16.8149 198.799 16.7758ZM199.815 18.0657C200.063 18.0136 200.258 17.9224 200.389 17.7791C200.519 17.6358 200.571 17.4664 200.571 17.2709C200.324 17.2058 200.076 17.1797 199.841 17.1667C199.594 17.1537 199.372 17.1667 199.151 17.2058C198.929 17.2449 198.734 17.31 198.578 17.4012C198.408 17.4924 198.278 17.5967 198.174 17.727C198.447 17.8703 198.721 17.9745 199.021 18.0397C199.294 18.1179 199.568 18.1178 199.815 18.0657ZM200.493 18.9257C199.815 19.069 199.073 18.9648 198.265 18.6521C197.444 18.3263 196.78 17.8573 196.297 17.2579C195.815 16.6455 195.646 16.0852 195.802 15.5771C195.959 15.0689 196.389 14.7432 197.079 14.6259C197.77 14.5086 198.512 14.6259 199.32 14.9647C200.115 15.3034 200.754 15.7595 201.21 16.3458C201.666 16.9321 201.835 17.4794 201.692 17.9745C201.561 18.4697 201.157 18.7824 200.493 18.9257ZM197.887 19.4208C197.848 19.4339 197.809 19.4339 197.757 19.4208C196.415 19.3557 195.007 18.9387 193.535 18.183C192.037 17.4142 190.838 16.4631 189.926 15.3556L188.167 13.1926C188.011 12.9972 187.932 12.8148 187.945 12.6454C187.958 12.476 188.037 12.3327 188.193 12.2284L190.656 10.743C190.747 10.6909 190.864 10.6518 190.981 10.6388C191.112 10.6258 191.242 10.6258 191.398 10.6388L195.32 11.2121C195.568 11.2512 195.802 11.3294 196.05 11.4597C196.284 11.59 196.48 11.7463 196.623 11.9287L198.096 13.805C197.783 13.7529 197.483 13.7138 197.196 13.7008C196.91 13.6878 196.636 13.7008 196.363 13.7529C195.385 13.9093 194.773 14.3523 194.551 15.0689C194.33 15.7986 194.564 16.5934 195.242 17.4403C195.581 17.8573 195.972 18.2351 196.441 18.5609C196.897 18.8866 197.418 19.1602 198.004 19.3948L197.887 19.4208Z" fill="#44A6DD"/>
</g>
<path opacity="0.36" d="M-60.1887 867.531L-454.636 706.535L146.294 330.847L216.776 388.945L-60.1887 867.531Z" fill="url(#paint3_linear_19_727)"/>
<path opacity="0.26" d="M-351.255 361.139L-360.501 217.547L187.215 7.59797L202.444 19.564L-351.255 361.139Z" fill="url(#paint4_linear_19_727)"/>
<g filter="url(#filter1_df_19_727)">
<path d="M49.5023 428.682L57.9302 433.549C58.5237 432.599 59.2359 431.531 59.9482 430.581L103.987 375.147C111.584 365.651 126.778 358.885 137.936 360.19L203.46 368.143L207.733 368.618C208.683 368.737 209.514 368.856 210.463 369.093L212.956 359.359L219.603 375.384C221.859 379.539 220.909 385.118 216.398 390.934L167.493 452.66C159.065 463.343 141.972 469.753 129.745 467.023L64.6963 452.185C59.8295 451.117 56.7432 448.268 55.6749 444.707L49.5023 428.682Z" fill="#4D69FC"/>
<path d="M58.171 435.921L123.22 450.759C135.328 453.489 152.421 447.079 160.967 436.396L209.873 374.671C218.301 363.988 214.265 354.017 201.208 352.473L131.411 344.045C120.252 342.74 105.059 349.387 97.4616 359.002L53.4229 414.436C45.7072 423.814 47.7252 433.547 58.171 435.921Z" fill="url(#paint5_linear_19_727)"/>
<path d="M128.683 448.742C126.665 448.742 124.648 448.505 122.748 448.149L60.9042 434.023C56.5122 433.073 53.4259 430.581 52.2389 427.138C50.8145 422.984 52.1202 417.761 56.1561 412.775L98.0581 360.071C105.418 350.931 120.018 344.403 130.701 345.708L197.056 353.661C203.11 354.374 207.383 356.985 209.045 361.14C210.826 365.294 209.52 370.398 205.484 375.503L159.071 434.26C152.187 442.926 139.604 448.623 128.683 448.742ZM127.734 346.302C117.644 346.302 105.18 352.237 98.6517 360.546L56.7496 413.25C52.9511 417.998 51.6454 422.984 52.9511 426.901C54.0195 430.106 56.987 432.361 61.0229 433.311L122.867 447.436C134.262 450.048 150.525 443.875 158.359 433.904L204.772 375.147C208.57 370.28 209.757 365.532 208.214 361.614C206.671 357.816 202.635 355.323 196.819 354.73L130.464 346.777C129.633 346.42 128.683 346.302 127.734 346.302Z" fill="#5944DD"/>
<path d="M134.968 418.71L138.767 417.285L136.393 410.994L142.328 403.279L139.004 402.685L132.357 411.469L134.968 418.71ZM124.048 424.645C103.156 420.49 123.336 393.664 144.939 397.343C167.493 401.142 145.77 429.156 124.048 424.645ZM117.044 380.606L149.925 385.711L154.198 380.131L120.961 375.146L117.044 380.606ZM107.786 415.386L87.2499 411.35C83.9263 410.757 82.9766 407.789 85.1133 405.059C87.2499 403.041 113.246 363.988 117.044 364.225C119.537 361.02 166.781 369.923 169.867 369.686C173.784 370.16 175.09 373.365 172.597 376.452L157.878 395.563C154.91 393.189 150.637 391.764 145.533 391.527L145.652 391.29L113.008 385.948L108.973 391.29L128.558 394.613C125.353 395.8 122.505 397.343 119.774 399.243L104.937 396.631L101.019 401.973L113.839 404.347C110.516 407.908 108.379 411.588 107.786 415.386Z" fill="#5944DD"/>
</g>
<g filter="url(#filter2_f_19_727)">
<path d="M273.203 451.547C273.229 451.335 273.536 451.335 273.561 451.547L273.773 453.326C274.045 455.624 275.857 457.435 278.154 457.708L279.933 457.919C280.145 457.944 280.145 458.252 279.933 458.277L278.154 458.488C275.857 458.761 274.045 460.572 273.773 462.869L273.561 464.649C273.536 464.861 273.229 464.861 273.203 464.649L272.992 462.869C272.72 460.572 270.908 458.761 268.611 458.488L266.831 458.277C266.619 458.252 266.619 457.944 266.831 457.919L268.611 457.708C270.908 457.435 272.72 455.624 272.992 453.326L273.203 451.547Z" fill="white"/>
</g>
<path d="M273.203 451.547C273.229 451.335 273.536 451.335 273.561 451.547L273.773 453.326C274.045 455.624 275.857 457.435 278.154 457.708L279.933 457.919C280.145 457.944 280.145 458.252 279.933 458.277L278.154 458.488C275.857 458.761 274.045 460.572 273.773 462.869L273.561 464.649C273.536 464.861 273.229 464.861 273.203 464.649L272.992 462.869C272.72 460.572 270.908 458.761 268.611 458.488L266.831 458.277C266.619 458.252 266.619 457.944 266.831 457.919L268.611 457.708C270.908 457.435 272.72 455.624 272.992 453.326L273.203 451.547Z" fill="white"/>
<g filter="url(#filter3_f_19_727)">
<path d="M172.13 204.457C172.156 204.245 172.463 204.245 172.489 204.457L172.7 206.236C172.972 208.534 174.784 210.345 177.081 210.618L178.86 210.829C179.073 210.854 179.073 211.162 178.86 211.187L177.081 211.398C174.784 211.671 172.972 213.482 172.7 215.78L172.489 217.559C172.463 217.771 172.156 217.771 172.13 217.559L171.919 215.78C171.647 213.482 169.835 211.671 167.538 211.398L165.759 211.187C165.546 211.162 165.546 210.854 165.759 210.829L167.538 210.618C169.835 210.345 171.647 208.534 171.919 206.236L172.13 204.457Z" fill="white"/>
</g>
<path d="M172.13 204.457C172.156 204.245 172.463 204.245 172.489 204.457L172.7 206.236C172.972 208.534 174.784 210.345 177.081 210.618L178.86 210.829C179.073 210.854 179.073 211.162 178.86 211.187L177.081 211.398C174.784 211.671 172.972 213.482 172.7 215.78L172.489 217.559C172.463 217.771 172.156 217.771 172.13 217.559L171.919 215.78C171.647 213.482 169.835 211.671 167.538 211.398L165.759 211.187C165.546 211.162 165.546 210.854 165.759 210.829L167.538 210.618C169.835 210.345 171.647 208.534 171.919 206.236L172.13 204.457Z" fill="white"/>
<defs>
<filter id="filter0_f_19_727" x="173.919" y="0.912109" width="39.2574" height="31.6219" filterUnits="userSpaceOnUse" color-interpolation-filters="sRGB">
<feFlood flood-opacity="0" result="BackgroundImageFix"/>
<feBlend mode="normal" in="SourceGraphic" in2="BackgroundImageFix" result="shape"/>
<feGaussianBlur stdDeviation="3" result="effect1_foregroundBlur_19_727"/>
</filter>
<filter id="filter1_df_19_727" x="16.7511" y="315.882" width="236.027" height="187.77" filterUnits="userSpaceOnUse" color-interpolation-filters="sRGB">
<feFlood flood-opacity="0" result="BackgroundImageFix"/>
<feColorMatrix in="SourceAlpha" type="matrix" values="0 0 0 0 0 0 0 0 0 0 0 0 0 0 0 0 0 0 127 0" result="hardAlpha"/>
<feOffset dy="4"/>
<feGaussianBlur stdDeviation="16"/>
<feComposite in2="hardAlpha" operator="out"/>
<feColorMatrix type="matrix" values="0 0 0 0 1 0 0 0 0 1 0 0 0 0 1 0 0 0 0.35 0"/>
<feBlend mode="normal" in2="BackgroundImageFix" result="effect1_dropShadow_19_727"/>
<feBlend mode="normal" in="SourceGraphic" in2="effect1_dropShadow_19_727" result="shape"/>
<feGaussianBlur stdDeviation="2.5" result="effect2_foregroundBlur_19_727"/>
</filter>
<filter id="filter2_f_19_727" x="252.672" y="437.388" width="41.42" height="41.42" filterUnits="userSpaceOnUse" color-interpolation-filters="sRGB">
<feFlood flood-opacity="0" result="BackgroundImageFix"/>
<feBlend mode="normal" in="SourceGraphic" in2="BackgroundImageFix" result="shape"/>
<feGaussianBlur stdDeviation="7" result="effect1_foregroundBlur_19_727"/>
</filter>
<filter id="filter3_f_19_727" x="151.599" y="190.298" width="41.42" height="41.42" filterUnits="userSpaceOnUse" color-interpolation-filters="sRGB">
<feFlood flood-opacity="0" result="BackgroundImageFix"/>
<feBlend mode="normal" in="SourceGraphic" in2="BackgroundImageFix" result="shape"/>
<feGaussianBlur stdDeviation="7" result="effect1_foregroundBlur_19_727"/>
</filter>
<linearGradient id="paint0_linear_19_727" x1="178.991" y1="2.19777" x2="202.271" y2="27.1569" gradientUnits="userSpaceOnUse">
<stop stop-color="#BFFFE7"/>
<stop offset="0.1844" stop-color="#14D980"/>
<stop offset="0.2856" stop-color="#11C376"/>
<stop offset="0.5117" stop-color="#0A9762"/>
<stop offset="0.7141" stop-color="#067754"/>
<stop offset="0.8839" stop-color="#03634B"/>
<stop offset="1" stop-color="#025C48"/>
</linearGradient>
<linearGradient id="paint1_linear_19_727" x1="180.98" y1="15.4285" x2="207.173" y2="15.4285" gradientUnits="userSpaceOnUse">
<stop stop-color="#F5F5F5"/>
<stop offset="0.41" stop-color="#EDEDED"/>
<stop offset="1" stop-color="#D9D9D9"/>
</linearGradient>
<linearGradient id="paint2_linear_19_727" x1="181.673" y1="15.3539" x2="206.715" y2="15.3539" gradientUnits="userSpaceOnUse">
<stop stop-color="#23E8A4"/>
<stop offset="0.11" stop-color="#1EDD9E"/>
<stop offset="0.48" stop-color="#0FBD8D"/>
<stop offset="0.79" stop-color="#06AA83"/>
<stop offset="1" stop-color="#03A380"/>
</linearGradient>
<linearGradient id="paint3_linear_19_727" x1="-200.008" y1="974.622" x2="160.311" y2="311.264" gradientUnits="userSpaceOnUse">
<stop stop-color="white"/>
<stop offset="1" stop-color="white" stop-opacity="0"/>
</linearGradient>
<linearGradient id="paint4_linear_19_727" x1="-489.74" y1="301.409" x2="200.042" y2="-5.30719" gradientUnits="userSpaceOnUse">
<stop stop-color="white"/>
<stop offset="1" stop-color="white" stop-opacity="0"/>
</linearGradient>
<linearGradient id="paint5_linear_19_727" x1="214.182" y1="397.583" x2="48.7418" y2="397.583" gradientUnits="userSpaceOnUse">
<stop stop-color="#F5F5F5"/>
<stop offset="0.41" stop-color="#EDEDED"/>
<stop offset="1" stop-color="#D9D9D9"/>
</linearGradient>
</defs>
</svg>
