<svg width="250" height="518" viewBox="0 0 250 518" fill="none" xmlns="http://www.w3.org/2000/svg">
<path opacity="0.26" d="M697.487 359.277L793.868 248.134L130.393 195.597L113.311 220.981L697.487 359.277Z" fill="url(#paint0_linear_19_725)"/>
<g filter="url(#filter0_d_19_725)">
<path d="M147.733 438.04L141.563 440.684C141.2 440.002 140.793 439.174 140.43 438.492L113.963 396.746C109.431 389.56 99.2952 383.742 91.5714 383.846L45.5188 384.384L42.5425 384.487C41.9183 384.516 41.294 384.545 40.6697 384.575L39.6801 377.591L33.8472 388.206C31.9897 390.98 32.2088 394.871 34.9543 399.269L64.2973 445.849C69.4251 453.964 80.8095 459.724 89.3751 458.733L135.528 453.259C139.041 452.837 141.392 451.181 142.379 448.669L147.733 438.04Z" fill="#4D69FC"/>
<path d="M141.123 442.398L94.9707 447.872C86.2599 448.906 74.8755 443.146 69.8929 434.988L40.5499 388.408C35.4657 380.439 39.0205 373.832 48.1381 373.626L97.167 372.985C105.036 372.837 115.027 378.699 119.559 385.884L146.026 427.631C150.601 434.961 148.484 441.611 141.123 442.398Z" fill="url(#paint1_linear_19_725)"/>
<path d="M95.3586 446.013L139.392 440.859C142.615 440.524 144.864 439.057 145.894 436.69C147.273 433.902 146.618 430.142 144.236 426.426L119.004 386.683C114.559 379.788 104.946 374.129 97.4108 374.335L50.7339 374.902C46.4655 374.918 43.301 376.501 41.879 379.144C40.3555 381.976 40.8213 385.634 43.2036 389.35L71.0359 433.535C75.2049 440.038 83.4966 444.986 91.0465 445.884C92.5711 446.217 94.0085 446.261 95.3586 446.013ZM118.656 387.104L143.888 426.847C146.226 430.418 146.649 433.931 145.561 436.632C144.632 438.81 142.339 440.132 139.45 440.525L95.4166 445.679C87.3301 446.684 76.4684 441.083 71.849 433.608L44.0167 389.423C41.678 385.852 41.2558 382.339 42.6777 379.696C43.9981 377.242 47.061 375.847 51.1407 375.729L97.5852 374.915C98.2095 374.886 98.8774 375.002 99.5016 374.973C106.427 375.9 114.719 380.848 118.656 387.104Z" fill="#5944DD"/>
<path d="M127.577 427.318C129.116 427.172 130.045 426.576 130.509 425.487C130.973 424.398 130.77 423.193 129.898 421.872L109.852 389.909C108.98 388.588 107.673 387.398 106.163 386.586C104.464 385.672 102.896 385.193 101.357 385.339L63.1447 386.687C61.417 386.731 60.2992 387.225 59.6898 388.358C59.0804 389.491 59.2841 390.696 60.1557 392.017L81.3787 426.317C82.2938 427.783 83.6009 428.973 85.445 429.843C87.2892 430.714 89.0025 431.149 90.6866 430.96L127.577 427.318ZM114.028 418.567C113.259 418.64 112.402 418.423 111.647 418.017C110.747 417.654 110.093 417.059 109.73 416.377L105.43 409.438C105.067 408.756 104.893 408.175 105.197 407.609C105.502 407.043 105.894 406.767 106.663 406.694C107.433 406.621 108.29 406.838 109.045 407.245C109.989 407.752 110.598 408.202 110.962 408.885L115.218 415.678C115.581 416.36 115.755 416.941 115.451 417.507C115.335 418.175 114.798 418.495 114.028 418.567ZM92.5414 420.273C91.772 420.346 90.9153 420.129 89.9714 419.621C89.0275 419.113 88.374 418.518 88.0108 417.836L76.0702 398.632C75.707 397.949 75.5326 397.369 75.8373 396.802C76.142 396.236 76.679 395.916 77.4921 395.989C78.2616 395.916 79.1182 396.133 80.0621 396.641C81.006 397.149 81.6595 397.744 82.0227 398.426L93.9198 417.485C94.2829 418.167 94.4573 418.748 94.1526 419.315C93.8479 419.881 93.3109 420.2 92.5414 420.273ZM103.503 419.355C102.733 419.428 101.876 419.21 100.976 418.848C100.032 418.34 99.4224 417.89 99.0156 417.063L97.5485 414.813C97.1853 414.13 97.0109 413.55 97.3156 412.983C97.6203 412.417 98.0122 412.141 98.7816 412.068C99.5511 411.995 100.408 412.213 101.163 412.619C102.107 413.127 102.717 413.577 103.08 414.259L104.547 416.509C104.91 417.191 105.085 417.772 104.78 418.338C104.664 419.006 104.272 419.282 103.503 419.355ZM95.949 407.38C95.1795 407.453 94.3228 407.235 93.379 406.727C92.4351 406.219 91.7815 405.624 91.4184 404.942C91.0552 404.26 90.8808 403.679 91.1855 403.113C91.4902 402.546 92.0708 402.372 92.8403 402.299C93.6098 402.226 94.4664 402.444 95.2651 402.995C96.209 403.503 96.8189 403.953 97.2257 404.78C97.5889 405.463 97.7633 406.043 97.4586 406.61C97.2555 406.987 96.7184 407.307 95.949 407.38Z" fill="#5944DD"/>
</g>
<g opacity="0.27" filter="url(#filter1_f_19_725)">
<path d="M92.1542 216.152L94.6726 217.3C94.8119 217.006 94.9746 216.71 95.1839 216.41L106.324 199.667C108.238 196.778 112.39 194.496 115.573 194.623L134.357 195.273L135.558 195.311C135.817 195.312 136.077 195.337 136.34 195.385L136.826 192.547L139.102 196.911C139.834 198.047 139.713 199.655 138.57 201.398L126.211 220.101C124.068 223.339 119.373 225.597 115.876 225.097L97.0889 222.474C95.6846 222.265 94.7557 221.569 94.3647 220.569L92.1542 216.152Z" fill="url(#paint2_linear_19_725)"/>
<path d="M94.7784 218.018L113.566 220.641C117.086 221.139 121.757 218.883 123.901 215.645L136.259 196.942C138.381 193.729 136.995 190.981 133.271 190.853L113.286 190.165C110.082 190.063 105.951 192.32 104.036 195.209L92.8755 211.977C90.9394 214.892 91.7813 217.593 94.7784 218.018Z" fill="url(#paint3_linear_19_725)"/>
<path d="M115.08 219.924C118.159 219.66 121.612 217.72 123.336 215.082L135.092 197.299C136.111 195.755 136.338 194.279 135.748 193.155C135.184 192.051 133.905 191.385 132.161 191.323L113.142 190.67C110.078 190.556 106.081 192.731 104.252 195.519L93.6547 211.464C92.6547 212.959 92.3858 214.486 92.9074 215.64C93.3411 216.59 94.2641 217.216 95.5477 217.388L113.408 219.879C113.931 219.951 114.497 219.973 115.08 219.924ZM112.342 190.926C112.598 190.905 112.88 190.904 113.115 190.907L132.134 191.56C133.785 191.631 134.986 192.209 135.521 193.244C136.058 194.303 135.849 195.707 134.868 197.154L123.138 214.958C121.163 217.97 116.694 220.115 113.413 219.667L95.5531 217.176C94.3648 217.019 93.4925 216.436 93.0881 215.554C92.5958 214.468 92.8726 213.034 93.832 211.613L104.429 195.668C106.096 193.176 109.496 191.17 112.342 190.926Z" fill="url(#paint4_linear_19_725)"/>
<path d="M106.376 208.496C105.997 208.458 105.773 208.313 105.656 208.041C105.562 207.767 105.608 207.481 105.837 207.133C106.065 206.784 106.395 206.521 106.799 206.298C107.226 206.074 107.619 205.993 107.998 206.031C108.377 206.07 108.625 206.213 108.719 206.487C108.813 206.761 108.768 207.07 108.538 207.395C108.309 207.744 107.981 208.03 107.552 208.231C107.148 208.454 106.755 208.535 106.376 208.496ZM104.754 210.961C104.303 210.906 103.939 210.773 103.684 210.536C103.429 210.299 103.309 210.004 103.279 209.654C103.713 209.5 104.152 209.415 104.57 209.356C105.011 209.295 105.41 209.284 105.812 209.32C106.215 209.356 106.575 209.443 106.869 209.582C107.186 209.72 107.435 209.886 107.642 210.104C107.174 210.402 106.7 210.631 106.173 210.793C105.695 210.975 105.205 211.017 104.754 210.961ZM103.673 212.605C104.908 212.758 106.221 212.457 107.62 211.774C109.04 211.065 110.157 210.123 110.929 208.977C111.698 207.806 111.916 206.777 111.558 205.892C111.2 205.006 110.381 204.488 109.126 204.384C107.872 204.28 106.56 204.604 105.166 205.334C103.795 206.062 102.722 206.976 101.995 208.096C101.268 209.215 101.049 210.221 101.381 211.085C101.69 211.952 102.461 212.45 103.673 212.605ZM108.414 213.092C108.486 213.11 108.556 213.104 108.647 213.072C111.04 212.75 113.496 211.788 116.016 210.21C118.581 208.604 120.581 206.718 122.045 204.595L124.863 200.454C125.113 200.08 125.225 199.741 125.175 199.44C125.126 199.139 124.964 198.894 124.668 198.731L120.032 196.449C119.861 196.37 119.645 196.318 119.433 196.312C119.198 196.309 118.964 196.329 118.687 196.376L111.753 198.003C111.316 198.111 110.908 198.287 110.484 198.558C110.084 198.827 109.758 199.137 109.53 199.486L107.181 203.07C107.733 202.929 108.263 202.813 108.775 202.746C109.286 202.679 109.778 202.66 110.276 202.712C112.049 202.842 113.213 203.541 113.72 204.79C114.228 206.063 113.93 207.522 112.846 209.142C112.304 209.94 111.662 210.676 110.872 211.331C110.105 211.984 109.214 212.554 108.2 213.064L108.414 213.092Z" fill="#44A6DD"/>
</g>
<g filter="url(#filter2_f_19_725)">
<path d="M171.809 353.991C171.834 353.779 172.142 353.779 172.167 353.991L172.379 355.77C172.651 358.068 174.463 359.879 176.76 360.152L178.539 360.363C178.751 360.388 178.751 360.696 178.539 360.721L176.76 360.932C174.463 361.205 172.651 363.016 172.379 365.314L172.167 367.093C172.142 367.305 171.834 367.305 171.809 367.093L171.598 365.314C171.326 363.016 169.514 361.205 167.217 360.932L165.437 360.721C165.225 360.696 165.225 360.388 165.437 360.363L167.217 360.152C169.514 359.879 171.326 358.068 171.598 355.77L171.809 353.991Z" fill="white"/>
</g>
<path d="M171.809 353.991C171.834 353.779 172.142 353.779 172.167 353.991L172.379 355.77C172.651 358.068 174.463 359.879 176.76 360.152L178.539 360.363C178.751 360.388 178.751 360.696 178.539 360.721L176.76 360.932C174.463 361.205 172.651 363.016 172.379 365.314L172.167 367.093C172.142 367.305 171.834 367.305 171.809 367.093L171.598 365.314C171.326 363.016 169.514 361.205 167.217 360.932L165.437 360.721C165.225 360.696 165.225 360.388 165.437 360.363L167.217 360.152C169.514 359.879 171.326 358.068 171.598 355.77L171.809 353.991Z" fill="white"/>
<defs>
<filter id="filter0_d_19_725" x="0.638672" y="344.982" width="179.794" height="149.862" filterUnits="userSpaceOnUse" color-interpolation-filters="sRGB">
<feFlood flood-opacity="0" result="BackgroundImageFix"/>
<feColorMatrix in="SourceAlpha" type="matrix" values="0 0 0 0 0 0 0 0 0 0 0 0 0 0 0 0 0 0 127 0" result="hardAlpha"/>
<feOffset dy="4"/>
<feGaussianBlur stdDeviation="16"/>
<feComposite in2="hardAlpha" operator="out"/>
<feColorMatrix type="matrix" values="0 0 0 0 1 0 0 0 0 1 0 0 0 0 1 0 0 0 0.35 0"/>
<feBlend mode="normal" in2="BackgroundImageFix" result="effect1_dropShadow_19_725"/>
<feBlend mode="normal" in="SourceGraphic" in2="effect1_dropShadow_19_725" result="shape"/>
</filter>
<filter id="filter1_f_19_725" x="85.8355" y="184.162" width="59.725" height="47.005" filterUnits="userSpaceOnUse" color-interpolation-filters="sRGB">
<feFlood flood-opacity="0" result="BackgroundImageFix"/>
<feBlend mode="normal" in="SourceGraphic" in2="BackgroundImageFix" result="shape"/>
<feGaussianBlur stdDeviation="3" result="effect1_foregroundBlur_19_725"/>
</filter>
<filter id="filter2_f_19_725" x="151.278" y="339.832" width="41.42" height="41.42" filterUnits="userSpaceOnUse" color-interpolation-filters="sRGB">
<feFlood flood-opacity="0" result="BackgroundImageFix"/>
<feBlend mode="normal" in="SourceGraphic" in2="BackgroundImageFix" result="shape"/>
<feGaussianBlur stdDeviation="7" result="effect1_foregroundBlur_19_725"/>
</filter>
<linearGradient id="paint0_linear_19_725" x1="857.834" y1="267.724" x2="106.321" y2="196.293" gradientUnits="userSpaceOnUse">
<stop stop-color="white"/>
<stop offset="1" stop-color="white" stop-opacity="0"/>
</linearGradient>
<linearGradient id="paint1_linear_19_725" x1="35.6412" y1="404.208" x2="150.502" y2="416.546" gradientUnits="userSpaceOnUse">
<stop stop-color="#F5F5F5"/>
<stop offset="0.41" stop-color="#EDEDED"/>
<stop offset="1" stop-color="#D9D9D9"/>
</linearGradient>
<linearGradient id="paint2_linear_19_725" x1="139.607" y1="179.365" x2="101.75" y2="227.614" gradientUnits="userSpaceOnUse">
<stop stop-color="#BFFFE7"/>
<stop offset="0.1844" stop-color="#14D980"/>
<stop offset="0.2856" stop-color="#11C376"/>
<stop offset="0.5117" stop-color="#0A9762"/>
<stop offset="0.7141" stop-color="#067754"/>
<stop offset="0.8839" stop-color="#03634B"/>
<stop offset="1" stop-color="#025C48"/>
</linearGradient>
<linearGradient id="paint3_linear_19_725" x1="138.072" y1="203.357" x2="91.1774" y2="207.367" gradientUnits="userSpaceOnUse">
<stop stop-color="#F5F5F5"/>
<stop offset="0.41" stop-color="#EDEDED"/>
<stop offset="1" stop-color="#D9D9D9"/>
</linearGradient>
<linearGradient id="paint4_linear_19_725" x1="136.82" y1="203.329" x2="91.9868" y2="207.163" gradientUnits="userSpaceOnUse">
<stop stop-color="#23E8A4"/>
<stop offset="0.11" stop-color="#1EDD9E"/>
<stop offset="0.48" stop-color="#0FBD8D"/>
<stop offset="0.79" stop-color="#06AA83"/>
<stop offset="1" stop-color="#03A380"/>
</linearGradient>
</defs>
</svg>
