<svg width="13" height="13" viewBox="0 0 13 13" fill="none" xmlns="http://www.w3.org/2000/svg">
<mask id="mask0_4960_3243" style="mask-type:alpha" maskUnits="userSpaceOnUse" x="0" y="0" width="13" height="13">
<rect x="0.496094" y="0.521484" width="11.9987" height="11.9987" fill="#D9D9D9"/>
</mask>
<g mask="url(#mask0_4960_3243)">
<path d="M2.49604 11.0205C2.35439 11.0205 2.23565 10.9726 2.13983 10.8767C2.04401 10.7809 1.99609 10.6622 1.99609 10.5205C1.99609 10.3789 2.04401 10.2601 2.13983 10.1643C2.23565 10.0685 2.35439 10.0206 2.49604 10.0206H10.4951C10.6368 10.0206 10.7555 10.0685 10.8513 10.1643C10.9472 10.2601 10.9951 10.3789 10.9951 10.5205C10.9951 10.6622 10.9472 10.7809 10.8513 10.8767C10.7555 10.9726 10.6368 11.0205 10.4951 11.0205H2.49604ZM2.49604 9.0207C2.35439 9.0207 2.23565 8.97279 2.13983 8.87696C2.04401 8.78114 1.99609 8.6624 1.99609 8.52075C1.99609 8.3791 2.04401 8.26037 2.13983 8.16454C2.23565 8.06872 2.35439 8.02081 2.49604 8.02081H10.4951C10.6368 8.02081 10.7555 8.06872 10.8513 8.16454C10.9472 8.26037 10.9951 8.3791 10.9951 8.52075C10.9951 8.6624 10.9472 8.78114 10.8513 8.87696C10.7555 8.97279 10.6368 9.0207 10.4951 9.0207H2.49604ZM2.49604 7.02092C2.35439 7.02092 2.23565 6.97301 2.13983 6.87719C2.04401 6.78137 1.99609 6.66263 1.99609 6.52098C1.99609 6.37933 2.04401 6.26059 2.13983 6.16477C2.23565 6.06895 2.35439 6.02103 2.49604 6.02103H10.4951C10.6368 6.02103 10.7555 6.06895 10.8513 6.16477C10.9472 6.26059 10.9951 6.37933 10.9951 6.52098C10.9951 6.66263 10.9472 6.78137 10.8513 6.87719C10.7555 6.97301 10.6368 7.02092 10.4951 7.02092H2.49604ZM2.49604 5.02115C2.35439 5.02115 2.23565 4.97324 2.13983 4.87741C2.04401 4.78159 1.99609 4.66285 1.99609 4.5212C1.99609 4.37955 2.04401 4.26082 2.13983 4.16499C2.23565 4.06917 2.35439 4.02126 2.49604 4.02126H10.4951C10.6368 4.02126 10.7555 4.06917 10.8513 4.16499C10.9472 4.26082 10.9951 4.37955 10.9951 4.5212C10.9951 4.66285 10.9472 4.78159 10.8513 4.87741C10.7555 4.97324 10.6368 5.02115 10.4951 5.02115H2.49604ZM2.49604 3.02137C2.35439 3.02137 2.23565 2.97346 2.13983 2.87764C2.04401 2.78182 1.99609 2.66308 1.99609 2.52143C1.99609 2.37978 2.04401 2.26104 2.13983 2.16522C2.23565 2.0694 2.35439 2.02148 2.49604 2.02148H10.4951C10.6368 2.02148 10.7555 2.0694 10.8513 2.16522C10.9472 2.26104 10.9951 2.37978 10.9951 2.52143C10.9951 2.66308 10.9472 2.78182 10.8513 2.87764C10.7555 2.97346 10.6368 3.02137 10.4951 3.02137H2.49604Z" fill="white"/>
</g>
</svg>
