<svg width="12" height="13" viewBox="0 0 12 13" fill="none" xmlns="http://www.w3.org/2000/svg">
<path d="M10.4892 3.1464H1.49019C1.28522 3.1464 1.11523 2.97642 1.11523 2.77144C1.11523 2.56647 1.28522 2.39648 1.49019 2.39648H10.4892C10.6942 2.39648 10.8641 2.56647 10.8641 2.77144C10.8641 2.97642 10.6942 3.1464 10.4892 3.1464Z" fill="white"/>
<path d="M10.4903 5.64542H5.75582C5.55084 5.64542 5.38086 5.47544 5.38086 5.27047C5.38086 5.06549 5.55084 4.89551 5.75582 4.89551H10.4903C10.6953 4.89551 10.8652 5.06549 10.8652 5.27047C10.8652 5.47544 10.6953 5.64542 10.4903 5.64542Z" fill="white"/>
<path d="M10.4892 8.14542H1.49019C1.28522 8.14542 1.11523 7.97544 1.11523 7.77047C1.11523 7.56549 1.28522 7.39551 1.49019 7.39551H10.4892C10.6942 7.39551 10.8641 7.56549 10.8641 7.77047C10.8641 7.97544 10.6942 8.14542 10.4892 8.14542Z" fill="white"/>
<path d="M10.4903 10.6454H5.75582C5.55084 10.6454 5.38086 10.4754 5.38086 10.2705C5.38086 10.0655 5.55084 9.89551 5.75582 9.89551H10.4903C10.6953 9.89551 10.8652 10.0655 10.8652 10.2705C10.8652 10.4754 10.6953 10.6454 10.4903 10.6454Z" fill="white"/>
</svg>
