<svg width="94" height="100" viewBox="0 0 94 100" fill="none" xmlns="http://www.w3.org/2000/svg">
<path d="M1.76715 48.7041C1.76715 48.7041 8.69952 35.1302 10.1747 32.0409C11.6498 28.9517 14.7536 25.1561 16.135 23.8285L39.2429 4.28891C46.4651 -2.07678 59.6818 -1.48957 66.9638 6.94412L89.2617 33.4111C93.5677 38.3981 94.3096 44.5596 92.0585 49.6743L84.4525 72.0137L66.2902 66.9076L61.4981 69.7755C54.9153 73.7073 45.0582 71.8606 39.2002 65.7672L30.6648 56.8825L1.77567 48.7041H1.76715Z" fill="url(#paint0_linear_7027_5630)"/>
<path d="M53.1666 95.6554L78.2442 78.9497C86.4556 73.4776 88.792 64.1333 80.393 53.7252L56.0914 25.5562C48.6644 16.9438 36.2663 15.6332 28.882 22.4329L6.37102 43.164C-1.89154 50.8828 0.18902 56.0996 7.12992 64.1929L32.4889 94.1406C38.9352 101.298 46.2428 100.276 53.1752 95.6554H53.1666Z" fill="url(#paint1_linear_7027_5630)" stroke="url(#paint2_linear_7027_5630)" stroke-width="0.32" stroke-miterlimit="10"/>
<path d="M45.2284 34.739L42.7641 36.7644C42.5936 36.9006 42.4657 37.0708 42.3804 37.2665C42.1246 37.8367 41.3827 38.7813 41.8688 39.3515L50.6685 48.449L41.468 48.7044C40.9223 48.7214 40.675 49.0788 40.4448 49.4703C40.2998 49.7256 39.6347 50.5426 40.0867 51.0787L43.5827 54.3126L39.882 57.1465L37.6394 58.8656L35.0217 55.6828C34.1775 54.6615 32.3954 55.3509 32.1566 56.3806L30.6985 63.7761L23.4677 54.8403C22.8794 54.1084 21.9158 53.9126 21.3275 54.3892L19.2128 56.1338C18.9655 56.3381 18.3942 57.3082 18.3516 57.6316C18.3004 58.0742 18.8803 57.887 19.2128 58.3125L38.7991 82.8306C39.4216 83.605 40.4448 83.8859 41.0928 83.4434L43.1478 82.7029C43.361 82.5583 43.8044 81.486 43.8811 81.2562C44.0431 80.7626 43.9152 80.1328 43.4804 79.6052L35.2519 69.4269L43.8811 70.5928C44.4183 70.6098 44.9044 69.3844 45.0408 68.9759C45.1943 68.5163 45.0664 67.8865 44.6059 67.3334L41.9285 64.0825L44.2137 62.3889L47.9911 59.589L50.7538 62.8825C51.6491 63.9548 53.1328 63.9718 53.4142 62.908L55.6909 54.3296L64.7635 64.9505C65.4627 65.7675 66.6479 66.0228 67.3983 65.5122L69.8967 64.4654C70.1099 64.3207 70.5362 63.2825 70.6385 63.0612C70.8943 62.4995 70.7664 61.7591 70.2548 61.1719L47.6841 35.1049C47.019 34.339 45.9191 34.1688 45.2284 34.739Z" fill="url(#paint3_linear_7027_5630)"/>
<path d="M45.5301 33.5212L43.0658 35.5467C42.3922 36.0998 42.3751 37.1636 43.0317 37.9295L50.9788 47.2313L41.7782 47.4866C40.6527 47.5121 40.3287 48.8482 41.1899 49.878L43.8844 53.0949L40.1837 55.9288L37.9411 57.6478L35.3234 54.465C34.4792 53.4438 33.1234 53.4608 32.8847 54.4905L30.9917 62.5668L23.7609 53.631C23.1725 52.8991 22.209 52.7034 21.6207 53.1799L19.506 54.9246C18.9262 55.4011 18.9347 56.3713 19.506 57.1032L39.0923 81.6213C39.7147 82.3958 40.738 82.6766 41.386 82.2341L43.748 80.6256C44.4045 80.1831 44.4216 79.1704 43.7821 78.3874L35.5536 68.2091L44.3193 68.4389C45.4533 68.4729 45.7859 67.1794 44.9076 66.1156L42.2302 62.8647L44.5154 61.1711L48.2928 58.3712L51.0555 61.6647C51.9508 62.737 53.4345 62.754 53.7159 61.6902L55.9926 53.1119L65.0652 63.7327C65.7644 64.5497 66.9496 64.805 67.7 64.2944L70.4627 62.4136C71.2301 61.8945 71.2728 60.7882 70.5565 59.9541L47.9858 33.8871C47.3207 33.1212 46.2208 32.951 45.5301 33.5212Z" fill="url(#paint4_linear_7027_5630)"/>
<path d="M45.5009 33.5974L43.0366 35.6228C42.363 36.176 42.346 37.2398 43.0025 38.0057L50.9496 47.3074L41.7491 47.5628C40.6235 47.5883 40.2995 48.9244 41.1607 49.9541L43.8552 53.171L40.1545 56.0049L37.912 57.724L35.2942 54.5412C34.4501 53.5199 33.0943 53.537 32.8555 54.5667L30.9625 62.643L23.7317 53.7072C23.1434 52.9753 22.1799 52.7796 21.5915 53.2561L19.4768 55.0007C18.897 55.4773 18.9055 56.4475 19.4768 57.1794L39.0631 81.6975C39.6856 82.4719 40.7088 82.7528 41.3568 82.3102L43.7188 80.7018C44.3754 80.2593 44.3924 79.2465 43.7529 78.4636L35.5244 68.2853L44.2901 68.5151C45.4242 68.5491 45.7567 67.2555 44.8785 66.1918L42.201 62.9408L44.4862 61.2473L48.2636 58.4474L51.0263 61.7409C51.9217 62.8132 53.4054 62.8302 53.6867 61.7664L55.9634 53.188L65.036 63.8089C65.7352 64.6259 66.9205 64.8812 67.6708 64.3706L70.4336 62.4898C71.201 61.9707 71.2436 60.8643 70.5274 60.0303L47.9567 33.9633C47.2916 33.1974 46.1916 33.0272 45.5009 33.5974Z" fill="url(#paint5_linear_7027_5630)"/>
<path d="M45.4676 33.6828L43.0033 35.7083C42.3297 36.2614 42.3126 37.3252 42.9692 38.0911L50.9162 47.3929L41.7157 47.6482C40.5902 47.6737 40.2661 49.0099 41.1274 50.0396L43.8219 53.2565L40.1212 56.0904L37.8786 57.8095L35.2609 54.6266C34.4167 53.6054 33.0609 53.6224 32.8222 54.6522L30.9292 62.7284L23.6984 53.7926C23.11 53.0607 22.1465 52.865 21.5581 53.3416L19.4435 55.0862C18.8636 55.5628 18.8722 56.5329 19.4435 57.2648L39.0297 81.7829C39.6522 82.5574 40.6754 82.8382 41.3235 82.3957L43.6854 80.7872C44.342 80.3447 44.3591 79.332 43.7195 78.5491L35.4911 68.3707L44.2567 68.6005C45.3908 68.6346 45.7234 67.341 44.8451 66.2772L42.1676 63.0263L44.4529 61.3327L48.2303 58.5328L50.993 61.8263C51.8883 62.8986 53.372 62.9156 53.6534 61.8519L55.9301 53.2735L65.0027 63.8943C65.7019 64.7113 66.8871 64.9666 67.6375 64.456L70.4002 62.5752C71.1676 62.0561 71.2103 60.9498 70.494 60.1158L47.9233 34.0488C47.2582 33.2828 46.1582 33.1126 45.4676 33.6828Z" fill="url(#paint6_linear_7027_5630)"/>
<path d="M45.4425 33.76L42.9783 35.7854C42.3046 36.3386 42.2876 37.4024 42.9441 38.1683L50.8912 47.47L41.6907 47.7254C40.5651 47.7509 40.2411 49.087 41.1023 50.1167L43.7968 53.3336L40.0962 56.1675L37.8536 57.8866L35.2358 54.7038C34.3917 53.6825 33.0359 53.6996 32.7971 54.7293L30.9042 62.8056L23.6734 53.8698C23.085 53.1379 22.1215 52.9422 21.5331 53.4187L19.4184 55.1633C18.8386 55.6399 18.8471 56.6101 19.4184 57.342L39.0047 81.8601C39.6272 82.6345 40.6504 82.9154 41.2985 82.4728L43.6604 80.8644C44.317 80.4219 44.334 79.4091 43.6945 78.6262L35.4661 68.4479L44.2317 68.6777C45.3658 68.7117 45.6983 67.4181 44.8201 66.3544L42.1426 63.1034L44.4278 61.4099L48.2052 58.61L50.968 61.9035C51.8633 62.9758 53.347 62.9928 53.6283 61.929L55.905 53.3506L64.9776 63.9715C65.6769 64.7885 66.8621 65.0438 67.6125 64.5332L70.3752 62.6524C71.1426 62.1333 71.1852 61.0269 70.469 60.1929L47.8983 34.1259C47.2332 33.36 46.1332 33.1898 45.4425 33.76Z" fill="url(#paint7_linear_7027_5630)"/>
<path d="M45.4092 33.8444L42.9449 35.8699C42.2713 36.423 42.2542 37.4868 42.9108 38.2528L50.8579 47.5545L41.6573 47.8098C40.5318 47.8353 40.2078 49.1714 41.069 50.2012L43.7635 53.4181L40.0628 56.252L37.8202 57.9711L35.2025 54.7882C34.3583 53.767 33.0025 53.784 32.7638 54.8138L30.8708 62.89L23.64 53.9542C23.0517 53.2223 22.0881 53.0266 21.4998 53.5032L19.3851 55.2478C18.8053 55.7244 18.8138 56.6946 19.3851 57.4264L38.9714 81.9446C39.5938 82.719 40.6171 82.9998 41.2651 82.5573L43.6271 80.9489C44.2836 80.5063 44.3007 79.4936 43.6612 78.7106L35.4327 68.5324L44.1984 68.7621C45.3324 68.7962 45.665 67.5026 44.7867 66.4388L42.1093 63.1879L44.3945 61.4944L48.1719 58.6945L50.9346 61.9879C51.8299 63.0602 53.3136 63.0773 53.595 62.0135L55.8717 53.4351L64.9443 64.056C65.6435 64.8729 66.8288 65.1282 67.5791 64.6176L70.3418 62.7369C71.1093 62.2177 71.1519 61.1114 70.4356 60.2774L47.8649 34.2104C47.1998 33.4445 46.0999 33.2743 45.4092 33.8444Z" fill="url(#paint8_linear_7027_5630)"/>
<path d="M45.3842 33.9214L42.9199 35.9468C42.2463 36.4999 42.2292 37.5637 42.8858 38.3297L50.8328 47.6314L41.6323 47.8867C40.5068 47.9123 40.1827 49.2484 41.044 50.2781L43.7385 53.495L40.0378 56.3289L37.7952 58.048L35.1775 54.8652C34.3333 53.8439 32.9775 53.8609 32.7388 54.8907L30.8458 62.9669L23.615 54.0311C23.0266 53.2992 22.0631 53.1035 21.4747 53.5801L19.3601 55.3247C18.7802 55.8013 18.7888 56.7715 19.3601 57.5033L38.9463 82.0215C39.5688 82.7959 40.592 83.0768 41.2401 82.6342L43.602 81.0258C44.2586 80.5832 44.2757 79.5705 43.6361 78.7876L35.4077 68.6093L44.1733 68.8391C45.3074 68.8731 45.64 67.5795 44.7617 66.5157L42.0842 63.2648L44.3694 61.5713L48.1469 58.7714L50.9096 62.0648C51.8049 63.1371 53.2886 63.1542 53.57 62.0904L55.8467 53.512L64.9193 64.1329C65.6185 64.9499 66.8037 65.2052 67.5541 64.6945L70.3168 62.8138C71.0842 62.2946 71.1268 61.1883 70.4106 60.3543L47.8399 34.2873C47.1748 33.5214 46.0748 33.3512 45.3842 33.9214Z" fill="url(#paint9_linear_7027_5630)"/>
<path d="M45.3592 33.9975L42.8949 36.023C42.2213 36.5761 42.2042 37.6399 42.8608 38.4058L50.8078 47.7076L41.6073 47.9629C40.4818 47.9884 40.1578 49.3245 41.019 50.3543L43.7135 53.5712L40.0128 56.4051L37.7702 58.1242L35.1525 54.9413C34.3083 53.9201 32.9525 53.9371 32.7138 54.9669L30.8208 63.0431L23.59 54.1073C23.0016 53.3754 22.0381 53.1797 21.4497 53.6563L19.3351 55.4009C18.7552 55.8775 18.7638 56.8476 19.3351 57.5795L38.9213 82.0976C39.5438 82.8721 40.567 83.1529 41.2151 82.7104L43.577 81.102C44.2336 80.6594 44.2507 79.6467 43.6111 78.8637L35.3827 68.6854L44.1483 68.9152C45.2824 68.9493 45.615 67.6557 44.7367 66.5919L42.0593 63.341L44.3445 61.6474L48.1219 58.8475L50.8846 62.141C51.7799 63.2133 53.2636 63.2304 53.545 62.1666L55.8217 53.5882L64.8943 64.209C65.5935 65.026 66.7787 65.2813 67.5291 64.7707L70.2918 62.8899C71.0592 62.3708 71.1019 61.2645 70.3856 60.4305L47.8149 34.3635C47.1498 33.5975 46.0498 33.4273 45.3592 33.9975Z" fill="url(#paint10_linear_7027_5630)"/>
<path d="M45.3216 34.083L42.8573 36.1084C42.1837 36.6616 42.1667 37.7254 42.8232 38.4913L50.7703 47.793L41.5698 48.0483C40.4442 48.0739 40.1202 49.41 40.9814 50.4397L43.6759 53.6566L39.9753 56.4905L37.7327 58.2096L35.1149 55.0268C34.2708 54.0055 32.915 54.0226 32.6762 55.0523L30.7833 63.1286L23.5525 54.1928C22.9641 53.4609 22.0005 53.2651 21.4122 53.7417L19.2975 55.4863C18.7177 55.9629 18.7262 56.9331 19.2975 57.665L38.8838 82.1831C39.5063 82.9575 40.5295 83.2384 41.1775 82.7958L43.5395 81.1874C44.1961 80.7448 44.2131 79.7321 43.5736 78.9492L35.3451 68.7709L44.1108 69.0007C45.2449 69.0347 45.5774 67.7411 44.6991 66.6774L42.0217 63.4264L44.3069 61.7329L48.0843 58.933L50.847 62.2265C51.7424 63.2988 53.226 63.3158 53.5074 62.252L55.7841 53.6736L64.8568 64.2945C65.556 65.1115 66.7412 65.3668 67.4916 64.8561L70.2543 62.9754C71.0217 62.4562 71.0643 61.3499 70.3481 60.5159L47.7774 34.4489C47.1123 33.683 46.0123 33.5128 45.3216 34.083Z" fill="url(#paint11_linear_7027_5630)"/>
<path d="M45.2966 34.1591L42.8323 36.1846C42.1587 36.7378 42.1416 37.8015 42.7982 38.5675L50.7453 47.8692L41.5448 48.1245C40.4192 48.1501 40.0952 49.4862 40.9564 50.5159L43.6509 53.7328L39.9502 56.5667L37.7077 58.2858L35.0899 55.1029C34.2457 54.0817 32.89 54.0987 32.6512 55.1285L30.7582 63.2048L23.5274 54.269C22.9391 53.5371 21.9755 53.3413 21.3872 53.8179L19.2725 55.5625C18.6927 56.0391 18.7012 57.0093 19.2725 57.7411L38.8588 82.2593C39.4813 83.0337 40.5045 83.3145 41.1525 82.872L43.5145 81.2636C44.171 80.821 44.1881 79.8083 43.5486 79.0254L35.3201 68.8471L44.0858 69.0768C45.2198 69.1109 45.5524 67.8173 44.6741 66.7535L41.9967 63.5026L44.2819 61.8091L48.0593 59.0092L50.822 62.3026C51.7173 63.3749 53.201 63.392 53.4824 62.3282L55.7591 53.7498L64.8317 64.3707C65.5309 65.1876 66.7162 65.443 67.4665 64.9323L70.2292 63.0515C70.9967 62.5324 71.0393 61.4261 70.3231 60.5921L47.7523 34.5251C47.0872 33.7592 45.9873 33.589 45.2966 34.1591Z" fill="url(#paint12_linear_7027_5630)"/>
<path d="M45.2632 34.2446L42.799 36.27C42.1253 36.8232 42.1083 37.887 42.7649 38.6529L50.7119 47.9547L41.5114 48.21C40.3859 48.2355 40.0618 49.5716 40.9231 50.6014L43.6176 53.8182L39.9169 56.6522L37.6743 58.3712L35.0565 55.1884C34.2124 54.1672 32.8566 54.1842 32.6179 55.2139L30.7249 63.2902L23.4941 54.3544C22.9057 53.6225 21.9422 53.4268 21.3538 53.9033L19.2391 55.648C18.6593 56.1245 18.6678 57.0947 19.2391 57.8266L38.8254 82.3447C39.4479 83.1192 40.4711 83.4 41.1192 82.9575L43.4811 81.349C44.1377 80.9065 44.1547 79.8938 43.5152 79.1108L35.2868 68.9325L44.0524 69.1623C45.1865 69.1964 45.5191 67.9028 44.6408 66.839L41.9633 63.5881L44.2485 61.8945L48.026 59.0946L50.7887 62.3881C51.684 63.4604 53.1677 63.4774 53.4491 62.4136L55.7258 53.8353L64.7984 64.4561C65.4976 65.2731 66.6828 65.5284 67.4332 65.0178L70.1959 63.137C70.9633 62.6179 71.006 61.5116 70.2897 60.6776L47.719 34.6105C47.0539 33.8446 45.9539 33.6744 45.2632 34.2446Z" fill="url(#paint13_linear_7027_5630)"/>
<path d="M45.2382 34.3208L42.774 36.3462C42.1004 36.8994 42.0833 37.9632 42.7399 38.7291L50.6869 48.0308L41.4864 48.2861C40.3609 48.3117 40.0368 49.6478 40.8981 50.6775L43.5926 53.8944L39.8919 56.7283L37.6493 58.4474L35.0315 55.2646C34.1874 54.2433 32.8316 54.2603 32.5929 55.2901L30.6999 63.3663L23.4691 54.4305C22.8807 53.6987 21.9172 53.5029 21.3288 53.9795L19.2142 55.7241C18.6343 56.2007 18.6428 57.1709 19.2142 57.9028L38.8004 82.4209C39.4229 83.1953 40.4461 83.4762 41.0942 83.0336L43.4561 81.4252C44.1127 80.9826 44.1297 79.9699 43.4902 79.187L35.2618 69.0087L44.0274 69.2385C45.1615 69.2725 45.4941 67.9789 44.6158 66.9151L41.9383 63.6642L44.2235 61.9707L48.001 59.1708L50.7637 62.4643C51.659 63.5366 53.1427 63.5536 53.4241 62.4898L55.7008 53.9114L64.7734 64.5323C65.4726 65.3493 66.6578 65.6046 67.4082 65.0939L70.1709 63.2132C70.9383 62.694 70.981 61.5877 70.2647 60.7537L47.694 34.6867C47.0289 33.9208 45.9289 33.7506 45.2382 34.3208Z" fill="url(#paint14_linear_7027_5630)"/>
<path d="M45.2049 34.3979L42.7406 36.4234C42.067 36.9765 42.0499 38.0403 42.7065 38.8062L50.6536 48.108L41.453 48.3633C40.3275 48.3888 40.0035 49.7249 40.8647 50.7547L43.5592 53.9716L39.8585 56.8055L37.6159 58.5246L34.9982 55.3417C34.154 54.3205 32.7983 54.3375 32.5595 55.3672L30.6665 63.4435L23.4357 54.5077C22.8474 53.7758 21.8838 53.5801 21.2955 54.0567L19.1808 55.8013C18.601 56.2779 18.6095 57.248 19.1808 57.9799L38.7671 82.498C39.3895 83.2725 40.4128 83.5533 41.0608 83.1108L43.4228 81.5023C44.0793 81.0598 44.0964 80.0471 43.4569 79.2641L35.2284 69.0858L43.9941 69.3156C45.1281 69.3497 45.4607 68.0561 44.5824 66.9923L41.905 63.7414L44.1902 62.0478L47.9676 59.2479L50.7303 62.5414C51.6256 63.6137 53.1093 63.6307 53.3907 62.567L55.6674 53.9886L64.74 64.6094C65.4392 65.4264 66.6244 65.6817 67.3748 65.1711L70.1375 63.2903C70.905 62.7712 70.9476 61.6649 70.2313 60.8309L47.6606 34.7639C46.9955 33.9979 45.8956 33.8277 45.2049 34.3979Z" fill="url(#paint15_linear_7027_5630)"/>
<path d="M45.1799 34.4834L42.7156 36.5088C42.042 37.062 42.0249 38.1258 42.6815 38.8917L50.6286 48.1934L41.428 48.4487C40.3025 48.4742 39.9784 49.8104 40.8397 50.8401L43.5342 54.057L39.8335 56.8909L37.5909 58.61L34.9732 55.4272C34.129 54.4059 32.7732 54.4229 32.5345 55.4527L30.6415 63.5289L23.4107 54.5931C22.8223 53.8613 21.8588 53.6655 21.2704 54.1421L19.1558 55.8867C18.5759 56.3633 18.5845 57.3335 19.1558 58.0654L38.7421 82.5835C39.3645 83.3579 40.3877 83.6388 41.0358 83.1962L43.3977 81.5878C44.0543 81.1452 44.0714 80.1325 43.4318 79.3496L35.2034 69.1713L43.969 69.4011C45.1031 69.4351 45.4357 68.1415 44.5574 67.0777L41.8799 63.8268L44.1652 62.1333L47.9426 59.3334L50.7053 62.6269C51.6006 63.6992 53.0843 63.7162 53.3657 62.6524L55.6424 54.074L64.715 64.6949C65.4142 65.5119 66.5994 65.7671 67.3498 65.2565L70.1125 63.3758C70.8799 62.8566 70.9226 61.7503 70.2063 60.9163L47.6356 34.8493C46.9705 34.0834 45.8705 33.9132 45.1799 34.4834Z" fill="url(#paint16_linear_7027_5630)"/>
<path d="M45.1423 34.5593L42.6781 36.5847C42.0044 37.1379 41.9874 38.2017 42.644 38.9676L50.591 48.2693L41.3905 48.5247C40.2649 48.5502 39.9409 49.8863 40.8021 50.9161L43.4966 54.1329L39.796 56.9669L37.5534 58.6859L34.9356 55.5031C34.0915 54.4819 32.7357 54.4989 32.4969 55.5286L30.604 63.6049L23.3732 54.6691C22.7848 53.9372 21.8213 53.7415 21.2329 54.218L19.1182 55.9627C18.5384 56.4392 18.5469 57.4094 19.1182 58.1413L38.7045 82.6594C39.327 83.4339 40.3502 83.7147 40.9983 83.2722L43.3602 81.6637C44.0168 81.2212 44.0338 80.2085 43.3943 79.4255L35.1659 69.2472L43.9315 69.477C45.0656 69.511 45.3981 68.2175 44.5199 67.1537L41.8424 63.9027L44.1276 62.2092L47.905 59.4093L50.6678 62.7028C51.5631 63.7751 53.0468 63.7921 53.3282 62.7283L55.6048 54.15L64.6774 64.7708C65.3766 65.5878 66.5619 65.8431 67.3123 65.3325L70.075 63.4517C70.8424 62.9326 70.885 61.8262 70.1688 60.9922L47.5981 34.9252C46.933 34.1593 45.833 33.9891 45.1423 34.5593Z" fill="url(#paint17_linear_7027_5630)"/>
<path d="M45.1173 34.6447L42.6531 36.6702C41.9794 37.2234 41.9624 38.2872 42.6189 39.0531L50.566 48.3548L41.3655 48.6101C40.24 48.6356 39.9159 49.9718 40.7771 51.0015L43.4716 54.2184L39.771 57.0523L37.5284 58.7714L34.9106 55.5886C34.0665 54.5673 32.7107 54.5843 32.4719 55.6141L30.579 63.6903L23.3482 54.7545C22.7598 54.0227 21.7963 53.8269 21.2079 54.3035L19.0932 56.0481C18.5134 56.5247 18.5219 57.4949 19.0932 58.2268L38.6795 82.7449C39.302 83.5193 40.3252 83.8002 40.9733 83.3576L43.3352 81.7492C43.9918 81.3066 44.0088 80.2939 43.3693 79.511L35.1409 69.3327L43.9065 69.5624C45.0406 69.5965 45.3731 68.3029 44.4949 67.2391L41.8174 63.9882L44.1026 62.2947L47.8801 59.4948L50.6428 62.7883C51.5381 63.8605 53.0218 63.8776 53.3032 62.8138L55.5798 54.2354L64.6524 64.8562C65.3517 65.6732 66.5369 65.9285 67.2873 65.4179L70.05 63.5372C70.8174 63.018 70.86 61.9117 70.1438 61.0777L47.5731 35.0107C46.908 34.2448 45.808 34.0745 45.1173 34.6447Z" fill="url(#paint18_linear_7027_5630)"/>
<path d="M45.0923 34.7209L42.628 36.7463C41.9544 37.2995 41.9374 38.3633 42.5939 39.1292L50.541 48.431L41.3405 48.6863C40.2149 48.7118 39.8909 50.0479 40.7521 51.0777L43.4466 54.2946L39.7459 57.1285L37.5034 58.8475L34.8856 55.6647C34.0415 54.6435 32.6857 54.6605 32.4469 55.6902L30.5539 63.7665L23.3231 54.8307C22.7348 54.0988 21.7712 53.9031 21.1829 54.3796L19.0682 56.1243C18.4884 56.6008 18.4969 57.571 19.0682 58.3029L38.6545 82.821C39.277 83.5955 40.3002 83.8763 40.9482 83.4338L43.3102 81.8253C43.9668 81.3828 43.9838 80.3701 43.3443 79.5871L35.1158 69.4088L43.8815 69.6386C45.0156 69.6727 45.3481 68.3791 44.4699 67.3153L41.7924 64.0644L44.0776 62.3708L47.855 59.5709L50.6177 62.8644C51.5131 63.9367 52.9967 63.9537 53.2781 62.8899L55.5548 54.3116L64.6274 64.9324C65.3266 65.7494 66.5119 66.0047 67.2622 65.4941L70.025 63.6133C70.7924 63.0942 70.835 61.9879 70.1187 61.1539L47.5481 35.0868C46.883 34.3209 45.783 34.1507 45.0923 34.7209Z" fill="url(#paint19_linear_7027_5630)"/>
<path d="M45.0589 34.7981L42.5947 36.8235C41.921 37.3767 41.904 38.4405 42.5606 39.2064L50.5076 48.5081L41.3071 48.7634C40.1816 48.789 39.8575 50.1251 40.7188 51.1548L43.4133 54.3717L39.7126 57.2056L37.47 58.9247L34.8523 55.7419C34.0081 54.7206 32.6523 54.7376 32.4136 55.7674L30.5206 63.8437L23.2898 54.9079C22.7014 54.176 21.7379 53.9802 21.1495 54.4568L19.0349 56.2014C18.455 56.678 18.4636 57.6482 19.0349 58.3801L38.6211 82.8982C39.2436 83.6726 40.2668 83.9535 40.9149 83.5109L43.2768 81.9025C43.9334 81.4599 43.9505 80.4472 43.3109 79.6643L35.0825 69.486L43.8481 69.7158C44.9822 69.7498 45.3148 68.4562 44.4365 67.3924L41.759 64.1415L44.0443 62.448L47.8217 59.6481L50.5844 62.9416C51.4797 64.0139 52.9634 64.0309 53.2448 62.9671L55.5215 54.3887L64.5941 65.0096C65.2933 65.8266 66.4785 66.0819 67.2289 65.5713L69.9916 63.6905C70.759 63.1713 70.8017 62.065 70.0854 61.231L47.5147 35.164C46.8496 34.3981 45.7496 34.2279 45.0589 34.7981Z" fill="url(#paint20_linear_7027_5630)"/>
<path d="M45.0339 34.8825L42.5696 36.908C41.896 37.4611 41.879 38.5249 42.5355 39.2909L50.4826 48.5926L41.2821 48.8479C40.1565 48.8734 39.8325 50.2095 40.6937 51.2393L43.3882 54.4562L39.6876 57.2901L37.445 59.0092L34.8272 55.8264C33.9831 54.8051 32.6273 54.8221 32.3885 55.8519L30.4956 63.9281L23.2647 54.9923C22.6764 54.2604 21.7129 54.0647 21.1245 54.5413L19.0098 56.2859C18.43 56.7625 18.4385 57.7327 19.0098 58.4645L38.5961 82.9827C39.2186 83.7571 40.2418 84.0379 40.8898 83.5954L43.2518 81.987C43.9084 81.5444 43.9254 80.5317 43.2859 79.7487L35.0575 69.5705L43.8231 69.8002C44.9572 69.8343 45.2897 68.5407 44.4115 67.4769L41.734 64.226L44.0192 62.5325L47.7966 59.7326L50.5594 63.026C51.4547 64.0983 52.9384 64.1154 53.2197 63.0516L55.4964 54.4732L64.5691 65.094C65.2683 65.911 66.4535 66.1663 67.2039 65.6557L69.9666 63.775C70.734 63.2558 70.7766 62.1495 70.0604 61.3155L47.4897 35.2485C46.8246 34.4826 45.7246 34.3123 45.0339 34.8825Z" fill="url(#paint21_linear_7027_5630)"/>
<path d="M45.0006 34.9597L42.5363 36.9851C41.8627 37.5383 41.8456 38.6021 42.5022 39.368L50.4493 48.6697L41.2487 48.925C40.1232 48.9506 39.7992 50.2867 40.6604 51.3165L43.3549 54.5333L39.6542 57.3673L37.4116 59.0863L34.7939 55.9035C33.9497 54.8822 32.5939 54.8993 32.3552 55.929L30.4622 64.0053L23.2314 55.0695C22.6431 54.3376 21.6795 54.1418 21.0911 54.6184L18.9765 56.363C18.3967 56.8396 18.4052 57.8098 18.9765 58.5417L38.5628 83.0598C39.1852 83.8342 40.2085 84.1151 40.8565 83.6725L43.2185 82.0641C43.875 81.6216 43.8921 80.6089 43.2526 79.8259L35.0241 69.6476L43.7898 69.8774C44.9238 69.9114 45.2564 68.6179 44.3781 67.5541L41.7007 64.3031L43.9859 62.6096L47.7633 59.8097L50.526 63.1032C51.4213 64.1755 52.905 64.1925 53.1864 63.1287L55.4631 54.5503L64.5357 65.1712C65.2349 65.9882 66.4201 66.2435 67.1705 65.7329L69.9332 63.8521C70.7006 63.333 70.7433 62.2266 70.027 61.3926L47.4563 35.3256C46.7912 34.5597 45.6913 34.3895 45.0006 34.9597Z" fill="url(#paint22_linear_7027_5630)"/>
<path d="M44.9756 35.0441L42.5113 37.0696C41.8377 37.6228 41.8206 38.6866 42.4772 39.4525L50.4243 48.7542L41.2237 49.0095C40.0982 49.0351 39.7742 50.3712 40.6354 51.4009L43.3299 54.6178L39.6292 57.4517L37.3866 59.1708L34.7689 55.988C33.9247 54.9667 32.5689 54.9838 32.3302 56.0135L30.4372 64.0898L23.2064 55.154C22.6181 54.4221 21.6545 54.2263 21.0662 54.7029L18.9515 56.4475C18.3717 56.9241 18.3802 57.8943 18.9515 58.6262L38.5378 83.1443C39.1602 83.9187 40.1835 84.1996 40.8315 83.757L43.1935 82.1486C43.85 81.706 43.8671 80.6933 43.2276 79.9104L34.9991 69.7321L43.7648 69.9618C44.8988 69.9959 45.2314 68.7023 44.3531 67.6386L41.6757 64.3876L43.9609 62.6941L47.7383 59.8942L50.501 63.1877C51.3963 64.26 52.88 64.277 53.1614 63.2132L55.4381 54.6348L64.5107 65.2557C65.2099 66.0726 66.3952 66.328 67.1455 65.8173L69.9082 63.9366C70.6756 63.4174 70.7183 62.3111 70.002 61.4771L47.4313 35.4101C46.7662 34.6442 45.6663 34.474 44.9756 35.0441Z" fill="url(#paint23_linear_7027_5630)"/>
<path d="M44.938 35.1211L42.4738 37.1465C41.8001 37.6997 41.7831 38.7635 42.4397 39.5294L50.3867 48.8311L41.1862 49.0864C40.0607 49.1119 39.7366 50.4481 40.5978 51.4778L43.2923 54.6947L39.5917 57.5286L37.3491 59.2477L34.7313 56.0649C33.8872 55.0436 32.5314 55.0606 32.2927 56.0904L30.3997 64.1666L23.1689 55.2308C22.5805 54.499 21.617 54.3032 21.0286 54.7798L18.9139 56.5244C18.3341 57.001 18.3426 57.9712 18.9139 58.7031L38.5002 83.2212C39.1227 83.9956 40.1459 84.2765 40.794 83.8339L43.1559 82.2255C43.8125 81.7829 43.8295 80.7702 43.19 79.9873L34.9616 69.809L43.7272 70.0388C44.8613 70.0728 45.1938 68.7792 44.3156 67.7154L41.6381 64.4645L43.9233 62.771L47.7008 59.9711L50.4635 63.2646C51.3588 64.3368 52.8425 64.3539 53.1239 63.2901L55.4005 54.7117L64.4732 65.3326C65.1724 66.1496 66.3576 66.4048 67.108 65.8942L69.8707 64.0135C70.6381 63.4943 70.6807 62.388 69.9645 61.554L47.3938 35.487C46.7287 34.7211 45.6287 34.5509 44.938 35.1211Z" fill="url(#paint24_linear_7027_5630)"/>
<path d="M44.913 35.1972L42.4487 37.2227C41.7751 37.7758 41.7581 38.8396 42.4146 39.6056L50.3617 48.9073L41.1612 49.1626C40.0356 49.1881 39.7116 50.5243 40.5728 51.554L43.2673 54.7709L39.5667 57.6048L37.3241 59.3239L34.7063 56.141C33.8621 55.1198 32.5064 55.1368 32.2676 56.1666L30.3747 64.2428L23.1438 55.307C22.5555 54.5751 21.5919 54.3794 21.0036 54.856L18.8889 56.6006C18.3091 57.0772 18.3176 58.0473 18.8889 58.7792L38.4752 83.2974C39.0977 84.0718 40.1209 84.3526 40.7689 83.9101L43.1309 82.3016C43.7875 81.8591 43.8045 80.8464 43.165 80.0635L34.9365 69.8851L43.7022 70.1149C44.8363 70.149 45.1688 68.8554 44.2905 67.7916L41.6131 64.5407L43.8983 62.8471L47.6757 60.0472L50.4384 63.3407C51.3338 64.413 52.8174 64.43 53.0988 63.3663L55.3755 54.7879L64.4481 65.4087C65.1473 66.2257 66.3326 66.481 67.0829 65.9704L69.8456 64.0896C70.6131 63.5705 70.6557 62.4642 69.9395 61.6302L47.3688 35.5632C46.7037 34.7972 45.6037 34.627 44.913 35.1972Z" fill="url(#paint25_linear_7027_5630)"/>
<path d="M44.8797 35.2827L42.4154 37.3081C41.7418 37.8613 41.7247 38.9251 42.3813 39.691L50.3284 48.9928L41.1278 49.2481C40.0023 49.2736 39.6783 50.6097 40.5395 51.6394L43.234 54.8563L39.5333 57.6903L37.2907 59.4093L34.673 56.2265C33.8288 55.2053 32.473 55.2223 32.2343 56.252L30.3413 64.3283L23.1105 55.3925C22.5221 54.6606 21.5586 54.4649 20.9702 54.9414L18.8556 56.6861C18.2757 57.1626 18.2843 58.1328 18.8556 58.8647L38.4419 83.3828C39.0643 84.1573 40.0875 84.4381 40.7356 83.9956L43.0975 82.3871C43.7541 81.9446 43.7712 80.9318 43.1316 80.1489L34.9032 69.9706L43.6688 70.2004C44.8029 70.2344 45.1355 68.9409 44.2572 67.8771L41.5798 64.6261L43.865 62.9326L47.6424 60.1327L50.4051 63.4262C51.3004 64.4985 52.7841 64.5155 53.0655 63.4517L55.3422 54.8734L64.4148 65.4942C65.114 66.3112 66.2992 66.5665 67.0496 66.0559L69.8123 64.1751C70.5797 63.656 70.6224 62.5496 69.9061 61.7156L47.3354 35.6486C46.6703 34.8827 45.5703 34.7125 44.8797 35.2827Z" fill="url(#paint26_linear_7027_5630)"/>
<path d="M44.8547 35.3598L42.3904 37.3853C41.7168 37.9384 41.6997 39.0022 42.3563 39.7681L50.3034 49.0699L41.1028 49.3252C39.9773 49.3507 39.6533 50.6869 40.5145 51.7166L43.209 54.9335L39.5083 57.7674L37.2657 59.4865L34.648 56.3036C33.8038 55.2824 32.448 55.2994 32.2093 56.3292L30.3163 64.4054L23.0855 55.4696C22.4971 54.7377 21.5336 54.542 20.9452 55.0186L18.8306 56.7632C18.2507 57.2398 18.2593 58.2099 18.8306 58.9418L38.4169 83.46C39.0393 84.2344 40.0626 84.5152 40.7106 84.0727L43.0726 82.4642C43.7291 82.0217 43.7462 81.009 43.1067 80.2261L34.8782 70.0477L43.6439 70.2775C44.7779 70.3116 45.1105 69.018 44.2322 67.9542L41.5548 64.7033L43.84 63.0097L47.6174 60.2098L50.3801 63.5033C51.2754 64.5756 52.7591 64.5926 53.0405 63.5289L55.3172 54.9505L64.3898 65.5713C65.089 66.3883 66.2742 66.6436 67.0246 66.133L69.7873 64.2522C70.5547 63.7331 70.5974 62.6268 69.8811 61.7928L47.3104 35.7258C46.6453 34.9598 45.5453 34.7896 44.8547 35.3598Z" fill="url(#paint27_linear_7027_5630)"/>
<path d="M44.8213 35.436L42.357 37.4615C41.6834 38.0146 41.6664 39.0784 42.3229 39.8443L50.27 49.1461L41.0695 49.4014C39.9439 49.4269 39.6199 50.763 40.4811 51.7928L43.1756 55.0097L39.4749 57.8436L37.2324 59.5626L34.6146 56.3798C33.7704 55.3586 32.4147 55.3756 32.1759 56.4053L30.283 64.4816L23.0521 55.5458C22.4638 54.8139 21.5002 54.6182 20.9119 55.0947L18.7972 56.8394C18.2174 57.3159 18.2259 58.2861 18.7972 59.018L38.3835 83.5361C39.006 84.3106 40.0292 84.5914 40.6772 84.1489L43.0392 82.5404C43.6958 82.0979 43.7128 81.0852 43.0733 80.3022L34.8448 70.1239L43.6105 70.3537C44.7446 70.3877 45.0771 69.0942 44.1988 68.0304L41.5214 64.7794L43.8066 63.0859L47.584 60.286L50.3467 63.5795C51.2421 64.6518 52.7257 64.6688 53.0071 63.605L55.2838 55.0267L64.3564 65.6475C65.0557 66.4645 66.2409 66.7198 66.9913 66.2092L69.754 64.3284C70.5214 63.8093 70.564 62.703 69.8477 61.8689L47.2771 35.8019C46.612 35.036 45.512 34.8658 44.8213 35.436Z" fill="url(#paint28_linear_7027_5630)"/>
<path d="M44.7963 35.5214L42.332 37.5469C41.6584 38.1001 41.6413 39.1639 42.2979 39.9298L50.245 49.2315L41.0444 49.4868C39.9189 49.5124 39.5949 50.8485 40.4561 51.8782L43.1506 55.0951L39.4499 57.929L37.2073 59.6481L34.5896 56.4653C33.7454 55.444 32.3896 55.4611 32.1509 56.4908L30.2579 64.567L23.0271 55.6312C22.4388 54.8994 21.4752 54.7036 20.8869 55.1802L18.7722 56.9248C18.1924 57.4014 18.2009 58.3716 18.7722 59.1035L38.3585 83.6216C38.9809 84.396 40.0042 84.6769 40.6522 84.2343L43.0142 82.6259C43.6707 82.1833 43.6878 81.1706 43.0483 80.3877L34.8198 70.2094L43.5855 70.4392C44.7195 70.4732 45.0521 69.1796 44.1738 68.1158L41.4964 64.8649L43.7816 63.1714L47.559 60.3715L50.3217 63.665C51.217 64.7373 52.7007 64.7543 52.9821 63.6905L55.2588 55.1121L64.3314 65.733C65.0306 66.5499 66.2159 66.8053 66.9662 66.2946L69.7289 64.4139C70.4964 63.8947 70.539 62.7884 69.8227 61.9544L47.252 35.8874C46.5869 35.1215 45.487 34.9513 44.7963 35.5214Z" fill="url(#paint29_linear_7027_5630)"/>
<path d="M44.7671 35.5976L42.3028 37.623C41.6292 38.1762 41.6122 39.24 42.2687 40.0059L50.2158 49.3077L41.0153 49.563C39.8897 49.5885 39.5657 50.9246 40.4269 51.9544L43.1214 55.1713L39.4207 58.0052L37.1782 59.7243L34.5604 56.5414C33.7163 55.5202 32.3605 55.5372 32.1217 56.5669L30.2288 64.6432L22.9979 55.7074C22.4096 54.9755 21.4461 54.7798 20.8577 55.2564L18.743 57.001C18.1632 57.4776 18.1717 58.4477 18.743 59.1796L38.3293 83.6977C38.9518 84.4722 39.975 84.753 40.623 84.3105L42.985 82.702C43.6416 82.2595 43.6586 81.2468 43.0191 80.4638L34.7906 70.2855L43.5563 70.5153C44.6904 70.5494 45.0229 69.2558 44.1447 68.192L41.4672 64.9411L43.7524 63.2475L47.5298 60.4476L50.2925 63.7411C51.1879 64.8134 52.6716 64.8304 52.9529 63.7666L55.2296 55.1883L64.3022 65.8091C65.0014 66.6261 66.1867 66.8814 66.9371 66.3708L69.6998 64.49C70.4672 63.9709 70.5098 62.8646 69.7936 62.0306L47.2229 35.9636C46.5578 35.1976 45.4578 35.0274 44.7671 35.5976Z" fill="url(#paint30_linear_7027_5630)"/>
<path d="M44.7338 35.6831L42.2695 37.7085C41.5959 38.2617 41.5788 39.3255 42.2354 40.0914L50.1825 49.3931L40.9819 49.6484C39.8564 49.674 39.5324 51.0101 40.3936 52.0398L43.0881 55.2567L39.3874 58.0907L37.1448 59.8097L34.5271 56.6269C33.6829 55.6057 32.3271 55.6227 32.0884 56.6524L30.1954 64.7287L22.9646 55.7929C22.3762 55.061 21.4127 54.8652 20.8243 55.3418L18.7097 57.0864C18.1298 57.563 18.1384 58.5332 18.7097 59.2651L38.296 83.7832C38.9184 84.5576 39.9416 84.8385 40.5897 84.396L42.9516 82.7875C43.6082 82.345 43.6253 81.3322 42.9857 80.5493L34.7573 70.371L43.5229 70.6008C44.657 70.6348 44.9896 69.3413 44.1113 68.2775L41.4338 65.0265L43.7191 63.333L47.4965 60.5331L50.2592 63.8266C51.1545 64.8989 52.6382 64.9159 52.9196 63.8521L55.1963 55.2738L64.2689 65.8946C64.9681 66.7116 66.1533 66.9669 66.9037 66.4563L69.6664 64.5755C70.4338 64.0564 70.4765 62.95 69.7602 62.116L47.1895 36.049C46.5244 35.2831 45.4244 35.1129 44.7338 35.6831Z" fill="url(#paint31_linear_7027_5630)"/>
<path d="M44.7087 35.759L42.2445 37.7844C41.5708 38.3376 41.5538 39.4014 42.2103 40.1673L50.1574 49.4691L40.9569 49.7244C39.8313 49.7499 39.5073 51.086 40.3685 52.1157L43.063 55.3327L39.3624 58.1666L37.1198 59.8856L34.502 56.7028C33.6579 55.6816 32.3021 55.6986 32.0633 56.7283L30.1704 64.8046L22.9396 55.8688C22.3512 55.1369 21.3877 54.9412 20.7993 55.4177L18.6846 57.1624C18.1048 57.6389 18.1133 58.6091 18.6846 59.341L38.2709 83.8591C38.8934 84.6336 39.9166 84.9144 40.5647 84.4719L42.9266 82.8634C43.5832 82.4209 43.6002 81.4081 42.9607 80.6252L34.7323 70.4469L43.4979 70.6767C44.632 70.7107 44.9645 69.4172 44.0863 68.3534L41.4088 65.1024L43.694 63.4089L47.4714 60.609L50.2342 63.9025C51.1295 64.9748 52.6132 64.9918 52.8946 63.928L55.1712 55.3497L64.2439 65.9705C64.9431 66.7875 66.1283 67.0428 66.8787 66.5322L69.6414 64.6514C70.4088 64.1323 70.4515 63.0259 69.7352 62.1919L47.1645 36.1249C46.4994 35.359 45.3994 35.1888 44.7087 35.759Z" fill="url(#paint32_linear_7027_5630)"/>
<path d="M44.6754 35.8361L42.2111 37.8616C41.5375 38.4147 41.5204 39.4785 42.177 40.2445L50.1241 49.5462L40.9235 49.8015C39.798 49.8271 39.474 51.1632 40.3352 52.1929L43.0297 55.4098L39.329 58.2437L37.0864 59.9628L34.4687 56.7799C33.6245 55.7587 32.2687 55.7757 32.03 56.8055L30.137 64.8817L22.9062 55.9459C22.3178 55.214 21.3543 55.0183 20.766 55.4949L18.6513 57.2395C18.0715 57.7161 18.08 58.6863 18.6513 59.4181L38.2376 83.9363C38.86 84.7107 39.8833 84.9915 40.5313 84.549L42.8932 82.9406C43.5498 82.498 43.5669 81.4853 42.9274 80.7024L34.6989 70.5241L43.4645 70.7538C44.5986 70.7879 44.9312 69.4943 44.0529 68.4305L41.3755 65.1796L43.6607 63.4861L47.4381 60.6862L50.2008 63.9796C51.0961 65.0519 52.5798 65.069 52.8612 64.0052L55.1379 55.4268L64.2105 66.0477C64.9097 66.8646 66.0949 67.12 66.8453 66.6093L69.608 64.7286C70.3754 64.2094 70.4181 63.1031 69.7018 62.2691L47.1311 36.2021C46.466 35.4362 45.366 35.266 44.6754 35.8361Z" fill="url(#paint33_linear_7027_5630)"/>
<path d="M44.6749 35.8364L42.2107 37.8618C41.537 38.415 41.52 39.4788 42.1766 40.2447L50.1236 49.5464L40.9231 49.8018C39.7976 49.8273 39.4735 51.1634 40.3348 52.1932L43.0293 55.41L39.3286 58.244L37.086 59.963L34.4682 56.7802C33.6241 55.759 32.2683 55.776 32.0295 56.8057L30.1366 64.882L22.9058 55.9462C22.3174 55.2143 21.3539 55.0186 20.7655 55.4951L18.6509 57.2398C18.071 57.7163 18.0796 58.6865 18.6509 59.4184L38.2371 83.9365C38.8596 84.7109 39.8828 84.9918 40.5309 84.5493L42.8928 82.9408C43.5494 82.4983 43.5664 81.4856 42.9269 80.7026L34.6985 70.5243L43.4641 70.7541C44.5982 70.7881 44.9308 69.4946 44.0525 68.4308L41.375 65.1798L43.6602 63.4863L47.4377 60.6864L50.2004 63.9799C51.0957 65.0522 52.5794 65.0692 52.8608 64.0054L55.1374 55.4271L64.2101 66.0479C64.9093 66.8649 66.0945 67.1202 66.8449 66.6096L69.6076 64.7288C70.375 64.2097 70.4177 63.1033 69.7014 62.2693L47.1307 36.2023C46.4656 35.4364 45.3656 35.2662 44.6749 35.8364Z" fill="url(#paint34_linear_7027_5630)"/>
<defs>
<linearGradient id="paint0_linear_7027_5630" x1="15.7261" y1="17.518" x2="95.064" y2="57.3092" gradientUnits="userSpaceOnUse">
<stop offset="0.01" stop-color="#3C4661"/>
<stop offset="0.05" stop-color="#353D57"/>
<stop offset="0.2" stop-color="#1D2237"/>
<stop offset="0.28" stop-color="#14182B"/>
<stop offset="0.58" stop-color="#1C223B"/>
<stop offset="0.76" stop-color="#141A2B"/>
<stop offset="0.82" stop-color="#151B2D"/>
<stop offset="0.86" stop-color="#1B2235"/>
<stop offset="0.89" stop-color="#252D42"/>
<stop offset="0.92" stop-color="#333C56"/>
<stop offset="0.94" stop-color="#44506E"/>
<stop offset="0.95" stop-color="#4F5C7D"/>
</linearGradient>
<linearGradient id="paint1_linear_7027_5630" x1="42.1765" y1="10.4079" x2="44.1271" y2="99.268" gradientUnits="userSpaceOnUse">
<stop stop-color="#202333"/>
<stop offset="0.36" stop-color="#12192B"/>
<stop offset="0.6" stop-color="#131A2D"/>
<stop offset="0.71" stop-color="#182034"/>
<stop offset="0.8" stop-color="#202941"/>
<stop offset="0.88" stop-color="#2B3754"/>
<stop offset="0.95" stop-color="#3A496C"/>
<stop offset="1" stop-color="#495B85"/>
</linearGradient>
<linearGradient id="paint2_linear_7027_5630" x1="30.9418" y1="96.1405" x2="56.2867" y2="22.3876" gradientUnits="userSpaceOnUse">
<stop offset="0.02" stop-color="white"/>
<stop offset="0.18" stop-color="#FFCBBE"/>
<stop offset="0.32" stop-color="#FF9D85"/>
<stop offset="0.38" stop-color="#FFAB96" stop-opacity="0.7396"/>
<stop offset="0.51" stop-color="#FFCEC2" stop-opacity="0.2401"/>
<stop offset="0.67" stop-color="white" stop-opacity="0"/>
</linearGradient>
<linearGradient id="paint3_linear_7027_5630" x1="33.2225" y1="39.6664" x2="51.9005" y2="73.1004" gradientUnits="userSpaceOnUse">
<stop offset="0.01" stop-color="#3C4661"/>
<stop offset="0.08" stop-color="#343C56"/>
<stop offset="0.2" stop-color="#1F243A"/>
<stop offset="0.25" stop-color="#14182B"/>
<stop offset="0.63" stop-color="#141A2B"/>
<stop offset="0.76" stop-color="#151B2D"/>
<stop offset="0.83" stop-color="#1B2235"/>
<stop offset="0.89" stop-color="#252D42"/>
<stop offset="0.94" stop-color="#333C56"/>
<stop offset="0.98" stop-color="#44506E"/>
<stop offset="1" stop-color="#4F5C7D"/>
</linearGradient>
<linearGradient id="paint4_linear_7027_5630" x1="38.3504" y1="82.7702" x2="51.0181" y2="37.0317" gradientUnits="userSpaceOnUse">
<stop stop-color="#FF6200"/>
<stop offset="0.5" stop-color="#DA5400"/>
<stop offset="1" stop-color="#B34600"/>
</linearGradient>
<linearGradient id="paint5_linear_7027_5630" x1="38.3213" y1="82.8464" x2="50.9804" y2="37.1164" gradientUnits="userSpaceOnUse">
<stop stop-color="#FF6709"/>
<stop offset="0.54" stop-color="#D95705"/>
<stop offset="1" stop-color="#B64903"/>
</linearGradient>
<linearGradient id="paint6_linear_7027_5630" x1="38.2879" y1="82.9318" x2="50.9555" y2="37.1934" gradientUnits="userSpaceOnUse">
<stop stop-color="#FF6D12"/>
<stop offset="0.57" stop-color="#D85A0A"/>
<stop offset="1" stop-color="#B84B05"/>
</linearGradient>
<linearGradient id="paint7_linear_7027_5630" x1="38.2629" y1="83.009" x2="50.922" y2="37.2705" gradientUnits="userSpaceOnUse">
<stop stop-color="#FF721A"/>
<stop offset="0.61" stop-color="#D65C0F"/>
<stop offset="1" stop-color="#BB4E08"/>
</linearGradient>
<linearGradient id="paint8_linear_7027_5630" x1="38.2295" y1="83.0849" x2="50.8972" y2="37.355" gradientUnits="userSpaceOnUse">
<stop stop-color="#FF7823"/>
<stop offset="0.65" stop-color="#D55F13"/>
<stop offset="1" stop-color="#BD510B"/>
</linearGradient>
<linearGradient id="paint9_linear_7027_5630" x1="38.2045" y1="83.1704" x2="50.8721" y2="37.4319" gradientUnits="userSpaceOnUse">
<stop stop-color="#FF7D2C"/>
<stop offset="0.71" stop-color="#D35F17"/>
<stop offset="1" stop-color="#C0530E"/>
</linearGradient>
<linearGradient id="paint10_linear_7027_5630" x1="38.171" y1="83.2465" x2="50.8386" y2="37.508" gradientUnits="userSpaceOnUse">
<stop stop-color="#FF8235"/>
<stop offset="0.77" stop-color="#D16018"/>
<stop offset="1" stop-color="#C35610"/>
</linearGradient>
<linearGradient id="paint11_linear_7027_5630" x1="38.142" y1="83.332" x2="50.8096" y2="37.5935" gradientUnits="userSpaceOnUse">
<stop stop-color="#FF883E"/>
<stop offset="0.83" stop-color="#CF611A"/>
<stop offset="1" stop-color="#C55913"/>
</linearGradient>
<linearGradient id="paint12_linear_7027_5630" x1="38.1084" y1="83.4082" x2="50.7761" y2="37.6697" gradientUnits="userSpaceOnUse">
<stop stop-color="#FF8D46"/>
<stop offset="0.92" stop-color="#CC5F1A"/>
<stop offset="1" stop-color="#C85B16"/>
</linearGradient>
<linearGradient id="paint13_linear_7027_5630" x1="38.0836" y1="83.4851" x2="50.7512" y2="37.7551" gradientUnits="userSpaceOnUse">
<stop stop-color="#FF934F"/>
<stop offset="0.98" stop-color="#CC5F1A"/>
<stop offset="1" stop-color="#CB5E19"/>
</linearGradient>
<linearGradient id="paint14_linear_7027_5630" x1="38.0501" y1="83.5698" x2="50.7177" y2="37.8313" gradientUnits="userSpaceOnUse">
<stop stop-color="#FF9858"/>
<stop offset="0.91" stop-color="#D16620"/>
<stop offset="1" stop-color="#CD611B"/>
</linearGradient>
<linearGradient id="paint15_linear_7027_5630" x1="38.0252" y1="83.6469" x2="50.6929" y2="37.9084" gradientUnits="userSpaceOnUse">
<stop stop-color="#FF9E61"/>
<stop offset="0.88" stop-color="#D56A26"/>
<stop offset="1" stop-color="#D0631E"/>
</linearGradient>
<linearGradient id="paint16_linear_7027_5630" x1="38.0002" y1="83.7324" x2="50.6594" y2="37.9939" gradientUnits="userSpaceOnUse">
<stop stop-color="#FFA36A"/>
<stop offset="0.85" stop-color="#D86F2C"/>
<stop offset="1" stop-color="#D26621"/>
</linearGradient>
<linearGradient id="paint17_linear_7027_5630" x1="37.9627" y1="83.8083" x2="50.6303" y2="38.0698" gradientUnits="userSpaceOnUse">
<stop stop-color="#FFA872"/>
<stop offset="0.84" stop-color="#DC7330"/>
<stop offset="1" stop-color="#D56923"/>
</linearGradient>
<linearGradient id="paint18_linear_7027_5630" x1="37.9377" y1="83.8853" x2="50.5968" y2="38.1553" gradientUnits="userSpaceOnUse">
<stop stop-color="#FFAE7B"/>
<stop offset="0.83" stop-color="#DE7634"/>
<stop offset="1" stop-color="#D86B26"/>
</linearGradient>
<linearGradient id="paint19_linear_7027_5630" x1="37.9041" y1="83.9699" x2="50.5718" y2="38.2314" gradientUnits="userSpaceOnUse">
<stop stop-color="#FFB384"/>
<stop offset="0.83" stop-color="#E07938"/>
<stop offset="1" stop-color="#DA6E29"/>
</linearGradient>
<linearGradient id="paint20_linear_7027_5630" x1="37.8793" y1="84.0471" x2="50.5469" y2="38.3086" gradientUnits="userSpaceOnUse">
<stop stop-color="#FFB98D"/>
<stop offset="0.84" stop-color="#E27C3B"/>
<stop offset="1" stop-color="#DD702C"/>
</linearGradient>
<linearGradient id="paint21_linear_7027_5630" x1="37.8457" y1="84.1231" x2="50.5134" y2="38.3931" gradientUnits="userSpaceOnUse">
<stop stop-color="#FFBE95"/>
<stop offset="0.86" stop-color="#E47E3D"/>
<stop offset="1" stop-color="#E0732E"/>
</linearGradient>
<linearGradient id="paint22_linear_7027_5630" x1="37.8209" y1="84.2087" x2="50.4886" y2="38.4702" gradientUnits="userSpaceOnUse">
<stop stop-color="#FFC39E"/>
<stop offset="0.88" stop-color="#E57F3E"/>
<stop offset="1" stop-color="#E27631"/>
</linearGradient>
<linearGradient id="paint23_linear_7027_5630" x1="37.7874" y1="84.2847" x2="50.455" y2="38.5547" gradientUnits="userSpaceOnUse">
<stop stop-color="#FFC9A7"/>
<stop offset="0.92" stop-color="#E77E3D"/>
<stop offset="1" stop-color="#E57834"/>
</linearGradient>
<linearGradient id="paint24_linear_7027_5630" x1="37.7584" y1="84.3701" x2="50.426" y2="38.6316" gradientUnits="userSpaceOnUse">
<stop stop-color="#FFCEB0"/>
<stop offset="0.96" stop-color="#E77E3A"/>
<stop offset="1" stop-color="#E77B36"/>
</linearGradient>
<linearGradient id="paint25_linear_7027_5630" x1="37.7334" y1="84.4462" x2="50.3925" y2="38.7078" gradientUnits="userSpaceOnUse">
<stop stop-color="#FFD4B9"/>
<stop offset="1" stop-color="#EA7E39"/>
</linearGradient>
<linearGradient id="paint26_linear_7027_5630" x1="37.7" y1="84.5232" x2="50.3677" y2="38.7932" gradientUnits="userSpaceOnUse">
<stop stop-color="#FFD9C1"/>
<stop offset="1" stop-color="#ED803C"/>
</linearGradient>
<linearGradient id="paint27_linear_7027_5630" x1="37.675" y1="84.6088" x2="50.3342" y2="38.8704" gradientUnits="userSpaceOnUse">
<stop stop-color="#FFDFCA"/>
<stop offset="1" stop-color="#EF833F"/>
</linearGradient>
<linearGradient id="paint28_linear_7027_5630" x1="37.6417" y1="84.685" x2="50.3093" y2="38.955" gradientUnits="userSpaceOnUse">
<stop stop-color="#FFE4D3"/>
<stop offset="1" stop-color="#F28641"/>
</linearGradient>
<linearGradient id="paint29_linear_7027_5630" x1="37.6166" y1="84.7705" x2="50.2758" y2="39.032" gradientUnits="userSpaceOnUse">
<stop stop-color="#FFE9DC"/>
<stop offset="1" stop-color="#F58844"/>
</linearGradient>
<linearGradient id="paint30_linear_7027_5630" x1="37.5789" y1="84.8466" x2="50.2466" y2="39.1081" gradientUnits="userSpaceOnUse">
<stop stop-color="#FFEFE5"/>
<stop offset="1" stop-color="#F78B47"/>
</linearGradient>
<linearGradient id="paint31_linear_7027_5630" x1="37.5541" y1="84.9236" x2="50.2218" y2="39.1936" gradientUnits="userSpaceOnUse">
<stop stop-color="#FFF4ED"/>
<stop offset="1" stop-color="#FA8E4A"/>
</linearGradient>
<linearGradient id="paint32_linear_7027_5630" x1="37.5206" y1="85.008" x2="50.1882" y2="39.2695" gradientUnits="userSpaceOnUse">
<stop stop-color="#FFFAF6"/>
<stop offset="1" stop-color="#FC904C"/>
</linearGradient>
<linearGradient id="paint33_linear_7027_5630" x1="37.4957" y1="85.0852" x2="50.1634" y2="39.3467" gradientUnits="userSpaceOnUse">
<stop stop-color="white"/>
<stop offset="1" stop-color="#FF934F"/>
</linearGradient>
<linearGradient id="paint34_linear_7027_5630" x1="37.4953" y1="85.0854" x2="50.1629" y2="39.3469" gradientUnits="userSpaceOnUse">
<stop stop-color="#FFC89C"/>
<stop offset="0.53" stop-color="#FF6200"/>
<stop offset="0.95" stop-color="#DA5500"/>
<stop offset="1" stop-color="#D65400"/>
</linearGradient>
</defs>
</svg>
