<svg width="20" height="21" viewBox="0 0 20 21" fill="none" xmlns="http://www.w3.org/2000/svg">
<mask id="mask0_4781_3244" style="mask-type:alpha" maskUnits="userSpaceOnUse" x="0" y="0" width="20" height="21">
<rect y="0.660156" width="20" height="20" fill="#D9D9D9"/>
</mask>
<g mask="url(#mask0_4781_3244)">
<path d="M7.99895 9.28175H5.37395C5.08228 9.28175 4.867 9.15496 4.72811 8.9014C4.58922 8.64784 4.59617 8.3977 4.74895 8.15099L10.3948 -0.545558C10.5059 -0.737444 10.6656 -0.864225 10.8739 -0.925903C11.0823 -0.987581 11.2906 -0.984154 11.4989 -0.915623C11.7073 -0.847093 11.8705 -0.720311 11.9885 -0.535278C12.1066 -0.350245 12.1517 -0.14808 12.1239 0.0712187L11.4989 5.33438H14.4573C14.7767 5.33438 15.0024 5.47144 15.1344 5.74556C15.2663 6.01968 15.2351 6.2801 15.0406 6.52681L8.87395 14.2365C8.73506 14.401 8.56492 14.5106 8.36353 14.5655C8.16214 14.6203 7.96422 14.5997 7.76978 14.5038C7.57533 14.4078 7.42603 14.2674 7.32186 14.0823C7.2177 13.8973 7.18645 13.702 7.22811 13.4964L7.99895 9.28175Z" fill="url(#paint0_linear_4781_3244)"/>
</g>
<defs>
<linearGradient id="paint0_linear_4781_3244" x1="13.229" y1="-2.485" x2="3.91098" y2="-1.78354" gradientUnits="userSpaceOnUse">
<stop stop-color="#F0BA2E"/>
<stop offset="1" stop-color="#F0A22E"/>
</linearGradient>
</defs>
</svg>
