<svg width="25" height="25" viewBox="0 0 25 25" fill="none" xmlns="http://www.w3.org/2000/svg">
<mask id="mask0_4781_3494" style="mask-type:alpha" maskUnits="userSpaceOnUse" x="0" y="0" width="25" height="25">
<rect x="0.433594" y="0.259766" width="24" height="24" fill="#D9D9D9"/>
</mask>
<g mask="url(#mask0_4781_3494)">
<path d="M9.43359 15.2602H6.43359C6.15026 15.2602 5.91276 15.1644 5.72109 14.9727C5.52943 14.7811 5.43359 14.5436 5.43359 14.2602V10.2602C5.43359 9.9769 5.52943 9.7394 5.72109 9.54773C5.91276 9.35606 6.15026 9.26023 6.43359 9.26023H9.43359L12.7336 5.96023C13.0503 5.64356 13.4128 5.57273 13.8211 5.74773C14.2294 5.92273 14.4336 6.23523 14.4336 6.68523V17.8352C14.4336 18.2852 14.2294 18.5977 13.8211 18.7727C13.4128 18.9477 13.0503 18.8769 12.7336 18.5602L9.43359 15.2602ZM18.9336 12.2602C18.9336 12.9602 18.7753 13.6227 18.4586 14.2477C18.1419 14.8727 17.7253 15.3852 17.2086 15.7852C17.0419 15.8852 16.8711 15.8894 16.6961 15.7977C16.5211 15.7061 16.4336 15.5602 16.4336 15.3602V9.11023C16.4336 8.91023 16.5211 8.7644 16.6961 8.67273C16.8711 8.58106 17.0419 8.58523 17.2086 8.68523C17.7253 9.1019 18.1419 9.6269 18.4586 10.2602C18.7753 10.8936 18.9336 11.5602 18.9336 12.2602Z" fill="white"/>
</g>
</svg>
