<svg width="118" height="110" viewBox="0 0 118 110" fill="none" xmlns="http://www.w3.org/2000/svg">
<path d="M96.3453 6.30686C96.3453 6.30686 75.4711 2.15484 71.1399 1.24301C66.8088 0.331193 60.4749 0.537418 58.0325 0.917344L19.8499 9.30829C7.64347 11.729 -2.09892 25.7536 0.880783 39.838L10.6449 83.4861C12.4034 91.8173 18.1566 97.4131 25.1743 99.1119L54.0975 108.822L63.0638 86.1727L69.7614 83.4969C78.961 79.8225 84.7738 68.2565 83.0967 57.472L80.6489 41.7431L96.3399 6.30686H96.3453Z" fill="url(#paint0_linear_7027_3398)"/>
<path d="M102.902 95.2638L66.0876 107.899C54.0386 112.035 42.5919 107.107 38.4725 90.3193L28.5293 43.2791C25.4899 28.9016 33.8428 15.1483 46.6192 12.9013L85.5561 6.05178C99.9553 3.62569 103.695 9.85102 106.593 23.3275L117.535 72.8427C119.847 85.0709 113.084 91.7685 102.897 95.2638H102.902Z" fill="url(#paint1_linear_7027_3398)"/>
<path d="M102.902 95.2638L66.0876 107.899C54.0386 112.035 42.5919 107.107 38.4725 90.3193L28.5293 43.2791C25.4899 28.9016 33.8428 15.1483 46.6192 12.9013L85.5561 6.05178C99.9553 3.62569 103.695 9.85102 106.593 23.3275L117.535 72.8427C119.847 85.0709 113.084 91.7685 102.897 95.2638H102.902Z" fill="black" fill-opacity="0.2"/>
<path d="M67.9594 21.9432C71.6501 21.0096 75.2757 20.0924 78.8361 19.1914C82.1741 28.353 88.6654 32.1795 98.3209 30.8009C99.2328 34.3993 100.145 38.0195 101.067 41.6559C98.3155 42.4863 95.5312 42.6383 92.7306 42.4809C89.9517 42.3289 87.2488 41.7753 84.459 40.6355C84.573 41.086 84.6382 41.3519 84.7087 41.6179C86.5107 48.7551 88.4211 55.8651 90.0874 63.0349C92.1335 71.8383 89.7455 79.3608 82.6137 84.9729C76.231 89.9987 68.9744 90.8454 61.4898 87.7192C52.046 83.7734 46.9007 73.7705 49.2074 63.7893C50.8573 56.6413 55.1939 51.5231 62.114 48.8311C63.7857 48.1798 65.6093 47.9138 67.4004 47.4579C68.3556 51.23 69.2892 54.937 70.2281 58.644C69.3326 58.7634 68.437 58.8014 67.5849 59.0131C63.688 59.9737 61.1696 62.4433 60.3392 66.3348C59.4871 70.324 60.7951 73.6837 64.1059 76.1423C67.281 78.4924 71.395 78.5901 74.8089 76.4897C78.0383 74.4978 79.9162 70.6551 79.1618 66.9318C78.3694 63.024 77.3273 59.165 76.3558 55.2952C73.604 44.3642 70.836 33.4386 68.0734 22.513C68.0354 22.3556 68.0083 22.1983 67.954 21.9432H67.9594Z" fill="url(#paint2_linear_7027_3398)"/>
<defs>
<linearGradient id="paint0_linear_7027_3398" x1="50.5415" y1="7.50367" x2="33.8565" y2="95.8087" gradientUnits="userSpaceOnUse">
<stop stop-color="#596070"/>
<stop offset="0.03" stop-color="#515866"/>
<stop offset="0.1" stop-color="#454B57"/>
<stop offset="0.19" stop-color="#3E434E"/>
<stop offset="0.31" stop-color="#3C414C"/>
<stop offset="0.52" stop-color="#414653"/>
<stop offset="0.84" stop-color="#454957"/>
<stop offset="1" stop-color="#2E313B"/>
</linearGradient>
<linearGradient id="paint1_linear_7027_3398" x1="82.7639" y1="12.7946" x2="53.2609" y2="145.008" gradientUnits="userSpaceOnUse">
<stop stop-color="#575E6E"/>
<stop offset="0.02" stop-color="#545A6A"/>
<stop offset="0.14" stop-color="#444956"/>
<stop offset="0.27" stop-color="#3B3F4A"/>
<stop offset="0.4" stop-color="#383C47"/>
<stop offset="0.76" stop-color="#202229"/>
</linearGradient>
<linearGradient id="paint2_linear_7027_3398" x1="91.2376" y1="12.3418" x2="45.157" y2="16.1411" gradientUnits="userSpaceOnUse">
<stop stop-color="#F0BA2E"/>
<stop offset="1" stop-color="#F0A22E"/>
</linearGradient>
</defs>
</svg>
