<svg width="19" height="19" viewBox="0 0 19 19" fill="none" xmlns="http://www.w3.org/2000/svg">
<mask id="mask0_4960_3251" style="mask-type:alpha" maskUnits="userSpaceOnUse" x="0" y="0" width="19" height="19">
<rect x="0.746094" y="0.517578" width="17.998" height="17.998" fill="#D9D9D9"/>
</mask>
<g mask="url(#mask0_4960_3251)">
<path d="M7.08142 11.5231L9.05428 6.26274C9.08889 6.15754 9.14994 6.0737 9.23743 6.0112C9.32492 5.94871 9.42491 5.91746 9.53739 5.91746H9.94985C10.0623 5.91746 10.1623 5.94871 10.2498 6.0112C10.3373 6.0737 10.3984 6.15722 10.4332 6.26177L12.4127 11.5416C12.4706 11.7042 12.4508 11.8574 12.3533 12.0012C12.2558 12.1449 12.1157 12.2168 11.9329 12.2168C11.8232 12.2168 11.7263 12.1858 11.6421 12.124C11.5579 12.0621 11.5 11.9805 11.4684 11.8793L11.0185 10.6044H8.46876L8.01681 11.8729C7.98065 11.9772 7.91868 12.0605 7.83089 12.123C7.74308 12.1855 7.6498 12.2168 7.55104 12.2168C7.37544 12.2168 7.23765 12.1434 7.13766 11.9968C7.03768 11.8502 7.01893 11.6923 7.08142 11.5231ZM8.80623 9.68579H10.681L9.76237 7.07983L8.80623 9.68579ZM1.64453 16.9412V13.7916C1.64453 13.6003 1.70921 13.4401 1.83857 13.3107C1.96793 13.1813 2.12823 13.1167 2.31946 13.1167H3.21935V5.91746H2.31946C2.12823 5.91746 1.96793 5.85278 1.83857 5.72342C1.70921 5.59406 1.64453 5.43377 1.64453 5.24254V2.09289C1.64453 1.90166 1.70921 1.74137 1.83857 1.61201C1.96793 1.48265 2.12823 1.41797 2.31946 1.41797H5.4691C5.66033 1.41797 5.82062 1.48265 5.94999 1.61201C6.07935 1.74137 6.14403 1.90166 6.14403 2.09289V2.99279H13.3432V2.09289C13.3432 1.90166 13.4079 1.74137 13.5373 1.61201C13.6666 1.48265 13.8269 1.41797 14.0181 1.41797H17.1678C17.359 1.41797 17.5193 1.48265 17.6487 1.61201C17.778 1.74137 17.8427 1.90166 17.8427 2.09289V5.24254C17.8427 5.43377 17.778 5.59406 17.6487 5.72342C17.5193 5.85278 17.359 5.91746 17.1678 5.91746H16.2679V13.1167H17.1678C17.359 13.1167 17.5193 13.1813 17.6487 13.3107C17.778 13.4401 17.8427 13.6003 17.8427 13.7916V16.9412C17.8427 17.1325 17.778 17.2927 17.6487 17.4221C17.5193 17.5515 17.359 17.6161 17.1678 17.6161H14.0181C13.8269 17.6161 13.6666 17.5515 13.5373 17.4221C13.4079 17.2927 13.3432 17.1325 13.3432 16.9412V16.0413H6.14403V16.9412C6.14403 17.1325 6.07935 17.2927 5.94999 17.4221C5.82062 17.5515 5.66033 17.6161 5.4691 17.6161H2.31946C2.12823 17.6161 1.96793 17.5515 1.83857 17.4221C1.70921 17.2927 1.64453 17.1325 1.64453 16.9412ZM6.14403 14.6915H13.3432V13.7916C13.3432 13.6003 13.4079 13.4401 13.5373 13.3107C13.6666 13.1813 13.8269 13.1167 14.0181 13.1167H14.918V5.91746H14.0181C13.8269 5.91746 13.6666 5.85278 13.5373 5.72342C13.4079 5.59406 13.3432 5.43377 13.3432 5.24254V4.34264H6.14403V5.24254C6.14403 5.43377 6.07935 5.59406 5.94999 5.72342C5.82062 5.85278 5.66033 5.91746 5.4691 5.91746H4.5692V13.1167H5.4691C5.66033 13.1167 5.82062 13.1813 5.94999 13.3107C6.07935 13.4401 6.14403 13.6003 6.14403 13.7916V14.6915Z" fill="white" fill-opacity="0.3"/>
</g>
</svg>
