<svg width="21" height="21" viewBox="0 0 21 21" fill="none" xmlns="http://www.w3.org/2000/svg">
<mask id="mask0_4781_3411" style="mask-type:alpha" maskUnits="userSpaceOnUse" x="0" y="0" width="21" height="21">
<rect x="0.550781" y="0.237305" width="20" height="20" fill="#D9D9D9"/>
</mask>
<g mask="url(#mask0_4781_3411)">
<path d="M2.55078 18.2373V3.7373C2.55078 3.3248 2.69766 2.97168 2.99141 2.67793C3.28516 2.38418 3.63828 2.2373 4.05078 2.2373H13.0508C13.4633 2.2373 13.8164 2.38418 14.1102 2.67793C14.4039 2.97168 14.5508 3.3248 14.5508 3.7373V4.27897C14.2313 4.45953 13.9466 4.67828 13.6966 4.93522C13.4466 5.19217 13.2313 5.48036 13.0508 5.7998V3.7373H4.05078V13.7373H13.0508V9.6748C13.2313 9.99425 13.4497 10.2832 13.7057 10.5416C13.9618 10.8 14.2435 11.018 14.5508 11.1956V13.7373C14.5508 14.1498 14.4039 14.5029 14.1102 14.7967C13.8164 15.0904 13.4633 15.2373 13.0508 15.2373H5.55078L2.55078 18.2373ZM5.55078 12.2373H8.55078V10.7373H5.55078V12.2373ZM16.5508 10.2373C15.8563 10.2373 15.2661 9.99425 14.7799 9.50814C14.2938 9.02203 14.0508 8.43175 14.0508 7.7373C14.0508 7.04286 14.2938 6.45258 14.7799 5.96647C15.2661 5.48036 15.8563 5.2373 16.5508 5.2373C16.6897 5.2373 16.832 5.25467 16.9779 5.28939C17.1237 5.32411 17.3147 5.37619 17.5508 5.44564V1.2373H20.5508V2.7373H19.0508V7.7373C19.0508 8.43175 18.8077 9.02203 18.3216 9.50814C17.8355 9.99425 17.2452 10.2373 16.5508 10.2373ZM5.55078 9.4873H11.5508V7.9873H5.55078V9.4873ZM5.55078 6.7373H11.5508V5.2373H5.55078V6.7373Z" fill="url(#paint0_linear_4781_3411)"/>
</g>
<defs>
<linearGradient id="paint0_linear_4781_3411" x1="17.1747" y1="-0.417662" x2="1.45612" y2="1.42466" gradientUnits="userSpaceOnUse">
<stop stop-color="#F0BA2E"/>
<stop offset="1" stop-color="#F0A22E"/>
</linearGradient>
</defs>
</svg>
