<svg width="21" height="21" viewBox="0 0 21 21" fill="none" xmlns="http://www.w3.org/2000/svg">
<mask id="mask0_4781_3396" style="mask-type:alpha" maskUnits="userSpaceOnUse" x="0" y="0" width="21" height="21">
<rect x="0.550781" y="0.237305" width="20" height="20" fill="#D9D9D9"/>
</mask>
<g mask="url(#mask0_4781_3396)">
<path d="M5.05078 17.2373C4.63828 17.2373 4.28516 17.0904 3.99141 16.7967C3.69766 16.5029 3.55078 16.1498 3.55078 15.7373V4.7373C3.55078 4.3248 3.69766 3.97168 3.99141 3.67793C4.28516 3.38418 4.63828 3.2373 5.05078 3.2373H10.8074C11.0113 3.2373 11.1862 3.30876 11.332 3.45166C11.4779 3.59458 11.5508 3.77166 11.5508 3.98291C11.5508 4.19417 11.4789 4.37272 11.3352 4.51855C11.1914 4.66439 11.0133 4.7373 10.8008 4.7373H5.05078V15.7373H16.0508V9.98064C16.0508 9.77675 16.1222 9.60189 16.2651 9.45605C16.4081 9.31022 16.5851 9.2373 16.7964 9.2373C17.0076 9.2373 17.1862 9.30918 17.332 9.45293C17.4779 9.59668 17.5508 9.7748 17.5508 9.9873V15.7373C17.5508 16.1498 17.4039 16.5029 17.1102 16.7967C16.8164 17.0904 16.4633 17.2373 16.0508 17.2373H5.05078ZM14.5556 6.2373H13.8032C13.59 6.2373 13.4113 6.16543 13.2671 6.02168C13.1229 5.87793 13.0508 5.6998 13.0508 5.4873C13.0508 5.2748 13.1229 5.09668 13.2671 4.95293C13.4113 4.80918 13.59 4.7373 13.8032 4.7373H14.5556V3.9873C14.5556 3.7748 14.6277 3.59668 14.772 3.45293C14.9162 3.30918 15.0939 3.2373 15.3052 3.2373C15.5164 3.2373 15.6935 3.30918 15.8364 3.45293C15.9793 3.59668 16.0508 3.7748 16.0508 3.9873V4.7373H16.7964C17.0076 4.7373 17.1862 4.80876 17.332 4.95166C17.4779 5.09458 17.5508 5.27166 17.5508 5.48291C17.5508 5.69417 17.4789 5.87191 17.3352 6.01612C17.1914 6.16034 17.0133 6.23245 16.8008 6.23245H16.0508V6.98487C16.0508 7.19806 15.9789 7.37677 15.8352 7.52099C15.6914 7.6652 15.5133 7.7373 15.3008 7.7373C15.0924 7.7373 14.9162 7.66543 14.772 7.52168C14.6277 7.37793 14.5556 7.1998 14.5556 6.9873V6.2373ZM9.80078 13.2373L8.59245 11.6331C8.51953 11.522 8.42231 11.4665 8.30078 11.4665C8.17925 11.4665 8.08203 11.522 8.00911 11.6331L6.51291 13.6337C6.41316 13.7583 6.39974 13.8901 6.47266 14.029C6.54557 14.1679 6.65495 14.2373 6.80078 14.2373H14.3048C14.4549 14.2373 14.5647 14.1679 14.6341 14.029C14.7036 13.8901 14.6897 13.7581 14.5924 13.6331L12.3424 10.6331C12.2695 10.522 12.1723 10.4665 12.0508 10.4665C11.9293 10.4665 11.832 10.522 11.7591 10.6331L9.80078 13.2373Z" fill="url(#paint0_linear_4781_3396)"/>
</g>
<defs>
<linearGradient id="paint0_linear_4781_3396" x1="14.9249" y1="1.87439" x2="2.68146" y2="3.22968" gradientUnits="userSpaceOnUse">
<stop stop-color="#F0BA2E"/>
<stop offset="1" stop-color="#F0A22E"/>
</linearGradient>
</defs>
</svg>
