<svg width="21" height="21" viewBox="0 0 21 21" fill="none" xmlns="http://www.w3.org/2000/svg">
<mask id="mask0_4781_3401" style="mask-type:alpha" maskUnits="userSpaceOnUse" x="0" y="0" width="21" height="21">
<rect x="0.550781" y="0.237305" width="20" height="20" fill="#D9D9D9"/>
</mask>
<g mask="url(#mask0_4781_3401)">
<path d="M14.0508 14.2373C15.1574 14.2373 16.1008 13.8468 16.8808 13.0659C17.6608 12.285 18.0508 11.3406 18.0508 10.2326C18.0508 9.12462 17.6608 8.18175 16.8808 7.40397C16.1008 6.62619 15.1574 6.2373 14.0508 6.2373C13.5786 6.2373 13.1341 6.31022 12.7174 6.45605C12.3008 6.60189 11.9188 6.81369 11.5716 7.09147C11.8871 7.53099 12.1292 8.01934 12.2978 8.55653C12.4665 9.09371 12.5508 9.65397 12.5508 10.2373C12.5508 10.8206 12.4665 11.3809 12.2978 11.9181C12.1292 12.4553 11.8871 12.9436 11.5716 13.3831C11.9188 13.6609 12.3008 13.8727 12.7174 14.0186C13.1341 14.1644 13.5786 14.2373 14.0508 14.2373ZM10.5508 12.1748C10.7036 11.8831 10.8251 11.5764 10.9154 11.2546C11.0056 10.9328 11.0508 10.5925 11.0508 10.2337C11.0508 9.87501 11.0056 9.53592 10.9154 9.21647C10.8251 8.89703 10.7036 8.59147 10.5508 8.2998C10.398 8.59147 10.2765 8.89822 10.1862 9.22003C10.0959 9.54184 10.0508 9.88212 10.0508 10.2409C10.0508 10.5996 10.0959 10.9387 10.1862 11.2581C10.2765 11.5776 10.398 11.8831 10.5508 12.1748ZM7.05078 14.2373C7.523 14.2373 7.96745 14.1644 8.38411 14.0186C8.80078 13.8727 9.18273 13.6609 9.52995 13.3831C9.21443 12.9436 8.97236 12.4553 8.80374 11.9181C8.6351 11.3809 8.55078 10.8206 8.55078 10.2373C8.55078 9.65397 8.6351 9.09371 8.80374 8.55653C8.97236 8.01934 9.21443 7.53099 9.52995 7.09147C9.18273 6.81369 8.80078 6.60189 8.38411 6.45605C7.96745 6.31022 7.523 6.2373 7.05078 6.2373C5.94411 6.2373 5.00078 6.62776 4.22078 7.40868C3.44078 8.1896 3.05078 9.13404 3.05078 10.242C3.05078 11.35 3.44078 12.2929 4.22078 13.0706C5.00078 13.8484 5.94411 14.2373 7.05078 14.2373ZM7.05078 15.7373C5.51864 15.7373 4.21894 15.2041 3.15168 14.1378C2.08441 13.0714 1.55078 11.7728 1.55078 10.2419C1.55078 8.71107 2.08441 7.41092 3.15168 6.34147C4.21894 5.27203 5.51864 4.7373 7.05078 4.7373C7.7105 4.7373 8.33724 4.84494 8.93099 5.06022C9.52474 5.2755 10.0647 5.58453 10.5508 5.9873C11.0369 5.58453 11.5768 5.2755 12.1706 5.06022C12.7643 4.84494 13.3911 4.7373 14.0508 4.7373C15.5829 4.7373 16.8826 5.27049 17.9499 6.33685C19.0172 7.40322 19.5508 8.70183 19.5508 10.2327C19.5508 11.7635 19.0172 13.0637 17.9499 14.1331C16.8826 15.2026 15.5829 15.7373 14.0508 15.7373C13.3911 15.7373 12.7643 15.6297 12.1706 15.4144C11.5768 15.1991 11.0369 14.8901 10.5508 14.4873C10.0647 14.8901 9.52474 15.1991 8.93099 15.4144C8.33724 15.6297 7.7105 15.7373 7.05078 15.7373Z" fill="url(#paint0_linear_4781_3401)"/>
</g>
<defs>
<linearGradient id="paint0_linear_4781_3401" x1="16.1747" y1="3.66644" x2="0.746406" y2="6.46108" gradientUnits="userSpaceOnUse">
<stop stop-color="#F0BA2E"/>
<stop offset="1" stop-color="#F0A22E"/>
</linearGradient>
</defs>
</svg>
