<svg width="20" height="20" viewBox="0 0 20 20" fill="none" xmlns="http://www.w3.org/2000/svg">
<mask id="mask0_4960_2979" style="mask-type:alpha" maskUnits="userSpaceOnUse" x="0" y="0" width="20" height="20">
<rect width="20" height="20" fill="#929497"/>
</mask>
<g mask="url(#mask0_4960_2979)">
<path d="M12.4993 15.8333V15H10.8327C10.3743 15 9.98199 14.8368 9.6556 14.5104C9.32921 14.184 9.16602 13.7917 9.16602 13.3333V6.66667H7.49935V7.5C7.49935 7.95833 7.33615 8.35069 7.00977 8.67708C6.68338 9.00347 6.29102 9.16667 5.83268 9.16667H3.33268C2.87435 9.16667 2.48199 9.00347 2.1556 8.67708C1.82921 8.35069 1.66602 7.95833 1.66602 7.5V4.16667C1.66602 3.70833 1.82921 3.31597 2.1556 2.98958C2.48199 2.66319 2.87435 2.5 3.33268 2.5H5.83268C6.29102 2.5 6.68338 2.66319 7.00977 2.98958C7.33615 3.31597 7.49935 3.70833 7.49935 4.16667V5H12.4993V4.16667C12.4993 3.70833 12.6625 3.31597 12.9889 2.98958C13.3153 2.66319 13.7077 2.5 14.166 2.5H16.666C17.1243 2.5 17.5167 2.66319 17.8431 2.98958C18.1695 3.31597 18.3327 3.70833 18.3327 4.16667V7.5C18.3327 7.95833 18.1695 8.35069 17.8431 8.67708C17.5167 9.00347 17.1243 9.16667 16.666 9.16667H14.166C13.7077 9.16667 13.3153 9.00347 12.9889 8.67708C12.6625 8.35069 12.4993 7.95833 12.4993 7.5V6.66667H10.8327V13.3333H12.4993V12.5C12.4993 12.0417 12.6625 11.6493 12.9889 11.3229C13.3153 10.9965 13.7077 10.8333 14.166 10.8333H16.666C17.1243 10.8333 17.5167 10.9965 17.8431 11.3229C18.1695 11.6493 18.3327 12.0417 18.3327 12.5V15.8333C18.3327 16.2917 18.1695 16.684 17.8431 17.0104C17.5167 17.3368 17.1243 17.5 16.666 17.5H14.166C13.7077 17.5 13.3153 17.3368 12.9889 17.0104C12.6625 16.684 12.4993 16.2917 12.4993 15.8333Z" fill="#929497"/>
</g>
</svg>
