<svg width="20" height="21" viewBox="0 0 20 21" fill="none" xmlns="http://www.w3.org/2000/svg">
<path d="M10 2.36377C12.2642 2.36377 12.5467 2.3721 13.435 2.41377C14.3225 2.45544 14.9266 2.5946 15.4583 2.80127C16.0083 3.01293 16.4716 3.2996 16.935 3.76209C17.3587 4.17867 17.6866 4.68257 17.8958 5.23875C18.1016 5.76957 18.2416 6.37457 18.2833 7.26206C18.3224 8.15039 18.3333 8.43289 18.3333 10.697C18.3333 12.9612 18.3249 13.2437 18.2833 14.132C18.2416 15.0195 18.1016 15.6237 17.8958 16.1553C17.6872 16.7118 17.3592 17.2158 16.935 17.632C16.5183 18.0556 16.0144 18.3834 15.4583 18.5928C14.9275 18.7986 14.3225 18.9386 13.435 18.9803C12.5467 19.0195 12.2642 19.0303 10 19.0303C7.73587 19.0303 7.45337 19.022 6.56504 18.9803C5.67755 18.9386 5.07339 18.7986 4.54172 18.5928C3.98533 18.384 3.48134 18.0561 3.06507 17.632C2.64125 17.2155 2.31335 16.7115 2.10424 16.1553C1.89758 15.6245 1.75841 15.0195 1.71675 14.132C1.67758 13.2437 1.66675 12.9612 1.66675 10.697C1.66675 8.43289 1.67508 8.15039 1.71675 7.26206C1.75841 6.37374 1.89758 5.77041 2.10424 5.23875C2.31277 4.68223 2.64074 4.17819 3.06507 3.76209C3.48146 3.33812 3.98542 3.01021 4.54172 2.80127C5.07339 2.5946 5.67672 2.45544 6.56504 2.41377C7.45337 2.3746 7.73587 2.36377 10 2.36377ZM10 6.5304C8.89495 6.5304 7.83515 6.96939 7.05376 7.75078C6.27236 8.53218 5.83338 9.59198 5.83338 10.697C5.83338 11.8021 6.27236 12.8619 7.05376 13.6433C7.83515 14.4247 8.89495 14.8637 10 14.8637C11.1051 14.8637 12.1649 14.4247 12.9463 13.6433C13.7277 12.8619 14.1666 11.8021 14.1666 10.697C14.1666 9.59198 13.7277 8.53218 12.9463 7.75078C12.1649 6.96939 11.1051 6.5304 10 6.5304ZM15.4166 6.32207C15.4166 6.04581 15.3069 5.78086 15.1115 5.58551C14.9162 5.39016 14.6512 5.28041 14.375 5.28041C14.0987 5.28041 13.8338 5.39016 13.6384 5.58551C13.4431 5.78086 13.3333 6.04581 13.3333 6.32207C13.3333 6.59834 13.4431 6.86329 13.6384 7.05863C13.8338 7.25398 14.0987 7.36373 14.375 7.36373C14.6512 7.36373 14.9162 7.25398 15.1115 7.05863C15.3069 6.86329 15.4166 6.59834 15.4166 6.32207ZM10 8.19706C10.663 8.19706 11.2989 8.46044 11.7678 8.92928C12.2366 9.39812 12.5 10.034 12.5 10.697C12.5 11.3601 12.2366 11.996 11.7678 12.4648C11.2989 12.9336 10.663 13.197 10 13.197C9.33698 13.197 8.7011 12.9336 8.23226 12.4648C7.76342 11.996 7.50003 11.3601 7.50003 10.697C7.50003 10.034 7.76342 9.39812 8.23226 8.92928C8.7011 8.46044 9.33698 8.19706 10 8.19706Z" fill="white"/>
</svg>
