<svg width="18" height="21" viewBox="0 0 18 21" fill="none" xmlns="http://www.w3.org/2000/svg">
<path d="M14.0304 11.0231C14.4897 11.0217 14.9447 11.1109 15.3695 11.2854C15.7943 11.4599 16.1806 11.7164 16.5063 12.0402C16.832 12.364 17.0907 12.7488 17.2677 13.1726C17.4447 13.5964 17.5364 14.0509 17.5378 14.5101V17.2798C17.5347 18.2071 17.1636 19.0952 16.5059 19.7489C15.8481 20.4026 14.9577 20.7683 14.0304 20.7656H8.87324C8.13527 20.7666 7.41579 20.5348 6.8172 20.1032C6.21861 19.6715 5.77142 19.0621 5.53927 18.3616L2.46595 19.8926C2.06207 20.0938 1.59495 20.1268 1.16674 19.9846C0.738531 19.8423 0.384077 19.5363 0.180887 19.1334C0.0624036 18.8979 0.000865666 18.6379 0.00122224 18.3743V13.4208C0.00304631 13.1308 0.0787963 12.8462 0.221307 12.5937C0.363818 12.3412 0.568376 12.1293 0.815638 11.9779C1.0629 11.8265 1.34469 11.7407 1.63436 11.7286C1.92402 11.7165 2.21199 11.7785 2.47101 11.9088L5.53042 13.4486C5.75932 12.7426 6.20627 12.1275 6.80695 11.6916C7.40764 11.2558 8.13109 11.0217 8.87324 11.0231H14.0317H14.0304ZM14.0089 12.8185H8.92512C8.46634 12.8171 8.02539 12.996 7.69734 13.3167C7.36929 13.6374 7.18042 14.0742 7.17146 14.5329V17.2279C7.17175 17.6873 7.35282 18.1282 7.67553 18.4551C7.99823 18.7821 8.43666 18.9689 8.89601 18.9753H13.9798C14.4377 18.9753 14.8774 18.7958 15.2044 18.4752C15.5313 18.1547 15.7195 17.7186 15.7284 17.2608V14.5658C15.7275 14.1077 15.5468 13.6683 15.2253 13.342C14.9037 13.0157 14.467 12.8286 14.0089 12.821V12.8185ZM2.26984 13.9003C2.14853 13.8999 2.03193 13.9472 1.9451 14.0319C1.85827 14.1166 1.80813 14.232 1.80548 14.3532V17.4759C1.80621 17.5544 1.82674 17.6314 1.86519 17.6998C1.90363 17.7682 1.95874 17.8257 2.02538 17.8671C2.09203 17.9085 2.16806 17.9324 2.24641 17.9366C2.32476 17.9407 2.40289 17.925 2.47354 17.8909H2.48113L5.36593 16.4283V15.3933L2.4786 13.9534C2.41389 13.9206 2.34241 13.9032 2.26984 13.9028V13.9003ZM6.55148 0.774455C7.39305 0.772135 8.22012 0.993515 8.94801 1.41593C9.67589 1.83834 10.2784 2.44661 10.694 3.17845C11.2967 2.62118 12.0546 2.26029 12.8672 2.14363C13.6797 2.02698 14.5086 2.16007 15.2438 2.52526C15.9789 2.89045 16.5858 3.47048 16.9837 4.18845C17.3817 4.90642 17.5521 5.7284 17.4722 6.54539C17.3923 7.36239 17.066 8.13581 16.5364 8.76309C16.0069 9.39036 15.2992 9.84187 14.5072 10.0577C13.7152 10.2736 12.8763 10.2436 12.1017 9.97176C11.3272 9.69991 10.6535 9.19905 10.1701 8.53557C9.65998 9.14858 9.0032 9.62275 8.26078 9.91406C7.51836 10.2054 6.71437 10.3044 5.92346 10.2018C5.13255 10.0993 4.38037 9.79863 3.73675 9.32768C3.09312 8.85673 2.57894 8.23078 2.24192 7.50797C1.9049 6.78515 1.75599 5.9889 1.809 5.19314C1.86201 4.39738 2.11523 3.62791 2.54515 2.95618C2.97506 2.28446 3.56773 1.73225 4.26814 1.35083C4.96854 0.969413 5.75397 0.771151 6.55148 0.774455ZM6.55148 2.67235C5.9944 2.6756 5.45075 2.84376 4.98913 3.15562C4.52751 3.46749 4.16859 3.90908 3.95765 4.42469C3.74671 4.94031 3.6932 5.50685 3.80387 6.05284C3.91455 6.59883 4.18444 7.09981 4.57951 7.49259C4.97458 7.88537 5.47712 8.15234 6.02375 8.25984C6.57037 8.36733 7.13659 8.31053 7.65097 8.0966C8.16534 7.88266 8.60485 7.52118 8.91402 7.05775C9.22319 6.59432 9.38819 6.04971 9.3882 5.49262C9.38721 5.12115 9.31303 4.75352 9.16992 4.41072C9.02681 4.06793 8.81756 3.75669 8.55413 3.49479C8.2907 3.23289 7.97824 3.02545 7.63462 2.88434C7.291 2.74322 6.92295 2.67118 6.55148 2.67235ZM13.4636 4.00087C12.8912 3.99919 12.3416 4.22479 11.9354 4.62809C11.5293 5.0314 11.2998 5.57944 11.2975 6.15182C11.2998 6.7242 11.5293 7.27223 11.9354 7.67554C12.3416 8.07885 12.8912 8.30445 13.4636 8.30276C14.036 8.30445 14.5856 8.07885 14.9918 7.67554C15.3979 7.27223 15.6274 6.7242 15.6297 6.15182C15.6274 5.57944 15.3979 5.0314 14.9918 4.62809C14.5856 4.22479 14.036 3.99919 13.4636 4.00087Z" fill="white"/>
</svg>
