<svg width="20" height="21" viewBox="0 0 20 21" fill="none" xmlns="http://www.w3.org/2000/svg">
<g clip-path="url(#clip0_4781_3117)">
<path d="M19.5821 5.31553C19.3522 4.45498 18.6745 3.77736 17.814 3.54736C16.2541 3.12939 10 3.12939 10 3.12939C10 3.12939 3.74582 3.12939 2.18598 3.54736C1.32559 3.77736 0.647812 4.45498 0.417852 5.31553C0 6.87521 0 10.1295 0 10.1295C0 10.1295 0 13.3837 0.417852 14.9433C0.647812 15.8038 1.32559 16.4816 2.18598 16.7116C3.74582 17.1294 10 17.1294 10 17.1294C10 17.1294 16.2541 17.1294 17.814 16.7116C18.6745 16.4816 19.3522 15.8038 19.5821 14.9433C20 13.3837 20 10.1295 20 10.1295C20 10.1295 20 6.87521 19.5821 5.31553ZM7.99988 13.1295V7.12943L13.1959 10.1295L7.99988 13.1295Z" fill="white"/>
</g>
<defs>
<clipPath id="clip0_4781_3117">
<rect width="20" height="20" fill="white" transform="translate(0 0.129395)"/>
</clipPath>
</defs>
</svg>
