<svg width="20" height="21" viewBox="0 0 20 21" fill="none" xmlns="http://www.w3.org/2000/svg">
<path d="M17.7559 8.63143C16.3498 8.63485 14.9781 8.18867 13.8347 7.35593V13.1637C13.8343 14.2394 13.5112 15.2893 12.9085 16.1731C12.3058 17.0568 11.4523 17.7323 10.4621 18.1092C9.47189 18.4861 8.39219 18.5465 7.36737 18.2822C6.34255 18.0179 5.42145 17.4416 4.72725 16.6303C4.03304 15.819 3.59881 14.8115 3.48262 13.7423C3.36644 12.6732 3.57383 11.5934 4.07707 10.6474C4.58031 9.70141 5.35541 8.93428 6.29873 8.44859C7.24205 7.9629 8.30863 7.7818 9.35584 7.9295V10.8506C8.87663 10.6973 8.36205 10.7019 7.88558 10.8638C7.40911 11.0258 6.99511 11.3367 6.70271 11.7524C6.41031 12.168 6.25447 12.667 6.25743 13.1781C6.26038 13.6892 6.422 14.1863 6.71919 14.5983C7.01638 15.0104 7.43394 15.3164 7.91226 15.4726C8.39057 15.6289 8.90517 15.6273 9.38257 15.4682C9.85997 15.3091 10.2758 15.0006 10.5705 14.5868C10.8653 14.1729 11.0241 13.6748 11.024 13.1637V1.81006H13.8347C13.8328 2.05155 13.8527 2.29272 13.8941 2.53051C13.9918 3.06133 14.1949 3.56631 14.4909 4.01454C14.787 4.46278 15.1698 4.84485 15.616 5.13739C16.2508 5.56442 16.995 5.79203 17.7559 5.79187V8.63143Z" fill="white"/>
</svg>
