<svg width="59" height="59" viewBox="0 0 59 59" fill="none" xmlns="http://www.w3.org/2000/svg">
<path d="M49.5153 17.3856C49.5153 18.6906 48.8144 19.8746 47.7028 20.4788L43.4977 22.7505L39.9211 24.6597L32.5019 28.6714C31.7044 29.1064 30.8344 29.3239 29.9402 29.3239C29.0461 29.3239 28.1761 29.1064 27.3786 28.6714L12.1777 20.4788C11.0661 19.8746 10.3652 18.6906 10.3652 17.3856C10.3652 16.0806 11.0661 14.8963 12.1777 14.2922L16.9386 11.7305L20.7328 9.67639L27.3786 6.09977C28.9736 5.22977 30.9069 5.22977 32.5019 6.09977L47.7028 14.2922C48.8144 14.8963 49.5153 16.0806 49.5153 17.3856Z" fill="white" fill-opacity="0.29"/>
<path d="M47.7741 20.6108L47.7744 20.6106C48.9354 19.9796 49.6653 18.7443 49.6653 17.3856C49.6653 16.0268 48.9354 14.7914 47.7744 14.1604L47.7739 14.1601L32.5737 5.96808C32.5736 5.96799 32.5734 5.96791 32.5733 5.96782C30.9337 5.07373 28.9467 5.07375 27.3072 5.96787C27.307 5.96794 27.3069 5.96801 27.3068 5.96808L20.6617 9.5443L20.6613 9.54448L16.8675 11.5984L16.8672 11.5986L12.1067 14.1601L12.1061 14.1604C10.9451 14.7914 10.2152 16.0268 10.2152 17.3856C10.2152 18.7443 10.9451 19.9796 12.1061 20.6106L12.1066 20.6109L27.3068 28.803C27.3069 28.8031 27.307 28.8031 27.3071 28.8032C28.1267 29.2502 29.0214 29.4739 29.9402 29.4739C30.8592 29.4739 31.7539 29.2502 32.5737 28.8031C32.5737 28.8031 32.5737 28.8031 32.5737 28.803L39.9917 24.7921L39.9924 24.7917L43.5684 22.8828L43.569 22.8825L47.7741 20.6108Z" stroke="white" stroke-opacity="0.6" stroke-width="0.3"/>
<path d="M24.8653 31.5235L10.7278 24.4427C9.64031 23.8869 8.38365 23.9593 7.34449 24.5877C6.30532 25.216 5.70117 26.3278 5.70117 27.5361V40.9002C5.70117 43.2202 6.98197 45.2985 9.0603 46.3377L23.1978 53.3945C23.6811 53.6361 24.2128 53.7569 24.7445 53.7569C25.3728 53.7569 26.0012 53.5878 26.557 53.2253C27.5962 52.5969 28.2003 51.4852 28.2003 50.2769V36.9128C28.2245 34.6411 26.9437 32.5627 24.8653 31.5235Z" fill="white" fill-opacity="0.29"/>
<path d="M8.99331 46.4719L8.99322 46.4718C6.86396 45.4072 5.55117 43.2769 5.55117 40.9002V27.5361C5.55117 26.2771 6.18123 25.1158 7.26687 24.4593C8.34811 23.8056 9.65965 23.7285 10.7955 24.3088C10.7957 24.3089 10.7959 24.309 10.7961 24.3091L24.9324 31.3893L8.99331 46.4719ZM8.99331 46.4719L23.1307 53.5286M8.99331 46.4719L23.1307 53.5286M23.1307 53.5286C23.6355 53.781 24.1903 53.9069 24.7445 53.9069C25.3991 53.9069 26.0555 53.7308 26.6368 53.3523C27.7211 52.6956 28.3503 51.535 28.3503 50.2769V36.9136C28.3748 34.5836 27.0607 32.4536 24.9325 31.3894L23.1307 53.5286Z" stroke="white" stroke-opacity="0.6" stroke-width="0.3"/>
<path d="M54.1776 27.5599V40.924C54.1776 43.2199 52.8969 45.2982 50.8185 46.3373L36.681 53.4182C36.1977 53.6598 35.666 53.7807 35.1343 53.7807C34.506 53.7807 33.8777 53.6116 33.2977 53.2491C32.2827 52.6208 31.6543 51.509 31.6543 50.3007V36.9607C31.6543 34.6407 32.9352 32.5623 35.0135 31.5232L40.2093 28.9373L43.8343 27.1248L49.151 24.4665C50.2385 23.9107 51.4952 23.959 52.5343 24.6115C53.5493 25.2399 54.1776 26.3516 54.1776 27.5599Z" fill="white" fill-opacity="0.29"/>
<path d="M36.7482 53.5523L36.7481 53.5523C36.2433 53.8047 35.6886 53.9307 35.1343 53.9307C34.4785 53.9307 33.8228 53.7541 33.2187 53.3767C32.1599 52.7212 31.5043 51.5614 31.5043 50.3007V36.9607C31.5043 34.584 32.8172 32.4536 34.9464 31.389L34.9467 31.3889L40.1422 28.8031L40.1425 28.803L43.7672 26.9906L43.8343 27.1248L43.7672 26.9906L49.0827 24.333C49.083 24.3329 49.0832 24.3327 49.0834 24.3326C50.2172 23.7534 51.5296 23.8037 52.6137 24.4843C53.6723 25.1398 54.3276 26.2994 54.3276 27.5599V40.924C54.3276 43.2769 53.0146 45.407 50.8857 46.4715L36.7482 53.5523ZM36.7482 53.5523L50.8856 46.4715L36.7482 53.5523Z" stroke="white" stroke-opacity="0.6" stroke-width="0.3"/>
<path d="M55.5568 52.9113L53.7202 51.0746C54.6868 49.6246 55.2427 47.8845 55.2427 46.0237C55.2427 40.9245 51.1101 36.792 46.011 36.792C40.9118 36.792 36.7793 40.9245 36.7793 46.0237C36.7793 51.1228 40.9118 55.2554 46.011 55.2554C47.8718 55.2554 49.6118 54.6995 51.0618 53.7328L52.8985 55.5695C53.261 55.932 53.7443 56.1253 54.2276 56.1253C54.711 56.1253 55.1943 55.932 55.5568 55.5695C56.2818 54.8204 56.2818 53.6363 55.5568 52.9113Z" fill="url(#paint0_linear_4966_3388)"/>
<circle cx="46.1494" cy="46.168" r="6.54004" fill="#0D101D"/>
<defs>
<linearGradient id="paint0_linear_4966_3388" x1="52.4767" y1="34.9099" x2="35.5793" y2="36.7792" gradientUnits="userSpaceOnUse">
<stop stop-color="#F0BA2E"/>
<stop offset="1" stop-color="#F0A22E"/>
</linearGradient>
</defs>
</svg>
