<svg width="20" height="20" viewBox="0 0 20 20" fill="none" xmlns="http://www.w3.org/2000/svg">
<rect x="0.594727" y="0.774902" width="19" height="19" rx="9.5" fill="url(#paint0_linear_7005_3972)"/>
<path d="M8.76589 12.3544V12.2067C8.76968 11.5211 8.83407 10.9757 8.95907 10.5704C9.08786 10.1651 9.26968 9.8393 9.50453 9.59308C9.73938 9.34308 10.0254 9.11392 10.3625 8.90558C10.5935 8.76164 10.8 8.60445 10.9818 8.43399C11.1674 8.25975 11.3132 8.06657 11.4193 7.85445C11.5254 7.63854 11.5784 7.39801 11.5784 7.13286C11.5784 6.83361 11.5083 6.57414 11.3682 6.35445C11.228 6.13475 11.0386 5.9643 10.8 5.84308C10.5651 5.72187 10.3019 5.66127 10.0102 5.66127C9.74127 5.66127 9.48559 5.71998 9.24316 5.8374C9.00453 5.95104 8.80566 6.12528 8.64657 6.36013C8.49127 6.59119 8.40415 6.88475 8.38521 7.24081H6.36248C6.38142 6.52111 6.55566 5.91884 6.88521 5.43399C7.21854 4.94914 7.65794 4.58551 8.20339 4.34308C8.75263 4.10066 9.35869 3.97945 10.0216 3.97945C10.7451 3.97945 11.3814 4.10634 11.9307 4.36013C12.4837 4.61392 12.9136 4.97566 13.2204 5.44536C13.531 5.91127 13.6863 6.4643 13.6863 7.10445C13.6863 7.53627 13.6163 7.92263 13.4761 8.26354C13.3398 8.60445 13.1447 8.90748 12.8909 9.17263C12.6371 9.43778 12.336 9.67452 11.9875 9.88286C11.6807 10.0723 11.4288 10.2692 11.2318 10.4738C11.0386 10.6783 10.8947 10.9188 10.8 11.1954C10.7091 11.4681 10.6617 11.8052 10.6579 12.2067V12.3544H8.76589ZM9.75453 15.8999C9.41362 15.8999 9.12006 15.7787 8.87385 15.5363C8.62763 15.2938 8.50453 14.9984 8.50453 14.6499C8.50453 14.309 8.62763 14.0173 8.87385 13.7749C9.12006 13.5325 9.41362 13.4113 9.75453 13.4113C10.0916 13.4113 10.3833 13.5325 10.6295 13.7749C10.8795 14.0173 11.0045 14.309 11.0045 14.6499C11.0045 14.881 10.9458 15.0912 10.8284 15.2806C10.7148 15.47 10.5632 15.6215 10.3738 15.7351C10.1882 15.845 9.9818 15.8999 9.75453 15.8999Z" fill="white"/>
<defs>
<linearGradient id="paint0_linear_7005_3972" x1="16.0311" y1="-1.07477" x2="-0.585069" y2="0.76456" gradientUnits="userSpaceOnUse">
<stop stop-color="#F0BA2E"/>
<stop offset="1" stop-color="#F0A22E"/>
</linearGradient>
</defs>
</svg>
