<svg width="27" height="28" viewBox="0 0 27 28" fill="none" xmlns="http://www.w3.org/2000/svg">
<rect x="0.0449219" width="26.55" height="27.15" rx="13.275" fill="white" fill-opacity="0.1"/>
<rect x="0.544922" y="0.5" width="25.55" height="26.15" rx="12.775" stroke="white" stroke-opacity="0.06"/>
<path d="M14.2199 13.575L10.3199 9.675C10.1366 9.49167 10.0449 9.25833 10.0449 8.975C10.0449 8.69167 10.1366 8.45833 10.3199 8.275C10.5033 8.09167 10.7366 8 11.0199 8C11.3033 8 11.5366 8.09167 11.7199 8.275L16.3199 12.875C16.4199 12.975 16.4908 13.0833 16.5324 13.2C16.5741 13.3167 16.5949 13.4417 16.5949 13.575C16.5949 13.7083 16.5741 13.8333 16.5324 13.95C16.4908 14.0667 16.4199 14.175 16.3199 14.275L11.7199 18.875C11.5366 19.0583 11.3033 19.15 11.0199 19.15C10.7366 19.15 10.5033 19.0583 10.3199 18.875C10.1366 18.6917 10.0449 18.4583 10.0449 18.175C10.0449 17.8917 10.1366 17.6583 10.3199 17.475L14.2199 13.575Z" fill="white"/>
</svg>
