<svg width="147" height="151" viewBox="0 0 147 151" fill="none" xmlns="http://www.w3.org/2000/svg">
<g filter="url(#filter0_d_7002_3971)">
<path d="M46.4639 66.4235C46.4639 66.4235 50.6519 58.2231 51.5431 56.3568C52.4343 54.4905 54.3093 52.1975 55.1439 51.3955L69.104 39.591C73.4671 35.7454 81.4517 36.1001 85.8509 41.1951L99.3217 57.1846C101.923 60.1974 102.371 63.9197 101.011 67.0096L96.4163 80.5055L85.444 77.4207L82.5489 79.1533C78.5721 81.5286 72.6172 80.4129 69.0782 76.7318L63.9217 71.3642L46.469 66.4235H46.4639Z" fill="url(#paint0_linear_7002_3971)"/>
<path d="M77.5153 94.788L92.6653 84.6957C97.6261 81.3898 99.0376 75.7447 93.9635 69.4569L79.2822 52.4392C74.7954 47.2362 67.3054 46.4445 62.8443 50.5523L49.2448 63.0765C44.2531 67.7397 45.5101 70.8913 49.7032 75.7807L65.0233 93.8729C68.9177 98.1967 73.3324 97.5798 77.5204 94.788H77.5153Z" fill="url(#paint1_linear_7002_3971)" stroke="url(#paint2_linear_7002_3971)" stroke-width="0.32" stroke-miterlimit="10"/>
<path d="M72.7194 57.987L71.2307 59.2106C71.1276 59.2929 71.0503 59.3957 70.9988 59.5139C70.8443 59.8584 70.3961 60.4291 70.6898 60.7735L76.0059 66.2696L70.4476 66.4238C70.118 66.4341 69.9686 66.6501 69.8295 66.8865C69.7419 67.0408 69.3401 67.5344 69.6131 67.8583L71.7252 69.8119L69.4895 71.524L68.1347 72.5625L66.5532 70.6397C66.0433 70.0227 64.9666 70.4392 64.8224 71.0613L63.9415 75.5291L59.5732 70.1307C59.2177 69.6886 58.6356 69.5703 58.2802 69.8582L57.0027 70.9122C56.8533 71.0356 56.5081 71.6217 56.4824 71.817C56.4515 72.0844 56.8018 71.9713 57.0027 72.2284L68.8353 87.0404C69.2113 87.5083 69.8295 87.678 70.221 87.4106L71.4625 86.9633C71.5912 86.8759 71.8591 86.2281 71.9055 86.0893C72.0033 85.7911 71.9261 85.4106 71.6634 85.0919L66.6923 78.9429L71.9055 79.6472C72.23 79.6575 72.5236 78.9172 72.6061 78.6704C72.6988 78.3928 72.6215 78.0123 72.3433 77.6781L70.7258 75.7142L72.1064 74.691L74.3884 72.9996L76.0574 74.9892C76.5983 75.637 77.4947 75.6473 77.6647 75.0047L79.0401 69.8222L84.5211 76.2386C84.9435 76.7321 85.6595 76.8864 86.1128 76.5779L87.6222 75.9455C87.751 75.8581 88.0085 75.2309 88.0704 75.0972C88.2249 74.7579 88.1476 74.3106 87.8385 73.9558L74.203 58.208C73.8012 57.7453 73.1366 57.6425 72.7194 57.987Z" fill="url(#paint3_linear_7002_3971)"/>
<path d="M72.9016 57.2511L71.4129 58.4748C71.0059 58.8089 70.9956 59.4516 71.3923 59.9143L76.1933 65.5337L70.635 65.688C69.955 65.7034 69.7593 66.5106 70.2796 67.1327L71.9074 69.0761L69.6717 70.7882L68.3169 71.8267L66.7354 69.9038C66.2255 69.2869 65.4064 69.2972 65.2622 69.9193L64.1186 74.7984L59.7502 69.4C59.3948 68.9579 58.8127 68.8396 58.4573 69.1275L57.1797 70.1815C56.8294 70.4694 56.8346 71.0555 57.1797 71.4977L69.0123 86.3097C69.3884 86.7776 70.0065 86.9472 70.398 86.6799L71.825 85.7082C72.2216 85.4408 72.2319 84.829 71.8456 84.356L66.8745 78.207L72.1701 78.3459C72.8552 78.3664 73.0561 77.5849 72.5255 76.9423L70.908 74.9783L72.2886 73.9552L74.5706 72.2637L76.2397 74.2534C76.7805 74.9012 77.6769 74.9115 77.8469 74.2688L79.2223 69.0864L84.7033 75.5027C85.1257 75.9963 85.8417 76.1505 86.2951 75.8421L87.9641 74.7058C88.4277 74.3922 88.4535 73.7238 88.0207 73.22L74.3852 57.4722C73.9834 57.0095 73.3188 56.9067 72.9016 57.2511Z" fill="url(#paint4_linear_7002_3971)"/>
<path d="M72.884 57.297L71.3953 58.5207C70.9883 58.8548 70.978 59.4975 71.3747 59.9602L76.1757 65.5796L70.6174 65.7339C69.9375 65.7493 69.7417 66.5565 70.262 67.1786L71.8898 69.122L69.6541 70.8341L68.2993 71.8726L66.7179 69.9497C66.2079 69.3328 65.3888 69.3431 65.2446 69.9652L64.101 74.8443L59.7327 69.4459C59.3772 69.0038 58.7951 68.8855 58.4397 69.1734L57.1622 70.2274C56.8119 70.5153 56.817 71.1014 57.1622 71.5436L68.9948 86.3556C69.3708 86.8235 69.989 86.9931 70.3805 86.7258L71.8074 85.7541C72.204 85.4868 72.2143 84.8749 71.828 84.4019L66.857 78.2529L72.1525 78.3918C72.8377 78.4123 73.0386 77.6308 72.508 76.9882L70.8905 75.0242L72.271 74.0011L74.5531 72.3096L76.2221 74.2993C76.763 74.9471 77.6593 74.9574 77.8293 74.3147L79.2047 69.1323L84.6857 75.5486C85.1081 76.0422 85.8242 76.1964 86.2775 75.888L87.9465 74.7517C88.4101 74.4381 88.4359 73.7697 88.0032 73.2659L74.3676 57.5181C73.9658 57.0554 73.3013 56.9526 72.884 57.297Z" fill="url(#paint5_linear_7002_3971)"/>
<path d="M72.8645 57.3488L71.3758 58.5724C70.9688 58.9066 70.9585 59.5493 71.3551 60.012L76.1562 65.6314L70.5979 65.7856C69.9179 65.8011 69.7222 66.6083 70.2425 67.2304L71.8703 69.1738L69.6346 70.8858L68.2798 71.9243L66.6983 70.0015C66.1884 69.3845 65.3693 69.3948 65.2251 70.0169L64.0815 74.896L59.7131 69.4977C59.3577 69.0555 58.7756 68.9373 58.4202 69.2252L57.1426 70.2791C56.7923 70.5671 56.7975 71.1532 57.1426 71.5953L68.9752 86.4074C69.3513 86.8752 69.9694 87.0449 70.3609 86.7776L71.7879 85.8058C72.1845 85.5385 72.1948 84.9267 71.8085 84.4537L66.8374 78.3047L72.133 78.4435C72.8181 78.4641 73.019 77.6826 72.4884 77.0399L70.8709 75.076L72.2515 74.0528L74.5335 72.3614L76.2026 74.351C76.7434 74.9988 77.6398 75.0091 77.8098 74.3665L79.1852 69.184L84.6662 75.6004C85.0886 76.0939 85.8046 76.2482 86.2579 75.9397L87.927 74.8035C88.3906 74.4899 88.4164 73.8215 87.9836 73.3176L74.3481 57.5699C73.9463 57.1071 73.2817 57.0043 72.8645 57.3488Z" fill="url(#paint6_linear_7002_3971)"/>
<path d="M72.8489 57.3952L71.3601 58.6188C70.9532 58.953 70.9429 59.5956 71.3395 60.0584L76.1406 65.6778L70.5823 65.832C69.9023 65.8475 69.7065 66.6546 70.2268 67.2767L71.8547 69.2202L69.619 70.9322L68.2642 71.9707L66.6827 70.0479C66.1727 69.4309 65.3537 69.4412 65.2094 70.0633L64.0658 74.9424L59.6975 69.5441C59.3421 69.1019 58.76 68.9837 58.4045 69.2716L57.127 70.3255C56.7767 70.6134 56.7819 71.1995 57.127 71.6417L68.9596 86.4538C69.3357 86.9216 69.9538 87.0913 70.3453 86.8239L71.7722 85.8522C72.1689 85.5849 72.1792 84.9731 71.7928 84.5001L66.8218 78.3511L72.1174 78.4899C72.8025 78.5105 73.0034 77.729 72.4728 77.0863L70.8553 75.1223L72.2359 74.0992L74.5179 72.4077L76.1869 74.3974C76.7278 75.0452 77.6241 75.0555 77.7941 74.4129L79.1695 69.2304L84.6506 75.6468C85.073 76.1403 85.789 76.2946 86.2423 75.9861L87.9114 74.8499C88.375 74.5362 88.4007 73.8679 87.968 73.364L74.3324 57.6162C73.9306 57.1535 73.2661 57.0507 72.8489 57.3952Z" fill="url(#paint7_linear_7002_3971)"/>
<path d="M72.8293 57.4464L71.3406 58.6701C70.9336 59.0042 70.9233 59.6469 71.32 60.1096L76.121 65.7291L70.5628 65.8833C69.8828 65.8987 69.687 66.7059 70.2073 67.328L71.8351 69.2714L69.5994 70.9835L68.2447 72.022L66.6632 70.0992C66.1532 69.4822 65.3341 69.4925 65.1899 70.1146L64.0463 74.9937L59.678 69.5953C59.3225 69.1532 58.7404 69.0349 58.385 69.3228L57.1075 70.3768C56.7572 70.6647 56.7623 71.2508 57.1075 71.693L68.9401 86.505C69.3161 86.9729 69.9343 87.1426 70.3258 86.8752L71.7527 85.9035C72.1494 85.6361 72.1597 85.0243 71.7733 84.5513L66.8023 78.4023L72.0978 78.5412C72.783 78.5617 72.9839 77.7803 72.4533 77.1376L70.8358 75.1736L72.2163 74.1505L74.4984 72.459L76.1674 74.4487C76.7083 75.0965 77.6046 75.1068 77.7746 74.4641L79.15 69.2817L84.631 75.698C85.0534 76.1916 85.7695 76.3458 86.2228 76.0374L87.8918 74.9011C88.3555 74.5875 88.3812 73.9191 87.9485 73.4153L74.3129 57.6675C73.9111 57.2048 73.2466 57.102 72.8293 57.4464Z" fill="url(#paint8_linear_7002_3971)"/>
<path d="M72.8137 57.4928L71.325 58.7164C70.918 59.0506 70.9077 59.6933 71.3044 60.156L76.1054 65.7754L70.5471 65.9297C69.8672 65.9451 69.6714 66.7523 70.1917 67.3744L71.8195 69.3178L69.5838 71.0299L68.229 72.0684L66.6476 70.1455C66.1376 69.5286 65.3185 69.5389 65.1743 70.161L64.0307 75.0401L59.6624 69.6417C59.3069 69.1995 58.7248 69.0813 58.3694 69.3692L57.0918 70.4232C56.7416 70.7111 56.7467 71.2972 57.0918 71.7394L68.9245 86.5514C69.3005 87.0193 69.9187 87.1889 70.3102 86.9216L71.7371 85.9499C72.1337 85.6825 72.144 85.0707 71.7577 84.5977L66.7867 78.4487L72.0822 78.5876C72.7673 78.6081 72.9683 77.8266 72.4377 77.184L70.8201 75.22L72.2007 74.1969L74.4827 72.5054L76.1518 74.4951C76.6927 75.1429 77.589 75.1532 77.759 74.5105L79.1344 69.3281L84.6154 75.7444C85.0378 76.238 85.7539 76.3922 86.2072 76.0838L87.8762 74.9475C88.3398 74.6339 88.3656 73.9655 87.9329 73.4617L74.2973 57.7139C73.8955 57.2512 73.231 57.1484 72.8137 57.4928Z" fill="url(#paint9_linear_7002_3971)"/>
<path d="M72.7981 57.5392L71.3094 58.7628C70.9024 59.097 70.8921 59.7397 71.2887 60.2024L76.0898 65.8218L70.5315 65.9761C69.8515 65.9915 69.6558 66.7987 70.1761 67.4208L71.8039 69.3642L69.5682 71.0762L68.2134 72.1148L66.6319 70.1919C66.122 69.575 65.3029 69.5853 65.1587 70.2074L64.0151 75.0865L59.6467 69.6881C59.2913 69.2459 58.7092 69.1277 58.3538 69.4156L57.0762 70.4696C56.7259 70.7575 56.7311 71.3436 57.0762 71.7857L68.9088 86.5978C69.2849 87.0657 69.903 87.2353 70.2945 86.968L71.7215 85.9963C72.1181 85.7289 72.1284 85.1171 71.7421 84.6441L66.771 78.4951L72.0666 78.6339C72.7517 78.6545 72.9526 77.873 72.422 77.2304L70.8045 75.2664L72.1851 74.2433L74.4671 72.5518L76.1361 74.5415C76.677 75.1893 77.5734 75.1996 77.7434 74.5569L79.1188 69.3745L84.5998 75.7908C85.0222 76.2844 85.7382 76.4386 86.1916 76.1301L87.8606 74.9939C88.3242 74.6803 88.3499 74.0119 87.9172 73.5081L74.2817 57.7603C73.8799 57.2976 73.2153 57.1947 72.7981 57.5392Z" fill="url(#paint10_linear_7002_3971)"/>
<path d="M72.7756 57.5905L71.2869 58.8141C70.8799 59.1483 70.8696 59.791 71.2663 60.2537L76.0673 65.8731L70.509 66.0273C69.8291 66.0428 69.6333 66.85 70.1536 67.4721L71.7814 69.4155L69.5457 71.1275L68.1909 72.166L66.6095 70.2432C66.0995 69.6262 65.2804 69.6365 65.1362 70.2586L63.9926 75.1377L59.6243 69.7394C59.2688 69.2972 58.6867 69.179 58.3313 69.4669L57.0538 70.5208C56.7035 70.8088 56.7086 71.3949 57.0538 71.837L68.8864 86.6491C69.2624 87.1169 69.8806 87.2866 70.2721 87.0193L71.699 86.0475C72.0956 85.7802 72.1059 85.1684 71.7196 84.6954L66.7486 78.5464L72.0441 78.6852C72.7293 78.7058 72.9302 77.9243 72.3996 77.2816L70.7821 75.3177L72.1626 74.2945L74.4447 72.6031L76.1137 74.5927C76.6546 75.2405 77.5509 75.2508 77.7209 74.6082L79.0963 69.4257L84.5773 75.8421C84.9997 76.3356 85.7158 76.4899 86.1691 76.1814L87.8381 75.0452C88.3017 74.7316 88.3275 74.0632 87.8948 73.5593L74.2592 57.8116C73.8574 57.3488 73.1929 57.246 72.7756 57.5905Z" fill="url(#paint11_linear_7002_3971)"/>
<path d="M72.76 57.6364L71.2713 58.86C70.8643 59.1942 70.854 59.8369 71.2507 60.2996L76.0517 65.919L70.4934 66.0733C69.8134 66.0887 69.6177 66.8959 70.138 67.518L71.7658 69.4614L69.5301 71.1734L68.1753 72.2119L66.5939 70.2891C66.0839 69.6721 65.2648 69.6824 65.1206 70.3045L63.977 75.1836L59.6086 69.7853C59.2532 69.3431 58.6711 69.2248 58.3157 69.5128L57.0381 70.5667C56.6878 70.8546 56.693 71.4408 57.0381 71.8829L68.8707 86.695C69.2468 87.1628 69.865 87.3325 70.2565 87.0652L71.6834 86.0934C72.08 85.8261 72.0903 85.2143 71.704 84.7413L66.7329 78.5923L72.0285 78.7311C72.7136 78.7517 72.9145 77.9702 72.3839 77.3275L70.7664 75.3636L72.147 74.3404L74.429 72.649L76.0981 74.6386C76.6389 75.2864 77.5353 75.2967 77.7053 74.6541L79.0807 69.4716L84.5617 75.888C84.9841 76.3815 85.7001 76.5358 86.1535 76.2273L87.8225 75.0911C88.2861 74.7775 88.3119 74.1091 87.8792 73.6052L74.2436 57.8575C73.8418 57.3947 73.1773 57.2919 72.76 57.6364Z" fill="url(#paint12_linear_7002_3971)"/>
<path d="M72.7395 57.6881L71.2508 58.9118C70.8438 59.246 70.8335 59.8886 71.2302 60.3513L76.0312 65.9708L70.4729 66.125C69.7929 66.1404 69.5972 66.9476 70.1175 67.5697L71.7453 69.5131L69.5096 71.2252L68.1548 72.2637L66.5733 70.3409C66.0634 69.7239 65.2443 69.7342 65.1001 70.3563L63.9565 75.2354L59.5881 69.837C59.2327 69.3949 58.6506 69.2766 58.2952 69.5645L57.0176 70.6185C56.6673 70.9064 56.6725 71.4925 57.0176 71.9347L68.8502 86.7467C69.2263 87.2146 69.8444 87.3843 70.2359 87.1169L71.6629 86.1452C72.0595 85.8779 72.0698 85.266 71.6835 84.793L66.7124 78.6441L72.008 78.7829C72.6931 78.8034 72.894 78.022 72.3634 77.3793L70.7459 75.4153L72.1265 74.3922L74.4085 72.7007L76.0776 74.6904C76.6184 75.3382 77.5148 75.3485 77.6848 74.7058L79.0602 69.5234L84.5412 75.9397C84.9636 76.4333 85.6796 76.5875 86.133 76.2791L87.802 75.1428C88.2656 74.8292 88.2914 74.1609 87.8587 73.657L74.2231 57.9092C73.8213 57.4465 73.1567 57.3437 72.7395 57.6881Z" fill="url(#paint13_linear_7002_3971)"/>
<path d="M72.7248 57.734L71.2361 58.9577C70.8292 59.2918 70.8189 59.9345 71.2155 60.3972L76.0165 66.0167L70.4583 66.1709C69.7783 66.1863 69.5825 66.9935 70.1028 67.6156L71.7306 69.559L69.495 71.2711L68.1402 72.3096L66.5587 70.3868C66.0487 69.7698 65.2297 69.7801 65.0854 70.4022L63.9418 75.2813L59.5735 69.8829C59.2181 69.4408 58.636 69.3225 58.2805 69.6104L57.003 70.6644C56.6527 70.9523 56.6578 71.5384 57.003 71.9806L68.8356 86.7926C69.2116 87.2605 69.8298 87.4302 70.2213 87.1628L71.6482 86.1911C72.0449 85.9237 72.0552 85.3119 71.6688 84.8389L66.6978 78.6899L71.9934 78.8288C72.6785 78.8493 72.8794 78.0679 72.3488 77.4252L70.7313 75.4612L72.1118 74.4381L74.3939 72.7466L76.0629 74.7363C76.6038 75.3841 77.5001 75.3944 77.6701 74.7517L79.0455 69.5693L84.5265 75.9856C84.949 76.4792 85.665 76.6334 86.1183 76.3249L87.7873 75.1887C88.251 74.8751 88.2767 74.2067 87.844 73.7029L74.2084 57.9551C73.8066 57.4924 73.1421 57.3896 72.7248 57.734Z" fill="url(#paint14_linear_7002_3971)"/>
<path d="M72.7043 57.7804L71.2156 59.0041C70.8086 59.3382 70.7983 59.9809 71.195 60.4436L75.996 66.063L70.4377 66.2173C69.7578 66.2327 69.562 67.0399 70.0823 67.662L71.7101 69.6054L69.4744 71.3174L68.1196 72.356L66.5382 70.4331C66.0282 69.8162 65.2091 69.8265 65.0649 70.4486L63.9213 75.3277L59.553 69.9293C59.1975 69.4872 58.6154 69.3689 58.26 69.6568L56.9825 70.7108C56.6322 70.9987 56.6373 71.5848 56.9825 72.0269L68.8151 86.839C69.1911 87.3069 69.8093 87.4765 70.2008 87.2092L71.6277 86.2375C72.0244 85.9701 72.0347 85.3583 71.6483 84.8853L66.6773 78.7363L71.9728 78.8752C72.658 78.8957 72.8589 78.1142 72.3283 77.4716L70.7108 75.5076L72.0913 74.4845L74.3734 72.793L76.0424 74.7827C76.5833 75.4305 77.4796 75.4408 77.6496 74.7981L79.025 69.6157L84.506 76.032C84.9284 76.5256 85.6445 76.6798 86.0978 76.3714L87.7668 75.2351C88.2305 74.9215 88.2562 74.2531 87.8235 73.7493L74.1879 58.0015C73.7861 57.5388 73.1216 57.436 72.7043 57.7804Z" fill="url(#paint15_linear_7002_3971)"/>
<path d="M72.6887 57.8322L71.2 59.0558C70.793 59.39 70.7827 60.0327 71.1794 60.4954L75.9804 66.1148L70.4221 66.269C69.7421 66.2845 69.5464 67.0916 70.0667 67.7137L71.6945 69.6572L69.4588 71.3692L68.104 72.4077L66.5226 70.4849C66.0126 69.8679 65.1935 69.8782 65.0493 70.5003L63.9057 75.3794L59.5374 69.9811C59.1819 69.5389 58.5998 69.4207 58.2444 69.7086L56.9668 70.7625C56.6166 71.0505 56.6217 71.6366 56.9668 72.0787L68.7995 86.8908C69.1755 87.3586 69.7937 87.5283 70.1852 87.261L71.6121 86.2892C72.0087 86.0219 72.019 85.4101 71.6327 84.9371L66.6616 78.7881L71.9572 78.9269C72.6423 78.9475 72.8432 78.166 72.3127 77.5233L70.6951 75.5594L72.0757 74.5362L74.3577 72.8448L76.0268 74.8344C76.5677 75.4822 77.464 75.4925 77.634 74.8499L79.0094 69.6674L84.4904 76.0838C84.9128 76.5773 85.6288 76.7316 86.0822 76.4231L87.7512 75.2869C88.2148 74.9733 88.2406 74.3049 87.8079 73.801L74.1723 58.0533C73.7705 57.5905 73.106 57.4877 72.6887 57.8322Z" fill="url(#paint16_linear_7002_3971)"/>
<path d="M72.6672 57.8781L71.1785 59.1017C70.7715 59.4359 70.7612 60.0786 71.1579 60.5413L75.9589 66.1607L70.4006 66.3149C69.7207 66.3304 69.5249 67.1376 70.0452 67.7597L71.673 69.7031L69.4373 71.4151L68.0825 72.4536L66.5011 70.5308C65.9911 69.9138 65.172 69.9241 65.0278 70.5462L63.8842 75.4253L59.5159 70.0269C59.1604 69.5848 58.5783 69.4665 58.2229 69.7545L56.9454 70.8084C56.5951 71.0963 56.6002 71.6825 56.9454 72.1246L68.778 86.9367C69.154 87.4045 69.7722 87.5742 70.1637 87.3068L71.5906 86.3351C71.9873 86.0678 71.9976 85.456 71.6112 84.983L66.6402 78.834L71.9357 78.9728C72.6209 78.9934 72.8218 78.2119 72.2912 77.5692L70.6737 75.6053L72.0542 74.5821L74.3363 72.8907L76.0053 74.8803C76.5462 75.5281 77.4425 75.5384 77.6125 74.8958L78.9879 69.7133L84.4689 76.1297C84.8913 76.6232 85.6074 76.7775 86.0607 76.469L87.7297 75.3328C88.1933 75.0192 88.2191 74.3508 87.7864 73.8469L74.1508 58.0992C73.749 57.6364 73.0845 57.5336 72.6672 57.8781Z" fill="url(#paint17_linear_7002_3971)"/>
<path d="M72.6516 57.9298L71.1629 59.1535C70.7559 59.4877 70.7456 60.1303 71.1423 60.593L75.9433 66.2125L70.385 66.3667C69.705 66.3821 69.5093 67.1893 70.0296 67.8114L71.6574 69.7548L69.4217 71.4669L68.0669 72.5054L66.4855 70.5826C65.9755 69.9656 65.1564 69.9759 65.0122 70.598L63.8686 75.4771L59.5003 70.0787C59.1448 69.6366 58.5627 69.5183 58.2073 69.8062L56.9297 70.8602C56.5794 71.1481 56.5846 71.7342 56.9297 72.1764L68.7623 86.9884C69.1384 87.4563 69.7566 87.626 70.1481 87.3586L71.575 86.3869C71.9716 86.1196 71.9819 85.5077 71.5956 85.0347L66.6245 78.8858L71.9201 79.0246C72.6052 79.0451 72.8061 78.2637 72.2756 77.621L70.658 75.657L72.0386 74.6339L74.3206 72.9424L75.9897 74.9321C76.5306 75.5799 77.4269 75.5902 77.5969 74.9475L78.9723 69.7651L84.4533 76.1814C84.8757 76.675 85.5917 76.8292 86.0451 76.5208L87.7141 75.3845C88.1777 75.0709 88.2035 74.4026 87.7708 73.8987L74.1352 58.1509C73.7334 57.6882 73.0689 57.5854 72.6516 57.9298Z" fill="url(#paint18_linear_7002_3971)"/>
<path d="M72.636 57.9757L71.1472 59.1994C70.7403 59.5335 70.73 60.1762 71.1266 60.6389L75.9277 66.2584L70.3694 66.4126C69.6894 66.428 69.4937 67.2352 70.0139 67.8573L71.6418 69.8007L69.4061 71.5128L68.0513 72.5513L66.4698 70.6285C65.9598 70.0115 65.1408 70.0218 64.9965 70.6439L63.853 75.523L59.4846 70.1246C59.1292 69.6825 58.5471 69.5642 58.1916 69.8521L56.9141 70.9061C56.5638 71.194 56.569 71.7801 56.9141 72.2223L68.7467 87.0343C69.1228 87.5022 69.7409 87.6719 70.1324 87.4045L71.5593 86.4328C71.956 86.1654 71.9663 85.5536 71.58 85.0806L66.6089 78.9316L71.9045 79.0705C72.5896 79.091 72.7905 78.3096 72.2599 77.6669L70.6424 75.7029L72.023 74.6798L74.305 72.9883L75.974 74.978C76.5149 75.6258 77.4113 75.6361 77.5812 74.9934L78.9567 69.811L84.4377 76.2273C84.8601 76.7209 85.5761 76.8751 86.0294 76.5666L87.6985 75.4304C88.1621 75.1168 88.1878 74.4484 87.7551 73.9446L74.1196 58.1968C73.7178 57.7341 73.0532 57.6313 72.636 57.9757Z" fill="url(#paint19_linear_7002_3971)"/>
<path d="M72.6164 58.0221L71.1277 59.2458C70.7207 59.5799 70.7104 60.2226 71.1071 60.6853L75.9081 66.3047L70.3499 66.459C69.6699 66.4744 69.4741 67.2816 69.9944 67.9037L71.6222 69.8471L69.3866 71.5591L68.0318 72.5977L66.4503 70.6748C65.9403 70.0579 65.1213 70.0682 64.977 70.6903L63.8334 75.5694L59.4651 70.171C59.1096 69.7289 58.5275 69.6106 58.1721 69.8985L56.8946 70.9525C56.5443 71.2404 56.5494 71.8265 56.8946 72.2686L68.7272 87.0807C69.1032 87.5486 69.7214 87.7182 70.1129 87.4509L71.5398 86.4792C71.9365 86.2118 71.9468 85.6 71.5604 85.127L66.5894 78.978L71.8849 79.1169C72.5701 79.1374 72.771 78.3559 72.2404 77.7133L70.6229 75.7493L72.0034 74.7262L74.2855 73.0347L75.9545 75.0244C76.4954 75.6722 77.3917 75.6825 77.5617 75.0398L78.9371 69.8574L84.4181 76.2737C84.8406 76.7673 85.5566 76.9215 86.0099 76.6131L87.6789 75.4768C88.1426 75.1632 88.1683 74.4948 87.7356 73.991L74.1 58.2432C73.6982 57.7805 73.0337 57.6777 72.6164 58.0221Z" fill="url(#paint20_linear_7002_3971)"/>
<path d="M72.6018 58.0734L71.1131 59.297C70.7061 59.6312 70.6958 60.2739 71.0925 60.7366L75.8935 66.356L70.3352 66.5103C69.6552 66.5257 69.4595 67.3329 69.9798 67.955L71.6076 69.8984L69.3719 71.6104L68.0171 72.649L66.4356 70.7261C65.9257 70.1092 65.1066 70.1195 64.9624 70.7415L63.8188 75.6206L59.4504 70.2223C59.095 69.7801 58.5129 69.6619 58.1575 69.9498L56.8799 71.0038C56.5296 71.2917 56.5348 71.8778 56.8799 72.3199L68.7125 87.132C69.0886 87.5999 69.7067 87.7695 70.0982 87.5022L71.5252 86.5305C71.9218 86.2631 71.9321 85.6513 71.5458 85.1783L66.5747 79.0293L71.8703 79.1681C72.5554 79.1887 72.7563 78.4072 72.2257 77.7646L70.6082 75.8006L71.9888 74.7775L74.2708 73.086L75.9399 75.0757C76.4807 75.7235 77.3771 75.7337 77.5471 75.0911L78.9225 69.9087L84.4035 76.325C84.8259 76.8186 85.5419 76.9728 85.9953 76.6643L87.6643 75.5281C88.1279 75.2145 88.1537 74.5461 87.7209 74.0423L74.0854 58.2945C73.6836 57.8318 73.019 57.7289 72.6018 58.0734Z" fill="url(#paint21_linear_7002_3971)"/>
<path d="M72.5823 58.1198L71.0935 59.3434C70.6866 59.6776 70.6763 60.3203 71.0729 60.783L75.874 66.4024L70.3157 66.5566C69.6357 66.5721 69.44 67.3793 69.9602 68.0014L71.5881 69.9448L69.3524 71.6568L67.9976 72.6953L66.4161 70.7725C65.9061 70.1555 65.0871 70.1658 64.9428 70.7879L63.7992 75.667L59.4309 70.2686C59.0755 69.8265 58.4934 69.7082 58.1379 69.9962L56.8604 71.0501C56.5101 71.338 56.5153 71.9242 56.8604 72.3663L68.693 87.1784C69.0691 87.6462 69.6872 87.8159 70.0787 87.5485L71.5056 86.5768C71.9023 86.3095 71.9126 85.6977 71.5262 85.2247L66.5552 79.0757L71.8508 79.2145C72.5359 79.2351 72.7368 78.4536 72.2062 77.8109L70.5887 75.847L71.9693 74.8238L74.2513 73.1324L75.9203 75.122C76.4612 75.7698 77.3576 75.7801 77.5275 75.1375L78.903 69.955L84.384 76.3714C84.8064 76.8649 85.5224 77.0192 85.9757 76.7107L87.6448 75.5745C88.1084 75.2609 88.1341 74.5925 87.7014 74.0886L74.0659 58.3409C73.664 57.8781 72.9995 57.7753 72.5823 58.1198Z" fill="url(#paint22_linear_7002_3971)"/>
<path d="M72.5666 58.171L71.0779 59.3947C70.6709 59.7289 70.6606 60.3715 71.0573 60.8342L75.8583 66.4537L70.3 66.6079C69.6201 66.6233 69.4243 67.4305 69.9446 68.0526L71.5724 69.996L69.3368 71.7081L67.9819 72.7466L66.4005 70.8238C65.8905 70.2068 65.0715 70.2171 64.9272 70.8392L63.7836 75.7183L59.4153 70.3199C59.0598 69.8778 58.4777 69.7595 58.1223 70.0474L56.8448 71.1014C56.4945 71.3893 56.4996 71.9754 56.8448 72.4176L68.6774 87.2297C69.0534 87.6975 69.6716 87.8672 70.0631 87.5998L71.49 86.6281C71.8867 86.3608 71.897 85.749 71.5106 85.276L66.5396 79.127L71.8352 79.2658C72.5203 79.2863 72.7212 78.5049 72.1906 77.8622L70.5731 75.8982L71.9536 74.8751L74.2357 73.1836L75.9047 75.1733C76.4456 75.8211 77.3419 75.8314 77.5119 75.1887L78.8873 70.0063L84.3683 76.4226C84.7908 76.9162 85.5068 77.0704 85.9601 76.762L87.6291 75.6257C88.0927 75.3121 88.1185 74.6438 87.6858 74.1399L74.0502 58.3921C73.6484 57.9294 72.9839 57.8266 72.5666 58.171Z" fill="url(#paint23_linear_7002_3971)"/>
<path d="M72.5432 58.2179L71.0545 59.4415C70.6475 59.7757 70.6372 60.4184 71.0339 60.8811L75.8349 66.5005L70.2766 66.6548C69.5966 66.6702 69.4009 67.4774 69.9212 68.0995L71.549 70.0429L69.3133 71.7549L67.9585 72.7935L66.377 70.8706C65.8671 70.2537 65.048 70.264 64.9038 70.8861L63.7602 75.7652L59.3918 70.3668C59.0364 69.9246 58.4543 69.8064 58.0989 70.0943L56.8213 71.1483C56.471 71.4362 56.4762 72.0223 56.8213 72.4644L68.6539 87.2765C69.03 87.7444 69.6481 87.914 70.0396 87.6467L71.4666 86.675C71.8632 86.4076 71.8735 85.7958 71.4872 85.3228L66.5161 79.1738L71.8117 79.3127C72.4968 79.3332 72.6977 78.5517 72.1671 77.9091L70.5496 75.9451L71.9302 74.922L74.2122 73.2305L75.8813 75.2202C76.4222 75.868 77.3185 75.8783 77.4885 75.2356L78.8639 70.0532L84.3449 76.4695C84.7673 76.9631 85.4833 77.1173 85.9367 76.8088L87.6057 75.6726C88.0693 75.359 88.0951 74.6906 87.6624 74.1868L74.0268 58.439C73.625 57.9763 72.9605 57.8735 72.5432 58.2179Z" fill="url(#paint24_linear_7002_3971)"/>
<path d="M72.5295 58.2638L71.0408 59.4874C70.6338 59.8216 70.6235 60.4643 71.0202 60.927L75.8212 66.5464L70.2629 66.7007C69.583 66.7161 69.3872 67.5233 69.9075 68.1454L71.5353 70.0888L69.2996 71.8008L67.9448 72.8394L66.3634 70.9165C65.8534 70.2996 65.0343 70.3099 64.8901 70.932L63.7465 75.8111L59.3782 70.4127C59.0227 69.9705 58.4406 69.8523 58.0852 70.1402L56.8077 71.1942C56.4574 71.4821 56.4625 72.0682 56.8077 72.5103L68.6403 87.3224C69.0163 87.7903 69.6345 87.9599 70.026 87.6926L71.4529 86.7209C71.8495 86.4535 71.8599 85.8417 71.4735 85.3687L66.5025 79.2197L71.798 79.3586C72.4832 79.3791 72.6841 78.5976 72.1535 77.955L70.536 75.991L71.9165 74.9679L74.1986 73.2764L75.8676 75.2661C76.4085 75.9139 77.3048 75.9242 77.4748 75.2815L78.8502 70.0991L84.3312 76.5154C84.7536 77.009 85.4697 77.1632 85.923 76.8547L87.592 75.7185C88.0556 75.4049 88.0814 74.7365 87.6487 74.2327L74.0131 58.4849C73.6113 58.0222 72.9468 57.9194 72.5295 58.2638Z" fill="url(#paint25_linear_7002_3971)"/>
<path d="M72.508 58.3156L71.0193 59.5392C70.6124 59.8734 70.602 60.5161 70.9987 60.9788L75.7997 66.5982L70.2415 66.7524C69.5615 66.7679 69.3657 67.5751 69.886 68.1971L71.5138 70.1406L69.2782 71.8526L67.9234 72.8912L66.3419 70.9683C65.8319 70.3514 65.0129 70.3616 64.8686 70.9837L63.725 75.8628L59.3567 70.4645C59.0013 70.0223 58.4192 69.9041 58.0637 70.192L56.7862 71.2459C56.4359 71.5339 56.441 72.12 56.7862 72.5621L68.6188 87.3742C68.9948 87.842 69.613 88.0117 70.0045 87.7444L71.4314 86.7726C71.8281 86.5053 71.8384 85.8935 71.452 85.4205L66.481 79.2715L71.7766 79.4103C72.4617 79.4309 72.6626 78.6494 72.132 78.0067L70.5145 76.0428L71.895 75.0197L74.1771 73.3282L75.8461 75.3178C76.387 75.9656 77.2833 75.9759 77.4533 75.3333L78.8287 70.1508L84.3097 76.5672C84.7321 77.0607 85.4482 77.215 85.9015 76.9065L87.5705 75.7703C88.0342 75.4567 88.0599 74.7883 87.6272 74.2845L73.9916 58.5367C73.5898 58.0739 72.9253 57.9711 72.508 58.3156Z" fill="url(#paint26_linear_7002_3971)"/>
<path d="M72.4934 58.362L71.0047 59.5856C70.5977 59.9198 70.5874 60.5624 70.9841 61.0252L75.7851 66.6446L70.2268 66.7988C69.5468 66.8142 69.3511 67.6214 69.8714 68.2435L71.4992 70.1869L69.2635 71.899L67.9087 72.9375L66.3273 71.0147C65.8173 70.3977 64.9982 70.408 64.854 71.0301L63.7104 75.9092L59.342 70.5108C58.9866 70.0687 58.4045 69.9504 58.0491 70.2383L56.7715 71.2923C56.4212 71.5802 56.4264 72.1663 56.7715 72.6085L68.6041 87.4206C68.9802 87.8884 69.5983 88.0581 69.9898 87.7907L71.4168 86.819C71.8134 86.5517 71.8237 85.9399 71.4374 85.4669L66.4663 79.3179L71.7619 79.4567C72.447 79.4773 72.6479 78.6958 72.1174 78.0531L70.4998 76.0891L71.8804 75.066L74.1624 73.3745L75.8315 75.3642C76.3723 76.012 77.2687 76.0223 77.4387 75.3796L78.8141 70.1972L84.2951 76.6136C84.7175 77.1071 85.4335 77.2614 85.8869 76.9529L87.5559 75.8167C88.0195 75.503 88.0453 74.8347 87.6126 74.3308L73.977 58.583C73.5752 58.1203 72.9107 58.0175 72.4934 58.362Z" fill="url(#paint27_linear_7002_3971)"/>
<path d="M72.4729 58.4079L70.9841 59.6315C70.5772 59.9657 70.5669 60.6083 70.9635 61.0711L75.7646 66.6905L70.2063 66.8447C69.5263 66.8602 69.3306 67.6673 69.8509 68.2894L71.4787 70.2328L69.243 71.9449L67.8882 72.9834L66.3067 71.0606C65.7968 70.4436 64.9777 70.4539 64.8335 71.076L63.6899 75.9551L59.3215 70.5568C58.9661 70.1146 58.384 69.9963 58.0286 70.2842L56.751 71.3382C56.4007 71.6261 56.4059 72.2122 56.751 72.6544L68.5836 87.4665C68.9597 87.9343 69.5778 88.104 69.9693 87.8366L71.3963 86.8649C71.7929 86.5976 71.8032 85.9858 71.4169 85.5128L66.4458 79.3638L71.7414 79.5026C72.4265 79.5232 72.6274 78.7417 72.0968 78.099L70.4793 76.135L71.8599 75.1119L74.1419 73.4204L75.8109 75.4101C76.3518 76.0579 77.2482 76.0682 77.4182 75.4255L78.7936 70.2431L84.2746 76.6595C84.697 77.153 85.413 77.3073 85.8664 76.9988L87.5354 75.8626C87.999 75.5489 88.0247 74.8806 87.592 74.3767L73.9565 58.6289C73.5547 58.1662 72.8901 58.0634 72.4729 58.4079Z" fill="url(#paint28_linear_7002_3971)"/>
<path d="M72.4582 58.4591L70.9695 59.6828C70.5625 60.0169 70.5522 60.6596 70.9489 61.1223L75.7499 66.7418L70.1917 66.896C69.5117 66.9114 69.3159 67.7186 69.8362 68.3407L71.464 70.2841L69.2284 71.9962L67.8736 73.0347L66.2921 71.1119C65.7821 70.4949 64.963 70.5052 64.8188 71.1273L63.6752 76.0064L59.3069 70.608C58.9514 70.1659 58.3693 70.0476 58.0139 70.3355L56.7364 71.3895C56.3861 71.6774 56.3912 72.2635 56.7364 72.7057L68.569 87.5177C68.945 87.9856 69.5632 88.1553 69.9547 87.8879L71.3816 86.9162C71.7783 86.6489 71.7886 86.037 71.4022 85.564L66.4312 79.4151L71.7267 79.5539C72.4119 79.5744 72.6128 78.793 72.0822 78.1503L70.4647 76.1863L71.8452 75.1632L74.1273 73.4717L75.7963 75.4614C76.3372 76.1092 77.2335 76.1195 77.4035 75.4768L78.7789 70.2944L84.2599 76.7107C84.6824 77.2043 85.3984 77.3585 85.8517 77.0501L87.5207 75.9138C87.9843 75.6002 88.0101 74.9319 87.5774 74.428L73.9418 58.6802C73.54 58.2175 72.8755 58.1147 72.4582 58.4591Z" fill="url(#paint29_linear_7002_3971)"/>
<path d="M72.4407 58.5055L70.9519 59.7291C70.545 60.0633 70.5347 60.706 70.9313 61.1687L75.7324 66.7881L70.1741 66.9424C69.4941 66.9578 69.2984 67.765 69.8186 68.3871L71.4465 70.3305L69.2108 72.0425L67.856 73.0811L66.2745 71.1582C65.7645 70.5413 64.9455 70.5516 64.8012 71.1737L63.6576 76.0528L59.2893 70.6544C58.9339 70.2122 58.3518 70.094 57.9963 70.3819L56.7188 71.4359C56.3685 71.7238 56.3737 72.3099 56.7188 72.752L68.5514 87.5641C68.9275 88.032 69.5456 88.2016 69.9371 87.9343L71.364 86.9626C71.7607 86.6952 71.771 86.0834 71.3846 85.6104L66.4136 79.4614L71.7092 79.6003C72.3943 79.6208 72.5952 78.8393 72.0646 78.1967L70.4471 76.2327L71.8277 75.2096L74.1097 73.5181L75.7787 75.5078C76.3196 76.1556 77.216 76.1659 77.3859 75.5232L78.7613 70.3408L84.2424 76.7571C84.6648 77.2507 85.3808 77.4049 85.8341 77.0964L87.5032 75.9602C87.9668 75.6466 87.9925 74.9782 87.5598 74.4744L73.9242 58.7266C73.5224 58.2639 72.8579 58.1611 72.4407 58.5055Z" fill="url(#paint30_linear_7002_3971)"/>
<path d="M72.4202 58.5568L70.9314 59.7804C70.5245 60.1146 70.5142 60.7573 70.9108 61.22L75.7119 66.8394L70.1536 66.9937C69.4736 67.0091 69.2778 67.8163 69.7981 68.4384L71.4259 70.3818L69.1903 72.0938L67.8355 73.1324L66.254 71.2095C65.744 70.5926 64.925 70.6029 64.7807 71.2249L63.6371 76.104L59.2688 70.7057C58.9134 70.2635 58.3313 70.1453 57.9758 70.4332L56.6983 71.4872C56.348 71.7751 56.3532 72.3612 56.6983 72.8033L68.5309 87.6154C68.9069 88.0833 69.5251 88.2529 69.9166 87.9856L71.3435 87.0139C71.7402 86.7465 71.7505 86.1347 71.3641 85.6617L66.3931 79.5127L71.6887 79.6515C72.3738 79.6721 72.5747 78.8906 72.0441 78.248L70.4266 76.284L71.8071 75.2609L74.0892 73.5694L75.7582 75.5591C76.2991 76.2069 77.1954 76.2171 77.3654 75.5745L78.7408 70.3921L84.2219 76.8084C84.6443 77.3019 85.3603 77.4562 85.8136 77.1477L87.4826 76.0115C87.9463 75.6979 87.972 75.0295 87.5393 74.5256L73.9037 58.7779C73.5019 58.3152 72.8374 58.2123 72.4202 58.5568Z" fill="url(#paint31_linear_7002_3971)"/>
<path d="M72.4045 58.6032L70.9158 59.8268C70.5088 60.161 70.4985 60.8037 70.8952 61.2664L75.6962 66.8858L70.1379 67.04C69.458 67.0555 69.2622 67.8626 69.7825 68.4847L71.4103 70.4282L69.1746 72.1402L67.8198 73.1787L66.2384 71.2559C65.7284 70.6389 64.9093 70.6492 64.7651 71.2713L63.6215 76.1504L59.2532 70.752C58.8977 70.3099 58.3156 70.1916 57.9602 70.4796L56.6827 71.5335C56.3324 71.8214 56.3375 72.4076 56.6827 72.8497L68.5153 87.6618C68.8913 88.1296 69.5095 88.2993 69.901 88.0319L71.3279 87.0602C71.7245 86.7929 71.7349 86.1811 71.3485 85.7081L66.3775 79.5591L71.673 79.6979C72.3582 79.7185 72.5591 78.937 72.0285 78.2943L70.411 76.3304L71.7915 75.3072L74.0736 73.6158L75.7426 75.6054C76.2835 76.2532 77.1798 76.2635 77.3498 75.6209L78.7252 70.4384L84.2062 76.8548C84.6286 77.3483 85.3447 77.5026 85.798 77.1941L87.467 76.0579C87.9306 75.7442 87.9564 75.0759 87.5237 74.572L73.8881 58.8243C73.4863 58.3615 72.8218 58.2587 72.4045 58.6032Z" fill="url(#paint32_linear_7002_3971)"/>
<path d="M72.385 58.6496L70.8963 59.8732C70.4893 60.2074 70.479 60.85 70.8757 61.3128L75.6767 66.9322L70.1184 67.0864C69.4384 67.1019 69.2427 67.909 69.763 68.5311L71.3908 70.4745L69.1551 72.1866L67.8003 73.2251L66.2188 71.3023C65.7089 70.6853 64.8898 70.6956 64.7456 71.3177L63.602 76.1968L59.2336 70.7984C58.8782 70.3563 58.2961 70.238 57.9407 70.5259L56.6631 71.5799C56.3128 71.8678 56.318 72.4539 56.6631 72.8961L68.4957 87.7082C68.8718 88.176 69.4899 88.3457 69.8814 88.0783L71.3084 87.1066C71.705 86.8393 71.7153 86.2275 71.329 85.7545L66.3579 79.6055L71.6535 79.7443C72.3386 79.7649 72.5395 78.9834 72.0089 78.3407L70.3914 76.3767L71.772 75.3536L74.054 73.6621L75.7231 75.6518C76.2639 76.2996 77.1603 76.3099 77.3303 75.6672L78.7057 70.4848L84.1867 76.9012C84.6091 77.3947 85.3251 77.549 85.7784 77.2405L87.4475 76.1043C87.9111 75.7906 87.9369 75.1223 87.5041 74.6184L73.8686 58.8706C73.4668 58.4079 72.8022 58.3051 72.385 58.6496Z" fill="url(#paint33_linear_7002_3971)"/>
<path d="M72.385 58.6496L70.8963 59.8732C70.4893 60.2074 70.479 60.85 70.8757 61.3128L75.6767 66.9322L70.1184 67.0864C69.4384 67.1019 69.2427 67.909 69.763 68.5311L71.3908 70.4745L69.1551 72.1866L67.8003 73.2251L66.2188 71.3023C65.7089 70.6853 64.8898 70.6956 64.7456 71.3177L63.602 76.1968L59.2336 70.7984C58.8782 70.3563 58.2961 70.238 57.9407 70.5259L56.6631 71.5799C56.3128 71.8678 56.318 72.4539 56.6631 72.8961L68.4957 87.7082C68.8718 88.176 69.4899 88.3457 69.8814 88.0783L71.3084 87.1066C71.705 86.8393 71.7153 86.2275 71.329 85.7545L66.3579 79.6055L71.6535 79.7443C72.3386 79.7649 72.5395 78.9834 72.0089 78.3407L70.3914 76.3767L71.772 75.3536L74.054 73.6621L75.7231 75.6518C76.2639 76.2996 77.1603 76.3099 77.3303 75.6672L78.7057 70.4848L84.1867 76.9012C84.6091 77.3947 85.3251 77.549 85.7784 77.2405L87.4475 76.1043C87.9111 75.7906 87.9369 75.1223 87.5041 74.6184L73.8686 58.8706C73.4668 58.4079 72.8022 58.3051 72.385 58.6496Z" fill="url(#paint34_linear_7002_3971)"/>
</g>
<defs>
<filter id="filter0_d_7002_3971" x="0.839844" y="0" width="145.921" height="150.16" filterUnits="userSpaceOnUse" color-interpolation-filters="sRGB">
<feFlood flood-opacity="0" result="BackgroundImageFix"/>
<feColorMatrix in="SourceAlpha" type="matrix" values="0 0 0 0 0 0 0 0 0 0 0 0 0 0 0 0 0 0 127 0" result="hardAlpha"/>
<feOffset dy="8"/>
<feGaussianBlur stdDeviation="22.5"/>
<feComposite in2="hardAlpha" operator="out"/>
<feColorMatrix type="matrix" values="0 0 0 0 0.992157 0 0 0 0 0.763137 0 0 0 0 0.419608 0 0 0 0.32 0"/>
<feBlend mode="normal" in2="BackgroundImageFix" result="effect1_dropShadow_7002_3971"/>
<feBlend mode="normal" in="SourceGraphic" in2="effect1_dropShadow_7002_3971" result="shape"/>
</filter>
<linearGradient id="paint0_linear_7002_3971" x1="54.8969" y1="47.5831" x2="102.827" y2="71.622" gradientUnits="userSpaceOnUse">
<stop offset="0.01" stop-color="#3C4661"/>
<stop offset="0.05" stop-color="#353D57"/>
<stop offset="0.2" stop-color="#1D2237"/>
<stop offset="0.28" stop-color="#14182B"/>
<stop offset="0.58" stop-color="#1C223B"/>
<stop offset="0.76" stop-color="#141A2B"/>
<stop offset="0.82" stop-color="#151B2D"/>
<stop offset="0.86" stop-color="#1B2235"/>
<stop offset="0.89" stop-color="#252D42"/>
<stop offset="0.92" stop-color="#333C56"/>
<stop offset="0.94" stop-color="#44506E"/>
<stop offset="0.95" stop-color="#4F5C7D"/>
</linearGradient>
<linearGradient id="paint1_linear_7002_3971" x1="70.8758" y1="43.2877" x2="72.0543" y2="96.9705" gradientUnits="userSpaceOnUse">
<stop stop-color="#202333"/>
<stop offset="0.36" stop-color="#12192B"/>
<stop offset="0.6" stop-color="#131A2D"/>
<stop offset="0.71" stop-color="#182034"/>
<stop offset="0.8" stop-color="#202941"/>
<stop offset="0.88" stop-color="#2B3754"/>
<stop offset="0.95" stop-color="#3A496C"/>
<stop offset="1" stop-color="#495B85"/>
</linearGradient>
<linearGradient id="paint2_linear_7002_3971" x1="64.0886" y1="95.0811" x2="79.4002" y2="50.525" gradientUnits="userSpaceOnUse">
<stop offset="0.02" stop-color="white"/>
<stop offset="0.18" stop-color="#FFCBBE"/>
<stop offset="0.32" stop-color="#FF9D85"/>
<stop offset="0.38" stop-color="#FFAB96" stop-opacity="0.7396"/>
<stop offset="0.51" stop-color="#FFCEC2" stop-opacity="0.2401"/>
<stop offset="0.67" stop-color="white" stop-opacity="0"/>
</linearGradient>
<linearGradient id="paint3_linear_7002_3971" x1="65.4663" y1="60.9638" x2="76.7502" y2="81.1621" gradientUnits="userSpaceOnUse">
<stop offset="0.01" stop-color="#3C4661"/>
<stop offset="0.08" stop-color="#343C56"/>
<stop offset="0.2" stop-color="#1F243A"/>
<stop offset="0.25" stop-color="#14182B"/>
<stop offset="0.63" stop-color="#141A2B"/>
<stop offset="0.76" stop-color="#151B2D"/>
<stop offset="0.83" stop-color="#1B2235"/>
<stop offset="0.89" stop-color="#252D42"/>
<stop offset="0.94" stop-color="#333C56"/>
<stop offset="0.98" stop-color="#44506E"/>
<stop offset="1" stop-color="#4F5C7D"/>
</linearGradient>
<linearGradient id="paint4_linear_7002_3971" x1="68.5642" y1="87.0038" x2="76.217" y2="59.3719" gradientUnits="userSpaceOnUse">
<stop stop-color="#FF6200"/>
<stop offset="0.5" stop-color="#DA5400"/>
<stop offset="1" stop-color="#B34600"/>
</linearGradient>
<linearGradient id="paint5_linear_7002_3971" x1="68.5466" y1="87.0497" x2="76.1943" y2="59.423" gradientUnits="userSpaceOnUse">
<stop stop-color="#FF6709"/>
<stop offset="0.54" stop-color="#D95705"/>
<stop offset="1" stop-color="#B64903"/>
</linearGradient>
<linearGradient id="paint6_linear_7002_3971" x1="68.5271" y1="87.1015" x2="76.1799" y2="59.4696" gradientUnits="userSpaceOnUse">
<stop stop-color="#FF6D12"/>
<stop offset="0.57" stop-color="#D85A0A"/>
<stop offset="1" stop-color="#B84B05"/>
</linearGradient>
<linearGradient id="paint7_linear_7002_3971" x1="68.5114" y1="87.1478" x2="76.1592" y2="59.516" gradientUnits="userSpaceOnUse">
<stop stop-color="#FF721A"/>
<stop offset="0.61" stop-color="#D65C0F"/>
<stop offset="1" stop-color="#BB4E08"/>
</linearGradient>
<linearGradient id="paint8_linear_7002_3971" x1="68.4919" y1="87.194" x2="76.1448" y2="59.5672" gradientUnits="userSpaceOnUse">
<stop stop-color="#FF7823"/>
<stop offset="0.65" stop-color="#D55F13"/>
<stop offset="1" stop-color="#BD510B"/>
</linearGradient>
<linearGradient id="paint9_linear_7002_3971" x1="68.4763" y1="87.2455" x2="76.1291" y2="59.6136" gradientUnits="userSpaceOnUse">
<stop stop-color="#FF7D2C"/>
<stop offset="0.71" stop-color="#D35F17"/>
<stop offset="1" stop-color="#C0530E"/>
</linearGradient>
<linearGradient id="paint10_linear_7002_3971" x1="68.4555" y1="87.2919" x2="76.1084" y2="59.66" gradientUnits="userSpaceOnUse">
<stop stop-color="#FF8235"/>
<stop offset="0.77" stop-color="#D16018"/>
<stop offset="1" stop-color="#C35610"/>
</linearGradient>
<linearGradient id="paint11_linear_7002_3971" x1="68.4382" y1="87.3432" x2="76.0911" y2="59.7113" gradientUnits="userSpaceOnUse">
<stop stop-color="#FF883E"/>
<stop offset="0.83" stop-color="#CF611A"/>
<stop offset="1" stop-color="#C55913"/>
</linearGradient>
<linearGradient id="paint12_linear_7002_3971" x1="68.4174" y1="87.3891" x2="76.0703" y2="59.7572" gradientUnits="userSpaceOnUse">
<stop stop-color="#FF8D46"/>
<stop offset="0.92" stop-color="#CC5F1A"/>
<stop offset="1" stop-color="#C85B16"/>
</linearGradient>
<linearGradient id="paint13_linear_7002_3971" x1="68.4021" y1="87.4357" x2="76.0549" y2="59.8089" gradientUnits="userSpaceOnUse">
<stop stop-color="#FF934F"/>
<stop offset="0.98" stop-color="#CC5F1A"/>
<stop offset="1" stop-color="#CB5E19"/>
</linearGradient>
<linearGradient id="paint14_linear_7002_3971" x1="68.3823" y1="87.4867" x2="76.0351" y2="59.8548" gradientUnits="userSpaceOnUse">
<stop stop-color="#FF9858"/>
<stop offset="0.91" stop-color="#D16620"/>
<stop offset="1" stop-color="#CD611B"/>
</linearGradient>
<linearGradient id="paint15_linear_7002_3971" x1="68.3669" y1="87.5331" x2="76.0198" y2="59.9012" gradientUnits="userSpaceOnUse">
<stop stop-color="#FF9E61"/>
<stop offset="0.88" stop-color="#D56A26"/>
<stop offset="1" stop-color="#D0631E"/>
</linearGradient>
<linearGradient id="paint16_linear_7002_3971" x1="68.3513" y1="87.5849" x2="75.999" y2="59.953" gradientUnits="userSpaceOnUse">
<stop stop-color="#FFA36A"/>
<stop offset="0.85" stop-color="#D86F2C"/>
<stop offset="1" stop-color="#D26621"/>
</linearGradient>
<linearGradient id="paint17_linear_7002_3971" x1="68.3298" y1="87.6308" x2="75.9827" y2="59.9989" gradientUnits="userSpaceOnUse">
<stop stop-color="#FFA872"/>
<stop offset="0.84" stop-color="#DC7330"/>
<stop offset="1" stop-color="#D56923"/>
</linearGradient>
<linearGradient id="paint18_linear_7002_3971" x1="68.3142" y1="87.6774" x2="75.9619" y2="60.0507" gradientUnits="userSpaceOnUse">
<stop stop-color="#FFAE7B"/>
<stop offset="0.83" stop-color="#DE7634"/>
<stop offset="1" stop-color="#D86B26"/>
</linearGradient>
<linearGradient id="paint19_linear_7002_3971" x1="68.2934" y1="87.7284" x2="75.9463" y2="60.0965" gradientUnits="userSpaceOnUse">
<stop stop-color="#FFB384"/>
<stop offset="0.83" stop-color="#E07938"/>
<stop offset="1" stop-color="#DA6E29"/>
</linearGradient>
<linearGradient id="paint20_linear_7002_3971" x1="68.279" y1="87.7748" x2="75.9319" y2="60.1429" gradientUnits="userSpaceOnUse">
<stop stop-color="#FFB98D"/>
<stop offset="0.84" stop-color="#E27C3B"/>
<stop offset="1" stop-color="#DD702C"/>
</linearGradient>
<linearGradient id="paint21_linear_7002_3971" x1="68.2592" y1="87.8209" x2="75.9121" y2="60.1942" gradientUnits="userSpaceOnUse">
<stop stop-color="#FFBE95"/>
<stop offset="0.86" stop-color="#E47E3D"/>
<stop offset="1" stop-color="#E0732E"/>
</linearGradient>
<linearGradient id="paint22_linear_7002_3971" x1="68.2448" y1="87.8725" x2="75.8977" y2="60.2406" gradientUnits="userSpaceOnUse">
<stop stop-color="#FFC39E"/>
<stop offset="0.88" stop-color="#E57F3E"/>
<stop offset="1" stop-color="#E27631"/>
</linearGradient>
<linearGradient id="paint23_linear_7002_3971" x1="68.2241" y1="87.9186" x2="75.8769" y2="60.2919" gradientUnits="userSpaceOnUse">
<stop stop-color="#FFC9A7"/>
<stop offset="0.92" stop-color="#E77E3D"/>
<stop offset="1" stop-color="#E57834"/>
</linearGradient>
<linearGradient id="paint24_linear_7002_3971" x1="68.2058" y1="87.9706" x2="75.8586" y2="60.3387" gradientUnits="userSpaceOnUse">
<stop stop-color="#FFCEB0"/>
<stop offset="0.96" stop-color="#E77E3A"/>
<stop offset="1" stop-color="#E77B36"/>
</linearGradient>
<linearGradient id="paint25_linear_7002_3971" x1="68.1921" y1="88.0165" x2="75.8398" y2="60.3846" gradientUnits="userSpaceOnUse">
<stop stop-color="#FFD4B9"/>
<stop offset="1" stop-color="#EA7E39"/>
</linearGradient>
<linearGradient id="paint26_linear_7002_3971" x1="68.1706" y1="88.0631" x2="75.8235" y2="60.4364" gradientUnits="userSpaceOnUse">
<stop stop-color="#FFD9C1"/>
<stop offset="1" stop-color="#ED803C"/>
</linearGradient>
<linearGradient id="paint27_linear_7002_3971" x1="68.156" y1="88.1146" x2="75.8037" y2="60.4828" gradientUnits="userSpaceOnUse">
<stop stop-color="#FFDFCA"/>
<stop offset="1" stop-color="#EF833F"/>
</linearGradient>
<linearGradient id="paint28_linear_7002_3971" x1="68.1355" y1="88.1605" x2="75.7883" y2="60.5338" gradientUnits="userSpaceOnUse">
<stop stop-color="#FFE4D3"/>
<stop offset="1" stop-color="#F28641"/>
</linearGradient>
<linearGradient id="paint29_linear_7002_3971" x1="68.1208" y1="88.2118" x2="75.7685" y2="60.58" gradientUnits="userSpaceOnUse">
<stop stop-color="#FFE9DC"/>
<stop offset="1" stop-color="#F58844"/>
</linearGradient>
<linearGradient id="paint30_linear_7002_3971" x1="68.0981" y1="88.2582" x2="75.751" y2="60.6263" gradientUnits="userSpaceOnUse">
<stop stop-color="#FFEFE5"/>
<stop offset="1" stop-color="#F78B47"/>
</linearGradient>
<linearGradient id="paint31_linear_7002_3971" x1="68.0827" y1="88.3043" x2="75.7356" y2="60.6776" gradientUnits="userSpaceOnUse">
<stop stop-color="#FFF4ED"/>
<stop offset="1" stop-color="#FA8E4A"/>
</linearGradient>
<linearGradient id="paint32_linear_7002_3971" x1="68.062" y1="88.3558" x2="75.7148" y2="60.724" gradientUnits="userSpaceOnUse">
<stop stop-color="#FFFAF6"/>
<stop offset="1" stop-color="#FC904C"/>
</linearGradient>
<linearGradient id="paint33_linear_7002_3971" x1="68.0476" y1="88.4022" x2="75.7004" y2="60.7704" gradientUnits="userSpaceOnUse">
<stop stop-color="white"/>
<stop offset="1" stop-color="#FF934F"/>
</linearGradient>
<linearGradient id="paint34_linear_7002_3971" x1="68.0476" y1="88.4022" x2="75.7004" y2="60.7704" gradientUnits="userSpaceOnUse">
<stop stop-color="#FFC89C"/>
<stop offset="0.53" stop-color="#FF6200"/>
<stop offset="0.95" stop-color="#DA5500"/>
<stop offset="1" stop-color="#D65400"/>
</linearGradient>
</defs>
</svg>
