<svg width="25" height="25" viewBox="0 0 25 25" fill="none" xmlns="http://www.w3.org/2000/svg">
<mask id="mask0_8947_15638" style="mask-type:alpha" maskUnits="userSpaceOnUse" x="0" y="0" width="25" height="25">
<rect x="0.5625" y="24.3047" width="24" height="24" transform="rotate(-90 0.5625 24.3047)" fill="#D9D9D9"/>
</mask>
<g mask="url(#mask0_8947_15638)">
<path d="M12.5625 13.5078L16.4625 9.60781C16.6459 9.42448 16.8792 9.33281 17.1625 9.33281C17.4459 9.33281 17.6792 9.42448 17.8625 9.60781C18.0459 9.79115 18.1375 10.0245 18.1375 10.3078C18.1375 10.5911 18.0459 10.8245 17.8625 11.0078L13.2625 15.6078C13.1625 15.7078 13.0542 15.7786 12.9375 15.8203C12.8209 15.862 12.6959 15.8828 12.5625 15.8828C12.4292 15.8828 12.3042 15.862 12.1875 15.8203C12.0709 15.7786 11.9625 15.7078 11.8625 15.6078L7.26255 11.0078C7.07922 10.8245 6.98755 10.5911 6.98755 10.3078C6.98755 10.0245 7.07922 9.79115 7.26255 9.60781C7.44588 9.42448 7.67922 9.33281 7.96255 9.33281C8.24588 9.33281 8.47922 9.42448 8.66255 9.60781L12.5625 13.5078Z" fill="white"/>
</g>
</svg>
