 <svg width="20" height="20" viewBox="0 0 20 20" fill="none" xmlns="http://www.w3.org/2000/svg">
<rect x="3.90234" y="5.74414" width="12.2012" height="8.50391" rx="2" fill="white"/>
<path d="M12.5037 9.92721L9.08867 8.19471C9.06771 8.18401 9.04435 8.17888 9.02083 8.17979C8.99731 8.18071 8.97442 8.18764 8.95435 8.19993C8.93428 8.21223 8.91771 8.22947 8.90621 8.25C8.8947 8.27053 8.88867 8.29368 8.88867 8.31721V11.6772C8.88907 11.7001 8.89516 11.7225 8.90639 11.7424C8.91763 11.7623 8.93365 11.7791 8.95301 11.7913C8.97237 11.8034 8.99445 11.8106 9.01727 11.812C9.04008 11.8135 9.06291 11.8093 9.08367 11.7997L12.4987 10.1722C12.5215 10.1612 12.5408 10.144 12.5545 10.1227C12.5682 10.1013 12.5757 10.0766 12.5763 10.0512C12.5768 10.0259 12.5703 10.0009 12.5575 9.97899C12.5446 9.9571 12.526 9.93918 12.5037 9.92721Z" fill="#080B18"/>
<path d="M5 0C2.23858 0 0 2.23858 0 5V15C0 17.7614 2.23858 20 5 20H15C17.7614 20 20 17.7614 20 15V5C20 2.23858 17.7614 0 15 0H5ZM16.25 11.825C16.25 12.1661 16.1827 12.5038 16.0519 12.8188C15.9212 13.1339 15.7296 13.42 15.488 13.6608C15.2465 13.9017 14.9598 14.0925 14.6444 14.2223C14.329 14.3522 13.9911 14.4185 13.65 14.4175H6.35C6.00892 14.4185 5.67099 14.3522 5.35559 14.2223C5.04019 14.0925 4.75351 13.9017 4.51198 13.6608C4.27044 13.42 4.07881 13.1339 3.94806 12.8188C3.8173 12.5038 3.75 12.1661 3.75 11.825V8.175C3.75 7.83392 3.8173 7.49618 3.94806 7.18116C4.07881 6.86613 4.27044 6.58 4.51198 6.33917C4.75351 6.09833 5.04019 5.90753 5.35559 5.77769C5.67099 5.64784 6.00892 5.58151 6.35 5.5825H13.65C13.9911 5.58151 14.329 5.64784 14.6444 5.77769C14.9598 5.90753 15.2465 6.09833 15.488 6.33917C15.7296 6.58 15.9212 6.86613 16.0519 7.18116C16.1827 7.49618 16.25 7.83392 16.25 8.175V11.825Z" fill="white" fill-opacity="0.16"/>
</svg>
