<svg width="20" height="20" viewBox="0 0 20 20" fill="none" xmlns="http://www.w3.org/2000/svg">
<g clip-path="url(#clip0_4966_3975)">
<path d="M16.5 0H3.5C1.567 0 0 1.567 0 3.5V16.5C0 18.433 1.567 20 3.5 20H16.5C18.433 20 20 18.433 20 16.5V3.5C20 1.567 18.433 0 16.5 0Z" fill="white" fill-opacity="0.16"/>
<path d="M5.63438 7.35547H2.8125V17.5805H5.63438V7.35547Z" fill="white"/>
<path d="M15.0594 7.35598C12.9781 6.56223 11.4719 7.90598 10.8281 8.65598V7.35598H8.01562V17.581H10.8281V12.1872C10.8121 11.5036 11.0619 10.8404 11.525 10.3372C11.6572 10.1816 11.82 10.055 12.0034 9.96518C12.1868 9.87539 12.3867 9.82438 12.5906 9.81535C12.8187 9.81097 13.0454 9.85273 13.257 9.93811C13.4685 10.0235 13.6607 10.1507 13.8219 10.3122C14.1714 10.6775 14.3624 11.1661 14.3531 11.6716V17.581H17.5281V11.2497C17.5281 11.2497 17.8813 8.41223 15.0594 7.35598Z" fill="white"/>
<path d="M4.21562 5.94297C5.18903 5.94297 5.97812 5.15387 5.97812 4.18047C5.97812 3.20707 5.18903 2.41797 4.21562 2.41797C3.24222 2.41797 2.45312 3.20707 2.45312 4.18047C2.45312 5.15387 3.24222 5.94297 4.21562 5.94297Z" fill="white"/>
</g>
<defs>
<clipPath id="clip0_4966_3975">
<rect width="20" height="20" fill="white"/>
</clipPath>
</defs>
</svg>
