<svg width="226" height="26" viewBox="0 0 226 26" fill="none" xmlns="http://www.w3.org/2000/svg">
<path d="M29.5439 12.5977C29.5439 19.5611 18.5932 25.2026 5.07809 25.2026C3.33724 25.2026 1.63973 25.1087 0 24.9354H0.195033C12.8722 24.9354 23.1512 19.4167 23.1512 12.6049C23.1512 5.79321 12.8794 0.267268 0.195033 0.267268H0.0288938C1.65417 0.093905 3.34446 0 5.07809 0C18.5932 0 29.5439 5.64152 29.5439 12.5977Z" fill="url(#paint0_linear_7045_9832)"/>
<path d="M20.1672 12.5974C20.1672 16.7293 14.3451 20.2904 5.95868 21.9157C4.36952 22.2263 2.68645 22.4647 0.931152 22.6236C7.94513 20.7455 12.7343 16.9604 12.7343 12.5974C12.7343 8.23448 7.93791 4.44939 0.931152 2.57129C2.68645 2.73021 4.36229 2.96858 5.95146 3.27919C14.3451 4.90447 20.1672 8.46563 20.1672 12.5974Z" fill="url(#paint1_linear_7045_9832)"/>
<path d="M49.1896 6.74316H44.3788C42.7969 6.74316 41.3522 7.38605 40.3048 8.43345C39.2646 9.48085 38.6145 10.9183 38.6145 12.5003C38.6145 15.6714 41.2077 18.2646 44.3788 18.2646H49.1896C50.2298 18.2646 51.205 17.9829 52.0501 17.4917L50.4465 15.8808C49.9553 16.1192 49.3991 16.2565 48.8212 16.2565H44.7472C42.6885 16.2565 40.9982 14.5662 40.9982 12.5003C40.9982 11.4673 41.4172 10.5283 42.0962 9.84925C42.7824 9.17025 43.7215 8.74406 44.7472 8.74406H48.8212C50.8799 8.74406 52.5702 10.4344 52.5702 12.5003C52.5702 13.1865 52.3824 13.8294 52.0501 14.3856L53.7188 16.0542C54.4917 15.0718 54.954 13.8366 54.954 12.5003C54.954 9.33639 52.3607 6.74316 49.1896 6.74316Z" fill="#FFB70F" stroke="#FFBC1E"/>
<path d="M69.3005 7.00293V14.0458C69.3005 15.1582 68.3976 16.0684 67.278 16.0684H62.171C61.0586 16.0684 60.1484 15.1654 60.1484 14.0458V7.00293H57.9597V14.9704C57.9597 16.7835 59.4333 18.2571 61.2464 18.2571H68.2026C70.0157 18.2571 71.4893 16.7835 71.4893 14.9704V7.00293H69.3005Z" fill="#FFB70F" stroke="#FFBC1E"/>
<path d="M93.5778 16.2562H85.083C83.9706 16.2562 83.0604 15.3532 83.0604 14.2336V11.2142C83.0604 10.1018 83.9633 9.19164 85.083 9.19164H93.5778V7.00293H84.8229C82.6415 7.00293 80.8717 8.77268 80.8717 10.9542V14.8621C80.8717 16.8413 82.4753 18.4449 84.4545 18.4449H93.5705V16.2562H93.5778Z" fill="#FFB70F" stroke="#FFBC1E"/>
<path d="M75.2377 18.2783H77.4264V7.00972H75.2377V18.2783Z" fill="#FFB70F" stroke="#FFBC1E"/>
<path d="M96.2506 18.4521H98.4393V7.01019H96.2506V18.4521Z" fill="#FFB70F" stroke="#FFBC1E"/>
<path d="M112.424 18.4447H108.047L98.3745 12.8682H102.752L112.424 18.4447Z" fill="#FFB70F" stroke="#FFBC1E"/>
<path d="M112.901 7.00977L102.752 12.868H98.3745L108.523 7.00977H112.901Z" fill="#FFB70F" stroke="#FFBC1E"/>
<path d="M145.776 10.7314C145.776 10.3628 145.711 10.0593 145.592 9.82074C145.472 9.59307 145.31 9.40877 145.104 9.27867C144.898 9.14857 144.681 9.06184 144.432 9.01848C144.193 8.97511 143.944 8.95343 143.694 8.95343H137.764C137.547 8.95343 137.309 8.98595 137.06 9.051C136.81 9.11605 136.561 9.22446 136.333 9.37624C136.105 9.52802 135.91 9.72317 135.737 9.96168C135.563 10.2002 135.455 10.4929 135.401 10.829V16.8351H133.97V7.5332H135.401L135.26 9.34372H135.466C135.672 8.79081 136.04 8.34631 136.572 8.02107C137.103 7.69582 137.764 7.5332 138.577 7.5332H144.237C144.746 7.5332 145.169 7.59825 145.505 7.71751C145.841 7.83676 146.123 7.99938 146.34 8.17285C146.557 8.35715 146.708 8.5523 146.795 8.75828C146.893 8.97511 146.936 9.15942 146.936 9.34372H147.142C147.142 9.17026 147.196 8.97511 147.294 8.75828C147.402 8.54145 147.565 8.34631 147.793 8.17285C148.02 7.98854 148.313 7.83676 148.66 7.71751C149.007 7.59825 149.44 7.5332 149.928 7.5332H154.33C154.818 7.5332 155.273 7.61993 155.685 7.80424C156.108 7.98854 156.466 8.23789 156.791 8.5523C157.105 8.8667 157.355 9.23531 157.539 9.65812C157.723 10.0809 157.81 10.5254 157.81 11.0133V16.846H156.379V11.4795C156.379 10.7314 156.151 10.1351 155.707 9.66896C155.251 9.20278 154.644 8.97511 153.864 8.97511H149.234C149.039 8.97511 148.833 8.98595 148.616 9.01848C148.4 9.051 148.194 9.11605 147.999 9.21362C147.803 9.3112 147.63 9.45214 147.5 9.6256C147.359 9.79906 147.272 10.0376 147.229 10.3194V16.846H145.798V10.7531L145.776 10.7314Z" fill="white"/>
<path d="M178.355 16.8247H176.772L176.913 14.6347H176.707C176.599 15.1768 176.415 15.5888 176.144 15.8815C175.872 16.1742 175.58 16.391 175.276 16.532C174.973 16.6729 174.691 16.7597 174.42 16.7813C174.16 16.803 173.986 16.8247 173.899 16.8247H166.939C166.614 16.8247 166.289 16.7813 165.953 16.7054C165.616 16.6187 165.313 16.4886 165.031 16.2935C164.749 16.0983 164.522 15.8381 164.337 15.5129C164.153 15.1876 164.066 14.7865 164.066 14.3095V13.5831C164.066 13.247 164.11 12.9543 164.196 12.6724C164.283 12.4014 164.435 12.1629 164.652 11.9569C164.868 11.7509 165.161 11.5991 165.519 11.4799C165.877 11.3715 166.332 11.3064 166.885 11.3064H176.837C176.816 10.9487 176.761 10.6017 176.664 10.2873C176.566 9.97292 176.425 9.69104 176.241 9.45253C176.057 9.21402 175.818 9.02972 175.547 8.88878C175.265 8.74784 174.94 8.68279 174.55 8.68279H167.806C167.438 8.68279 167.069 8.68279 166.711 8.71532C166.354 8.737 166.018 8.78036 165.692 8.84541C165.367 8.91046 165.074 9.00803 164.803 9.11645C164.532 9.2357 164.283 9.37664 164.066 9.56095V8.34671C164.446 8.04315 164.901 7.82632 165.443 7.69622C165.985 7.56612 166.516 7.49023 167.08 7.49023H175.211C175.688 7.49023 176.122 7.57697 176.501 7.75043C176.892 7.92389 177.217 8.17324 177.499 8.49849C177.781 8.82373 177.987 9.21402 178.138 9.66936C178.29 10.1247 178.366 10.6342 178.366 11.1872V16.7813L178.355 16.8247ZM176.881 12.5098H167.297C166.657 12.5098 166.191 12.6291 165.92 12.8459C165.638 13.0736 165.497 13.4313 165.497 13.93C165.497 14.1469 165.519 14.3529 165.573 14.5372C165.627 14.7323 165.714 14.8949 165.855 15.0359C165.996 15.1768 166.169 15.2961 166.408 15.372C166.636 15.4587 166.939 15.4912 167.297 15.4912H174.366C175.168 15.4912 175.786 15.2419 176.198 14.7323C176.61 14.2228 176.837 13.4747 176.881 12.4881V12.5098Z" fill="white"/>
<path d="M197.033 17.388L197.174 14.4716H196.968C196.838 14.8836 196.653 15.2414 196.426 15.5449C196.198 15.8485 195.949 16.087 195.678 16.2821C195.407 16.4773 195.136 16.6182 194.865 16.7049C194.594 16.7917 194.333 16.835 194.095 16.835H187.221C186.603 16.835 186.072 16.7158 185.628 16.4881C185.183 16.2605 184.836 15.9677 184.554 15.6208C184.283 15.2739 184.077 14.8944 183.958 14.4933C183.839 14.0922 183.774 13.7127 183.774 13.3658V11.0132C183.774 10.6012 183.861 10.1893 184.034 9.77728C184.207 9.3653 184.457 8.9967 184.76 8.66061C185.075 8.32453 185.433 8.06433 185.855 7.85835C186.278 7.65236 186.723 7.54395 187.211 7.54395H194.084C194.42 7.54395 194.756 7.58731 195.081 7.67404C195.407 7.76077 195.699 7.89087 195.96 8.04265C196.22 8.20527 196.447 8.38958 196.621 8.61725C196.794 8.84492 196.914 9.08343 196.957 9.35446H197.163L197.022 7.54395H198.453V17.8867C198.453 18.2878 198.377 18.6672 198.225 19.0142C198.074 19.3611 197.868 19.6755 197.607 19.9357C197.347 20.1959 197.033 20.4019 196.686 20.5537C196.339 20.7054 195.96 20.7813 195.558 20.7813H187.178C186.614 20.7813 186.072 20.7163 185.541 20.5753C185.01 20.4452 184.554 20.2284 184.164 19.9249V18.6347C184.598 19.0033 185.14 19.2527 185.801 19.3719C186.462 19.4912 187.156 19.5454 187.904 19.5454H194.854C195.19 19.5454 195.493 19.4912 195.764 19.3828C196.025 19.2744 196.252 19.1226 196.437 18.9274C196.621 18.7323 196.762 18.5046 196.859 18.2444C196.957 17.9842 197.022 17.7024 197.033 17.388ZM197.033 12.6719V11.5444C197.033 10.7747 196.827 10.1567 196.426 9.67971C196.025 9.20268 195.396 8.96417 194.55 8.96417H187.731C187.406 8.96417 187.102 9.01838 186.799 9.12679C186.495 9.23521 186.235 9.39783 185.996 9.60382C185.769 9.8098 185.573 10.07 185.433 10.3844C185.292 10.6988 185.216 11.0674 185.216 11.4902V12.8346C185.216 13.1815 185.27 13.5176 185.367 13.832C185.476 14.1464 185.639 14.4174 185.855 14.6451C186.083 14.8727 186.365 15.0571 186.712 15.198C187.059 15.3281 187.482 15.404 187.98 15.404H194.507C194.843 15.404 195.157 15.3281 195.461 15.1871C195.764 15.0462 196.035 14.8511 196.263 14.6017C196.491 14.3524 196.686 14.0596 196.816 13.7344C196.957 13.3983 197.022 13.0514 197.022 12.6828L197.033 12.6719Z" fill="white"/>
<path d="M203.245 6.59016V4.42188H204.687V6.59016H203.245ZM203.245 16.8245V7.52252H204.687V16.8245H203.245Z" fill="white"/>
<path d="M212.494 15.1865C212.169 15.0347 211.898 14.8504 211.681 14.601C211.464 14.3625 211.301 14.0915 211.193 13.7771C211.084 13.4735 211.03 13.1591 211.03 12.8447V11.5221C211.03 11.1535 211.095 10.8065 211.225 10.503C211.355 10.1886 211.54 9.91754 211.767 9.68987C212.006 9.45136 212.277 9.2779 212.581 9.1478C212.895 9.0177 213.231 8.95265 213.589 8.95265H222.24C222.24 8.95265 222.316 8.95265 222.349 8.95265H225.352C225.265 8.8334 225.178 8.72498 225.081 8.61657C224.766 8.26964 224.387 7.99861 223.942 7.80346C223.498 7.60832 223.01 7.51074 222.468 7.51074H213.079C212.602 7.51074 212.158 7.59747 211.735 7.78178C211.312 7.96608 210.943 8.21544 210.618 8.52984C210.304 8.84424 210.054 9.21285 209.881 9.62482C209.697 10.0476 209.61 10.503 209.61 10.9908V13.3434C209.61 13.8205 209.697 14.265 209.881 14.6986C210.054 15.1214 210.304 15.49 210.618 15.8044C210.943 16.1188 211.312 16.3682 211.735 16.5416C212.158 16.726 212.602 16.8127 213.079 16.8127H222.468C223.01 16.8127 223.498 16.7151 223.942 16.5091C224.387 16.3031 224.766 16.0213 225.081 15.6743C225.157 15.5876 225.232 15.49 225.308 15.3925H213.589C213.177 15.3925 212.808 15.3166 212.494 15.1756V15.1865Z" fill="url(#paint2_linear_7045_9832)"/>
<path d="M133.982 7.52246H114.901V9.37634H133.982V7.52246Z" fill="url(#paint3_linear_7045_9832)"/>
<path d="M133.982 10.665H118.435V12.7574H133.982V10.665Z" fill="url(#paint4_linear_7045_9832)"/>
<path d="M133.981 14.2979H123.042V16.8239H133.981V14.2979Z" fill="url(#paint5_linear_7045_9832)"/>
<defs>
<linearGradient id="paint0_linear_7045_9832" x1="3.36613" y1="12.6049" x2="26.4884" y2="12.6049" gradientUnits="userSpaceOnUse">
<stop stop-color="#FFB70F" stop-opacity="0"/>
<stop offset="1" stop-color="#FFB70F"/>
</linearGradient>
<linearGradient id="paint1_linear_7045_9832" x1="0.512192" y1="12.5974" x2="23.6273" y2="12.5974" gradientUnits="userSpaceOnUse">
<stop offset="0.13" stop-color="white" stop-opacity="0"/>
<stop offset="0.21" stop-color="white" stop-opacity="0.0169"/>
<stop offset="0.45" stop-color="white" stop-opacity="0.25"/>
<stop offset="0.64" stop-color="white" stop-opacity="0.5929"/>
<stop offset="0.77" stop-color="white" stop-opacity="0.8836"/>
<stop offset="0.84" stop-color="white"/>
</linearGradient>
<linearGradient id="paint2_linear_7045_9832" x1="225.569" y1="12.1726" x2="209.924" y2="12.1726" gradientUnits="userSpaceOnUse">
<stop stop-color="white" stop-opacity="0"/>
<stop offset="0.09" stop-color="white" stop-opacity="0.04"/>
<stop offset="0.21" stop-color="white" stop-opacity="0.1936"/>
<stop offset="0.33" stop-color="white" stop-opacity="0.4096"/>
<stop offset="0.43" stop-color="white" stop-opacity="0.64"/>
<stop offset="0.53" stop-color="white" stop-opacity="0.8281"/>
<stop offset="0.62" stop-color="white" stop-opacity="0.9604"/>
<stop offset="0.68" stop-color="white"/>
</linearGradient>
<linearGradient id="paint3_linear_7045_9832" x1="114.901" y1="8.44398" x2="133.982" y2="8.44398" gradientUnits="userSpaceOnUse">
<stop stop-color="white" stop-opacity="0"/>
<stop offset="0.09" stop-color="white" stop-opacity="0.01"/>
<stop offset="0.26" stop-color="white" stop-opacity="0.0361"/>
<stop offset="0.49" stop-color="white" stop-opacity="0.1764"/>
<stop offset="0.77" stop-color="white" stop-opacity="0.5329"/>
<stop offset="1" stop-color="white"/>
</linearGradient>
<linearGradient id="paint4_linear_7045_9832" x1="118.435" y1="11.7058" x2="56.4222" y2="11.7058" gradientUnits="userSpaceOnUse">
<stop stop-color="white" stop-opacity="0"/>
<stop offset="0.09" stop-color="white" stop-opacity="0.01"/>
<stop offset="0.26" stop-color="white" stop-opacity="0.0361"/>
<stop offset="0.49" stop-color="white" stop-opacity="0.1764"/>
<stop offset="0.77" stop-color="white" stop-opacity="0.5329"/>
<stop offset="1" stop-color="white"/>
</linearGradient>
<linearGradient id="paint5_linear_7045_9832" x1="123.042" y1="15.5555" x2="56.4209" y2="15.5555" gradientUnits="userSpaceOnUse">
<stop stop-color="white" stop-opacity="0"/>
<stop offset="0.09" stop-color="white" stop-opacity="0.01"/>
<stop offset="0.26" stop-color="white" stop-opacity="0.0361"/>
<stop offset="0.49" stop-color="white" stop-opacity="0.1764"/>
<stop offset="0.77" stop-color="white" stop-opacity="0.5329"/>
<stop offset="1" stop-color="white"/>
</linearGradient>
</defs>
</svg>
